<svg xmlns="http://www.w3.org/2000/svg" width="24" height="25" fill="currentColor" viewBox="0 0 24 25">
  <path d="M21.78 6.457 19 3.707a1.54 1.54 0 0 0-1.57-.4c-2.78 1-10.25.81-11.71-.39L3 5.707a1.54 1.54 0 0 0-.39 1.59 18.88 18.88 0 0 1 .65 5.32c0 3.8-.7 5.95-1 6.34L5 21.706a1.54 1.54 0 0 0 1.57.4c2.78-.95 10.25-.81 11.71.39l2.72-2.79a1.54 1.54 0 0 0 .4-1.57c-.96-2.75-.82-10.22.38-11.68Zm-5.72 10.31a29.229 29.229 0 0 0-8.09 0 27.8 27.8 0 0 0 .27-4.16A29.68 29.68 0 0 0 8 8.646a28.11 28.11 0 0 0 8.06 0 29.061 29.061 0 0 0 0 8.12Z"/>
</svg>
