<svg xmlns="http://www.w3.org/2000/svg" width="24" height="25" fill="currentColor" viewBox="0 0 24 25">
  <path d="m11 11.706-8.25-3.29a1.2 1.2 0 0 1 0-2.23L11 2.906a2.72 2.72 0 0 1 2 0l8.22 3.28a1.2 1.2 0 0 1 0 2.23L13 11.706a2.82 2.82 0 0 1-2 0Zm10.28 5.29-1.28-.51-6.19 2.48a4.83 4.83 0 0 1-3.56 0L4 16.486l-1.28.51a1.2 1.2 0 0 0 0 2.23l8.28 3.28c.66.27 1.4.27 2.06 0l8.22-3.28a1.2 1.2 0 0 0-.03-2.23h.03Zm0-5.4-2.66-1.05-5.22 2.09a3.76 3.76 0 0 1-2.8 0l-5.22-2.09-2.63 1.05a1.2 1.2 0 0 0 0 2.22l8.25 3.29a2.82 2.82 0 0 0 2.06 0l8.22-3.29a1.2 1.2 0 0 0-.03-2.22h.03Z"/>
</svg>
