<svg xmlns="http://www.w3.org/2000/svg" width="24" height="25" fill="currentColor" viewBox="0 0 24 25">
  <path d="M8.73 6.707a14.56 14.56 0 0 0-1.92-.89 22.17 22.17 0 0 1 3.28-2.92 9.968 9.968 0 0 1 1.91-.19c.651.001 1.3.065 1.94.19a20.199 20.199 0 0 0-5.21 3.81Zm3.27 2.4a16 16 0 0 1 6.71-3.8 9.92 9.92 0 0 0-2-1.43 17.86 17.86 0 0 0-6.23 3.94c.53.4 1.038.83 1.52 1.29Zm-5 11.6v.63a9.638 9.638 0 0 1-2.14-1.63 4 4 0 0 0-1.72-2.36 9.84 9.84 0 0 1-.91-2.5A6 6 0 0 1 7 20.707Zm3.63-10.14a13.88 13.88 0 0 0-6.83-3.57 10.17 10.17 0 0 0-1 1.86 11.89 11.89 0 0 1 6.66 3.35c.352-.573.743-1.121 1.17-1.64Zm-8.44.22a10.08 10.08 0 0 0-.19 1.92v.06a8.001 8.001 0 0 1 5.64 3.48c.22-.746.495-1.474.82-2.18a9.93 9.93 0 0 0-6.27-3.28Zm8.81 9.92a12 12 0 0 1 10.23-11.85 10.259 10.259 0 0 0-1-1.87A14 14 0 0 0 9 20.707c0 .53 0 1.05.09 1.57a10.31 10.31 0 0 0 2.08.39 12.645 12.645 0 0 1-.17-1.96Zm8.14-1a4 4 0 0 1 1.72-2.36c.415-.789.721-1.63.91-2.5a6 6 0 0 0-4.77 5.86v.63a9.637 9.637 0 0 0 2.14-1.63Zm-4.14 1a8 8 0 0 1 7-7.93v-.07a10.079 10.079 0 0 0-.19-1.92 10 10 0 0 0-8.62 11.84 9.672 9.672 0 0 0 2-.43 8.1 8.1 0 0 1-.19-1.49Z"/>
</svg>
