<svg xmlns="http://www.w3.org/2000/svg" width="24" height="25" fill="currentColor" viewBox="0 0 24 25">
  <path d="M9.36 18.427a3.68 3.68 0 0 1-2-1 3.74 3.74 0 0 1-1-1.86 3.62 3.62 0 0 1 .5-2.73c.138-.226.302-.434.49-.62a3.72 3.72 0 0 1 1.9-1c.233-.049.471-.072.71-.07H10a3.6 3.6 0 0 1 3.31 2.31c.192.051.39.078.59.08a2.83 2.83 0 0 0 1-.2c.328-.139.627-.34.88-.59a2.73 2.73 0 0 0 .59-.87 2.84 2.84 0 0 0 .21-1v-.31a8.305 8.305 0 0 0-1.08-1.35c-.14-.14-.8-.7-.83-.72A7.87 7.87 0 0 0 10 6.847h-.18a8.42 8.42 0 0 0-1 .07l-.4.08-.69.16-.43.15-.63.25-.39.15a2.26 2.26 0 0 0-.22.11c-.14.07-.27.17-.4.25l-.22.13a7.83 7.83 0 0 0-2.29 2.4A8 8 0 0 0 2 14.507a7.87 7.87 0 0 0 .89 3.92 7.9 7.9 0 0 0 10.462 3.513 7.911 7.911 0 0 0 3.058-2.603 8.92 8.92 0 0 1-2.51.42 8.85 8.85 0 0 1-4.54-1.33Z"/>
  <path d="M21.22 7.197a7.93 7.93 0 0 0-4.95-4.18 7.82 7.82 0 0 0-3.27-.23 7.89 7.89 0 0 0-5.51 3.43 8.94 8.94 0 0 1 2.51-.36 8.81 8.81 0 0 1 4.62 1.29 3.6 3.6 0 0 1 2 1 3.67 3.67 0 0 1 1 1.85c.152.705.089 1.44-.18 2.11a3.011 3.011 0 0 1-.19.41 3.6 3.6 0 0 0 .2-.39 3.91 3.91 0 0 1-.83 1.29 3.67 3.67 0 0 1-6-1.26l-.62-.07a2.631 2.631 0 0 0-1.07.22 2.76 2.76 0 0 0-.9.61 2.87 2.87 0 0 0-.58.92 2.66 2.66 0 0 0-.17 1.08v.25c.299.481.648.93 1.04 1.34a7.92 7.92 0 0 0 3.57 2.05c.66.117 1.33.177 2 .18a7.928 7.928 0 0 0 3-.61 7.755 7.755 0 0 0 2.57-1.74 7.75 7.75 0 0 0 1.94-2.68 7.931 7.931 0 0 0-.18-6.47v-.04Z"/>
</svg>
