<svg xmlns="http://www.w3.org/2000/svg" width="24" height="25" fill="currentColor" viewBox="0 0 24 25">
  <path d="M13 22.706h-2a1 1 0 0 1-1-1v-3a1 1 0 0 1 1-1h2a1 1 0 0 1 1 1v3a1 1 0 0 1-1 1Zm5.2-11.27 2.59-1.5a1 1 0 0 0 .37-1.36l-1-1.74a1 1 0 0 0-1.37-.36l-2.59 1.5a1 1 0 0 0-.37 1.36l1 1.74a1 1 0 0 0 1.37.36ZM7.8 7.977l-2.59-1.5a1 1 0 0 0-1.37.36l-1 1.74a1 1 0 0 0 .37 1.36l2.59 1.5a1 1 0 0 0 1.37-.36l1-1.74a1 1 0 0 0-.37-1.36Zm5.2-.27h-2a1 1 0 0 1-1-1v-3a1 1 0 0 1 1-1h2a1 1 0 0 1 1 1v3a1 1 0 0 1-1 1Zm-7.79 11.23 2.59-1.5a1 1 0 0 0 .37-1.36l-1-1.74a1 1 0 0 0-1.37-.36l-2.59 1.5a1 1 0 0 0-.37 1.36l1 1.74a1 1 0 0 0 1.37.36Zm15.58-3.46-2.59-1.5a1 1 0 0 0-1.37.36l-1 1.74a1 1 0 0 0 .37 1.36l2.59 1.5a1 1 0 0 0 1.37-.36l1-1.74a1 1 0 0 0-.37-1.36Z"/>
</svg>
