<svg xmlns="http://www.w3.org/2000/svg" width="24" height="25" fill="currentColor" viewBox="0 0 24 25">
  <path d="M10.69 11.396A15.94 15.94 0 0 1 21 6.706a1.08 1.08 0 0 0 1-1.09v-1.91a1 1 0 0 0-1-1 20 20 0 0 0-19 19 1 1 0 0 0 1 1h1.94a1.08 1.08 0 0 0 1.06-1 15.94 15.94 0 0 1 4.69-10.31Zm4.24 4.24a9.89 9.89 0 0 1 6.07-2.88 1.09 1.09 0 0 0 1-1.05v-2a1 1 0 0 0-1.09-1A14 14 0 0 0 8 21.617a1 1 0 0 0 1 1.09h2a1.09 1.09 0 0 0 1.09-1 9.89 9.89 0 0 1 2.84-6.07Zm1.41 1.41a8 8 0 0 1 4.53-2.26 1 1 0 0 1 1.13 1v1.92a1.12 1.12 0 0 1-.91 1.08 4 4 0 0 0-3 3 1.12 1.12 0 0 1-1.09.92h-1.93a.999.999 0 0 1-1-1.13 8 8 0 0 1 2.27-4.53Z"/>
</svg>
