<svg xmlns="http://www.w3.org/2000/svg" width="24" height="25" fill="currentColor" viewBox="0 0 24 25">
  <path d="M15.89 15.706c.073-.3.11-.61.11-.92a3.86 3.86 0 0 0-.54-2 4 4 0 0 0-3.46-2 6.19 6.19 0 0 0-.62.06c-4 .51-6.73 4.05-8.78 7.49l8.28-14.39a1.29 1.29 0 0 1 2.24 0l.3.53c1.93 3.43 3.58 7.48 2.47 11.23Zm5.93 3.35-8.4-14.58c1.93 3.43 3.58 7.48 2.47 11.23a.94.94 0 0 0 0 .13 3.96 3.96 0 0 1-.35.88 4 4 0 0 1-3.54 2.04 3.92 3.92 0 0 1-2.44-.84c2.81 2.7 7.23 3.05 11.14 3.05a1.29 1.29 0 0 0 1.12-1.94v.03Zm-11.46 1.91H3.3a1.29 1.29 0 0 1-1.12-1.94l.42-.72c2.05-3.44 4.76-7 8.78-7.49-2.67.38-4 3.11-3.57 5.56a7.84 7.84 0 0 0 .91 2.65 7.35 7.35 0 0 0 1.64 1.94Z"/>
</svg>
