<svg xmlns="http://www.w3.org/2000/svg" width="24" height="25" fill="currentColor" viewBox="0 0 24 25">
  <path d="m12.1 22.627-1.77-.79a1 1 0 0 1-.49-1.28l.39-.89a7.261 7.261 0 0 0 0-6.18 11.08 11.08 0 0 1 0-9.32l.39-.88a1 1 0 0 1 1.28-.5l1.77.79a1 1 0 0 1 .49 1.28l-.39.85a7.26 7.26 0 0 0 0 6.18 11.08 11.08 0 0 1 0 9.32l-.39.88a1 1 0 0 1-1.28.54Zm8.17-.5.39-.88a11.12 11.12 0 0 0 0-9.32 7.26 7.26 0 0 1 0-6.18l.4-.89a1 1 0 0 0-.49-1.28l-1.77-.79a1 1 0 0 0-1.28.5l-.4.88a11.079 11.079 0 0 0 0 9.32 7.261 7.261 0 0 1 0 6.18l-.39.89a1 1 0 0 0 .49 1.28l1.77.79a1 1 0 0 0 1.28-.5Zm-13.79 0 .4-.88a11.08 11.08 0 0 0 0-9.32 7.26 7.26 0 0 1 0-6.22l.39-.89a1 1 0 0 0-.49-1.28L5 2.787a1 1 0 0 0-1.28.5l-.39.88a11.12 11.12 0 0 0 0 9.32 7.26 7.26 0 0 1 0 6.18l-.4.89a1 1 0 0 0 .49 1.28l1.77.79a1 1 0 0 0 1.29-.5Z"/>
</svg>
