<svg xmlns="http://www.w3.org/2000/svg" width="24" height="25" fill="currentColor" viewBox="0 0 24 25">
  <path d="M7.5 5.707a2.5 2.5 0 1 1-5 0 2.5 2.5 0 0 1 5 0Zm4.5-2.5a2.5 2.5 0 1 0 0 5 2.5 2.5 0 0 0 0-5Zm9.5 2.5a2.5 2.5 0 1 1-5 0 2.5 2.5 0 0 1 5 0Zm-14 7a2.5 2.5 0 1 1-5 0 2.5 2.5 0 0 1 5 0Zm7 0a2.5 2.5 0 1 1-5 0 2.5 2.5 0 0 1 5 0Zm7 0a2.5 2.5 0 1 1-5 0 2.5 2.5 0 0 1 5 0Zm-14 7a2.5 2.5 0 1 1-5 0 2.5 2.5 0 0 1 5 0Zm7 0a2.5 2.5 0 1 1-5 0 2.5 2.5 0 0 1 5 0Zm7 0a2.5 2.5 0 1 1-5 0 2.5 2.5 0 0 1 5 0Z"/>
</svg>
