<svg xmlns="http://www.w3.org/2000/svg" width="24" height="25" fill="currentColor" viewBox="0 0 24 25">
  <path d="M16.72 6.827h-2.95a2.62 2.62 0 0 1-2.43-1.64l-.34-.84a2.6 2.6 0 0 0-2.41-1.64h-2A4.58 4.58 0 0 0 2 7.287v10.19a5.28 5.28 0 0 0 5.28 5.23h9.44a5.28 5.28 0 0 0 5.28-5.23v-5.37a5.272 5.272 0 0 0-5.28-5.28Zm-2.44 8h-1.55v1.53a.71.71 0 0 1-.69.73.71.71 0 0 1-.71-.69v-1.59h-1.6a.71.71 0 1 1 0-1.42h1.54v-1.54a.71.71 0 0 1 .69-.73.69.69 0 0 1 .73.69v1.59h1.6a.71.71 0 1 1 0 1.42l-.01.01Z"/>
</svg>
