<svg xmlns="http://www.w3.org/2000/svg" width="24" height="25" fill="currentColor" viewBox="0 0 24 25">
  <path d="M23 10.176h-4.73A3.39 3.39 0 0 1 15 6.706a.31.31 0 0 0 0-.1v-4.81l8 8.38Zm0 1.53h-4.73a4.9 4.9 0 0 1-4.75-5v-4.93H8.63a5.65 5.65 0 0 0-5.58 5.72v6.83a5.432 5.432 0 0 1 7.05 3.23 5.75 5.75 0 0 1-.1 4.24h7.44a5.65 5.65 0 0 0 5.56-5.72v-4.37Zm-18 3.8a4.07 4.07 0 1 0 0 8.14 4.07 4.07 0 0 0 0-8.14Zm1.49 4.84h-.81v.77a.73.73 0 0 1-.74.74.749.749 0 0 1-.75-.76v-.76h-.75a.77.77 0 0 1 0-1.53h.75v-.75a.75.75 0 1 1 1.49 0v.76h.76a.77.77 0 0 1 0 1.53h.05Z"/>
</svg>
