<svg xmlns="http://www.w3.org/2000/svg" width="24" height="25" fill="currentColor" viewBox="0 0 24 25">
  <path d="M15.62 22.706H5.38a2.88 2.88 0 0 1-2.88-2.88V5.586a2.88 2.88 0 0 1 2.88-2.88h10.24a2.88 2.88 0 0 1 2.88 2.88v14.24a2.88 2.88 0 0 1-2.88 2.88Zm-5.12-15a2 2 0 1 0 0 4 2 2 0 0 0 0-4Zm3.27 9a1 1 0 0 0 1-1.34 4.51 4.51 0 0 0-4.27-2.66 4.52 4.52 0 0 0-4.24 2.65c-.26.65.27 1.35 1.53 1.35h5.98Zm6.73-5h-1v4h1a1 1 0 0 0 1-1v-2a1 1 0 0 0-1-1Zm0-6h-1v4h1a1 1 0 0 0 1-1v-2a1 1 0 0 0-1-1Z"/>
</svg>
