<svg xmlns="http://www.w3.org/2000/svg" width="24" height="25" fill="currentColor" viewBox="0 0 24 25">
  <path d="M22 8.617a6 6 0 0 0-6-5.91H7.88a6 6 0 0 0-5.88 6v8.08a6 6 0 0 0 6 5.92h8.13a6 6 0 0 0 5.93-6L22 8.616Zm-3.2 5.31a.68.68 0 0 1-.94.62l-3.65-1.59a.46.46 0 0 0-.64.42v2.51a.46.46 0 0 0 .17.36l1.62 1.32a.67.67 0 0 1 .24.5v1.5a.65.65 0 0 1-1 .5l-2.19-1.78a.62.62 0 0 0-.79 0l-2.22 1.78a.65.65 0 0 1-1.05-.5v-1.49a.66.66 0 0 1 .23-.51l1.76-1.43a.46.46 0 0 0 .17-.36v-2.44a.46.46 0 0 0-.64-.42l-3.74 1.63a.68.68 0 0 1-.94-.62v-1.58a.68.68 0 0 1 .41-.64l4.64-2a.45.45 0 0 0 .27-.42v-2.43c0-.33.129-.646.36-.88l.46-.47a1 1 0 0 1 1.43 0l.46.47c.231.234.36.55.36.88v2.47a.46.46 0 0 0 .27.42l4.55 2a.68.68 0 0 1 .41.62l-.01 1.56Z"/>
</svg>
