<svg xmlns="http://www.w3.org/2000/svg" width="24" height="25" fill="currentColor" viewBox="0 0 24 25">
  <path d="m20.54 11.407-6.07-2.64a.62.62 0 0 1-.37-.56v-3.3a1.65 1.65 0 0 0-.48-1.2l-.62-.6a1.331 1.331 0 0 0-1.9 0l-.6.6a1.649 1.649 0 0 0-.5 1.2v3.24a.63.63 0 0 1-.35.56l-6.19 2.7a.89.89 0 0 0-.53.82v2.11a.89.89 0 0 0 1.25.82l5-2.17a.61.61 0 0 1 .86.56v3.25a.6.6 0 0 1-.23.48l-2.36 1.91a.88.88 0 0 0-.32.67v2a.86.86 0 0 0 1.41.66l2.9-2.37a.84.84 0 0 1 1.06 0l2.91 2.37a.86.86 0 0 0 1.4-.66v-2a.88.88 0 0 0-.32-.67l-2.16-1.77a.58.58 0 0 1-.23-.47v-3.34a.619.619 0 0 1 .86-.57l4.86 2.12a.889.889 0 0 0 1.25-.82v-2.11a.89.89 0 0 0-.53-.82Z"/>
</svg>
