<svg xmlns="http://www.w3.org/2000/svg" width="24" height="25" fill="currentColor" viewBox="0 0 24 25">
  <path d="M17 11.484v5.86a2.08 2.08 0 0 1-2.08 2.07H9.08A2.08 2.08 0 0 1 7 17.344v-5.86a2.08 2.08 0 0 1 2.08-2.07h5.84a2.08 2.08 0 0 1 2.08 2.07Zm-12 4.59v-4a1 1 0 1 0-2 0v4a1 1 0 1 0 2 0Zm4.08 3.34v2a1 1 0 1 0 2 0v-2h-2Zm5.84 0H13v2a1 1 0 0 0 2 0v-2h-.08Zm6.08-3.34v-4a1 1 0 0 0-2 0v4a1 1 0 0 0 2 0Zm-7.17-8.07a1.81 1.81 0 0 0 1.84-1.72 3.931 3.931 0 0 0-4-3.87 3.93 3.93 0 0 0-4 3.87 1.81 1.81 0 0 0 1.84 1.72h4.32Z"/>
</svg>
