<svg xmlns="http://www.w3.org/2000/svg" width="24" height="25" fill="currentColor" viewBox="0 0 24 25">
  <path d="m11.9 8.514 2 4.18H10l1.9-4.18Zm8.65-.39-.75 8.55a3.4 3.4 0 0 1-1.67 2.62l-4.53 2.66a3.42 3.42 0 0 1-3.42 0l-4.54-2.66A3.41 3.41 0 0 1 4 16.674l-.77-8.55a3.37 3.37 0 0 1 2.16-3.46l5.29-2a3.47 3.47 0 0 1 2.42 0l5.29 2a3.4 3.4 0 0 1 2.16 3.46Zm-3.31 8.14-4.67-9.85a.69.69 0 0 0-.69-.43.73.73 0 0 0-.67.44l-3.07 6.73-1.42 3.12a.75.75 0 0 0 .38 1 .669.669 0 0 0 .31.07.75.75 0 0 0 .68-.44l1.23-2.7h5.28l1.29 2.71a.75.75 0 1 0 1.35-.64v-.01Z"/>
</svg>
