<svg xmlns="http://www.w3.org/2000/svg" width="24" height="25" fill="currentColor" viewBox="0 0 24 25">
  <path d="M15.3 5.514a4.21 4.21 0 0 1-2.17 1.47.73.73 0 0 1-.94-.74 4.51 4.51 0 0 1 1-2.34 4.82 4.82 0 0 1 2.07-1.44.74.74 0 0 1 1 .81 4.86 4.86 0 0 1-1 2.24h.04Zm3.48 5a1 1 0 0 0-.1-1.52 4.48 4.48 0 0 0-2.44-1c-1.36-.09-2.46.8-3.77.8s-2.12-.8-3.57-.8a4.85 4.85 0 0 0-3.9 2.42c-1.38 2.08-1.14 6 1.05 9.42.79 1.21 1.84 2.58 3.22 2.58 1.22 0 1.56-.79 3.22-.79 1.66 0 2 .8 3.19.79 1.38 0 2.48-1.52 3.27-2.73.306-.454.58-.928.82-1.42a1 1 0 0 0-.37-1.24 4.18 4.18 0 0 1-.62-6.51Z"/>
</svg>
