<svg xmlns="http://www.w3.org/2000/svg" width="24" height="25" fill="currentColor" viewBox="0 0 24 25">
  <path d="M4.8 11.296a.77.77 0 0 1-.8.61h-.17a.77.77 0 0 1-.59-.92 9.5 9.5 0 0 1 9.21-7.37 9.4 9.4 0 0 1 6.79 2.9v-2.75a.78.78 0 0 1 1.56 0v4.65a.78.78 0 0 1-.78.77h-4.68a.78.78 0 1 1 0-1.55h2.89a7.88 7.88 0 0 0-13.43 3.66Zm16.33 2.72a.78.78 0 0 0-.92.6 7.869 7.869 0 0 1-13.54 3.72h3a.78.78 0 0 0 .72-1.077.77.77 0 0 0-.72-.473H5.32a.77.77 0 0 0-.77.77v4.5a.78.78 0 1 0 1.55 0v-2.1a9.42 9.42 0 0 0 15.63-5 .76.76 0 0 0-.6-.94Z"/>
</svg>
