<svg xmlns="http://www.w3.org/2000/svg" width="24" height="25" fill="currentColor" viewBox="0 0 24 25">
  <path d="M20 19.157a.74.74 0 0 1-.22.56l-2.86 2.79a.68.68 0 0 1-1 0l-2.58-2.73a.77.77 0 0 1 .226-1.226.67.67 0 0 1 .774.166l1.37 1.44V3.477a.71.71 0 1 1 1.41 0v16.78l1.64-1.62a.68.68 0 0 1 1 0 .73.73 0 0 1 .24.52ZM8 2.927a.68.68 0 0 0-.55-.22.72.72 0 0 0-.51.22l-2.71 2.83a.76.76 0 0 0 0 1 .7.7 0 0 0 .773.152.68.68 0 0 0 .227-.162l1.43-1.44v16.67a.71.71 0 0 0 1.42 0V5.157l1.42 1.49a.69.69 0 0 0 1 0 .75.75 0 0 0 0-1L8 2.927Z"/>
</svg>
