<svg xmlns="http://www.w3.org/2000/svg" width="24" height="25" fill="currentColor" viewBox="0 0 24 25">
  <path d="M18.64 11.127a.75.75 0 0 0 .75-.75l.05-4.2a.75.75 0 0 0-.22-.53.66.66 0 0 0-.54-.22h-4.2a.74.74 0 0 0-.74.76.75.75 0 0 0 .75.74h2.12L12 11.566l-4.59-4.62h2.1a.75.75 0 0 0 .75-.74.741.741 0 0 0-.74-.76h-4.2a.7.7 0 0 0-.54.22.79.79 0 0 0-.22.54l.05 4.2a.75.75 0 0 0 .75.75.76.76 0 0 0 .75-.76l-.03-2.69 4.92 4.93-4.83 4.82v-2.41a.75.75 0 0 0-.74-.76.76.76 0 0 0-.75.75v4.2a.79.79 0 0 0 .22.54c.14.14.331.22.53.22l4.2-.05a.741.741 0 0 0 .74-.76.76.76 0 0 0-.76-.74H7.29l4.71-4.74 4.75 4.78H14.4a.78.78 0 0 0-.76.75.738.738 0 0 0 .74.75l4.2.05a.75.75 0 0 0 .53-.22.79.79 0 0 0 .22-.54v-4.2a.75.75 0 0 0-1.5 0v2.38l-4.76-4.79 4.85-4.88v2.61a.76.76 0 0 0 .72.73Z"/>
</svg>
