<svg xmlns="http://www.w3.org/2000/svg" width="24" height="25" fill="currentColor" viewBox="0 0 24 25">
  <path d="M21.81 6.417a.77.77 0 0 1 0 1.06l-2.65 2.74a.72.72 0 0 1-.51.22.74.74 0 0 1-.51-.22.77.77 0 0 1 0-1.06l1.31-1.37h-2.66l-11 11.3a.701.701 0 0 1-.51.22H2.73a.75.75 0 1 1 0-1.5H5l4.91-5.1L5 7.637H2.73a.75.75 0 0 1 0-1.5h2.54a.7.7 0 0 1 .51.22l5.16 5.35 5-5.18a.77.77 0 0 1 .52-.22h3.1l-1.32-1.47a.77.77 0 0 1 0-1.06.71.71 0 0 1 1 0l2.57 2.64Zm-2.57 8.78a.71.71 0 0 0-1 0 .77.77 0 0 0 0 1.06l1.32 1.37h-2.39l-2.5-2.57a.71.71 0 0 0-1 0 .76.76 0 0 0 0 1.06l2.71 2.79a.721.721 0 0 0 .51.22h2.66l-1.4 1.45a.75.75 0 0 0 0 1.06.68.68 0 0 0 .51.22.7.7 0 0 0 .51-.22l2.64-2.74a.77.77 0 0 0 0-1.06l-2.57-2.64Z"/>
</svg>
