<svg xmlns="http://www.w3.org/2000/svg" width="24" height="25" fill="currentColor" viewBox="0 0 24 25">
  <path d="M22 17.897a.75.75 0 0 1-.74.75l-16.73.06 1.61 1.72a.76.76 0 0 1 0 1.06.74.74 0 0 1-.5.2.77.77 0 0 1-.64-.28l-2.77-3a.75.75 0 0 1 0-1l2.77-2.7a.75.75 0 0 1 1.06 0 .73.73 0 0 1 0 1l-1.43 1.46h16.62a.75.75 0 0 1 .75.73Zm-3-12.83a.72.72 0 0 0-1 0 .75.75 0 0 0 0 1l1.48 1.5H2.8a.75.75 0 0 0 0 1.49h16.76l-1.49 1.5a.75.75 0 0 0 0 1.05.71.71 0 0 0 .52.23.7.7 0 0 0 .51-.13l2.68-2.69a.75.75 0 0 0 .22-.56.79.79 0 0 0-.22-.54L19 5.067Z"/>
</svg>
