<svg xmlns="http://www.w3.org/2000/svg" width="24" height="25" fill="currentColor" viewBox="0 0 24 25">
  <path d="M20.09 13.246v2.57a3.83 3.83 0 0 1-3.76 3.89H6.46l1.41 1.6a.77.77 0 0 1 0 1.06.692.692 0 0 1-.78.137.71.71 0 0 1-.24-.177l-2.65-3a.77.77 0 0 1 0-1l2.64-2.7a.71.71 0 0 1 1 0 .78.78 0 0 1 0 1.06l-1.53 1.53h10a2.37 2.37 0 0 0 2.32-2.4v-2.57a.72.72 0 0 1 1.44 0h.02Zm-3-10.19a.71.71 0 0 0-1 0 .77.77 0 0 0 0 1.06l1.47 1.51H7.73A3.84 3.84 0 0 0 4 9.527v2.42a.74.74 0 0 0 .72.75.74.74 0 0 0 .73-.75v-2.42a2.35 2.35 0 0 1 2.31-2.4h10l-1.47 1.5a.76.76 0 0 0 .232 1.223.7.7 0 0 0 .278.057.68.68 0 0 0 .47-.2l2.65-2.7a.741.741 0 0 0 .21-.53.76.76 0 0 0-.21-.54l-2.83-2.88Z"/>
</svg>
