<svg xmlns="http://www.w3.org/2000/svg" width="24" height="25" fill="currentColor" viewBox="0 0 24 25">
  <path d="m20.78 11.816-1.56 1.64v-5A4.35 4.35 0 0 0 15 4.026H6.32a4.34 4.34 0 0 0-4.27 4.41v8.91a4.34 4.34 0 0 0 4.27 4.36H15a4.25 4.25 0 0 0 4-2.79.76.76 0 0 0-.41-1 .72.72 0 0 0-.94.42 2.81 2.81 0 0 1-2.65 1.91H6.32a2.86 2.86 0 0 1-2.82-2.9v-8.91a2.87 2.87 0 0 1 2.82-2.91H15a2.87 2.87 0 0 1 2.81 2.91v5.11l-1.65-1.73a.75.75 0 0 0-1.06 1.06l2.88 3a.759.759 0 0 0 1.09 0l2.88-3a.75.75 0 0 0 0-1.06.75.75 0 0 0-1.17 0Z"/>
</svg>
