<svg xmlns="http://www.w3.org/2000/svg" width="24" height="25" fill="currentColor" viewBox="0 0 24 25">
  <path d="M17.77 4.026H9.14a4.35 4.35 0 0 0-4.27 4.41v5l-1.56-1.62a.75.75 0 0 0-1.06 1.06l2.88 3a.76.76 0 0 0 1.09 0l2.88-3a.75.75 0 0 0-1.06-1.06l-1.71 1.73v-5.11a2.87 2.87 0 0 1 2.81-2.91h8.63a2.87 2.87 0 0 1 2.82 2.91v8.91a2.86 2.86 0 0 1-2.82 2.9H9.14a2.81 2.81 0 0 1-2.62-1.84.72.72 0 0 0-1.188-.254.76.76 0 0 0-.162.834 4.25 4.25 0 0 0 4 2.79h8.63a4.342 4.342 0 0 0 4.28-4.4v-8.94a4.35 4.35 0 0 0-4.31-4.41Z"/>
</svg>
