<svg xmlns="http://www.w3.org/2000/svg" width="24" height="25" fill="currentColor" viewBox="0 0 24 25">
  <path d="M20 16.294a2.18 2.18 0 0 1-.87.5 2.63 2.63 0 0 1-.84 0 33.632 33.632 0 0 1-3.74-.66 4.86 4.86 0 0 0-3.08.32c-.168.12-.346.226-.53.32a1.86 1.86 0 0 1-.66.14 2.78 2.78 0 0 1-2.21-1 2.89 2.89 0 0 1-.38-2.5 4.15 4.15 0 0 1-2.15-.2 4 4 0 0 1-1.87-1.19c-1.39-1.81-.42-4.09 1.17-5.39a9.48 9.48 0 0 1 4.67-2.08v1l-1.63 1.78a1.69 1.69 0 0 0-.5-.08 1.9 1.9 0 1 0 1.62.96l1.71-1.8a.75.75 0 0 0 .19-.49v-1.51h.88c.46 0 1 .06 1.43.11v5l-.59.68a2.128 2.128 0 0 0-.57-.1 1.9 1.9 0 1 0 1.85 1.9c0-.307-.075-.61-.22-.88l.74-.86a.69.69 0 0 0 .18-.47v-5c.4.083.792.204 1.17.36.399.174.78.385 1.14.63v5.43a1.89 1.89 0 0 0-1.16 1.76 1.86 1.86 0 1 0 3.71 0 1.89 1.89 0 0 0-1.16-1.76v-4.36c.335.315.652.649.95 1a7.24 7.24 0 0 1 1.83 4.36c.01 1.5.16 3.03-1.08 4.08Zm-7.9-.06h.14-.14Zm-1.1.53Zm-.2.08h.08-.08Zm7.91 0h-.45.45Zm-.55 1.41a21.552 21.552 0 0 1-2.91-.48l-1-.2a5.52 5.52 0 0 0-.92-.08 2.51 2.51 0 0 0-1.2.22l-.13.08c-.146.101-.3.191-.46.27l.16.13a7.85 7.85 0 0 1 2.44 2c.28.45.49.94.74 1.41.14.312.37.576.66.76a.69.69 0 0 0 .9-.2 1 1 0 0 0 .08-.5c0-.74-.16-1.72.44-2.28.42-.39 1-.59 1.28-1.09l-.08-.04Zm-3.66-2.08 1.86.38-1.86-.38Zm3.8-12.91a.699.699 0 1 0-1.39 0v2.49a10.5 10.5 0 0 1 1.39 1.1v-3.59Zm-7.4 1.15v-1.15a.699.699 0 1 0-1.39 0v1.29c.46-.078.924-.125 1.39-.14Zm3.7-1.15a.699.699 0 1 0-1.39 0v1.27c.468.046.932.123 1.39.23v-1.5Z"/>
</svg>
