<svg xmlns="http://www.w3.org/2000/svg" width="24" height="25" fill="currentColor" viewBox="0 0 24 25">
  <path d="m12 10.706 1.08 2.31h-2.16l1.08-2.31Zm9.39 3.46L20 15.586a1.001 1.001 0 0 0-.3.73v2a2.08 2.08 0 0 1-2.08 2.08h-2a1 1 0 0 0-.73.3l-1.41 1.41a2.08 2.08 0 0 1-2.94 0l-1.42-1.4a.999.999 0 0 0-.73-.3h-2a2.08 2.08 0 0 1-2.07-2.1v-2a1 1 0 0 0-.3-.73l-1.41-1.4a2.08 2.08 0 0 1 0-2.94L4 9.826a1 1 0 0 0 .3-.73v-2a2.08 2.08 0 0 1 2.1-2.07h2a1 1 0 0 0 .72-.32l1.41-1.41a2.08 2.08 0 0 1 2.94 0l1.41 1.41a1 1 0 0 0 .73.3h2a2.08 2.08 0 0 1 2.07 2.1v2a1.002 1.002 0 0 0 .3.73l1.41 1.41a2.08 2.08 0 0 1 0 2.93v-.01Zm-5.2 2-3.51-7.54a.78.78 0 0 0-1.36 0l-3.51 7.53a.74.74 0 0 0 .36 1 .75.75 0 0 0 1-.36l1.05-2.26h3.56l1.05 2.26a.76.76 0 0 0 1 .36.75.75 0 0 0 .36-1.01v.02Z"/>
</svg>
