<svg xmlns="http://www.w3.org/2000/svg" width="24" height="25" fill="currentColor" viewBox="0 0 24 25">
  <path d="M12.44 5.476a2.14 2.14 0 0 0-.5-.06c.168.004.336.025.5.06Zm-2.75-.95a4.52 4.52 0 0 1 2.31-.62c.771 0 1.53.2 2.2.58l3.66 2.08v-1a2.94 2.94 0 0 0-2.99-2.86H9.13a2.94 2.94 0 0 0-2.94 2.91v1l3.5-2.09Zm-3.5 3.8L8 7.276l-1.81 1.05Zm5-2.81h.26-.26Zm1.51 0c.24.064.473.158.69.28a2.942 2.942 0 0 0-.7-.29l.01.01Zm4.6 2.48.51.29-.51-.29Zm2.62 8.87a3 3 0 0 1-1.45 2.57l-4.93 2.89a2.94 2.94 0 0 1-2.95 0l-5-2.81a2.94 2.94 0 0 1-1.49-2.54v-5.71a3 3 0 0 1 1.43-2.56l4.93-2.9a3 3 0 0 1 2.95 0l5 2.81a3 3 0 0 1 1.49 2.55l.02 5.7Zm-5.36-4.24-1-.31a.66.66 0 0 1-.38-.27l-.59-.87a.7.7 0 0 0-1.16 0l-.6.86a.69.69 0 0 1-.38.27l-1 .3a.701.701 0 0 0-.37 1.1l.63.83a.74.74 0 0 1 .15.45v1.05a.7.7 0 0 0 .93.68l1-.34a.69.69 0 0 1 .47 0l1 .35a.7.7 0 0 0 .94-.68v-1a.67.67 0 0 1 .14-.45l.64-.83a.7.7 0 0 0-.42-1.14Z"/>
</svg>
