<svg xmlns="http://www.w3.org/2000/svg" width="24" height="25" fill="currentColor" viewBox="0 0 24 25">
  <path d="M21.79 7.413A13.79 13.79 0 0 0 17 2.633a1.53 1.53 0 0 0-1.87.22L2.44 15.533a1.53 1.53 0 0 0-.24 1.88 12.18 12.18 0 0 0 4.8 4.81 1.53 1.53 0 0 0 1.81-.25l12.75-12.72a1.53 1.53 0 0 0 .23-1.84Zm-12.28 6.76a1 1 0 1 1-1.398-1.429 1 1 0 0 1 1.398 1.43Zm2.14 2.14a1 1 0 1 1-1.398-1.428 1 1 0 0 1 1.398 1.428Zm0-4.28a1 1 0 1 1-1.398-1.428 1 1 0 0 1 1.398 1.428Zm2.14 2.14a1 1 0 1 1-1.398-1.428 1 1 0 0 1 1.398 1.428Zm0-4.28a1 1 0 1 1-1.398-1.429 1 1 0 0 1 1.398 1.43Zm2.14 2.14a1 1 0 1 1-1.398-1.428 1 1 0 0 1 1.398 1.428Z"/>
</svg>
