<svg xmlns="http://www.w3.org/2000/svg" width="24" height="25" fill="currentColor" viewBox="0 0 24 25">
  <path d="M20.59 10.067h-1.36v8.91a.87.87 0 0 1-.87.88h-1.53a.871.871 0 0 1-.87-.88v-8.91h-2.33v8.91a.87.87 0 0 1-.87.88h-1.52a.871.871 0 0 1-.87-.88v-8.91H7.92v8.91a.87.87 0 0 1-.88.88H5.52a.871.871 0 0 1-.87-.88v-8.91H3.41c-1.36 0-1.93-1.44-.84-2.12l7.74-4.76a3.22 3.22 0 0 1 3.38 0l7.74 4.76c1.09.68.57 2.12-.84 2.12ZM22 22.707a.75.75 0 0 0-.75-.75H2.39a.75.75 0 1 0 0 1.5h18.85a.76.76 0 0 0 .76-.75Z"/>
</svg>
