<svg xmlns="http://www.w3.org/2000/svg" width="24" height="25" fill="currentColor" viewBox="0 0 24 25">
  <path d="M16.66 3.847H7.37A5.64 5.64 0 0 0 2 9.707v6.05a5.64 5.64 0 0 0 5.37 5.95h9.29a5.65 5.65 0 0 0 5.34-5.93v-6.07a5.65 5.65 0 0 0-5.34-5.86ZM7 16.777a.74.74 0 0 1-.7.76.73.73 0 0 1-.7-.76v-8.45a.73.73 0 0 1 .7-.76.74.74 0 0 1 .7.76v8.45Zm3 0a.7.7 0 0 1-1.4 0v-4.22a.7.7 0 1 1 1.4 0v4.22Zm0-7a.7.7 0 0 1-1.4 0v-1.45a.7.7 0 0 1 1.4 0v1.45Zm3 7a.7.7 0 1 1-1.4 0v-8.45a.7.7 0 0 1 1.4 0v8.45Zm3-.24a.7.7 0 1 1-1.4 0v-1.46a.7.7 0 0 1 1.4 0v1.46Zm0-4.23a.7.7 0 1 1-1.4 0v-4.22a.7.7 0 0 1 1.4 0v4.22Zm3 4.47a.7.7 0 0 1-1.4 0v-8.45a.7.7 0 1 1 1.4 0v8.45Z"/>
</svg>
