<svg xmlns="http://www.w3.org/2000/svg" width="24" height="25" fill="currentColor" viewBox="0 0 24 25">
  <path d="M22 8.237a2.13 2.13 0 0 1-2.06 2.19H4.06A2.13 2.13 0 0 1 2 8.237a2.13 2.13 0 0 1 2.06-2.19h1.42l1.88-3a.74.74 0 0 1 1-.23.77.77 0 0 1 .23 1.05l-1.33 2.18h9.43l-1.37-2.17a.77.77 0 0 1 .23-1 .75.75 0 0 1 1 .23l1.88 3h1.47a2.13 2.13 0 0 1 2.1 2.13Zm-17.7 3.71h15.41l-1.18 7.9a3.33 3.33 0 0 1-3.23 2.86H8.79a3.35 3.35 0 0 1-3.23-2.83l-1.26-7.93Zm5.13 4.86 1.72 1.75a.75.75 0 0 0 1 0l3.64-3.36a.76.76 0 0 0 .05-1.07.74.74 0 0 0-1.06 0l-3.11 2.87-1.18-1.29a.75.75 0 0 0-1.06 0 .78.78 0 0 0 0 1.1Z"/>
</svg>
