<svg xmlns="http://www.w3.org/2000/svg" width="24" height="25" fill="currentColor" viewBox="0 0 24 25">
  <path d="M22 8.237a2.13 2.13 0 0 1-2.07 2.19H4.07A2.13 2.13 0 0 1 2 8.237a2.13 2.13 0 0 1 2.07-2.19h1.41l1.88-3a.75.75 0 0 1 1-.23.76.76 0 0 1 .23 1.05l-1.33 2.18h9.43l-1.36-2.17a.77.77 0 0 1 .22-1 .75.75 0 0 1 1 .23l1.89 3h1.46a2.13 2.13 0 0 1 2.1 2.13Zm-17.69 3.71h15.4l-1.18 7.9a3.33 3.33 0 0 1-3.23 2.86H8.79a3.33 3.33 0 0 1-3.22-2.83l-1.26-7.93Zm9.27 6.07a.75.75 0 1 0 1.5 0v-3.66a.75.75 0 1 0-1.5 0v3.66Zm-4.66 0a.75.75 0 1 0 1.5 0v-3.66a.75.75 0 1 0-1.5 0v3.66Z"/>
</svg>
