<svg xmlns="http://www.w3.org/2000/svg" width="24" height="25" fill="currentColor" viewBox="0 0 24 25">
  <path d="M21 9.227v.56a3 3 0 0 1-3-2.92h1a2.22 2.22 0 0 1 2 2.36ZM6 6.867H5a2.22 2.22 0 0 0-2 2.36v.56a3 3 0 0 0 3-2.92Zm12 11.68h1a2.22 2.22 0 0 0 2-2.36v-.56a3 3 0 0 0-3 2.92Zm-15-2.92v.56a2.22 2.22 0 0 0 2 2.36h1a3 3 0 0 0-3-2.92Zm18-4.84v3.84a4 4 0 0 0-4 3.92H7a4 4 0 0 0-4-3.92v-3.84a4 4 0 0 0 4-3.92h10a4 4 0 0 0 4 3.92Zm-6 1.92a3.18 3.18 0 0 0-3-3.33 3.18 3.18 0 0 0-3 3.33 3.18 3.18 0 0 0 3 3.33 3.18 3.18 0 0 0 3-3.33Z"/>
</svg>
