<svg xmlns="http://www.w3.org/2000/svg" width="24" height="25" fill="currentColor" viewBox="0 0 24 25">
  <path d="m14 13.197-1.55 1.57a.68.68 0 0 1-1 0L10 13.197a.69.69 0 0 1 0-1l1.5-1.55a.678.678 0 0 1 1 0l1.5 1.57a.691.691 0 0 1 0 .98Zm-7.75-1-1.53-1.56a.68.68 0 0 0-1 0l-1.52 1.57a.71.71 0 0 0 0 1l1.55 1.56a.67.67 0 0 0 1 0l1.55-1.56a.71.71 0 0 0-.03-1l-.02-.01Zm15.5 0-1.53-1.56a.68.68 0 0 0-1 0l-1.52 1.57a.71.71 0 0 0 0 1l1.55 1.56a.678.678 0 0 0 1 0l1.55-1.56a.72.72 0 0 0-.03-1.01h-.02Zm-9.3-5.23 3.15 3.17a.688.688 0 0 0 1 0l1.08-1.1a.71.71 0 0 0 0-1l-5-5.06a1 1 0 0 0-1.35 0l-5 5.07a.71.71 0 0 0 0 1l1.06 1.09a.688.688 0 0 0 1 0l3.11-3.17a.678.678 0 0 1 .97 0h-.02Zm3.14 8.3-3.14 3.18a.68.68 0 0 1-1 0l-3.09-3.18a.68.68 0 0 0-1 0l-1.06 1.09a.71.71 0 0 0 0 1l5 5.08a1 1 0 0 0 1.35 0l5-5.08a.71.71 0 0 0 0-1l-1.08-1.09a.68.68 0 0 0-.96 0h-.02Z"/>
</svg>
