<svg xmlns="http://www.w3.org/2000/svg" width="24" height="25" fill="currentColor" viewBox="0 0 24 25">
  <path d="m11.74 22.036-1.26-1.27a.82.82 0 0 1 0-1.17l8.58-8.58a.82.82 0 0 1 1.17 0l1.27 1.26a.85.85 0 0 1 0 1.18l-8.58 8.58a.85.85 0 0 1-1.18 0ZM9 18.126l8.6-8.58a.83.83 0 0 0 0-1.17l-1.27-1.27a.83.83 0 0 0-1.17 0l-8.58 8.6a.83.83 0 0 0 0 1.18l1.26 1.26a.83.83 0 0 0 1.16-.02Zm0-7.8 4.68-4.68a.83.83 0 0 0 0-1.18l-1.25-1.26a.85.85 0 0 0-1.18 0l-4.68 4.68a.85.85 0 0 0 0 1.18l1.27 1.26a.821.821 0 0 0 1.16 0Zm-5.07.2-1.25 1.26a.83.83 0 0 0 0 1.18l1.26 1.26a.85.85 0 0 0 1.18 0l1.26-1.26a.85.85 0 0 0 0-1.18l-1.27-1.26a.821.821 0 0 0-1.17 0h-.01Z"/>
</svg>
