<svg xmlns="http://www.w3.org/2000/svg" width="24" height="25" fill="currentColor" viewBox="0 0 24 25">
  <path d="M16.7 14.847a1.42 1.42 0 0 1-1.41 1.42h-6v-2.83h6a1.41 1.41 0 0 1 1.41 1.41Zm-1.3-4.25v-.16a1.34 1.34 0 0 0-1.34-1.33l-4.73-.06v2.89h4.73a1.35 1.35 0 0 0 1.34-1.34Zm6.6 2.11a10 10 0 1 1-20 0 10 10 0 0 1 20 0Zm-3.8 2.14a2.91 2.91 0 0 0-1.78-2.68 2.83 2.83 0 0 0 .48-1.57v-.16a2.83 2.83 0 0 0-2.83-2.83h-.84v-1.31a.75.75 0 1 0-1.5 0v1.28h-1.27v-1.32a.75.75 0 1 0-1.5 0v1.29h-2.4a.75.75 0 0 0 0 1.5h1.27v2.91H6.55a.75.75 0 0 0 0 1.5h1.28v2.83H6.55a.75.75 0 0 0 0 1.5H9v1.35a.75.75 0 1 0 1.5 0v-1.37h1.27v1.39a.75.75 0 1 0 1.5 0v-1.39h2.06a2.92 2.92 0 0 0 2.87-2.92Z"/>
</svg>
