<svg xmlns="http://www.w3.org/2000/svg" width="24" height="25" fill="currentColor" viewBox="0 0 24 25">
  <path d="m12.9 13.986 2.25 2-2.25 1.72v-3.72Zm0-6.48v3.85l2.26-2.09-2.26-1.76Zm9.1.44v9.51a5.25 5.25 0 0 1-5.25 5.25h-9.5A5.25 5.25 0 0 1 2 17.456v-9.51a5.25 5.25 0 0 1 5.25-5.24h9.5A5.25 5.25 0 0 1 22 7.947Zm-4.93 8.12a.74.74 0 0 0-.25-.58l-3.14-2.78 3.15-2.91a.75.75 0 0 0 .156-.891.76.76 0 0 0-.206-.248l-4.17-3.27a.75.75 0 0 0-1.21.59v4.66l-2.92-2.61a.75.75 0 0 0-1 1.12l3.92 3.5v.06l-3.93 3.67a.75.75 0 0 0 1.06 1.06l2.91-2.69v4.49a.73.73 0 0 0 .42.67.74.74 0 0 0 .79-.08l4.17-3.23a.8.8 0 0 0 .25-.53Z"/>
</svg>
