<svg xmlns="http://www.w3.org/2000/svg" width="24" height="25" fill="currentColor" viewBox="0 0 24 25">
  <path d="M11.25 5.936h-.07a20.3 20.3 0 0 0-7.11-2.53A1.8 1.8 0 0 0 2 5.186v12.41a1.78 1.78 0 0 0 1.49 1.76 27.78 27.78 0 0 1 7.69 2.58h.07v-16Zm-5.78 2.29h2.27a.75.75 0 1 1 0 1.5H5.47a.75.75 0 0 1 0-1.5Zm3 4.5h-3a.75.75 0 1 1 0-1.5h3a.75.75 0 1 1 0 1.5ZM22 5.116v12.52a1.77 1.77 0 0 1-1.45 1.76 26.12 26.12 0 0 0-7.73 2.54h-.07v-16h.07a21.4 21.4 0 0 1 7.07-2.57A1.81 1.81 0 0 1 22 5.116Z"/>
</svg>
