<svg xmlns="http://www.w3.org/2000/svg" width="24" height="25" fill="currentColor" viewBox="0 0 24 25">
  <path d="m14.61 14.556-1.49-.85a2.19 2.19 0 0 0-2.24 0l-1.49.89A1.58 1.58 0 0 1 7 13.207v-8a2.52 2.52 0 0 1 2.52-2.5h5A2.52 2.52 0 0 1 17 5.227v8a1.579 1.579 0 0 1-2.39 1.33Zm3.89-8.49v7.14a3.08 3.08 0 0 1-4.67 2.64l-1.48-.89a.66.66 0 0 0-.7 0l-1.48.89a3.08 3.08 0 0 1-4.67-2.64v-7.14a5.54 5.54 0 0 0-3.5 5.15v5.94a5.54 5.54 0 0 0 5.55 5.55h8.9a5.54 5.54 0 0 0 5.55-5.55v-5.94a5.54 5.54 0 0 0-3.5-5.15Z"/>
</svg>
