<svg xmlns="http://www.w3.org/2000/svg" width="24" height="25" fill="currentColor" viewBox="0 0 24 25">
  <path d="M22 8.707v8.1a6 6 0 0 1-5.95 5.9H8a6 6 0 0 1-6-5.95v-8.05a6 6 0 0 1 3.67-5.54.41.41 0 0 1 .58.38v9.74a2.41 2.41 0 0 0 2.43 2.42c.345 0 .687-.075 1-.22l2.31-1 2.31 1c.313.145.655.22 1 .22a2.408 2.408 0 0 0 2.43-2.39v-9.77a.41.41 0 0 1 .58-.38A6 6 0 0 1 22 8.707Zm-13.32 5.47a.939.939 0 0 0 .4-.09l2.52-1.12a1.001 1.001 0 0 1 .8 0l2.52 1.12c.125.059.262.09.4.09a.909.909 0 0 0 .93-.89V3.127a.41.41 0 0 0-.41-.42H8.16a.41.41 0 0 0-.41.41v10.17a.91.91 0 0 0 .93.89Z"/>
</svg>
