<svg xmlns="http://www.w3.org/2000/svg" width="24" height="25" fill="currentColor" viewBox="0 0 24 25">
  <path d="M13.73 10.414a1.32 1.32 0 0 1-1.31 1.32h-2.15v-2.64h2.15a1.31 1.31 0 0 1 1.31 1.32Zm-1.31 2.82h-2.15v2.62h2.15a1.31 1.31 0 0 0 0-2.62ZM23 11.074v2.63a3 3 0 0 0-3 3v1.16a3.558 3.558 0 0 1-3.58 3.55H7.58A3.56 3.56 0 0 1 4 17.854v-1.16a3 3 0 0 0-3-3v-2.62a3 3 0 0 0 3-3v-1.1a3.56 3.56 0 0 1 3.58-3.56h8.84A3.56 3.56 0 0 1 20 6.974v1.11a3 3 0 0 0 3 3v-.01Zm-8.65 1.4a2.81 2.81 0 0 0-1.9-4.88H9.52a.74.74 0 0 0-.75.75v8.25a.74.74 0 0 0 .75.75h2.9a2.81 2.81 0 0 0 2.574-3.937 2.77 2.77 0 0 0-.674-.933h.03Z"/>
</svg>
