<svg xmlns="http://www.w3.org/2000/svg" width="24" height="25" fill="currentColor" viewBox="0 0 24 25">
  <path d="M18 5.887h-1.61v-1a2.71 2.71 0 0 0-2.71-2.71h-3.39a2.71 2.71 0 0 0-2.71 2.66v1H6.05a4.16 4.16 0 0 0-3.59 2.12A4.34 4.34 0 0 0 2 9.127a4.11 4.11 0 0 0-.1 1.36l.15 1.44a14.22 14.22 0 0 0 6.37 2.7 2.86 2.86 0 0 0 2.86 2.79h1.11a2.87 2.87 0 0 0 2.86-2.78 13.93 13.93 0 0 0 6.75-2.93l.07-.84.05-.43A4.17 4.17 0 0 0 18 5.887Zm-8.87-1a1.21 1.21 0 0 1 1.21-1.21h3.39a1.21 1.21 0 0 1 1.21 1.21v1H9.08l.05-1Zm3.33 11.08H11.3a1.35 1.35 0 0 1-1.3-1.12 1.45 1.45 0 0 1 0-.29v-2.38h3.85v2.38c.01.1.01.2 0 .3a1.35 1.35 0 0 1-1.44 1.06l.05.05Zm9.32-2.26-.47 5a4.15 4.15 0 0 1-4.14 3.77H6.94a4.16 4.16 0 0 1-4.13-3.71l-.53-4.86a16.63 16.63 0 0 0 5.45 2.12 3.87 3.87 0 0 0 3.57 2.39h1.11a3.86 3.86 0 0 0 3.59-2.38 16.12 16.12 0 0 0 5.78-2.33Z"/>
</svg>
