<svg xmlns="http://www.w3.org/2000/svg" width="24" height="25" fill="currentColor" viewBox="0 0 24 25">
  <path d="M11.56 16.987a.741.741 0 0 1-.53-.22l-.93-.91a.75.75 0 1 1 1-1.07l.44.42 1.67-1.5a.75.75 0 0 1 1.25.602.748.748 0 0 1-.25.518l-2.16 1.94a.74.74 0 0 1-.49.22Zm10.52-6.18-.08 1.28a13.32 13.32 0 0 1-5.41 2.62v.36a4.63 4.63 0 0 1-9.26 0 3.157 3.157 0 0 1 0-.32 13.85 13.85 0 0 1-5.26-2.44l-.15-1.44a3.66 3.66 0 0 1 0-.74 4.36 4.36 0 0 1 .54-1.8c.129-.222.28-.43.45-.62l.09-.11a4.35 4.35 0 0 1 .55-.5l.1-.07a4.16 4.16 0 0 1 .6-.32l.11-.06c.233-.101.473-.182.72-.24h.17a4.17 4.17 0 0 1 .8-.09h1.53v-1.11a2.71 2.71 0 0 1 2.71-2.71h3.38a2.72 2.72 0 0 1 2.72 2.71v1.06h1.55a4.16 4.16 0 0 1 3.58 2c.14.246.26.504.36.77a4.19 4.19 0 0 1 .2 1.74v.03Zm-13-4.54h5.81v-1.06a1.22 1.22 0 0 0-1.22-1.21h-3.38a1.21 1.21 0 0 0-1.21 1.21v1.06Zm6.05 8.82a3.13 3.13 0 1 0-3.13 3.13 3.14 3.14 0 0 0 3.13-3.13ZM12 21.217a6.14 6.14 0 0 1-6.07-5.3 15.424 15.424 0 0 1-3.65-1.65l.53 4.93a4.15 4.15 0 0 0 4.13 3.72h10.23a4.16 4.16 0 0 0 4.14-3.77l.47-5.05a15.131 15.131 0 0 1-3.71 1.75 6.13 6.13 0 0 1-6.07 5.37Z"/>
</svg>
