<svg xmlns="http://www.w3.org/2000/svg" width="24" height="25" fill="currentColor" viewBox="0 0 24 25">
  <path d="M22.08 10.807a4.19 4.19 0 0 0-.2-1.74c-.1-.266-.22-.524-.36-.77a4.16 4.16 0 0 0-3.58-2h-1.55v-1.09a2.72 2.72 0 0 0-2.72-2.71h-3.38a2.71 2.71 0 0 0-2.71 2.71v1.06H6.05a4.17 4.17 0 0 0-.8.09h-.17a4.34 4.34 0 0 0-.72.24l-.11.11a4.3 4.3 0 0 0-.59.34l-.1.07a4.35 4.35 0 0 0-.55.5l-.1.09a3.84 3.84 0 0 0-.45.61 4.36 4.36 0 0 0-.54 1.8 3.66 3.66 0 0 0 0 .74l.15 1.44a13.85 13.85 0 0 0 5.33 2.47 3.157 3.157 0 0 0 0 .32 4.63 4.63 0 0 0 9.26 0v-.36a13.32 13.32 0 0 0 5.34-2.64l.12-1.28h-.04Zm-13-5.6a1.21 1.21 0 0 1 1.21-1.21h3.38a1.22 1.22 0 0 1 1.22 1.21v1.06H9.08v-1.06Zm2.92 13a3.14 3.14 0 1 1 3.13-3.13 3.13 3.13 0 0 1-3.13 3.14v-.01Zm6.07-2.37a15.131 15.131 0 0 0 3.71-1.75l-.47 5.05a4.16 4.16 0 0 1-4.14 3.77H6.94a4.15 4.15 0 0 1-4.13-3.72l-.53-4.93a15.424 15.424 0 0 0 3.65 1.65 6.12 6.12 0 0 0 12.14-.07Zm-5.17-2.13v1.51a.77.77 0 0 1-.34.63l-1.43.86a.65.65 0 0 1-.4.12.75.75 0 0 1-.41-1.38l1.08-.69v-1.05a.75.75 0 1 1 1.5 0Z"/>
</svg>
