<svg xmlns="http://www.w3.org/2000/svg" width="24" height="25" fill="currentColor" viewBox="0 0 24 25">
  <path d="M16.7 2.707H7.3a5.29 5.29 0 0 0-5.3 5.3v9.4a5.29 5.29 0 0 0 5.3 5.3h9.4a5.29 5.29 0 0 0 5.3-5.3v-9.4a5.292 5.292 0 0 0-5.3-5.3Zm-8 13.92-2.28-2.25a2.13 2.13 0 0 1 0-3l3.16-3.16-.58-.62a.75.75 0 0 1 1.06-1.06l1.74 1.79 3.65 3.64a.66.66 0 0 1 0 .92l-3.75 3.75a2.14 2.14 0 0 1-3.02 0l.02-.01Zm8 1.85a1.51 1.51 0 0 1-1.55-1.46 4.12 4.12 0 0 1 1-2.23.719.719 0 0 1 1.14 0 4 4 0 0 1 1 2.24 1.51 1.51 0 0 1-1.63 1.46l.04-.01Z"/>
</svg>
