<svg xmlns="http://www.w3.org/2000/svg" width="24" height="25" fill="currentColor" viewBox="0 0 24 25">
  <path d="m17.096 10.885-6.44-6.44h-.05l-1.49-1.53a.73.73 0 0 0-1 0 .72.72 0 0 0 0 1l.85.86-5.22 5.22a3.16 3.16 0 0 0 0 4.46l3.34 3.34a3.16 3.16 0 0 0 4.46 0l5.55-5.55a1 1 0 0 0 0-1.36Zm-1.101 11.81H3.646a.73.73 0 0 1 0-1.46h12.35a.73.73 0 1 1 0 1.46Zm4.51-2.71c.43-.43.67-1.012.67-1.62a5.89 5.89 0 0 0-1.44-3.3 1.06 1.06 0 0 0-1.68 0 6.06 6.06 0 0 0-1.46 3.3 2.29 2.29 0 0 0 3.91 1.62Z"/>
</svg>
