<svg xmlns="http://www.w3.org/2000/svg" width="24" height="25" fill="currentColor" viewBox="0 0 24 25">
  <path d="M5 3.524a1.87 1.87 0 1 0 1.92 1.89A1.88 1.88 0 0 0 5 3.524Zm7 0a1.87 1.87 0 1 0 2 1.89 1.88 1.88 0 0 0-1.93-1.89H12Zm7.1 0a1.87 1.87 0 1 0 1.96 1.89 1.88 1.88 0 0 0-1.89-1.89h-.07ZM5 10.554a1.87 1.87 0 1 0 1.89 1.86A1.88 1.88 0 0 0 5 10.554Zm7.05 0a1.87 1.87 0 1 0 1.89 1.86 1.88 1.88 0 0 0-1.89-1.86Zm7.09 0a1.87 1.87 0 1 0 1.86 1.86 1.88 1.88 0 0 0-1.86-1.86ZM5 17.574a1.87 1.87 0 1 0 1.87 1.84A1.88 1.88 0 0 0 5 17.574Zm7 0a1.87 1.87 0 1 0 1.91 1.84 1.88 1.88 0 0 0-1.91-1.84Zm7.1 0a1.87 1.87 0 1 0 1.9 1.84 1.88 1.88 0 0 0-1.88-1.84h-.02Z"/>
</svg>
