<svg xmlns="http://www.w3.org/2000/svg" width="24" height="25" fill="currentColor" viewBox="0 0 24 25">
  <path d="M16.05 2.414H8a6 6 0 0 0-6 6v8.1a6 6 0 0 0 6 5.9h8.1a6 6 0 0 0 5.9-5.95v-8.05a6 6 0 0 0-5.95-6Zm-8.4 15.45a1.15 1.15 0 1 1 .02-2.3 1.15 1.15 0 0 1-.02 2.3Zm0-4.3a1.15 1.15 0 1 1 .01 0h-.01Zm0-4.31a1.15 1.15 0 1 1 1.19-1.15 1.16 1.16 0 0 1-1.16 1.15h-.03Zm4.35 8.61a1.15 1.15 0 1 1 .02-2.301 1.15 1.15 0 0 1-.02 2.3Zm0-4.3a1.15 1.15 0 1 1 1.14-1.15 1.14 1.14 0 0 1-1.14 1.15Zm0-4.31a1.15 1.15 0 1 1 1.16-1.15A1.16 1.16 0 0 1 12 9.254Zm4.32 8.61a1.15 1.15 0 1 1 .02-2.301 1.15 1.15 0 0 1-.02 2.3Zm0-4.3a1.15 1.15 0 1 1 .02 0h-.02Zm0-4.31a1.15 1.15 0 1 1 1.16-1.15 1.16 1.16 0 0 1-1.13 1.15h-.03Z"/>
</svg>
