<svg xmlns="http://www.w3.org/2000/svg" width="24" height="25" fill="currentColor" viewBox="0 0 24 25">
  <path d="M4.69 9.207h14.62a.69.69 0 0 1 .69.69v2.62a.69.69 0 0 1-.69.69H4.69a.69.69 0 0 1-.69-.69v-2.62a.69.69 0 0 1 .69-.69ZM20 5.397v2.12a.69.69 0 0 1-.69.69H4.69a.69.69 0 0 1-.69-.69v-2.12a2.68 2.68 0 0 1 2.69-2.69h10.62A2.68 2.68 0 0 1 20 5.397Zm-4.72.31a.76.76 0 0 0-.75-.75H9.66a.75.75 0 0 0 0 1.5h4.87a.76.76 0 0 0 .75-.75Zm4.72 9.19v5.12a2.678 2.678 0 0 1-2.69 2.69H6.69A2.68 2.68 0 0 1 4 20.017v-5.12a.69.69 0 0 1 .69-.69h14.62a.69.69 0 0 1 .69.69Zm-10.75 3.31a1.25 1.25 0 1 0-2.5 0 1.25 1.25 0 0 0 2.5 0Zm8 0a1.25 1.25 0 1 0-2.5 0 1.25 1.25 0 0 0 2.5 0Z"/>
</svg>
