<svg xmlns="http://www.w3.org/2000/svg" width="24" height="25" fill="currentColor" viewBox="0 0 24 25">
  <path d="M16.15 2.887h-8.3A5.85 5.85 0 0 0 2 8.707v8.3a5.85 5.85 0 0 0 5.85 5.85h8.3a5.85 5.85 0 0 0 5.85-5.82v-8.33a5.85 5.85 0 0 0-5.85-5.82Zm-8.63 16.26a1 1 0 1 1 0-2 1 1 0 0 1 0 2Zm0-3.67a1 1 0 1 1 0-2 1 1 0 0 1 0 2Zm5.23 3.67a1 1 0 1 1 0-2 1 1 0 0 1 0 2Zm0-3.67a1 1 0 1 1 0-1.93 1 1 0 1 1 0 1.93Zm5.18 3.07a.75.75 0 1 1-1.5 0v-4.35a.75.75 0 1 1 1.5 0v4.35Zm.4-9.63a2 2 0 0 1-2 2H7.62a2 2 0 0 1-2-2v-.63a2 2 0 0 1 2-2h8.69a2 2 0 0 1 2 2l.02.63Z"/>
</svg>
