<svg xmlns="http://www.w3.org/2000/svg" width="24" height="25" fill="currentColor" viewBox="0 0 24 25">
  <path d="M16.93 2.707H7.07A4.07 4.07 0 0 0 3 6.777v11.86a4.07 4.07 0 0 0 4.07 4.07h9.86a4.07 4.07 0 0 0 4.07-4.07V6.777a4.07 4.07 0 0 0-4.07-4.07Zm-6.09 14.94a.75.75 0 0 1 0 1.06.71.71 0 0 1-.54.24.77.77 0 0 1-.5-.24l-.61-.59-.61.59a.77.77 0 0 1-.946.084.75.75 0 0 1-.094-1.175l.56-.53-.56-.54a.749.749 0 0 1 .438-1.386.751.751 0 0 1 .562.306l.61.58.61-.58a.75.75 0 0 1 1 1.08l-.56.54.64.56Zm3.65 1.54a1 1 0 1 1 0-2 1 1 0 0 1 0 2Zm2-2.15a1 1 0 1 1 .01 0h-.01ZM18 9.966a1.74 1.74 0 0 1-1.74 1.74H7.74A1.74 1.74 0 0 1 6 9.966v-2.52a1.74 1.74 0 0 1 1.74-1.74h8.52A1.74 1.74 0 0 1 18 7.447v2.52Z"/>
</svg>
