<svg xmlns="http://www.w3.org/2000/svg" width="24" height="25" fill="currentColor" viewBox="0 0 24 25">
  <path d="M20.08 7.413a.83.83 0 0 1-.76 1.12h-16a1 1 0 0 1-.93-1.36 5.43 5.43 0 0 1 3.34-3.09v-1.56a.69.69 0 0 1 1.38 0v1.3h3.59v-1.3a.69.69 0 0 1 .953-.637.68.68 0 0 1 .417.637v1.27h3.24v-1.27a.69.69 0 0 1 1.38 0v1.56a5.42 5.42 0 0 1 3.39 3.33Zm-.47 2.49H2.85a.82.82 0 0 0-.82.82v5.69a5.43 5.43 0 0 0 5.43 5.42h5.81a5.4 5.4 0 0 1-.8-2.84 5.49 5.49 0 0 1 8-4.91v-3.36a.819.819 0 0 0-.86-.82ZM8 17.733a.85.85 0 1 1 .02-1.7.85.85 0 0 1-.02 1.7Zm0-3.21a.85.85 0 1 1 .86-.84.86.86 0 0 1-.86.84Zm3.21 0a.85.85 0 1 1 .87-.84.86.86 0 0 1-.91.84h.04Zm6.8.47a4 4 0 1 0 1.524.302A4 4 0 0 0 18 14.993h.01Zm1.58 4.54a.76.76 0 0 1-.53 1.3.79.79 0 0 1-.53-.22l-.55-.57-.58.54a.74.74 0 0 1-1.06-.05.771.771 0 0 1 .01-1.12l.53-.49-.5-.51a.76.76 0 0 1 1.06-1l.55.57.58-.54a.75.75 0 0 1 1.06.05.77.77 0 0 1-.05 1.08l-.53.49.54.47Z"/>
</svg>
