<svg xmlns="http://www.w3.org/2000/svg" width="24" height="25" fill="currentColor" viewBox="0 0 24 25">
  <path d="M20.85 7.994a.829.829 0 0 1-.77 1.12h-16a1 1 0 0 1-.94-1.36 5.45 5.45 0 0 1 3.36-3.09v-1.56a.68.68 0 0 1 .68-.69.69.69 0 0 1 .69.69v1.31h3.59v-1.31a.69.69 0 0 1 1.38 0v1.31h3.22v-1.31a.68.68 0 0 1 .68-.69.69.69 0 0 1 .69.69v1.56a5.46 5.46 0 0 1 3.42 3.33Zm-.47 2.49H3.62a.82.82 0 0 0-.82.82v5.69a5.42 5.42 0 0 0 5.42 5.42h7.56a5.42 5.42 0 0 0 5.42-5.42v-5.69a.82.82 0 0 0-.82-.82Zm-4.68 9.28a.7.7 0 0 1-.52.22.78.78 0 0 1-.54-.23l-.64-.67a3.64 3.64 0 1 1 1.06-1.06l.66.68a.75.75 0 0 1-.02 1.06Z"/>
</svg>
