<svg xmlns="http://www.w3.org/2000/svg" width="24" height="25" fill="currentColor" viewBox="0 0 24 25">
  <path d="M2.64 18.734h18.72a4.73 4.73 0 0 1-4.59 3.68H7.23a4.73 4.73 0 0 1-4.59-3.68Zm9.36-5.82a1 1 0 0 0-1 .86 1 1 0 0 0 1 .85 1 1 0 0 0 1-.85 1 1 0 0 0-1-.86Zm0-1.5a.68.68 0 0 0 .72-.62.73.73 0 0 0-1.44 0 .68.68 0 0 0 .72.62Zm9.49-2.8v8.62h-19v-8.62a4.73 4.73 0 0 1 4.74-4.73v-1.47a.75.75 0 0 1 1.5 0v1.47h6.5v-1.47a.75.75 0 1 1 1.5 0v1.47a4.73 4.73 0 0 1 4.76 4.73Zm-7 5.16a2.27 2.27 0 0 0-.78-1.7 2 2 0 0 0 .48-1.3 2.22 2.22 0 0 0-4.44 0 2 2 0 0 0 .48 1.3 2.27 2.27 0 0 0-.78 1.7 2.44 2.44 0 0 0 2.55 2.35 2.439 2.439 0 0 0 2.53-2.35h-.04Z"/>
</svg>
