<svg xmlns="http://www.w3.org/2000/svg" width="24" height="25" fill="currentColor" viewBox="0 0 24 25">
  <path d="M20.27 10.493H3.73a.8.8 0 0 0-.77.81v5.67a5.37 5.37 0 0 0 5.34 5.44h7.45a5.38 5.38 0 0 0 5.25-5.44v-5.67a.8.8 0 0 0-.73-.81Zm-11.47 7.8a.85.85 0 1 1 .85-.88.85.85 0 0 1-.85.84v.04Zm0-3.19a.85.85 0 1 1 .85-.85.84.84 0 0 1-.85.85Zm3.2 3.19a.85.85 0 0 1-.83-.86.84.84 0 0 1 1.68 0 .85.85 0 0 1-.85.84v.02Zm0-3.19a.85.85 0 0 1-.83-.86.84.84 0 0 1 1.68 0 .85.85 0 0 1-.84.85l-.01.01Zm3.18 3.19a.85.85 0 1 1 0-1.699.85.85 0 0 1 0 1.7Zm0-3.19a.85.85 0 1 1 0-1.699.85.85 0 0 1 0 1.7Zm5.55-7.09a.84.84 0 0 1-.49 1.06.86.86 0 0 1-.27.05H4.22a1 1 0 0 1-1-1 .86.86 0 0 1 .07-.36 5.38 5.38 0 0 1 3.28-3.07v-1.56a.68.68 0 0 1 1.36 0v1.28h3.55v-1.28a.68.68 0 1 1 1.35 0v1.28H16v-1.28a.68.68 0 1 1 1.35 0v1.56a5.39 5.39 0 0 1 3.38 3.32Z"/>
</svg>
