<svg xmlns="http://www.w3.org/2000/svg" width="24" height="25" fill="currentColor" viewBox="0 0 24 25">
  <path d="M20.15 7.993a.83.83 0 0 1-.77 1.12h-16a1 1 0 0 1-.94-1.36 5.45 5.45 0 0 1 3.36-3.09v-1.56a.69.69 0 0 1 .953-.637.68.68 0 0 1 .417.637v1.31h3.6v-1.31a.68.68 0 0 1 .68-.69.69.69 0 0 1 .69.69v1.31h3.18v-1.31a.69.69 0 1 1 1.37 0v1.56a5.46 5.46 0 0 1 3.46 3.33Zm-.47 2.49H2.92a.82.82 0 0 0-.82.82v5.69a5.42 5.42 0 0 0 5.42 5.42h7.56a5.419 5.419 0 0 0 5.42-5.42v-5.69a.82.82 0 0 0-.82-.82Zm-4.31 4.48-4.22 4.58a.86.86 0 0 1-.42.25l-1.35.35a.88.88 0 0 1-1.08-1l.23-1.37a1 1 0 0 1 .22-.45l4.25-4.57a1.06 1.06 0 0 1 1.5-.06l.84.78a1 1 0 0 1 .03 1.49Z"/>
</svg>
