<svg xmlns="http://www.w3.org/2000/svg" width="24" height="25" fill="currentColor" viewBox="0 0 24 25">
  <path d="M20.85 7.964a.82.82 0 0 1-.77 1.11h-16a1 1 0 0 1-.91-1.36 5.43 5.43 0 0 1 3.33-3.08v-1.57a.68.68 0 0 1 .68-.65.69.69 0 0 1 .69.69v1.31h3.59v-1.35a.69.69 0 0 1 1.38 0v1.28h3.22v-1.28a.68.68 0 0 1 .68-.65.69.69 0 0 1 .69.69v1.53a5.42 5.42 0 0 1 3.42 3.33Zm-.47 2.45H3.62a.82.82 0 0 0-.82.82v5.68a5.42 5.42 0 0 0 5.42 5.5h7.56a5.422 5.422 0 0 0 5.42-5.42v-5.72a.822.822 0 0 0-.82-.86Zm-11.66 7.86a.849.849 0 1 1 .02-1.698.849.849 0 0 1-.02 1.697Zm0-3.2a.85.85 0 1 1 .01 0h-.01Zm3.21 0a.85.85 0 1 1 .01 0h-.01Z"/>
</svg>
