<svg xmlns="http://www.w3.org/2000/svg" width="24" height="25" fill="currentColor" viewBox="0 0 24 25">
  <path d="M12.38 2.707H9.46v1a1 1 0 0 1-2 0v-1H4.48a2.25 2.25 0 0 0-2.25 2.25v15.5a2.25 2.25 0 0 0 2.25 2.25h7.9a2.25 2.25 0 0 0 2.25-2.25v-15.5a2.25 2.25 0 0 0-2.25-2.25Zm-4 16a1.54 1.54 0 0 1-1.55-1.55H10a1.54 1.54 0 0 1-1.57 1.55h-.05Zm3.78-2.85a.67.67 0 0 1-.67.67H5.33a.67.67 0 0 1-.67-.67v-2.8a3.79 3.79 0 0 1 3-3.7v-1.07a.78.78 0 0 1 1.56 0v1.07a3.79 3.79 0 0 1 3 3.7l-.06 2.8Zm8.84-2.15h-2.81a.78.78 0 0 1 0-1.55H21a.78.78 0 0 1 0 1.55Zm-2.77-5a.78.78 0 0 1-.36-1.46l2.72-1.46a.78.78 0 0 1 .73 1.37l-2.72 1.47a.81.81 0 0 1-.37.08ZM21 20.117a.8.8 0 0 1-.36-.09l-2.72-1.46a.78.78 0 0 1 .73-1.37l2.67 1.51a.78.78 0 0 1 .32 1 .78.78 0 0 1-.64.41Z"/>
</svg>
