<svg xmlns="http://www.w3.org/2000/svg" width="24" height="25" fill="currentColor" viewBox="0 0 24 25">
  <path d="M21.34 12.797a2.52 2.52 0 0 0-2.05-2.28 3.428 3.428 0 0 0-.46 0H5.16a2.725 2.725 0 0 0-.5.05c-.158.03-.312.077-.46.14a2.52 2.52 0 0 0-1.53 2.12L2 20.647a1.46 1.46 0 0 0 1.45 1.57h3.64a1.45 1.45 0 0 0 1.45-1.37v-.08a1.45 1.45 0 0 1 1.46-1.37h3.65a1.46 1.46 0 0 1 1.45 1.31v.19a1.46 1.46 0 0 0 1.45 1.32h3.95a1.461 1.461 0 0 0 1.5-1.57l-.66-7.85Zm-12.5 1.81h-3a.7.7 0 0 1 0-1.4h3a.7.7 0 1 1 0 1.4Zm9.4 0h-3a.7.7 0 0 1 0-1.4h3a.7.7 0 1 1 0 1.4Zm2.56-6.23a.7.7 0 0 1-.71.7H3.46a.7.7 0 0 1-.71-.7.71.71 0 0 1 .71-.67h1.13l.41-2.2a2.8 2.8 0 0 1 2.73-2.31h8.32a2.8 2.8 0 0 1 2.75 2.31l.39 2.2h.9a.71.71 0 0 1 .71.67Z"/>
</svg>
