<svg xmlns="http://www.w3.org/2000/svg" width="24" height="25" fill="currentColor" viewBox="0 0 24 25">
  <path d="M7.73 10.954h-2.9A2.83 2.83 0 0 1 2 8.124v-2.91a2.83 2.83 0 0 1 2.83-2.8h2.9a2.83 2.83 0 0 1 2.83 2.8v2.91a2.83 2.83 0 0 1-2.83 2.83ZM22 8.154v-2.9a2.83 2.83 0 0 0-2.83-2.84h-2.9a2.83 2.83 0 0 0-2.83 2.83v2.9a2.83 2.83 0 0 0 2.83 2.83h2.9A2.83 2.83 0 0 0 22 8.154Zm-11.44 11.42v-2.9a2.83 2.83 0 0 0-2.83-2.83h-2.9A2.83 2.83 0 0 0 2 16.674v2.9a2.83 2.83 0 0 0 2.83 2.84h2.9a2.831 2.831 0 0 0 2.83-2.84Zm11.44.04v-2.91a2.83 2.83 0 0 0-2.83-2.83h-2.9a2.83 2.83 0 0 0-2.83 2.83v2.91a2.83 2.83 0 0 0 2.83 2.8h2.9a2.83 2.83 0 0 0 2.83-2.8Z"/>
</svg>
