<svg xmlns="http://www.w3.org/2000/svg" width="24" height="25" fill="currentColor" viewBox="0 0 24 25">
  <path d="M20.78 22.767H3.22a.75.75 0 1 1 0-1.5h17.56a.75.75 0 0 1 0 1.5ZM19 18.587V8.117a1.17 1.17 0 0 0-1.17-1.18h-1a1.17 1.17 0 0 0-1.17 1.18v10.47a1.17 1.17 0 0 0 1.17 1.17h1a1.17 1.17 0 0 0 1.17-1.17Zm-5.71-.12V3.947a1.3 1.3 0 0 0-1.29-1.3h-.73a1.3 1.3 0 0 0-1.3 1.3v14.52a1.3 1.3 0 0 0 1.3 1.29H12a1.29 1.29 0 0 0 1.25-1.29h.04Zm-5.71.12v-5.54a1.18 1.18 0 0 0-1.18-1.18h-1a1.18 1.18 0 0 0-1.18 1.18v5.54a1.17 1.17 0 0 0 1.18 1.17h1a1.17 1.17 0 0 0 1.14-1.17h.04Z"/>
</svg>
