<svg xmlns="http://www.w3.org/2000/svg" width="24" height="25" fill="currentColor" viewBox="0 0 24 25">
  <path d="m19.52 22.956-.62-.36a.92.92 0 0 0-.91 0l-.61.37a.91.91 0 0 1-1.35-1l.15-.7a1 1 0 0 0-.29-.89l-.53-.47a.93.93 0 0 1 .51-1.61l.7-.08a.889.889 0 0 0 .74-.55l.22-.51a1 1 0 0 1 1.79 0l.23.52a.898.898 0 0 0 .74.54l.7.07a.92.92 0 0 1 .52 1.6l-.53.49a.93.93 0 0 0-.27.88l.15.7a.91.91 0 0 1-1.34 1ZM22 8.706v8.4a2.242 2.242 0 0 0-.84-.27h-.37l-.08-.2a2.45 2.45 0 0 0-3.621-1.074 2.48 2.48 0 0 0-.909 1.095l-.08.2h-.37a2.41 2.41 0 0 0-2 1.68 2.45 2.45 0 0 0 .69 2.57l.27.25-.07.37c-.069.33-.069.67 0 1H7.89a5.94 5.94 0 0 1-5.89-6v-8.02a5.94 5.94 0 0 1 5.89-6h8.22a5.94 5.94 0 0 1 5.89 6Zm-5.06 1.28a.741.741 0 0 0-1.06 0l-2.62 2.86a.1.1 0 0 1-.14 0l-1.55-1.25a1.57 1.57 0 0 0-2.14.13L7 14.267a.78.78 0 0 0 0 1.08.73.73 0 0 0 .52.21.729.729 0 0 0 .53-.22l2.4-2.5a.1.1 0 0 1 .14 0l1.55 1.25a1.59 1.59 0 0 0 2.17-.17l2.69-2.86a.77.77 0 0 0-.06-1.07Z"/>
</svg>
