<svg xmlns="http://www.w3.org/2000/svg" width="24" height="25" fill="currentColor" viewBox="0 0 24 25">
  <path d="M20.78 22.857H3.22a.75.75 0 1 1 0-1.5h17.56a.75.75 0 0 1 0 1.5Zm-7.61-4.15V8.077A1.18 1.18 0 0 0 12 6.897h-1a1.18 1.18 0 0 0-1.15 1.18v10.63a1.18 1.18 0 0 0 1.15 1.14h1a1.18 1.18 0 0 0 1.17-1.14Zm5.69-.12V3.857a1.3 1.3 0 0 0-1.3-1.3h-.71a1.3 1.3 0 0 0-1.3 1.3v14.69a1.3 1.3 0 0 0 1.3 1.3h.71a1.3 1.3 0 0 0 1.3-1.3v.04Zm-11.34.12v-5.65a1.18 1.18 0 0 0-1.18-1.18h-1a1.18 1.18 0 0 0-1.14 1.18v5.65a1.18 1.18 0 0 0 1.18 1.18h1a1.18 1.18 0 0 0 1.14-1.18Z"/>
</svg>
