<svg xmlns="http://www.w3.org/2000/svg" width="24" height="25" fill="currentColor" viewBox="0 0 24 25">
  <path d="M13 9.277v-5.46a1 1 0 0 1 1.16-1 9 9 0 0 1 7.76 7.76 1 1 0 0 1-1 1.16h-5.49A2.43 2.43 0 0 1 13 9.277Zm-2 3.22v-6.14a1.5 1.5 0 0 0-1.8-1.47 9 9 0 0 0-7.2 9.06 9.12 9.12 0 0 0 9.27 8.76 9 9 0 0 0 4.15-1.17 1.48 1.48 0 0 0 .28-2.34l-2.92-2.9a5.209 5.209 0 0 1-1.78-3.8Zm9.65 1.21h-5.44a.91.91 0 0 0-.64 1.56l3.86 3.82a1.26 1.26 0 0 0 1.92-.19 9 9 0 0 0 1.54-3.79 1.241 1.241 0 0 0-1.24-1.4Z"/>
</svg>
