<svg xmlns="http://www.w3.org/2000/svg" width="24" height="25" fill="currentColor" viewBox="0 0 24 25">
  <path d="M20.78 22.826H3.22a.75.75 0 1 1 0-1.5h17.56a.75.75 0 0 1 0 1.5Zm-9.72-3H12a1.18 1.18 0 0 0 1.2-1.12V8.096a1.181 1.181 0 0 0-1.2-1.18h-.95a1.18 1.18 0 0 0-1.17 1.18v10.61a1.18 1.18 0 0 0 1.18 1.14v-.02Zm-5.54 0h.72a1.3 1.3 0 0 0 1.3-1.3V3.886a1.3 1.3 0 0 0-1.3-1.3h-.72a1.3 1.3 0 0 0-1.3 1.3v14.66a1.3 1.3 0 0 0 1.3 1.3v-.02Zm11.19 0h1a1.18 1.18 0 0 0 1.14-1.12v-5.63a1.18 1.18 0 0 0-1.18-1.19h-1a1.18 1.18 0 0 0-1.18 1.19v5.63a1.18 1.18 0 0 0 1.22 1.14v-.02Z"/>
</svg>
