<svg xmlns="http://www.w3.org/2000/svg" width="24" height="25" fill="currentColor" viewBox="0 0 24 25">
  <path d="M15.15 19.647v-15.5a.88.88 0 0 0-1.37-.74l-1.21.78a.9.9 0 0 1-1 0l-2-1.33a.87.87 0 0 0-1 0L6.6 4.347a.89.89 0 0 1-1 0l-1.29-.86a.89.89 0 0 0-1.4.73v15.43A3.06 3.06 0 0 0 6 22.707h12.2a3.06 3.06 0 0 1-3.05-3.06Zm-7.22-6.18H5.71a.76.76 0 0 1 0-1.52h2.22a.76.76 0 1 1 0 1.52Zm0-3.26H5.71a.78.78 0 0 1-.77-.77.77.77 0 0 1 .77-.73h2.22a.76.76 0 0 1 .76.76.77.77 0 0 1-.76.74Zm4.07 6.5H9.8a.76.76 0 0 1 0-1.52H12a.76.76 0 1 1 0 1.52Zm0-3.27h-1.34a.76.76 0 0 1 0-1.52H12a.76.76 0 1 1 0 1.52Zm0-3.23h-1.34a.77.77 0 0 1-.76-.77.76.76 0 0 1 .76-.73H12a.76.76 0 0 1 .76.76.77.77 0 0 1-.76.74Zm7.05 11.5h-.85a2 2 0 0 1-2-2v-4.77h2.89a2 2 0 0 1 2 2v2.77a2 2 0 0 1-2.04 2Z"/>
</svg>
