<svg xmlns="http://www.w3.org/2000/svg" width="24" height="25" fill="currentColor" viewBox="0 0 24 25">
  <path d="M4.82 6.197a10.08 10.08 0 0 1 16.4 1.35 30.39 30.39 0 0 0-9.31.33 5 5 0 0 0-4.23 4.13 22.072 22.072 0 0 1-2.86-5.81Zm4.24 6.62a3.49 3.49 0 1 0 3.48-3.49 3.48 3.48 0 0 0-3.48 3.49Zm6.57-3.89a5 5 0 0 1 1.9 3.89 5.002 5.002 0 0 1-.4 1.94 30.823 30.823 0 0 1-4.6 8.05A10.09 10.09 0 0 0 22 9.137c-2.115-.23-4.244-.3-6.37-.21Zm-4.91 13.71a31.91 31.91 0 0 0 3.49-5.15c-.534.2-1.1.305-1.67.31a5.002 5.002 0 0 1-3.6-1.57h-.06a29.61 29.61 0 0 1-5.13-8.52 10.08 10.08 0 0 0 7 14.89l-.03.04Z"/>
</svg>
