<svg xmlns="http://www.w3.org/2000/svg" width="24" height="25" fill="currentColor" viewBox="0 0 24 25">
  <path d="M12 2.414a10 10 0 1 0 0 20 10 10 0 0 0 0-20Zm0 4.89a2.38 2.38 0 1 1-2.35 2.38A2.39 2.39 0 0 1 12 7.304Zm2.61 9a.74.74 0 0 1-.12 1.05.68.68 0 0 1-.47.17.77.77 0 0 1-.58-.28L12 15.414l-1.47 1.83a.75.75 0 0 1-1.17-.94l1.22-1.51a3.904 3.904 0 0 1-1-.4.75.75 0 0 1-.26-1 .76.76 0 0 1 1-.27 3.86 3.86 0 0 0 3.42 0 .74.74 0 0 1 1 .38.748.748 0 0 1-.38 1c-.326.13-.66.24-1 .33l1.25 1.47Z"/>
</svg>
