<svg xmlns="http://www.w3.org/2000/svg" width="24" height="25" fill="currentColor" viewBox="0 0 24 25">
  <path d="M18.63 14.707a1 1 0 0 1-.83.66 16.555 16.555 0 0 0-3.08.66l1.5 3.58a1.491 1.491 0 0 1-.8 2 1.51 1.51 0 0 1-.58.12 1.48 1.48 0 0 1-1.38-.92L12 17.236c-.82.45-1.602.964-2.34 1.54a1 1 0 0 1-.62.21.998.998 0 0 1-1-1V5.707a1 1 0 0 1 .62-.92 1 1 0 0 1 1.09.21l8.64 8.71a1 1 0 0 1 .24 1Zm-3.83-9 .95-1.75a.748.748 0 0 0-.264-1.072.75.75 0 0 0-1.046.352l-1 1.76a.74.74 0 0 0 .3 1 .7.7 0 0 0 .36.1.76.76 0 0 0 .7-.39Zm3 3.54 1.79-.9a.751.751 0 1 0-.68-1.34l-1.78.9a.75.75 0 0 0-.33 1 .741.741 0 0 0 .67.41.67.67 0 0 0 .32-.12l.01.05Zm-12.27 1.46a.74.74 0 0 0-.74-.76h-2a.75.75 0 0 0 0 1.5h2a.75.75 0 0 0 .74-.74Zm-1.93 6.09 1.79-.89a.74.74 0 0 0 .35-1 .76.76 0 0 0-1-.35l-1.79.89a.75.75 0 0 0 .65 1.35Z"/>
</svg>
