<svg xmlns="http://www.w3.org/2000/svg" width="24" height="25" fill="currentColor" viewBox="0 0 24 25">
  <path d="M14.13 19.357Zm.83-.17c.153-.045.303-.098.45-.16-.134.06-.27.114-.41.16h-.04Zm2.55-2c.09-.162.17-.329.24-.5-.07.168-.15.331-.24.49v.01Zm-13.28.34c.213.157.441.295.68.41a4.231 4.231 0 0 1-.68-.42v.01Zm1.26.65-.29-.1.29.1Zm7.51 1.18c.219.031.44.048.66.05h.13c-.263.02-.527.02-.79 0l-6.76-1 6.76.95Zm4.34-1.9c-.091.14-.191.273-.3.4.102-.127.195-.261.28-.4h.02Zm-.54.65c-.12.11-.23.22-.36.32.11-.1.22-.21.34-.32h.02Zm3.3-9.65c.01.166.01.333 0 .5l-1 6.76a5.49 5.49 0 0 1-6.24 4.63l-6.76-1a5.784 5.784 0 0 1-.91-.23 4.36 4.36 0 0 0 1.9 1.25l6.48 2.16a4.5 4.5 0 0 0 5.66-2.82l2.16-6.48a4.47 4.47 0 0 0-1.29-4.77Zm-1-.69v.32c.02-.11.02-.21.01-.32h-.01Zm-1 7.8.5-3.38-.5 3.38Zm-2.35 3.31.4-.25-.4.25Zm3.34-10.07-1 6.76a4.49 4.49 0 0 1-5.09 3.79l-6.76-1a4.5 4.5 0 0 1-3.79-5.11l1-6.76a4.51 4.51 0 0 1 5.09-3.78l6.76 1a4.5 4.5 0 0 1 3.79 5.1Zm-8.33-.9a2 2 0 1 0-4 0 2 2 0 0 0 4 0Z"/>
</svg>
