<svg xmlns="http://www.w3.org/2000/svg" width="24" height="25" fill="currentColor" viewBox="0 0 24 25">
  <path d="M2.09 7.017a5.29 5.29 0 0 1 5.19-4.31h9.44a5.29 5.29 0 0 1 5.19 4.31.83.83 0 0 1-.82 1H2.91a.83.83 0 0 1-.82-1ZM22 10.297v7.13a5.27 5.27 0 0 1-5.28 5.28H7.28A5.268 5.268 0 0 1 2 17.426v-7.13a.83.83 0 0 1 .83-.83h18.34a.83.83 0 0 1 .83.83Zm-14 5.41 1.45-1.39a.749.749 0 0 0-.438-1.387.751.751 0 0 0-.562.306l-2 1.92a.78.78 0 0 0-.23.54.74.74 0 0 0 .23.54l2 2a.7.7 0 0 0 .52.22.75.75 0 0 0 .53-1.29L8 15.706Zm9.83 0a.78.78 0 0 0-.23-.54l-2-1.92a.75.75 0 0 0-1 1.08l1.4 1.38-1.46 1.43a.75.75 0 0 0 0 1.06.78.78 0 0 0 .54.23.7.7 0 0 0 .52-.22l2-2a.74.74 0 0 0 .23-.5Z"/>
</svg>
