<svg xmlns="http://www.w3.org/2000/svg" width="24" height="25" fill="currentColor" viewBox="0 0 24 25">
  <path d="M9.33 5.807a.76.76 0 0 1-.75-.75v-2a.75.75 0 0 1 1.5 0v2a.75.75 0 0 1-.75.75Zm-3.16-.75v-2a.75.75 0 1 0-1.5 0v2a.75.75 0 0 0 1.5 0Zm7.83.09v-2a.75.75 0 1 0-1.5 0v2a.75.75 0 1 0 1.5 0Zm3 5a1.365 1.365 0 0 0-.29 0A4.08 4.08 0 0 0 13 7.597H5.68a4.09 4.09 0 0 0-4.09 4.11v.81h15.49v-.81a3.84 3.84 0 0 1 0 7.67v-.11a1.896 1.896 0 0 0 0-.25v-5H1.59v5a4.1 4.1 0 0 0 4.09 4.1H13a4.08 4.08 0 0 0 3.67-2.31c.082.028.165.051.25.07h.18a5.34 5.34 0 0 0 0-10.67l-.1-.06Z"/>
</svg>
