<svg xmlns="http://www.w3.org/2000/svg" width="24" height="25" fill="currentColor" viewBox="0 0 24 25">
  <path d="M8.48 10.706c-.01-.12-.01-.24 0-.36a3.6 3.6 0 0 1 7.2 0c.01.12.01.24 0 .36-.023.343-.097.68-.22 1-.05.13-.12.24-.18.36s-.07.14-.11.2a2.69 2.69 0 0 1-.25.34c-.034.05-.07.096-.11.14a3.324 3.324 0 0 1-.33.32l-.09.08a4.31 4.31 0 0 1-.41.3c-.4.24-.84.399-1.3.47a3.42 3.42 0 0 1-.56.06 3.496 3.496 0 0 1-.65-.07h-.2a3.042 3.042 0 0 1-.43-.13l-.2-.08c-.14-.07-.28-.14-.41-.22l-.23-.16a4.92 4.92 0 0 1-.44-.36l-.19-.25-.21-.25a2.321 2.321 0 0 1-.16-.22 2.194 2.194 0 0 1-.15-.26 3.59 3.59 0 0 1-.37-1.27Zm4.72 4.07a4.387 4.387 0 0 1-1.16.17 4.63 4.63 0 0 1-4.26-2.88 3.59 3.59 0 1 0 5.46 3.07 2.203 2.203 0 0 0-.04-.35v-.01Zm8.76-7v9.93a5 5 0 0 1-5 5H7.05a5 5 0 0 1-5-5v-9.95a5 5 0 0 1 5-5H17a5 5 0 0 1 5 5l-.04.02ZM19 15.146a4.58 4.58 0 0 0-2.47-4 4.61 4.61 0 1 0-9 0 4.594 4.594 0 0 0 4.52 8c.72.45 1.551.69 2.4.69a4.6 4.6 0 0 0 4.55-4.69Zm-2.7-3.07a4.61 4.61 0 0 1-2.13 2.33c.044.245.067.492.07.74a4.58 4.58 0 0 1-1.33 3.23c.474.241.998.368 1.53.37a3.59 3.59 0 0 0 1.86-6.67Z"/>
</svg>
