<svg xmlns="http://www.w3.org/2000/svg" width="24" height="25" fill="currentColor" viewBox="0 0 24 25">
  <path d="M22 6.387v6.63a3.69 3.69 0 0 1-3.68 3.69h-.82v-4.31a5.2 5.2 0 0 0-5.19-5.19H8v-.82a3.69 3.69 0 0 1 3.69-3.68h6.63A3.68 3.68 0 0 1 22 6.387Zm-6 6v6.63a3.69 3.69 0 0 1-3.69 3.69H5.68A3.68 3.68 0 0 1 2 19.026v-6.63a3.69 3.69 0 0 1 3.68-3.69h6.63a3.69 3.69 0 0 1 3.69 3.69v-.01Zm-3.16.77a.75.75 0 0 0-1.06 0l-3.17 3.05-1.24-1.27a.75.75 0 0 0-1.07 1l1.76 1.8a.76.76 0 0 0 1.06 0l3.7-3.57a.75.75 0 0 0 .02-1v-.01Z"/>
</svg>
