<svg xmlns="http://www.w3.org/2000/svg" width="24" height="25" fill="currentColor" viewBox="0 0 24 25">
  <path d="M21 8.297h-1.76a.94.94 0 0 0-.94.93v2.27h-1.55l-.64-2.36a1.29 1.29 0 0 0-.23-.43 1.37 1.37 0 0 0-.45-.41l-.43-.29a1.91 1.91 0 0 0 1.65-1.89v-.06H18a.71.71 0 1 0 0-1.41h-1.44a1.9 1.9 0 0 0-3.63 0 1.81 1.81 0 0 0-.1.58v.89c0 .355.104.703.3 1a1.33 1.33 0 0 0-.4 0 1.39 1.39 0 0 0-.86.66L9 12.957l-.11.12-1.08 1.05-5.39 5.4a1.22 1.22 0 0 0-.37.89 1.26 1.26 0 0 0 1.27 1.29 1.242 1.242 0 0 0 .89-.37l5.65-5.63 1.88 1.42-2.85 2.81a1.29 1.29 0 0 0 0 1.8 1.26 1.26 0 0 0 .9.37 1.242 1.242 0 0 0 .89-.37l3.87-3.87a1.26 1.26 0 0 0 .37-.9 1.239 1.239 0 0 0-.37-.89l-1.26-1.27 1.18-2v.18c.038.199.12.386.24.55a1 1 0 0 0 .33.29h.07c.042.03.09.05.14.06l.15.05h3.8a1.26 1.26 0 0 0 1.26-1.27v-.06H21a.93.93 0 0 0 .93-.93v-2.45a.93.93 0 0 0-.93-.93Zm-1 3.51.08.05-.08-.05ZM2 9.647a.75.75 0 0 1 .75-.75H8.5a.72.72 0 0 1 .75.75.74.74 0 0 1-.74.75H2.75a.75.75 0 0 1-.75-.75Zm2.9-2.82a.75.75 0 0 1 .74-.76h2.85a.75.75 0 0 1 .75.74.74.74 0 0 1-.74.76H5.65a.75.75 0 0 1-.77-.74h.02Z"/>
</svg>
