<svg xmlns="http://www.w3.org/2000/svg" width="24" height="25" fill="currentColor" viewBox="0 0 24 25">
  <path d="M16.13 12.397a1.08 1.08 0 0 1-1.08 1.08H11.9v1.81l1.1 1.85a3.71 3.71 0 0 1 .5 1.89v2.58a1.08 1.08 0 1 1-2.16 0v-2a3.71 3.71 0 0 0-.54-1.9l-1.2-2.08v2.41a3.91 3.91 0 0 1-.33 1.54l-1.12 2.47a1.094 1.094 0 1 1-2-.89l.95-2.05a3.71 3.71 0 0 0 .33-1.54v-8.72a1.5 1.5 0 0 1 1.5-1.5h1.47a1.5 1.5 0 0 1 1.5 1.5l.6 2.47h2.55a1.08 1.08 0 0 1 1.08 1.08Zm.75-6H14a1 1 0 0 0-1 1v2a1 1 0 0 0 1 1h2.93a1 1 0 0 0 1-1v-2a1.002 1.002 0 0 0-1.05-1Zm-7.2.95a1.86 1.86 0 0 0 1.85-1.86v-.09H13a.72.72 0 0 0 .69-.75.73.73 0 0 0-.69-.75h-1.6a1.85 1.85 0 0 0-3.4 0 1.93 1.93 0 0 0-.13.69v.9a1.86 1.86 0 0 0 1.81 1.86Z"/>
</svg>
