<svg xmlns="http://www.w3.org/2000/svg" width="24" height="25" fill="currentColor" viewBox="0 0 24 25">
  <path d="M16.05 2.707H8a6 6 0 0 0-6 6v8.1a6 6 0 0 0 6 5.9h8.1a6 6 0 0 0 5.9-5.95v-8.05a6 6 0 0 0-5.95-6Zm-4.73 15.33a1 1 0 0 1-1.45.84l-3.55-2.05a1 1 0 0 1-.48-.84v-4.1a1 1 0 0 1 1.45-.84l3.55 2.05a1 1 0 0 1 .48.84v4.1Zm.28-5.72L8 10.267a.999.999 0 0 1 0-1.67l3.54-2.06a.94.94 0 0 1 1 0l3.56 2a1 1 0 0 1 0 1.67l-3.53 2.1a.999.999 0 0 1-.97.01Zm6.56 3.67a1 1 0 0 1-.48.84l-3.55 2.05a1 1 0 0 1-1.45-.84v-4.1a1 1 0 0 1 .48-.84l3.55-2.05a1 1 0 0 1 1.45.84v4.1Z"/>
</svg>
