<svg xmlns="http://www.w3.org/2000/svg" width="24" height="25" fill="currentColor" viewBox="0 0 24 25">
  <path d="M11.25 22.896a4.148 4.148 0 0 1-1.34-.48l-5.24-3a4.18 4.18 0 0 1-2.09-3.61v-6.1a4.24 4.24 0 0 1 .21-1.28l7.89 4.43a1.11 1.11 0 0 1 .57 1v9.04Zm.2-11.32a1.09 1.09 0 0 0 1.09 0l7.9-4.52a4.202 4.202 0 0 0-1.11-.94l-5.24-3a4.16 4.16 0 0 0-4.18 0l-5.24 3a4.2 4.2 0 0 0-1.17 1l7.95 4.46Zm1.86 1.28a1.11 1.11 0 0 0-.56 1v9.07a4.15 4.15 0 0 0 1.34-.48l5.24-3a4.18 4.18 0 0 0 2.09-3.61v-6.13a4.142 4.142 0 0 0-.24-1.36l-7.87 4.51Z"/>
</svg>
