<svg xmlns="http://www.w3.org/2000/svg" width="24" height="25" fill="currentColor" viewBox="0 0 24 25">
  <path d="M19.32 5.377a.52.52 0 0 0-.52.53v.36a.52.52 0 0 0 .52.53 1.29 1.29 0 0 1 1.25 1.31 5 5 0 0 1-4.6 5 14.05 14.05 0 0 0 2.36-8.4 1.82 1.82 0 0 0-1.71-1.9H7.41a1.82 1.82 0 0 0-1.71 1.9 14.21 14.21 0 0 0 2.51 8.42 5 5 0 0 1-4.83-5 1.3 1.3 0 0 1 1.25-1.33.56.56 0 0 0 .56-.57v-.26a.57.57 0 0 0-.55-.59A2.67 2.67 0 0 0 2 8.047a6.39 6.39 0 0 0 6.26 6.53h1.46c.193.147.401.274.62.38a.9.9 0 0 1 .46 1 20.56 20.56 0 0 1-2.08 5.36.9.9 0 0 0 .28 1.24.89.89 0 0 0 .42.12h5.28a.789.789 0 0 0 .88-.69.88.88 0 0 0-.12-.55 28.998 28.998 0 0 1-1.84-5.61.89.89 0 0 1 .41-.95c.16-.078.31-.172.45-.28h1.18A6.379 6.379 0 0 0 22 8.117a2.67 2.67 0 0 0-2.68-2.74Z"/>
</svg>
