<svg xmlns="http://www.w3.org/2000/svg" width="24" height="25" fill="currentColor" viewBox="0 0 24 25">
  <path d="M8.23 15.396H15a3.94 3.94 0 0 1-3.12 1.57H8.23v-1.57Zm3.44-6.95H8.23v1.45h6.54a4.07 4.07 0 0 0-3.1-1.45ZM22 12.707a10 10 0 1 1-20 0 10 10 0 0 1 20 0Zm-4.84-1.31H18a.75.75 0 1 0 0-1.5h-1.39a5.64 5.64 0 0 0-4.94-2.95H7.48a.76.76 0 0 0-.75.76v2.2H6a.75.75 0 0 0 0 1.5h.75v2.5H6a.75.75 0 0 0 0 1.5h.75v2.3a.76.76 0 0 0 .75.75h4.38a5.44 5.44 0 0 0 4.88-3.07H18a.75.75 0 1 0 0-1.5h-.81c.052-.286.08-.578.08-.87v-.45a5.688 5.688 0 0 0-.11-1.17Zm-8.93 0v2.5h7.46a4.14 4.14 0 0 0 .1-.87v-.45a4.11 4.11 0 0 0-.19-1.18H8.23Z"/>
</svg>
