<svg xmlns="http://www.w3.org/2000/svg" width="24" height="25" fill="currentColor" viewBox="0 0 24 25">
  <path d="M16 6.457a1.28 1.28 0 0 0 1.29 1.25h3.42A1.29 1.29 0 0 0 22 6.417v-1.42a1.29 1.29 0 0 0-1.29-1.29h-3.42A1.28 1.28 0 0 0 16 4.957H9v-.17a2.08 2.08 0 0 0-2.08-2.08H4.08A2.08 2.08 0 0 0 2 4.787v1.84a2.08 2.08 0 0 0 2.08 2.08h2.84A2.08 2.08 0 0 0 9 6.627v-.17h2.75v12.07a2.93 2.93 0 0 0 2.93 2.93H16a1.28 1.28 0 0 0 1.29 1.25h3.42a1.29 1.29 0 0 0 1.29-1.29v-1.42a1.29 1.29 0 0 0-1.29-1.29h-3.42a1.28 1.28 0 0 0-1.29 1.25h-1.32a1.43 1.43 0 0 1-1.43-1.43v-4.57H16a1.28 1.28 0 0 0 1.28 1.25h3.42a1.287 1.287 0 0 0 1.3-1.29v-1.42a1.29 1.29 0 0 0-1.29-1.29h-3.42a1.28 1.28 0 0 0-1.29 1.25h-2.75v-6H16Z"/>
</svg>
