<svg xmlns="http://www.w3.org/2000/svg" width="24" height="25" fill="currentColor" viewBox="0 0 24 25">
  <path d="M16.76 6.917h-2.94a2.61 2.61 0 0 1-2.41-1.6l-.33-.83a2.6 2.6 0 0 0-2.41-1.6h-2a4.52 4.52 0 0 0-4.53 4.48v10a5.22 5.22 0 0 0 5.22 5.14h9.4a5.22 5.22 0 0 0 5.24-5.19v-5.23a5.21 5.21 0 0 0-5.24-5.17Zm-2.45 9a.728.728 0 0 1-.52.22.67.67 0 0 1-.48-.2l-1.13-1.05-1 1.13a.74.74 0 0 1-.52.22.71.71 0 0 1-.7-.72.74.74 0 0 1 .18-.44l1.06-1.12-1.2-1.09a.71.71 0 0 1 0-1 .72.72 0 0 1 1 0l1.13 1.06 1.06-1.12a.718.718 0 0 1 1-.2.691.691 0 0 1 .21 1 .659.659 0 0 1-.16.17l-1.07 1.12 1.13 1.07a.69.69 0 0 1 .01.93v.02Z"/>
</svg>
