<svg xmlns="http://www.w3.org/2000/svg" width="24" height="25" fill="currentColor" viewBox="0 0 24 25">
  <path d="M22.94 10.027h-4.72a3.368 3.368 0 0 1-3.29-3.45.565.565 0 0 0 0-.13v-4.74l8.01 8.32Zm0 1.52h-4.72a4.9 4.9 0 0 1-4.78-5v-4.84H8.53a5.65 5.65 0 0 0-5.62 5.62v7.23a5.362 5.362 0 0 1 2.09-.44 5.512 5.512 0 0 1 5.5 5.52 5.71 5.71 0 0 1-.32 1.88h7.14a5.649 5.649 0 0 0 5.68-5.62l-.06-4.35ZM9 19.706a4 4 0 1 1-8 0 4 4 0 0 1 8 0Zm-1.76 0a.75.75 0 0 0-.74-.78h-3a.78.78 0 0 0-.7 1.05.75.75 0 0 0 .69.48h3a.74.74 0 0 0 .75-.75Z"/>
</svg>
