<svg xmlns="http://www.w3.org/2000/svg" width="24" height="25" fill="currentColor" viewBox="0 0 24 25">
  <path d="m21.6 14.337-6.52 6.65a3.68 3.68 0 0 1-1.2.77c-.397.1-.813.1-1.21 0 0 0-5.64-1.43-6-1.23a3.911 3.911 0 0 0-.73.62 1.29 1.29 0 0 1-1.8 0l-1.78-1.7a1.29 1.29 0 0 1 0-1.82c.78-.82 1.93-2 2.87-3.09a2.9 2.9 0 0 1 2.52-1.14c.123-.014.247-.014.37 0l5.78 1.48a1.499 1.499 0 0 1 1.07 1.88 1.308 1.308 0 0 1-1.64 1l-2.44-.62a.728.728 0 0 0-.957.808.73.73 0 0 0 .597.602l2.44.63a2.81 2.81 0 0 0 3.42-2.03 3 3 0 0 0-.15-1.91l4.13-2.95a1.2 1.2 0 0 1 1.48.26c.57.75-.25 1.79-.25 1.79Zm-5.85-10.74h-1.28v2a1.21 1.21 0 0 1-1.21 1.21h-.78a1.21 1.21 0 0 1-1.21-1.21v-2H10a1.59 1.59 0 0 0-1.59 1.59v5a1.59 1.59 0 0 0 1.59 1.58h5.76a1.59 1.59 0 0 0 1.58-1.59v-5a1.59 1.59 0 0 0-1.59-1.58Z"/>
</svg>
