<svg xmlns="http://www.w3.org/2000/svg" width="24" height="25" fill="currentColor" viewBox="0 0 24 25">
  <path d="m16.2 8.086 1-.27a1.11 1.11 0 0 1 1.37.76l1.22 4.28a1.109 1.109 0 0 1-.79 1.36l-4.49 1.27a1.09 1.09 0 0 1-1.36-.78l-1.22-4.26a1.1 1.1 0 0 1 .74-1.36l1-.29.48 1.68a.73.73 0 0 0 .88.49l1.11-.26a.71.71 0 0 0 .49-.88l-.48-1.68.05-.06Zm-4.9 13.13h-.23a2.23 2.23 0 1 1 .23 0Zm-.12-1.51a.82.82 0 0 0 0-1.63.82.82 0 0 0 0 1.63Zm10.82-4a.75.75 0 0 0-.92-.51l-6.2 1.72a.74.74 0 0 0-.252 1.306c.13.1.288.154.452.154h.2l6.2-1.72a.75.75 0 0 0 .52-.95Zm-2.18 5.49H7.49a.75.75 0 0 0-.523 1.274.74.74 0 0 0 .523.216h12.32a.74.74 0 0 0 .74-.74.75.75 0 0 0-.74-.73l.01-.02ZM6.83 4.626l2.89 10.41a.75.75 0 0 0 .72.55h.2a.74.74 0 0 0 .51-.91L8.07 3.516a.75.75 0 0 0-.92-.52l-1.31.36a.86.86 0 0 0-.67-.1l-2.51.63A.89.89 0 0 0 2 4.966l.07.24a.88.88 0 0 0 1.07.65l2.51-.64a.85.85 0 0 0 .55-.42l.63-.17Zm4.56 3.88a.912.912 0 0 0 1.13.62h.15l2.24-.63-1.22.34 2.44-.7h.06a.91.91 0 0 0 .62-1.12l-1-3.59a.91.91 0 0 0-1.13-.72l-.84.23.41 1.41a.61.61 0 0 1-.41.73l-.84.29a.58.58 0 0 1-.72-.41l-.4-1.4-.88.23a.91.91 0 0 0-.63 1.13l1.02 3.59Z"/>
</svg>
