<svg xmlns="http://www.w3.org/2000/svg" width="24" height="25" fill="currentColor" viewBox="0 0 24 25">
  <path d="M9.87 20.706a2 2 0 1 1-4 0 2 2 0 0 1 4 0Zm6-2a2 2 0 1 0 0 4 2 2 0 0 0 0-4Zm2-5v-3a1 1 0 0 1 1-1h1.43L19 7.187a2.77 2.77 0 0 0-2.5-1.48h-.32a6.25 6.25 0 1 1-11.65 0 2.78 2.78 0 0 0-2.66 2.78v9.44a2.78 2.78 0 0 0 2.78 2.78h.22a3 3 0 0 1 6 0h2a3 3 0 0 1 6 0h.48a2.78 2.78 0 0 0 2.78-2.78v-3.22h-3.27a1 1 0 0 1-.99-1Zm-2.26-5.75a5.25 5.25 0 1 1-10.5 0 5.25 5.25 0 0 1 10.5 0Zm-4.5-2.31a.75.75 0 1 0-1.5 0v1.85l-1.49 1.21a.76.76 0 0 0-.12 1 .77.77 0 0 0 .59.28.72.72 0 0 0 .46-.16l1.77-1.41a.75.75 0 0 0 .29-.59v-2.18Z"/>
</svg>
