<svg xmlns="http://www.w3.org/2000/svg" width="24" height="25" fill="currentColor" viewBox="0 0 24 25">
  <path d="M10.11 20.917a1.78 1.78 0 1 1-3.56 0 1.78 1.78 0 0 1 3.56 0Zm5.34-1.78a1.78 1.78 0 1 0 0 3.56 1.78 1.78 0 0 0 0-3.56Zm.28-11.36a5.06 5.06 0 0 1-1.28 3.38l-2.58 2.88a1.622 1.622 0 0 1-2.4 0l-2.57-2.88a5.06 5.06 0 1 1 8.83-3.38Zm-3.16 0a1.9 1.9 0 1 0-3.8.06 1.9 1.9 0 0 0 3.8-.06Zm-6.25 2.59Zm-.64-1.76Zm3.79 5.43-2.57-2.88 2.57 2.88Zm-3.85-6.47Zm5.34 7a1.62 1.62 0 0 1-.62 0h.33c.11.003.222-.007.33-.03l-.04.03Zm6.27.16v-2.72a.88.88 0 0 1 .88-.88h1.27l-1.19-2.24a2.45 2.45 0 0 0-1.46-1.18v.09a6 6 0 0 1-1.54 4l-2.57 2.91a2.609 2.609 0 0 1-1.95.87 2.57 2.57 0 0 1-1.94-.87l-2.58-2.89a6 6 0 0 1-1.54-4.11A2.48 2.48 0 0 0 3 10.047v8.4a2.48 2.48 0 0 0 2.47 2.47h.09a2.78 2.78 0 0 1 5.56 0h1.56a2.78 2.78 0 0 1 5.56 0h.31a2.48 2.48 0 0 0 2.45-2.47v-2.87h-2.9a.87.87 0 0 1-.87-.87v.02Zm-1.5-6.92a5.101 5.101 0 0 1 0-.03v.03Zm-.73 2.62c-.153.26-.33.504-.53.73l-1.22 1.36 1.22-1.36c.2-.226.377-.47.53-.73Z"/>
</svg>
