<svg xmlns="http://www.w3.org/2000/svg" width="24" height="25" fill="currentColor" viewBox="0 0 24 25">
  <path d="M4.46 9.017a1.16 1.16 0 0 1 1 .5l1.83 2.69c.046.136.08.277.1.42a.85.85 0 0 1-.15.49s-.68.8-.89 1a.35.35 0 0 0-.08.43 13.24 13.24 0 0 0 3.73 3.75.38.38 0 0 0 .46-.09 12.97 12.97 0 0 1 1-.89 1 1 0 0 1 .9-.05l2.71 1.85c.14.134.267.282.38.44a2.24 2.24 0 0 1-1.27 2.5c-1.54.9-3 .57-5.22-.68a16.72 16.72 0 0 1-6.08-6.31c-1.32-2.59-1.09-4.25.17-5.42a2.15 2.15 0 0 1 1.41-.63Zm12.26 2.26v-1.29l-.93 1.29h.93Zm-3.39-8.43a8.68 8.68 0 0 0-8 5.32c.395.174.74.446 1 .79l1.82 2.69.07.11.05.13c.064.202.111.41.14.62.03.427-.09.851-.34 1.2 0 .06-.34.41-.6.71a13.3 13.3 0 0 0 2.71 2.7 9.47 9.47 0 0 1 .77-.66 1.75 1.75 0 0 1 1-.33c.292 0 .58.057.85.17h.09l.07.05 2.71 1.86h.06v.05c.203.188.385.4.54.63.1.172.165.362.19.56a8.66 8.66 0 0 0-3.13-16.6Zm.06 10.67a.27.27 0 0 1-.27.27H9.79a.27.27 0 0 1-.27-.27v-.43c0-.072.03-.14.08-.19l.55-.54c1.31-1.25 1.85-1.88 1.85-2.54a.66.66 0 0 0-.75-.75 1.54 1.54 0 0 0-.95.38.27.27 0 0 1-.23 0 .23.23 0 0 1-.18-.15l-.22-.49a.26.26 0 0 1 .07-.32 2.56 2.56 0 0 1 1.65-.59 1.72 1.72 0 0 1 1.87 1.81c0 1.08-.78 1.94-1.82 2.94h1.68a.27.27 0 0 1 .27.27v.6Zm5.26-1.42a.27.27 0 0 1-.27.27h-.46v1.15a.27.27 0 0 1-.27.27H17a.27.27 0 0 1-.27-.27v-1.15h-2.17a.27.27 0 0 1-.26-.27v-.46a.29.29 0 0 1 0-.16l2.33-3.33a.27.27 0 0 1 .22-.11h.76a.27.27 0 0 1 .27.27v3h.46a.27.27 0 0 1 .27.27l.04.52Z"/>
</svg>
