<svg xmlns="http://www.w3.org/2000/svg" width="24" height="25" fill="currentColor" viewBox="0 0 24 25">
  <path d="M13.19 14.707H1.87v-8.12a3.88 3.88 0 0 1 3.88-3.88h7.44a1.68 1.68 0 0 1 1.68 1.68v8.64a1.681 1.681 0 0 1-1.68 1.68Zm-5.32 4a2 2 0 1 0 0 3.999 2 2 0 0 0 0-4Zm8 0a2 2 0 1 0 0 3.999 2 2 0 0 0 0-4Zm2-5v-3a1 1 0 0 1 1-1h1.43L19 7.187a2.77 2.77 0 0 0-2.5-1.48h-.63v7.32a2.68 2.68 0 0 1-2.68 2.68H1.87v2.22a2.78 2.78 0 0 0 2.78 2.78h.22a3 3 0 0 1 6 0h2a3 3 0 0 1 6 0h.48a2.78 2.78 0 0 0 2.78-2.78v-3.22h-3.27a1 1 0 0 1-.99-1Z"/>
</svg>
