<svg xmlns="http://www.w3.org/2000/svg" width="24" height="25" fill="currentColor" viewBox="0 0 24 25">
  <path d="M13 18.706h-3v-3a1 1 0 0 1 1-1h3v3a1 1 0 0 1-1 1Zm-10 0a1 1 0 0 0-1 1v2a1 1 0 0 0 1 1h6a1 1 0 0 0 1-1v-3H3Zm15-5v-3h-3a1 1 0 0 0-1 1v3h3a1 1 0 0 0 1-1Zm3-11h-2a1 1 0 0 0-1 1v7h3a1 1 0 0 0 1-1v-6a1 1 0 0 0-1-1Zm-4 13.5h-1.5v1.5a2.56 2.56 0 0 1-.21 1H17a1 1 0 0 0 1-1v-1.71a2.558 2.558 0 0 1-1 .21Zm4-4h-1.5v1.5a2.56 2.56 0 0 1-.21 1H21a1 1 0 0 0 1-1v-1.71a2.558 2.558 0 0 1-1 .21Zm-8 8h-1.5v1.5a2.56 2.56 0 0 1-.21 1H13a1 1 0 0 0 1-1v-1.71a2.558 2.558 0 0 1-1 .21Zm-4.5-3v-1.5a2.5 2.5 0 0 1 2.5-2.5h1.5v-1.5a2.5 2.5 0 0 1 2.5-2.5h1.5v-4.5H8.67A4.67 4.67 0 0 0 4 9.377v7.83h4.5Z"/>
</svg>
