<svg xmlns="http://www.w3.org/2000/svg" width="24" height="25" fill="currentColor" viewBox="0 0 24 25">
  <path d="m19.86 7.937-3.37-3.75a4.45 4.45 0 0 0-3.32-1.48H7.46A4.46 4.46 0 0 0 3 7.167v11.08a4.46 4.46 0 0 0 4.46 4.46h9.08a4.46 4.46 0 0 0 4.46-4.46v-7.33a4.49 4.49 0 0 0-1.14-2.98Zm-9.79 10.22A.756.756 0 1 1 9 19.227l-2-2a.75.75 0 0 1 0-1.06l2-2a.751.751 0 1 1 1.06 1.06l-1.46 1.48 1.47 1.45Zm6.93-.93-2 2a.75.75 0 1 1-1.05-1.07l1.45-1.45-1.48-1.47a.758.758 0 0 1 .005-1.075.761.761 0 0 1 1.075.004l2 2a.75.75 0 0 1 0 1.06Z"/>
</svg>
