<svg xmlns="http://www.w3.org/2000/svg" width="24" height="25" fill="currentColor" viewBox="0 0 24 25">
  <path d="M17 22.706H7a4 4 0 0 1-4-4v-3.38a3.32 3.32 0 0 1 3.25-3.32h.81a3.379 3.379 0 0 1 2.58 1.2l.29.35a2.69 2.69 0 0 0 4.12 0l.29-.35a3.38 3.38 0 0 1 2.58-1.2h.83a3.32 3.32 0 0 1 3.32 3.32v3.38a4.001 4.001 0 0 1-4.07 4ZM4.79 11.276v-5.4A3.17 3.17 0 0 1 8 2.706h8.1a3.17 3.17 0 0 1 3.17 3.17v5.41a4.28 4.28 0 0 0-1.48-.28h-.83a4.35 4.35 0 0 0-3.34 1.56l-.29.35a1.72 1.72 0 0 1-1.3.6 1.679 1.679 0 0 1-1.29-.6l-.3-.36a4.38 4.38 0 0 0-3.38-1.55h-.81a4.45 4.45 0 0 0-1.46.27ZM14 9.916a.75.75 0 0 0-.75-.75h-2.6a.75.75 0 1 0 0 1.5h2.58a.75.75 0 0 0 .77-.75Zm-5-2.79a.76.76 0 0 0 .75.75h4.5a.75.75 0 1 0 0-1.5h-4.5a.76.76 0 0 0-.75.75Z"/>
</svg>
