<svg xmlns="http://www.w3.org/2000/svg" width="24" height="25" fill="currentColor" viewBox="0 0 24 25">
  <path d="m21.28 11.257-1.39-1.4a1 1 0 0 1-.3-.72v-2a2.05 2.05 0 0 0-2.05-2h-2a1 1 0 0 1-.72-.3l-1.4-1.39a2 2 0 0 0-2.9 0l-1.37 1.37a1 1 0 0 1-.72.3h-2a2.05 2.05 0 0 0-2 2.05v2a1 1 0 0 1-.3.72l-1.39 1.4a2.001 2.001 0 0 0 0 2.9l1.39 1.4a1 1 0 0 1 .3.72v2a2.05 2.05 0 0 0 2.05 2.05h2a1 1 0 0 1 .72.3l1.4 1.39a1.999 1.999 0 0 0 2.9 0l1.4-1.39a1.002 1.002 0 0 1 .72-.3h2a2.05 2.05 0 0 0 2.05-2.05v-2a1 1 0 0 1 .3-.72l1.39-1.4a2 2 0 0 0-.08-2.93ZM9 8.707a1 1 0 1 1 0 2 1 1 0 0 1 0-2Zm.53 7.53a.74.74 0 0 1-.53.22.71.71 0 0 1-.53-.22.75.75 0 0 1 0-1.06l6-6a.75.75 0 0 1 1.06 1.06l-6 6Zm5.47.47a1 1 0 1 1 0-2 1 1 0 0 1 0 2Z"/>
</svg>
