<svg xmlns="http://www.w3.org/2000/svg" width="24" height="25" fill="currentColor" viewBox="0 0 24 25">
  <path d="m4 14.326 2.62-2.62a.51.51 0 0 1 .38-.17.5.5 0 0 1 .35.15l.72.72a.5.5 0 0 1 0 .7l-2.8 2.8a2.5 2.5 0 0 0 .3 3.8 2.61 2.61 0 0 0 3.31-.35l2.72-2.65a.5.5 0 0 1 .7 0l.72.72a.498.498 0 0 1 0 .71l-2.8 2.79a4.52 4.52 0 0 1-6.69-.33 4.67 4.67 0 0 1 .47-6.27Zm12.55-.46a.51.51 0 0 0 .71 0l2.74-2.78a4.67 4.67 0 0 0 .45-6.22 4.44 4.44 0 0 0-3.28-1.65 4.51 4.51 0 0 0-3.42 1.32l-2.91 2.93a.51.51 0 0 0-.15.35.53.53 0 0 0 .15.36l.72.72a.5.5 0 0 0 .7 0l2.86-2.86a2.71 2.71 0 0 1 1.88-.79 2.4 2.4 0 0 1 1.43.46 2.501 2.501 0 0 1 .32 3.82l-2.94 2.94a.5.5 0 0 0 0 .7l.74.7Zm-10.48-5.4a.75.75 0 0 0-.49-.94l-2.1-.66a.74.74 0 0 0-.94.49.76.76 0 0 0 .46.94l2.1.66a.83.83 0 0 0 .22 0 .76.76 0 0 0 .75-.49Zm2.49-2.45a.76.76 0 0 0 .64-.85L9 3.706a.76.76 0 0 0-1.127-.547.74.74 0 0 0-.363.747l.2 1.44a.75.75 0 0 0 .74.64l.11.03Zm7.85 15.42a.76.76 0 0 0 .58-.89l-.44-2.15a.77.77 0 0 0-.89-.58.738.738 0 0 0-.58.89l.44 2.15a.75.75 0 0 0 .73.59l.16-.01Zm4.51-4.8a.76.76 0 0 0-.55-.91l-1.37-.34a.75.75 0 1 0-.36 1.45l1.4.35c.06.01.12.01.18 0a.75.75 0 0 0 .7-.55Z"/>
</svg>
