<svg xmlns="http://www.w3.org/2000/svg" width="24" height="25" fill="currentColor" viewBox="0 0 24 25">
  <path d="M12 2.646a10.06 10.06 0 1 0 10.06 10.06A10.07 10.07 0 0 0 12 2.646Zm-6.35 8.86a.69.69 0 0 1-.67.57h-.13a.68.68 0 0 1-.55-.79 7.8 7.8 0 0 1 5.44-6.09.7.7 0 0 1 .42 1.33 6.44 6.44 0 0 0-4.51 4.98Zm3 1.2a3.33 3.33 0 1 1 3.35 3.33 3.33 3.33 0 0 1-3.33-3.33h-.02Zm5.84 7.43a.81.81 0 0 1-.22 0 .69.69 0 0 1-.22-1.35 6.52 6.52 0 0 0 4.2-4.53.69.69 0 0 1 1.33.34 7.84 7.84 0 0 1-5.07 5.54h-.02Z"/>
</svg>
