<svg xmlns="http://www.w3.org/2000/svg" width="24" height="25" fill="currentColor" viewBox="0 0 24 25">
  <path d="M12.636 3.096a.9.9 0 0 0-1.272 0l-3.89 3.89a.9.9 0 0 0 1.273 1.272l2.318-2.317v8.791a.9.9 0 1 0 1.8 0V5.87l2.388 2.388a.9.9 0 0 0 1.273-1.273l-3.89-3.889Z"/>
  <path fill-rule="evenodd" d="M8.448 14.732H3.5a1.5 1.5 0 0 0-1.5 1.5v5a1.5 1.5 0 0 0 1.5 1.5h17a1.5 1.5 0 0 0 1.5-1.5v-5a1.5 1.5 0 0 0-1.5-1.5h-5.055a3.5 3.5 0 0 1-6.997 0Zm10.944 4.5a1.892 1.892 0 1 1-3.784 0 1.892 1.892 0 0 1 3.784 0Z" clip-rule="evenodd"/>
</svg>
