<svg xmlns="http://www.w3.org/2000/svg" width="24" height="25" fill="currentColor" viewBox="0 0 24 25">
  <path d="M12.92 2.414a1.4 1.4 0 0 0-1.4 1.4v3.6H9.39a4.93 4.93 0 1 0 0 9.86h3.53a1.4 1.4 0 0 0 1.4-1.4V3.814a1.4 1.4 0 0 0-1.4-1.4Zm-5.66 9.89a2.13 2.13 0 0 1 2.13-2.13h2.13v4.24H9.39a2.13 2.13 0 0 1-2.13-2.11Zm8 10.11a1.4 1.4 0 0 1-1.32-.95 1.38 1.38 0 0 1 .87-1.77 2.83 2.83 0 0 0 2-2.68v-9a1.4 1.4 0 1 1 2.8 0v9a5.64 5.64 0 0 1-3.86 5.34 1.191 1.191 0 0 1-.52.06h.03Zm4.3-18.6a1.39 1.39 0 1 1-1.42-1.4 1.39 1.39 0 0 1 1.39 1.4h.03Z"/>
</svg>
