<svg xmlns="http://www.w3.org/2000/svg" width="24" height="25" fill="currentColor" viewBox="0 0 24 25">
  <path d="M13.78 14.207a1.171 1.171 0 0 1 .33.86 1.35 1.35 0 0 1-.6 1.12 2.27 2.27 0 0 1-.79.35v-2.89l.28.06c.296.103.563.274.78.5Zm8.22-1.5a10 10 0 1 1-20 0 10 10 0 0 1 20 0Zm-5.76 2.13a2.94 2.94 0 0 0-.24-1.36 2.53 2.53 0 0 0-.8-.92 4.792 4.792 0 0 0-1.24-.62c-.35-.12-.74-.23-1.15-.34v-2.72c.13.042.251.107.36.19.294.262.533.582.7.94.109.22.247.425.41.61a.81.81 0 0 0 .57.18.879.879 0 0 0 .68-.3 1 1 0 0 0 .27-.7 1.859 1.859 0 0 0-.22-.86 2.54 2.54 0 0 0-.69-.85 3.47 3.47 0 0 0-1.19-.65 4.39 4.39 0 0 0-.88-.19v-.54a.75.75 0 0 0-.75-.76.74.74 0 0 0-.77.76v.52a5.24 5.24 0 0 0-1.45.31 3 3 0 0 0-1.4 1.08 2.62 2.62 0 0 0-.45 1.56 2.55 2.55 0 0 0 .42 1.53 3 3 0 0 0 1.23 1 9.075 9.075 0 0 0 1.6.53v3.31a2.082 2.082 0 0 1-.4-.13 1.8 1.8 0 0 1-.67-.57 5.115 5.115 0 0 1-.44-.85 1.681 1.681 0 0 0-.4-.65.84.84 0 0 0-.58-.21.901.901 0 0 0-.69.28.89.89 0 0 0-.28.67c.02.497.179.979.46 1.39a3.51 3.51 0 0 0 1.15 1.15 4.64 4.64 0 0 0 1.81.55v.53a.75.75 0 0 0 1.038.701.742.742 0 0 0 .452-.702v-.53a5.317 5.317 0 0 0 1.57-.37 3.33 3.33 0 0 0 1.46-1.21 3.16 3.16 0 0 0 .51-1.76ZM10 9.976a1 1 0 0 0 .17.56c.135.16.297.296.48.4.2.103.407.19.62.26v-2.4a2 2 0 0 0-.8.3 1.06 1.06 0 0 0-.47.88Z"/>
</svg>
