<svg xmlns="http://www.w3.org/2000/svg" width="24" height="25" fill="currentColor" viewBox="0 0 24 25">
  <path d="M13 7.764a44.403 44.403 0 0 0-2.64-4.35.661.661 0 0 1 .46-1 9.28 9.28 0 0 1 1.18-.09 10.06 10.06 0 0 1 6 2 .639.639 0 0 1 .05 1 16.15 16.15 0 0 1-4.16 2.77.67.67 0 0 1-.89-.33Zm-2 .53a44.566 44.566 0 0 0-2.91-4.59.64.64 0 0 0-.82-.19 10.09 10.09 0 0 0-4.86 5.8.65.65 0 0 0 .6.87 28.27 28.27 0 0 0 7.63-.95.649.649 0 0 0 .36-.94Zm4.5 3.47a15.832 15.832 0 0 1 5.7.17.66.66 0 0 0 .79-.73 10 10 0 0 0-1.59-4.38.65.65 0 0 0-1-.08 17.76 17.76 0 0 1-4.58 3.09.65.65 0 0 0-.32.86l.32.69a.64.64 0 0 0 .71.38h-.03Zm-2.75 0-.18-.39a.66.66 0 0 0-.78-.34 29.08 29.08 0 0 1-8.42 1.2H2.6a.65.65 0 0 0-.66.67c.027.673.117 1.343.27 2a10.179 10.179 0 0 0 1.62 3.41.66.66 0 0 0 1.06 0 18.41 18.41 0 0 1 7.52-5.74.65.65 0 0 0 .37-.84l-.03.03Zm3.3 2.77c.6 1.686 1.091 3.41 1.47 5.16a.66.66 0 0 0 1.07.37 10.11 10.11 0 0 0 3.19-5.24.67.67 0 0 0-.49-.78 14.512 14.512 0 0 0-4.67-.38.66.66 0 0 0-.54.84l-.03.03Zm-2.84-.12a15.83 15.83 0 0 0-7 5.46.64.64 0 0 0 .15.91 10.11 10.11 0 0 0 9 1.15.66.66 0 0 0 .42-.74 38.459 38.459 0 0 0-1.78-6.4.66.66 0 0 0-.79-.38Z"/>
</svg>
