<svg xmlns="http://www.w3.org/2000/svg" width="24" height="25" fill="currentColor" viewBox="0 0 24 25">
  <path d="M21.25 11.984a.93.93 0 0 1 0 1.51l-4.58 3.43-4.67-3.3 5.8-4.07 3.45 2.43Zm-13.33-9.4a.93.93 0 0 0-1.09 0l-4.1 3a.94.94 0 0 0 0 1.52l3.47 2.45 5.8-4.09-4.08-2.88Zm-5.17 9.4a.93.93 0 0 0 0 1.51l4.58 3.43 4.67-3.3-5.8-4.07-3.45 2.43Zm10.55 2.56 1.94 1.36-1.94-1.36Zm4.28 3.58-.87.65-.89-.63-3.82-2.68-3.82 2.68-.89.63-.87-.65-1.79-1.34v.63a1.87 1.87 0 0 0 .92 1.58l5.56 3.2a1.82 1.82 0 0 0 1.83 0l5.55-3.2a1.82 1.82 0 0 0 .91-1.58v-.6l-1.82 1.31Zm-13-3.22 2.69 2-2.69-2Zm14.77 0-2.7 2 2.7-2Zm1.86-7.78a.94.94 0 0 0 0-1.52l-4.1-3a.93.93 0 0 0-1.09 0L12 5.464l5.8 4.09 3.41-2.43Z"/>
</svg>
