<svg xmlns="http://www.w3.org/2000/svg" width="24" height="25" fill="currentColor" viewBox="0 0 24 25">
  <path d="M16.1 19.257a1.31 1.31 0 0 1-.94 2.23H8.85a1.319 1.319 0 0 1-1-2.22l1-1.05 1.88-2a1.7 1.7 0 0 1 2.46 0l1.89 2 1.02 1.04Zm0-13.1a1.32 1.32 0 0 0-.95-2.23H8.84a1.31 1.31 0 0 0-1 2.22l1 1 1.87 2a1.7 1.7 0 0 0 2.46 0l1.89-2 1.04-.99Zm-13.94 7.12 2.25 3.55a1.13 1.13 0 0 0 1.75.19l3.54-3.62a1.07 1.07 0 0 0 0-1.51l-3.58-3.5a1.11 1.11 0 0 0-1.73.2l-2.23 3.51a1.14 1.14 0 0 0 0 1.18Zm19.67-1.2-2.22-3.51a1.12 1.12 0 0 0-1.73-.2l-3.57 3.5a1.06 1.06 0 0 0 0 1.51l3.53 3.62a1.13 1.13 0 0 0 1.75-.19l2.25-3.55a1.1 1.1 0 0 0-.01-1.18Z"/>
</svg>
