<svg xmlns="http://www.w3.org/2000/svg" width="24" height="25" fill="currentColor" viewBox="0 0 24 25">
  <path d="M17.66 20.654a.69.69 0 0 1-.24 1 10.65 10.65 0 0 1-3.28 1.27 2.37 2.37 0 0 1-2.63-1.31 2.4 2.4 0 0 1-.23-1.03v-4.37a3.08 3.08 0 0 1-2.43-3v-2.32h-.19a1.45 1.45 0 0 1-1.44-1.48 1.44 1.44 0 0 1 1.44-1.47h6.61a1.43 1.43 0 0 1 1.43 1.47 1.44 1.44 0 0 1-1.43 1.44h-.19v2.36a3.08 3.08 0 0 1-2.43 3v4.32a1.001 1.001 0 0 0 .38.79 1 1 0 0 0 .83.2 9.238 9.238 0 0 0 2.86-1.11.69.69 0 0 1 .94.24Zm1.44-16.24a10.61 10.61 0 0 0-8.35-2.66 10.3 10.3 0 0 0-3.21.89.69.69 0 1 0 .58 1.25 8.73 8.73 0 0 1 2.78-.77 9.24 9.24 0 0 1 7.28 2.31 9.35 9.35 0 0 1 3.1 6.98 9.1 9.1 0 0 1-1 4.11.71.71 0 0 0 .32.93.68.68 0 0 0 .92-.32 10.52 10.52 0 0 0 1.14-4.72 10.701 10.701 0 0 0-3.56-8Zm-11.51 15.2A2.48 2.48 0 1 1 3 18.274a10.72 10.72 0 0 1-1.7-7 10.42 10.42 0 0 1 1.4-4.24.69.69 0 1 1 1.18.7 9.14 9.14 0 0 0-1.18 3.68 9.32 9.32 0 0 0 1.39 6 2.46 2.46 0 0 1 3.5 2.25v-.05Zm-1.38 0a1.1 1.1 0 1 0-2.2 0 1.1 1.1 0 0 0 2.2 0Zm4-11.71v-2.86a.691.691 0 0 0-1.178-.488.69.69 0 0 0-.202.488v2.86h1.36s0 .02 0 0h.02Zm5 0v-2.85a.69.69 0 0 0-1.38 0v2.86h1.37s.01.01.01 0v-.01Zm4.2 10.51a.67.67 0 1 0 .66.66.66.66 0 0 0-.66-.66ZM5.4 5.714a.67.67 0 1 0 .02-1.34.67.67 0 0 0-.02 1.34Z"/>
</svg>
