<svg xmlns="http://www.w3.org/2000/svg" width="24" height="25" fill="currentColor" viewBox="0 0 24 25">
  <path d="M9.22 11.207h-5a1.77 1.77 0 0 1-1.72-1.77v-5a1.77 1.77 0 0 1 1.77-1.73h5A1.77 1.77 0 0 1 11 4.477v5a1.77 1.77 0 0 1-1.78 1.73Zm13.28-1.77v-5a1.78 1.78 0 0 0-1.77-1.73h-5A1.78 1.78 0 0 0 14 4.477v5a1.78 1.78 0 0 0 1.77 1.77h5a1.78 1.78 0 0 0 1.73-1.81ZM11 20.937v-5a1.77 1.77 0 0 0-1.78-1.73h-5a1.77 1.77 0 0 0-1.72 1.77v5a1.77 1.77 0 0 0 1.77 1.73h5a1.77 1.77 0 0 0 1.73-1.77Zm3.77-2.48 6.6-.75H19v-2.36a.75.75 0 0 0-1.5 0v2.36h-2.36a.75.75 0 0 0 0 1.5h2.36v2.36a.75.75 0 1 0 1.5 0v-2.36h2.36a.75.75 0 1 0 0-1.5l-6.59.75Z"/>
</svg>
