<svg xmlns="http://www.w3.org/2000/svg" width="24" height="25" fill="currentColor" viewBox="0 0 24 25">
  <path d="M14.5 11.957v8.5a1.75 1.75 0 0 1-1.75 1.75h-1.5a1.75 1.75 0 0 1-1.75-1.75v-8.5a1.75 1.75 0 0 1 1.75-1.75h1.5a1.75 1.75 0 0 1 1.75 1.75Zm5.25-1.75h-1.5a1.75 1.75 0 0 0-1.75 1.75v8.5a1.75 1.75 0 0 0 1.75 1.75h1.5a1.75 1.75 0 0 0 1.75-1.75v-8.5a1.75 1.75 0 0 0-1.75-1.75ZM7.5 11.957v8.5a1.75 1.75 0 0 1-1.75 1.75h-1.5a1.75 1.75 0 0 1-1.75-1.75v-8.5a1.75 1.75 0 0 1 1.75-1.75h1.5a1.75 1.75 0 0 1 1.75 1.75Zm14-5.5v-1.5a1.75 1.75 0 0 0-1.75-1.75H4.25a1.75 1.75 0 0 0-1.75 1.75v1.5a1.75 1.75 0 0 0 1.75 1.75h15.5a1.75 1.75 0 0 0 1.75-1.75Z"/>
</svg>
