<svg xmlns="http://www.w3.org/2000/svg" width="24" height="25" fill="currentColor" viewBox="0 0 24 25">
  <path d="M19.75 15.207h-7.5a1.75 1.75 0 0 1-1.75-1.75v-1.5a1.75 1.75 0 0 1 1.75-1.75h7.5a1.75 1.75 0 0 1 1.75 1.75v1.5a1.75 1.75 0 0 1-1.75 1.75Zm1.75 5.25v-1.5a1.75 1.75 0 0 0-1.75-1.75h-7.5a1.75 1.75 0 0 0-1.75 1.75v1.5a1.75 1.75 0 0 0 1.75 1.75h7.5a1.75 1.75 0 0 0 1.75-1.75Zm-1.75-12.25H4.25a1.75 1.75 0 0 1-1.75-1.75v-1.5a1.75 1.75 0 0 1 1.75-1.75h15.5a1.75 1.75 0 0 1 1.75 1.75v1.5a1.75 1.75 0 0 1-1.75 1.75Zm-13 2h-2.5a1.75 1.75 0 0 0-1.75 1.75v8.5a1.75 1.75 0 0 0 1.75 1.75h2.5a1.75 1.75 0 0 0 1.75-1.75v-8.5a1.75 1.75 0 0 0-1.75-1.75Z"/>
</svg>
