<svg xmlns="http://www.w3.org/2000/svg" width="24" height="25" fill="currentColor" viewBox="0 0 24 25">
  <path d="M9.26 9.707h-5a1.74 1.74 0 0 1-1.76-1.74v-3.52a1.74 1.74 0 0 1 1.74-1.74h5A1.74 1.74 0 0 1 11 4.447v3.52a1.74 1.74 0 0 1-1.74 1.74ZM11 20.967v-7.52a1.74 1.74 0 0 0-1.74-1.74h-5a1.74 1.74 0 0 0-1.76 1.74v7.52a1.74 1.74 0 0 0 1.74 1.74h5a1.74 1.74 0 0 0 1.76-1.74Zm10.5-9v-7.51a1.75 1.75 0 0 0-1.75-1.75h-5A1.75 1.75 0 0 0 13 4.457v7.5a1.75 1.75 0 0 0 1.75 1.75h5a1.75 1.75 0 0 0 1.75-1.75v.01Zm0 9v-3.52a1.74 1.74 0 0 0-1.74-1.74h-5a1.74 1.74 0 0 0-1.76 1.74v3.52a1.74 1.74 0 0 0 1.74 1.74h5a1.74 1.74 0 0 0 1.76-1.74Z"/>
</svg>
