<svg xmlns="http://www.w3.org/2000/svg" width="24" height="25" fill="currentColor" viewBox="0 0 24 25">
  <path d="M8.47 11.207h-5a1.77 1.77 0 0 1-1.72-1.77v-5a1.77 1.77 0 0 1 1.77-1.73h5a1.78 1.78 0 0 1 1.77 1.77v5a1.78 1.78 0 0 1-1.82 1.73Zm13.27-1.77v-5A1.77 1.77 0 0 0 20 2.707h-5a1.77 1.77 0 0 0-1.77 1.77v5a1.77 1.77 0 0 0 1.77 1.73h5a1.77 1.77 0 0 0 1.74-1.77Zm-11.5 11.5v-5a1.78 1.78 0 0 0-1.77-1.73h-5a1.77 1.77 0 0 0-1.77 1.77v5a1.77 1.77 0 0 0 1.82 1.73h5a1.78 1.78 0 0 0 1.72-1.77Zm11.5-.56a.76.76 0 0 0-.75-.75H14a.75.75 0 0 0 0 1.5h7a.75.75 0 0 0 .74-.75Zm0-3.84a.75.75 0 0 0-.75-.75H14a.75.75 0 0 0 0 1.5h7a.76.76 0 0 0 .74-.75Z"/>
</svg>
