<svg xmlns="http://www.w3.org/2000/svg" width="24" height="25" fill="currentColor" viewBox="0 0 24 25">
  <path d="M8.72 11.207h-5A1.77 1.77 0 0 1 2 9.437v-5a1.77 1.77 0 0 1 1.77-1.73h5a1.77 1.77 0 0 1 1.77 1.77v5a1.769 1.769 0 0 1-1.82 1.73ZM22 9.437v-5a1.77 1.77 0 0 0-1.77-1.73h-5a1.77 1.77 0 0 0-1.77 1.77v5a1.77 1.77 0 0 0 1.77 1.77h5A1.77 1.77 0 0 0 22 9.436Zm0 11.5v-5a1.77 1.77 0 0 0-1.77-1.77h-4.96a1.77 1.77 0 0 0-1.77 1.77v5a1.77 1.77 0 0 0 1.77 1.77h4.95a1.77 1.77 0 0 0 1.78-1.77Zm-11.5 0v-5a1.77 1.77 0 0 0-1.78-1.73h-5A1.77 1.77 0 0 0 2 15.976v5a1.77 1.77 0 0 0 1.77 1.73h5a1.77 1.77 0 0 0 1.72-1.77h.01Z"/>
</svg>
