<svg xmlns="http://www.w3.org/2000/svg" width="24" height="25" fill="currentColor" viewBox="0 0 24 25">
  <path d="M19.81 13.707H14.7a1.75 1.75 0 0 1-1.7-1.75v-7.5a1.75 1.75 0 0 1 1.7-1.75h5.11a1.75 1.75 0 0 1 1.75 1.75v7.5a1.75 1.75 0 0 1-1.75 1.75Zm1.75 7.25v-3.5a1.75 1.75 0 0 0-1.75-1.75h-5a1.75 1.75 0 0 0-1.75 1.75v3.5a1.75 1.75 0 0 0 1.75 1.75h5a1.75 1.75 0 0 0 1.75-1.75Zm-10.62 0v-16.5a1.75 1.75 0 0 0-1.75-1.75h-5a1.75 1.75 0 0 0-1.75 1.75v16.5a1.75 1.75 0 0 0 1.75 1.75h5a1.75 1.75 0 0 0 1.75-1.75Z"/>
</svg>
