<svg xmlns="http://www.w3.org/2000/svg" width="24" height="25" fill="currentColor" viewBox="0 0 24 25">
  <path d="M9.25 22.706h-5a1.75 1.75 0 0 1-1.75-1.75v-16.5a1.75 1.75 0 0 1 1.75-1.75h5A1.75 1.75 0 0 1 11 4.457v16.5a1.75 1.75 0 0 1-1.75 1.75ZM21.5 9.956v-5.5a1.75 1.75 0 0 0-1.75-1.75h-5A1.75 1.75 0 0 0 13 4.457v5.5a1.75 1.75 0 0 0 1.75 1.75h5a1.75 1.75 0 0 0 1.75-1.75Zm0 11v-5.5a1.75 1.75 0 0 0-1.75-1.75h-5a1.75 1.75 0 0 0-1.75 1.75v5.5a1.75 1.75 0 0 0 1.75 1.75h5a1.75 1.75 0 0 0 1.75-1.75Z"/>
</svg>
