<svg xmlns="http://www.w3.org/2000/svg" width="24" height="25" fill="currentColor" viewBox="0 0 24 25">
  <path d="M6.25 21.706h-2.5A1.75 1.75 0 0 1 2 19.956v-14.5a1.75 1.75 0 0 1 1.75-1.75h2.5A1.75 1.75 0 0 1 8 5.457v14.5a1.75 1.75 0 0 1-1.75 1.75ZM22 9.956v-4.5a1.75 1.75 0 0 0-1.75-1.75h-8.5A1.75 1.75 0 0 0 10 5.457v4.5a1.75 1.75 0 0 0 1.75 1.75h8.5A1.75 1.75 0 0 0 22 9.957Zm-1.75 11.75h-8.5a1.75 1.75 0 0 1-1.75-1.75v-4.5a1.75 1.75 0 0 1 1.75-1.75h8.5a1.75 1.75 0 0 1 1.75 1.75v4.5a1.75 1.75 0 0 1-1.75 1.75Z"/>
</svg>
