<svg xmlns="http://www.w3.org/2000/svg" width="24" height="25" fill="currentColor" viewBox="0 0 24 25">
  <path fill-rule="evenodd" d="M12 4.164a8.25 8.25 0 0 0 0 16.5 8.21 8.21 0 0 0 3.527-.79 1.25 1.25 0 0 1 1.07 2.26A10.713 10.713 0 0 1 12 23.163c-5.937 0-10.75-4.813-10.75-10.75S6.063 1.664 12 1.664s10.75 4.813 10.75 10.75c0 3.367-1.896 6-4.813 6a3.625 3.625 0 0 1-3.246-2.01 4.813 4.813 0 1 1 2.121-3.99v2.375c0 .62.504 1.125 1.125 1.125 1.019 0 2.313-.93 2.313-3.5A8.25 8.25 0 0 0 12 4.164Zm2.313 8.25a2.312 2.312 0 1 0-4.625 0 2.312 2.312 0 0 0 4.624 0Z" clip-rule="evenodd"/>
</svg>
