<svg xmlns="http://www.w3.org/2000/svg" width="24" height="25" fill="currentColor" viewBox="0 0 24 25">
  <path d="M16.55 2.707h-9.1a4 4 0 0 0-3.95 4v7.11a1.11 1.11 0 0 0 1.1 1.11h14.8a1.11 1.11 0 0 0 1.1-1.11v-7.11a4 4 0 0 0-3.95-4Zm-8.88 10.27H6.45a.75.75 0 1 1 0-1.5h1.22a.75.75 0 0 1 0 1.5Zm0-2.5H6.45a.75.75 0 1 1 0-1.5h1.22a.75.75 0 0 1 0 1.5Zm0-2.5H6.45a.75.75 0 0 1 0-1.5h1.22a.75.75 0 0 1 0 1.5Zm11.73 8.48H4.6a1.1 1.1 0 0 0-1.1 1.1v1.33a3.82 3.82 0 0 0 3.82 3.82h9.36a3.82 3.82 0 0 0 3.82-3.82v-1.33a1.1 1.1 0 0 0-1.1-1.1Zm-2.9 4a1 1 0 1 1 0-2 1 1 0 0 1 0 2Z"/>
</svg>
