<svg xmlns="http://www.w3.org/2000/svg" width="24" height="25" fill="currentColor" viewBox="0 0 24 25">
  <path d="M21.66 2.793a.77.77 0 0 0-1.07 0l-3.38 3.37a9.92 9.92 0 0 0-5.21-1.7c-4.73 0-10 4.62-10 8.56 0 1.77 1.18 3.77 2.91 5.39l-2.56 2.55a.76.76 0 0 0 0 1.07.76.76 0 0 0 1.07 0l18.23-18.17a.76.76 0 0 0 .01-1.07Zm-14 10.23a4.3 4.3 0 0 1 6.46-3.77L13 10.413a2.729 2.729 0 0 0-1-.2 2.86 2.86 0 0 0-2.85 2.85 2.9 2.9 0 0 0 .19 1l-1.12 1.05a4.22 4.22 0 0 1-.57-2.09h.01Zm14.35 0c0 4-5 8.56-10 8.56a9.56 9.56 0 0 1-4.67-1.38l3.14-3.12a4.321 4.321 0 0 0 5.88-4.06 4.22 4.22 0 0 0-.29-1.51l3.48-3.47a7.65 7.65 0 0 1 2.45 4.98h.01Zm-10.3 2.82 3.11-3.09c.005.09.005.18 0 .27a2.85 2.85 0 0 1-2.82 2.85 2.878 2.878 0 0 1-.29-.03Z"/>
</svg>
