<svg xmlns="http://www.w3.org/2000/svg" width="24" height="25" fill="currentColor" viewBox="0 0 24 25">
  <path d="M9 7.614a4.9 4.9 0 0 0-2.21 3.52.26.26 0 0 1-.51.06c-.62-2.07-1.05-5.67 3.21-6a6 6 0 0 1 5.14-.87 5.4 5.4 0 0 1 2.92 7.69.27.27 0 0 1-.5-.05c-.24-.88-1-2.25-3.48-2.08A5.37 5.37 0 0 1 9 7.614Zm9.24 4.72a1 1 0 0 1-.93.57 1 1 0 0 1-1-.76 2.1 2.1 0 0 0-2.31-1.53h-.77a6.001 6.001 0 0 1-4.35-2 4.13 4.13 0 0 0-1.28 2.61 1 1 0 0 1-1 .92 1 1 0 0 1-1-.73v-.17a2.11 2.11 0 0 0-.32 1.39c.09.93.68 1.63 1.31 1.57a.918.918 0 0 0 .22-.06v.59A3.48 3.48 0 0 0 8 17.414l2.43 2a2.59 2.59 0 0 0 3.24.08l2.27-1.69a3.44 3.44 0 0 0 1.31-2.77v-.89c.074.029.151.049.23.06.63.06 1.21-.64 1.3-1.57a2.139 2.139 0 0 0-.13-1c-.111.24-.235.473-.37.7h-.04Zm4.49 8.75v-3.32a.77.77 0 1 0-1.54 0v3.32a.43.43 0 0 1-.43.43h-3a.77.77 0 1 0 0 1.54h3a2 2 0 0 0 2.01-1.97h-.04ZM7 22.284a.78.78 0 0 0-.77-.77h-3a.428.428 0 0 1-.43-.43v-3.32a.77.77 0 0 0-1.54 0v3.32a2 2 0 0 0 2 2h3a.771.771 0 0 0 .74-.8Zm15.77-15.3v-3.32a2 2 0 0 0-2-2h-3a.77.77 0 0 0 0 1.54h3a.43.43 0 0 1 .43.43v3.35a.77.77 0 1 0 1.54 0h.03Zm-19.9 0v-3.32a.43.43 0 0 1 .43-.43h3a.77.77 0 1 0 0-1.54h-3a2 2 0 0 0-2 2v3.29a.77.77 0 1 0 1.54 0h.03Z"/>
</svg>
