<svg xmlns="http://www.w3.org/2000/svg" width="24" height="25" fill="currentColor" viewBox="0 0 24 25">
  <path d="M16 14.976c.047-.28.073-.565.08-.85a5.65 5.65 0 0 0-.28-1.69l2.95-2.93a2.51 2.51 0 0 0-3.55-3.55l-2.91 2.91-.64.64a2.51 2.51 0 0 0 0 3.55 1.51 1.51 0 0 1 0 2.14l-.17.16a4.5 4.5 0 0 1-2.27-5.71 1.119 1.119 0 0 0 0-.13 4.57 4.57 0 0 1 1-1.42l3.55-3.55a4.53 4.53 0 0 1 6.4 6.4l-3.55 3.55a4.7 4.7 0 0 1-.61.48Zm-8.64-4-3.53 3.5a4.522 4.522 0 1 0 6.39 6.4l3.56-3.55a4.7 4.7 0 0 0 .49-.6c.252-.357.448-.752.58-1.17a4.27 4.27 0 0 0 .25-1.43c0-.305-.03-.61-.09-.91a4.202 4.202 0 0 0-.36-1 4.51 4.51 0 0 0-.87-1.26 4.608 4.608 0 0 0-1.26-.88l-.17.17a1.51 1.51 0 0 0 0 2.14c.383.376.629.869.7 1.4a2.509 2.509 0 0 1-.54 2c-.06.06-.1.13-.16.19l-.62.62-2.93 2.86a2.51 2.51 0 0 1-3.55-3.55l2.92-2.92a3.39 3.39 0 0 1-.11-.43c0-.11-.05-.22-.07-.33a4.91 4.91 0 0 1-.08-.78 4.517 4.517 0 0 1 .09-1.01c-.223.143-.43.307-.62.49l-.02.05Z"/>
</svg>
