<svg xmlns="http://www.w3.org/2000/svg" width="24" height="25" fill="currentColor" viewBox="0 0 24 25">
  <path d="m19.83 11.817-6.94-6.94 1.42-1.41a1.91 1.91 0 0 1 2.71 0l4.22 4.24a1.91 1.91 0 0 1 0 2.71l-1.41 1.4Zm-1.07 1.06-6.93-6.93-.15-.15a6.76 6.76 0 0 1-1.82.74 6.84 6.84 0 0 0-5.22 6.8 5.92 5.92 0 0 1-1.73 4.3l-.43.43a1 1 0 0 0 0 1.38l.69.69.15-.14 5.9-5.9a2.45 2.45 0 1 1 1.39 1.39l-5.84 5.84-.21.2.7.7a1 1 0 0 0 1.38 0l.43-.43a5.919 5.919 0 0 1 4.3-1.73 6.84 6.84 0 0 0 6.8-5.22c.157-.64.406-1.253.74-1.82l-.15-.15Z"/>
</svg>
