<svg xmlns="http://www.w3.org/2000/svg" width="24" height="25" fill="currentColor" viewBox="0 0 24 25">
  <path d="M22.15 11.146h-4.79A3.41 3.41 0 0 1 14 7.707v-4.95l8.15 8.39Zm-4.79 1.56h-.13a4.939 4.939 0 0 1-4.71-5.16v-4.84h-5a5.7 5.7 0 0 0-5.7 5.7v8.54a5.7 5.7 0 0 0 5.72 5.76h8.92a5.7 5.7 0 0 0 5.69-5.7v-4.3h-4.79Zm-5.12 2.37a.76.76 0 0 1-1.06.08l-1.61-1.37v5a.75.75 0 1 1-1.5 0v-5.08l-1.84 1.47a.751.751 0 1 1-.93-1.18l3.06-2.42a.391.391 0 0 1 .11-.06l.08-.05a.66.66 0 0 1 .55 0l.09.05.12.07 2.84 2.43a.75.75 0 0 1 .09 1.06Z"/>
</svg>
