<svg xmlns="http://www.w3.org/2000/svg" width="24" height="25" fill="currentColor" viewBox="0 0 24 25">
  <path d="M22.84 10.186h-4.72a3.37 3.37 0 0 1-3.28-3.48v-4.93l8 8.41Zm0 1.53h-4.72a4.92 4.92 0 0 1-4.78-5v-4.96h-4.9a5.67 5.67 0 0 0-5.62 5.71v7.05a5.453 5.453 0 0 1 7.31 2.69 5.68 5.68 0 0 1 .09 4.57h7a5.669 5.669 0 0 0 5.62-5.72v-4.34Zm-13.68 7.86a4 4 0 0 1-4 4.08 4.08 4.08 0 0 1 0-8.15 4.001 4.001 0 0 1 4 4.07Zm-2.91 0 .53-.48a.79.79 0 0 0 .15-1.07.74.74 0 0 0-1-.16.472.472 0 0 0-.1.1l-.58.54-.56-.56a.73.73 0 0 0-1 0 .77.77 0 0 0 0 1.07l.51.51-.53.49a.78.78 0 0 0 0 1.08.729.729 0 0 0 .55.25.76.76 0 0 0 .51-.2l.58-.54.55.56a.74.74 0 0 0 1.06 0 .78.78 0 0 0 0-1.08l-.67-.51Z"/>
</svg>
