<svg xmlns="http://www.w3.org/2000/svg" width="24" height="25" fill="currentColor" viewBox="0 0 24 25">
  <path d="M22 11.156h-4.73A3.39 3.39 0 0 1 14 7.706a.712.712 0 0 0 0-.14v-4.86l8 8.45Zm0 5.84a5.671 5.671 0 0 1-5.63 5.71H7.62A5.67 5.67 0 0 1 2 16.996v-8.56a5.67 5.67 0 0 1 5.62-5.73h4.91v4.84a4.93 4.93 0 0 0 4.64 5.16H22v4.29Zm-9.25-1.89a.351.351 0 0 0-.05-.08.506.506 0 0 0-.08-.14l-2.42-2.89a.73.73 0 0 0-1-.08.76.76 0 0 0-.08 1.07l1.36 1.64h-5a.76.76 0 0 0 0 1.52h5.09l-1.52 1.88a.77.77 0 0 0 .378 1.21.731.731 0 0 0 .792-.26l2.42-3.12a.391.391 0 0 0 .06-.15.415.415 0 0 0 .05-.09.863.863 0 0 0 .05-.23.866.866 0 0 0-.05-.28Z"/>
</svg>
