<svg xmlns="http://www.w3.org/2000/svg" width="24" height="25" fill="currentColor" viewBox="0 0 24 25">
  <path d="M22.13 11.146h-4.78A3.4 3.4 0 0 1 14 7.707a.712.712 0 0 1 0-.14v-4.8l8.13 8.38Zm-4.78 1.56h-.14a4.929 4.929 0 0 1-4.7-5.16v-4.84h-5a5.69 5.69 0 0 0-5.64 5.73v8.54a5.69 5.69 0 0 0 5.66 5.73h8.91a5.69 5.69 0 0 0 5.69-5.69v-4.31h-4.78Zm-5.24 4.28-2.85 2.43s-.08 0-.12.07h-.09a.66.66 0 0 1-.27.06.6.6 0 0 1-.27-.06h-.09a.389.389 0 0 1-.11-.06l-3.06-2.42a.76.76 0 0 1-.12-1.06.75.75 0 0 1 1-.12L8 17.296v-5.1a.75.75 0 0 1 1.5 0v5l1.6-1.37a.758.758 0 0 1 1 1.14l.01.02Z"/>
</svg>
