<svg xmlns="http://www.w3.org/2000/svg" width="24" height="25" fill="currentColor" viewBox="0 0 24 25">
  <path d="M22.68 10.487H18a3.37 3.37 0 0 1-3.26-3.46.607.607 0 0 1 0-.14v-4.79l7.94 8.39Zm0 1.52H18a4.883 4.883 0 0 1-4.71-5.06v-4.87h-4.9a5.63 5.63 0 0 0-5.57 5.7v6.52a5.179 5.179 0 0 1 2.44-.59 5.52 5.52 0 0 1 5.45 5.58 5.58 5.58 0 0 1-.71 2.74h7.14a5.62 5.62 0 0 0 5.57-5.68l-.03-4.34Zm-17.42 3.21a4.06 4.06 0 1 1 0 8.12 4.06 4.06 0 0 1 0-8.12Zm-2 4 1.22 1.6a.63.63 0 0 0 .59.29.73.73 0 0 0 .58-.29l1.7-2.22a.77.77 0 0 0-.13-1.06.72.72 0 0 0-1 .14L5 19.147l-.63-.83a.74.74 0 0 0-1-.13.78.78 0 0 0-.16 1.07l.05-.04Z"/>
</svg>
