<svg xmlns="http://www.w3.org/2000/svg" width="24" height="25" fill="currentColor" viewBox="0 0 24 25">
  <path d="M21.85 11.136H17.2a3.36 3.36 0 0 1-3.2-3.43.655.655 0 0 0 0-.14v-4.86l7.85 8.43Zm-4.65 1.57h-.13a4.9 4.9 0 0 1-4.58-5.18v-4.82H7.66a5.63 5.63 0 0 0-5.51 5.72v8.56a5.63 5.63 0 0 0 5.51 5.72h8.65a5.628 5.628 0 0 0 5.54-5.72v-4.28H17.2Zm-5.09 3.42H7l1.46 1.87a.761.761 0 0 1-.12 1.07.69.69 0 0 1-.46.17.74.74 0 0 1-.59-.29l-2.41-3.11-.06-.13-.05-.1a.85.85 0 0 1 0-.23.67.67 0 0 1 .06-.28v-.08l.08-.13 2.43-2.89a.742.742 0 0 1 1.05-.09.77.77 0 0 1 .08 1.08l-1.38 1.61h5a.77.77 0 0 1 0 1.53h.02Z"/>
</svg>
