<svg xmlns="http://www.w3.org/2000/svg" width="24" height="25" fill="currentColor" viewBox="0 0 24 25">
  <path d="m5.35 10.257-1.3-1.32a2.19 2.19 0 0 1-.63-1.55v-2.49a2.21 2.21 0 0 1 2.21-2.19H10a.48.48 0 0 1 .4.74l-4.3 6.73a.48.48 0 0 1-.75.08Zm13.02-7.55h-5a1.23 1.23 0 0 0-1 .57l-5.26 8.2a.48.48 0 0 0 .07.6l.54.55a4.36 4.36 0 0 1 1.25 3v5a2 2 0 0 0 3.22 1.67l1.37-1a1.91 1.91 0 0 0 .81-1.56v-4.13a3.859 3.859 0 0 1 1.24-2.9l4.23-3.77a2.18 2.18 0 0 0 .74-1.66v-2.38a2.21 2.21 0 0 0-2.21-2.19Z"/>
</svg>
