<svg xmlns="http://www.w3.org/2000/svg" width="24" height="25" fill="currentColor" viewBox="0 0 24 25">
  <path d="m10 6.257-2.33 2a1 1 0 0 0-.33.76v2.21a.73.73 0 0 1-.48.71l-1 .34a.69.69 0 0 1-.86-.67v-2.55a1 1 0 0 0-.33-.76l-2.33-2a1.71 1.71 0 0 1-.56-1.28v-.75a1.49 1.49 0 0 1 1.4-1.56h6a1.49 1.49 0 0 1 1.41 1.56v.71a1.68 1.68 0 0 1-.59 1.28Zm6.53-2.42h-5a2.06 2.06 0 0 1 0 .43v.71a2.68 2.68 0 0 1-.89 2l-2.29 2.08v2.21a1.7 1.7 0 0 1-1.15 1.64l-1 .34a1.687 1.687 0 0 1-2.2-1.64v-2.57l-.88-.78A5.78 5.78 0 0 0 3 9.507v7.53a5.67 5.67 0 0 0 5.65 5.67h7.91a5.67 5.67 0 0 0 5.67-5.67v-7.53a5.67 5.67 0 0 0-5.67-5.67h-.03Zm-3.95 8.38h4.47a.74.74 0 1 1 0 1.47h-4.44a.74.74 0 1 1 0-1.47h-.03Zm4.78 5.63H9a.74.74 0 0 1 0-1.47h8.39a.74.74 0 1 1 0 1.47h-.03Z"/>
</svg>
