<svg xmlns="http://www.w3.org/2000/svg" width="24" height="25" fill="currentColor" viewBox="0 0 24 25">
  <path d="M14.09 20.706c-.137.264-.336.49-.58.66l-1.37 1a2 2 0 0 1-3.22-1.66v-5.25a3.85 3.85 0 0 0-1.11-2.7l-3.76-3.82a2.19 2.19 0 0 1-.63-1.55v-2.49a2.21 2.21 0 0 1 2.21-2.19h12.74a2.21 2.21 0 0 1 2.21 2.21v2.4a2.18 2.18 0 0 1-.74 1.66l-2.24 2a5.133 5.133 0 0 0-2.24-.53 5.23 5.23 0 0 0-1.27 10.26Zm5.71-1.68-.92-.92h-.06a4.25 4.25 0 1 0-1 1v.06l.92.92a.75.75 0 0 0 1.06 0 .75.75 0 0 0 0-1.04v-.02Z"/>
</svg>
