<svg xmlns="http://www.w3.org/2000/svg" width="24" height="25" fill="currentColor" viewBox="0 0 24 25">
  <path d="M13.65 20.527a1.94 1.94 0 0 1-.67.86l-1.36 1a2 2 0 0 1-3.22-1.68v-5.25a3.85 3.85 0 0 0-1.11-2.7l-3.76-3.82a2.2 2.2 0 0 1-.64-1.55v-2.49a2.21 2.21 0 0 1 2.21-2.19h12.74a2.21 2.21 0 0 1 2.22 2.21v2.4a2.221 2.221 0 0 1-.74 1.66l-1.17 1a5.89 5.89 0 0 0-1.79-.27 5.75 5.75 0 0 0-2.71 10.82Zm7.46-5.07a4.75 4.75 0 1 1-4.75-4.75 4.738 4.738 0 0 1 4.75 4.75Zm-2.38-1.7a.76.76 0 0 0-1.06-.05l-2.08 1.89-.76-.68a.749.749 0 1 0-1 1.11l1.26 1.13a.74.74 0 0 0 .5.2.78.78 0 0 0 .51-.2l2.58-2.33a.76.76 0 0 0 .05-1.07Z"/>
</svg>
