<svg xmlns="http://www.w3.org/2000/svg" width="24" height="25" fill="currentColor" viewBox="0 0 24 25">
  <path d="M13.56 20.706a1.9 1.9 0 0 1-.62.73l-1.36 1a2 2 0 0 1-3.22-1.73v-5.25a3.85 3.85 0 0 0-1.11-2.7l-3.76-3.82a2.2 2.2 0 0 1-.64-1.55v-2.49a2.21 2.21 0 0 1 2.21-2.19h12.75A2.21 2.21 0 0 1 20 4.897v2.4a2.221 2.221 0 0 1-.74 1.66L18 10.137a5.74 5.74 0 0 0-4.44 10.57Zm7.59-5a4.75 4.75 0 1 1-9.5 0 4.75 4.75 0 0 1 9.5 0Zm-2.62-1.7-.53-.52a.681.681 0 0 0-1 0l-2.69 2.75a.5.5 0 0 0-.14.27l-.16.85a.57.57 0 0 0 .67.66l.85-.18a.5.5 0 0 0 .27-.14l2.7-2.75a.66.66 0 0 0 .03-.94Z"/>
</svg>
