<svg xmlns="http://www.w3.org/2000/svg" width="24" height="25" fill="currentColor" viewBox="0 0 24 25">
  <path d="M12.28 21.254a.85.85 0 0 1-.52-.17.87.87 0 0 1-.18-1.21 9.382 9.382 0 0 0 1.63-3.46.87.87 0 0 1 1.69.41 11.2 11.2 0 0 1-1.9 4.09.88.88 0 0 1-.72.34Zm-2.51-1.9a7.8 7.8 0 0 0 2-5.18v-4.33a.87.87 0 1 1 1.73 0v3.74a.87.87 0 1 0 1.74 0v-3.74a2.61 2.61 0 0 0-5.21 0v4.33a6.08 6.08 0 0 1-1.52 4 .86.86 0 0 0 .61 1.46.87.87 0 0 0 .65-.28Zm-2.36-2.54a.9.9 0 0 0 .86-.9v-6.07a4.31 4.31 0 0 1 .27-1.52.87.87 0 1 0-1.62-.61 6.17 6.17 0 0 0-.38 2.13v6.15a.83.83 0 0 0 .86.82h.01ZM10 6.414a4.38 4.38 0 0 1 1.44-.7.88.88 0 0 0 .61-1.07.872.872 0 0 0-1.05-.65 6 6 0 0 0-2 1 .87.87 0 0 0-.2 1.2.88.88 0 0 0 .69.34.81.81 0 0 0 .51-.12Zm8 12.34a14.74 14.74 0 0 0 .71-4.53v-4.38a6.07 6.07 0 0 0-4.08-5.74.87.87 0 0 0-1.11.54.88.88 0 0 0 .48 1.1 4.33 4.33 0 0 1 2.92 4.1v4.33a12.871 12.871 0 0 1-.63 4 .88.88 0 0 0 .56 1.09c.09.014.18.014.27 0a.85.85 0 0 0 .88-.56v.05Zm5 2.61v-3.42a.78.78 0 0 0-1.56 0v3.37a.43.43 0 0 1-.43.43H18a.78.78 0 0 0 0 1.56h3a2 2 0 0 0 1.93-1.99l.07.05Zm-16 1.16a.78.78 0 0 0-.78-.78h-3a.43.43 0 0 1-.43-.43v-3.37a.79.79 0 0 0-1.57 0v3.37a2 2 0 0 0 2 2h3a.78.78 0 0 0 .78-.79Zm15.93-15.48v-3.36a2 2 0 0 0-2-2H18a.78.78 0 1 0 0 1.56h3a.43.43 0 0 1 .43.43v3.37a.78.78 0 1 0 1.56 0h-.06Zm-20.12 0v-3.36a.43.43 0 0 1 .43-.43h3a.78.78 0 1 0 0-1.56h-3a2 2 0 0 0-2 2v3.35a.79.79 0 0 0 1.57 0Z"/>
</svg>
