<svg xmlns="http://www.w3.org/2000/svg" width="24" height="25" fill="currentColor" viewBox="0 0 24 25">
  <path d="M16.69 6.906h-3a2.59 2.59 0 0 1-2.4-1.63l-.29-.84a2.59 2.59 0 0 0-2.42-1.64h-2A4.58 4.58 0 0 0 2 7.376v10.16a5.26 5.26 0 0 0 5.27 5.26h9.42a5.26 5.26 0 0 0 5.31-5.21v-5.41a5.27 5.27 0 0 0-5.26-5.27h-.05Zm-1.88 8.8-2.36 2-.12.07h-.08a.62.62 0 0 1-.26.06h-.35a.533.533 0 0 1-.1-.06L9 15.706a.72.72 0 0 1-.11-1 .71.71 0 0 1 .55-.26.76.76 0 0 1 .45.15l1.38 1.11v-4a.72.72 0 0 1 1.43 0v4l1.18-1a.71.71 0 0 1 1 .07.72.72 0 0 1-.07.93Z"/>
</svg>
