<svg xmlns="http://www.w3.org/2000/svg" width="24" height="25" fill="currentColor" viewBox="0 0 24 25">
  <path d="M16.73 6.766h-3a2.61 2.61 0 0 1-2.42-1.64l-.31-.84a2.61 2.61 0 0 0-2.42-1.64h-2A4.58 4.58 0 0 0 2 7.226v10.13a5.27 5.27 0 0 0 5.24 5.26h9.49a5.27 5.27 0 0 0 5.27-5.27v-5.31a5.27 5.27 0 0 0-5.27-5.27Zm-1.48 7.38a.72.72 0 0 1-1 .08l-1.18-1v4a.72.72 0 0 1-1.43 0v-4.09l-1.38 1.11a.74.74 0 0 1-.757.08.69.69 0 0 1-.243-.2.7.7 0 0 1 .11-1l2.54-2 .1-.05h.09a.52.52 0 0 1 .21 0 .749.749 0 0 1 .26.05h.08l.12.07 2.36 2a.71.71 0 0 1 .12.95Z"/>
</svg>
