<svg xmlns="http://www.w3.org/2000/svg" width="24" height="25" fill="currentColor" viewBox="0 0 24 25">
  <path d="M3.003 20.04c-.23.47-.981.427-.998-.095C1.86 15.357 4.758 8.285 12.28 8.1a.31.31 0 0 0 .304-.304V5.327c0-.257.067-.51.192-.728.125-.219.305-.395.518-.51a1.204 1.204 0 0 1 1.345.13l6.848 5.539c.16.129.29.296.378.488a1.474 1.474 0 0 1 0 1.239 1.35 1.35 0 0 1-.378.488l-6.848 5.539a1.204 1.204 0 0 1-1.345.13 1.325 1.325 0 0 1-.518-.51 1.466 1.466 0 0 1-.192-.728v-2.42a.299.299 0 0 0-.35-.292c-5.693.99-8.188 4.235-9.23 6.349Z"/>
</svg>
