<svg xmlns="http://www.w3.org/2000/svg" width="24" height="25" fill="currentColor" viewBox="0 0 24 25">
  <path d="M8.81 16.706h5.69v4H5.81A1.81 1.81 0 0 1 4 18.896V8.707h-.19A1.81 1.81 0 0 1 2 6.897v-.38a1.81 1.81 0 0 1 1.81-1.81H4v-.19a1.81 1.81 0 0 1 1.81-1.81h.38A1.81 1.81 0 0 1 8 4.517v11.38a.81.81 0 0 0 .81.81Zm11.38 0H20V6.516a1.81 1.81 0 0 0-1.81-1.81H9.5v4h5.69a.81.81 0 0 1 .81.81v11.38a1.81 1.81 0 0 0 1.81 1.81h.38a1.81 1.81 0 0 0 1.81-1.81v-.19h.19a1.81 1.81 0 0 0 1.81-1.81v-.38a1.81 1.81 0 0 0-1.81-1.81Z"/>
</svg>
