<svg xmlns="http://www.w3.org/2000/svg" width="24" height="25" fill="currentColor" viewBox="0 0 24 25">
  <path d="M22 12.156v1.1a1.13 1.13 0 0 1-.94 1.11l-1.29.2a7.899 7.899 0 0 1-1 2.32l.77 1.05a1.12 1.12 0 0 1-.12 1.45l-.78.78a1.12 1.12 0 0 1-1.45.12l-1.05-.77a7.898 7.898 0 0 1-2.32 1l-.2 1.29a1.13 1.13 0 0 1-1.11.94h-1.1a1.13 1.13 0 0 1-1.11-.94l-.2-1.29a7.897 7.897 0 0 1-2.32-1l-1.05.77a1.12 1.12 0 0 1-1.45-.12l-.78-.78a1.12 1.12 0 0 1-.12-1.45l.77-1.05a7.899 7.899 0 0 1-1-2.32l-1.29-.2a1.129 1.129 0 0 1-.86-1.11v-1.1a1.13 1.13 0 0 1 .94-1.11l1.29-.2a7.9 7.9 0 0 1 1-2.32l-.81-1.05a1.12 1.12 0 0 1 .12-1.45l.78-.78a1.12 1.12 0 0 1 1.45-.12l1.05.77a7.9 7.9 0 0 1 2.32-1l.2-1.29a1.13 1.13 0 0 1 1.11-.9h1.1a1.13 1.13 0 0 1 1.11.94l.2 1.29a7.9 7.9 0 0 1 2.32 1l1.05-.77a1.12 1.12 0 0 1 1.45.12l.78.78a1.12 1.12 0 0 1 .12 1.45l-.77 1.05a7.903 7.903 0 0 1 1 2.32l1.29.2a1.13 1.13 0 0 1 .9 1.07Zm-10-2.95a3.5 3.5 0 1 0 0 7 3.5 3.5 0 0 0 0-7Z"/>
</svg>
