<svg xmlns="http://www.w3.org/2000/svg" width="24" height="25" fill="currentColor" viewBox="0 0 24 25">
  <path d="M20 12.186v7.64a2.88 2.88 0 0 1-2.87 2.88H6.87A2.88 2.88 0 0 1 4 19.826v-7.64h3.49v3.59a2.5 2.5 0 0 0 2.5 2.5 2.41 2.41 0 0 0 1.37-.42l.64-.42.64.42a2.41 2.41 0 0 0 1.37.42 2.51 2.51 0 0 0 2.51-2.5v-3.57h3.32l.16-.02Zm-.16-6.48h-2a.91.91 0 0 0 0-1.29l-1.46-1.44a.92.92 0 0 0-1.3 0l-2.73 2.73h-.7l-2.73-2.73a.92.92 0 0 0-1.3 0l-1.43 1.44a.91.91 0 0 0-.01 1.29h-2a1.66 1.66 0 0 0-1.68 1.66v1.67a1.66 1.66 0 0 0 1.66 1.67h15.68a1.66 1.66 0 0 0 1.66-1.67v-1.67a1.66 1.66 0 0 0-1.66-1.66ZM9 12.206v3.59a1 1 0 0 0 1 1 1 1 0 0 0 .55-.17l.76-.5a1.27 1.27 0 0 1 1.4 0l.76.5a1 1 0 0 0 .55.17 1 1 0 0 0 1-1v-3.59H9Z"/>
</svg>
