<svg xmlns="http://www.w3.org/2000/svg" width="24" height="25" fill="currentColor" viewBox="0 0 24 25">
  <path d="m20 18.297-2.14-5-1-2.31-1.45-3.4h.2a2.42 2.42 0 1 0 0-4.83H8.37a2.42 2.42 0 0 0 0 4.83h.1L7 10.986l-3 7.38a3.26 3.26 0 0 0-.22.78v.23a3.25 3.25 0 0 0 0 .54.79.79 0 0 0 0 .22c.023.173.064.344.12.51 0 .08.08.15.11.22.067.154.143.305.23.45 0 .07.12.14.18.21.092.123.192.24.3.35.08.07.18.12.26.19.08.07.22.18.35.25l.32.13c.13.06.263.11.4.15.11 0 .24 0 .36.05.143.01.287.01.43 0l5.16.06h5.11a3.13 3.13 0 0 0 2.89-4.41Zm-9.91-10.75h3.7l1.7 4 .63 1.5a6.82 6.82 0 0 0-3.52.66 6.9 6.9 0 0 1-5.33.66l1.16-2.8 1.66-4.02Z"/>
</svg>
