<svg xmlns="http://www.w3.org/2000/svg" width="24" height="25" fill="currentColor" viewBox="0 0 24 25">
  <path d="M16.11 2.707H7.89a6 6 0 0 0-5.89 6v8a6 6 0 0 0 5.89 6h8.22a6 6 0 0 0 5.89-6v-8a6 6 0 0 0-5.89-6ZM8.3 19.297a.75.75 0 1 1-1.49 0v-2.87a.75.75 0 1 1 1.49 0v2.87Zm4.81 0a.75.75 0 1 1-1.49 0v-4.15a.75.75 0 1 1 1.49 0v4.15Zm4.75 0a.75.75 0 1 1-1.5 0v-6.82a.75.75 0 0 1 1.5 0v6.82Zm0-10.59a.75.75 0 1 1-1.5 0v-.26a13.12 13.12 0 0 1-8.55 4.35.77.77 0 0 1 0-1.53 11.65 11.65 0 0 0 7.75-4.15h-.75a.76.76 0 1 1 0-1.52h2.56l.14.07h.07l.1.12a.5.5 0 0 1 .08.12s0 .08.05.13v.21l.05 2.46Z"/>
</svg>
