<svg xmlns="http://www.w3.org/2000/svg" width="24" height="25" fill="currentColor" viewBox="0 0 24 25">
  <path d="M7.19 2.707H9v20H7.19A5.19 5.19 0 0 1 2 17.516v-9.62c0-.336.033-.671.1-1 .018-.065.038-.128.06-.19a4.75 4.75 0 0 1 .2-.64c.027-.086.06-.17.1-.25a4.64 4.64 0 0 1 .43-.79c.167-.246.354-.477.56-.69l.13-.13a6 6 0 0 1 .67-.56l.12-.07a4.84 4.84 0 0 1 .71-.38l.13-.07a6 6 0 0 1 .85-.26h.19c.305-.079.616-.132.93-.16h.01Zm9.62 0H10.5v20h6.31a5.19 5.19 0 0 0 5.19-5.19v-9.62a5.19 5.19 0 0 0-5.19-5.19Z"/>
</svg>
