<svg xmlns="http://www.w3.org/2000/svg" width="24" height="25" fill="currentColor" viewBox="0 0 24 25">
  <path d="M11.29 21.017a1.68 1.68 0 1 1-1.67-1.64 1.66 1.66 0 0 1 1.67 1.64Zm5.84-1.64a1.65 1.65 0 1 0 1.68 1.64 1.659 1.659 0 0 0-1.68-1.64Zm2.77-14.58H8.39c-.159 0-.317.02-.47.06a.32.32 0 0 0 0-.09l-1-1.67a.81.81 0 0 0-.71-.39H2.8a.79.79 0 1 0 0 1.57h3l.76 1.28a.66.66 0 0 0 .1.15 2 2 0 0 0-.36 1l-.16 2.07h15.72l.14-1.77a2.07 2.07 0 0 0-2.1-2.21ZM5.68 14.957a2.07 2.07 0 0 0 2.09 2.21h11.52a2.09 2.09 0 0 0 2.09-1.91l.36-4.91H6l-.32 4.61Z"/>
</svg>
