<svg xmlns="http://www.w3.org/2000/svg" width="24" height="25" fill="currentColor" viewBox="0 0 24 25">
  <path d="M9.01 13.929a1.077 1.077 0 1 0 0 2.153 1.077 1.077 0 0 0 0-2.153Z"/>
  <path fill-rule="evenodd" d="m7.876 2.436 8.14-.044a5.96 5.96 0 0 1 5.992 5.927l.044 8.08a5.96 5.96 0 0 1-5.928 5.992l-8.14.044a5.96 5.96 0 0 1-5.992-5.927l-.044-8.08a5.96 5.96 0 0 1 5.928-5.992ZM6.943 6.5a.592.592 0 1 1 1.185 0v1.374H9.89V6.5a.592.592 0 1 1 1.185 0v4.423a.592.592 0 0 1-1.185 0V9.058H8.128v1.865a.592.592 0 0 1-1.185 0V6.5Zm5.88 0c0-.327.266-.592.593-.592h.232c.228 0 .437.132.535.338l.855 1.8.855-1.8a.592.592 0 0 1 .535-.338h.231c.328 0 .593.265.593.592v4.423a.592.592 0 0 1-1.185 0V8.639l-.494 1.04a.592.592 0 0 1-1.07 0l-.495-1.04v2.284a.592.592 0 0 1-1.184 0V6.5Zm-6.075 8.505a2.261 2.261 0 1 1 4.523 0 2.261 2.261 0 0 1-4.523 0Zm7.839-1.364c-.269.036-.364.145-.393.244a.558.558 0 0 0-.027.283.24.24 0 0 0 .065.116.68.68 0 0 0 .307.162l.912.172c.264.044.628.167.91.45.314.315.47.77.355 1.328-.105.51-.422.85-.861 1.018-.391.149-.856.156-1.304.12-.548-.046-1.02-.284-1.403-.614a.552.552 0 0 1 .72-.835c.241.208.5.327.773.35.407.032.667.007.82-.052a.28.28 0 0 0 .117-.073.284.284 0 0 0 .058-.135.485.485 0 0 0 .003-.23.213.213 0 0 0-.023-.054l-.015-.021-.02-.023a.604.604 0 0 0-.315-.142l-.013-.002-.94-.177-.011-.003a1.778 1.778 0 0 1-.868-.477c-.33-.345-.484-.85-.297-1.477.198-.662.782-.951 1.303-1.022a2.454 2.454 0 0 1 1.542.318c.257.154.422.332.663.626a.551.551 0 0 1-.854.699c-.225-.275-.291-.328-.378-.38a1.355 1.355 0 0 0-.826-.17ZM7.02 18.419a.5.5 0 0 1 .5-.5h2.807a.5.5 0 1 1 0 1H7.521a.5.5 0 0 1-.5-.5Z" clip-rule="evenodd"/>
</svg>
