<svg xmlns="http://www.w3.org/2000/svg" width="24" height="25" fill="currentColor" viewBox="0 0 24 25">
  <path d="M18.17 2.414H5.83a2.5 2.5 0 0 0-2.49 2.76l1.42 13.63a2.48 2.48 0 0 0 1.79 2.14l4.76 1.37c.45.13.93.13 1.38 0l4.78-1.37a2.51 2.51 0 0 0 1.8-2.15l1.39-13.62a2.499 2.499 0 0 0-2.49-2.76Zm-2 5.53H8.64l.3 3 6.73.14a.75.75 0 0 1 .73.81l-.4 4.68a.75.75 0 0 1-.52.65L12 18.344a.622.622 0 0 1-.23 0c-.07.01-.14.01-.21 0l-3.19-.93a.74.74 0 0 1-.53-.6l-.31-1.86a.75.75 0 1 1 1.47-.26l.23 1.4 2.56.75 2.77-.89.27-3.41-6.58-.13a.75.75 0 0 1-.73-.68l-.46-4.46a.76.76 0 0 1 .74-.86h8.4a.75.75 0 1 1 0 1.5l-.03.03Z"/>
</svg>
