<svg xmlns="http://www.w3.org/2000/svg" width="24" height="25" fill="currentColor" viewBox="0 0 24 25">
  <path d="M12 2.474a9.93 9.93 0 0 0-2.52 19.54v-2.31l-.48-.05-.71-.07-.41-.05a1.421 1.421 0 0 1-.56-.12 1.69 1.69 0 0 1-.75-.77 3.247 3.247 0 0 0-.28-.56 4.667 4.667 0 0 0-.86-1 .32.32 0 0 1 0-.46.34.34 0 0 1 .41-.08 4.91 4.91 0 0 1 1.16.87c.192.188.363.395.51.62a.55.55 0 0 0 .29.17h.51l.69-.1.67-.07a2.9 2.9 0 0 1 1.16-1.48 8.758 8.758 0 0 1-1.63-.36 4 4 0 0 1-3-4.11 3.77 3.77 0 0 1 1-2.51 5.14 5.14 0 0 1-.09-2.55.44.44 0 0 1 .54-.31 4 4 0 0 1 2.2 1.21 8.12 8.12 0 0 1 5 0A4 4 0 0 1 17 6.714a.45.45 0 0 1 .54.31 5 5 0 0 1-.06 2.44 3.77 3.77 0 0 1 1.13 2.62c0 2.19-1.39 4-4.64 4.46a2.88 2.88 0 0 1 1.34 2.44v2.8A9.93 9.93 0 0 0 12 2.474Z"/>
</svg>
