<svg xmlns="http://www.w3.org/2000/svg" width="24" height="25" fill="currentColor" viewBox="0 0 24 25">
  <path d="M13.69 2.957a9.9 9.9 0 0 1 8.2 9.75v.76a14.317 14.317 0 0 1-3.68-2.4A1.81 1.81 0 0 0 16 8.547a14 14 0 0 1-2.31-5.59Zm-5.18.82c.004.885.054 1.77.15 2.65a1.8 1.8 0 0 1 .55 3.19 24.707 24.707 0 0 0 2 5.44h.2a1.82 1.82 0 0 1 1.78 1.46c1.165.173 2.342.26 3.52.26a24.88 24.88 0 0 0 4.51-.43 9.77 9.77 0 0 0 .41-1.33 16.057 16.057 0 0 1-4.62-3 2.114 2.114 0 0 1-.44.06 1.82 1.82 0 0 1-1.69-2.49 15.64 15.64 0 0 1-2.74-6.78H12a9.93 9.93 0 0 0-3.46.64c-.03.1-.03.26-.03.33Zm6 18.5a26.994 26.994 0 0 1-2.93-3.63h-.16a1.82 1.82 0 0 1-1.77-1.4 26.729 26.729 0 0 1-7.46-3.35 9.89 9.89 0 0 0 9.81 8.72 10 10 0 0 0 4-.86c-.493.21-1.001.384-1.52.52h.03Zm2.21-4a26.299 26.299 0 0 1-3.79-.28 25.221 25.221 0 0 0 3.12 3.71 9.87 9.87 0 0 0 4.3-3.73 27.641 27.641 0 0 1-3.66.28l.03.02Zm-6.84-2.46a27.277 27.277 0 0 1-2.15-5.89 1.83 1.83 0 0 1-1.41-1.77 1.8 1.8 0 0 1 .85-1.53c-.08-.82-.17-1.65-.17-2.48a9.88 9.88 0 0 0-4.91 7.92 25.307 25.307 0 0 0 7.79 3.75Z"/>
</svg>
