<svg xmlns="http://www.w3.org/2000/svg" width="24" height="24" fill="currentColor" viewBox="0 0 24 24">
  <path d="m10.44 10.23.82 2.47H9.35l1.09-2.47ZM22.05 16a6 6 0 0 1-5.93 6H8a6 6 0 0 1-6-5.93V8a6 6 0 0 1 5.88-6H16a6 6 0 0 1 6 5.93l.05 8.07Zm-8.12 0-2.68-8.08a.73.73 0 0 0-.67-.51.74.74 0 0 0-.72.44l-3.59 8.08a.75.75 0 1 0 1.37.6l1-2.33h3.08l.75 2.27a.75.75 0 0 0 .71.51c.08.014.16.014.24 0a.749.749 0 0 0 .51-.98Zm3.55-5.23a.75.75 0 1 0-1.5 0v5.47a.75.75 0 1 0 1.5 0v-5.47Zm.24-2.6a1 1 0 1 0-.073.376c.05-.123.074-.254.073-.386v.01Z"/>
</svg>
