<svg xmlns="http://www.w3.org/2000/svg" width="24" height="25" fill="currentColor" viewBox="0 0 24 25">
  <path d="M21.39 11.236 20 9.826a1 1 0 0 1-.3-.73v-2a2.08 2.08 0 0 0-2.1-2.07h-2a1 1 0 0 1-.73-.3l-1.4-1.41a2.08 2.08 0 0 0-2.94 0l-1.41 1.39a1 1 0 0 1-.73.3h-2a2.08 2.08 0 0 0-2.07 2.1v2a1 1 0 0 1-.3.73l-1.41 1.4a2.08 2.08 0 0 0 0 2.94L4 15.586a1 1 0 0 1 .3.73v2a2.08 2.08 0 0 0 2.1 2.07h2a1 1 0 0 1 .73.3l1.41 1.41a2.08 2.08 0 0 0 2.94 0l1.4-1.39a1.001 1.001 0 0 1 .73-.3h2a2.08 2.08 0 0 0 2.08-2.08v-2a1.002 1.002 0 0 1 .3-.73l1.41-1.41a2.078 2.078 0 0 0-.01-2.95ZM11 8.446a1 1 0 0 1 2 0v4.66a1 1 0 0 1-2 0v-4.66Zm1 9.52a1.25 1.25 0 1 1 0-2.5 1.25 1.25 0 0 1 0 2.5Z"/>
</svg>
