<svg xmlns="http://www.w3.org/2000/svg" width="24" height="25" fill="currentColor" viewBox="0 0 24 25">
  <path d="M18.17 2.414H5.83a2.5 2.5 0 0 0-2.49 2.76l1.42 13.63a2.48 2.48 0 0 0 1.79 2.14l4.76 1.37c.45.13.93.13 1.38 0l4.78-1.37a2.51 2.51 0 0 0 1.8-2.15l1.39-13.62a2.499 2.499 0 0 0-2.49-2.76Zm-6.9 14.54a.77.77 0 0 1-.3.61.74.74 0 0 1-.45.15.835.835 0 0 1-.22 0l-3.11-.93a.76.76 0 0 1-.51-.94.75.75 0 0 1 .93-.51l2.15.64v-7.83a.76.76 0 1 1 1.51 0v8.81Zm5.45-8.34-2.6.41v3.39l2.19-.28a.74.74 0 0 1 .85.75v3a.75.75 0 0 1-.54.72l-3 .88a.76.76 0 0 1-.43-1.45l2.49-.72v-1.54l-2.19.27a.71.71 0 0 1-.59-.18.73.73 0 0 1-.26-.56v-4.89a.75.75 0 0 1 .64-.75l3.23-.51a.77.77 0 0 1 .87.63.76.76 0 0 1-.66.83Z"/>
</svg>
