<svg xmlns="http://www.w3.org/2000/svg" width="24" height="25" fill="currentColor" viewBox="0 0 24 25">
  <path d="M14.9 10.964a1.45 1.45 0 1 1-1.44-1.44 1.44 1.44 0 0 1 1.44 1.44Zm7.1-3.39v9.68a5.15 5.15 0 0 1-5.16 5.16H7.16A5.151 5.151 0 0 1 2 17.254v-9.68a5.16 5.16 0 0 1 5.16-5.16h9.68A5.16 5.16 0 0 1 22 7.574Zm-4.14 3.39a4.41 4.41 0 0 0-8.81 0c.003.45.074.9.21 1.33l-2.9 2.9a.79.79 0 0 0-.21.69l.29 1.47a.77.77 0 0 0 .6.61l1.49.29a.751.751 0 0 0 .68-.21l.66-.63-1.07-1a.75.75 0 0 1 1.06-1.06l1.1 1.05 1.18-1.17c.436.141.892.212 1.35.21a4.4 4.4 0 0 0 4.37-4.48Z"/>
</svg>
