<svg xmlns="http://www.w3.org/2000/svg" width="24" height="25" fill="currentColor" viewBox="0 0 24 25">
  <path d="M11.25 9.546v-1.1a2.89 2.89 0 0 1 2.88-2.89h.49A1.38 1.38 0 0 0 16 4.176v-.65a.75.75 0 1 1 1.5 0v.65a2.88 2.88 0 0 1-2.88 2.88h-.49a1.38 1.38 0 0 0-1.38 1.39v1.1h-1.5ZM22 10.706v10.73a1.2 1.2 0 0 1-1.2 1.2H3.2a1.2 1.2 0 0 1-1.2-1.2v-10.73a1.2 1.2 0 0 1 1.2-1.2h17.6a1.2 1.2 0 0 1 1.2 1.2Zm-7 5.07a.73.73 0 1 0 .73.73.73.73 0 0 0-.73-.69v-.04Zm-1.73-2.27a.73.73 0 1 0 .044-.251.73.73 0 0 0-.044.291v-.04ZM12 15.816a.73.73 0 1 0 0 1.46.73.73 0 0 0 0-1.46Zm-1.73-2.27a.73.73 0 1 0 1.46 0 .73.73 0 0 0-1.46 0Zm-6 0a.73.73 0 1 0 1.46 0 .73.73 0 0 0-1.46 0Zm2.6 6a.75.75 0 0 0-.75-.75H4.88a.75.75 0 1 0 0 1.5h1.24a.76.76 0 0 0 .75-.75Zm0-3a.75.75 0 0 0-.75-.75H4.88a.75.75 0 1 0 0 1.5h1.24a.76.76 0 0 0 .75-.75ZM8 14.276a.73.73 0 1 0 0-1.458.73.73 0 0 0 0 1.458Zm.27 2.27a.73.73 0 1 0 1.46 0 .73.73 0 0 0-1.46 0Zm8.48 3a.75.75 0 0 0-.75-.75H9.15a.75.75 0 1 0 0 1.5H16a.76.76 0 0 0 .75-.75Zm3 0a.73.73 0 1 0-.73.73.73.73 0 0 0 .71-.73h.02Zm0-3a.75.75 0 0 0-.75-.75h-1.23a.75.75 0 1 0 0 1.5H19a.76.76 0 0 0 .75-.75Zm.12-3a.75.75 0 0 0-.75-.75H17a.75.75 0 1 0 0 1.5h2.12a.76.76 0 0 0 .75-.75Z"/>
</svg>
