<svg xmlns="http://www.w3.org/2000/svg" width="24" height="25" fill="currentColor" viewBox="0 0 24 25">
  <path d="M10.05 17.974v4.29a1.437 1.437 0 0 1-.5-.13l-6.81-3.88a.999.999 0 0 1-.51-.84V4.583l.14.1L6 6.824l.09 8.79 3.92 2.36m7.84-4.49v-4.4l-3.74-2.24a1 1 0 0 0-.13.5v3.87l3.91 2.27h-.04Zm-4.42-1.4-.43-.29-2.87 1.62-3 1.67 2.92 1.76 5.83-3.34-2.45-1.42ZM7 6.814l.07 7.11 2.56-1.41.5-.27v-7c.01-.09.01-.18 0-.27a.82.82 0 0 0-.1-.24L7 6.284v.53Zm-.45-1.4 2.53-1.38-2.47-1.35a1 1 0 0 0-.48-.12.91.91 0 0 0-.48.13l-1.46.81-1 .53 2.87 1.65.49-.27Zm4.5 16.23.08.16 6.27-3.65a1.71 1.71 0 0 0 .2-.16 1 1 0 0 0 .29-.71v-3.8L11 17.413l.05 4.23Zm10.59-14.79a1.005 1.005 0 0 0-.15-.2.83.83 0 0 0-.21-.16l-2.89-1.69a1 1 0 0 0-.5-.13 1 1 0 0 0-.5.13L15 6.194l3.43 2 .47.27 2.77-1.64-.03.03Zm-2.26 2.5-.49.3v3.24l2.39-1.39.06-.05a1 1 0 0 0 .4-.61.69.69 0 0 0 0-.2v-2.7l-2.36 1.41Z"/>
</svg>
