<svg xmlns="http://www.w3.org/2000/svg" width="24" height="25" fill="currentColor" viewBox="0 0 24 25">
  <path d="M18.08 2.414H5.92A2.93 2.93 0 0 0 3 5.264v11a2.92 2.92 0 0 0 2.92 2.92h1.14a2.23 2.23 0 0 1 1.63.71l1.7 1.84a2.221 2.221 0 0 0 3.23 0l1.81-1.9a2.25 2.25 0 0 1 1.6-.68h1a2.918 2.918 0 0 0 3-2.87v-11a2.93 2.93 0 0 0-2.95-2.87Zm-5.73 12.55a.869.869 0 0 1-.69 0c-1.07-.49-4.3-2.21-4.25-5.3a2.76 2.76 0 0 1 2-2.66 2.94 2.94 0 0 1 2.35.36.34.34 0 0 0 .41 0 3 3 0 0 1 2.55-.3 2.78 2.78 0 0 1 1.83 2.56c-.02 3.46-3.13 4.94-4.2 5.34Z"/>
</svg>
