<svg xmlns="http://www.w3.org/2000/svg" width="24" height="25" fill="currentColor" viewBox="0 0 24 25">
  <path d="M18.08 2.414H5.92A2.92 2.92 0 0 0 3 5.284v11a2.92 2.92 0 0 0 2.92 2.92h1.14a2.19 2.19 0 0 1 1.63.71l1.7 1.84a2.23 2.23 0 0 0 3.23 0l1.81-1.9a2.21 2.21 0 0 1 1.6-.68h1a2.92 2.92 0 0 0 2.97-2.89v-11a2.92 2.92 0 0 0-2.92-2.87Zm-1.44 8.29-1.24 4a1.07 1.07 0 0 1-1 .76H12a1.59 1.59 0 0 1-.94-.3l-1.26-1v-.07a.76.76 0 0 1-.76.76H8a.76.76 0 0 1-.76-.76v-5.14a.76.76 0 0 1 .76-.76h1a.76.76 0 0 1 .76.76v.58l1.89-2.86a1.07 1.07 0 0 1 1.94.74l-.25 1.43a.57.57 0 0 0 .55.67h1.95a.84.84 0 0 1 .8 1.14v.05Z"/>
</svg>
