<svg xmlns="http://www.w3.org/2000/svg" width="24" height="25" fill="currentColor" viewBox="0 0 24 25">
  <path d="M21.39 10.944 20 9.534a.999.999 0 0 1-.3-.73v-2a2.08 2.08 0 0 0-2.1-2.07h-2a1 1 0 0 1-.73-.3l-1.4-1.41a2.08 2.08 0 0 0-2.94 0l-1.41 1.39a1 1 0 0 1-.73.3h-2a2.08 2.08 0 0 0-2.07 2.1v2a1 1 0 0 1-.3.73l-1.41 1.4a2.08 2.08 0 0 0 0 2.94L4 15.293a1 1 0 0 1 .3.73v2a2.08 2.08 0 0 0 2.1 2.07h2a.998.998 0 0 1 .73.3l1.41 1.41a2.08 2.08 0 0 0 2.94 0l1.4-1.39a1.001 1.001 0 0 1 .73-.3h2a2.08 2.08 0 0 0 2.08-2.08v-2a1 1 0 0 1 .3-.73l1.41-1.41a2.08 2.08 0 0 0-.01-2.95Zm-4.6 1.3-1.24 4.05a1.08 1.08 0 0 1-1 .76H12.1a1.63 1.63 0 0 1-.93-.3l-1.26-1v-.07a.76.76 0 0 1-.76.76h-1a.76.76 0 0 1-.76-.76v-5.14a.76.76 0 0 1 .76-.76h1a.76.76 0 0 1 .76.76v.58l1.89-2.86a1.06 1.06 0 0 1 1.94.77l-.25 1.43a.57.57 0 0 0 .56.67H16a.86.86 0 0 1 .79 1.11Z"/>
</svg>
