<svg xmlns="http://www.w3.org/2000/svg" width="24" height="25" fill="currentColor" viewBox="0 0 24 25">
  <path d="M16.72 6.807h-2.93a2.62 2.62 0 0 1-2.42-1.64l-.37-.84a2.58 2.58 0 0 0-2.41-1.62h-2A4.58 4.58 0 0 0 2 7.277v10.16a5.27 5.27 0 0 0 5.28 5.27h9.44a5.27 5.27 0 0 0 5.28-5.27v-5.35a5.271 5.271 0 0 0-5.28-5.28Zm-4 9.29a1.5 1.5 0 0 1-1.72 0c-.85-.56-2-1.5-2-2.56a1.65 1.65 0 0 1 1.46-1.83 1.45 1.45 0 0 1 1.25.77.171.171 0 0 0 .165.097.171.171 0 0 0 .065-.017.16.16 0 0 0 .08-.08 1.45 1.45 0 0 1 1.28-.77 1.63 1.63 0 0 1 1.51 1.75c0 1-1.21 2.03-2.07 2.64h-.02Z"/>
</svg>
