<svg xmlns="http://www.w3.org/2000/svg" width="24" height="25" fill="currentColor" viewBox="0 0 24 25">
  <path d="M12 7.707a1 1 0 0 1-1-1v-3a1 1 0 0 1 2 0v3a1 1 0 0 1-1 1Zm-2.59.56a1 1 0 0 0 .36-1.37l-1.38-2.35a1 1 0 0 0-1.73 1L8 7.917a1 1 0 0 0 .86.49.94.94 0 0 0 .55-.14Zm-2 1.78a1 1 0 0 0-.32-1.34L5 7.437a1 1 0 0 0-1 1.73l2.08 1.24a.999.999 0 0 0 .5.13 1 1 0 0 0 .87-.49h-.04Zm-.82 2.66a1 1 0 0 0-1-1H3.41a1 1 0 0 0 0 2h2.18a1 1 0 0 0 1-1Zm10.16-6.49a1 1 0 1 1-2 0 1 1 0 0 1 2 0ZM5.21 17.837l1.64-1a1 1 0 1 0-1-1.73l-1.65 1a1 1 0 0 0-.35 1.37 1 1 0 0 0 .86.5 1.06 1.06 0 0 0 .5-.14Zm2.59 3.05a.9.9 0 0 1-.5-.18 1 1 0 0 1-.36-1.36l.83-1.42a1 1 0 0 1 1.72 1l-.83 1.41a1 1 0 0 1-.86.55Zm4.2 1a1 1 0 0 1-1-1v-1.36a1 1 0 0 1 2 0v1.36a1 1 0 0 1-1 1Zm4.06-1.18a1 1 0 0 1-.86-.5l-.55-.94a1 1 0 1 1 1.72-1l.55.94a1 1 0 0 1-.35 1.37c-.157.085-.332.13-.51.13Zm2.77-3a1 1 0 0 1-.51-.13l-.7-.42a.999.999 0 1 1 1-1.72l.7.41a1 1 0 0 1 .36 1.37 1 1 0 0 1-.85.49Zm.94-4h-.54a1 1 0 1 1 0-2h.54a1 1 0 0 1 0 2Zm-1.42-3.73a1 1 0 0 1-.51-1.86l.24-.14a1 1 0 0 1 1 1.72l-.23.14a1.06 1.06 0 0 1-.5.14Z"/>
</svg>
