<svg xmlns="http://www.w3.org/2000/svg" width="24" height="25" fill="currentColor" viewBox="0 0 24 25">
  <path d="M13.63 16.144a1.63 1.63 0 1 1-3.26 0 1.63 1.63 0 0 1 3.26 0Zm8.37-2.37v4.74a3.91 3.91 0 0 1-3.91 3.9H5.91a3.91 3.91 0 0 1-3.91-3.9v-4.74a3.9 3.9 0 0 1 3.72-3.89v-2.05a5.44 5.44 0 0 1 5.43-5.42h1.7a5.44 5.44 0 0 1 5.43 5.43v2.04a3.9 3.9 0 0 1 3.72 3.89ZM7.22 7.834v2h9.56v-2a3.93 3.93 0 0 0-3.93-3.93h-1.7a3.93 3.93 0 0 0-3.93 3.93Zm7.91 8.31a3.13 3.13 0 1 0-6.261 0 3.13 3.13 0 0 0 6.261 0Z"/>
</svg>
