<svg xmlns="http://www.w3.org/2000/svg" width="24" height="25" fill="currentColor" viewBox="0 0 24 25">
  <path d="M18.09 9.864h.19v-2.03a5.44 5.44 0 0 0-5.43-5.42h-1.7a5.44 5.44 0 0 0-5.43 5.42v2.05h.19A3.91 3.91 0 0 0 2 13.774v4.74a3.91 3.91 0 0 0 3.91 3.9h12.18a3.91 3.91 0 0 0 3.91-3.9v-4.74a3.91 3.91 0 0 0-3.91-3.91Zm-10.87-2a3.93 3.93 0 0 1 3.93-3.93h1.7a3.93 3.93 0 0 1 3.93 3.93v2H7.22v-2Zm.78 8.9a1 1 0 1 1 0-2 1 1 0 0 1 0 2Zm4 0a1 1 0 1 1 0-2 1 1 0 0 1 0 2Zm4 0a1 1 0 1 1 0-2 1 1 0 0 1 0 2Z"/>
</svg>
