<svg xmlns="http://www.w3.org/2000/svg" width="24" height="25" fill="currentColor" viewBox="0 0 24 25">
  <path d="M13.06 14.194a1.06 1.06 0 1 1-2.12-.02 1.06 1.06 0 0 1 2.12.02Zm1.12-3.33v-1.07a1.74 1.74 0 0 0-1.73-1.73h-.9a1.74 1.74 0 0 0-1.73 1.73v1.07h4.36Zm7.82 1.55a10 10 0 1 1-20 0 10 10 0 0 1 20 0Zm-4.71.52a2.06 2.06 0 0 0-1.61-2v-1.14a3.23 3.23 0 0 0-3.23-3.23h-.9a3.23 3.23 0 0 0-3.23 3.23v1.13a2.06 2.06 0 0 0-1.61 2v2.49a2.07 2.07 0 0 0 2.07 2.1h6.44a2.071 2.071 0 0 0 2.07-2.1v-2.48Z"/>
</svg>
