<svg xmlns="http://www.w3.org/2000/svg" width="24" height="25" fill="currentColor" viewBox="0 0 24 25">
  <path d="M19.54 13.246h-.67l-5.37-5.12a2.35 2.35 0 0 0-.75-4.06v-1a.75.75 0 0 0-1.5 0v1.64a.75.75 0 0 0 .75.75.87.87 0 0 1 .87.87.86.86 0 0 1-.51.78.71.71 0 0 0-.72 0 .86.86 0 0 1-.51-.78.75.75 0 0 0-1.5 0 2.36 2.36 0 0 0 .87 1.82l-5.34 5.06h-.7a1.11 1.11 0 0 0-1.11 1.1v6.85a1.11 1.11 0 0 0 1.11 1.15h15.08a1.11 1.11 0 0 0 1.11-1.11v-6.85a1.11 1.11 0 0 0-1.11-1.1Zm-12.45 6.74a.75.75 0 1 1-1.5 0v-4.66a.75.75 0 1 1 1.5 0v4.66Zm3.77 0a.75.75 0 0 1-1.5 0v-4.66a.75.75 0 1 1 1.5 0v4.66Zm3.78 0a.75.75 0 0 1-1.5 0v-4.66a.75.75 0 1 1 1.5 0v4.66Zm-7.34-6.74 4.7-4.48 4.7 4.48H7.3Zm11.11 6.74a.75.75 0 0 1-1.5 0v-4.66a.75.75 0 1 1 1.5 0v4.66Z"/>
</svg>
