<svg xmlns="http://www.w3.org/2000/svg" width="24" height="25" fill="currentColor" viewBox="0 0 24 25">
  <path d="M10.6 16.047v4.73a1.93 1.93 0 0 1-1.93 1.93H3.94A1.94 1.94 0 0 1 2 20.776v-4.73a1.94 1.94 0 0 1 1.94-1.93h.93v1.91a1 1 0 0 0 1 .95h1a1 1 0 0 0 1-.95v-1.91h.93a1.93 1.93 0 0 1 1.8 1.93Zm9.54-1.93h-.93v1.91a1 1 0 0 1-1 .95h-.91a1 1 0 0 1-1-.95v-1.91h-.93a1.94 1.94 0 0 0-1.94 1.93v4.73a1.94 1.94 0 0 0 1.98 1.93h4.73a1.94 1.94 0 0 0 1.94-1.93v-4.73a1.94 1.94 0 0 0-1.94-1.93ZM8.67 2.707h-.93v1.87a1 1 0 0 1-1 1h-1a1 1 0 0 1-1-1v-1.87H4a2 2 0 0 0-2 2v4.62a1.94 1.94 0 0 0 1.94 1.93h4.73a1.93 1.93 0 0 0 1.93-1.93v-4.73a1.93 1.93 0 0 0-1.93-1.89Zm11.47 0h-.93v1.87a1 1 0 0 1-1 1h-.91a1 1 0 0 1-1-1v-1.87h-.93a1.94 1.94 0 0 0-1.94 1.93v4.69a1.94 1.94 0 0 0 1.94 1.93h4.73a1.94 1.94 0 0 0 1.94-1.93v-4.73a1.94 1.94 0 0 0-1.9-1.89Z"/>
</svg>
