<svg xmlns="http://www.w3.org/2000/svg" width="24" height="25" fill="currentColor" viewBox="0 0 24 25">
  <path d="M13.21 19.593a4.39 4.39 0 0 1-.48.18.94.94 0 0 1-.68 0c-1.66-.74-8.75-4.12-8.65-10.48a5.34 5.34 0 0 1 4-5.16 5.79 5.79 0 0 1 5 1 5.82 5.82 0 0 1 5.42-.87 5.37 5.37 0 0 1 3.57 5 9.66 9.66 0 0 1-.08 1.1 4.54 4.54 0 0 0-4.41.05 4.6 4.6 0 0 0-3.45-.47 4.2 4.2 0 0 0-3.16 4.07 7.07 7.07 0 0 0 2.92 5.58Zm3.69-7.33-.46-.35a2.94 2.94 0 0 0-1.81-.62 3.739 3.739 0 0 0-.81.1 2.73 2.73 0 0 0-2 2.65c-.07 3.69 4.29 5.73 5.17 6.1.75-.29 5-1.95 5-6.17a2.78 2.78 0 0 0-1.81-2.51 3 3 0 0 0-2.84.45l-.44.35Z"/>
</svg>
