<svg xmlns="http://www.w3.org/2000/svg" width="24" height="25" fill="currentColor" viewBox="0 0 24 25">
  <path d="M7.75 8.824a1.36 1.36 0 1 1 1.36 1.35 1.351 1.351 0 0 1-1.36-1.35ZM22 8.414v8.1a6 6 0 0 1-5.95 5.9H8a6 6 0 0 1-6-5.95v-8.05a6 6 0 0 1 6-6h8.1a6 6 0 0 1 5.9 6Zm-15.58 2.81 1.83 2.06a1.15 1.15 0 0 0 1.71 0l1.84-2.06a3.61 3.61 0 1 0-5.38 0Zm8.85 3.08 6.64-6.89a5.91 5.91 0 0 0-.52-1.62l-15.48 16.1-.08.12c.537.215 1.103.35 1.68.4l6.72-7 5.24 5.33a.76.76 0 0 0 .5.22c.28-.251.537-.526.77-.82a.65.65 0 0 0-.2-.45l-5.27-5.39Z"/>
</svg>
