<svg xmlns="http://www.w3.org/2000/svg" width="24" height="25" fill="currentColor" viewBox="0 0 24 25">
  <path d="M20.58 3.833a4.7 4.7 0 0 0-6.15-.42 1.17 1.17 0 0 0-.57.16c-.86.58-1.76 1.19-2.6 1.84a2.4 2.4 0 0 1-2.26.36 2.82 2.82 0 0 0-3.64 3.64 2.4 2.4 0 0 1-.36 2.25c-.64.84-1.25 1.71-1.82 2.62a1.17 1.17 0 0 0 .18 1.44l5.34 5.35a1.17 1.17 0 0 0 1.44.17 33.922 33.922 0 0 0 10.69-10.7 1.13 1.13 0 0 0 .17-.56 4.68 4.68 0 0 0-.42-6.15Zm-10.36 3.2a1.002 1.002 0 1 1 .13 2c-1.17.07-1.67.57-1.73 1.71a1 1 0 0 1-1 .95h-.05a1 1 0 0 1-.94-1 3.54 3.54 0 0 1 3.59-3.66Zm-2.16 9.38a1 1 0 0 1-.71.29 1 1 0 0 1-.71-.29 1 1 0 0 1 0-1.41l8-8A1 1 0 0 1 16 8.463l-7.94 7.95Zm10.66-5.52a37.304 37.304 0 0 1-8.2 8.2.997.997 0 0 1-.59.2 1 1 0 0 1-.967-.763 1 1 0 0 1 .377-1.047 35.692 35.692 0 0 0 7.76-7.73 1 1 0 0 1 1.62 1.17v-.03Zm-2.86-6.6a3.28 3.28 0 0 1 1.4-.34 3.16 3.16 0 0 1 2.26.94 3.2 3.2 0 0 1 .6 3.66l.54.54-4.8-4.8Zm5.06 5.24c-.01-.01 0 0 0 0ZM9.57 21.413a4.73 4.73 0 0 1-2.83 1A4.68 4.68 0 0 1 3 14.843a1.14 1.14 0 0 0 .33.88l.54.54a3.17 3.17 0 0 0 4.26 4.26l.54.55a1.209 1.209 0 0 0 .9.34Z"/>
</svg>
