<svg xmlns="http://www.w3.org/2000/svg" width="24" height="25" fill="currentColor" viewBox="0 0 24 25">
  <path d="M16.81 2.707H7.19A5.19 5.19 0 0 0 2 7.897v9.62a5.19 5.19 0 0 0 5.19 5.19h9.62a5.19 5.19 0 0 0 5.19-5.19v-9.62a5.19 5.19 0 0 0-5.19-5.19Zm-14 5.93a5.15 5.15 0 0 1 5.12-5.14h1.74a.75.75 0 1 1 0 1.5H7.93a3.64 3.64 0 0 0-3.64 3.64v1.8a.75.75 0 1 1-1.5 0l.02-1.8Zm7 13.28H7.93a5.15 5.15 0 0 1-5.14-5.14v-1.81a.75.75 0 0 1 1.5 0v1.81a3.64 3.64 0 0 0 3.64 3.64H9.8a.75.75 0 0 1 0 1.5h.01Zm11.41-5.14a5.15 5.15 0 0 1-5.14 5.14h-1.75a.75.75 0 1 1 0-1.5h1.74a3.64 3.64 0 0 0 3.64-3.64v-1.94a.75.75 0 0 1 1.5 0l.01 1.94Zm0-6.48a.75.75 0 1 1-1.5 0v-1.66a3.64 3.64 0 0 0-3.64-3.64H14.2a.75.75 0 1 1 0-1.5h1.87a5.15 5.15 0 0 1 5.14 5.14l.01 1.66Z"/>
</svg>
