<svg xmlns="http://www.w3.org/2000/svg" width="24" height="25" fill="currentColor" viewBox="0 0 24 25">
  <path d="M12.26 2.644a6.95 6.95 0 1 0-.02 13.9 6.95 6.95 0 0 0 .02-13.9Zm3.19 6.68-.89.87a.64.64 0 0 0-.18.57l.21 1.23a.64.64 0 0 1-.93.67l-1.11-.58a.619.619 0 0 0-.59 0l-1.11.58a.63.63 0 0 1-.92-.67l.21-1.23a.67.67 0 0 0-.14-.57l-.89-.87a.64.64 0 0 1 .35-1.09l1.24-.18a.63.63 0 0 0 .48-.35l.55-1.12a.64.64 0 0 1 1.15 0l.55 1.12a.64.64 0 0 0 .48.35l1.24.18a.64.64 0 0 1 .3 1.09Zm5.76 9.6-1.41.17a1 1 0 0 0-.85.8l-.25 1.39a.999.999 0 0 1-1.69.5l-3.6-3.83a8.48 8.48 0 0 0 5.74-3.54l2.66 2.82a1 1 0 0 1-.6 1.69Zm-10.49-1L7 21.864a1 1 0 0 1-1.7-.45l-.25-1.39a1 1 0 0 0-.85-.8l-1.41-.21a1.001 1.001 0 0 1-.6-1.6l3-3.18a8.46 8.46 0 0 0 5.53 3.66v.03Z"/>
</svg>
