<svg xmlns="http://www.w3.org/2000/svg" width="24" height="25" fill="currentColor" viewBox="0 0 24 25">
  <path d="M22 5.387a2.65 2.65 0 1 1-2.67-2.68A2.64 2.64 0 0 1 22 5.387Zm-.72 3.58v6.29a4.67 4.67 0 0 1-4.67 4.67h-1.56a1.33 1.33 0 0 0-1.08.56l-1.07 1.53a1.541 1.541 0 0 1-2.52 0l-1.07-1.53a1.33 1.33 0 0 0-1.08-.56H6.7a4.67 4.67 0 0 1-4.7-4.67v-7.12a4.67 4.67 0 0 1 4.7-4.67h9.05a3.9 3.9 0 0 0-.51 1.92 4.06 4.06 0 0 0 6 3.58h.04Zm-12.53 3.14a1 1 0 1 0-2 0 1 1 0 0 0 2 0Zm3.85 0a1 1 0 1 0-2 0 1 1 0 0 0 2 0Zm3.84 0a1 1 0 1 0-2 0 1 1 0 0 0 2 0Z"/>
</svg>
