<svg xmlns="http://www.w3.org/2000/svg" width="24" height="25" fill="currentColor" viewBox="0 0 24 25">
  <path d="M17.38 2.707H6.62A4.62 4.62 0 0 0 2 7.317v7.76a4.62 4.62 0 0 0 4.62 4.63h1.73a1.23 1.23 0 0 1 .94.45l1.71 2.11a1.22 1.22 0 0 0 1.9 0l1.6-2.06a1.231 1.231 0 0 1 1-.48h1.88a4.618 4.618 0 0 0 4.62-4.65v-7.76a4.62 4.62 0 0 0-4.62-4.61Zm-8.84 10.16a.75.75 0 0 1-.54 1.29.699.699 0 0 1-.52-.22l-2-2a.73.73 0 0 1-.22-.54.72.72 0 0 1 .23-.53l2-1.93a.75.75 0 1 1 1 1.08l-1.41 1.42 1.46 1.43Zm5.13-3.42-1.87 4.49a.76.76 0 0 1-.69.46c-.1 0-.198-.02-.29-.06a.75.75 0 0 1-.4-1l1.87-4.49a.75.75 0 1 1 1.38.58v.02Zm4.85 2.52-2 2a.7.7 0 0 1-.52.22.75.75 0 0 1-.53-1.29l1.46-1.43-1.46-1.42a.75.75 0 1 1 1-1.08l2 1.93a.72.72 0 0 1 .23.53.73.73 0 0 1-.18.54Z"/>
</svg>
