<svg xmlns="http://www.w3.org/2000/svg" width="24" height="25" fill="currentColor" viewBox="0 0 24 25">
  <path d="M14.19 6.707Zm2.18.67a3.89 3.89 0 0 1 1.72 3.23v5.84-5.86a3.89 3.89 0 0 0-1.72-3.23v.02Zm1.68-4.67H9.81a3.91 3.91 0 0 0-3.81 3h8.17a4.91 4.91 0 0 1 4.9 4.9v5.69a3.88 3.88 0 0 0 2.93-3.76v-5.95a3.909 3.909 0 0 0-3.95-3.88Zm0 7.9v5.95a3.9 3.9 0 0 1-3.9 3.9h-1.23a1.07 1.07 0 0 0-.9.47l-.9 1.27a1.28 1.28 0 0 1-2.1 0l-.9-1.27a1.07 1.07 0 0 0-.9-.47H6a3.91 3.91 0 0 1-3.9-3.9v-5.97A3.91 3.91 0 0 1 6 6.707h8.24a3.9 3.9 0 0 1 3.85 3.88l-.04.02Zm-10.53 3.1a.94.94 0 1 0-.94.94.95.95 0 0 0 .94-.94Zm3.48 0a.94.94 0 1 0-1.879 0 .94.94 0 0 0 1.879 0Zm3.5 0a.94.94 0 1 0-.94.94.95.95 0 0 0 .95-.94h-.01Z"/>
</svg>
