<svg xmlns="http://www.w3.org/2000/svg" width="24" height="25" fill="currentColor" viewBox="0 0 24 25">
  <path d="M16.82 2.707H7.18A5.18 5.18 0 0 0 2 7.887v13.82a1 1 0 0 0 1 1h13.8a5.18 5.18 0 0 0 5.2-5.18v-9.64a5.18 5.18 0 0 0-5.18-5.18ZM12 17.327a1.73 1.73 0 0 1-.9.63l-2.33.75A1.419 1.419 0 0 1 7 17.276v-2.52a1.86 1.86 0 0 1 .34-1.05l2.8-3.78a5.56 5.56 0 0 0 1.86 2.51 5.37 5.37 0 0 0 2.86 1.11L12 17.326Zm4.63-6.26-.74 1a3.82 3.82 0 0 1-3.13-.75 3.999 3.999 0 0 1-1.56-2.87l.74-1a1.86 1.86 0 0 1 2.65-.38l1.67 1.29a2 2 0 0 1 .4 2.71h-.03Z"/>
</svg>
