<svg xmlns="http://www.w3.org/2000/svg" width="24" height="25" fill="currentColor" viewBox="0 0 24 25">
  <path d="M17.49 2.684h-11A4.51 4.51 0 0 0 2 7.194v6.82a4.51 4.51 0 0 0 4.51 4.51.49.49 0 0 1 .49.49v2.17a1 1 0 0 0 1.53.78l4.47-3.26a1 1 0 0 1 .57-.18h3.89a4.508 4.508 0 0 0 4.54-4.51v-6.82a4.51 4.51 0 0 0-4.51-4.51ZM12 14.904a.75.75 0 1 1 .75-.75.76.76 0 0 1-.75.75Zm1.16-4.09a1 1 0 0 0-.41.86v.28a.75.75 0 1 1-1.5 0v-.28a2.49 2.49 0 0 1 1.15-2.16.78.78 0 0 0 .4-.68.8.8 0 0 0-1.6 0 .75.75 0 1 1-1.5 0 2.3 2.3 0 1 1 3.46 2v-.02Z"/>
</svg>
