<svg xmlns="http://www.w3.org/2000/svg" width="24" height="25" fill="currentColor" viewBox="0 0 24 25">
  <path d="m13.37 4.093 7.22-.9A1.25 1.25 0 0 1 22 4.413v5.75a1.25 1.25 0 0 1-1.25 1.25h-7.23a1.25 1.25 0 0 1-1.25-1.25v-4.83a1.25 1.25 0 0 1 1.1-1.24Zm-3.1 6.07v-4.26a1.25 1.25 0 0 0-1.41-1.24l-5.76.75A1.25 1.25 0 0 0 2 6.623v3.54a1.25 1.25 0 0 0 1.25 1.25H9a1.25 1.25 0 0 0 1.27-1.25Zm2 4.5v4.82a1.25 1.25 0 0 0 1.1 1.25l7.22.9a1.25 1.25 0 0 0 1.41-1.22v-5.75a1.25 1.25 0 0 0-1.25-1.25h-7.23a1.25 1.25 0 0 0-1.25 1.25ZM9 13.413H3.25A1.25 1.25 0 0 0 2 14.663v3.54a1.25 1.25 0 0 0 1.1 1.21l5.76.72a1.248 1.248 0 0 0 1.41-1.24v-4.23A1.252 1.252 0 0 0 9 13.413Z"/>
</svg>
