<svg xmlns="http://www.w3.org/2000/svg" width="24" height="25" fill="currentColor" viewBox="0 0 24 25">
  <path d="M18 11.757v4.7h-.09c-2.57.31-4.39 0-5-.85-1.5-2.11-4.93-2-6.91-1.77v-2.13a2.9 2.9 0 0 1 .85-2l1-1A3.94 3.94 0 0 0 9 5.906v-.29a1.49 1.49 0 0 1 .5-2.91h5a1.5 1.5 0 0 1 .43 2.93v.25a3.91 3.91 0 0 0 1.18 2.82l1 1a2.85 2.85 0 0 1 .89 2.05Zm-1.93 6.31c-2.15 0-3.62-.54-4.38-1.6-1.14-1.6-4.57-1.28-5.59-1.14H6v4.51a2.88 2.88 0 0 0 2.88 2.87h6.24a2.88 2.88 0 0 0 2.88-2.88v-1.88c-.64.076-1.285.116-1.93.12Z"/>
</svg>
