<svg xmlns="http://www.w3.org/2000/svg" width="24" height="25" fill="currentColor" viewBox="0 0 24 25">
  <path d="M20.07 10.207h-6a2 2 0 0 0-1.94 2v8.5a2 2 0 0 0 1.94 2h6a2 2 0 0 0 1.93-2v-8.53a2 2 0 0 0-1.93-1.97Zm-3 10.83a1.11 1.11 0 1 1 1.09-1.1 1.09 1.09 0 0 1-1.09 1.1Zm-5.84.43H7.28a.75.75 0 1 1 0-1.5h2.94v-2.63H5.78A3.81 3.81 0 0 1 2 13.507v-7a3.81 3.81 0 0 1 3.78-3.8h11.07a3.81 3.81 0 0 1 3.77 3.83v2.73a3.31 3.31 0 0 0-.55-.06h-6a3 3 0 0 0-2.94 3v8.5c.004.256.038.51.1.76Zm1 0a1.995 1.995 0 0 1-.1-.35c.04.119.087.235.14.35h-.04Z"/>
</svg>
