<svg xmlns="http://www.w3.org/2000/svg" width="24" height="25" fill="currentColor" viewBox="0 0 24 25">
  <path d="M6.3 4.757c.21-.131.453-.2.7-.2a1.35 1.35 0 0 1 .67.15l8.57 5v4.58l-10-6.38v8.18l4.23 2.44-2.88 1.65a1.35 1.35 0 0 1-1.36 0l-2.79-1.67a1.34 1.34 0 0 1-.66-1.16v-9.71a1.35 1.35 0 0 1 .65-1.15l2.87-1.73Zm11.5 15.41 2.79-1.66a1.34 1.34 0 0 0 .66-1.16v-9.71a1.35 1.35 0 0 0-.65-1.15l-2.87-1.73a1.36 1.36 0 0 0-1.38 0l-2.84 1.62 4.23 2.44v8.18l-10-6.38v4.57l8.65 5a1.37 1.37 0 0 0 1.41-.02Z"/>
</svg>
