<svg xmlns="http://www.w3.org/2000/svg" width="24" height="25" fill="currentColor" viewBox="0 0 24 25">
  <path d="M15.16 7.684a5.679 5.679 0 0 1-.16 9.55 5 5 0 0 1 .15-9.55h.01Zm-5 4.8a6.36 6.36 0 0 1 3.27-5.56 5.42 5.42 0 0 0-1.43-.2 5.69 5.69 0 1 0 0 11.38 5.578 5.578 0 0 0 1.3-.16 6.36 6.36 0 0 1-3.11-5.46h-.03Zm2.59-8.07v-1.23a.75.75 0 1 0-1.5 0v1.23a.75.75 0 1 0 1.5 0Zm0 17.28v-1.23a.75.75 0 1 0-1.5 0v1.18a.75.75 0 1 0 1.5 0v.05ZM6.84 7.254a.75.75 0 0 0 0-1.06L6 5.414a.75.75 0 0 0-1.06 1l.84.83a.75.75 0 0 0 1.06 0v.01Zm12.21 12.22a.75.75 0 0 0 0-1.06l-.84-.84a.75.75 0 1 0-1.06 1.06l.83.84a.79.79 0 0 0 .53.22.75.75 0 0 0 .54-.22ZM4.7 12.414a.75.75 0 0 0-.7-.75H2.77a.75.75 0 1 0 0 1.5H4a.75.75 0 0 0 .7-.75Zm17.3 0a.76.76 0 0 0-.75-.75h-1.2a.75.75 0 1 0 0 1.5h1.18a.76.76 0 0 0 .77-.75Zm-16 7.06.83-.84a.75.75 0 1 0-1.06-1.06l-.83.84a.75.75 0 0 0 .535 1.28c.2 0 .393-.08.535-.22H6Zm12.22-12.22.84-.84a.75.75 0 0 0-1.06-1l-.83.83a.75.75 0 0 0 1.06 1.06l-.01-.05Z"/>
</svg>
