<svg xmlns="http://www.w3.org/2000/svg" width="24" height="25" fill="currentColor" viewBox="0 0 24 25">
  <path d="m14.64 20.086-3.92-.89a4.83 4.83 0 0 1-3.63-5.78l1.5-6.53a4.81 4.81 0 0 1 5.77-3.62l3.92.9a4.82 4.82 0 0 1 3.63 5.77l-1.5 6.53a4.81 4.81 0 0 1-5.77 3.62ZM8.79 6.246c.05-.11.09-.22.14-.32-.05.1-.09.21-.14.32Zm5.85 13.84-3.92-.89 3.92.89c.233.056.47.093.71.11a3.546 3.546 0 0 1-.71-.11Zm-6.4-11.7-1.15 5 1.15-5Zm2.25 11.78a5.818 5.818 0 0 1-4.37-7l1.49-6.46c0-.16.1-.3.15-.46l-2.34.68a4.77 4.77 0 0 0-3.26 5.91l1.73 6a4.78 4.78 0 0 0 5.91 3.25l4-1.16-3.31-.76Z"/>
</svg>
