<svg xmlns="http://www.w3.org/2000/svg" width="24" height="25" fill="currentColor" viewBox="0 0 24 25">
  <path d="M15.36 19.706a5.779 5.779 0 0 1-.71-.1l-3.93-.9a4.83 4.83 0 0 1-3.63-5.78l1.15-5-1.15 5a4.83 4.83 0 0 0 3.63 5.78l3.92.9c.238.048.478.082.72.1ZM8.79 5.786c.05-.11.09-.22.14-.32-.05.1-.09.24-.14.32Zm1.7 13.92a5.81 5.81 0 0 1-4.37-7l1.49-6.5c0-.16.1-.3.15-.45l-2.34.67a4.77 4.77 0 0 0-3.26 5.91l1.73 6a4.78 4.78 0 0 0 5.91 3.29l4-1.16-3.31-.76Zm11.42-10.23-1.5 6.53a4.817 4.817 0 0 1-5.77 3.63l-3.92-.93a4.83 4.83 0 0 1-3.63-5.78l1.5-6.53a4.82 4.82 0 0 1 5.77-3.59l3.92.9a4.82 4.82 0 0 1 3.63 5.77Zm-7.23 3.57-2.79-.73a.75.75 0 0 0-.635 1.326.74.74 0 0 0 .265.124l2.78.73h.19a.77.77 0 0 0 .73-.57.75.75 0 0 0-.54-.88Zm2.91-3.4-4.71-1.21a.75.75 0 0 0-.829 1.111.76.76 0 0 0 .459.35l4.7 1.2a.65.65 0 0 0 .19 0 .75.75 0 0 0 .19-1.47v.02Z"/>
</svg>
