<svg xmlns="http://www.w3.org/2000/svg" width="24" height="25" fill="currentColor" viewBox="0 0 24 25">
  <path d="m21.15 15.916-6.4 6.72v-3.87c.001-.204.018-.408.05-.61a2.66 2.66 0 0 1 2.6-2.3h3.81l-.06.06ZM9.07 4.346v-.84a.75.75 0 0 0-1.5 0v.89a5.06 5.06 0 0 1 .68 0l.82-.05Zm7.3 0v-.84a.75.75 0 1 0-1.5 0v.84h.83c.224.002.448.018.67.05v-.05Zm1 10a4.24 4.24 0 0 0-4.15 4.41v3.95h-5a5.46 5.46 0 0 1-5.45-5.46v-7.44a5.45 5.45 0 0 1 4.8-5.41v.94a.75.75 0 0 0 1.5 0v-1h5.8v1a.75.75 0 1 0 1.5 0v-.94a5.45 5.45 0 0 1 4.79 5.41v4.55l-3.79-.01Zm-5.68.4a.75.75 0 0 0-.75-.76H7.53a.76.76 0 0 0 0 1.52H11a.75.75 0 0 0 .72-.75l-.03-.01Zm5.52-4.74a.75.75 0 0 0-.75-.76h-9a.76.76 0 0 0 0 1.52h9a.749.749 0 0 0 .75-.76Z"/>
</svg>
