<svg xmlns="http://www.w3.org/2000/svg" width="24" height="25" fill="currentColor" viewBox="0 0 24 25">
  <path d="M19.08 15.414a8.13 8.13 0 0 1-1.34-4.59v-.17a5.61 5.61 0 0 0-7.82-5.15 5.39 5.39 0 0 0-3.33 5.06v.07A8.1 8.1 0 0 1 5 15.483l-.66.93a2.13 2.13 0 0 0 .21 2.758 2.12 2.12 0 0 0 1.5.622H18a2.12 2.12 0 0 0 2.12-2.12v-.06a2.14 2.14 0 0 0-.36-1.2l-.68-1Zm-8.99 5.329a2 2 0 0 0 3.86 0h-3.86Z"/>
  <path d="M12.76 5.103v-1.93a.75.75 0 1 0-1.5 0v1.89a.244.244 0 0 0 0 .08 5.6 5.6 0 0 1 1.5-.04Zm-9.37 6.311a.74.74 0 0 1-.74-.64 6.66 6.66 0 0 1 2.49-6.36.763.763 0 0 1 .86 1.26 5.21 5.21 0 0 0-1.87 4.89.74.74 0 0 1-.64.84l-.1.01Zm17.22 0h-.1a.74.74 0 0 1-.64-.84 5.21 5.21 0 0 0-1.87-4.9.764.764 0 0 1-.2-1.06.763.763 0 0 1 1.06-.2 6.66 6.66 0 0 1 2.49 6.32.74.74 0 0 1-.74.68Z"/>
</svg>
