<svg xmlns="http://www.w3.org/2000/svg" width="24" height="25" fill="currentColor" viewBox="0 0 24 25">
  <path d="M13.5 4.957a1.5 1.5 0 1 1-3 0 1.5 1.5 0 0 1 3 0Zm-1.5 3a1.5 1.5 0 1 0 1.5 1.5 1.5 1.5 0 0 0-1.5-1.49v-.01Zm-4.25-2.25a1.5 1.5 0 1 0 0 3 1.5 1.5 0 0 0 0-3Zm8.5 0a1.5 1.5 0 1 0 0 3 1.5 1.5 0 0 0 0-3Zm0 4.25a1.5 1.5 0 1 0 1.5 1.5 1.5 1.5 0 0 0-1.5-1.49v-.01Zm4.25-2a1.5 1.5 0 1 0 0 3 1.5 1.5 0 0 0 0-3Zm-8.5 4a1.5 1.5 0 1 0 0 3 1.5 1.5 0 0 0 0-3Zm-4.25-2a1.5 1.5 0 1 0 1.5 1.5 1.5 1.5 0 0 0-1.5-1.49v-.01Zm-4.25-2a1.5 1.5 0 1 0 0 3 1.5 1.5 0 0 0 0-3Zm0 4.5a1 1 0 1 0 0 2 1 1 0 0 0 0-2Zm4.25 2a1 1 0 1 0 1 1 1 1 0 0 0-1-.99v-.01Zm0 0a1 1 0 1 0 1 1 1 1 0 0 0-1-.99v-.01Zm4.25 2a1 1 0 1 0 0 2 1 1 0 0 0 0-2Zm0 0a1 1 0 1 0 0 2 1 1 0 0 0 0-2Zm4.25-2a1 1 0 1 0 1 1 1 1 0 0 0-1-.99v-.01Zm0 0a1 1 0 1 0 1 1 1 1 0 0 0-1-.99v-.01Zm4.25-2a1 1 0 1 0 0 2 1 1 0 0 0 0-2Zm0 0a1 1 0 1 0 0 2 1 1 0 0 0 0-2Zm-17 0a1 1 0 1 0 0 2 1 1 0 0 0 0-2Zm17 3.25a.75.75 0 1 0 .75.75.76.76 0 0 0-.75-.75Zm-4.25 2.26a.75.75 0 1 0 0 1.5.75.75 0 0 0 0-1.5ZM12 20.206a.75.75 0 1 0 .75.75.76.76 0 0 0-.75-.75Zm-4.25-2.25a.75.75 0 1 0 .75.75.76.76 0 0 0-.75-.75Zm-4.25-2.25a.75.75 0 1 0 .75.75.76.76 0 0 0-.75-.75Z"/>
</svg>
