<svg xmlns="http://www.w3.org/2000/svg" width="24" height="25" fill="currentColor" viewBox="0 0 24 25">
  <path d="M19.48 7.367h-15A2.52 2.52 0 0 0 2 9.887v4.48a2 2 0 0 0 2 2h16a2 2 0 0 0 2-2v-4.48a2.52 2.52 0 0 0-2.52-2.52Zm-5.73 7.78h-2.83a.75.75 0 1 1 0-1.5h2.83a.75.75 0 1 1 0 1.5Zm-10.32 1.13a2.302 2.302 0 0 1-.43-.18c.139.07.283.13.43.18Zm17.57-.18c-.137.074-.28.134-.43.18.148-.05.291-.11.43-.18Zm-17.5.2c.163.043.331.067.5.07a1.68 1.68 0 0 1-.5-.07Zm17.5 1.41v1.66a2 2 0 0 1-2 2H5a2 2 0 0 1-2-2v-1.66c.323.104.66.158 1 .16h16a3.32 3.32 0 0 0 1-.16Zm-1-1.34c.169-.003.337-.027.5-.07a1.68 1.68 0 0 1-.5.07Zm-4.7-8.25a.75.75 0 0 1-.75-.75v-.66a1 1 0 0 0-1-1h-2.4a1 1 0 0 0-1 1v.63a.75.75 0 1 1-1.5 0v-.63a2.52 2.52 0 0 1 2.52-2.52h2.37a2.52 2.52 0 0 1 2.51 2.52v.63a.752.752 0 0 1-.75.78Z"/>
</svg>
