<svg xmlns="http://www.w3.org/2000/svg" width="24" height="25" fill="currentColor" viewBox="0 0 24 25">
  <path d="M7.81 8.556a3.71 3.71 0 0 0-1 .14v-2.71a3.28 3.28 0 0 1 3.32-3.28h3.54A3.28 3.28 0 0 1 17 5.986v2.72a4 4 0 0 0-.86-.11h-.58v-2.61a1.841 1.841 0 0 0-1.84-1.84h-3.59a1.84 1.84 0 0 0-1.85 1.84v2.57h-.47Zm13.26 10.52H11a.72.72 0 1 1 0-1.44h9.9l-1.08-6A3.79 3.79 0 0 0 17 8.706v.86a.72.72 0 1 1-1.44 0v-1H8.28v1a.72.72 0 1 1-1.43 0v-.86a3.79 3.79 0 0 0-2.79 3L3 18.286a3.8 3.8 0 0 0 3.73 4.42h10.55a3.79 3.79 0 0 0 3.79-3.63Z"/>
</svg>
