<svg xmlns="http://www.w3.org/2000/svg" width="24" height="25" fill="currentColor" viewBox="0 0 24 25">
  <path d="M12 2.414a10 10 0 1 0 0 20 10 10 0 0 0 0-20Zm4.38 5.86a.61.61 0 1 1 0 1.22.61.61 0 0 1 0-1.22Zm-4.62-.61a.61.61 0 1 1 0 1.22.61.61 0 0 1 0-1.22Zm-4.29 2.26a.61.61 0 0 1 .62.61.62.62 0 0 1-1.23 0 .61.61 0 0 1 .61-.61Zm-2.64 4.49a.61.61 0 1 1 0-1.22.61.61 0 0 1 0 1.22Zm7.06 2.48a.61.61 0 1 1 0-1.221.61.61 0 0 1 0 1.22Zm2.32-3.48a.61.61 0 1 1 0-1.221.61.61 0 0 1 0 1.22Zm2.87-1.85c-6.17-1.43-7.12 3.7-7.26 5.18a.43.43 0 0 1-.43.39H5.88a.44.44 0 0 1-.42-.56c1.38-4.82 4.46-7.45 7.78-7.37a6.92 6.92 0 0 1 4.21 1.61.432.432 0 0 1-.37.78v-.03Zm2.09.92a.61.61 0 1 1 .61-.61.61.61 0 0 1-.61.64v-.03Z"/>
</svg>
