<svg xmlns="http://www.w3.org/2000/svg" width="24" height="25" fill="currentColor" viewBox="0 0 24 25">
  <path d="m20.34 9.516-5.54-5.54a3.08 3.08 0 0 0-4.35 0l-7.55 7.55a3.08 3.08 0 0 0 0 4.35l5.54 5.54a3.08 3.08 0 0 0 4.35 0l7.55-7.55a3.08 3.08 0 0 0 0-4.35Zm-.95 2.19a.75.75 0 0 1-.85.52 36.33 36.33 0 0 0-14.72.48l7.83-7.83a1.409 1.409 0 0 1 2 0l5.35 5.39a1.431 1.431 0 0 1 .39 1.44Zm2.61 8.51a2.24 2.24 0 1 1-4.48 0 5.94 5.94 0 0 1 1.42-3.23 1 1 0 0 1 1.65 0 5.74 5.74 0 0 1 1.41 3.23Z"/>
</svg>
