<svg xmlns="http://www.w3.org/2000/svg" width="24" height="25" fill="currentColor" viewBox="0 0 24 25">
  <g clip-path="url(#a)">
    <path d="M20.156 10.64 4.204 3.03a1.72 1.72 0 0 0-2.383 2.072l1.69 5.48a1.34 1.34 0 0 0 1.23.934l7.998.261a.71.71 0 0 1 .799.615.73.73 0 0 1-.615.8.927.927 0 0 1-.24-.015l-7.949-.24a1.35 1.35 0 0 0-1.329.947l-1.59 5.212a1.72 1.72 0 0 0 1.11 2.156 1.76 1.76 0 0 0 1.244-.084l15.98-7.425a1.72 1.72 0 0 0 .849-2.263 1.74 1.74 0 0 0-.842-.841Z"/>
  </g>
  <defs>
    <clipPath id="a">
      <path d="M0 .134h24v24H0z"/>
    </clipPath>
  </defs>
</svg>
