<svg xmlns="http://www.w3.org/2000/svg" width="24" height="25" fill="currentColor" viewBox="0 0 24 25">
  <path d="M7.75 11.797a4.43 4.43 0 0 0-4.43 4.43 4.39 4.39 0 0 0 .5 2l-1.54 1.29a.75.75 0 0 0 .48 1.32.72.72 0 0 0 .48-.13l1.47-1.23a4.42 4.42 0 1 0 3-7.64l.04-.04Zm0 7.36a2.93 2.93 0 1 1-.02-5.86 2.93 2.93 0 0 1 .02 5.86ZM22 8.257v8.9a3.78 3.78 0 0 1-3.78 3.78h-7.79a5.42 5.42 0 1 0-5.64-9.23v-3.45a3.78 3.78 0 0 1 3.78-3.78h1.75v4.59a1.87 1.87 0 0 0 1.87 1.87h2.4a1.88 1.88 0 0 0 1.88-1.87v-4.59h1.74A3.78 3.78 0 0 1 22 8.257Z"/>
</svg>
