<svg xmlns="http://www.w3.org/2000/svg" width="24" height="25" fill="currentColor" viewBox="0 0 24 25">
  <path d="m5.6 10.517 4.74 2.73a2.09 2.09 0 0 1 1 1.81v5.47a2.09 2.09 0 0 1-3.13 1.8l-4.7-2.73a2.1 2.1 0 0 1-1-1.81v-5.47a2.09 2.09 0 0 1 3.09-1.8Zm12.8 0-1.11.64v2.64a.75.75 0 0 1-.74.75.75.75 0 0 1-.75-.74v-1.79l-2.14 1.23a2.09 2.09 0 0 0-1 1.81v5.47a2.09 2.09 0 0 0 3.13 1.8l4.74-2.73a2.1 2.1 0 0 0 1-1.81v-5.47a2.09 2.09 0 0 0-3.13-1.8Zm-.62-4.71L13 3.077a2.06 2.06 0 0 0-2.08 0l-2.47 1.46 8.83 5.17.51-.3a2.08 2.08 0 0 0-.01-3.6Zm-2 4.75L7 5.407l-.74.43a2.08 2.08 0 0 0 0 3.6l4.74 2.73a2.09 2.09 0 0 0 2.08 0l2.74-1.59-.04-.02Z"/>
</svg>
