<svg xmlns="http://www.w3.org/2000/svg" width="24" height="25" fill="currentColor" viewBox="0 0 24 25">
  <path d="M7.15 20.707H5.06a.9.9 0 0 1-.89-1l2.38-14.51a3 3 0 0 1 2.93-2.49h4.62a4.89 4.89 0 0 1 4.9 4.88v.12a6.07 6.07 0 0 1-6.09 6h-3a.94.94 0 0 0-.91.8l-.89 5.4a1 1 0 0 1-.96.8Zm13.11-11.29a7.57 7.57 0 0 1-7.35 5.81h-2.53l-.81 4.92a2.44 2.44 0 0 1-2.28 2 .81.81 0 0 0 .71.56h3.15a1 1 0 0 0 .94-.79l.73-4a1.32 1.32 0 0 1 1.31-1.1h1.18a5.4 5.4 0 0 0 5.69-5.11v-.06a3.84 3.84 0 0 0-.74-2.23Z"/>
</svg>
