<svg xmlns="http://www.w3.org/2000/svg" width="24" height="25" fill="currentColor" viewBox="0 0 24 25">
  <path d="m21.4 6.176-2.87-2.87a2 2 0 0 0-2.88 0l-2.16 2.15-9.36 9.36-1.43 4.32-.63 1.88a1.45 1.45 0 0 0-.07.35v.11a1.64 1.64 0 0 0 0 .23v.12c.02.063.047.123.08.18l.06.11.12.16.08.09.17.13.09.06.26.11H3c.103.016.207.016.31 0 .133.002.265-.022.39-.07l1.88-.63 4.32-1.43 9.36-9.36 2.14-2.12a2 2 0 0 0 0-2.88Zm-17 14.65-.51-.51.91-2.72 2.32 2.32-2.72.91Zm16-12.83-1.09 1.1-3.7-3.64 1.1-1.09a.51.51 0 0 1 .38-.16.5.5 0 0 1 .37.16l2.88 2.87a.54.54 0 0 1 0 .76h.06Z"/>
</svg>
