<svg xmlns="http://www.w3.org/2000/svg" width="24" height="25" fill="currentColor" viewBox="0 0 24 25">
  <path d="M14.57 12.614a3.36 3.36 0 1 1-6.72 0 3.36 3.36 0 0 1 6.72 0Zm-3.36 4.53c-2.3 0-4.16 1.18-4.16 2.64 0 1.46 1.86 2.63 4.16 2.63s4.16-1.18 4.16-2.63-1.86-2.64-4.16-2.64Zm5.3-14.73a2.83 2.83 0 1 0 2.83 2.82 2.819 2.819 0 0 0-2.83-2.82Zm-10.63 0a2.83 2.83 0 1 0 2.82 2.82 2.82 2.82 0 0 0-2.82-2.82Zm10.47 7.83c-.32 0-.63 0-.94.05a4.68 4.68 0 0 1-.41 5.27c.448.088.903.135 1.36.14 2.54 0 4.59-1.23 4.59-2.73s-2.06-2.73-4.6-2.73Z"/>
</svg>
