<svg xmlns="http://www.w3.org/2000/svg" width="24" height="25" fill="currentColor" viewBox="0 0 24 25">
  <path d="M10.68 10.414a1.22 1.22 0 0 1-1.22 1.22H8.23v-2.45h1.23a1.22 1.22 0 0 1 1.22 1.23Zm11.37 6a6 6 0 0 1-5.93 6H8a6 6 0 0 1-6-5.93v-8.07a6 6 0 0 1 5.88-6H16a6 6 0 0 1 6 5.93l.05 8.07Zm-9.87-6a2.72 2.72 0 0 0-2.72-2.73h-2a.75.75 0 0 0-.73.73v8a.75.75 0 1 0 1.5 0v-3.29h1.23a2.72 2.72 0 0 0 2.72-2.71Zm2.65 2.27a.48.48 0 0 1 .48-.48h1.24a.75.75 0 1 0 0-1.5h-1.24a2 2 0 0 0 0 4 .5.5 0 0 1 0 1h-1.23a.75.75 0 1 0 0 1.5h1.23a2 2 0 0 0 0-4 .48.48 0 0 1-.48-.53v.01Z"/>
</svg>
