<svg xmlns="http://www.w3.org/2000/svg" width="24" height="25" fill="currentColor" viewBox="0 0 24 25">
  <path d="M22.05 17.157a6 6 0 0 1-5.94 5.55h-8.3a6 6 0 0 1-5.19-3l3.67-3a2.44 2.44 0 0 1 3.15.05 2.999 2.999 0 0 0 4.27-.19l2-2.18a2.42 2.42 0 0 1 1.74-.79 2.36 2.36 0 0 1 1.77.72l2.83 2.84Zm0-8.44v6.31l-1.78-1.78a3.933 3.933 0 0 0-4.318-.868 3.94 3.94 0 0 0-1.282.867l-.1.11-2 2.18a1.55 1.55 0 0 1-2.18.1 3.93 3.93 0 0 0-5-.14L2 18.146a5.86 5.86 0 0 1-.11-1.44v-8a6 6 0 0 1 5.92-6h8.31a6 6 0 0 1 5.93 6v.01Zm-12.34.1a2 2 0 1 0-4 0 2 2 0 0 0 4 0Z"/>
</svg>
