<svg xmlns="http://www.w3.org/2000/svg" width="24" height="25" fill="currentColor" viewBox="0 0 24 25">
  <path d="M22.05 16.864a5.996 5.996 0 0 1-.051.451 3.5 3.5 0 0 0-4.82 4.995 6.053 6.053 0 0 1-1.07.104h-8.3a6 6 0 0 1-5.19-3l3.67-3a2.44 2.44 0 0 1 3.15.05 3 3 0 0 0 4.27-.19l2-2.18a2.419 2.419 0 0 1 1.74-.79 2.36 2.36 0 0 1 1.77.72l2.83 2.84Z"/>
  <path fill-rule="evenodd" d="m22.05 14.734-1.78-1.78a3.93 3.93 0 0 0-5.6 0l-.1.11-2 2.18a1.55 1.55 0 0 1-2.18.1 3.93 3.93 0 0 0-5-.14L2 17.854a5.86 5.86 0 0 1-.11-1.44v-8a6 6 0 0 1 5.92-6h8.31a6 6 0 0 1 5.93 6v6.32ZM9.71 8.524a2 2 0 1 0-4 0 2 2 0 0 0 4 0Z" clip-rule="evenodd"/>
  <path d="M21.305 18.166a.547.547 0 0 1 .382.958l-1.014 1.014 1.018 1.017a.548.548 0 0 1 0 .772.55.55 0 0 1-.772 0l-1.018-1.017-1.017 1.017a.548.548 0 0 1-.772 0 .55.55 0 0 1 0-.771l1.017-1.018-1.025-1.026a.547.547 0 0 1 .771-.771l.01.007 1.016 1.018 1.014-1.014a.547.547 0 0 1 .39-.186Z"/>
</svg>
