<svg xmlns="http://www.w3.org/2000/svg" width="24" height="25" fill="currentColor" viewBox="0 0 24 25">
  <path d="m21.66 10.287-.72.72a1.001 1.001 0 0 1-1.45 0l-.72-.72-3.16 3.16a6.16 6.16 0 0 1-.45 6.08 1.83 1.83 0 0 1-2.8.28l-7.46-7.46a1.83 1.83 0 0 1 .28-2.8 6.16 6.16 0 0 1 6.08-.45l3.16-3.16-.72-.72a1 1 0 0 1 0-1.45l.72-.72a1 1 0 0 1 1.45 0l5.79 5.79a1 1 0 0 1 0 1.45Zm-18 7.9a4.58 4.58 0 0 0-1.16 1.83l-.4 1.19a1.1 1.1 0 0 0 1.4 1.4l1.19-.4a4.58 4.58 0 0 0 1.83-1.13L9 18.587l-2.88-2.88-2.46 2.48Zm6.45-.66-2.92-2.9 2.92 2.9Z"/>
</svg>
