<svg xmlns="http://www.w3.org/2000/svg" width="24" height="25" fill="currentColor" viewBox="0 0 24 25">
  <path d="M7 6.707v-.75a3.24 3.24 0 0 1 3.25-3.25h3.5A3.24 3.24 0 0 1 17 5.957v.75H7Zm10 8.25H7a.75.75 0 1 0 0 1.5h1v3.17a3.08 3.08 0 0 0 3.08 3.08h1.84a3.08 3.08 0 0 0 3.08-3.08v-3.17h1a.75.75 0 0 0 0-1.5Zm4-4.45v5.4a2.8 2.8 0 0 1-2.8 2.8H17v-1.25a1.75 1.75 0 0 0 0-3.5H7a1.75 1.75 0 1 0 0 3.5v1.25H5.8a2.81 2.81 0 0 1-2.8-2.8v-5.4a2.81 2.81 0 0 1 2.8-2.8h12.4a2.8 2.8 0 0 1 2.8 2.8Zm-10.25 1.2a.76.76 0 0 0-.75-.75H7a.75.75 0 1 0 0 1.5h3a.76.76 0 0 0 .75-.75Z"/>
</svg>
