<svg xmlns="http://www.w3.org/2000/svg" width="24" height="25" fill="currentColor" viewBox="0 0 24 25">
  <path d="M14.11 16.674H14a.75.75 0 0 1-.65-.56l-1.47-5.55-1.34 4a.75.75 0 0 1-1.33.19l-1.58-2.34-1.3.7a.742.742 0 0 1-.36.09H3a.75.75 0 0 1 0-1.5h2.78l1.73-.93a.75.75 0 0 1 1 .24l1.16 1.68 1.62-4.98a.75.75 0 0 1 1.43 0l1.59 6 .79-1.66a.74.74 0 0 1 .67-.43H21a.75.75 0 1 1 0 1.5h-4.75l-1.46 3.08a.76.76 0 0 1-.68.47ZM3 10.664h2.53L7 9.854c.255-.139.54-.21.83-.21a1.78 1.78 0 0 1 1.48.77l1-3A1.74 1.74 0 0 1 12 6.204h.07a1.75 1.75 0 0 1 1.63 1.3l1 3.58a1.72 1.72 0 0 1 1.13-.42H21c.252 0 .5.055.73.16A5.84 5.84 0 0 0 12 4.984a5.87 5.87 0 0 0-8.28 0 5.82 5.82 0 0 0-1.44 5.84c.226-.104.471-.158.72-.16Zm13.87 3.5-1.19 2.51a1.76 1.76 0 0 1-1.58 1H14a1.76 1.76 0 0 1-1.58-1.26l-.62-2.32-.27.82a1.749 1.749 0 0 1-1.41 1.18h-.25a1.73 1.73 0 0 1-1.44-.77l-1.12-1.64-.51.27a1.73 1.73 0 0 1-.83.21H4.61l6.68 6.68a1.002 1.002 0 0 0 1.42 0l6.68-6.68h-2.52Z"/>
</svg>
