<svg xmlns="http://www.w3.org/2000/svg" width="24" height="25" fill="currentColor" viewBox="0 0 24 25">
  <path d="M10 11.664h4.11a1.562 1.562 0 0 0 1.58-1.55v-5.55a1.4 1.4 0 0 0-1.4-1.4H9.71a1.4 1.4 0 0 0-1.4 1.4v4.16H4.15a1.4 1.4 0 0 0-1.4 1.4v4.58a1.4 1.4 0 0 0 1.4 1.4h2.66v-1.22a3.23 3.23 0 0 1 3.19-3.22Zm0-7.31a.75.75 0 0 1 .75.74.76.76 0 0 1-.75.75.75.75 0 0 1-.74-.75.74.74 0 0 1 .74-.74Zm-.29 17.31h4.58a1.4 1.4 0 0 0 1.4-1.4v-4.16h4.16a1.4 1.4 0 0 0 1.4-1.4v-4.58a1.4 1.4 0 0 0-1.4-1.4h-2.66v1.39a3.06 3.06 0 0 1-3.05 3.05H10a1.72 1.72 0 0 0-1.72 1.72v5.38a1.4 1.4 0 0 0 1.43 1.4Zm4.29-2.77a.79.79 0 0 1 .79.79.79.79 0 0 1-1.356.565.8.8 0 0 1-.173-.87.79.79 0 0 1 .739-.485Z"/>
</svg>
