<svg xmlns="http://www.w3.org/2000/svg" width="24" height="25" fill="currentColor" viewBox="0 0 24 25">
  <path d="M16.1 2.707H7.92a6 6 0 0 0-5.92 6v8a6 6 0 0 0 5.9 6h8.2a6 6 0 0 0 5.9-6v-8a6 6 0 0 0-5.9-6Zm-6.75 11.18-1.69 2.76a.77.77 0 0 1-.54.35H7a.74.74 0 0 1-.51-.2l-1.35-1.19a.81.81 0 0 1-.08-1.11.77.77 0 0 1 1.09-.08l.68.61 1.23-2a.75.75 0 0 1 1-.25.791.791 0 0 1 .29 1.11Zm0-5.7-1.69 2.76a.77.77 0 0 1-.54.35H7a.74.74 0 0 1-.51-.2l-1.35-1.2a.8.8 0 0 1-.08-1.1.77.77 0 0 1 1.09-.09l.68.62 1.23-2a.75.75 0 0 1 1-.25.79.79 0 0 1 .29 1.11Zm8.66 8H12a.75.75 0 0 1 0-1.48h6a.75.75 0 0 1 0 1.5l.01-.02Zm-.01-5.48h-6a.75.75 0 1 1 0-1.5h6a.75.75 0 1 1 0 1.5Z"/>
</svg>
