<svg xmlns="http://www.w3.org/2000/svg" width="24" height="25" fill="currentColor" viewBox="0 0 24 25">
  <path d="M21.39 10.944 20 9.534a.999.999 0 0 1-.3-.73v-2a2.08 2.08 0 0 0-2.1-2.07h-2a1 1 0 0 1-.73-.3l-1.4-1.41a2.08 2.08 0 0 0-2.94 0l-1.41 1.39a1 1 0 0 1-.73.3h-2a2.08 2.08 0 0 0-2.07 2.1v2a1 1 0 0 1-.3.73l-1.41 1.4a2.08 2.08 0 0 0 0 2.94L4 15.293a1 1 0 0 1 .3.73v2a2.08 2.08 0 0 0 2.1 2.07h2a.998.998 0 0 1 .73.3l1.41 1.41a2.08 2.08 0 0 0 2.94 0l1.4-1.39a1.001 1.001 0 0 1 .73-.3h2a2.08 2.08 0 0 0 2.08-2.08v-2a1 1 0 0 1 .3-.73l1.41-1.41a2.08 2.08 0 0 0-.01-2.95Zm-9.39 7a.75.75 0 1 1 .75-.75.76.76 0 0 1-.75.75Zm1.36-5.23a1.17 1.17 0 0 0-.61 1.06v.82a.75.75 0 1 1-1.5 0v-.82a2.67 2.67 0 0 1 1.46-2.36 1.63 1.63 0 1 0-2.34-1.47.75.75 0 1 1-1.5 0A3.1 3.1 0 0 1 10 7.503a3.13 3.13 0 1 1 3.37 5.21h-.01Z"/>
</svg>
