<svg xmlns="http://www.w3.org/2000/svg" width="24" height="25" fill="currentColor" viewBox="0 0 24 25">
  <path d="M15.23 22.706H8.77v-9.71a1.93 1.93 0 0 1 1.94-1.94h2.58a1.929 1.929 0 0 1 1.94 1.94v9.71Zm-7.46-7.77H4.23a1.94 1.94 0 0 0-1.94 1.94v5.83h5.48v-7.77Zm7.46 2.91v4.86-4.86Zm4.54 0h-3.54v4.86h5.48v-2.92a1.94 1.94 0 0 0-1.94-1.94Zm-5.48-9.59-.09-1a.77.77 0 0 1 .2-.6l.7-.75a.78.78 0 0 0-.4-1.28l-1-.23a.76.76 0 0 1-.51-.38l-.5-.89a.77.77 0 0 0-1.34 0l-.52.88a.79.79 0 0 1-.52.37l-1 .2a.78.78 0 0 0-.44 1.23l.68.77a.73.73 0 0 1 .19.6l-.12 1a.77.77 0 0 0 1.07.8l.94-.4a.79.79 0 0 1 .64 0l.93.44a.77.77 0 0 0 1.09-.76Z"/>
</svg>
