<svg xmlns="http://www.w3.org/2000/svg" width="24" height="25" fill="currentColor" viewBox="0 0 24 25">
  <path d="M22.75 12.414c0-1.66-1.4-3.12-3.63-4.11.26-2.43-.31-4.37-1.74-5.2-1.43-.83-3.38-.35-5.38 1.08-2-1.43-3.94-1.91-5.37-1.08-1.43.83-2 2.77-1.75 5.2-2.23 1-3.63 2.45-3.63 4.11 0 1.66 1.39 3.12 3.62 4.11v.29c-.2 2.38.44 4.13 1.8 4.91a3.179 3.179 0 0 0 1.62.42 6.41 6.41 0 0 0 3.53-1.33l.22-.16.22.16a6.41 6.41 0 0 0 3.53 1.33 3.239 3.239 0 0 0 1.63-.42c1.35-.78 2-2.53 1.79-4.91v-.29c2.15-.99 3.54-2.45 3.54-4.11Zm-7-8.22c.3-.006.596.066.86.21.77.45 1.15 1.68 1 3.36a15.73 15.73 0 0 0-2.61-.59 17.906 17.906 0 0 0-1.83-2 4.94 4.94 0 0 1 2.6-.98h-.02Zm1.4 10.22c.124.394.228.794.31 1.2-.39.13-.788.24-1.19.33.15-.24.31-.49.46-.75.15-.26.27-.57.42-.78Zm-1.72 0c-.37.64-.778 1.257-1.22 1.85a19.67 19.67 0 0 1-2.21.15 19.477 19.477 0 0 1-2.21-.13 20.533 20.533 0 0 1-1.22-1.87 20.45 20.45 0 0 1-1-2 20.42 20.42 0 0 1 1-2c.377-.635.787-1.25 1.23-1.84a22 22 0 0 1 2.2-.16 22 22 0 0 1 2.2.12 20.66 20.66 0 0 1 1.23 1.88c.37.647.703 1.315 1 2-.297.684-.63 1.351-1 2ZM12 18.724c-.3-.27-.6-.56-.89-.87h1.78c-.29.31-.59.56-.89.87Zm-4.73-3.58c.15.26.31.51.46.75-.402-.09-.8-.2-1.19-.33.084-.389.187-.773.31-1.15.1.226.24.47.42.73Zm-.42-4.68c-.12-.42-.23-.82-.31-1.2.39-.133.787-.243 1.19-.33-.15.24-.31.49-.46.75-.15.26-.27.52-.42.78ZM12 6.123c.29.26.58.54.87.85h-1.74c.29-.31.58-.56.87-.85Zm4.73 3.56c-.15-.26-.31-.51-.46-.75.403.087.8.197 1.19.33-.08.38-.19.78-.31 1.2-.15-.26-.27-.52-.42-.78Zm-9.35-5.27a1.67 1.67 0 0 1 .85-.21 4.94 4.94 0 0 1 2.57 1c-.648.61-1.25 1.269-1.8 1.97a15.73 15.73 0 0 0-2.64.59c-.14-1.68.24-2.91 1.02-3.35Zm-4.63 8c0-.9.88-1.84 2.38-2.58.203.879.474 1.742.81 2.58-.337.84-.608 1.706-.81 2.59-1.5-.75-2.38-1.7-2.38-2.59Zm4.63 8c-.8-.46-1.17-1.68-1.06-3.36a15.95 15.95 0 0 0 2.68.6 17 17 0 0 0 1.83 2c-1.42.94-2.67 1.22-3.45.76Zm9.25 0c-.79.46-2 .17-3.43-.76a17 17 0 0 0 1.83-2 16.003 16.003 0 0 0 2.65-.59c.11 1.68-.26 2.9-1.05 3.35Zm2.24-5.43a17.458 17.458 0 0 0-.81-2.57c.335-.835.606-1.694.81-2.57 1.5.74 2.38 1.68 2.38 2.58 0 .9-.88 1.83-2.38 2.57v-.01Zm-5.06-2.57a1.81 1.81 0 1 1-3.62 0 1.81 1.81 0 0 1 3.62 0Z"/>
</svg>
