<svg xmlns="http://www.w3.org/2000/svg" width="24" height="25" fill="currentColor" viewBox="0 0 24 25">
  <path d="m21.9 12.385-3.681-4.57a.953.953 0 0 0-1.524 0l-3.68 4.57c-.255.38 0 .889.378.889h.95a.444.444 0 0 1 .445.449c-.014 2.594-.266 5.799-4.823 8.437-.125.126 0 .254.127.254 8.374-1.298 9.626-6.649 9.762-8.724a.446.446 0 0 1 .445-.416h1.093c.508 0 .763-.508.508-.89Zm-11.293-.832h-.949a.442.442 0 0 1-.446-.45c.014-2.593.267-5.798 4.824-8.436.126-.128 0-.253-.127-.253-8.373 1.295-9.626 6.646-9.763 8.723a.446.446 0 0 1-.443.415H2.608c-.509 0-.762.51-.509.889l3.682 4.571a.95.95 0 0 0 1.524 0l3.68-4.571c.257-.382 0-.888-.38-.888h.002Z"/>
</svg>
