<svg xmlns="http://www.w3.org/2000/svg" width="24" height="25" fill="currentColor" viewBox="0 0 24 25">
  <path d="M16.83 10.966a1.14 1.14 0 0 1 .31-1.26l2-1.86a1.18 1.18 0 0 1 1.65.07c.061.064.115.134.16.21a9.74 9.74 0 0 1-.15 9.3 1.21 1.21 0 0 1-1.62.46 1.468 1.468 0 0 1-.28-.21l-2.06-2.16a1.14 1.14 0 0 1-.21-1.23 5.11 5.11 0 0 0 .37-1.85 4.55 4.55 0 0 0-.17-1.47Zm-7.64-3.51a1.2 1.2 0 0 0 1.26.25 5 5 0 0 1 1.55-.22 4.9 4.9 0 0 1 2.1.45 1.21 1.21 0 0 0 1.34-.23l1.89-1.77a1.121 1.121 0 0 0 0-1.62 1 1 0 0 0-.19-.16 10.32 10.32 0 0 0-9.35-.45 1.19 1.19 0 0 0-.63 1.56c.061.134.146.256.25.36l1.78 1.83Zm5.92 9.87a1.17 1.17 0 0 0-1.27-.27 4.92 4.92 0 0 1-3.62 0 1.16 1.16 0 0 0-1.22.23l-2.3 2.08a1.13 1.13 0 0 0-.08 1.62c.07.078.151.145.24.2a10.21 10.21 0 0 0 10 .17 1.171 1.171 0 0 0 .49-1.59.81.81 0 0 0-.17-.24l-2.07-2.2Zm-8.06-1.87a1.11 1.11 0 0 0 .28-1.27 4.72 4.72 0 0 1-.33-1.78 4.78 4.78 0 0 1 .46-2.07 1.14 1.14 0 0 0-.2-1.29l-1.81-1.93a1.2 1.2 0 0 0-1.68 0 .75.75 0 0 0-.21.26 9.73 9.73 0 0 0-.51 9.78 1.18 1.18 0 0 0 1.6.43.8.8 0 0 0 .21-.15l2.19-1.98Z"/>
</svg>
