<svg xmlns="http://www.w3.org/2000/svg" width="24" height="25" fill="currentColor" viewBox="0 0 24 25">
  <path fill-rule="evenodd" d="M12 22.706c5.523 0 10-4.477 10-10 0-5.522-4.477-10-10-10s-10 4.478-10 10c0 5.523 4.477 10 10 10ZM8.999 7.726A.9.9 0 0 0 7.726 9l1.97 1.97h-1.64a.9.9 0 0 0 0 1.8H11.1v1.707H8.494a.9.9 0 1 0 0 1.8H11.1v1.73a.9.9 0 0 0 1.8 0v-1.73h2.607a.9.9 0 0 0 0-1.8H12.9V12.77h3.045a.9.9 0 0 0 0-1.8H14.04L16.011 9a.9.9 0 1 0-1.272-1.273l-2.87 2.87-2.87-2.87Z" clip-rule="evenodd"/>
</svg>
