<svg xmlns="http://www.w3.org/2000/svg" width="24" height="25" fill="currentColor" viewBox="0 0 24 25">
  <path d="m20 2.706-3.55.65a10.26 10.26 0 0 0-4.7 2.73 19.438 19.438 0 0 0-2.42 3.31C5.8 8.706 2 14.506 2 14.506l4.55.1-.12.26a1.33 1.33 0 0 0 .29 1.53l.53.51 1 1 .49.47a1.35 1.35 0 0 0 1.56.22l.69-.38.38 4.49s5.65-4.12 4.71-7.6a21.56 21.56 0 0 0 2.61-2.07 9.6 9.6 0 0 0 2.64-5l.67-3.33a1.71 1.71 0 0 0-1.4-2 1.79 1.79 0 0 0-.6 0Zm-2.34 7.19a2.001 2.001 0 0 1-2.83.05 2 2 0 0 1-.06-2.81 2 2 0 0 1 2.89 2.76Z"/>
</svg>
