<svg xmlns="http://www.w3.org/2000/svg" width="24" height="25" fill="currentColor" viewBox="0 0 24 25">
  <path d="m21 16.174.78-1a.94.94 0 0 0-.78-1.5h-5.3v-.74a.75.75 0 1 0-1.5 0v8H8a3.17 3.17 0 0 1-3.25-3.07A3.16 3.16 0 0 1 8 14.783h1.5a2.188 2.188 0 0 0 2.157-3.058A2.19 2.19 0 0 0 9.5 10.413H7.82L9 9.074a4 4 0 1 0-6 0l2.23 2.5a1 1 0 0 0 .7.33h3.5a.71.71 0 0 1 .75.68.72.72 0 0 1-.75.69H8a4.67 4.67 0 0 0-4.75 4.57A4.67 4.67 0 0 0 8 22.413h7a.74.74 0 0 0 .75-.75v-3H21a.94.94 0 0 0 .73-1.53l-.73-.96ZM4.53 6.414a1.5 1.5 0 1 1 3-.02 1.5 1.5 0 0 1-3 .02Z"/>
</svg>
