<svg xmlns="http://www.w3.org/2000/svg" width="24" height="25" fill="currentColor" viewBox="0 0 24 25">
  <path d="m15.71 21.706-1-.82a2.35 2.35 0 0 1-.9-1.9v-3.27a1.56 1.56 0 0 1 .92-1.42l2.56-1.19a1.59 1.59 0 0 1 1.3 0l2.47 1.08a1.61 1.61 0 0 1 .94 1.46v3.28a2.418 2.418 0 0 1-.89 1.84l-1.19.94a3.36 3.36 0 0 1-4.21 0Zm-3.42-2.74v-3.26a3.1 3.1 0 0 1 1.79-2.78l2.56-1.18a3.059 3.059 0 0 1 1.36-.27c.427-.004.85.085 1.24.26l.61.27.1-.6a3.1 3.1 0 0 0-1.06-2.92l-5.75-4.78a3.12 3.12 0 0 0-3.92-.08l-6 4.63A3.14 3.14 0 0 0 2 11.086l.79 6.74a3.13 3.13 0 0 0 3.11 2.76h6.7a3.79 3.79 0 0 1-.31-1.61v-.01Z"/>
</svg>
