<svg xmlns="http://www.w3.org/2000/svg" width="24" height="25" fill="currentColor" viewBox="0 0 24 25">
  <path d="M7 18.893c.245.002.49.029.73.08a3.62 3.62 0 0 1 2.72 2.36.81.81 0 0 1-.74 1.08H4.32a.81.81 0 0 1-.76-1.08 3.56 3.56 0 0 1 2.7-2.35c.243-.055.49-.085.74-.09Zm6.22-7.31c.34-.31.68-.61 1-.88a.765.765 0 1 0-1-1.16c-.23.2-.63.54-1.12 1l.25.24-5.64-5.71a.58.58 0 0 0-.86 0c-2.12 2.7-1.41 7.19 1.67 10.55a6.43 6.43 0 0 0-1.28 3.33c.25-.046.505-.066.76-.06.245.002.49.029.73.08a4.09 4.09 0 0 1 .86-2.26c3.33 2.85 7.65 3.43 10.26 1.37a.59.59 0 0 0 0-.87l-5.63-5.63Zm.78-4.17c.27 0 2.63.18 2.54 2.45a.75.75 0 0 0 .72.78.74.74 0 0 0 .74-.74 3.55 3.55 0 0 0-.91-2.67 4.84 4.84 0 0 0-3.07-1.34.72.72 0 0 0-.78.72.75.75 0 0 0 .76.8Zm.08-5a.77.77 0 0 0-.8.69.75.75 0 0 0 .72.81c.25 0 6 .51 6.08 6a.75.75 0 0 0 .75.73.75.75 0 0 0 .73-.76c-.13-5.47-4.95-7.28-7.49-7.47h.01Z"/>
</svg>
