<svg xmlns="http://www.w3.org/2000/svg" width="24" height="25" fill="currentColor" viewBox="0 0 24 25">
  <path d="M9.29 11.164H6.71a1.46 1.46 0 0 1-1.46-1.46v-2.58a1.46 1.46 0 0 1 1.46-1.46h2.58a1.46 1.46 0 0 1 1.46 1.46v2.58a1.46 1.46 0 0 1-1.46 1.46Zm9.46-1.46v-2.58a1.46 1.46 0 0 0-1.46-1.46h-2.58a1.46 1.46 0 0 0-1.46 1.46v2.58a1.46 1.46 0 0 0 1.46 1.46h2.58a1.46 1.46 0 0 0 1.46-1.46Zm-8 8v-2.58a1.46 1.46 0 0 0-1.46-1.46H6.71a1.46 1.46 0 0 0-1.46 1.46v2.58a1.46 1.46 0 0 0 1.46 1.46h2.58a1.46 1.46 0 0 0 1.46-1.46Zm8 0v-2.58a1.46 1.46 0 0 0-1.46-1.46h-2.58a1.46 1.46 0 0 0-1.46 1.46v2.58a1.46 1.46 0 0 0 1.46 1.46h2.58a1.46 1.46 0 0 0 1.46-1.46ZM2.68 9.414v-2.75a3.57 3.57 0 0 1 3.56-3.57h2.32a.75.75 0 1 0 0-1.5H6.24a5.07 5.07 0 0 0-5.06 5.07v2.75a.75.75 0 0 0 1.5 0Zm20.14 0v-2.75a5.07 5.07 0 0 0-5.07-5.07h-3.18a.75.75 0 1 0 0 1.5h3.18a3.57 3.57 0 0 1 3.57 3.57v2.75a.75.75 0 1 0 1.5 0ZM9.31 22.484a.76.76 0 0 0-.75-.75H6.24a3.57 3.57 0 0 1-3.56-3.57v-2.75a.75.75 0 0 0-1.5 0v2.75a5.07 5.07 0 0 0 5.06 5.07h2.32a.76.76 0 0 0 .75-.75Zm13.51-4.32v-2.75a.75.75 0 0 0-1.5 0v2.75a3.57 3.57 0 0 1-3.57 3.57h-3.18a.75.75 0 0 0 0 1.5h3.18a5.07 5.07 0 0 0 5.07-5.07Z"/>
</svg>
