<svg xmlns="http://www.w3.org/2000/svg" width="24" height="25" fill="currentColor" viewBox="0 0 24 25">
  <path d="M16.62 8.457h2.87l-5.23-5.3v3a2.36 2.36 0 0 0 2.36 2.3ZM11 11.267a2.44 2.44 0 1 0 2.4 2.44 2.45 2.45 0 0 0-2.4-2.44Z"/>
  <path d="M19.94 9.957h-3.32a3.86 3.86 0 0 1-3.86-3.85v-3.4H6.38A2.35 2.35 0 0 0 4 5.057v15.3a2.35 2.35 0 0 0 2.38 2.35h11.24a2.348 2.348 0 0 0 2.38-2.35v-10.4h-.06Zm-3.66 9.05a.7.7 0 0 1-.54.23.74.74 0 0 1-.52-.2l-2.14-2a3.93 3.93 0 1 1 1.82-3.33 3.87 3.87 0 0 1-.73 2.27l2.08 2a.75.75 0 0 1 .03 1.03Z"/>
</svg>
