<svg xmlns="http://www.w3.org/2000/svg" width="24" height="25" fill="currentColor" viewBox="0 0 24 25">
  <path d="M16.87 2.414H7.13A5.13 5.13 0 0 0 2 7.544v9.74a5.13 5.13 0 0 0 5.13 5.13h9.74a5.13 5.13 0 0 0 5.13-5.13v-9.74a5.13 5.13 0 0 0-5.13-5.13Zm-9.2 3.5a.75.75 0 0 1 1.5 0v3.9a.75.75 0 1 1-1.5 0v-3.9Zm1.5 11v2a.74.74 0 0 1-1.267.527.76.76 0 0 1-.223-.527v-2a2.73 2.73 0 1 1 1.5 0h-.01Zm7.16 2a.75.75 0 1 1-1.5 0v-3.9a.75.75 0 1 1 1.5 0v3.9Zm-.75-5.65a2.72 2.72 0 0 1-.75-5.34v-2a.719.719 0 0 1 .76-.75.74.74 0 0 1 .74.75v2a2.72 2.72 0 0 1-.75 5.34Z"/>
</svg>
