<svg xmlns="http://www.w3.org/2000/svg" width="24" height="25" fill="currentColor" viewBox="0 0 24 25">
  <path d="M12.05 22.707a9.122 9.122 0 0 1-3.82-.83.77.77 0 0 1-.37-1 .76.76 0 0 1 1-.37 7.7 7.7 0 0 0 6.22.07.76.76 0 0 1 .61 1.39 9.092 9.092 0 0 1-3.64.74Zm8.41-9.25a.75.75 0 0 0 .67-.83 9.16 9.16 0 0 0-3.6-6.36.76.76 0 0 0-.91 1.21 7.66 7.66 0 0 1 3 5.3.76.76 0 0 0 .75.68h.09Zm-16-.68a7.64 7.64 0 0 1 3.13-5.38.76.76 0 1 0-.89-1.22 9.15 9.15 0 0 0-3.7 6.44.75.75 0 0 0 .67.83h.08a.76.76 0 0 0 .72-.67h-.01ZM12 2.707a2.91 2.91 0 1 0 2.91 2.91A2.902 2.902 0 0 0 12 2.707Zm-7 12a2.91 2.91 0 1 0-.02 5.82 2.91 2.91 0 0 0 .02-5.82Zm14 0a2.91 2.91 0 1 0 2.91 2.91 2.901 2.901 0 0 0-2.91-2.91Z"/>
</svg>
