<svg xmlns="http://www.w3.org/2000/svg" width="24" height="25" fill="currentColor" viewBox="0 0 24 25">
  <path d="m18 4.824-4.6-2.1a3.39 3.39 0 0 0-2.82 0L6 4.824a3.39 3.39 0 0 0-2 3.09v7.35a3.39 3.39 0 0 0 1.25 2.63l4.59 3.75a3.38 3.38 0 0 0 4.3 0l4.59-3.75a3.39 3.39 0 0 0 1.27-2.63v-7.35a3.39 3.39 0 0 0-2-3.09Zm-3.49 9a.75.75 0 0 1-.54 1.28.77.77 0 0 1-.53-.21L12 13.464l-1.47 1.44a.731.731 0 0 1-.52.21.76.76 0 0 1-.54-.22.75.75 0 0 1 0-1.06l1.46-1.42-1.45-1.42a.75.75 0 1 1 1-1.07l1.52 1.49 1.46-1.44a.77.77 0 0 1 1.07 0 .75.75 0 0 1 0 1.06l-1.46 1.38 1.44 1.41Z"/>
</svg>
