<svg xmlns="http://www.w3.org/2000/svg" width="24" height="25" fill="currentColor" viewBox="0 0 24 25">
  <path d="M21.3 4.413 3.85 21.783a.74.74 0 0 1-.53.22.73.73 0 0 1-.53-.22.75.75 0 0 1 0-1.06l2.7-2.7-.18-.15a3.39 3.39 0 0 1-1.25-2.63v-7.34a3.39 3.39 0 0 1 2-3.08l4.58-2.1a3.41 3.41 0 0 1 2.83 0l4.59 2.1c.156.072.307.155.45.25l1.74-1.73a.75.75 0 1 1 1.05 1.07ZM7.74 19.863l2.16 1.76a3.39 3.39 0 0 0 4.29 0l4.59-3.75a3.391 3.391 0 0 0 1.22-2.63v-7.34a2.085 2.085 0 0 0 0-.25L7.74 19.863Z"/>
</svg>
