<svg xmlns="http://www.w3.org/2000/svg" width="24" height="25" fill="currentColor" viewBox="0 0 24 25">
  <path d="M10.07 11.107a2.4 2.4 0 0 1-.7-1.84l.44-6.56H14l.59 6.51a2.33 2.33 0 0 1-.68 1.86 2.79 2.79 0 0 1-3.84.03Zm5.81-5.32.34 3.7a2.7 2.7 0 0 0 2.78 2.39 2.871 2.871 0 0 0 2.08-.88 2.52 2.52 0 0 0 .67-2.06l-.41-3.15a3.69 3.69 0 0 0-3.73-3.08h-2l.26 2.82.01.26Zm-11.09 6.09h.34a2.55 2.55 0 0 0 2.6-2.3l.46-6.87H6.34a3.71 3.71 0 0 0-3.76 3.18l-.38 3.27a2.36 2.36 0 0 0 .65 1.9 2.69 2.69 0 0 0 1.94.82ZM19 13.397a4.47 4.47 0 0 1-3.58-1.69 4.462 4.462 0 0 1-.34.42 4.39 4.39 0 0 1-6.18 0c-.13-.13-.23-.28-.34-.41a4.32 4.32 0 0 1-3.43 1.66h-.34a4.39 4.39 0 0 1-2.85-1.07v5.44a5.1 5.1 0 0 0 5.25 4.96h1.86v-2.84a2.93 2.93 0 0 1 3-2.83 2.93 2.93 0 0 1 3 2.83v2.84h1.69a5.102 5.102 0 0 0 5.26-4.94v-5.54a4.49 4.49 0 0 1-3 1.17Z"/>
</svg>
