<svg xmlns="http://www.w3.org/2000/svg" width="24" height="25" fill="currentColor" viewBox="0 0 24 25">
  <path d="m19.86 7.937-3.37-3.75a4.45 4.45 0 0 0-3.32-1.48H7.46A4.46 4.46 0 0 0 3 7.167v11.08a4.46 4.46 0 0 0 4.46 4.46h9.08a4.46 4.46 0 0 0 4.46-4.46v-7.33a4.49 4.49 0 0 0-1.14-2.98Zm-8.36 11.27H9.91A2.91 2.91 0 0 1 7 16.296v-1.09h4.5v4Zm0-5H7v-1.09a2.91 2.91 0 0 1 2.91-2.91h1.59v4Zm5.5 2.09a2.91 2.91 0 0 1-2.91 2.91H12.5v-4H17v1.09Zm0-2.09h-4.5v-4h1.59a2.91 2.91 0 0 1 2.91 2.91v1.09Z"/>
</svg>
