<svg xmlns="http://www.w3.org/2000/svg" width="24" height="25" fill="currentColor" viewBox="0 0 24 25">
  <path d="M14.46 11.414a2.15 2.15 0 0 1-2.15-2.15v-4.45a2.15 2.15 0 0 1 2.15-2.15 2.16 2.16 0 0 1 2.16 2.15v4.48a2.16 2.16 0 0 1-2.16 2.12Zm-2.77 8.6v-4.44a2.15 2.15 0 0 0-2.15-2.16 2.16 2.16 0 0 0-2.16 2.15v4.47a2.16 2.16 0 0 0 2.16 2.15 2.15 2.15 0 0 0 2.15-2.14v-.03Zm-3-12.45H4.16A2.15 2.15 0 0 0 2 9.744a2.15 2.15 0 0 0 2.15 2.15h4.49a2.15 2.15 0 0 0 0-4.3l.05-.03Zm11.2 5.38h-4.53a2.15 2.15 0 0 0 0 4.3h4.48a2.15 2.15 0 0 0 2.16-2.12 2.15 2.15 0 0 0-2.16-2.15l.05-.03Zm-17.66 2.2a1.86 1.86 0 0 0 2 2 1.94 1.94 0 0 0 1.73-2v-1.38a.34.34 0 0 0-.33-.35H4.21a1.94 1.94 0 0 0-1.98 1.73Zm6.84-12.73a1.87 1.87 0 0 0-2 2A2 2 0 0 0 9 6.154h1.42a.34.34 0 0 0 .34-.34v-1.4a1.94 1.94 0 0 0-1.69-2Zm5.85 20a1.872 1.872 0 0 0 2-2 2 2 0 0 0-2-1.72h-1.38a.34.34 0 0 0-.34.34v1.38a1.94 1.94 0 0 0 1.72 2Zm6.85-12.68a1.859 1.859 0 0 0-2-2 1.94 1.94 0 0 0-1.72 2v1.38a.34.34 0 0 0 .34.34h1.41a1.94 1.94 0 0 0 1.97-1.72Z"/>
</svg>
