<svg xmlns="http://www.w3.org/2000/svg" width="24" height="25" fill="currentColor" viewBox="0 0 24 25">
  <path d="M12 2.414a10 10 0 1 0 0 20 10 10 0 0 0 0-20Zm4.73 13.55c-.62.09-.67.31-.71.44-.04.13 0 .43-.48.42a3.37 3.37 0 0 0-2.09.62 2.75 2.75 0 0 1-3-.06 2.94 2.94 0 0 0-1.68-.55c-.19 0-.59 0-.72-.14s0-.36-.16-.49a5.68 5.68 0 0 0-1.07-.41c-.29-.12-.64-.22.11-.59a4 4 0 0 0 1.43-1.21 2.41 2.41 0 0 0 .53-1.31c0-.19-.47-.43-.88-.71-.41-.28-.63-.55-.41-.83.22-.28.6-.07 1 .08.4.15.35.08.36 0v-1.5a2.75 2.75 0 0 1 2.75-2.75h.44A2.75 2.75 0 0 1 15 9.724v1.29c0 .43.31.23.74.07s.75 0 .75.34-.82.77-1.14 1c-.32.23-.35.31.08 1.22a4.16 4.16 0 0 0 1.9 1.7c.47.29.03.54-.6.62Z"/>
</svg>
