<svg xmlns="http://www.w3.org/2000/svg" width="24" height="25" fill="currentColor" viewBox="0 0 24 25">
  <path d="M19.23 12.064h-2.56a1.44 1.44 0 0 1 1.33-1.23 1.43 1.43 0 0 1 1.23 1.23Zm2.77.35a10 10 0 1 1-20 0 10 10 0 0 1 20 0Zm-10.39-4A4.71 4.71 0 1 0 9 17.164a4.761 4.761 0 0 0 2.19-.54.503.503 0 0 0-.47-.89 3.65 3.65 0 0 1-1.72.43 3.72 3.72 0 1 1 2-6.84.5.5 0 0 0 .54-.84l.07-.07ZM9 10.814a1.64 1.64 0 1 0 1.64 1.6 1.63 1.63 0 0 0-1.64-1.6Zm6.07-.79a.5.5 0 0 0-.7-.09l-.77.6v-.2a.5.5 0 0 0-1 0v4.45a.5.5 0 1 0 1 0v-3l1.4-1.06a.5.5 0 0 0 .07-.7Zm1.59 3h3.13a.5.5 0 0 0 .5-.5A2.56 2.56 0 0 0 18 9.834a2.56 2.56 0 0 0-2.34 2.73 2.442 2.442 0 0 0 2.34 2.72h1.43a.5.5 0 0 0 0-1H18a1.34 1.34 0 0 1-1.34-1.22v-.04Z"/>
</svg>
