<svg xmlns="http://www.w3.org/2000/svg" width="24" height="25" fill="currentColor" viewBox="0 0 24 25">
  <path d="M18.35 13.206H14.5a2.76 2.76 0 0 1-2.68-2.85v-4.05l6.53 6.9Zm0 1.25H14.5a4 4 0 0 1-3.91-4.12v-4h-4A4.63 4.63 0 0 0 2 10.976v7a4.64 4.64 0 0 0 4.59 4.73h7.24a4.64 4.64 0 0 0 4.59-4.69v-3.56h-.07Zm-1.24-11.75H10.6a4.78 4.78 0 0 0-4.21 2.41c.241-.04.485-.06.73-.06h7a5.22 5.22 0 0 1 5.2 5.24v7.21c-.008.431-.062.86-.16 1.28a4.93 4.93 0 0 0 2.84-4.44v-6.71a4.88 4.88 0 0 0-4.84-4.93h-.05Z"/>
</svg>
