<svg xmlns="http://www.w3.org/2000/svg" width="24" height="25" fill="currentColor" viewBox="0 0 24 25">
  <path d="M12 2.414a10 10 0 1 0 0 20 10 10 0 0 0 0-20Zm3.43 14.21a.761.761 0 0 1-.62.33.75.75 0 0 1-.42-.14 6.24 6.24 0 0 0-5.39-.69.75.75 0 0 1-.53-1.4 7.73 7.73 0 0 1 6.8.86.74.74 0 0 1 .16 1.04Zm1.19-2.88a.74.74 0 0 1-.63.34.78.78 0 0 1-.41-.12 7.52 7.52 0 0 0-7.2-.88.74.74 0 0 1-1-.34.75.75 0 0 1 .34-1 9 9 0 0 1 8.69 1 .76.76 0 0 1 .21 1Zm1.27-2.54a.73.73 0 0 1-.58.27.72.72 0 0 1-.47-.17c-4.37-3.55-10-1.26-10.07-1.23a.752.752 0 0 1-1.043-.693.753.753 0 0 1 .463-.697c.26-.11 6.52-2.67 11.6 1.46a.75.75 0 0 1 .1 1.06Z"/>
</svg>
