<svg xmlns="http://www.w3.org/2000/svg" width="24" height="25" fill="currentColor" viewBox="0 0 24 25">
  <path d="M16.19 2.707H7.81A5.81 5.81 0 0 0 2 8.517v8.38a5.81 5.81 0 0 0 5.81 5.81h8.38a5.81 5.81 0 0 0 5.81-5.81v-8.38a5.81 5.81 0 0 0-5.81-5.81ZM9 16.527a.75.75 0 0 1-.2 1 .83.83 0 0 1-.42.13.74.74 0 0 1-.62-.34l-2.8-4.14a.76.76 0 0 1 0-.83l2.74-4.28a.75.75 0 0 1 1-.23.76.76 0 0 1 .23 1l-2.5 3.95L9 16.526Zm4.87-7.88-2.05 8.47a.77.77 0 0 1-.82.59c-.06.01-.12.01-.18 0a.739.739 0 0 1-.55-.9l2-8.47a.75.75 0 1 1 1.46.35l.14-.04Zm5.27 4.57-2.8 4.14a.74.74 0 0 1-.62.34.83.83 0 0 1-.42-.13.75.75 0 0 1-.2-1l2.52-3.74L15 8.877a.77.77 0 0 1 .22-1 .76.76 0 0 1 1 .23l2.8 4.32a.76.76 0 0 1 .07.79h.05Z"/>
</svg>
