<svg xmlns="http://www.w3.org/2000/svg" width="24" height="25" fill="currentColor" viewBox="0 0 24 25">
  <path d="m14.06 3.937 1.87 3.26a1 1 0 0 0 .67.5l3.6.82a2.45 2.45 0 0 1 1.8 2.92c-.09.409-.28.79-.55 1.11L19 15.417a1.2 1.2 0 0 0-.25.82l.36 3.76a2.46 2.46 0 0 1-2.11 2.71 2.37 2.37 0 0 1-1.2-.2l-3.4-1.53a1.11 1.11 0 0 0-.84 0l-3.37 1.49A2.398 2.398 0 0 1 5 21.187a2.57 2.57 0 0 1-.19-1.23l.36-3.76a1.12 1.12 0 0 0-.25-.82l-2.44-2.87a2.5 2.5 0 0 1 .26-3.46 2.42 2.42 0 0 1 1-.53l3.63-.81a1 1 0 0 0 .63-.51l1.91-3.26a2.37 2.37 0 0 1 3.28-.9c.362.221.661.53.87.9Z"/>
</svg>
