<svg xmlns="http://www.w3.org/2000/svg" width="24" height="25" fill="currentColor" viewBox="0 0 24 25">
  <path d="M12 5.114a.75.75 0 0 1-.75-.7v-1.23a.75.75 0 1 1 1.5 0v1.23a.75.75 0 0 1-.75.7Zm.75 16.53v-1.18a.75.75 0 1 0-1.5 0v1.18a.75.75 0 1 0 1.5 0ZM6.84 7.254a.75.75 0 0 0 0-1.06L6 5.414a.75.75 0 0 0-1 1l.83.83a.75.75 0 0 0 1.06 0l-.05.01Zm12.21 12.22a.74.74 0 0 0 0-1.06l-.83-.84a.75.75 0 1 0-1.06 1.06l.83.84a.79.79 0 0 0 .53.22.75.75 0 0 0 .53-.22ZM4.7 12.414a.75.75 0 0 0-.7-.75H2.77a.75.75 0 1 0 0 1.5H4a.75.75 0 0 0 .7-.75Zm17.3 0a.76.76 0 0 0-.75-.75h-1.2a.75.75 0 1 0 0 1.5h1.18a.76.76 0 0 0 .77-.75Zm-16 7.06.83-.84a.75.75 0 1 0-1.06-1.06l-.77.84a.74.74 0 0 0 0 1.06c.14.14.331.22.53.22a.79.79 0 0 0 .47-.22Zm12.22-12.22.83-.84a.75.75 0 0 0-1.05-1l-.83.83a.75.75 0 0 0 1.06 1.06l-.01-.05ZM12 6.794a5.62 5.62 0 1 0 0 11.24 5.62 5.62 0 0 0 0-11.24Z"/>
</svg>
