<svg xmlns="http://www.w3.org/2000/svg" width="24" height="25" fill="currentColor" viewBox="0 0 24 25">
  <path d="m13.54 11.824 1.68-2.41v2.45l-1.68-.04ZM21 5.284v11a2.92 2.92 0 0 1-2.92 2.92H17a2.212 2.212 0 0 0-1.6.68l-1.81 1.9a2.23 2.23 0 0 1-3.23 0l-1.67-1.87a2.19 2.19 0 0 0-1.63-.71H5.92A2.92 2.92 0 0 1 3 16.284v-11a2.92 2.92 0 0 1 2.92-2.87h12.16A2.92 2.92 0 0 1 21 5.284Zm-13.07 8c.23-.21.53-.44.84-.68 1.08-.84 2.3-1.79 2.31-3.15a2.4 2.4 0 0 0-4.8 0 .75.75 0 1 0 1.5 0 .9.9 0 0 1 .9-.9.91.91 0 0 1 .66.25.88.88 0 0 1 .24.61c0 .63-1 1.38-1.73 2a8.81 8.81 0 0 0-1.29 1.13 1.34 1.34 0 0 0 1 2.23h2.77a.75.75 0 1 0 0-1.5l-2.4.01Zm9.92-.66a.75.75 0 0 0-.75-.75h-.4v-3.5a1.16 1.16 0 0 0-.82-1.13 1.17 1.17 0 0 0-1.32.46L12 11.484a1.149 1.149 0 0 0-.07 1.21 1.16 1.16 0 0 0 1 .63h2.27v.66a.74.74 0 0 0 .74.75.75.75 0 0 0 .75-.74v-.67h.41a.75.75 0 0 0 .75-.75v.05Z"/>
</svg>
