<svg xmlns="http://www.w3.org/2000/svg" width="24" height="25" fill="currentColor" viewBox="0 0 24 25">
  <path d="M16.08 3.187h-2.86a1 1 0 0 1 1-1h3.6a1 1 0 0 1 1 1.05v.64a5.69 5.69 0 0 0-2.74-.69Zm5.92 6v8a6 6 0 0 1-5.9 6H7.92a6 6 0 0 1-5.92-6v-8a6 6 0 0 1 5.92-6h5.3v5.64a1 1 0 0 0 1.11 1 1.11 1.11 0 0 0 .47-.17l.59-.48a.94.94 0 0 1 1.2 0l.58.48a1 1 0 0 0 1.42-.29c.09-.15.148-.317.17-.49v-5A6.07 6.07 0 0 1 22 9.167v.02Zm-14.73 4a.78.78 0 0 0 .76.79h5.1a.79.79 0 0 0 0-1.57H8a.78.78 0 0 0-.73.76v.02Zm8.9 4a.77.77 0 0 0-.76-.79H7.33a.79.79 0 0 0 0 1.57h8.08a.77.77 0 0 0 .76-.83v.05Z"/>
</svg>
