<svg xmlns="http://www.w3.org/2000/svg" width="24" height="25" fill="currentColor" viewBox="0 0 24 25">
  <path d="M15 5.707H9.49a1 1 0 0 1-.94-1v-1a1 1 0 0 1 .94-1H15a1 1 0 0 1 .93 1v1a1 1 0 0 1-.93 1Zm6 4.19v7.22a5.39 5.39 0 0 1-5.3 5.47H8.31a5.39 5.39 0 0 1-5.31-5.4v-7.22a5.39 5.39 0 0 1 4.55-5.41v.23a2 2 0 0 0 1.93 2H15a2 2 0 0 0 1.93-2v-.16A5.42 5.42 0 0 1 21 9.937v-.04Zm-8.12 6.45a.77.77 0 0 0-.75-.78H7.57a.78.78 0 0 0 0 1.55h4.56a.78.78 0 0 0 .75-.73v-.04Zm4-3.59a.77.77 0 0 0-.73-.78H7.57a.78.78 0 0 0 0 1.55h8.54a.76.76 0 0 0 .75-.77v-.05l.02.05Z"/>
</svg>
