<svg xmlns="http://www.w3.org/2000/svg" width="24" height="25" fill="currentColor" viewBox="0 0 24 25">
  <path d="M8.55 4.787v-1a1 1 0 0 1 .94-1H15a1 1 0 0 1 .93 1v1a1 1 0 0 1-.93 1H9.49a1 1 0 0 1-.94-1ZM21 9.937v7.22a5.38 5.38 0 0 1-5.29 5.47h-7.4A5.38 5.38 0 0 1 3 17.187v-7.22a5.4 5.4 0 0 1 4.55-5.42v.24a2 2 0 0 0 1.94 2H15a2 2 0 0 0 1.93-2v-.17A5.44 5.44 0 0 1 21 9.937Zm-5.48 6.28-.06-4.06a.77.77 0 0 0-.78-.77.79.79 0 0 0-.77.79v2.45l-4.2-3.24a.792.792 0 1 0-1 1.23l4.13 3.2-2.15.44a.79.79 0 0 0-.332 1.376.77.77 0 0 0 .492.174h.16l3.81-.79.11-.05h.09a1 1 0 0 0 .25-.2c.041-.066.075-.137.1-.21v-.11c0-.04.15-.18.15-.23Z"/>
</svg>
