<svg xmlns="http://www.w3.org/2000/svg" width="24" height="25" fill="currentColor" viewBox="0 0 24 25">
  <path d="M16.05 3.707v1a1 1 0 0 1-1 1H9.39a1 1 0 0 1-1-1v-1a1 1 0 0 1 1-1h5.68a1 1 0 0 1 .98 1Zm1 .84v.16a2 2 0 0 1-2 2H9.39a2 2 0 0 1-2-2v-.26a5.5 5.5 0 0 0-4.74 5.43v7.32a5.51 5.51 0 0 0 5.51 5.51h7.68a5.51 5.51 0 0 0 5.51-5.51v-7.32a5.51 5.51 0 0 0-4.26-5.36l-.04.03Zm-1.8 12.06a.75.75 0 0 1-1 .13l-4.18-3.23v2.45a.75.75 0 1 1-1.5 0v-4a.77.77 0 0 1 .43-.68l.15-.06 3.75-.91c.06-.01.12-.01.18 0a.75.75 0 0 1 .17 1.47l-2.25.53 4.15 3.22a.75.75 0 0 1 .14 1.05l-.04.03Z"/>
</svg>
