<svg xmlns="http://www.w3.org/2000/svg" width="24" height="25" fill="currentColor" viewBox="0 0 24 25">
  <path d="M17.83 4.457h-8.1a4.16 4.16 0 0 0-3.13 1.41L3 9.897a4.17 4.17 0 0 0 .06 5.57l3.83 4.14a4.18 4.18 0 0 0 3.11 1.35h7.87a4.17 4.17 0 0 0 4.13-4.17v-8.16a4.17 4.17 0 0 0-4.17-4.17Zm-1.45 10a.75.75 0 0 1 0 1.06.7.7 0 0 1-.52.22.762.762 0 0 1-.54-.23l-1.78-1.83-1.79 1.83a.74.74 0 0 1-1.06 0 .75.75 0 0 1 0-1.06l1.81-1.85-1.84-1.89a.75.75 0 0 1 1.06-1.06l1.79 1.82 1.79-1.76a.75.75 0 0 1 1.08 1l-1.81 1.86 1.81 1.89Z"/>
</svg>
