<svg xmlns="http://www.w3.org/2000/svg" width="24" height="25" fill="currentColor" viewBox="0 0 24 25">
  <path d="M12.77 5.266v-1.81a.7.7 0 0 0-1.4 0v1.81a6.84 6.84 0 0 0-6.27 6.72v7.64a3 3 0 0 0 3.06 3H16a3 3 0 0 0 3.06-3v-7.64a6.84 6.84 0 0 0-6.29-6.72Zm-1.4 1.59v.85a.7.7 0 1 0 1.4 0v-.85a1.43 1.43 0 0 1 .8 1.27 1.5 1.5 0 0 1-3 0 1.42 1.42 0 0 1 .8-1.27Zm1.84 12.73v.63a.429.429 0 0 1-.44.42h-.6a.419.419 0 0 1-.43-.42v-.61a3.488 3.488 0 0 1-1.56-.78.42.42 0 0 1-.07-.55l.39-.57a.441.441 0 0 1 .3-.17.46.46 0 0 1 .34.09 2 2 0 0 0 1.26.54c.6 0 .67-.3.67-.57 0-.46-.38-.68-1.05-1-.67-.32-1.73-.85-1.73-2.09a2 2 0 0 1 1.45-1.94v-.64a.419.419 0 0 1 .43-.42h.6a.43.43 0 0 1 .44.42v.62c.494.137.94.407 1.29.78a.42.42 0 0 1 0 .57l-.44.47a.5.5 0 0 1-.31.14.41.41 0 0 1-.32-.12 1.201 1.201 0 0 0-.91-.43.501.501 0 0 0-.57.51c0 .33.29.5.95.81.66.31 1.84.87 1.84 2.28a2 2 0 0 1-1.53 2.03Z"/>
</svg>
