<svg xmlns="http://www.w3.org/2000/svg" width="24" height="25" fill="currentColor" viewBox="0 0 24 25">
  <path d="M7.78 6.664a4.22 4.22 0 1 1 8.44.02 4.22 4.22 0 0 1-8.44-.02Zm1.81 4.51v1.57a.9.9 0 0 0 .5.81l1.5.75a.89.89 0 0 0 .82 0l1.5-.75a.9.9 0 0 0 .5-.81v-1.57a5.14 5.14 0 0 1-4.82 0Zm8.24 2a7.58 7.58 0 0 0-5 3.91v-2a1.82 1.82 0 0 1-1.62 0v2a7.58 7.58 0 0 0-5-3.91 1.29 1.29 0 0 0-1.57 1.54 7.57 7.57 0 0 0 6.52 5.77v.93a.84.84 0 1 0 1.68 0v-.89a7.57 7.57 0 0 0 6.52-5.77 1.29 1.29 0 0 0-1.53-1.58Z"/>
</svg>
