<svg xmlns="http://www.w3.org/2000/svg" width="24" height="25" fill="currentColor" viewBox="0 0 24 25">
  <path d="M21.23 13.704h-2.16v-2.58h2.16a.78.78 0 0 0 0-1.55h-2.16v-1.29a2.91 2.91 0 0 0-2.92-2.87h-1.31v-2.23a.78.78 0 0 0-1.55 0v2.23h-2.58v-2.23a.78.78 0 0 0-1.55 0v2.23H7.85a2.91 2.91 0 0 0-2.92 2.87v1.29H2.77a.78.78 0 0 0 0 1.55h2.16v2.58H2.77a.78.78 0 0 0 0 1.55h2.16v1.34a2.92 2.92 0 0 0 2.92 2.92h1.31v2.13a.78.78 0 0 0 1.55 0v-2.13h2.58v2.13a.78.78 0 0 0 1.55 0v-2.13h1.31a2.92 2.92 0 0 0 2.92-2.92v-1.34h2.16a.78.78 0 0 0 0-1.55Zm-5.72.83a1.48 1.48 0 0 1-1.51 1.48H9.79a1.48 1.48 0 0 1-1.48-1.48v-4.24a1.48 1.48 0 0 1 1.48-1.48H14a1.48 1.48 0 0 1 1.48 1.48l.03 4.24Z"/>
</svg>
