<svg xmlns="http://www.w3.org/2000/svg" width="24" height="25" fill="currentColor" viewBox="0 0 24 25">
  <path d="M7.27 9.094a3.91 3.91 0 0 1 1.07 1.92 4.52 4.52 0 1 1 2.26-2.26 3.91 3.91 0 0 1-1.92-1.07L8 6.994v-.08a1.5 1.5 0 1 0-1.5 1.5h.08l.69.68Zm.73 8.74v.08a1.5 1.5 0 1 1-1.5-1.5h.08l.69-.69a3.91 3.91 0 0 0 1.07-1.91 4.52 4.52 0 1 0 2.26 2.26 3.91 3.91 0 0 0-1.92 1.07l-.68.69Zm8-10.84v-.08a1.5 1.5 0 1 1 1.5 1.5h-.08l-.69.69a3.91 3.91 0 0 0-1.07 1.92 4.52 4.52 0 1 0-2.26-2.27 3.91 3.91 0 0 0 1.92-1.07l.68-.69Zm1.5 6.42a4.5 4.5 0 0 0-1.84.4 3.91 3.91 0 0 0 1.07 1.92l.69.69h.08a1.5 1.5 0 1 1-1.5 1.49v-.08l-.69-.69a3.91 3.91 0 0 0-1.92-1.07 4.5 4.5 0 1 0 4.11-2.66Zm-1.84.4a2.617 2.617 0 0 1-.06-.27c-.1-.75-.1-1.51 0-2.26.015-.091.035-.181.06-.27a4.52 4.52 0 0 1-2.26-2.26l-.27.06c-.75.1-1.51.1-2.26 0l-.27-.06a4.52 4.52 0 0 1-2.26 2.26c.025.089.045.179.06.27.1.75.1 1.51 0 2.26a2.604 2.604 0 0 1-.06.27 4.52 4.52 0 0 1 2.26 2.26l.27-.06c.75-.1 1.51-.1 2.26 0l.27.06a4.52 4.52 0 0 1 2.26-2.26Z"/>
</svg>
