<svg xmlns="http://www.w3.org/2000/svg" width="24" height="25" fill="currentColor" viewBox="0 0 24 25">
  <path d="M13.12 8.954v-1.42h2.24l3.08-2.53a1.765 1.765 0 0 1 0-.23 1.71 1.71 0 1 1 3.42 0 1.68 1.68 0 0 1-1.73 1.64 1.82 1.82 0 0 1-.87-.23l-3.16 2.6a.73.73 0 0 1-.47.17h-2.51Zm-5.49 3.25a4.75 4.75 0 0 1 4.82-4.67h.67v-5.12h-1.68a1.32 1.32 0 0 0-1.34 1.3v1.13a8.44 8.44 0 0 0-1.73.69l-.82-.79a1.37 1.37 0 0 0-1.9 0l-1.2 1.16a1.28 1.28 0 0 0 0 1.85l.81.79a7.49 7.49 0 0 0-.71 1.67H3.39a1.33 1.33 0 0 0-1.34 1.31v1.64a1.33 1.33 0 0 0 1.34 1.31h1.16c.168.583.407 1.144.71 1.67l-.81.79a1.28 1.28 0 0 0 0 1.85l1.2 1.16a1.37 1.37 0 0 0 1.9 0l.82-.79c.55.293 1.13.524 1.73.69v1.13a1.323 1.323 0 0 0 1.34 1.3h1.68v-5.41h-.67a4.75 4.75 0 0 1-4.82-4.66Zm1.47 0a3.3 3.3 0 0 0 3.35 3.21h.67v-1.7a1.531 1.531 0 1 1 0-3.05v-1.71h-.67a3.3 3.3 0 0 0-3.35 3.25Zm11 5.42a1.7 1.7 0 0 0-1 .32l-2.71-2.32a.74.74 0 0 0-.49-.18h-2.78v1.42h2.54l2.76 2.36v.05a1.71 1.71 0 1 0 1.71-1.65h-.03Zm-7.1-5.41a.66.66 0 0 0 .14.39v1.14a1.55 1.55 0 0 0 1.38-.82h4.35a1.569 1.569 0 0 0 1.28.64 1.531 1.531 0 1 0 0-3.05 1.57 1.57 0 0 0-1.48 1H14.5a1.55 1.55 0 0 0-1.38-.82v1.14a.66.66 0 0 0-.12.38Z"/>
</svg>
