<svg xmlns="http://www.w3.org/2000/svg" width="24" height="25" fill="currentColor" viewBox="0 0 24 25">
  <path d="M20.6 6.314H9.23a.75.75 0 0 1 0-1.5H20.6a.75.75 0 0 1 0 1.5Zm-4.41 4.25a.76.76 0 0 0-.75-.75H9.23a.75.75 0 0 0 0 1.5h6.21a.76.76 0 0 0 .75-.75Zm5.16 5a.75.75 0 0 0-.75-.75H9.23a.75.75 0 0 0 0 1.5H20.6a.75.75 0 0 0 .75-.75Zm-5.16 5a.76.76 0 0 0-.75-.75H9.23a.75.75 0 0 0 0 1.5h6.21a.76.76 0 0 0 .75-.75ZM4.7 4.264a1.3 1.3 0 1 0 0 2.6 1.3 1.3 0 0 0 0-2.6Zm0 10a1.3 1.3 0 1 0 0 2.599 1.3 1.3 0 0 0 0-2.6Z"/>
</svg>
