<svg xmlns="http://www.w3.org/2000/svg" width="24" height="25" fill="currentColor" viewBox="0 0 24 25">
  <path d="M20.53 6.873H9.16a.75.75 0 0 1 0-1.5h11.37a.75.75 0 0 1 0 1.5Zm-4.41 4.25a.75.75 0 0 0-.75-.75H9.16a.75.75 0 0 0 0 1.5h6.21a.76.76 0 0 0 .75-.75Zm5.16 5a.75.75 0 0 0-.75-.75H9.16a.75.75 0 1 0 0 1.5h11.37a.76.76 0 0 0 .75-.75Zm-5.16 5a.75.75 0 0 0-.75-.75H9.16a.75.75 0 0 0 0 1.5h6.21a.76.76 0 0 0 .75-.75ZM5.91 8.533v-4.83a.75.75 0 0 0-1.35-.46l-1.68 2.17a.751.751 0 1 0 1.18.93l.35-.44v2.63a.75.75 0 0 0 1.5 0Zm1 10a.75.75 0 0 0-.75-.75h-1l1.43-2.41a.76.76 0 0 0 .11-.38 2 2 0 1 0-3.91 0 .75.75 0 0 0 1.5 0 .46.46 0 0 1 .715-.38.44.44 0 0 1 .165.22l-2 3.32a.72.72 0 0 0 0 .75.73.73 0 0 0 .65.38h2.29a.741.741 0 0 0 .75-.79l.05.04Z"/>
</svg>
