<svg xmlns="http://www.w3.org/2000/svg" width="24" height="25" fill="currentColor" viewBox="0 0 24 25">
  <path d="m7.55 19.684-2.12 2.13a2.008 2.008 0 1 1-2.84-2.84l2.13-2.13 2.83 2.84Zm14.17-13.47a10.17 10.17 0 0 0-3.53-3.55 2 2 0 0 0-2.47.35l-.36.4L21 9.044l.35-.35a2 2 0 0 0 .37-2.48Zm-10.39 1.2a9.26 9.26 0 0 0-1.58 2.1l-2.26 4.05a9.738 9.738 0 0 1-1.58 2.09l-.49.49 2.84 2.83.48-.48a9.798 9.798 0 0 1 2.1-1.58l4.07-2.26a9.5 9.5 0 0 0 2.09-1.58l3.32-3.32-5.67-5.68-3.32 3.34Zm4.73-.48 1.43 1.42a1 1 0 0 1 0 1.42l-2.85 2.84a1 1 0 0 1-1.41 0l-1.42-1.42a1.002 1.002 0 0 1 0-1.42l2.84-2.86a1 1 0 0 1 1.41 0v.02Z"/>
</svg>
