<svg xmlns="http://www.w3.org/2000/svg" width="24" height="25" fill="currentColor" viewBox="0 0 24 25">
  <path d="M9.24 10.836a.76.76 0 0 1 .76-.75h1.26v-1.32a.75.75 0 1 1 1.5 0v1.32H14a.75.75 0 0 1 0 1.5h-4a.76.76 0 0 1-.76-.75Zm4.76 2.25h-4a.75.75 0 0 0 0 1.5h1.26v2.06a.75.75 0 1 0 1.5 0v-2.06H14a.75.75 0 0 0 0-1.5Zm8-4.38v8a6 6 0 0 1-6 6H7.93a6 6 0 0 1-6-6v-8a6 6 0 0 1 6-6h8.14a6 6 0 0 1 5.93 6Zm-5-.09a1.868 1.868 0 0 0-1.87-1.91H8.87A1.87 1.87 0 0 0 7 8.577v8.26a1.87 1.87 0 0 0 1.87 1.87h6.26a1.869 1.869 0 0 0 1.87-1.87v-8.22Z"/>
</svg>
