<svg xmlns="http://www.w3.org/2000/svg" width="24" height="25" fill="currentColor" viewBox="0 0 24 25">
  <path d="M20.07 7.693a1.11 1.11 0 0 0-.85-.77 4.48 4.48 0 0 1-1.48-.58h-.07a4.58 4.58 0 0 1-2-2.95v-.12a1.13 1.13 0 0 0-1.14-.86h-1.3a1 1 0 0 0-1 1v12.13a2.78 2.78 0 0 1-2.78 2.76 2.7 2.7 0 0 1-1.24-.29 2.78 2.78 0 0 1-1.53-2.48 2.83 2.83 0 0 1 2.67-2.77 1 1 0 0 0 .95-1v-1.28a.713.713 0 0 0 0-.2 1 1 0 0 0-1-.8 3.94 3.94 0 0 0-.52 0 6.07 6.07 0 0 0-2.7 11.1 6 6 0 0 0 3.87 1 6.23 6.23 0 0 0 5.56-6.27v-6.48a7.69 7.69 0 0 0 3.51 1.39 1 1 0 0 0 1.07-.94v-1.3a1.253 1.253 0 0 0-.02-.29Z"/>
</svg>
