<svg xmlns="http://www.w3.org/2000/svg" width="24" height="25" fill="currentColor" viewBox="0 0 24 25">
  <path d="M16.05 2.707H8a6 6 0 0 0-6 6v8.1a6 6 0 0 0 6 5.9h8.1a6 6 0 0 0 5.9-5.95v-8.05a6 6 0 0 0-5.95-6Zm-.45 14.43a1.37 1.37 0 0 1-1.42 1.17H9.93a1.37 1.37 0 0 1-1.45-1.17l-.41-5.1a.58.58 0 0 1 .62-.57h6.62a.58.58 0 0 1 .62.57l-.33 5.1Zm1-6.82h-.11a32.803 32.803 0 0 0-9 0 .75.75 0 0 1-.741-1.171.74.74 0 0 1 .491-.3 23.524 23.524 0 0 1 2.6-.27l.16-.87a1.1 1.1 0 0 1 1-1h2a1.1 1.1 0 0 1 1 1l.13.81c.83.05 1.7.13 2.59.26a.76.76 0 0 1 .63.86.74.74 0 0 1-.71.68h-.04Z"/>
</svg>
