<svg xmlns="http://www.w3.org/2000/svg" width="24" height="25" fill="currentColor" viewBox="0 0 24 25">
  <path d="M17.88 8.707H6.12A1.1 1.1 0 0 0 5 9.887l.71 10.44a2.56 2.56 0 0 0 2.61 2.38l7.55-.09a2.56 2.56 0 0 0 2.52-2.42L19 9.877a1.1 1.1 0 0 0-1.12-1.17Zm-4.43 9.3h-2.9a.75.75 0 1 1 0-1.5h2.9a.75.75 0 0 1 0 1.5Zm.78-3.7H9.77a.75.75 0 0 1 0-1.5h4.46a.75.75 0 1 1 0 1.5ZM21 7.227a.75.75 0 0 1-.85.63 59.7 59.7 0 0 0-16.27 0h-.13a.75.75 0 0 1-.12-1.49c.14 0 1.83-.29 4.45-.46l.33-1.69a1.87 1.87 0 0 1 1.84-1.51h3.53a1.88 1.88 0 0 1 1.84 1.53l.31 1.68c1.42.09 2.91.23 4.43.46a.75.75 0 0 1 .64.85Z"/>
</svg>
