<svg xmlns="http://www.w3.org/2000/svg" width="24" height="25" fill="currentColor" viewBox="0 0 24 25">
  <path d="M22 6.784a4.43 4.43 0 0 0-4.45-4.37H6.34a4.43 4.43 0 0 0-4.4 4.45L2 18.044a4.43 4.43 0 0 0 4.45 4.37h11.21a4.43 4.43 0 0 0 4.4-4.45L22 6.784Zm-7.3 6.46a.5.5 0 0 1-.5.5h-1.51v5.34a.5.5 0 0 1-.5.5h-.85a.5.5 0 0 1-.5-.5v-5.34h-1.5a.5.5 0 0 1-.5-.5v-.72a.5.5 0 0 1 .5-.5h4.86a.51.51 0 0 1 .5.5v.72Zm2.51 6.44a3.82 3.82 0 0 1-1.94-.5.5.5 0 0 1-.21-.56l.22-.71a.49.49 0 0 1 .3-.33.521.521 0 0 1 .44 0 2.42 2.42 0 0 0 1.25.36c.27 0 .88-.06.88-.62 0-.23 0-.49-.92-.84-.5-.17-2.05-.72-2.05-2.32a2.39 2.39 0 0 1 2.62-2.25 3.52 3.52 0 0 1 1.7.39.51.51 0 0 1 .22.6l-.23.69a.51.51 0 0 1-.29.3.48.48 0 0 1-.42 0 2.05 2.05 0 0 0-1-.25c-.54 0-.74.25-.74.48 0 .23.07.44 1 .8a2.55 2.55 0 0 1 2 2.39c-.04 1.17-.89 2.37-2.83 2.37Z"/>
</svg>
