<svg xmlns="http://www.w3.org/2000/svg" width="24" height="25" fill="currentColor" viewBox="0 0 24 25">
  <path d="M13.91 12.224a5.25 5.25 0 0 1-2.64 4.37 6.57 6.57 0 0 1-3.73.68 4.19 4.19 0 0 1-3.63-2.15.52.52 0 0 1 .41-.8c.371-.008.74-.058 1.1-.15a4.3 4.3 0 0 1-3.32-3.43.49.49 0 0 1 .63-.56 3.77 3.77 0 0 0 1.16.2 4.41 4.41 0 0 1-1.7-4.79.68.68 0 0 1 1.12-.26 12.19 12.19 0 0 0 8.19 3.79c1.59.08 2.37 1.68 2.41 3.1Zm7.41-7.18a8.23 8.23 0 0 0-2.32.12 4.33 4.33 0 0 0-7.15 1.25c-.17.4-.279.826-.32 1.26 2.45.12 3.79 2.39 3.84 4.57a6.73 6.73 0 0 1-3.36 5.68 7.16 7.16 0 0 1-3.84.91h-.68a6.476 6.476 0 0 1-1.9-.42 6.99 6.99 0 0 1-.68.29 9.47 9.47 0 0 1-1.83.33.53.53 0 0 0-.15 1 12.34 12.34 0 0 0 4.88 1 12.288 12.288 0 0 0 12.36-12.38v-.56a9 9 0 0 0 1.72-1.89.74.74 0 0 0-.57-1.16Z"/>
</svg>
