<svg xmlns="http://www.w3.org/2000/svg" width="24" height="25" fill="currentColor" viewBox="0 0 24 25">
  <path d="M20.41 2.414H5.11a1.09 1.09 0 0 0-.91.49l-1.51 2.27a1.09 1.09 0 0 0-.19.6v12.47a1.09 1.09 0 0 0 1.09 1.09h1.74a1.09 1.09 0 0 1 1.09 1.08v.91a1.09 1.09 0 0 0 1.09 1.09h1.33a1.09 1.09 0 0 0 .91-.48l1.43-2.13a1.1 1.1 0 0 1 .91-.48H16a1.1 1.1 0 0 0 .77-.32l4.38-4.37c.2-.207.314-.483.32-.77V3.494a1.09 1.09 0 0 0-1.06-1.08Zm-9.64 10.67a.74.74 0 0 1-.74.74h-.79a.74.74 0 0 1-.74-.74v-5.43a.74.74 0 0 1 .74-.74H10a.74.74 0 0 1 .74.74l.03 5.43Zm5.72 0a.75.75 0 0 1-.75.74H15a.74.74 0 0 1-.74-.74v-5.4a.74.74 0 0 1 .74-.74h.79a.75.75 0 0 1 .75.74l-.05 5.4Z"/>
</svg>
