<svg xmlns="http://www.w3.org/2000/svg" width="24" height="25" fill="currentColor" viewBox="0 0 24 25">
  <path d="M18.11 10.356Zm1.3-5H8.32a2.58 2.58 0 0 0-2.43 1.77h9.79a4.09 4.09 0 0 1 4.09 4.09v5.49a2.57 2.57 0 0 0 2.23-2.51v-6.21a2.59 2.59 0 0 0-2.59-2.59v-.04Zm-3.73 3.27H4.59A2.59 2.59 0 0 0 2 11.216v.28h16.27v-.28a2.59 2.59 0 0 0-2.59-2.59Zm2.59 4.82v4a2.59 2.59 0 0 1-2.59 2.59H4.59A2.588 2.588 0 0 1 2 17.426v-4l16.27.02ZM8.2 16.266a.75.75 0 0 0-.75-.75H4.57a.75.75 0 0 0 0 1.5h2.88a.752.752 0 0 0 .75-.75Zm8.25 0a.75.75 0 0 0-.75-.75h-1.21a.75.75 0 0 0 0 1.5h1.21a.752.752 0 0 0 .75-.75Z"/>
</svg>
