<svg xmlns="http://www.w3.org/2000/svg" width="24" height="25" fill="currentColor" viewBox="0 0 24 25">
  <path d="M14 7.527v-4.82l2.66 2.85 5.34 5.63h-4.72A3.38 3.38 0 0 1 14 7.707a1.202 1.202 0 0 1 0-.18Zm8 9.47a5.66 5.66 0 0 1-5.6 5.71H7.6a5.66 5.66 0 0 1-5.6-5.71v-8.58a5.66 5.66 0 0 1 5.6-5.71h4.91v4.82a4.93 4.93 0 0 0 4.64 5.18H22v4.29Zm-13.1-2.1a.73.73 0 0 0 .44-.94.72.72 0 0 0-.92-.45l-.5.18a2.41 2.41 0 0 1 1.39-1.08 2.31 2.31 0 0 1 1.82.2.718.718 0 0 0 1-.29.74.74 0 0 0-.29-1 3.79 3.79 0 0 0-5.19 1.54.28.28 0 0 0 0 .13l-.23-.61a.73.73 0 1 0-1.35.53l.8 2.14a.69.69 0 0 0 .67.46.49.49 0 0 0 .24 0l2.12-.81Zm5.81 3.14-.71-2.28a.73.73 0 0 0-.91-.47l-2.09.86a.76.76 0 0 0-.41 1 .718.718 0 0 0 .94.41l.44-.18a2.35 2.35 0 0 1-3.18.89.69.69 0 0 0-1 .24.75.75 0 0 0 .27 1H8a3.679 3.679 0 0 0 1.83.48 3.8 3.8 0 0 0 3.33-2l.15.45a.7.7 0 0 0 .69.51h.22a.74.74 0 0 0 .5-.93l-.01.02Z"/>
</svg>
