<svg xmlns="http://www.w3.org/2000/svg" width="24" height="25" fill="currentColor" viewBox="0 0 24 25">
  <path d="M16.69 6.807h-3a2.59 2.59 0 0 1-2.41-1.63l-.28-.84a2.6 2.6 0 0 0-2.43-1.63h-2A4.58 4.58 0 0 0 2 7.277v10.12a5.27 5.27 0 0 0 5.23 5.24h9.46a5.27 5.27 0 0 0 5.24-5.24v-5.33a5.26 5.26 0 0 0-5.24-5.26Zm-8.2 8.13a.74.74 0 0 1-.66-.46L7 12.407a.71.71 0 1 1 1.33-.5l.23.58a.24.24 0 0 1 0-.12 3.77 3.77 0 0 1 5.1-1.49.692.692 0 0 1 .28.94.711.711 0 0 1-1 .28 2.322 2.322 0 0 0-1.79-.19 2.39 2.39 0 0 0-1.34 1l.49-.17a.719.719 0 0 1 .94.4.7.7 0 0 1-.42.9l-2.16.77a.998.998 0 0 1-.17.13Zm7.66 3.12h-.22a.71.71 0 0 1-.68-.49l-.14-.45a3.78 3.78 0 0 1-5.11 1.43.701.701 0 0 1-.53-.84.71.71 0 0 1 .82-.57.72.72 0 0 1 .42.25 2.36 2.36 0 0 0 3.13-.85l-.44.17a.7.7 0 0 1-.92-.4.72.72 0 0 1 .4-.92l2.12-.82a.68.68 0 0 1 .93.42l.72 2.19a.71.71 0 0 1-.5.88Z"/>
</svg>
