<svg xmlns="http://www.w3.org/2000/svg" width="24" height="25" fill="currentColor" viewBox="0 0 24 25">
  <path d="M16.44 7.413a4.95 4.95 0 1 1-9.9-.1 4.95 4.95 0 0 1 9.9.1Zm4.95 9.89a4 4 0 1 1 0-.02v.02Zm-2-1.55a.75.75 0 0 0-1.05.12l-1.1 1.41-.59-.87a.742.742 0 0 0-1.17.91l1.21 1.56a.739.739 0 0 0 1.17 0l1.69-2.15a.74.74 0 0 0-.12-1l-.04.02ZM12 17.283a5.42 5.42 0 0 1 .71-2.69 9.424 9.424 0 0 0-1.2-.08c-4.51 0-8.25 2.9-8.89 6.63a1.14 1.14 0 0 0 1.2 1.27h11.69a5.46 5.46 0 0 1-3.51-5.13Z"/>
</svg>
