<svg xmlns="http://www.w3.org/2000/svg" width="24" height="25" fill="currentColor" viewBox="0 0 24 25">
  <path d="M22.76 8.314a6.682 6.682 0 0 0-2-4.73A6.76 6.76 0 0 0 16 1.644H7.86a6.71 6.71 0 0 0-6.66 6.77v8.08a6.71 6.71 0 0 0 6.8 6.69h8.14a6.71 6.71 0 0 0 6.66-6.77l-.04-8.1Zm-3 11.78a5.221 5.221 0 0 1-1.59 1.1 6.859 6.859 0 0 0-12.4 0 5.09 5.09 0 0 1-1.51-1 5.16 5.16 0 0 1-1.55-3.67l-.01-8.11a5.22 5.22 0 0 1 5.18-5.23h8.14a5.22 5.22 0 0 1 5.21 5.18v8.08a5.16 5.16 0 0 1-1.44 3.65h-.03Zm-4-7.77a3.8 3.8 0 1 1-3.76-3.8 3.8 3.8 0 0 1 3.8 3.8h-.04Z"/>
</svg>
