<svg xmlns="http://www.w3.org/2000/svg" width="24" height="25" fill="currentColor" viewBox="0 0 24 25">
  <path d="M15.585 10.146a4.95 4.95 0 1 0-8.19-5.563 4.95 4.95 0 0 0 8.19 5.563Z"/>
  <path fill-rule="evenodd" d="M20.716 19.527a4 4 0 0 0 .674-2.222v-.02a4 4 0 1 0-.674 2.242Zm-5.1-2.952a.85.85 0 0 0 0 1.7h3.547a.85.85 0 0 0 0-1.7h-3.548Z" clip-rule="evenodd"/>
  <path d="M12.71 14.595a5.42 5.42 0 0 0-.71 2.69 5.46 5.46 0 0 0 3.51 5.13H3.82a1.14 1.14 0 0 1-1.2-1.27c.64-3.73 4.38-6.63 8.89-6.63.401 0 .802.028 1.2.08Z"/>
</svg>
