<svg xmlns="http://www.w3.org/2000/svg" width="24" height="25" fill="currentColor" viewBox="0 0 24 25">
  <path d="M20.89 15.264a1 1 0 0 0-1.32.32l-1-.57h-.12a7.285 7.285 0 0 0 0-5.15h.12l1-.57a1 1 0 0 0 1.72-1l-1-1.66a1 1 0 0 0-1.75.94l-1 .58h-.06a6.88 6.88 0 0 0-4.41-2.74v-1.07a1 1 0 1 0 0-2h-1.94a1 1 0 0 0-.06 2v1.07a6.84 6.84 0 0 0-4.54 2.67l-.08-.07-.87-.5a1 1 0 1 0-1.73-1l-1 1.73a1 1 0 0 0 1.73 1l.87.5.12.05a7.31 7.31 0 0 0-.49 2.62 7.4 7.4 0 0 0 .49 2.63h-.12l-.87.5a1 1 0 1 0-1.73 1l1 1.73a1 1 0 1 0 1.73-1l.87-.5.08-.07a6.86 6.86 0 0 0 4.55 2.71v1.05a1 1 0 0 0 0 2h2a1 1 0 1 0 0-2v-1.07a6.86 6.86 0 0 0 4.45-2.72h.06l1 .57a1.003 1.003 0 0 0 1.74 1l1-1.66a1 1 0 0 0-.44-1.32Zm-7.46-5.41a1.21 1.21 0 1 1 2.42 0 1.21 1.21 0 0 1-2.42 0Zm2.42 4.56a.742.742 0 1 1-.395-1.312.76.76 0 0 1 .505.262.75.75 0 0 1-.11 1.05Z"/>
</svg>
