<svg xmlns="http://www.w3.org/2000/svg" width="24" height="25" fill="currentColor" viewBox="0 0 24 25">
  <path d="M12.05 22.414a.74.74 0 0 1-.62-.33L2.54 8.734a.75.75 0 0 1 .21-1 .74.74 0 0 1 1 .21l8.26 12.41 8.2-12.29a.75.75 0 0 1 1.25.83l-8.79 13.19a.73.73 0 0 1-.62.33Zm5.55-17.76-5.07 7.6a.65.65 0 0 1-1.1 0l-5.07-7.6a.66.66 0 0 0-.55-.24H4.49a.66.66 0 0 0-.56 1l7.51 11.72a.66.66 0 0 0 1.12 0l7.61-11.72a.66.66 0 0 0-.56-1h-1.46a.66.66 0 0 0-.55.24Zm-4.43-.24v-1.33a.68.68 0 0 0-.68-.67h-1a.67.67 0 0 0-.68.67v1.33l-2.69-1 3.26 4.9a.72.72 0 0 0 1.2 0l3.26-4.9-2.67 1Z"/>
</svg>
