<svg xmlns="http://www.w3.org/2000/svg" width="24" height="25" fill="currentColor" viewBox="0 0 24 25">
  <path d="M2 10.557Zm3.69-4.7h9.13a3.37 3.37 0 0 0-3.19-2.3H5.39A3.38 3.38 0 0 0 2 6.937v.77a4.68 4.68 0 0 1 3.71-1.85h-.02Zm13.25 10.55h2.13a.93.93 0 0 0 .93-.93v-2.24a.93.93 0 0 0-.93-.93h-2.13a2 2 0 0 0-2 2.05 2 2 0 0 0 2 2.05Zm-2-2a2 2 0 0 0 2 2H20v-4.1h-1.06a2 2 0 0 0-2.04 2.05l.04.05Zm-1 0a3 3 0 0 0 3 3H20v.74a3.71 3.71 0 0 1-3.7 3.71H5.71A3.71 3.71 0 0 1 2 18.147v-7.58a3.71 3.71 0 0 1 3.71-3.71h10.62a3.71 3.71 0 0 1 3.67 3.71v.74h-1.06a2.998 2.998 0 0 0-3.04 3.05l.04.05Zm-3.26-3.07a.75.75 0 0 0-.75-.75h-6.2a.75.75 0 1 0 0 1.5h6.16a.75.75 0 0 0 .75-.8l.04.05Z"/>
</svg>
