<svg xmlns="http://www.w3.org/2000/svg" width="24" height="25" fill="currentColor" viewBox="0 0 24 25">
  <path d="M19.67 19.654a5.38 5.38 0 0 0-1.86-4l-2.71-2.44a1.12 1.12 0 0 1-.1-1.59l.09-.08 2.71-2.42a5.38 5.38 0 0 0 1.86-4v-.34a2.35 2.35 0 0 0-2.38-2.32H6.7a2.35 2.35 0 0 0-2.38 2.32v.33a5.38 5.38 0 0 0 1.86 4l2.71 2.42a1.12 1.12 0 0 1 .11 1.6l-.09.08-2.73 2.42a5.38 5.38 0 0 0-1.86 4v.43a2.35 2.35 0 0 0 2.38 2.35h10.6a2.35 2.35 0 0 0 2.38-2.32v-.39l-.01-.05Zm-4.32-.12H8.76a.471.471 0 0 1-.434-.655.43.43 0 0 1 .104-.145l2.42-2.41a1.72 1.72 0 0 1 2.38 0l2.42 2.44a.46.46 0 0 1 0 .66.57.57 0 0 1-.3.11Z"/>
</svg>
