<svg xmlns="http://www.w3.org/2000/svg" width="24" height="25" fill="currentColor" viewBox="0 0 24 25">
  <path fill-rule="evenodd" d="M22.75 14.767c0-1.514-.675-2.932-1.905-3.99-1.096-.944-2.517-1.496-4.038-1.583-3.552.183-6.39 3.029-6.39 6.46 0 .339.02.667.057.983.052.429.189.846.427 1.206.206.31.446.595.723.85 1.132 1.052 2.803 1.607 4.97 1.653a.11.11 0 0 1 .033.003l3.602.86a.721.721 0 0 0 .649-.165.76.76 0 0 0 .25-.632l-.163-1.768c1.14-1.031 1.785-2.43 1.785-3.877Zm-9.386-.695c0 .235.091.46.254.626a.86.86 0 0 0 1.229 0 .893.893 0 0 0 0-1.251.861.861 0 0 0-1.229 0 .893.893 0 0 0-.254.625Zm3.634 0c0 .235.091.46.254.626a.861.861 0 0 0 1.229 0 .894.894 0 0 0 0-1.251.86.86 0 0 0-1.229 0 .893.893 0 0 0-.254.626Z" clip-rule="evenodd"/>
  <path fill-rule="evenodd" d="M10.028 17.261a8.424 8.424 0 0 1-.149-1.607c0-3.702 3.023-6.74 6.788-6.99-.419-1.35-1.303-2.565-2.538-3.469-1.405-1.031-3.193-1.596-5.033-1.596-2.074 0-4.027.7-5.503 1.97-1.51 1.302-2.343 3.04-2.343 4.898a6.1 6.1 0 0 0 .659 2.76c.38.76.908 1.447 1.57 2.039l-.538 3.05a.762.762 0 0 0 .25.708.726.726 0 0 0 .723.129l4.922-1.821c.41-.01.809-.032 1.192-.07Zm-4.324-7.193a1.078 1.078 0 0 1 0-1.51 1.038 1.038 0 0 1 1.482 0 1.078 1.078 0 0 1 0 1.51 1.038 1.038 0 0 1-1.482 0Zm4.482 0a1.078 1.078 0 0 1 0-1.51 1.039 1.039 0 0 1 1.483 0 1.078 1.078 0 0 1 0 1.51 1.04 1.04 0 0 1-1.483 0Z" clip-rule="evenodd"/>
</svg>
