<svg xmlns="http://www.w3.org/2000/svg" width="24" height="25" fill="currentColor" viewBox="0 0 24 25">
  <path d="M22 11.824A9.999 9.999 0 0 0 2.739 8.746a10 10 0 0 0 .591 8.668l-.89 3.31a1 1 0 0 0 .12.78.92.92 0 0 0 .34.34 1 1 0 0 0 .77.1l3.27-.9a10 10 0 0 0 5.06 1.37 10.15 10.15 0 0 0 10-10.59Zm-6 5.25c-1.14.66-2.25.42-3.88-.51a12.55 12.55 0 0 1-4.51-4.68c-1-1.93-.81-3.16.13-4a1.58 1.58 0 0 1 1-.48.89.89 0 0 1 .75.37l1.35 2c.032.1.056.205.07.31a.68.68 0 0 1-.11.37s-.5.59-.66.76a.24.24 0 0 0-.06.31 9.47 9.47 0 0 0 2.78 2.77.29.29 0 0 0 .34-.07c.235-.23.482-.447.74-.65a.721.721 0 0 1 .67-.05l2 1.38c.1.1.194.207.28.32a1.68 1.68 0 0 1-.89 1.85Z"/>
</svg>
