<svg xmlns="http://www.w3.org/2000/svg" width="24" height="25" fill="currentColor" viewBox="0 0 24 25">
  <path d="M3.16 7.414a.83.83 0 0 1 .15-1.18c.08-.06 8.3-6.16 17.3 0a.831.831 0 0 1 .21 1.18.86.86 0 0 1-.71.36.91.91 0 0 1-.5-.15 13.21 13.21 0 0 0-15.24 0 .88.88 0 0 1-1.21-.21Zm13.69 4.47a.88.88 0 0 0 .71-.35.83.83 0 0 0-.22-1.12 9.44 9.44 0 0 0-10.74 0 .81.81 0 0 0-.15 1.17.88.88 0 0 0 1.21.15 7.64 7.64 0 0 1 8.69 0 .84.84 0 0 0 .5.15Zm-7.32 2.89a.83.83 0 0 0 0 1.18.89.89 0 0 0 1.22.05 1.92 1.92 0 0 1 2.59 0 .89.89 0 0 0 .918.124.869.869 0 0 0 .302-.224.821.821 0 0 0-.11-1.18 3.69 3.69 0 0 0-4.92.05Zm10.58 4.82H4.41a.84.84 0 0 0 0 1.68h15.7a.84.84 0 1 0 0-1.68Z"/>
</svg>
