<svg xmlns="http://www.w3.org/2000/svg" width="24" height="25" fill="currentColor" viewBox="0 0 24 25">
  <path d="M16.05 2.707H8a6 6 0 0 0-6 6v8.1a6 6 0 0 0 6 5.9h8.1a6 6 0 0 0 5.9-5.95v-8.05a6 6 0 0 0-5.95-6Zm-1.23 14.09a.75.75 0 0 1-1.05.18 2.91 2.91 0 0 0-3.43 0 .751.751 0 1 1-.93-1.18 4.4 4.4 0 0 1 5.23 0 .74.74 0 0 1 .18 1Zm2.25-3a.73.73 0 0 1-1 .16 6.46 6.46 0 0 0-7.89-.16.75.75 0 0 1-1.1-.09.76.76 0 0 1 .11-1 8 8 0 0 1 9.73.11.75.75 0 0 1 .15 1.01v-.03Zm1.47-3.25a.72.72 0 0 1-.61.32.759.759 0 0 1-.43-.14 9 9 0 0 0-11 0 .765.765 0 1 1-1-1.16 10.66 10.66 0 0 1 12.78 0 .74.74 0 0 1 .26 1.01v-.03Z"/>
</svg>
