<svg xmlns="http://www.w3.org/2000/svg" width="24" height="25" fill="currentColor" viewBox="0 0 24 25">
  <path d="m20.77 9.036-6.36-5.33a3.48 3.48 0 0 0-4.41-.11l-6.66 5.18A3.47 3.47 0 0 0 2 11.936l.88 7.52a3.48 3.48 0 0 0 3.47 3.08h10.92a3.47 3.47 0 0 0 3.43-2.89l1.3-7.35a3.49 3.49 0 0 0-1.23-3.26ZM12 18.166a1 1 0 1 1 0-1.999 1 1 0 0 1 0 2Zm2.51-2.46a.75.75 0 0 1-1.06 0 2.11 2.11 0 0 0-3.11 0 .76.76 0 1 1-1.05-1.1 3.58 3.58 0 0 1 5.22 0 .751.751 0 0 1 0 1.1Zm2.14-2.45a.76.76 0 0 1-1.06.08 5.45 5.45 0 0 0-7.37 0 .75.75 0 1 1-1-1.1s4.6-4.15 9.37 0a.75.75 0 0 1 .06.99v.03Z"/>
</svg>
