<svg xmlns="http://www.w3.org/2000/svg" width="24" height="25" fill="currentColor" viewBox="0 0 24 25">
  <path d="m20.18 8.636-2.88 2.88a1.56 1.56 0 0 1-1.77.32 5.56 5.56 0 0 1-2.67-2.68 1.54 1.54 0 0 1 .32-1.77l2.87-2.88a1.07 1.07 0 0 0-.73-1.8 6.79 6.79 0 0 0-6.86 7.74 3 3 0 0 1-.88 2.54l-4.65 4.64a3 3 0 0 0-.22 4.13 2.91 2.91 0 0 0 4.23.11l4.76-4.75a3 3 0 0 1 2.54-.89A6.79 6.79 0 0 0 22 9.367a1.07 1.07 0 0 0-1.82-.73Zm-9.11 6.36-5.52 5.52a1 1 0 0 1-1.38 0 1 1 0 0 1 0-1.37l5.53-5.53a1 1 0 0 1 1.37 0 1 1 0 0 1 0 1.38Z"/>
</svg>
