<svg xmlns="http://www.w3.org/2000/svg" width="24" height="25" fill="currentColor" viewBox="0 0 24 25">
  <path d="M16.17 13.134h1v2h-1a1 1 0 0 1 0-2Zm5.88 3.28a6 6 0 0 1-5.93 6H8a6 6 0 0 1-6-5.93v-8.07a6 6 0 0 1 5.88-6H16a6 6 0 0 1 6 5.93l.05 8.07Zm-12.28-4 2.36-3a.777.777 0 0 0-1.19-1l-2.12 2.75-2.12-2.75a.75.75 0 0 0-1.18.92l2.35 3-2.35 3.08a.75.75 0 0 0 .918 1.133.751.751 0 0 0 .262-.213l2.12-2.72 2.12 2.73a.76.76 0 0 0 1.06.13.76.76 0 0 0 .13-1l-2.36-3.06Zm8.9-3.49a.75.75 0 1 0-1.5 0v2.74h-1a2.5 2.5 0 0 0 0 5h1.75a.75.75 0 0 0 .75-.75v-7 .01Z"/>
</svg>
