<svg xmlns="http://www.w3.org/2000/svg" width="24" height="25" fill="currentColor" viewBox="0 0 24 25">
  <path d="M2.92 4.263a8.52 8.52 0 0 1 8 .91 14.32 14.32 0 0 1 5.6 10.33s-1.25-2.37-5.55-3.41-8.43-2.41-8.05-7.83Zm9.68 10c-.41.61-.9 1.27-1.49 2a6.86 6.86 0 0 0-1.42 6.15 7.36 7.36 0 0 0 6.38-4.52 6.57 6.57 0 0 0-3.47-3.66v.03Zm5.24.06a.79.79 0 0 0 .37-.24c2.23-2.55 5.93-7.92 1.23-11.43a.86.86 0 0 0-.68-.15A4.66 4.66 0 0 0 15 5.923c-.091.36-.145.73-.16 1.1a16.87 16.87 0 0 1 3 7.27v.03Z"/>
</svg>
