<svg xmlns="http://www.w3.org/2000/svg" width="24" height="24" fill="currentColor" viewBox="0 0 24 24">
  <path d="M16.91 4.14v4.08L12 11.05V5.38l3.53-2a.92.92 0 0 1 1.38.76Zm-14.45 9.6 3.53 2L10.91 13 6 10.11l-3.53 2a.92.92 0 0 0-.01 1.63ZM18 19.86v-4.08L13.09 13v5.67l3.54 2a.919.919 0 0 0 1.37-.81Z"/>
  <path d="m8.47 3.34 3.53 2v5.67L7.09 8.22V4.14a.92.92 0 0 1 1.38-.8Zm-1.1 17.32 3.54-2V13L6 15.78v4.08a.92.92 0 0 0 1.37.8Zm14.17-8.51-3.53-2L13.09 13 18 15.78l3.53-2a.92.92 0 0 0 .01-1.63Z" opacity=".3"/>
</svg>
