<svg xmlns="http://www.w3.org/2000/svg" width="24" height="24" fill="currentColor" viewBox="0 0 24 24">
  <path d="M14.2 14.7a4.94 4.94 0 0 1-.37 4.13 5 5 0 0 1-9.31-2.51 4.91 4.91 0 0 0 6.24-1.06c.395.156.815.238 1.24.24a3.47 3.47 0 0 0 2.2-.8Zm-5.64-2.14A3.429 3.429 0 0 1 8.5 12a3.47 3.47 0 0 1 1.3-2.7A4.91 4.91 0 0 1 12 3.36a5 5 0 1 0-3.44 9.2ZM17 7a5 5 0 0 0-3.76 1.74 3.46 3.46 0 0 1 2.2 2.7 4.91 4.91 0 0 1 4 4.88A5 5 0 0 0 17 7Z" opacity=".3"/>
  <path d="M9.8 9.3a4.94 4.94 0 0 1 .37-4.13 5 5 0 0 1 9.31 2.51 4.91 4.91 0 0 0-6.24 1.06A3.42 3.42 0 0 0 12 8.5a3.47 3.47 0 0 0-2.2.8Zm-1.24 3.26a4.91 4.91 0 0 1-4-4.88 5 5 0 1 0 6.24 7.58 3.46 3.46 0 0 1-2.24-2.7Zm10.27 1.27a5 5 0 0 0-3.39-2.39c.035.185.055.372.06.56a3.47 3.47 0 0 1-1.3 2.7 4.91 4.91 0 0 1-2.2 5.94 5 5 0 0 0 6.83-6.81Z"/>
</svg>
