<svg xmlns="http://www.w3.org/2000/svg" width="24" height="24" fill="currentColor" viewBox="0 0 24 24">
  <path d="M4.5 7a2.5 2.5 0 1 0 0-5 2.5 2.5 0 0 0 0 5Z"/>
  <path d="M14 4.5a2.5 2.5 0 1 1-5 0 2.5 2.5 0 0 1 5 0ZM18.5 2a2.5 2.5 0 1 0 0 5 2.5 2.5 0 0 0 0-5Zm-14 7a2.5 2.5 0 1 0 0 5 2.5 2.5 0 0 0 0-5Zm7 0a2.5 2.5 0 1 0 0 5 2.5 2.5 0 0 0 0-5Zm7 0a2.5 2.5 0 1 0 0 5 2.5 2.5 0 0 0 0-5Zm-14 7a2.5 2.5 0 1 0 0 5 2.5 2.5 0 0 0 0-5Zm7 0a2.5 2.5 0 1 0 0 5 2.5 2.5 0 0 0 0-5Zm7 0a2.5 2.5 0 1 0 0 5 2.5 2.5 0 0 0 0-5Z" opacity=".3"/>
</svg>
