<svg xmlns="http://www.w3.org/2000/svg" width="24" height="24" fill="currentColor" viewBox="0 0 24 24">
  <path d="M15.89 15c.073-.301.11-.61.11-.92a3.86 3.86 0 0 0-.54-2 4 4 0 0 0-3.46-2 6.47 6.47 0 0 0-.62.06c-4 .51-6.73 4.05-8.78 7.49l8.28-14.39a1.29 1.29 0 0 1 2.24 0l.3.53C15.35 7.2 17 11.25 15.89 15Z"/>
  <path d="M20.7 20.26c-3.91 0-8.33-.35-11.14-3.05a3.92 3.92 0 0 0 2.44.84A4 4 0 0 0 15.5 16c.152-.278.27-.574.35-.88a.94.94 0 0 1 0-.13c1.15-3.72-.54-7.77-2.47-11.2l8.4 14.55a1.29 1.29 0 0 1-1.08 1.92Zm-12-1.94a7.86 7.86 0 0 1-.91-2.65c-.41-2.45.9-5.18 3.57-5.56-4 .51-6.73 4.05-8.78 7.49l-.42.72a1.29 1.29 0 0 0 1.14 1.94h7.06a7.348 7.348 0 0 1-1.64-1.94H8.7Z" opacity=".3"/>
</svg>
