<svg xmlns="http://www.w3.org/2000/svg" width="24" height="24" fill="currentColor" viewBox="0 0 24 24">
  <path d="M18.23 21.77c-1.46-1.2-8.93-1.34-11.71-.39A1.541 1.541 0 0 1 5 21l-2.77-2.77C4.44 16 11 15.31 16.06 16.06c.37 2.49 1.09 4.63 2.17 5.71ZM19 3a1.54 1.54 0 0 0-1.57-.4c-2.78 1-10.25.81-11.71-.39C7.05 3.51 7.68 5.76 8 7.94a27.56 27.56 0 0 0 4 .29c4.06 0 8.13-.82 9.77-2.46L19 3Z"/>
  <path d="M21.39 17.46A1.54 1.54 0 0 1 21 19l-2.76 2.74C16 19.56 15.31 13 16.06 7.94c2.49-.37 4.63-1.09 5.71-2.17-1.19 1.44-1.33 8.91-.38 11.69ZM8.24 11.89c0-2.69-.34-7.52-2.47-9.66L3 5a1.54 1.54 0 0 0-.39 1.59 18.88 18.88 0 0 1 .65 5.32c0 3.8-.7 5.95-1 6.34 1.06-1.11 3.21-1.83 5.74-2.2a27.8 27.8 0 0 0 .24-4.16Z" opacity=".3"/>
</svg>
