<svg xmlns="http://www.w3.org/2000/svg" width="24" height="24" fill="currentColor" viewBox="0 0 24 24">
  <path d="M10.69 10.69A15.94 15.94 0 0 1 21 6a1.08 1.08 0 0 0 1-1.09V3a1 1 0 0 0-1-1A20 20 0 0 0 2 21a1 1 0 0 0 1 1h1.94A1.08 1.08 0 0 0 6 21a15.94 15.94 0 0 1 4.69-10.31Z"/>
  <path d="M14.93 14.93A9.89 9.89 0 0 1 21 12.05 1.09 1.09 0 0 0 22 11V9a1 1 0 0 0-1.09-1A14 14 0 0 0 8 20.91 1 1 0 0 0 9 22h2a1.09 1.09 0 0 0 1.09-1 9.89 9.89 0 0 1 2.84-6.07Zm1.41 1.41a8 8 0 0 1 4.53-2.26 1 1 0 0 1 1.13 1V17a1.12 1.12 0 0 1-.91 1.08 4 4 0 0 0-3 3A1.12 1.12 0 0 1 17 22h-1.93a1.001 1.001 0 0 1-1-1.13 8 8 0 0 1 2.27-4.53Z" opacity=".3"/>
</svg>
