<svg xmlns="http://www.w3.org/2000/svg" width="24" height="24" fill="currentColor" viewBox="0 0 24 24">
  <path d="M21.25 18.52 13 21.8c-.66.27-1.4.27-2.06 0l-8.19-3.28a1.2 1.2 0 0 1 0-2.23L4 15.78l6.19 2.48a4.83 4.83 0 0 0 3.56 0L20 15.78l1.28.51a1.201 1.201 0 0 1-.03 2.23ZM13 16.4l8.22-3.29a1.2 1.2 0 0 0 0-2.22L13 7.6a2.82 2.82 0 0 0-2 0l-8.25 3.29a1.2 1.2 0 0 0 0 2.22L11 16.4a2.82 2.82 0 0 0 2 0Z" opacity=".3"/>
  <path d="M11 11 2.75 7.71a1.2 1.2 0 0 1 0-2.23L11 2.2a2.72 2.72 0 0 1 2 0l8.22 3.28a1.2 1.2 0 0 1 0 2.23L13 11a2.82 2.82 0 0 1-2 0Z"/>
</svg>
