<svg xmlns="http://www.w3.org/2000/svg" width="24" height="24" fill="currentColor" viewBox="0 0 24 24">
  <path d="M15.73 3.69H8.28a5.46 5.46 0 0 0-5.46 5.46v7.39A5.46 5.46 0 0 0 8.28 22h7.45a5.46 5.46 0 0 0 5.46-5.46V9.15a5.46 5.46 0 0 0-5.46-5.46Z" opacity=".3"/>
  <path d="M8.35 5.43a.75.75 0 0 1-.75-.75V2.85a.75.75 0 1 1 1.5 0v1.83a.75.75 0 0 1-.75.75Zm7.3 0a.74.74 0 0 1-.75-.75V2.85a.75.75 0 1 1 1.5 0v1.83a.75.75 0 0 1-.75.75Zm-1.37 8.19h-1.54v1.54a.71.71 0 0 1-.69.73.71.71 0 0 1-.71-.69v-1.59h-1.6a.71.71 0 1 1 0-1.42h1.54v-1.53a.72.72 0 0 1 .967-.696.7.7 0 0 1 .453.656v1.59h1.6a.72.72 0 0 1 0 1.43l-.02-.02Z"/>
</svg>
