<svg xmlns="http://www.w3.org/2000/svg" width="24" height="24" fill="none" viewBox="0 0 24 24">
  <path fill="#000" d="M11.21 4.53a2.61 2.61 0 0 0 2.42 1.64h3a5.28 5.28 0 0 1 4.63 2.75 5.51 5.51 0 0 0-5.49-5.17H10.9l.31.78Z" opacity=".3"/>
  <path fill="#000" d="M16.72 6.11h-3a2.59 2.59 0 0 1-2.41-1.64L11 3.63A2.61 2.61 0 0 0 8.59 2h-2A4.58 4.58 0 0 0 2 6.58v10.15A5.28 5.28 0 0 0 7.28 22h9.44A5.28 5.28 0 0 0 22 16.73v-5.34a5.272 5.272 0 0 0-5.28-5.28Zm-2.44 8.05h-1.55v1.53a.71.71 0 0 1-.69.73.71.71 0 0 1-.71-.69v-1.59h-1.6a.71.71 0 0 1 0-1.42h1.54v-1.54a.71.71 0 0 1 .69-.73.692.692 0 0 1 .73.69v1.59h1.6a.71.71 0 1 1 0 1.42l-.01.01Z"/>
</svg>
