<svg xmlns="http://www.w3.org/2000/svg" width="24" height="24" fill="none" viewBox="0 0 24 24">
  <path fill="#000" d="M20.64 10.68 14.5 8a.63.63 0 0 1-.37-.57V4.1a1.72 1.72 0 0 0-.49-1.19L13 2.28a1.34 1.34 0 0 0-1.92 0l-.62.63A1.72 1.72 0 0 0 10 4.1v3.29a.62.62 0 0 1-.38.61l-6.26 2.68a.9.9 0 0 0-.55.83v2.14a.91.91 0 0 0 1.27.83l5-2.2a.62.62 0 0 1 .87.57v3.29a.64.64 0 0 1-.22.49l-2.34 1.94a.86.86 0 0 0-.32.67v2a.87.87 0 0 0 1.42.67l2.95-2.4a.82.82 0 0 1 1.06 0l2.95 2.4a.87.87 0 0 0 1.42-.67v-2a.831.831 0 0 0-.32-.67l-2.19-1.79a.619.619 0 0 1-.23-.49v-3.38a.619.619 0 0 1 .87-.57l4.92 2.14a.91.91 0 0 0 1.27-.83v-2.14a.901.901 0 0 0-.55-.83Z" opacity=".3"/>
  <path fill="#000" d="M14.5 8a.63.63 0 0 1-.37-.57V4.1a1.72 1.72 0 0 0-.49-1.19L13 2.28a1.34 1.34 0 0 0-1.92 0l-.62.63A1.72 1.72 0 0 0 10 4.1v3.29a.62.62 0 0 1-.38.61l-6.26 2.68a.9.9 0 0 0-.55.83v2.14a.91.91 0 0 0 1.27.83l5-2.2a.62.62 0 0 1 .87.57v1.25L16.67 9 14.5 8Z"/>
</svg>
