<svg xmlns="http://www.w3.org/2000/svg" width="24" height="24" fill="currentColor" viewBox="0 0 24 24">
  <path d="M14.92 8.99H9.08A2.08 2.08 0 0 0 7 11.07v5.86a2.08 2.08 0 0 0 2.08 2.08h5.84A2.08 2.08 0 0 0 17 16.93v-5.86a2.08 2.08 0 0 0-2.08-2.08Z" opacity=".3"/>
  <path d="M4 16.66a1 1 0 0 1-1-1v-4a1 1 0 1 1 2 0v4a1 1 0 0 1-1 1ZM9.08 19v2a1 1 0 1 0 2 0v-2h-2Zm5.84 0H13v2a1 1 0 0 0 2 0v-2h-.08ZM20 16.66a1 1 0 0 1-1-1v-4a1 1 0 0 1 2 0v4a1 1 0 0 1-1 1Z"/>
  <path d="M13.83 7.59a1.81 1.81 0 0 0 1.84-1.72 3.93 3.93 0 0 0-4-3.87 3.93 3.93 0 0 0-4 3.87 1.81 1.81 0 0 0 1.84 1.72h4.32Z" opacity=".3"/>
</svg>
