<svg xmlns="http://www.w3.org/2000/svg" width="24" height="24" fill="currentColor" viewBox="0 0 24 24">
  <path d="m18.13 18.88-4.53 2.66a3.42 3.42 0 0 1-3.42 0l-4.54-2.66A3.41 3.41 0 0 1 4 16.26l-.77-8.55a3.37 3.37 0 0 1 2.16-3.46l5.29-2a3.47 3.47 0 0 1 2.42 0l5.29 2a3.4 3.4 0 0 1 2.16 3.46l-.75 8.55a3.4 3.4 0 0 1-1.67 2.62Z" opacity=".3"/>
  <path d="m17.24 15.85-1.39-2.95a.76.76 0 0 0-.19-.38L12.57 6a.78.78 0 0 0-.69-.43.73.73 0 0 0-.67.44l-4.49 9.85a.75.75 0 0 0 .38 1 .672.672 0 0 0 .31.07.751.751 0 0 0 .68-.44l1.23-2.7h5.28l1.29 2.71a.75.75 0 1 0 1.35-.64v-.01ZM10 12.28l1.9-4.18 2 4.18H10Z"/>
  <path d="m18.39 4.25-5.29-2A3.24 3.24 0 0 0 12 2v20a3.59 3.59 0 0 0 1.64-.46l4.53-2.66a3.4 3.4 0 0 0 1.67-2.62l.75-8.55a3.4 3.4 0 0 0-2.2-3.46Z" opacity=".3"/>
</svg>
