<svg xmlns="http://www.w3.org/2000/svg" width="24" height="24" fill="currentColor" viewBox="0 0 24 24">
  <path d="M15.3 5.1a4.86 4.86 0 0 0 1-2.24.74.74 0 0 0-1-.81 4.82 4.82 0 0 0-2.07 1.44 4.511 4.511 0 0 0-1 2.34.731.731 0 0 0 .94.74A4.21 4.21 0 0 0 15.3 5.1Z"/>
  <path d="M18.78 10.1a1 1 0 0 0-.1-1.52 4.48 4.48 0 0 0-2.44-1c-1.36-.09-2.46.8-3.77.8s-2.12-.8-3.57-.8A4.85 4.85 0 0 0 5 10c-1.38 2.08-1.14 6 1.05 9.42C6.84 20.63 7.89 22 9.27 22c1.22 0 1.56-.79 3.22-.79 1.66 0 2 .8 3.19.79 1.38 0 2.48-1.52 3.27-2.73.306-.453.58-.928.82-1.42a1 1 0 0 0-.37-1.24 4.18 4.18 0 0 1-.62-6.51Z" opacity=".3"/>
</svg>
