<svg xmlns="http://www.w3.org/2000/svg" width="24" height="24" fill="none" viewBox="0 0 24 24">
  <path fill="#000" d="m21.8 5.71-2.54-2.64a.71.71 0 0 0-1 0 .75.75 0 0 0 0 1.06l1.39 1.47h-3.1a.77.77 0 0 0-.52.22L5 17.08H2.72a.75.75 0 1 0 0 1.5h2.55a.718.718 0 0 0 .51-.22l11-11.3h2.67l-1.31 1.39a.77.77 0 0 0 0 1.06.74.74 0 0 0 .51.22.72.72 0 0 0 .51-.22l2.64-2.74a.75.75 0 0 0 0-1.06Z"/>
  <path fill="#000" d="M10.94 12.76a.718.718 0 0 1-.51-.22L5 6.93H2.72a.75.75 0 0 1 0-1.5h2.55a.72.72 0 0 1 .51.22l5.67 5.82a.77.77 0 0 1-.231 1.227.71.71 0 0 1-.279.063Zm10.85 4.37-2.55-2.64a.71.71 0 0 0-1 0 .77.77 0 0 0 0 1.06l1.31 1.37h-2.38l-2.51-2.57a.7.7 0 0 0-1 0 .76.76 0 0 0 0 1.06l2.71 2.79a.721.721 0 0 0 .51.22h2.67l-1.41 1.45a.77.77 0 0 0 0 1.06.719.719 0 0 0 .798.163.7.7 0 0 0 .232-.163l2.64-2.74a.77.77 0 0 0 0-1.06h-.02Z" opacity=".3"/>
</svg>
