<svg xmlns="http://www.w3.org/2000/svg" width="24" height="24" fill="none" viewBox="0 0 24 24">
  <path fill="#000" d="M19.78 18a.68.68 0 0 0-1 0l-1.64 1.62V2.84a.732.732 0 0 0-.73-.84.73.73 0 0 0-.71.75v16.68L14.36 18a.68.68 0 0 0-1 0 .79.79 0 0 0 0 1.06l2.59 2.73a.68.68 0 0 0 1 0l2.8-2.79a.779.779 0 0 0 .22-.56.73.73 0 0 0-.19-.44Z" opacity=".3"/>
  <path fill="#000" d="M10.51 4.91 8 2.22A.68.68 0 0 0 7.45 2a.72.72 0 0 0-.51.22L4.23 5.05a.76.76 0 0 0 0 1 .7.7 0 0 0 .773.152.68.68 0 0 0 .227-.162L6.66 4.6v16.67a.71.71 0 1 0 1.42 0V4.45L9.5 5.94a.69.69 0 0 0 1 0 .75.75 0 0 0 .01-1.03Z"/>
</svg>
