<svg xmlns="http://www.w3.org/2000/svg" width="24" height="24" fill="none" viewBox="0 0 24 24">
  <path fill="#000" d="M2.79 17.11a.77.77 0 0 1-.56-.24.78.78 0 0 1 0-1.12L9.07 9a.81.81 0 0 1 1.11 0l3.9 3.73 5.8-5.63A.795.795 0 1 1 21 8.23l-6.36 6.17a.79.79 0 0 1-1.1 0l-3.9-3.73-6.29 6.2a.82.82 0 0 1-.56.24Z" opacity=".3"/>
  <path fill="#000" d="M21.18 12.19a.76.76 0 0 1-.74-.76V7.76h-3.68a.74.74 0 0 1-.76-.71.76.76 0 0 1 .75-.76h4.44a.71.71 0 0 1 .53.22A.68.68 0 0 1 22 7v4.43a.76.76 0 0 1-.82.76Z"/>
</svg>
