<svg xmlns="http://www.w3.org/2000/svg" width="24" height="24" fill="none" viewBox="0 0 24 24">
  <path fill="#000" d="M20 2.16a.78.78 0 0 0-.77.77v2.74a9.42 9.42 0 0 0-16 4.46.76.76 0 0 0 .58.92c.06.01.12.01.18 0a.77.77 0 0 0 .75-.6A7.87 7.87 0 0 1 18.18 6.8h-2.89a.78.78 0 1 0 0 1.56H20a.78.78 0 0 0 .78-.78V2.93a.78.78 0 0 0-.78-.77Z" opacity=".3"/>
  <path fill="#000" d="M21.08 13.18a.78.78 0 0 0-.91.61A7.88 7.88 0 0 1 6.62 17.5h3a.782.782 0 0 0 .8-1.094.78.78 0 0 0-.8-.456H5.28a.78.78 0 0 0-.78.78v4.49a.78.78 0 1 0 1.56 0v-2.09a9.43 9.43 0 0 0 15.63-5 .79.79 0 0 0-.61-.95Z"/>
</svg>
