<svg xmlns="http://www.w3.org/2000/svg" width="24" height="24" fill="none" viewBox="0 0 24 24">
  <path fill="#000" d="M20.71 16.26a.82.82 0 0 1-.55-.22l-5.72-5.57-3.85 3.69a.78.78 0 0 1-1.09 0L2.75 7.5a.785.785 0 1 1 1.1-1.12l6.2 6.12 3.86-3.68a.77.77 0 0 1 1.08 0l6.26 6.09a.78.78 0 0 1-.54 1.34v.01Z" opacity=".3"/>
  <path fill="#000" d="M21.14 17h-4.39a.728.728 0 0 1-.74-.75.741.741 0 0 1 .75-.75h3.62v-3.62a.75.75 0 0 1 .74-.75.73.73 0 0 1 .76.74l.05 4.38a.77.77 0 0 1-.22.54.751.751 0 0 1-.57.21Z"/>
</svg>
