<svg xmlns="http://www.w3.org/2000/svg" width="24" height="24" fill="none" viewBox="0 0 24 24">
  <path fill="#000" d="M21.25 16.44H4.62L6.06 15a.72.72 0 0 0 0-1A.75.75 0 0 0 5 14l-2.72 2.69a.76.76 0 0 0 0 1L5 20.7a.76.76 0 0 0 .56.24.74.74 0 0 0 .5-.2.76.76 0 0 0 0-1.06L4.53 18h16.72a.75.75 0 0 0 0-1.5v-.06Z" opacity=".3"/>
  <path fill="#000" d="M21.78 7.21 19 4.36a.72.72 0 0 0-1 0 .75.75 0 0 0 0 1l1.48 1.5H2.79a.75.75 0 0 0 0 1.49h16.77l-1.49 1.5a.75.75 0 0 0 .52 1.28.7.7 0 0 0 .51-.13l2.68-2.69a.75.75 0 0 0 .22-.56.79.79 0 0 0-.22-.54Z"/>
</svg>
