<svg xmlns="http://www.w3.org/2000/svg" width="24" height="24" fill="none" viewBox="0 0 24 24">
  <path fill="#000" d="M14.9 20.92H6.27A4.35 4.35 0 0 1 2 16.51V7.6a4.34 4.34 0 0 1 4.27-4.4h8.63a4.34 4.34 0 0 1 4.27 4.4v5.66a.73.73 0 1 1-1.45 0V7.6a2.87 2.87 0 0 0-2.82-2.9H6.27a2.87 2.87 0 0 0-2.82 2.9v8.91a2.88 2.88 0 0 0 2.82 2.91h8.63a2.81 2.81 0 0 0 2.62-1.85.729.729 0 0 1 .95-.42.76.76 0 0 1 .4 1 4.24 4.24 0 0 1-3.97 2.77Z" opacity=".3"/>
  <path fill="#000" d="M18.4 15.26a.752.752 0 0 1-.54-.24L15 12a.75.75 0 0 1 0-1 .75.75 0 0 1 1.06 0l2.34 2.44L20.74 11a.75.75 0 0 1 1.06 1.06l-2.88 3a.75.75 0 0 1-.52.2Z"/>
</svg>
