<svg xmlns="http://www.w3.org/2000/svg" width="24" height="24" fill="currentColor" viewBox="0 0 24 24">
  <path d="M5.47 19.16a.7.7 0 0 1-.47-.22.75.75 0 0 1 0-1.06L17.8 4.94A.75.75 0 0 1 18.86 6L6 18.94a.75.75 0 0 1-.53.22Z" opacity=".3"/>
  <path d="M5.39 19.16a.75.75 0 0 1-.75-.76v-4.2a.75.75 0 0 1 .75-.74.75.75 0 0 1 .74.76v3.43h3.44a.731.731 0 0 1 .76.74.76.76 0 0 1-.74.76H5.38l.01.01Zm12.98-8.87a.76.76 0 0 1-.75-.76V6.1h-3.44a.75.75 0 0 1 0-1.5h4.2a.71.71 0 0 1 .54.22.76.76 0 0 1 .22.54l-.05 4.2a.75.75 0 0 1-.72.73Z"/>
</svg>
