<svg xmlns="http://www.w3.org/2000/svg" width="24" height="24" fill="none" viewBox="0 0 24 24">
  <path fill="#000" d="M9.1 20.92h8.63A4.35 4.35 0 0 0 22 16.51V7.6a4.34 4.34 0 0 0-4.27-4.4H9.1a4.34 4.34 0 0 0-4.27 4.4v5.66a.73.73 0 1 0 1.45 0V7.6A2.87 2.87 0 0 1 9.1 4.7h8.63a2.87 2.87 0 0 1 2.82 2.9v8.91a2.88 2.88 0 0 1-2.82 2.91H9.1a2.81 2.81 0 0 1-2.62-1.85.73.73 0 0 0-1-.42.76.76 0 0 0-.4 1 4.24 4.24 0 0 0 4.02 2.77Z" opacity=".3"/>
  <path fill="#000" d="M5.6 15.26a.75.75 0 0 1-.54-.26l-2.88-3a.75.75 0 0 1 .02-1 .75.75 0 0 1 1.06 0l2.34 2.42L7.94 11A.75.75 0 0 1 9 11a.75.75 0 0 1 0 1l-2.86 3a.75.75 0 0 1-.54.26Z"/>
</svg>
