<svg xmlns="http://www.w3.org/2000/svg" width="24" height="24" fill="none" viewBox="0 0 24 24">
  <path fill="#000" d="m19.09 18-6-6 5.8-5.84a.75.75 0 0 0-1.06-1.06L12 10.86 6.23 5a.75.75 0 0 0-1.06 1.06L11 11.93 5 18a.75.75 0 0 0 0 1 .79.79 0 0 0 .53.22A.75.75 0 0 0 6 19l6-6 6 6a.79.79 0 0 0 .53.22.77.77 0 0 0 .53-.22.75.75 0 0 0 .03-1Z" opacity=".3"/>
  <path fill="#000" d="M5.41 19.29a.77.77 0 0 1-.53-.22.79.79 0 0 1-.22-.54v-4.2a.76.76 0 0 1 .75-.75.76.76 0 0 1 .74.76v3.44h3.44a.77.77 0 0 1 .76.74.75.75 0 0 1-.75.76l-4.2.05.01-.04Zm13.22-8.87a.76.76 0 0 1-.74-.76V6.22h-3.44a.75.75 0 1 1 0-1.5h4.21a.66.66 0 0 1 .53.22.67.67 0 0 1 .22.53v4.2a.75.75 0 0 1-.78.75Zm-.04 8.87-4.2-.05a.75.75 0 0 1-.75-.75.79.79 0 0 1 .76-.75h3.44V14.3a.75.75 0 0 1 .74-.75.72.72 0 0 1 .76.74l.05 4.2a.79.79 0 0 1-.22.54.77.77 0 0 1-.58.26ZM5.37 10.42a.75.75 0 0 1-.75-.75v-4.2a.71.71 0 0 1 .22-.54.69.69 0 0 1 .53-.22h4.21a.75.75 0 1 1 0 1.5H6.14v3.44a.76.76 0 0 1-.74.76l-.03.01Z"/>
</svg>
