<svg xmlns="http://www.w3.org/2000/svg" width="24" height="24" fill="currentColor" viewBox="0 0 24 24">
  <path d="M8.886 7.794a1.9 1.9 0 1 1-1.204-.945L9.35 5.1V2.79a.75.75 0 1 1 1.5 0V5.4a.75.75 0 0 1-.2.52L8.886 7.794Zm9.954 8.586a3.6 3.6 0 0 1-.43 1.33c-.2.367-.524.577-.853.789a4.216 4.216 0 0 0-.527.381c-.553.516-.498 1.368-.453 2.074l.013.216a1.06 1.06 0 0 1-.09.5.72.72 0 0 1-.92.2 1.79 1.79 0 0 1-.68-.76 12.28 12.28 0 0 1-.27-.528c-.154-.312-.306-.621-.49-.882a7.94 7.94 0 0 0-2.5-2 2.52 2.52 0 0 1-.94-1.35h.11c.185-.1.366-.21.54-.33a5 5 0 0 1 3.16-.31c1.267.288 2.549.505 3.84.65.162.017.326.024.49.02Zm-4.94-4.85a1.9 1.9 0 1 1-1.357-1.82L13.15 9V2.79a.75.75 0 1 1 1.5 0v6.53a.78.78 0 0 1-.19.5l-.757.868c.126.254.197.54.197.842Zm3.79 2.85a1.9 1.9 0 0 0 .75-3.646V2.79a.75.75 0 1 0-1.5 0v7.944a1.9 1.9 0 0 0 .75 3.646Z"/>
  <path d="M20.1 15.84c1.32-1.06 1.17-2.59 1.15-4.1a7 7 0 0 0-1.87-4.36 10.24 10.24 0 0 0-3.57-2.72A12.3 12.3 0 0 0 11.72 4 10.3 10.3 0 0 0 4.6 6.17C3 7.47 2 9.75 3.36 11.61a4.06 4.06 0 0 0 1.91 1.19 4.35 4.35 0 0 0 2.2.2 2.83 2.83 0 0 0 .4 2.5 2.87 2.87 0 0 0 2.26 1c.232-.003.462-.047.68-.13.185-.1.366-.21.54-.33a5 5 0 0 1 3.16-.31c1.267.288 2.549.505 3.84.65.285.045.575.045.86 0 .33-.119.632-.302.89-.54Z" opacity=".3"/>
</svg>
