<svg xmlns="http://www.w3.org/2000/svg" width="24" height="24" fill="none" viewBox="0 0 24 24">
  <path fill="#000" d="M12 22c5.523 0 10-4.477 10-10S17.523 2 12 2 2 6.477 2 12s4.477 10 10 10Z" opacity=".3"/>
  <path fill="#000" d="M11 16.13a2.09 2.09 0 0 1-1.81 1.05H6.37a.41.41 0 0 1-.37-.62l2.88-5 2.69-4.65a.65.65 0 0 1 1.11 0L13.89 9a2.09 2.09 0 0 1 0 2.08l-1.57 2.72L11 16.13ZM14.25 15l-.87 1.5a.641.641 0 0 0 .55 1h3.47a.64.64 0 0 0 .55-1l-.87-1.5-.86-1.5a.64.64 0 0 0-1.1 0l-.87 1.5Z"/>
</svg>
