<svg xmlns="http://www.w3.org/2000/svg" width="24" height="24" fill="currentColor" viewBox="0 0 24 24">
  <path d="M7 21.81A12.18 12.18 0 0 1 2.2 17a1.53 1.53 0 0 1 .24-1.84L15.12 2.44A1.51 1.51 0 0 1 17 2.23 13.68 13.68 0 0 1 21.79 7a1.53 1.53 0 0 1-.23 1.85L8.84 21.56a1.53 1.53 0 0 1-1.84.25Z" opacity=".3"/>
  <path d="M15.93 11.62a1 1 0 1 1-1.398-1.428 1 1 0 0 1 1.398 1.428Zm-2.14-3.57a1 1 0 1 0-1.398 1.43 1 1 0 0 0 1.398-1.43Zm0 4.28a1 1 0 1 0-1.398 1.43 1 1 0 0 0 1.398-1.43Zm-2.14-2.14a1 1 0 1 0-1.398 1.43 1 1 0 0 0 1.398-1.43Zm0 4.28a1 1 0 1 0-1.398 1.43 1 1 0 0 0 1.398-1.43Zm-2.14-2.14a1 1 0 1 0-1.399 1.43 1 1 0 0 0 1.399-1.43Z"/>
</svg>
