<svg xmlns="http://www.w3.org/2000/svg" width="24" height="24" fill="none" viewBox="0 0 24 24">
  <path fill="#000" d="m21.43 7.24-7.74-4.76a3.22 3.22 0 0 0-3.38 0L2.57 7.24c-1.09.68-.52 2.12.84 2.12h1.24v8.91a.87.87 0 0 0 .87.88H7a.87.87 0 0 0 .88-.88V9.36h2.45v8.91a.87.87 0 0 0 .87.88h1.52a.87.87 0 0 0 .87-.88V9.36H16v8.91a.87.87 0 0 0 .87.88h1.53a.87.87 0 0 0 .87-.88V9.36h1.36c1.37 0 1.89-1.44.8-2.12Z" opacity=".3"/>
  <path fill="#000" d="M21.42 22.77H2.58a.75.75 0 1 1 0-1.5h18.84a.75.75 0 1 1 0 1.5Z"/>
</svg>
