<svg xmlns="http://www.w3.org/2000/svg" width="24" height="24" fill="currentColor" viewBox="0 0 24 24">
  <path d="M6.32 16.69a.75.75 0 0 1-.75-.75v-7.7a.75.75 0 1 1 1.5 0v7.7a.74.74 0 0 1-.75.75Zm3.01-6.37a.75.75 0 0 1-.75-.75V8.24a.75.75 0 0 1 1.5 0v1.33a.76.76 0 0 1-.75.75Zm0 6.37a.74.74 0 0 1-.75-.75v-3.85a.75.75 0 0 1 1.5 0v3.85a.75.75 0 0 1-.75.75Zm6.01-.22a.75.75 0 0 1-.75-.75V14.4a.75.75 0 1 1 1.5 0v1.32a.75.75 0 0 1-.75.75Zm0-3.85a.75.75 0 0 1-.75-.75V8a.75.75 0 1 1 1.5 0v3.85a.75.75 0 0 1-.75.77Zm-3.01 4.07a.75.75 0 0 1-.75-.75v-7.7a.75.75 0 1 1 1.5 0v7.7a.74.74 0 0 1-.75.75Zm6.02 0a.74.74 0 0 1-.75-.75v-7.7a.75.75 0 1 1 1.5 0v7.7a.75.75 0 0 1-.75.75Z"/>
  <path d="M16.64 4.16H7.36A5.36 5.36 0 0 0 2 9.52v5.51c0 2.96 2.4 5.36 5.36 5.36h9.28c2.96 0 5.36-2.4 5.36-5.36V9.52c0-2.96-2.4-5.36-5.36-5.36Z" opacity=".3"/>
</svg>
