<svg xmlns="http://www.w3.org/2000/svg" width="24" height="24" fill="none" viewBox="0 0 24 24">
  <path fill="#000" d="M18 6.16H6a3 3 0 0 1-3 2.92v5.84a3 3 0 0 1 3 2.92h12a3 3 0 0 1 3-2.92V9.08a3 3 0 0 1-3-2.92Z" opacity=".3"/>
  <path fill="#000" d="M19 6.16h-1a3 3 0 0 0 3 2.92v-.56a2.22 2.22 0 0 0-2-2.36Zm-13 0H5a2.22 2.22 0 0 0-2 2.36v.56a3 3 0 0 0 3-2.92Zm12 11.68h1a2.22 2.22 0 0 0 2-2.36v-.56a3 3 0 0 0-3 2.92ZM3 14.92v.56a2.22 2.22 0 0 0 2 2.36h1a3 3 0 0 0-3-2.92Zm9 .41c1.657 0 3-1.491 3-3.33 0-1.84-1.343-3.33-3-3.33S9 10.16 9 12c0 1.839 1.343 3.33 3 3.33Z"/>
</svg>
