<svg xmlns="http://www.w3.org/2000/svg" width="24" height="24" fill="none" viewBox="0 0 24 24">
  <path fill="#000" d="m21.499 11.573-1.266-1.265a.83.83 0 0 0-1.174 0l-8.584 8.584a.83.83 0 0 0 0 1.174l1.266 1.265a.83.83 0 0 0 1.173 0l8.585-8.584a.83.83 0 0 0 0-1.174Z"/>
  <path fill="#000" d="M17.596 7.661 16.33 6.395a.83.83 0 0 0-1.174 0L6.572 14.98a.83.83 0 0 0 0 1.173l1.266 1.266a.83.83 0 0 0 1.174 0l8.584-8.584a.83.83 0 0 0 0-1.174Z" opacity=".3"/>
  <path fill="#000" d="m11.252 2.505-4.68 4.681a.83.83 0 0 0 0 1.174l1.265 1.266a.83.83 0 0 0 1.174 0l4.68-4.681a.83.83 0 0 0 0-1.174l-1.265-1.266a.83.83 0 0 0-1.174 0Z"/>
  <path fill="#000" d="m3.931 9.816-1.265 1.266a.83.83 0 0 0 0 1.174L3.93 13.52a.83.83 0 0 0 1.174 0l1.266-1.265a.83.83 0 0 0 0-1.174L5.105 9.816a.83.83 0 0 0-1.174 0Z" opacity=".3"/>
</svg>
