<svg xmlns="http://www.w3.org/2000/svg" width="24" height="24" fill="currentColor" viewBox="0 0 24 24">
  <path d="m14 12.49-1.55 1.57a.678.678 0 0 1-1 0L10 12.49a.69.69 0 0 1 0-1l1.5-1.55a.68.68 0 0 1 1 0l1.5 1.57a.692.692 0 0 1 0 .98Zm-7.73 0-1.55 1.56a.67.67 0 0 1-1 0L2.2 12.49a.71.71 0 0 1 0-1l1.55-1.56a.68.68 0 0 1 1 0l1.52 1.57a.71.71 0 0 1 0 .99Zm15.5 0-1.55 1.56a.681.681 0 0 1-1 0l-1.52-1.56a.71.71 0 0 1 0-1l1.55-1.57a.679.679 0 0 1 1 0l1.55 1.56a.72.72 0 0 1-.03 1.01Z" opacity=".3"/>
  <path d="m12.47 6.26 3.13 3.17a.691.691 0 0 0 1 0l1.08-1.1a.71.71 0 0 0 0-1l-5-5.06a1 1 0 0 0-1.35 0l-5 5.07a.71.71 0 0 0 0 1l1.06 1.09a.69.69 0 0 0 1 0l3.11-3.17a.68.68 0 0 1 .97 0Zm3.14 8.3-3.14 3.18a.68.68 0 0 1-1 0l-3.11-3.18a.68.68 0 0 0-1 0L6.3 15.65a.71.71 0 0 0 0 1l5 5.08a1 1 0 0 0 1.35 0l5-5.08a.71.71 0 0 0 0-1l-1.08-1.09a.68.68 0 0 0-.96 0Z"/>
</svg>
