<svg xmlns="http://www.w3.org/2000/svg" width="24" height="24" fill="none" viewBox="0 0 24 24">
  <path fill="#000" d="M12 22c5.523 0 10-4.477 10-10S17.523 2 12 2 2 6.477 2 12s4.477 10 10 10Z" opacity=".3"/>
  <path fill="#000" d="M16.42 11.46a2.83 2.83 0 0 0 .48-1.57v-.16a2.83 2.83 0 0 0-2.83-2.83h-.84V5.59a.75.75 0 1 0-1.5 0v1.28h-1.27V5.55a.75.75 0 1 0-1.5 0v1.29h-2.4a.75.75 0 0 0-.75.74.76.76 0 0 0 .74.76h1.28v2.91H6.55a.75.75 0 0 0 0 1.5h1.28v2.83H6.55a.75.75 0 0 0 0 1.5H9v1.35a.75.75 0 1 0 1.5 0v-1.37h1.27v1.39a.75.75 0 1 0 1.5 0v-1.39h2.06a2.92 2.92 0 0 0 1.13-5.6h-.04ZM9.33 8.34l4.73.06a1.34 1.34 0 0 1 1.34 1.33v.16a1.34 1.34 0 0 1-1.34 1.34H9.33V8.34Zm6 7.22h-6v-2.83h6a1.42 1.42 0 0 1 0 2.83Z"/>
</svg>
