<svg xmlns="http://www.w3.org/2000/svg" width="24" height="24" fill="none" viewBox="0 0 24 24">
  <path fill="#000" d="M17.01 2.01H7A4.99 4.99 0 0 0 2.01 7v10.01A4.99 4.99 0 0 0 7 22h10.01A4.99 4.99 0 0 0 22 17.01V7a4.99 4.99 0 0 0-4.99-4.99Z" opacity=".3"/>
  <path fill="#000" d="M11.5 7.67a13.1 13.1 0 0 0-4.53-1.6A1.15 1.15 0 0 0 5.62 7.2v7.92a1.12 1.12 0 0 0 1 1.12c1.704.31 3.355.866 4.9 1.65L11.5 7.67ZM17 6a13.74 13.74 0 0 0-4.51 1.64V17.9c1.546-.8 3.21-1.346 4.93-1.62a1.14 1.14 0 0 0 .93-1.13v-8A1.16 1.16 0 0 0 17 6Z"/>
</svg>
