<svg xmlns="http://www.w3.org/2000/svg" width="24" height="24" fill="none" viewBox="0 0 24 24">
  <path fill="#000" d="M17.03 2H6.97A3.47 3.47 0 0 0 3.5 5.47v13.06A3.47 3.47 0 0 0 6.97 22h10.06a3.47 3.47 0 0 0 3.47-3.47V5.47A3.47 3.47 0 0 0 17.03 2Z" opacity=".3"/>
  <path fill="#000" d="M7 22h10a3.48 3.48 0 0 0 3.47-3.47V15H6.43a2.93 2.93 0 0 0-2.93 2.93v.6A3.48 3.48 0 0 0 7 22Zm8.83-14.25H8.15a.75.75 0 0 1 0-1.5h7.68a.75.75 0 1 1 0 1.5Zm-2.89 3.57H8.15a.75.75 0 1 1 0-1.5h4.79a.75.75 0 1 1 0 1.5Z"/>
</svg>
