<svg xmlns="http://www.w3.org/2000/svg" width="24" height="24" fill="currentColor" viewBox="0 0 24 24">
  <path d="M18 5.18H6.05a4.16 4.16 0 0 0-4.13 4.6l.89 8.34a4.16 4.16 0 0 0 4.13 3.71h10.23a4.15 4.15 0 0 0 4.14-3.77l.78-8.33A4.169 4.169 0 0 0 18 5.18Zm-4.17 8.67a1.361 1.361 0 0 1-1.37 1.36H11.3a1.36 1.36 0 0 1-1.37-1.36v-2.38h3.85l.05 2.38Z" opacity=".3"/>
  <path d="M22.09 9.73A4.169 4.169 0 0 0 18 5.18h-1.61v-1a2.71 2.71 0 0 0-2.71-2.71h-3.39a2.71 2.71 0 0 0-2.71 2.66v1H6.05a4.16 4.16 0 0 0-4.13 4.6l.15 1.44A14.701 14.701 0 0 0 9.2 14a2.12 2.12 0 0 0 2.1 2h1.11a2.12 2.12 0 0 0 2.1-1.91A14.37 14.37 0 0 0 22 11l.09-1.27Zm-13-5.6a1.21 1.21 0 0 1 1.21-1.21h3.39a1.21 1.21 0 0 1 1.21 1.21v1H9.08l.01-1ZM13 13.85a.61.61 0 0 1-.62.61H11.3a.61.61 0 0 1-.62-.61v-1.63H13v1.63Z"/>
</svg>
