<svg xmlns="http://www.w3.org/2000/svg" width="24" height="24" fill="none" viewBox="0 0 24 24">
  <path fill="#000" d="M17.93 5.18H6a4.17 4.17 0 0 0-4.1 4.6l.89 8.34a4.16 4.16 0 0 0 4.14 3.71h10.22a4.15 4.15 0 0 0 4.14-3.77l.78-8.33a4.16 4.16 0 0 0-4.14-4.55ZM12 17.88a3.88 3.88 0 1 1-.02-7.76 3.88 3.88 0 0 1 .02 7.76Z" opacity=".3"/>
  <path fill="#000" d="M22.07 9.73a4.16 4.16 0 0 0-4.14-4.55h-1.56v-1a2.71 2.71 0 0 0-2.71-2.71h-3.38a2.71 2.71 0 0 0-2.72 2.66v1H6a4.17 4.17 0 0 0-4.1 4.65l.16 1.44a13.561 13.561 0 0 0 5.33 2.46V14a4.64 4.64 0 0 0 9.27 0v-.35A13.33 13.33 0 0 0 22 11l.07-1.27Zm-13-5.6a1.22 1.22 0 0 1 1.22-1.21h3.38a1.21 1.21 0 0 1 1.21 1.21v1H9.06l.01-1Zm2.92 13a3.13 3.13 0 1 1 .01 0h-.01Z"/>
  <path fill="#000" d="M11.37 15.84a.76.76 0 0 1-.52-.22l-.94-.91a.75.75 0 0 1 1.06-1.06l.43.42 1.6-1.49a.75.75 0 1 1 1 1.11l-2.15 2a.78.78 0 0 1-.48.15Z"/>
</svg>
