<svg xmlns="http://www.w3.org/2000/svg" width="24" height="24" fill="none" viewBox="0 0 24 24">
  <path fill="#000" d="M18 5.18H6.05a4.16 4.16 0 0 0-4.13 4.6l.89 8.34a4.16 4.16 0 0 0 4.13 3.71h10.23a4.15 4.15 0 0 0 4.14-3.77l.78-8.33A4.17 4.17 0 0 0 18 5.18Zm-6 12.7a3.88 3.88 0 1 1 0-7.76 3.88 3.88 0 0 1 0 7.76Z" opacity=".3"/>
  <path fill="#000" d="M22.09 9.73A4.17 4.17 0 0 0 18 5.18h-1.61v-1a2.71 2.71 0 0 0-2.71-2.71h-3.39a2.71 2.71 0 0 0-2.71 2.66v1H6.05a4.16 4.16 0 0 0-4.13 4.6l.15 1.44a13.562 13.562 0 0 0 5.33 2.51V14a4.63 4.63 0 0 0 9.26 0v-.35A13.37 13.37 0 0 0 22 11l.09-1.27Zm-13-5.6a1.21 1.21 0 0 1 1.21-1.21h3.39a1.21 1.21 0 0 1 1.21 1.21v1H9.08l.01-1Zm2.92 13a3.13 3.13 0 1 1 2.203-.917A3.13 3.13 0 0 1 12 17.13h.01Z"/>
  <path fill="#000" d="m13.06 14 .52-.52a.752.752 0 0 0-.23-1.244.75.75 0 0 0-.83.184l-.52.52-.52-.52a.75.75 0 1 0-1.06 1.06l.52.52-.52.52a.739.739 0 0 0 0 1.06.71.71 0 0 0 .53.22.741.741 0 0 0 .53-.22l.52-.52.52.52a.74.74 0 0 0 .53.22.71.71 0 0 0 .53-.22.742.742 0 0 0 0-1.06l-.52-.52Z"/>
</svg>
