<svg xmlns="http://www.w3.org/2000/svg" width="24" height="24" fill="currentColor" viewBox="0 0 24 24">
  <path d="M16.05 2h-8.1A5.95 5.95 0 0 0 2 7.95v8.1A5.95 5.95 0 0 0 7.95 22h8.1A5.95 5.95 0 0 0 22 16.05v-8.1A5.95 5.95 0 0 0 16.05 2Z" opacity=".3"/>
  <path d="M7.68 8.83c.64 0 1.16-.51 1.16-1.14 0-.63-.52-1.14-1.16-1.14-.64 0-1.16.51-1.16 1.14 0 .63.52 1.14 1.16 1.14Zm4.32 0c.64 0 1.16-.51 1.16-1.14 0-.63-.52-1.14-1.16-1.14-.64 0-1.16.51-1.16 1.14 0 .63.52 1.14 1.16 1.14Zm4.35 0c.64 0 1.16-.51 1.16-1.14 0-.63-.52-1.14-1.16-1.14-.64 0-1.16.51-1.16 1.14 0 .63.52 1.14 1.16 1.14Zm-8.69 4.32c.64 0 1.16-.51 1.16-1.14 0-.63-.52-1.14-1.16-1.14-.64 0-1.16.51-1.16 1.14 0 .63.52 1.14 1.16 1.14Zm4.32 0c.64 0 1.16-.51 1.16-1.14 0-.63-.52-1.14-1.16-1.14-.64 0-1.16.51-1.16 1.14 0 .63.52 1.14 1.16 1.14Zm4.36 0c.64 0 1.16-.51 1.16-1.14 0-.63-.52-1.14-1.16-1.14-.64 0-1.16.51-1.16 1.14 0 .63.52 1.14 1.16 1.14Zm-8.69 4.3c.64 0 1.16-.51 1.16-1.14 0-.63-.52-1.14-1.16-1.14-.64 0-1.16.51-1.16 1.14 0 .63.52 1.14 1.16 1.14Zm4.32 0c.64 0 1.16-.51 1.16-1.14 0-.63-.52-1.14-1.16-1.14-.64 0-1.16.51-1.16 1.14 0 .63.52 1.14 1.16 1.14Zm4.35 0c.64 0 1.16-.51 1.16-1.14 0-.63-.52-1.14-1.16-1.14-.64 0-1.16.51-1.16 1.14 0 .63.52 1.14 1.16 1.14Z"/>
</svg>
