<svg xmlns="http://www.w3.org/2000/svg" width="24" height="24" fill="none" viewBox="0 0 24 24">
  <path fill="#000" d="M16.93 2H7.07A4.07 4.07 0 0 0 3 6.07v11.86A4.07 4.07 0 0 0 7.07 22h9.86A4.07 4.07 0 0 0 21 17.93V6.07A4.07 4.07 0 0 0 16.93 2Z" opacity=".3"/>
  <path fill="#000" d="M16.26 5H7.74A1.74 1.74 0 0 0 6 6.74v2.52c0 .961.779 1.74 1.74 1.74h8.52A1.74 1.74 0 0 0 18 9.26V6.74A1.74 1.74 0 0 0 16.26 5Zm.24 11.33a1 1 0 1 0 0-2 1 1 0 0 0 0 2Zm-1.01 1.15a1 1 0 1 1-2 0 1 1 0 0 1 2 0Zm-7.43.75a.74.74 0 0 1-.55-.23.75.75 0 0 1 0-1.06l.579-.548-.549-.522a.75.75 0 0 1 1.06-1.06l.58.549.6-.57a.73.73 0 0 1 1 0 .75.75 0 0 1 0 1.06l-.534.52.624.59a.75.75 0 0 1-.252 1.227.699.699 0 0 1-.298.044.72.72 0 0 1-.51-.2l-.642-.611-.598.58a.72.72 0 0 1-.51.23Z"/>
</svg>
