<svg xmlns="http://www.w3.org/2000/svg" width="24" height="24" fill="currentColor" viewBox="0 0 24 24">
  <path d="M2.1 10.89v5.69A5.42 5.42 0 0 0 7.52 22h7.56a5.42 5.42 0 0 0 5.42-5.42v-5.69a.82.82 0 0 0-.82-.82H2.92a.82.82 0 0 0-.82.82Z" opacity=".3"/>
  <path d="M20.15 7.58a.83.83 0 0 1-.77 1.12h-16a1 1 0 0 1-.94-1.36A5.45 5.45 0 0 1 5.8 4.25V2.69a.69.69 0 0 1 .953-.637.68.68 0 0 1 .417.637V4h3.6V2.69a.68.68 0 0 1 .68-.69.69.69 0 0 1 .69.69V4h3.18V2.69a.69.69 0 1 1 1.37 0v1.56a5.46 5.46 0 0 1 3.46 3.33Zm-9.42 11.8-1.35.35a.88.88 0 0 1-1.08-1l.23-1.37a1 1 0 0 1 .22-.45L13 12.34a1.06 1.06 0 0 1 1.5-.06l.84.78a.999.999 0 0 1 .06 1.49l-4.22 4.58a.86.86 0 0 1-.45.25Z"/>
</svg>
