<svg xmlns="http://www.w3.org/2000/svg" width="24" height="24" fill="currentColor" viewBox="0 0 24 24">
  <path d="M2.8 10.89v5.69A5.42 5.42 0 0 0 8.22 22h7.56a5.422 5.422 0 0 0 5.42-5.42v-5.69a.82.82 0 0 0-.82-.82H3.62a.82.82 0 0 0-.82.82Z" opacity=".3"/>
  <path d="M20.85 7.58a.83.83 0 0 1-.77 1.12h-16a1 1 0 0 1-.94-1.36A5.45 5.45 0 0 1 6.5 4.25V2.69A.68.68 0 0 1 7.18 2a.69.69 0 0 1 .69.69V4h3.59V2.69a.69.69 0 0 1 1.38 0V4h3.22V2.69a.678.678 0 0 1 .68-.69.69.69 0 0 1 .69.69v1.56a5.46 5.46 0 0 1 3.42 3.33ZM8.73 13a.85.85 0 1 0 .86.85.86.86 0 0 0-.86-.85Zm3.21 0a.85.85 0 1 0 .86.85.86.86 0 0 0-.86-.85Zm3.24 0a.85.85 0 1 0 0 1.7.85.85 0 0 0 0-1.7Zm-6.46 3.2a.85.85 0 1 0 .02 1.7.85.85 0 0 0-.02-1.7Zm3.21 0a.85.85 0 1 0 .02 1.7.85.85 0 0 0-.02-1.7Zm3.23 0a.85.85 0 1 0 .8.522.86.86 0 0 0-.8-.522Z"/>
</svg>
