<svg xmlns="http://www.w3.org/2000/svg" width="24" height="24" fill="currentColor" viewBox="0 0 24 24">
  <path d="M20.85 7.58a.83.83 0 0 1-.77 1.12h-16a1 1 0 0 1-.94-1.36A5.45 5.45 0 0 1 6.5 4.25V2.69A.68.68 0 0 1 7.18 2a.69.69 0 0 1 .69.69V4h3.59V2.69a.69.69 0 0 1 1.38 0V4h3.22V2.69a.68.68 0 0 1 .68-.69.69.69 0 0 1 .69.69v1.56a5.46 5.46 0 0 1 3.42 3.33Zm-5.808 10.057a3.65 3.65 0 1 0-1.041 1.036l.639.667a.78.78 0 0 0 .54.23.7.7 0 0 0 .54-.18.75.75 0 0 0 0-1.06l-.678-.693Z"/>
  <path d="M2.8 10.89v5.69A5.42 5.42 0 0 0 8.22 22h7.56a5.419 5.419 0 0 0 5.42-5.42v-5.69a.82.82 0 0 0-.82-.82H3.62a.82.82 0 0 0-.82.82Z" opacity=".3"/>
</svg>
