<svg xmlns="http://www.w3.org/2000/svg" width="24" height="24" fill="currentColor" viewBox="0 0 24 24">
  <path d="M2.8 10.86v5.68A5.42 5.42 0 0 0 8.22 22h7.56a5.422 5.422 0 0 0 5.42-5.42v-5.72a.82.82 0 0 0-.82-.82H3.62a.82.82 0 0 0-.82.82Z" opacity=".3"/>
  <path d="M20.897 7.94a.82.82 0 0 0-.047-.39 5.42 5.42 0 0 0-3.42-3.33V2.69a.69.69 0 0 0-1.16-.502.68.68 0 0 0-.21.462v1.28h-3.22V2.65a.69.69 0 0 0-1.38 0V4H7.87V2.69a.69.69 0 0 0-1.16-.502.68.68 0 0 0-.21.462v1.57A5.43 5.43 0 0 0 3.17 7.3a1 1 0 0 0 .91 1.36h16a.82.82 0 0 0 .817-.72ZM9.59 13.81c0 .47-.385.85-.86.85a.855.855 0 0 1-.86-.85c0-.47.385-.85.86-.85s.86.38.86.85Zm2.35.85c.475 0 .86-.38.86-.85s-.385-.85-.86-.85-.86.38-.86.85.385.85.86.85Zm-2.36 2.35c0 .47-.385.85-.86.85a.855.855 0 0 1-.86-.85c0-.47.385-.85.86-.85s.86.38.86.85Z"/>
</svg>
