<svg xmlns="http://www.w3.org/2000/svg" width="24" height="24" fill="currentColor" viewBox="0 0 24 24">
  <path d="M12.47 18.58a5.49 5.49 0 0 1 8-4.91v-3.36a.82.82 0 0 0-.82-.82H2.85a.82.82 0 0 0-.82.82V16a5.43 5.43 0 0 0 5.43 5.42h5.81a5.4 5.4 0 0 1-.8-2.84Z" opacity=".3"/>
  <path d="M20.08 7a.83.83 0 0 1-.76 1.12h-16a1 1 0 0 1-.93-1.36 5.43 5.43 0 0 1 3.34-3.09V2.11a.69.69 0 1 1 1.38 0v1.3h3.59v-1.3a.69.69 0 0 1 .953-.637.68.68 0 0 1 .417.637v1.27h3.24V2.11a.69.69 0 0 1 1.38 0v1.56A5.42 5.42 0 0 1 20.08 7ZM7.96 14.12c.475 0 .86-.38.86-.85s-.385-.85-.86-.85-.86.38-.86.85.385.85.86.85Zm3.21 0c.475 0 .86-.38.86-.85s-.385-.85-.86-.85-.86.38-.86.85.385.85.86.85Zm-3.22 3.2c.475 0 .86-.38.86-.85s-.385-.85-.86-.85-.86.38-.86.85.385.85.86.85ZM18 14.58a4 4 0 1 0 0 8 4 4 0 0 0 0-8Zm1.49 4.78h-.75v.75a.752.752 0 0 1-.74.76.75.75 0 0 1-.74-.76v-.77h-.75a.75.75 0 0 1-.74-.76.79.79 0 0 1 .75-.76h.74v-.75a.76.76 0 0 1 .74-.77.75.75 0 0 1 .74.76v.77h.75a.738.738 0 0 1 .74.76.76.76 0 0 1-.77.77h.03Z"/>
</svg>
