<svg xmlns="http://www.w3.org/2000/svg" width="24" height="24" fill="currentColor" viewBox="0 0 24 24">
  <path d="M16.77 3.47H7.23a4.72 4.72 0 0 0-4.72 4.72v9.06a4.72 4.72 0 0 0 4.72 4.72h9.54a4.72 4.72 0 0 0 4.72-4.72V8.19a4.72 4.72 0 0 0-4.72-4.72Z" opacity=".3"/>
  <path d="M8 5.59a.76.76 0 0 1-.75-.75V2a.75.75 0 0 1 1.5 0v2.84a.76.76 0 0 1-.75.75Zm8 0a.76.76 0 0 1-.75-.75V2a.75.75 0 1 1 1.5 0v2.84a.76.76 0 0 1-.75.75Z"/>
  <path fill-rule="evenodd" d="M14.22 10.36a2.18 2.18 0 0 1-.475 1.3h.001a2.45 2.45 0 0 1 .774 1.7A2.44 2.44 0 0 1 12 15.71a2.44 2.44 0 0 1-2.52-2.35 2.45 2.45 0 0 1 .774-1.7 2.18 2.18 0 0 1-.474-1.3 2.22 2.22 0 0 1 4.44 0Zm-2.703-.45A.68.68 0 0 1 12 9.75a.68.68 0 0 1 .72.61.73.73 0 0 1-1.44 0 .68.68 0 0 1 .237-.45ZM12 12.5a1 1 0 0 0-1 .86 1 1 0 0 0 1 .85 1 1 0 0 0 1-.85 1 1 0 0 0-1-.86Z" clip-rule="evenodd"/>
  <path d="M4.007 20.714A4.71 4.71 0 0 1 2.54 17.57l18.92.03a4.71 4.71 0 0 1-4.69 4.4H7.23a4.71 4.71 0 0 1-3.223-1.286Z"/>
</svg>
