<svg xmlns="http://www.w3.org/2000/svg" width="24" height="24" fill="currentColor" viewBox="0 0 24 24">
  <path d="M20.08 7a.83.83 0 0 1-.76 1.12h-16a1 1 0 0 1-.93-1.36 5.43 5.43 0 0 1 3.34-3.09V2.11a.69.69 0 0 1 1.38 0v1.3h3.59v-1.3a.69.69 0 0 1 .952-.637.68.68 0 0 1 .418.637v1.27h3.24V2.11a.69.69 0 0 1 1.38 0v1.56A5.42 5.42 0 0 1 20.08 7ZM7.96 14.12c.475 0 .86-.38.86-.85s-.385-.85-.86-.85-.86.38-.86.85.385.85.86.85Zm4.07-.85c0 .47-.385.85-.86.85a.855.855 0 0 1-.86-.85c0-.47.385-.85.86-.85s.86.38.86.85Zm-4.08 4.05c.475 0 .86-.38.86-.85s-.385-.85-.86-.85-.86.38-.86.85.385.85.86.85Z"/>
  <path fill-rule="evenodd" d="M15.778 15.254a4 4 0 1 1 4.444 6.65 4 4 0 0 1-4.444-6.65Zm2.772 5.156 1.71-2.18h-.03a.75.75 0 0 0-.1-1.05.74.74 0 0 0-1.05.13l-1.12 1.42-.63-.82a.76.76 0 1 0-1.19.93l1.23 1.57a.741.741 0 0 0 .918.213.75.75 0 0 0 .262-.213Z" clip-rule="evenodd"/>
  <path d="M12.47 18.58a5.49 5.49 0 0 1 8-4.91v-3.36a.82.82 0 0 0-.82-.82H2.85a.82.82 0 0 0-.82.82V16a5.43 5.43 0 0 0 5.43 5.42h5.81a5.399 5.399 0 0 1-.8-2.84Z" opacity=".3"/>
</svg>
