<svg xmlns="http://www.w3.org/2000/svg" width="24" height="24" fill="currentColor" viewBox="0 0 24 24">
  <path d="M12.47 18.58a5.49 5.49 0 0 1 8-4.91v-3.36a.82.82 0 0 0-.82-.82H2.85a.82.82 0 0 0-.82.82V16a5.43 5.43 0 0 0 5.43 5.42h5.81a5.399 5.399 0 0 1-.8-2.84Z" opacity=".3"/>
  <path d="M20.08 7a.83.83 0 0 1-.76 1.12h-16a1 1 0 0 1-.93-1.36 5.43 5.43 0 0 1 3.34-3.09V2.11a.69.69 0 0 1 1.38 0v1.3h3.59v-1.3a.69.69 0 0 1 .952-.637.68.68 0 0 1 .418.637v1.27h3.24V2.11a.69.69 0 0 1 1.38 0v1.56A5.42 5.42 0 0 1 20.08 7Z"/>
  <path fill-rule="evenodd" d="M18 14.58a4 4 0 1 0 0 7.999 4 4 0 0 0 0-8Zm.74 4.78v.75a.752.752 0 0 1-.74.76.75.75 0 0 1-.74-.76v-.77h-.75a.75.75 0 0 1-.74-.76.79.79 0 0 1 .75-.76h.74v-.75a.76.76 0 0 1 .74-.77.75.75 0 0 1 .74.76v.77h.75a.741.741 0 0 1 .74.76.761.761 0 0 1-.75.77h-.74Z" clip-rule="evenodd"/>
  <path d="M8.82 13.27c0 .47-.385.85-.86.85a.855.855 0 0 1-.86-.85c0-.47.385-.85.86-.85s.86.38.86.85Zm2.35.85c.475 0 .86-.38.86-.85s-.385-.85-.86-.85-.86.38-.86.85.385.85.86.85Zm-2.36 2.35c0 .47-.385.85-.86.85a.855.855 0 0 1-.86-.85c0-.47.385-.85.86-.85s.86.38.86.85Z"/>
</svg>
