<svg xmlns="http://www.w3.org/2000/svg" width="24" height="24" fill="currentColor" viewBox="0 0 24 24">
  <path d="M2.1 10.89v5.69A5.42 5.42 0 0 0 7.52 22h7.56a5.42 5.42 0 0 0 5.42-5.42v-5.69a.82.82 0 0 0-.82-.82H2.92a.82.82 0 0 0-.82.82Z" opacity=".3"/>
  <path d="M20.196 7.971a.83.83 0 0 0-.046-.391 5.461 5.461 0 0 0-3.46-3.33V2.69a.69.69 0 1 0-1.37 0V4h-3.18V2.69a.69.69 0 0 0-.953-.637.68.68 0 0 0-.417.637V4h-3.6V2.69A.68.68 0 0 0 6.49 2a.69.69 0 0 0-.69.69v1.56a5.45 5.45 0 0 0-3.36 3.09 1 1 0 0 0 .94 1.36h16a.83.83 0 0 0 .816-.729ZM9.38 19.73l1.35-.35a.86.86 0 0 0 .45-.25l4.22-4.58a1 1 0 0 0-.06-1.49l-.84-.78a1.062 1.062 0 0 0-1.5.06l-4.25 4.57a1 1 0 0 0-.22.45l-.23 1.37a.88.88 0 0 0 1.08 1Z"/>
</svg>
