<svg xmlns="http://www.w3.org/2000/svg" width="24" height="24" fill="none" viewBox="0 0 24 24">
  <path fill="#000" d="M5.88 17.31a1.48 1.48 0 1 0 0-2.96 1.48 1.48 0 0 0 0 2.96Zm12.17 0a1.48 1.48 0 1 0 0-2.96 1.48 1.48 0 0 0 0 2.96Z"/>
  <path fill="#000" d="M20.72 11.45 18.55 11a1.75 1.75 0 0 1-.77-.41l-3.55-3.44a1.67 1.67 0 0 0-1.14-.45H7.94a1.64 1.64 0 0 0-1.3.63L4.76 9.72a1.66 1.66 0 0 1-.83.57l-.72.2A1.7 1.7 0 0 0 2 12.11v2.28c.003.374.15.732.41 1a1.4 1.4 0 0 0 .89.42 2.58 2.58 0 0 1 5.15-.18.21.21 0 0 0 .2.2h6.62a.22.22 0 0 0 .21-.2 2.572 2.572 0 0 1 5.14.18 1.44 1.44 0 0 0 .88-.34 1.44 1.44 0 0 0 .5-1.09v-1.33a1.64 1.64 0 0 0-1.28-1.6ZM10 7.8v3.08H7.48a.88.88 0 0 1-.73-1.37l.88-1.32a.88.88 0 0 1 .74-.39H10Zm4.29 3.08h-2.81V7.81h1.61a.88.88 0 0 1 .65.29l1.18 1.31a.88.88 0 0 1-.65 1.47h.02Z" opacity=".3"/>
</svg>
