<svg xmlns="http://www.w3.org/2000/svg" width="24" height="24" fill="none" viewBox="0 0 24 24">
  <path fill="#000" d="M13.76 19.13H9.87a1.55 1.55 0 0 0-1.55 1.45v.09a1.56 1.56 0 0 1-1.55 1.46H2.93a1.561 1.561 0 0 1-1.55-1.68l.67-8.36a2.68 2.68 0 0 1 2.67-2.46h14.56A2.68 2.68 0 0 1 22 12.09l.67 8.36a1.56 1.56 0 0 1-1.55 1.68h-4.26a1.56 1.56 0 0 1-1.54-1.4v-.21a1.54 1.54 0 0 0-1.56-1.39Z" opacity=".3"/>
  <path fill="#000" d="M4.72 9.62h14.56c.322.004.64.065.94.18l-1-5.47a3 3 0 0 0-2.93-2.46H7.45a3 3 0 0 0-2.93 2.46l-1 5.52h.14a2.58 2.58 0 0 1 1.06-.23Z"/>
  <path fill="#000" d="M20.62 8.14H2.9a.75.75 0 1 1 0-1.5h17.72a.75.75 0 1 1 0 1.5ZM18.64 14h-3.25a.75.75 0 0 1 0-1.5h3.25a.75.75 0 1 1 0 1.5Zm-10 0H5.39a.75.75 0 1 1 0-1.5h3.25a.75.75 0 1 1 0 1.5Z"/>
</svg>
