<svg xmlns="http://www.w3.org/2000/svg" width="24" height="24" fill="currentColor" viewBox="0 0 24 24">
  <path d="M19.77 16.39a.74.74 0 0 1-.57-.27l-3.65-4.28a1.23 1.23 0 0 0-1.73-.14l-1 .87A2.699 2.699 0 0 1 9 12.32l-4.19-4.6a.75.75 0 1 1 1.11-1l4.19 4.61a1.23 1.23 0 0 0 1.71.11l1-.88a2.74 2.74 0 0 1 3.84.32l3.65 4.28a.75.75 0 0 1-.57 1.24l.03-.01Z" opacity=".3"/>
  <path d="M21.24 22H7.7A5.689 5.689 0 0 1 2 16.29V2.75a.75.75 0 1 1 1.5 0v13.54a4.2 4.2 0 0 0 4.2 4.19h13.54a.75.75 0 1 1 0 1.5V22Z"/>
</svg>
