<svg xmlns="http://www.w3.org/2000/svg" width="24" height="24" fill="none" viewBox="0 0 24 24">
  <path fill="#000" d="M7.59 14.89a.73.73 0 0 1-.73-.74.75.75 0 0 1 .22-.53l2.39-2.5A1.57 1.57 0 0 1 11.6 11l1.54 1.25a.088.088 0 0 0 .065.028.09.09 0 0 0 .065-.028l2.61-2.87a.75.75 0 1 1 1.11 1l-2.61 2.87a1.6 1.6 0 0 1-2.19.17l-1.54-1.26a.08.08 0 0 0-.093-.02.081.081 0 0 0-.027.02l-2.39 2.5a.78.78 0 0 1-.55.23Zm11.93 7.44-.61-.33a.88.88 0 0 0-.91 0l-.62.37a.91.91 0 0 1-1.34-1l.15-.7a1 1 0 0 0-.29-.89l-.53-.48a.929.929 0 0 1 .51-1.61l.7-.08a.91.91 0 0 0 .74-.55l.22-.52a1 1 0 0 1 1.79 0l.22.51a.91.91 0 0 0 .74.55l.7.07a.93.93 0 0 1 .52 1.61l-.52.48a.931.931 0 0 0-.28.89l.15.71a.91.91 0 0 1-1.34.97Z"/>
  <path fill="#000" d="m14.58 21 .07-.37-.27-.25a2.48 2.48 0 0 1-.69-2.58 2.4 2.4 0 0 1 2-1.69h.37l.08-.2a2.47 2.47 0 0 1 2.26-1.51 2.43 2.43 0 0 1 2.26 1.5l.09.19h.36c.295.033.58.125.84.27V8a5.94 5.94 0 0 0-5.88-6H7.92A6 6 0 0 0 2 8v8a6 6 0 0 0 5.89 6h6.66a2.439 2.439 0 0 1 .03-1Z" opacity=".3"/>
</svg>
