<svg xmlns="http://www.w3.org/2000/svg" width="24" height="24" fill="none" viewBox="0 0 24 24">
  <path fill="#000" d="M16.13 2H7.99a5.96 5.96 0 0 0-5.96 5.96v8.08A5.96 5.96 0 0 0 7.99 22h8.14a5.96 5.96 0 0 0 5.96-5.96V7.96A5.96 5.96 0 0 0 16.13 2Z" opacity=".3"/>
  <path fill="#000" d="M16.24 14.63a.75.75 0 0 1-.55-.24l-2.63-2.88a.11.11 0 0 0-.14 0l-1.54 1.26a1.59 1.59 0 0 1-2.17-.14l-2.4-2.5a.75.75 0 0 1 1.09-1l2.4 2.5a.088.088 0 0 0 .065.028.09.09 0 0 0 .065-.028L12 10.34a1.6 1.6 0 0 1 2.19.16l2.62 2.87a.75.75 0 0 1 0 1.06.779.779 0 0 1-.57.2Z"/>
  <path fill="#000" d="M17.23 15.71h-2.91a.75.75 0 1 1 0-1.5h2.16V12A.76.76 0 1 1 18 12v3a.74.74 0 0 1-.77.71Z"/>
</svg>
