<svg xmlns="http://www.w3.org/2000/svg" width="24" height="24" fill="none" viewBox="0 0 24 24">
  <path fill="#000" d="M16.07 2H7.96A5.96 5.96 0 0 0 2 7.96v8.08A5.96 5.96 0 0 0 7.96 22h8.11a5.96 5.96 0 0 0 5.96-5.96V7.96A5.96 5.96 0 0 0 16.07 2Z" opacity=".3"/>
  <path fill="#000" d="M7.58 14.89a.73.73 0 0 1-.74-.74.75.75 0 0 1 .22-.53l2.39-2.5a1.6 1.6 0 0 1 2.14-.12l1.55 1.26a.091.091 0 0 0 .065.028.09.09 0 0 0 .065-.028l2.63-2.9a.75.75 0 0 1 1.06 1.06l-2.62 2.87a1.61 1.61 0 0 1-2.19.17l-1.54-1.26a.09.09 0 0 0-.065-.028.09.09 0 0 0-.065.028l-2.4 2.5a.78.78 0 0 1-.5.19Z"/>
</svg>
