<svg xmlns="http://www.w3.org/2000/svg" width="24" height="24" fill="currentColor" viewBox="0 0 24 24">
  <path d="M20.78 22.06H3.22a.75.75 0 0 1 0-1.5h17.56a.75.75 0 0 1 0 1.5ZM17.79 6.23h-.96a1.18 1.18 0 0 0-1.18 1.18v10.46c0 .652.528 1.18 1.18 1.18h.96a1.18 1.18 0 0 0 1.18-1.18V7.41a1.18 1.18 0 0 0-1.18-1.18Z" opacity=".3"/>
  <path d="M11.96 1.94h-.74a1.29 1.29 0 0 0-1.29 1.29v14.53c0 .712.578 1.29 1.29 1.29h.74a1.29 1.29 0 0 0 1.29-1.29V3.23a1.29 1.29 0 0 0-1.29-1.29Z"/>
  <path d="M6.36 11.16H5.4a1.18 1.18 0 0 0-1.18 1.18v5.53c0 .652.528 1.18 1.18 1.18h.96a1.18 1.18 0 0 0 1.18-1.18v-5.53a1.18 1.18 0 0 0-1.18-1.18Z" opacity=".3"/>
</svg>
