<svg xmlns="http://www.w3.org/2000/svg" width="24" height="24" fill="none" viewBox="0 0 24 24">
  <path fill="#000" d="M13 8.54V3.08a1 1 0 0 1 1.16-1A9 9 0 0 1 22 9.81a1 1 0 0 1-1 1.16h-5.54A2.429 2.429 0 0 1 13 8.54Z"/>
  <path fill="#000" d="M11 11.76V5.62a1.5 1.5 0 0 0-1.8-1.47A9 9 0 0 0 2 13.21 9.1 9.1 0 0 0 11.31 22a8.829 8.829 0 0 0 4.14-1.16 1.48 1.48 0 0 0 .29-2.34l-2.92-2.9A5.229 5.229 0 0 1 11 11.76Z" opacity=".3"/>
  <path fill="#000" d="M21.93 14.37a9.05 9.05 0 0 1-1.54 3.79 1.26 1.26 0 0 1-1.92.19l-3.86-3.82a.91.91 0 0 1 .63-1.53h5.45a1.24 1.24 0 0 1 1.24 1.37Z" opacity=".3"/>
</svg>
