<svg xmlns="http://www.w3.org/2000/svg" width="24" height="24" fill="currentColor" viewBox="0 0 24 24">
  <path d="M13 4.94c0 .61.24 1 .6 1.06a6.07 6.07 0 0 1 4.4 5.86 6.251 6.251 0 0 1-.19 1.51.87.87 0 0 0 .41 1l1.63 1a1.22 1.22 0 0 0 1.79-.76c.25-.895.371-1.82.36-2.75A10.11 10.11 0 0 0 14.47 2 1.2 1.2 0 0 0 13 3.24v1.7Z"/>
  <path d="M18.85 17a1.23 1.23 0 0 1 .29 1.9 9.86 9.86 0 0 1-14.28 0 1.23 1.23 0 0 1 .29-1.9l1.63-.95a.84.84 0 0 1 1 .11 5.94 5.94 0 0 0 8.4 0 .84.84 0 0 1 1-.11l1.67.95ZM5.78 14.33a.87.87 0 0 0 .41-1A6.25 6.25 0 0 1 6 11.86 6.07 6.07 0 0 1 10.4 6a.85.85 0 0 0 .6-.83V3.24A1.2 1.2 0 0 0 9.53 2 10.11 10.11 0 0 0 2 11.86a9.78 9.78 0 0 0 .36 2.67 1.22 1.22 0 0 0 1.79.76l1.63-.96Z" opacity=".3"/>
</svg>
