<svg xmlns="http://www.w3.org/2000/svg" width="24" height="24" fill="currentColor" viewBox="0 0 24 24">
  <path d="M21.22 22H7.68A5.69 5.69 0 0 1 2 16.32V2.78a.75.75 0 0 1 1.5 0v13.54a4.18 4.18 0 0 0 4.18 4.18h13.54a.75.75 0 1 1 0 1.5Z"/>
  <path d="M5.32 16.4a.75.75 0 0 1-.57-1.24l3.65-4.29a2.73 2.73 0 0 1 3.84-.31l1 .87a1.23 1.23 0 0 0 1.76-.11l4.19-4.6a.75.75 0 0 1 1.06 0 .76.76 0 0 1 .05 1.06l-4.19 4.6a2.72 2.72 0 0 1-3.78.25l-1-.87a1.22 1.22 0 0 0-1.73.14l-3.71 4.23a.74.74 0 0 1-.57.27Z" opacity=".3"/>
</svg>
