<svg xmlns="http://www.w3.org/2000/svg" width="24" height="24" fill="none" viewBox="0 0 24 24">
  <path fill="#000" d="M20.78 22.15H3.22a.75.75 0 1 1 0-1.5h17.56a.75.75 0 0 1 0 1.5ZM11.99 6.19h-.96a1.18 1.18 0 0 0-1.18 1.18v10.59c0 .652.528 1.18 1.18 1.18h.96a1.18 1.18 0 0 0 1.18-1.18V7.37a1.18 1.18 0 0 0-1.18-1.18Z" opacity=".3"/>
  <path fill="#000" d="M17.57 1.85h-.72a1.3 1.3 0 0 0-1.3 1.3v14.69a1.3 1.3 0 0 0 1.3 1.3h.72a1.3 1.3 0 0 0 1.3-1.3V3.15a1.3 1.3 0 0 0-1.3-1.3Z"/>
  <path fill="#000" d="M6.34 11.17h-.96a1.18 1.18 0 0 0-1.18 1.18v5.61c0 .652.528 1.18 1.18 1.18h.96a1.18 1.18 0 0 0 1.18-1.18v-5.61a1.18 1.18 0 0 0-1.18-1.18Z" opacity=".3"/>
</svg>
