<svg xmlns="http://www.w3.org/2000/svg" width="24" height="24" fill="none" viewBox="0 0 24 24">
  <path fill="#000" d="M8.17 9.48H6A.75.75 0 1 1 6 8h2.17a.75.75 0 0 1 0 1.5v-.02Zm4.09 0H10.9a.75.75 0 1 1 0-1.5h1.36a.75.75 0 1 1 0 1.5Zm-4.09 3.27H6a.75.75 0 1 1 0-1.5h2.17a.75.75 0 1 1 0 1.5ZM12.26 16H10a.75.75 0 1 1 0-1.5h2.22a.75.75 0 1 1 0 1.5h.04Zm0-3.25H10.9a.75.75 0 1 1 0-1.5h1.36a.75.75 0 1 1 0 1.5Z"/>
  <path fill="#000" d="M15.39 18.94V3.44A.88.88 0 0 0 14 2.7l-1.21.78a.9.9 0 0 1-1 0l-2-1.34a.89.89 0 0 0-1 0l-1.95 1.5a.89.89 0 0 1-1 0l-1.29-.86a.89.89 0 0 0-1.4.73v15.43A3.06 3.06 0 0 0 6.21 22h12.24a3.06 3.06 0 0 1-3.06-3.06Z" opacity=".3"/>
  <path fill="#000" d="M21.5 16a2 2 0 0 0-2.05-2.05h-4.07v4.89a3.13 3.13 0 0 0 2.45 3.11 3.05 3.05 0 0 0 3.66-3v-2.3l.01-.65Z"/>
</svg>
