<svg xmlns="http://www.w3.org/2000/svg" width="24" height="24" fill="none" viewBox="0 0 24 24">
  <path fill="#000" d="M12.54 22.11c5.584 0 10.11-4.526 10.11-10.11S18.124 1.89 12.54 1.89C6.957 1.89 2.43 6.416 2.43 12s4.527 10.11 10.11 10.11Z" opacity=".3"/>
  <path fill="#000" d="M22 8.43c-.212-.55-.47-1.082-.77-1.59a30.39 30.39 0 0 0-9.31.33 5 5 0 0 0-4.23 4.13 22.07 22.07 0 0 1-2.87-5.81A9.71 9.71 0 0 0 3.75 7a29.61 29.61 0 0 0 5.13 8.44h.06a5.002 5.002 0 0 0 3.6 1.57 4.85 4.85 0 0 0 1.67-.31 31.906 31.906 0 0 1-3.49 5.15c.597.112 1.203.17 1.81.17a30.823 30.823 0 0 0 4.6-8 4.999 4.999 0 0 0 .4-1.94 5 5 0 0 0-1.9-3.89c2.126-.08 4.256 0 6.37.24Zm-6 3.68a3.49 3.49 0 1 1-6.98 0 3.49 3.49 0 0 1 6.98 0Z"/>
</svg>
