<svg xmlns="http://www.w3.org/2000/svg" width="24" height="24" fill="none" viewBox="0 0 24 24">
  <path fill="#000" d="M15.293 2.994 8.546 1.993a4.5 4.5 0 0 0-5.111 3.79L2.434 12.53a4.5 4.5 0 0 0 3.79 5.111l6.747 1.001a4.5 4.5 0 0 0 5.111-3.79l1.001-6.747a4.5 4.5 0 0 0-3.79-5.111Z" opacity=".3"/>
  <path fill="#000" d="M19.11 7.06c.037.332.037.668 0 1l-1 6.76A4.488 4.488 0 0 1 13 18.65l-6.76-1a4.441 4.441 0 0 1-2-.84 4.44 4.44 0 0 0 2.83 2.85l6.48 2.16A4.5 4.5 0 0 0 19.23 19l2.16-6.48a4.49 4.49 0 0 0-2.28-5.46ZM8.74 9.22a2.02 2.02 0 1 0 0-4.04 2.02 2.02 0 0 0 0 4.04Z"/>
</svg>
