<svg xmlns="http://www.w3.org/2000/svg" width="24" height="24" fill="none" viewBox="0 0 24 24">
  <path fill="#000" d="M7.47 20.9H5.94a1 1 0 0 1-.68-1.62l2.17-2.17a1 1 0 0 1 1.35 0l2.16 2.17a1 1 0 0 1-.67 1.62h-2.8Zm7.8-4.07h-1.54a1 1 0 0 0-.67 1.63l2.16 2.16a.94.94 0 0 0 1.35 0l2.17-2.16a1 1 0 0 0-.68-1.63h-2.79Z"/>
  <path fill="#000" d="M19 15.68a3 3 0 0 0 0-6h-.19a2.89 2.89 0 0 0 .19-1 3 3 0 0 0-3-3 3 3 0 0 0-1.68.52A5 5 0 0 0 5 8.68c.003.336.036.67.1 1H5a3 3 0 0 0 0 6h14Z" opacity=".3"/>
</svg>
