<svg xmlns="http://www.w3.org/2000/svg" width="24" height="24" fill="none" viewBox="0 0 24 24">
  <path fill="#000" d="M16.72 2H7.28A5.28 5.28 0 0 0 2 7.28v9.44A5.28 5.28 0 0 0 7.28 22h9.44A5.28 5.28 0 0 0 22 16.72V7.28A5.28 5.28 0 0 0 16.72 2Z" opacity=".3"/>
  <path fill="#000" d="M16.72 2H7.28A5.27 5.27 0 0 0 2 7.28V8h20v-.72A5.27 5.27 0 0 0 16.72 2ZM8.93 17.76a.79.79 0 0 1-.53-.22l-2-2a.74.74 0 0 1-.23-.54.83.83 0 0 1 .23-.54l2-1.92a.75.75 0 1 1 1 1.08L8 15l1.46 1.43a.75.75 0 0 1 0 1.06.78.78 0 0 1-.53.27Zm6.14 0a.78.78 0 0 1-.54-.23.75.75 0 0 1 0-1.06L16 15l-1.45-1.39a.75.75 0 0 1 1-1.08l2 1.92a.83.83 0 0 1 .23.54.74.74 0 0 1-.23.54l-2 2a.79.79 0 0 1-.48.23Z"/>
</svg>
