<svg xmlns="http://www.w3.org/2000/svg" width="24" height="24" fill="currentColor" viewBox="0 0 24 24">
  <path d="M13.73 6.52h-7.3a4.09 4.09 0 0 0-4.09 4.09v7.3A4.09 4.09 0 0 0 6.43 22h7.3a4.09 4.09 0 0 0 4.09-4.09v-7.3a4.09 4.09 0 0 0-4.09-4.09Z" opacity=".3"/>
  <path d="M17.83 10.61v7.66a3.83 3.83 0 1 0 0-7.66Z"/>
  <path d="M2.34 10.61v1.55h15.49v-1.55a4.1 4.1 0 0 0-4.1-4.09h-7.3a4.09 4.09 0 0 0-4.09 4.09Z" opacity=".3"/>
  <path d="M10.08 4.72A.75.75 0 0 1 9.33 4V2a.75.75 0 0 1 1.5 0v2a.74.74 0 0 1-.75.72Zm-3.91 0A.75.75 0 0 1 5.42 4V2a.75.75 0 1 1 1.5 0v2a.74.74 0 0 1-.75.72Zm7.83.1a.76.76 0 0 1-.75-.75v-2a.75.75 0 1 1 1.5 0v2a.75.75 0 0 1-.75.75Z"/>
</svg>
