<svg xmlns="http://www.w3.org/2000/svg" width="24" height="24" fill="none" viewBox="0 0 24 24">
  <path fill="#000" d="M16.95 2.04h-9.9a5.01 5.01 0 0 0-5.01 5.01v9.9a5.01 5.01 0 0 0 5.01 5.01h9.9a5.01 5.01 0 0 0 5.01-5.01v-9.9a5.01 5.01 0 0 0-5.01-5.01Z" opacity=".3"/>
  <path fill="#000" d="M12.04 13.25a3.6 3.6 0 1 0 0-7.2 3.6 3.6 0 0 0 0 7.2Z"/>
  <path fill="#000" d="M9.64 18.04a3.6 3.6 0 1 0 0-7.2 3.6 3.6 0 0 0 0 7.2Z" opacity=".3"/>
  <path fill="#000" d="M9.64 18.04a3.6 3.6 0 1 0 0-7.2 3.6 3.6 0 0 0 0 7.2Z" opacity=".3"/>
  <path fill="#000" d="M14.44 10.84a3.59 3.59 0 0 0-2.4.93 3.57 3.57 0 0 1 0 5.34 3.6 3.6 0 1 0 2.4-6.27Z" opacity=".3"/>
</svg>
