<svg xmlns="http://www.w3.org/2000/svg" width="24" height="24" fill="none" viewBox="0 0 24 24">
  <path fill="#000" d="m13 5.36-9.83 9.81a4.002 4.002 0 0 0 5.66 5.66L18.64 11a2.13 2.13 0 0 0 0-3L16 5.36a2.13 2.13 0 0 0-3 0ZM5 16.94a1.5 1.5 0 1 1 0 2.12 1.49 1.49 0 0 1-.06-2.12H5Z" opacity=".3"/>
  <path fill="#000" d="m13 5.36-9.83 9.81a4.002 4.002 0 0 0 5.66 5.66L18.64 11a2.13 2.13 0 0 0 0-3L16 5.36a2.13 2.13 0 0 0-3 0ZM5 16.94a1.5 1.5 0 1 1 0 2.12 1.49 1.49 0 0 1-.06-2.12H5Z" opacity=".3"/>
  <path fill="#000" d="M19.87 14h-4.21l-6.83 6.83A4 4 0 0 1 6 22h13.87A2.13 2.13 0 0 0 22 19.87v-3.74A2.13 2.13 0 0 0 19.87 14Z" opacity=".3"/>
  <path fill="#000" d="M2 4.13V18a4 4 0 1 0 8 0V4.13A2.13 2.13 0 0 0 7.87 2H4.13A2.13 2.13 0 0 0 2 4.13ZM4.5 18A1.51 1.51 0 1 1 6 19.5 1.5 1.5 0 0 1 4.5 18Z"/>
</svg>
