<svg xmlns="http://www.w3.org/2000/svg" width="24" height="24" fill="none" viewBox="0 0 24 24">
  <path fill="#000" d="M18.32 2h-6.63A3.69 3.69 0 0 0 8 5.68v.82h4.31a5.2 5.2 0 0 1 5.19 5.19V16h.82A3.69 3.69 0 0 0 22 12.31V5.68A3.68 3.68 0 0 0 18.32 2Z"/>
  <path fill="#000" d="M12.31 8H5.68A3.69 3.69 0 0 0 2 11.69v6.63A3.68 3.68 0 0 0 5.68 22h6.63A3.69 3.69 0 0 0 16 18.32v-6.63A3.69 3.69 0 0 0 12.31 8Zm.51 5.52-3.7 3.57a.76.76 0 0 1-1.06 0L6.3 15.28a.75.75 0 0 1 1.07-1l1.24 1.22 3.17-3.06a.75.75 0 1 1 1.04 1.08Z" opacity=".3"/>
</svg>
