<svg xmlns="http://www.w3.org/2000/svg" width="24" height="24" fill="none" viewBox="0 0 24 24">
  <path fill="#000" d="M16.88 5.69h-2.93a1.04 1.04 0 0 0-1.04 1.04v1.96c0 .575.466 1.04 1.04 1.04h2.93a1.04 1.04 0 0 0 1.04-1.04V6.73a1.04 1.04 0 0 0-1.04-1.04Z" opacity=".3"/>
  <path fill="#000" d="M15.05 10.61h-2.5l-.65-2.47a1.5 1.5 0 0 0-1.5-1.5H8.94a1.5 1.5 0 0 0-1.5 1.5v8.72a3.71 3.71 0 0 1-.34 1.54l-.92 2.05a1.094 1.094 0 1 0 2 .89l1.12-2.47a3.91 3.91 0 0 0 .33-1.54v-2.41L10.8 17a3.71 3.71 0 0 1 .5 1.89v2a1.08 1.08 0 0 0 2.16 0v-2.57a3.71 3.71 0 0 0-.5-1.89l-1.06-1.85v-1.81h3.15a1.08 1.08 0 0 0 0-2.16Z"/>
  <path fill="#000" d="M13.14 3.48h-1.3a2 2 0 0 0-1.95-1.66h-.47a2 2 0 0 0-2 2v.85a2 2 0 0 0 2 2h.47A2 2 0 0 0 11.84 5h1.3a.75.75 0 1 0 0-1.5v-.02Z"/>
</svg>
