<svg xmlns="http://www.w3.org/2000/svg" width="24" height="24" fill="none" viewBox="0 0 24 24">
  <path fill="#000" d="M15.872 2.977A1.92 1.92 0 0 0 14.75 2.6a1.92 1.92 0 0 0-1.82 1.34h3.63a1.92 1.92 0 0 0-.688-.963Z"/>
  <path fill="#000" d="m7.81 13.42-5.39 5.4a1.22 1.22 0 0 0-.37.89 1.26 1.26 0 0 0 1.27 1.27 1.238 1.238 0 0 0 .89-.37L9.86 15l1.88 1.36-2.85 2.84a1.29 1.29 0 0 0 0 1.8 1.26 1.26 0 0 0 .9.37 1.238 1.238 0 0 0 .89-.37l3.97-3.75a1.259 1.259 0 0 0 .37-.9 1.238 1.238 0 0 0-.37-.89l-1.26-1.26 1.18-2v.18c.038.199.12.387.24.55a1 1 0 0 0 .33.29h.07c.042.03.09.05.14.06l.15.05h3.7a1.27 1.27 0 0 0 0-2.54h-2.46l-.64-2.36a1.29 1.29 0 0 0-.23-.47 1.37 1.37 0 0 0-.45-.41L15 7.3a1.91 1.91 0 0 0 1.68-1.89v-.06h-.02H18a.71.71 0 1 0 0-1.41h-5.07a1.81 1.81 0 0 0-.1.58v.83h.02v.12c0 .356.104.703.3 1a1.33 1.33 0 0 0-.4 0 1.39 1.39 0 0 0-.86.66L9 12.25l-.13.12-1.06 1.05Z"/>
  <path fill="#000" d="M5.1 6.64c.14.141.331.22.53.22h2.86a.74.74 0 0 0 .74-.76.75.75 0 0 0-.75-.74H5.63a.75.75 0 0 0-.53 1.28Zm14.1 4.15h-.9V8.52a.94.94 0 0 1 .94-.93H21a.93.93 0 0 1 .93.93v2.55A.93.93 0 0 1 21 12h-.57a1.26 1.26 0 0 0-1.23-1.21ZM2.73 9.69a.75.75 0 0 1 0-1.5h5.75a.75.75 0 0 1 .75.75.74.74 0 0 1-.74.75H2.73Z" opacity=".3"/>
</svg>
