<svg xmlns="http://www.w3.org/2000/svg" width="24" height="24" fill="currentColor" viewBox="0 0 24 24">
  <path d="m17.47 20.53-4.78 1.37c-.45.13-.929.13-1.38 0l-4.76-1.37a2.48 2.48 0 0 1-1.79-2.14L3.34 4.76A2.5 2.5 0 0 1 5.83 2h12.34a2.5 2.5 0 0 1 2.49 2.76l-1.39 13.62a2.51 2.51 0 0 1-1.8 2.15Z" opacity=".3"/>
  <path d="M17.07 6.49a.77.77 0 0 0-.57-.25h-9a.76.76 0 1 0 0 1.51h8.16l-.28 2.61H8a.759.759 0 0 0-.592 1.322.76.76 0 0 0 .592.188h7.19l-.38 3.52-2.77.82-2.88-.88L8.8 14a.753.753 0 1 0-1.45.41l.5 1.77a.77.77 0 0 0 .5.52l3.49 1.08a.81.81 0 0 0 .22 0 .78.78 0 0 0 .22 0l3.48-1a.75.75 0 0 0 .53-.64l1-9a.74.74 0 0 0-.22-.65Z"/>
</svg>
