<svg xmlns="http://www.w3.org/2000/svg" width="24" height="24" fill="currentColor" viewBox="0 0 24 24">
  <path d="m9.91 21.67-5.24-3A4.17 4.17 0 0 1 2.58 15V9a4.17 4.17 0 0 1 2.09-3.64l5.24-3a4.16 4.16 0 0 1 4.18 0l5.24 3A4.17 4.17 0 0 1 21.42 9v6a4.17 4.17 0 0 1-2.09 3.61l-5.24 3a4.16 4.16 0 0 1-4.18.06Z" opacity=".3"/>
  <path d="M20.86 6.89a4.09 4.09 0 0 0-1.53-1.53l-5.24-3a4.16 4.16 0 0 0-4.18 0l-5.24 3a4.09 4.09 0 0 0-1.53 1.53L12 12l8.86-5.11Z" opacity=".3"/>
  <path d="M20.85 6.89 12 12l.13 10.22a4.17 4.17 0 0 0 2-.55l5.24-3A4.17 4.17 0 0 0 21.42 15V9a4.16 4.16 0 0 0-.57-2.11Z"/>
</svg>
