<svg xmlns="http://www.w3.org/2000/svg" width="24" height="24" fill="none" viewBox="0 0 24 24">
  <path fill="#000" d="M16.05 2h-8.1A5.95 5.95 0 0 0 2 7.95v8.1A5.95 5.95 0 0 0 7.95 22h8.1A5.95 5.95 0 0 0 22 16.05v-8.1A5.95 5.95 0 0 0 16.05 2Z" opacity=".3"/>
  <path fill="#000" d="m7.29 10.34 3.55 2.05a1 1 0 0 1 .48.84v4.1a1 1 0 0 1-1.45.84l-3.55-2.05a1 1 0 0 1-.48-.84v-4.1a1 1 0 0 1 1.45-.84Zm9.42 0-3.55 2.05a1 1 0 0 0-.48.84v4.1a1 1 0 0 0 1.45.84l3.55-2.05a1 1 0 0 0 .48-.84v-4.1a1 1 0 0 0-1.45-.84ZM8 7.89l3.54-2.06a.94.94 0 0 1 1 0l3.56 2a1 1 0 0 1 0 1.67l-3.53 2.1a1 1 0 0 1-1 0L8 9.56a1 1 0 0 1 0-1.67Z"/>
</svg>
