<svg xmlns="http://www.w3.org/2000/svg" width="24" height="24" fill="none" viewBox="0 0 24 24">
  <path fill="#000" d="M18.41 3.93A1.83 1.83 0 0 0 16.7 2H7.46a1.83 1.83 0 0 0-1.72 1.93c0 4.75 2 9 4.62 10.3a.92.92 0 0 1 .47 1 21.439 21.439 0 0 1-2.09 5.39.88.88 0 0 0 .73 1.38h5.26a.8.8 0 0 0 .76-1.24 30.274 30.274 0 0 1-1.86-5.66.89.89 0 0 1 .43-1c2.53-1.35 4.35-5.31 4.35-10.17Z" opacity=".3"/>
  <path fill="#000" d="M22 7.26a6.43 6.43 0 0 1-6.3 6.59h-1.19A6.472 6.472 0 0 0 16 12.38a5 5 0 0 0 4.62-5.06A1.291 1.291 0 0 0 19.36 6a.53.53 0 0 1-.52-.54v-.35a.52.52 0 0 1 .52-.53A2.68 2.68 0 0 1 22 7.26ZM8.26 12.41a5 5 0 0 1-4.88-5.08A1.3 1.3 0 0 1 4.64 6a.57.57 0 0 0 .57-.59v-.25a.57.57 0 0 0-.57-.58A2.68 2.68 0 0 0 2 7.26a6.43 6.43 0 0 0 6.3 6.59h1.43a6.88 6.88 0 0 1-1.47-1.44Z"/>
</svg>
