<svg xmlns="http://www.w3.org/2000/svg" width="24" height="24" fill="none" viewBox="0 0 24 24">
  <path fill="#000" d="M12 22c5.523 0 10-4.477 10-10S17.523 2 12 2 2 6.477 2 12s4.477 10 10 10Z" opacity=".3"/>
  <path fill="#000" d="M18 13.19h-.81a4.94 4.94 0 0 0 .08-.87v-.45a5.689 5.689 0 0 0-.13-1.18H18a.75.75 0 1 0 0-1.5h-1.39a5.64 5.64 0 0 0-4.94-2.95H7.48a.76.76 0 0 0-.75.76v2.2H6a.75.75 0 0 0 0 1.5h.75v2.5H6a.75.75 0 1 0 0 1.5h.75V17a.76.76 0 0 0 .75.75h4.38a5.44 5.44 0 0 0 4.88-3.07H18a.75.75 0 1 0 0-1.5v.01ZM8.23 7.74h3.44a4.07 4.07 0 0 1 3.1 1.45H8.23V7.74Zm0 2.95h7.37c.12.382.184.78.19 1.18v.45a4.142 4.142 0 0 1-.1.87H8.23v-2.5Zm3.63 5.57H8.23v-1.57H15a3.94 3.94 0 0 1-3.14 1.57Z"/>
</svg>
