<svg xmlns="http://www.w3.org/2000/svg" width="24" height="24" fill="none" viewBox="0 0 24 24">
  <path fill="#000" d="M11.38 4.47a2.57 2.57 0 0 0 2.41 1.63h2.95a5.26 5.26 0 0 1 4.61 2.74 5.48 5.48 0 0 0-5.47-5.15h-4.82l.32.78Z" opacity=".3"/>
  <path fill="#000" d="M16.74 6.1h-2.95a2.57 2.57 0 0 1-2.41-1.63L11 3.63A2.6 2.6 0 0 0 8.63 2h-2a4.57 4.57 0 0 0-4.57 4.57v10.11a5.25 5.25 0 0 0 5.26 5.26h9.42A5.26 5.26 0 0 0 22 16.68v-5.31a5.27 5.27 0 0 0-5.26-5.27Zm-2.46 9.14a.74.74 0 0 1-.52.22.73.73 0 0 1-.49-.2l-1.12-1.07-1.06 1.13a.7.7 0 0 1-.52.22.72.72 0 0 1-.49-.19.71.71 0 0 1 0-1l1.07-1.14L10 12.12a.7.7 0 0 1 0-1 .71.71 0 0 1 1 0l1.12 1.08 1.03-1.2a.708.708 0 0 1 1.047-.047A.71.71 0 0 1 14.15 12l-1.07 1.14 1.13 1.09a.701.701 0 0 1 .07 1.01Z"/>
</svg>
