<svg xmlns="http://www.w3.org/2000/svg" width="24" height="24" fill="none" viewBox="0 0 24 24">
  <path fill="#000" d="M22.61 9.54H17.9a3.38 3.38 0 0 1-3.27-3.62V1.11l7.98 8.43ZM8.73 19.29a4 4 0 0 1-4 4.08 4.08 4.08 0 1 1 0-8.16 4 4 0 0 1 4 4.08ZM7 19.31a.76.76 0 0 0-.74-.77h-3a.77.77 0 0 0-.542 1.293.759.759 0 0 0 .532.237h3a.76.76 0 0 0 .75-.76Z"/>
  <path fill="#000" d="M22.61 11.07H17.9a4.919 4.919 0 0 1-4.77-5.15V1.09h-4.9a5.67 5.67 0 0 0-5.6 5.73v9a3.93 3.93 0 0 1 2.08-.61 4.06 4.06 0 0 1 3.53 5.94H17a5.67 5.67 0 0 0 5.61-5.73v-4.35Z" opacity=".3"/>
</svg>
