<svg xmlns="http://www.w3.org/2000/svg" width="24" height="24" fill="none" viewBox="0 0 24 24">
  <path fill="#000" d="m13.71 8.083 2.443-.696.48 1.683a.71.71 0 0 1-.489.878l-1.077.306a.71.71 0 0 1-.877-.488l-.48-1.683ZM11.858 2.88l2.01-.573.405 1.423a.59.59 0 0 1-.405.73l-.876.249a.59.59 0 0 1-.729-.406l-.405-1.424Zm-1.418 12a.75.75 0 0 1-.72-.55L6.83 3.92l-.609.167a.888.888 0 0 1-.562.436l-2.501.633a.89.89 0 0 1-1.082-.644l-.061-.242a.89.89 0 0 1 .644-1.081l2.501-.634a.887.887 0 0 1 .679.101l1.34-.366a.75.75 0 0 1 .92.52l3.08 11.13a.74.74 0 0 1-.51.91l-.23.03Zm4.63 2.81a.75.75 0 0 1-.74-.839.74.74 0 0 1 .54-.621l6.2-1.72a.74.74 0 0 1 .937.804.743.743 0 0 1-.537.626l-6.2 1.72-.2.03ZM19.81 22H7.49a.74.74 0 0 1-.74-.74.75.75 0 0 1 .74-.75h12.32a.75.75 0 0 1 .523 1.273.74.74 0 0 1-.523.217Z"/>
  <g opacity=".3">
    <path fill="#000" d="m14.797 2.04-3.693 1.052a.91.91 0 0 0-.626 1.124l1.021 3.588a.91.91 0 0 0 .992.653 1.1 1.1 0 0 0-.56 1.283l1.22 4.29a1.1 1.1 0 0 0 1.36.756l4.491-1.279a1.1 1.1 0 0 0 .757-1.359l-1.221-4.29a1.1 1.1 0 0 0-1.36-.756l-.646.184a.91.91 0 0 0 .41-1.032l-1.02-3.588a.91.91 0 0 0-1.125-.626Z"/>
    <path fill="#000" fill-rule="evenodd" d="M9.884 16.273a2.3 2.3 0 0 1 1.296-.353 2.27 2.27 0 0 1 2.23 2.3 2.3 2.3 0 1 1-3.526-1.947Zm.823 2.664a.821.821 0 0 0 .473.103V19a.79.79 0 0 0 .75-.78.82.82 0 1 0-1.223.717Z" clip-rule="evenodd"/>
  </g>
</svg>
