<svg xmlns="http://www.w3.org/2000/svg" width="24" height="24" fill="currentColor" viewBox="0 0 24 24">
  <path d="M5.75 2h7.44a1.68 1.68 0 0 1 1.68 1.68v8.63A1.681 1.681 0 0 1 13.19 14H1.87V5.88A3.88 3.88 0 0 1 5.75 2Z"/>
  <path d="M19.35 20H4.65a2.78 2.78 0 0 1-2.78-2.78V7.78A2.78 2.78 0 0 1 4.65 5H16.5A2.77 2.77 0 0 1 19 6.48l2.85 5.38a2.7 2.7 0 0 1 .33 1.3v4.06A2.78 2.78 0 0 1 19.35 20Z" opacity=".3"/>
  <path d="M20.29 9h-1.43a1 1 0 0 0-1 1v3a1 1 0 0 0 1 1h3.27v-.84a2.7 2.7 0 0 0-.33-1.3L20.29 9ZM7.87 22a2 2 0 1 0 0-4 2 2 0 0 0 0 4Zm8 0a2 2 0 1 0 0-4 2 2 0 0 0 0 4Z"/>
</svg>
