<svg xmlns="http://www.w3.org/2000/svg" width="24" height="24" fill="none" viewBox="0 0 24 24">
  <path fill="#000" d="M20.29 9h-1.43a1 1 0 0 0-1 1v3a1 1 0 0 0 1 1h3.27v-.84a2.7 2.7 0 0 0-.33-1.3L20.29 9ZM7.87 22a2 2 0 1 0 0-4 2 2 0 0 0 0 4Zm8 0a2 2 0 1 0 0-4 2 2 0 0 0 0 4ZM10.36 2a5.25 5.25 0 1 0 0 10.5 5.25 5.25 0 0 0 0-10.5Zm.75 5.15a.751.751 0 0 1-.29.59L9.05 9.15a.72.72 0 0 1-.46.16A.77.77 0 0 1 8 9a.76.76 0 0 1 .12-1l1.49-1.21V4.94a.75.75 0 0 1 1.5 0v2.21Z"/>
  <path fill="#000" d="M21.8 11.86 19 6.48A2.77 2.77 0 0 0 16.5 5h-5.39v2.15a.748.748 0 0 1-.29.59L9.05 9.15a.72.72 0 0 1-.46.16A.77.77 0 0 1 8 9a.76.76 0 0 1 .12-1l1.49-1.21V5h-5a2.79 2.79 0 0 0-2.74 2.78v9.44A2.78 2.78 0 0 0 4.65 20h14.7a2.78 2.78 0 0 0 2.78-2.78v-4.06a2.7 2.7 0 0 0-.33-1.3Z" opacity=".3"/>
</svg>
