<svg xmlns="http://www.w3.org/2000/svg" width="24" height="24" fill="currentColor" viewBox="0 0 24 24">
  <path d="M15.75 2.89H10a1.59 1.59 0 0 0-1.59 1.59v4.99c0 .878.712 1.59 1.59 1.59h5.75a1.59 1.59 0 0 0 1.59-1.59V4.48a1.59 1.59 0 0 0-1.59-1.59Z" opacity=".3"/>
  <path d="M21.81 11.85a1.2 1.2 0 0 0-1.48-.26l-4.13 2.95a3 3 0 0 1 .15 1.91 2.81 2.81 0 0 1-2.72 2.12c-.236 0-.472-.03-.7-.09l-2.44-.63a.729.729 0 1 1 .36-1.41l2.44.62a1.31 1.31 0 0 0 1.64-1 1.5 1.5 0 0 0-1.07-1.88l-5.78-1.45a1.612 1.612 0 0 0-.37 0 2.9 2.9 0 0 0-2.52 1.14c-.94 1.05-2.09 2.27-2.87 3.09a1.29 1.29 0 0 0 0 1.82l1.77 1.62a1.29 1.29 0 0 0 1.8 0 3.91 3.91 0 0 1 .73-.62C7 19.58 12.67 21 12.67 21c.397.1.813.1 1.21 0a3.678 3.678 0 0 0 1.2-.77l6.52-6.65s.82-.99.21-1.73ZM11.27 2.89h3.19v2a1.21 1.21 0 0 1-1.21 1.21h-.77a1.21 1.21 0 0 1-1.21-1.21v-2Z"/>
</svg>
