<svg xmlns="http://www.w3.org/2000/svg" width="24" height="24" fill="none" viewBox="0 0 24 24">
  <path fill="#000" d="M17.75 3.25H6.25A4.25 4.25 0 0 0 2 7.5v9a4.25 4.25 0 0 0 4.25 4.25h11.5A4.25 4.25 0 0 0 22 16.5v-9a4.25 4.25 0 0 0-4.25-4.25Z" opacity=".3"/>
  <path fill="#000" d="M7.22 11a.99.99 0 0 0 .98-1 .99.99 0 0 0-.98-1 .99.99 0 0 0-.98 1c0 .552.439 1 .98 1Zm2.93 0a.99.99 0 0 0 .98-1 .99.99 0 0 0-.98-1 .99.99 0 0 0-.98 1c0 .552.439 1 .98 1Zm6.71-.25h-3.28a.75.75 0 1 1 0-1.5h3.28a.75.75 0 1 1 0 1.5Zm0 5.5H7.22a.75.75 0 1 1 0-1.5h9.64a.75.75 0 1 1 0 1.5Z"/>
</svg>
