<svg xmlns="http://www.w3.org/2000/svg" width="24" height="24" fill="currentColor" viewBox="0 0 24 24">
  <path d="M12 2a10 10 0 1 0 0 20 10 10 0 0 0 0-20Zm0 12.56a2.56 2.56 0 1 1 0-5.12 2.56 2.56 0 0 1 0 5.12Z" opacity=".3"/>
  <path d="M12.05 15.7a3.66 3.66 0 1 1 .001-7.322 3.66 3.66 0 0 1 0 7.322Zm0-5.66a2 2 0 1 0 2 2 2.001 2.001 0 0 0-2-2.04v.04Zm2.76 10.15a8.55 8.55 0 0 0 5.58-6 .75.75 0 0 0-1.45-.37 7.18 7.18 0 0 1-4.61 5 .75.75 0 0 0 .24 1.46.672.672 0 0 0 .24-.09Zm-9.74-9.47A7.08 7.08 0 0 1 10 5.24a.751.751 0 0 0-.43-1.44 8.56 8.56 0 0 0-6 6.64.75.75 0 0 0 .6.88h.14a.75.75 0 0 0 .76-.6Z"/>
</svg>
