<svg xmlns="http://www.w3.org/2000/svg" width="24" height="24" fill="none" viewBox="0 0 24 24">
  <path fill="#000" d="M22 12h-4.73a4.911 4.911 0 0 1-4.78-5.13V2H7.58A5.66 5.66 0 0 0 2 7.71v8.58A5.66 5.66 0 0 0 7.58 22h8.82a5.67 5.67 0 0 0 5.6-5.71V12Z" opacity=".3"/>
  <path fill="#000" d="M16 17.05a.71.71 0 0 1-.64.77H7.87a.72.72 0 0 1-.64-.77.71.71 0 0 1 .64-.76h7.46a.701.701 0 0 1 .67.76ZM14 2v4.8a3.38 3.38 0 0 0 3.28 3.61H22L14 2ZM8.08 13.71h3.16a.76.76 0 0 0 0-1.52H8.08a.76.76 0 0 0 0 1.52Z"/>
</svg>
