<svg xmlns="http://www.w3.org/2000/svg" width="24" height="24" fill="currentColor" viewBox="0 0 24 24">
  <path d="M12 22c5.523 0 10-4.477 10-10S17.523 2 12 2 2 6.477 2 12s4.477 10 10 10Z" opacity=".3"/>
  <path d="M16.24 14.13a3.16 3.16 0 0 1-.5 1.74 3.4 3.4 0 0 1-1.46 1.21 5.49 5.49 0 0 1-2.28.43 5.18 5.18 0 0 1-2.6-.59 3.51 3.51 0 0 1-1.18-1.15 2.64 2.64 0 0 1-.46-1.39.93.93 0 0 1 .24-.68.94.94 0 0 1 .69-.28.85.85 0 0 1 .58.22c.181.183.318.405.4.65.12.296.267.581.44.85.17.242.401.435.67.56.352.167.74.246 1.13.23a2.53 2.53 0 0 0 1.56-.45 1.35 1.35 0 0 0 .6-1.12 1.17 1.17 0 0 0-.33-.86A2 2 0 0 0 13 13c-.35-.12-.8-.24-1.38-.38A9.64 9.64 0 0 1 9.65 12a3 3 0 0 1-1.23-1A2.55 2.55 0 0 1 8 9.47a2.62 2.62 0 0 1 .48-1.56 3 3 0 0 1 1.36-1.06A5.76 5.76 0 0 1 12 6.49a5.32 5.32 0 0 1 1.7.24c.436.136.84.357 1.19.65.289.23.524.52.69.85.142.265.217.56.22.86a1 1 0 0 1-.27.69.859.859 0 0 1-.68.31.81.81 0 0 1-.57-.18 3.004 3.004 0 0 1-.41-.61 2.92 2.92 0 0 0-.7-.94A2 2 0 0 0 11.83 8a2.23 2.23 0 0 0-1.35.37 1.06 1.06 0 0 0-.51.88.9.9 0 0 0 .17.55c.13.166.293.303.48.4.197.11.405.201.62.27l1 .27c.554.128 1.102.285 1.64.47a4.79 4.79 0 0 1 1.24.62c.338.237.612.553.8.92.217.427.327.9.32 1.38Z"/>
  <path d="M12 18.72a.752.752 0 0 1-.8-.72l.1-12a.738.738 0 0 1 .75-.74.75.75 0 0 1 .75.74l-.1 12a.74.74 0 0 1-.7.72Z"/>
</svg>
