<svg xmlns="http://www.w3.org/2000/svg" width="24" height="24" fill="currentColor" viewBox="0 0 24 24">
  <path d="M13.89 7.64a16.15 16.15 0 0 0 4.16-2.77.64.64 0 0 0-.05-1 10.06 10.06 0 0 0-6-2c-.396.018-.79.062-1.18.13a.66.66 0 0 0-.46 1A44.402 44.402 0 0 1 13 7.35a.67.67 0 0 0 .89.29ZM11 7.88a44.564 44.564 0 0 0-2.91-4.59.64.64 0 0 0-.82-.19 10.09 10.09 0 0 0-4.86 5.8.65.65 0 0 0 .6.87 28.27 28.27 0 0 0 7.63-.95.649.649 0 0 0 .36-.94Z"/>
  <path d="M15.53 11.35a15.832 15.832 0 0 1 5.7.17.66.66 0 0 0 .79-.73 10 10 0 0 0-1.62-4.38.65.65 0 0 0-1-.08 17.76 17.76 0 0 1-4.58 3.09.65.65 0 0 0-.32.86l.32.69a.64.64 0 0 0 .71.38Zm-2.75-.03-.18-.39a.66.66 0 0 0-.78-.34 29.084 29.084 0 0 1-8.42 1.2h-.8a.65.65 0 0 0-.66.67c.027.674.117 1.343.27 2a10.18 10.18 0 0 0 1.62 3.44.66.66 0 0 0 1.06 0 18.41 18.41 0 0 1 7.52-5.74.65.65 0 0 0 .37-.84Z" opacity=".3"/>
  <path d="M16.08 14.09c.6 1.687 1.092 3.41 1.47 5.16a.66.66 0 0 0 1.07.37 10.11 10.11 0 0 0 3.19-5.24.67.67 0 0 0-.49-.78 14.51 14.51 0 0 0-4.67-.38.659.659 0 0 0-.57.87ZM13.21 14a15.83 15.83 0 0 0-7 5.46.64.64 0 0 0 .15.91 10.11 10.11 0 0 0 9 1.15.66.66 0 0 0 .42-.74 38.459 38.459 0 0 0-1.78-6.4.66.66 0 0 0-.79-.38Z"/>
</svg>
