<svg xmlns="http://www.w3.org/2000/svg" width="24" height="24" fill="currentColor" viewBox="0 0 24 24">
  <path d="M17.8 9.14 12 13.21l4.69 3.3 4.58-3.43a.93.93 0 0 0 0-1.51L17.8 9.14ZM7.92 2.17a.93.93 0 0 0-1.09 0l-4.1 3a.94.94 0 0 0 0 1.52L6.2 9.14 12 5.05 7.92 2.17Zm-5.17 9.4a.931.931 0 0 0 0 1.51l4.58 3.43 4.67-3.3-5.8-4.07-3.45 2.43Zm18.5-4.86a.941.941 0 0 0 0-1.52l-4.1-3a.93.93 0 0 0-1.09 0L12 5.05l5.8 4.09 3.45-2.43Z" opacity=".4"/>
  <path d="M16.69 16.51 12 13.22l-4.69 3.29-2.69-2V17a1.87 1.87 0 0 0 .92 1.58l5.56 3.2a1.82 1.82 0 0 0 1.83 0l5.55-3.2A1.82 1.82 0 0 0 19.4 17v-2.51l-2.71 2.02Z"/>
</svg>
