<svg xmlns="http://www.w3.org/2000/svg" width="24" height="24" fill="none" viewBox="0 0 24 24">
  <path fill="#000" d="M12 22c5.523 0 10-4.477 10-10S17.523 2 12 2 2 6.477 2 12s4.477 10 10 10Z" opacity=".3"/>
  <path fill="#000" d="m14.13 15.71 5.55-5.55a.93.93 0 0 0-1.31-1.31l-4.89 4.9-3.05-3.05a.92.92 0 0 0-1.3 1.3l3.69 3.7a1 1 0 0 0 .66.27.92.92 0 0 0 .65-.26Z" opacity=".3"/>
  <path fill="#000" d="m9.33 15.6 5.54-5.55a.92.92 0 0 0-1.3-1.3l-4.9 4.89-3-3.05a.94.94 0 1 0-1.35 1.31L8 15.6a.93.93 0 0 0 1.31 0h.02Z"/>
</svg>
