<svg xmlns="http://www.w3.org/2000/svg" width="24" height="24" fill="none" viewBox="0 0 24 24">
  <path fill="#000" d="M18 13.06a1 1 0 0 1-.7-.3l-6-6a1.004 1.004 0 1 1 1.42-1.42l6 6a1 1 0 0 1 0 1.41 1.001 1.001 0 0 1-.72.31Z"/>
  <path fill="#000" d="M6 13.06a1.001 1.001 0 0 1-.71-.3 1 1 0 0 1 0-1.41l6-6a1.014 1.014 0 1 1 1.42 1.45l-6 6a1 1 0 0 1-.71.26Z"/>
  <path fill="#000" d="M18 18.43a1 1 0 0 1-.7-.3L12 12.88l-5.26 5.25a1 1 0 0 1-1.41 0 1 1 0 0 1 0-1.41l6-6a.999.999 0 0 1 1.42 0l6 6a1 1 0 0 1 0 1.41 1 1 0 0 1-.75.3Z" opacity=".3"/>
</svg>
