<svg xmlns="http://www.w3.org/2000/svg" width="24" height="24" fill="none" viewBox="0 0 24 24">
  <path fill="#000" d="M11.71 18.81a1.002 1.002 0 0 1-1.006-1A1 1 0 0 1 11 17.1l5.11-5.1L11 6.9a1.004 1.004 0 1 1 1.42-1.42l5.81 5.81a1 1 0 0 1 .29.71 1 1 0 0 1-.29.71l-5.81 5.81a1 1 0 0 1-.71.29Z"/>
  <path fill="#000" d="M6.48 18.81a1.002 1.002 0 0 1-1.006-1 1 1 0 0 1 .296-.71l5.1-5.1-5.1-5.1a1.004 1.004 0 0 1 1.42-1.42L13 11.29a1 1 0 0 1 .29.71 1.05 1.05 0 0 1-.29.71l-5.81 5.81a1 1 0 0 1-.71.29Z" opacity=".3"/>
</svg>
