<svg xmlns="http://www.w3.org/2000/svg" width="24" height="24" fill="none" viewBox="0 0 24 24">
  <path fill="#000" d="m15.1 17.5-1.89-2a1.7 1.7 0 0 0-2.46 0l-1.88 2-1 1.05a1.32 1.32 0 0 0 1 2.22h6.31a1.31 1.31 0 0 0 .94-2.23L15.1 17.5Zm1.01-12.05a1.32 1.32 0 0 0-.95-2.23H8.84a1.31 1.31 0 0 0-1 2.22l1 1 1.87 2a1.7 1.7 0 0 0 2.46 0l1.89-2 1.05-.99Z" opacity=".3"/>
  <path fill="#000" d="m2.16 11.39 2.23-3.51a1.11 1.11 0 0 1 1.73-.2l3.57 3.5a1.07 1.07 0 0 1 0 1.51l-3.53 3.62a1.131 1.131 0 0 1-1.75-.19l-2.25-3.55a1.14 1.14 0 0 1 0-1.18Zm19.67-.02-2.22-3.51a1.12 1.12 0 0 0-1.73-.2l-3.57 3.5a1.06 1.06 0 0 0 0 1.51l3.53 3.62a1.13 1.13 0 0 0 1.75-.19l2.25-3.55a1.1 1.1 0 0 0-.01-1.18Z"/>
</svg>
