<svg xmlns="http://www.w3.org/2000/svg" width="24" height="24" fill="currentColor" viewBox="0 0 24 24">
  <path d="M21 17.25a.67.67 0 0 1-.33-.08.75.75 0 0 1-.34-1 9.149 9.149 0 0 0 .95-4.08 9.24 9.24 0 0 0-13.1-8.43.75.75 0 0 1-.63-1.36 10.75 10.75 0 0 1 15.2 9.79 10.64 10.64 0 0 1-1.1 4.74.75.75 0 0 1-.65.42Z"/>
  <path d="M13.69 22.66a2.46 2.46 0 0 1-2.44-2.45v-4.302a3.11 3.11 0 0 1-2.36-3.018v-2.32h6.22v2.32a3.11 3.11 0 0 1-2.36 3.018v4.302a1 1 0 0 0 .35.74.92.92 0 0 0 .78.19A8.78 8.78 0 0 0 16.72 20a.75.75 0 1 1 .77 1.29 10.732 10.732 0 0 1-3.3 1.28c-.162.05-.33.08-.5.09Z"/>
  <path fill-rule="evenodd" d="M2.8 11.1a9.33 9.33 0 0 0 1.336 5.861 2.547 2.547 0 0 1 1.986-.018 2.54 2.54 0 1 1-3.132 1.012A10.74 10.74 0 0 1 2.71 6.68.75.75 0 0 1 4 7.44a9 9 0 0 0-1.2 3.66Zm2.35 7.15a1 1 0 1 0 0 2 1 1 0 0 0 0-2Z" clip-rule="evenodd"/>
  <path d="M15.24 4.73v2.89h-1.37V4.69a.69.69 0 0 1 1.19-.473.678.678 0 0 1 .18.513Zm-5.02-.01v2.9l-1.38-.03V4.72a.69.69 0 0 1 1.38 0Zm9.88 14.04a.66.66 0 1 1-1.32 0 .66.66 0 0 1 1.32 0ZM5.44 5.39a.66.66 0 1 0 0-1.32.66.66 0 0 0 0 1.32Z"/>
  <path d="M15.3 7.62H8.7a1.44 1.44 0 0 0-1.44 1.44v.07c0 .795.645 1.44 1.44 1.44h6.6a1.44 1.44 0 0 0 1.44-1.44v-.07a1.44 1.44 0 0 0-1.44-1.44Z" opacity=".3"/>
</svg>
