<svg xmlns="http://www.w3.org/2000/svg" width="24" height="24" fill="currentColor" viewBox="0 0 24 24">
  <path d="M14.5 11.25v8.5a1.75 1.75 0 0 1-1.75 1.75h-1.5a1.75 1.75 0 0 1-1.75-1.75v-8.5a1.75 1.75 0 0 1 1.75-1.75h1.5a1.75 1.75 0 0 1 1.75 1.75Zm5.25-1.75h-1.5a1.75 1.75 0 0 0-1.75 1.75v8.5a1.75 1.75 0 0 0 1.75 1.75h1.5a1.75 1.75 0 0 0 1.75-1.75v-8.5a1.75 1.75 0 0 0-1.75-1.75Z" opacity=".3"/>
  <path d="M7.5 11.25v8.5a1.75 1.75 0 0 1-1.75 1.75h-1.5a1.75 1.75 0 0 1-1.75-1.75v-8.5A1.75 1.75 0 0 1 4.25 9.5h1.5a1.75 1.75 0 0 1 1.75 1.75Zm14-5.5v-1.5a1.75 1.75 0 0 0-1.75-1.75H4.25A1.75 1.75 0 0 0 2.5 4.25v1.5A1.75 1.75 0 0 0 4.25 7.5h15.5a1.75 1.75 0 0 0 1.75-1.75Z"/>
</svg>
