<svg xmlns="http://www.w3.org/2000/svg" width="24" height="24" fill="none" viewBox="0 0 24 24">
  <path fill="#000" d="M8.47 2H3.52a1.77 1.77 0 0 0-1.77 1.77v4.95c0 .978.792 1.77 1.77 1.77h4.95a1.77 1.77 0 0 0 1.77-1.77V3.77A1.77 1.77 0 0 0 8.47 2Z"/>
  <path fill="#000" d="M19.97 2h-4.95a1.77 1.77 0 0 0-1.77 1.77v4.95c0 .978.793 1.77 1.77 1.77h4.95a1.77 1.77 0 0 0 1.77-1.77V3.77A1.77 1.77 0 0 0 19.97 2ZM8.47 13.5H3.52a1.77 1.77 0 0 0-1.77 1.77v4.95c0 .978.792 1.77 1.77 1.77h4.95a1.77 1.77 0 0 0 1.77-1.77v-4.95a1.77 1.77 0 0 0-1.77-1.77Z" opacity=".3"/>
  <path fill="#000" d="M21 20.42h-7a.75.75 0 1 1 0-1.5h7a.75.75 0 1 1 0 1.5Zm0-3.84h-7a.75.75 0 1 1 0-1.5h7a.75.75 0 1 1 0 1.5Z"/>
</svg>
