<svg xmlns="http://www.w3.org/2000/svg" width="24" height="24" fill="currentColor" viewBox="0 0 24 24">
  <path d="M19.81 2H14.7a1.75 1.75 0 0 0-1.75 1.75v7.5c0 .966.784 1.75 1.75 1.75h5.11a1.75 1.75 0 0 0 1.75-1.75v-7.5A1.75 1.75 0 0 0 19.81 2Zm0 13h-5a1.75 1.75 0 0 0-1.75 1.75v3.5c0 .966.784 1.75 1.75 1.75h5a1.75 1.75 0 0 0 1.75-1.75v-3.5A1.75 1.75 0 0 0 19.81 15Z" opacity=".3"/>
  <path d="M9.19 2h-5a1.75 1.75 0 0 0-1.75 1.75v16.5c0 .966.783 1.75 1.75 1.75h5a1.75 1.75 0 0 0 1.75-1.75V3.75A1.75 1.75 0 0 0 9.19 2Z"/>
</svg>
