<svg xmlns="http://www.w3.org/2000/svg" width="24" height="24" fill="none" viewBox="0 0 24 24">
  <path fill="#000" d="M8.72 2H3.77A1.77 1.77 0 0 0 2 3.77v4.95c0 .978.792 1.77 1.77 1.77h4.95a1.77 1.77 0 0 0 1.77-1.77V3.77A1.77 1.77 0 0 0 8.72 2Z"/>
  <path fill="#000" d="M20.23 2h-4.95a1.77 1.77 0 0 0-1.77 1.77v4.95c0 .978.792 1.77 1.77 1.77h4.95A1.77 1.77 0 0 0 22 8.72V3.77A1.77 1.77 0 0 0 20.23 2Z" opacity=".3"/>
  <path fill="#000" d="M20.22 13.5h-4.95a1.77 1.77 0 0 0-1.77 1.77v4.95c0 .978.793 1.77 1.77 1.77h4.95a1.77 1.77 0 0 0 1.77-1.77v-4.95a1.77 1.77 0 0 0-1.77-1.77Z"/>
  <path fill="#000" d="M8.72 13.5H3.77A1.77 1.77 0 0 0 2 15.27v4.95c0 .978.792 1.77 1.77 1.77h4.95a1.77 1.77 0 0 0 1.77-1.77v-4.95a1.77 1.77 0 0 0-1.77-1.77Z" opacity=".3"/>
</svg>
