<svg xmlns="http://www.w3.org/2000/svg" width="24" height="24" fill="currentColor" viewBox="0 0 24 24">
  <path d="M19.75 14.5h-7.5a1.75 1.75 0 0 1-1.75-1.75v-1.5a1.75 1.75 0 0 1 1.75-1.75h7.5a1.75 1.75 0 0 1 1.75 1.75v1.5a1.75 1.75 0 0 1-1.75 1.75Zm1.75 5.25v-1.5a1.75 1.75 0 0 0-1.75-1.75h-7.5a1.75 1.75 0 0 0-1.75 1.75v1.5a1.75 1.75 0 0 0 1.75 1.75h7.5a1.75 1.75 0 0 0 1.75-1.75Z" opacity=".3"/>
  <path d="M19.75 7.5H4.25A1.75 1.75 0 0 1 2.5 5.75v-1.5A1.75 1.75 0 0 1 4.25 2.5h15.5a1.75 1.75 0 0 1 1.75 1.75v1.5a1.75 1.75 0 0 1-1.75 1.75Zm-13 2h-2.5a1.75 1.75 0 0 0-1.75 1.75v8.5a1.75 1.75 0 0 0 1.75 1.75h2.5a1.75 1.75 0 0 0 1.75-1.75v-8.5A1.75 1.75 0 0 0 6.75 9.5Z"/>
</svg>
