<svg xmlns="http://www.w3.org/2000/svg" width="24" height="24" fill="none" viewBox="0 0 24 24">
  <path fill="#000" d="M16.47 2H7.53A5.53 5.53 0 0 0 2 7.53v8.94A5.53 5.53 0 0 0 7.53 22h8.94A5.53 5.53 0 0 0 22 16.47V7.53A5.53 5.53 0 0 0 16.47 2Z" opacity=".3"/>
  <path fill="#000" d="M8.5 10.13a1.88 1.88 0 1 0 0-3.76 1.88 1.88 0 0 0 0 3.76Zm6.94 0a1.88 1.88 0 1 0 0-3.76 1.88 1.88 0 0 0 0 3.76Zm-7.03 2.79h7.2a1.28 1.28 0 0 1 1.29 1.28 4.88 4.88 0 0 1-4.9 4.88 4.88 4.88 0 0 1-4.87-4.88 1.28 1.28 0 0 1 1.28-1.28Z"/>
</svg>
