<svg xmlns="http://www.w3.org/2000/svg" width="24" height="24" fill="none" viewBox="0 0 24 24">
  <path fill="#000" d="M7.67 7.27H6.45a.75.75 0 0 1 0-1.5h1.22a.75.75 0 0 1 0 1.5Zm0 2.5H6.45a.75.75 0 1 1 0-1.5h1.22a.75.75 0 0 1 0 1.5Zm0 2.5H6.45a.75.75 0 1 1 0-1.5h1.22a.75.75 0 1 1 0 1.5Z"/>
  <path fill="#000" d="M7.45 2h9.11a3.95 3.95 0 0 1 3.94 3.95v7.12a1.1 1.1 0 0 1-1.1 1.1H4.6a1.1 1.1 0 0 1-1.1-1.1V5.95A3.95 3.95 0 0 1 7.45 2Z" opacity=".3"/>
  <path fill="#000" d="M19.4 15.75H4.6a1.1 1.1 0 0 0-1.1 1.1v1.33A3.82 3.82 0 0 0 7.32 22h9.36a3.82 3.82 0 0 0 3.82-3.82v-1.33a1.1 1.1 0 0 0-1.1-1.1Zm-2.9 4a1 1 0 1 1 0-2 1 1 0 0 1 0 2Z"/>
</svg>
