<svg xmlns="http://www.w3.org/2000/svg" width="24" height="24" fill="currentColor" viewBox="0 0 24 24">
  <path d="M2.88 21.84a.79.79 0 0 1-.54-.22.76.76 0 0 1 0-1.07L20.6 2.38a.75.75 0 1 1 1 1.07L3.4 21.62a.74.74 0 0 1-.52.22Z"/>
  <path d="M9.15 12.61A2.86 2.86 0 0 1 12 9.76a2.82 2.82 0 0 1 2.21 1.07l-4 4a2.83 2.83 0 0 1-1.06-2.22Zm2.56 2.82c.096.005.193.005.29 0a2.85 2.85 0 0 0 2.85-2.85c.005-.09.005-.18 0-.27l-3.14 3.12Z"/>
  <path d="m6.05 19 3.1-3.09a4.33 4.33 0 1 1 6.12-6.1l3.16-3.15A10.67 10.67 0 0 0 12 4.05c-4.73 0-10 4.62-10 8.56 0 2.14 1.71 4.61 4.05 6.39Zm10.01-7.9c.188.481.287.993.29 1.51a4.32 4.32 0 0 1-5.88 4.06l-3.14 3.12A9.56 9.56 0 0 0 12 21.17c5 0 10-4.59 10-8.56a7.65 7.65 0 0 0-2.46-5l-3.48 3.49Z" opacity=".3"/>
</svg>
