<svg xmlns="http://www.w3.org/2000/svg" width="24" height="24" fill="currentColor" viewBox="0 0 24 24">
  <path d="M17.83 10.4a.86.86 0 0 0-.57.16V6.89H6.69v3.67a.86.86 0 0 0-.57-.16c-.63.06-1.07.87-1 1.8.07.93.69 1.65 1.32 1.58.08-.01.157-.03.23-.06v.59A3.46 3.46 0 0 0 7.91 17l2.46 2a2.62 2.62 0 0 0 3.27.08l2.29-1.69a3.45 3.45 0 0 0 1.33-2.79v-.89c.074.03.151.05.23.06.63.07 1.22-.64 1.32-1.58.1-.94-.35-1.73-.98-1.79Z" opacity=".3"/>
  <path d="M1.472 7.067c.14.14.33.22.528.223a.76.76 0 0 0 .79-.75V3.2a.46.46 0 0 1 .46-.45h3a.75.75 0 0 0 0-1.5h-3a2 2 0 0 0-2 1.95v3.34a.76.76 0 0 0 .222.527Zm20.638.223a.75.75 0 0 1-.75-.75V3.2a.46.46 0 0 0-.46-.45h-3a.75.75 0 1 1 0-1.5h3a2 2 0 0 1 2 2v3.29a.76.76 0 0 1-.79.75ZM9 7.17a5 5 0 0 0-2.21 5s-3.37-7 2.7-7.49a6.16 6.16 0 0 1 5.2-.87 5.43 5.43 0 0 1 2.56 8.37s0-3.05-3.63-2.79A5.44 5.44 0 0 1 9 7.17Zm11.9 15.47h-3a.75.75 0 1 1 0-1.5h3a.46.46 0 0 0 .46-.45v-3.34a.75.75 0 1 1 1.5 0v3.34a2 2 0 0 1-1.96 1.95Zm-17.7 0h2.96a.75.75 0 1 0 0-1.5h-3a.46.46 0 0 1-.46-.45v-3.34a.75.75 0 1 0-1.5 0v3.34a2 2 0 0 0 2 1.95Z"/>
</svg>
