<svg xmlns="http://www.w3.org/2000/svg" width="24" height="24" fill="currentColor" viewBox="0 0 24 24">
  <path d="m16.02 1.973-8.14.044A5.96 5.96 0 0 0 1.954 8.01l.044 8.08a5.96 5.96 0 0 0 5.992 5.928l8.14-.044a5.96 5.96 0 0 0 5.928-5.992l-.044-8.08a5.96 5.96 0 0 0-5.992-5.928Z" opacity=".3"/>
  <path d="M16 12h-2.74V9.66a1.18 1.18 0 0 1 1.18-1.18h1.67a.5.5 0 0 0 .5-.5V6a.5.5 0 0 0-.5-.5h-2.85a3.53 3.53 0 0 0-3.52 3.56v3H7.89a.5.5 0 0 0-.5.5v1.94a.5.5 0 0 0 .5.5h1.85v7h3.52v-7h2a.5.5 0 0 0 .47-.32l.77-1.93A.5.5 0 0 0 16 12Z"/>
</svg>
