<svg xmlns="http://www.w3.org/2000/svg" width="24" height="24" fill="none" viewBox="0 0 24 24">
  <path fill="#000" d="M18.4 5.6a2 2 0 0 1 0 2.85L14.84 12A2.008 2.008 0 1 1 12 9.16l3.55-3.56a2 2 0 0 1 2.85 0Zm2.13-2.13a5 5 0 0 0-7.11 0L9.87 7a5.02 5.02 0 1 0 7.1 7.1l3.56-3.55a5 5 0 0 0 0-7.11v.03Z" opacity=".3"/>
  <path fill="#000" d="M14.13 9.87a4.78 4.78 0 0 0-1.72-1.12l-.41.41A2 2 0 0 0 12 12a2 2 0 0 1 0 2.84L8.45 18.4a2.015 2.015 0 0 1-2.85-2.85l3.15-3.14a5 5 0 0 1 0-3.66A4.78 4.78 0 0 0 7 9.87l-3.53 3.55a5.027 5.027 0 1 0 7.11 7.11L14.13 17a4.999 4.999 0 0 0 0-7.13Z"/>
</svg>
