<svg xmlns="http://www.w3.org/2000/svg" width="24" height="24" fill="none" viewBox="0 0 24 24">
  <path fill="#000" d="M22 12h-4.7a4.901 4.901 0 0 1-4.8-5.18V2H7.6A5.66 5.66 0 0 0 2 7.71v8.58A5.66 5.66 0 0 0 7.6 22h8.8a5.66 5.66 0 0 0 5.6-5.71V12Z" opacity=".3"/>
  <path fill="#000" d="M21.61 11h-4.72a3.351 3.351 0 0 1-3.28-3.55V2.72l8 8.28ZM10.8 15.59 9.19 17v-5a.75.75 0 0 0-1.5 0v5l-1.85-1.43a.751.751 0 1 0-.93 1.18L8 19.18l.11.06.09.05a.86.86 0 0 0 .27.05c.094 0 .186-.02.27-.06l.1-.05.12-.07 2.84-2.43a.76.76 0 0 0 .08-1.06.738.738 0 0 0-1.08-.08Z"/>
</svg>
