<svg xmlns="http://www.w3.org/2000/svg" width="24" height="24" fill="none" viewBox="0 0 24 24">
  <path fill="#000" d="M22.77 10h-4.72a3.35 3.35 0 0 1-3.28-3.55V1.69l8 8.31ZM5.2 14.62a4 4 0 1 0 0 7.999 4 4 0 0 0 0-8Zm-1.93 2.93a.75.75 0 0 1 1.06.13l.63.81 1.12-1.42a.752.752 0 0 1 1.18.93l-1.71 2.17a.75.75 0 0 1-.919.214.74.74 0 0 1-.26-.214L3.14 18.6a.76.76 0 0 1 .13-1.05Z"/>
  <path fill="#000" d="M22.78 11.46h-4.73a4.87 4.87 0 0 1-4.78-5.05V1.67H8.36a5.62 5.62 0 0 0-5.62 5.62v8.2a3.94 3.94 0 0 1 2.46-.87 4 4 0 0 1 2.94 6.7h9a5.62 5.62 0 0 0 5.62-5.61l.02-4.25Z" opacity=".3"/>
</svg>
