<svg xmlns="http://www.w3.org/2000/svg" width="24" height="24" fill="none" viewBox="0 0 24 24">
  <path fill="#000" d="M22.83 9.78h-4.72a3.39 3.39 0 0 1-3.28-3.61v-4.8l8 8.41ZM9.14 19.16a4 4 0 0 1-4 4.07 4.07 4.07 0 1 1 0-8.14 4 4 0 0 1 4 4.07Zm-2.91 0 .53-.48a.78.78 0 0 0 0-1.08.749.749 0 0 0-1.06-.05l-.58.53-.56-.56a.74.74 0 0 0-1.06 0 .78.78 0 0 0 0 1.08l.51.51-.53.49a.77.77 0 0 0 0 1.08A.75.75 0 0 0 4 21a.78.78 0 0 0 .51-.2l.58-.54.55.56a.73.73 0 0 0 1.06 0 .78.78 0 0 0 0-1.08l-.47-.58Z"/>
  <path fill="#000" d="M22.84 11.3h-4.73a4.911 4.911 0 0 1-4.78-5.13V1.35H8.42A5.67 5.67 0 0 0 2.8 7.06v8.8a3.94 3.94 0 0 1 3.877-.459 4 4 0 0 1 2.453 3.76 4.07 4.07 0 0 1-.64 2.19h8.74a5.67 5.67 0 0 0 5.62-5.71l-.01-4.34Z" opacity=".3"/>
</svg>
