<svg xmlns="http://www.w3.org/2000/svg" width="24" height="24" fill="none" viewBox="0 0 24 24">
  <path fill="#000" d="M22 12h-4.7a4.901 4.901 0 0 1-4.8-5.18V2H7.6A5.66 5.66 0 0 0 2 7.71v8.58A5.66 5.66 0 0 0 7.6 22h8.8a5.66 5.66 0 0 0 5.6-5.71V12Z" opacity=".3"/>
  <path fill="#000" d="M22 10.43h-4.7A3.391 3.391 0 0 1 14 6.82V2l8 8.43Zm-9.23 4a.351.351 0 0 0-.05-.08.462.462 0 0 0-.08-.13l-2.42-2.89a.74.74 0 0 0-1-.09.78.78 0 0 0-.09 1.08l1.37 1.63h-5a.77.77 0 0 0 0 1.53h5L9 17.3a.77.77 0 0 0 .12 1.08.74.74 0 0 0 1.05-.13l2.42-3.11a.391.391 0 0 0 .06-.11.417.417 0 0 0 .05-.09c.01-.08.01-.16 0-.24a.872.872 0 0 0 .04-.32l.03.05Z"/>
</svg>
