<svg xmlns="http://www.w3.org/2000/svg" width="24" height="24" fill="none" viewBox="0 0 24 24">
  <path fill="#000" d="M22 12h-4.74a4.911 4.911 0 0 1-4.78-5.13V2h-4.9A5.66 5.66 0 0 0 2 7.71v8.58A5.66 5.66 0 0 0 7.58 22h8.81A5.66 5.66 0 0 0 22 16.29V12Z" opacity=".3"/>
  <path fill="#000" d="M22 10.43h-4.74A3.388 3.388 0 0 1 14 6.82V2l8 8.43ZM12 13.9H7l1.37-1.63a.77.77 0 0 0-.08-1.08.74.74 0 0 0-1.05.09l-2.42 2.89-.08.13v.08a.67.67 0 0 0-.06.28 1 1 0 0 0 0 .24.41.41 0 0 1 0 .09l.06.11 2.43 3.11a.73.73 0 0 0 .58.29.78.78 0 0 0 .65-1.2l-1.46-1.87H12a.77.77 0 0 0 0-1.53Z"/>
</svg>
