<svg xmlns="http://www.w3.org/2000/svg" width="24" height="24" fill="currentColor" viewBox="0 0 24 24">
  <path d="M22 12h-4.73a4.91 4.91 0 0 1-4.78-5.13V2H7.58A5.66 5.66 0 0 0 2 7.71v8.58A5.66 5.66 0 0 0 7.58 22h8.82a5.67 5.67 0 0 0 5.6-5.71V12Z" opacity=".3"/>
  <path d="M22 10.43h-4.73A3.38 3.38 0 0 1 14 6.82V2l8 8.43Zm-12.67.38-.13-.08h-.08a.66.66 0 0 0-.27-.06h-.08a.777.777 0 0 0-.21 0l-.1.06h-.1L5.3 13.27a.76.76 0 0 0-.12 1.07.72.72 0 0 0 .58.29.75.75 0 0 0 .47-.17L8.07 13v5.19a.75.75 0 1 0 1.5 0v-5.14l1.6 1.39a.74.74 0 0 0 1.06-.08.78.78 0 0 0-.08-1.08l-2.82-2.47Z"/>
</svg>
