<svg xmlns="http://www.w3.org/2000/svg" width="24" height="24" fill="currentColor" viewBox="0 0 24 24">
  <path d="M18.37 2H5.63a2.21 2.21 0 0 0-2.21 2.19v2.49a2.19 2.19 0 0 0 .63 1.55l3.76 3.82a3.85 3.85 0 0 1 1.11 2.7V20a2 2 0 0 0 3.22 1.67l1.37-1a1.911 1.911 0 0 0 .81-1.56V14.9a3.859 3.859 0 0 1 1.29-2.9l4.23-3.77a2.18 2.18 0 0 0 .74-1.66V4.19A2.21 2.21 0 0 0 18.37 2Z" opacity=".3"/>
  <path d="M15.36 19.19a4.23 4.23 0 1 0 0-8.46 4.23 4.23 0 0 0 0 8.46Z"/>
  <path d="M19.27 19.62a.74.74 0 0 1-.53-.22l-.92-.92a.738.738 0 0 1 0-1.06.75.75 0 0 1 1.06 0l.92.92a.75.75 0 0 1-.53 1.28Z"/>
</svg>
