<svg xmlns="http://www.w3.org/2000/svg" width="24" height="24" fill="currentColor" viewBox="0 0 24 24">
  <path d="M17.84 2H5.1a2.21 2.21 0 0 0-2.21 2.19v2.49c0 .58.23 1.138.64 1.55l3.76 3.82a3.85 3.85 0 0 1 1.11 2.7V20a2 2 0 0 0 3.22 1.67l1.36-1a1.908 1.908 0 0 0 .81-1.56v-3.85a.75.75 0 0 1 0-1l.1-.07A3.85 3.85 0 0 1 15.08 12l4.24-3.77a2.22 2.22 0 0 0 .74-1.66V4.19A2.21 2.21 0 0 0 17.84 2Z" opacity=".3"/>
  <path d="M16.36 10a4.75 4.75 0 1 0 0 9.5 4.75 4.75 0 0 0 0-9.5Zm2.32 4.11-2.58 2.33a.78.78 0 0 1-.51.2.74.74 0 0 1-.5-.2l-1.26-1.13a.748.748 0 0 1 .143-1.284.75.75 0 0 1 .857.174l.76.68L17.67 13a.75.75 0 1 1 1 1.12l.01-.01Z"/>
</svg>
