<svg xmlns="http://www.w3.org/2000/svg" width="24" height="24" fill="none" viewBox="0 0 24 24">
  <path fill="#000" d="M15.71 6.16H8.29A1.29 1.29 0 0 0 7 7.45V8.9c0 .34.132.667.37.91L9.56 12a2.21 2.21 0 0 1 .65 1.57v3a1.19 1.19 0 0 0 1.87 1l.8-.56a1.11 1.11 0 0 0 .47-.92v-2.4A2.289 2.289 0 0 1 14.1 12l2.47-2.2a1.29 1.29 0 0 0 .43-1V7.45a1.29 1.29 0 0 0-1.29-1.29Z"/>
  <path fill="#000" d="M16.05 2h-8.1A5.95 5.95 0 0 0 2 7.95v8.1A5.95 5.95 0 0 0 7.95 22h8.1A5.95 5.95 0 0 0 22 16.05v-8.1A5.95 5.95 0 0 0 16.05 2Z" opacity=".3"/>
</svg>
