<svg xmlns="http://www.w3.org/2000/svg" width="24" height="24" fill="none" viewBox="0 0 24 24">
  <path fill="#000" d="M17.81 2H5.06a2.21 2.21 0 0 0-2.21 2.19v2.49c0 .58.23 1.138.64 1.55l3.76 3.82a3.85 3.85 0 0 1 1.11 2.7V20a2 2 0 0 0 3.22 1.67l1.36-1a1.921 1.921 0 0 0 .82-1.56V14.9a3.86 3.86 0 0 1 1.29-2.9l4.23-3.77A2.22 2.22 0 0 0 20 6.59v-2.4A2.21 2.21 0 0 0 17.81 2Z" opacity=".3"/>
  <path fill="#000" d="M16.4 10.21a4.75 4.75 0 1 0 0 9.499 4.75 4.75 0 0 0 0-9.499Zm2.16 4L15.86 17a.5.5 0 0 1-.27.14l-.85.18a.57.57 0 0 1-.67-.66l.16-.85a.5.5 0 0 1 .14-.27l2.69-2.75a.68.68 0 0 1 1 0l.52.52a.66.66 0 0 1-.02.93v-.03Z"/>
</svg>
