<svg xmlns="http://www.w3.org/2000/svg" width="24" height="24" fill="none" viewBox="0 0 24 24">
  <path fill="#000" d="M16.08 2H7.97a5.96 5.96 0 0 0-5.96 5.96v8.08A5.96 5.96 0 0 0 7.97 22h8.11a5.96 5.96 0 0 0 5.96-5.96V7.96A5.96 5.96 0 0 0 16.08 2Z" opacity=".3"/>
  <path fill="#000" d="M10.15 17.02H6.34v-3.36a1.19 1.19 0 0 1 1.15-1.17h2.66v4.53Zm7.56 0h-3.79v-6.23h2.6a1.19 1.19 0 0 1 1.19 1.19v5.04Z"/>
  <path fill="#000" d="M13.92 17.02h-3.77V7.41a1.19 1.19 0 0 1 1.19-1.17h1.39a1.19 1.19 0 0 1 1.19 1.19v9.59Z" opacity=".3"/>
</svg>
