<svg xmlns="http://www.w3.org/2000/svg" width="24" height="24" fill="none" viewBox="0 0 24 24">
  <path fill="#000" d="M11.35 4.49a2.59 2.59 0 0 0 2.41 1.64h3a5.27 5.27 0 0 1 4.63 2.75 5.51 5.51 0 0 0-5.53-5.18H11l.35.79Z" opacity=".3"/>
  <path fill="#000" d="M16.72 6.13h-3a2.59 2.59 0 0 1-2.41-1.64L11 3.64A2.61 2.61 0 0 0 8.59 2h-2A4.59 4.59 0 0 0 2 6.6v10.18a5.29 5.29 0 0 0 5.28 5.3h9.44a5.289 5.289 0 0 0 5.28-5.3v-5.35a5.291 5.291 0 0 0-5.28-5.3Zm-1 6.35-3.1 4.06a.73.73 0 0 1-.55.28.739.739 0 0 1-.55-.26l-2.27-2.68a.72.72 0 0 1 1.1-.92L12 15l2.56-3.35a.709.709 0 0 1 1-.14.73.73 0 0 1 .14.97h.02Z"/>
</svg>
