<svg xmlns="http://www.w3.org/2000/svg" width="24" height="24" fill="none" viewBox="0 0 24 24">
  <path fill="#000" d="M11.17 4.57a2.62 2.62 0 0 0 2.42 1.64h3A5.29 5.29 0 0 1 21.18 9a5.51 5.51 0 0 0-5.49-5.16h-4.83l.31.73Z" opacity=".3"/>
  <path fill="#000" d="M16.66 6.11h-3a2.58 2.58 0 0 1-2.41-1.63L11 3.64A2.6 2.6 0 0 0 8.53 2h-2a4.58 4.58 0 0 0-4.59 4.58v10.14A5.28 5.28 0 0 0 7.22 22h9.44a5.27 5.27 0 0 0 5.28-5.28v-5.33a5.28 5.28 0 0 0-5.28-5.28Zm-1.22 9.14-2.8 2.38a.83.83 0 0 1-1.06 0l-.67-.53-2.33-1.83a.75.75 0 0 1-.12-1 .74.74 0 0 1 1-.12l1.85 1.46v-5.1a.75.75 0 0 1 1.5 0v5l1.61-1.38a.74.74 0 0 1 1 .09.74.74 0 0 1 .02 1.03Z"/>
</svg>
