<svg xmlns="http://www.w3.org/2000/svg" width="24" height="24" fill="currentColor" viewBox="0 0 24 24">
  <path d="M11.18 4.57a2.59 2.59 0 0 0 2.41 1.64h3A5.28 5.28 0 0 1 21.18 9a5.5 5.5 0 0 0-5.49-5.16h-4.83l.32.73Z" opacity=".3"/>
  <path d="M16.72 6.11h-3a2.58 2.58 0 0 1-2.41-1.63L11 3.64A2.61 2.61 0 0 0 8.59 2h-2A4.58 4.58 0 0 0 2 6.58v10.14A5.27 5.27 0 0 0 7.28 22h9.44A5.27 5.27 0 0 0 22 16.72v-5.33a5.28 5.28 0 0 0-5.28-5.28Zm-1.14 7.23a.76.76 0 0 1-1.06.09l-1.6-1.38v5a.75.75 0 1 1-1.5 0V12l-1.85 1.44a.75.75 0 1 1-.93-1.17L11 10.42l.68-.53a.83.83 0 0 1 1.06 0l2.8 2.38a.74.74 0 0 1 .04 1.07Z"/>
</svg>
