<svg xmlns="http://www.w3.org/2000/svg" width="24" height="24" fill="currentColor" viewBox="0 0 24 24">
  <path d="M14.01 13.218V7.681h-1.498c-7.695.044-10.654 7.214-10.507 11.848.017.522.767.566.997.097 1.063-2.155 3.637-5.49 9.576-6.406v-.002h1.431Z" opacity=".3"/>
  <path d="M12.582 7.68v5.54h.001v2.768c0 .258.067.51.192.728.125.22.305.396.518.51a1.204 1.204 0 0 0 1.345-.13l6.848-5.538c.16-.13.29-.297.378-.489a1.474 1.474 0 0 0 0-1.238 1.365 1.365 0 0 0-.378-.489l-6.848-5.538a1.204 1.204 0 0 0-1.345-.13 1.325 1.325 0 0 0-.518.51c-.125.218-.192.47-.192.727v2.77h-.001Z"/>
</svg>
