<svg xmlns="http://www.w3.org/2000/svg" width="24" height="24" fill="none" viewBox="0 0 24 24">
  <path fill="#000" d="M22 18.19v-.38A1.81 1.81 0 0 0 20.19 16H8.81a.81.81 0 0 1-.81-.81V3.81A1.81 1.81 0 0 0 6.19 2h-.38A1.81 1.81 0 0 0 4 3.81v14.38A1.81 1.81 0 0 0 5.81 20h14.38A1.81 1.81 0 0 0 22 18.19Z" opacity=".3"/>
  <path fill="#000" d="M20 5.81v14.38A1.81 1.81 0 0 1 18.19 22h-.38A1.81 1.81 0 0 1 16 20.19V8.81a.81.81 0 0 0-.81-.81H8V4h10.19A1.81 1.81 0 0 1 20 5.81ZM3.81 8H4V4h-.19A1.81 1.81 0 0 0 2 5.81v.38A1.81 1.81 0 0 0 3.81 8Z"/>
</svg>
