<svg xmlns="http://www.w3.org/2000/svg" width="24" height="24" fill="currentColor" viewBox="0 0 24 24">
  <path d="M20.78 17.75h-7.56a.75.75 0 1 1 0-1.5h7.56a.75.75 0 1 1 0 1.5Zm-2.96 4h-4.6a.75.75 0 1 1 0-1.5h4.6a.75.75 0 1 1 0 1.5Z"/>
  <path d="M9.15 2.45h-6.4a.7.7 0 0 0-.7.71v17.89a.7.7 0 0 0 .7.7h6.4a.702.702 0 0 0 .71-.7V3.16a.71.71 0 0 0-.71-.71ZM4.106 4.67a.5.5 0 0 1 .47-.67H7.3a.5.5 0 0 1 .474.661l-1.317 3.86a.5.5 0 0 1-.943.01l-1.41-3.86Zm3.67 14.918a.5.5 0 0 1-.473.661h-2.73a.5.5 0 0 1-.47-.67l1.411-3.89a.5.5 0 0 1 .944.01l1.318 3.89Zm-2.64-7.556a.2.2 0 0 1 0 .134L3.94 15.544c-.075.212-.389.158-.389-.066V8.73c0-.225.314-.279.389-.067l1.198 3.37Zm3.224 3.445c0 .224-.313.278-.388.066l-1.198-3.377a.2.2 0 0 1 0-.134l1.198-3.37c.075-.212.388-.158.388.067v6.748ZM20.86 2.45h-7.72a.68.68 0 0 0-.67.68v10.13a.67.67 0 0 0 .67.67h7.72a.671.671 0 0 0 .67-.67V3.13a.68.68 0 0 0-.67-.68Zm-5.644 2.191A.4.4 0 0 1 15.535 4h2.931a.4.4 0 0 1 .32.641l-1.467 1.937a.4.4 0 0 1-.638 0l-1.465-1.937Zm3.57 7.198a.4.4 0 0 1-.32.641h-2.931a.4.4 0 0 1-.32-.641l1.466-1.937a.4.4 0 0 1 .638 0l1.466 1.937ZM15.971 8.07a.2.2 0 0 1 0 .238l-1.61 2.198A.2.2 0 0 1 14 10.39V6.032a.2.2 0 0 1 .36-.12l1.612 2.16ZM20 10.39a.2.2 0 0 1-.36.118L18.027 8.31a.2.2 0 0 1 0-.238l1.612-2.158a.2.2 0 0 1 .36.12v4.356Z" opacity=".3"/>
</svg>
