<svg xmlns="http://www.w3.org/2000/svg" width="24" height="24" fill="none" viewBox="0 0 24 24">
  <path fill="#000" d="M20.78 17.75h-7.56a.75.75 0 1 1 0-1.5h7.56a.75.75 0 1 1 0 1.5Zm-2.96 4h-4.6a.75.75 0 1 1 0-1.5h4.6a.75.75 0 1 1 0 1.5Z"/>
  <path fill="#000" d="M9.15 2.45h-6.4a.7.7 0 0 0-.7.71v17.89a.7.7 0 0 0 .7.7h6.4a.702.702 0 0 0 .71-.7V3.16a.71.71 0 0 0-.71-.71ZM4.105 4.67a.5.5 0 0 1 .47-.67H7.3a.5.5 0 0 1 .473.661l-1.317 3.86a.5.5 0 0 1-.943.01L4.105 4.67Zm3.671 14.92a.5.5 0 0 1-.474.661H4.573a.5.5 0 0 1-.47-.67l1.41-3.89a.5.5 0 0 1 .944.01l1.319 3.89Zm-2.64-7.556a.2.2 0 0 1 0 .134l-1.198 3.377c-.075.212-.388.158-.388-.066V8.73c0-.225.313-.279.388-.067l1.198 3.37Zm3.224 3.445c0 .224-.314.278-.389.066l-1.197-3.377a.2.2 0 0 1 0-.134l1.197-3.37c.076-.212.389-.158.389.067v6.748ZM20.86 2.45h-7.72a.68.68 0 0 0-.67.68v10.13a.67.67 0 0 0 .67.67h7.72a.671.671 0 0 0 .67-.67V3.13a.68.68 0 0 0-.67-.68Zm-5.645 2.191a.4.4 0 0 1 .32-.641h2.93a.4.4 0 0 1 .32.641l-1.466 1.937a.4.4 0 0 1-.638 0l-1.466-1.937Zm3.57 7.198a.4.4 0 0 1-.32.641h-2.93a.4.4 0 0 1-.32-.641l1.466-1.937a.4.4 0 0 1 .638 0l1.466 1.937ZM15.97 8.07a.2.2 0 0 1 .001.238l-1.61 2.198A.2.2 0 0 1 14 10.39V6.032a.2.2 0 0 1 .36-.12l1.611 2.16ZM20 10.39a.2.2 0 0 1-.361.118L18.027 8.31a.2.2 0 0 1 .001-.238l1.612-2.158a.2.2 0 0 1 .36.12v4.356Z" opacity=".3"/>
</svg>
