<svg xmlns="http://www.w3.org/2000/svg" width="24" height="24" fill="currentColor" viewBox="0 0 24 24">
  <path d="M12 11.51a2.38 2.38 0 1 0 0-4.76 2.38 2.38 0 0 0 0 4.76Zm.1 4.56a8.77 8.77 0 0 1-4.55-1.35.75.75 0 0 1-.18-1.05.74.74 0 0 1 1-.18 6.37 6.37 0 0 0 7.05 0 .75.75 0 0 1 .86 1.23 7.3 7.3 0 0 1-4.18 1.35Z"/>
  <path d="M2 12.13v8.14a.87.87 0 0 0 1.43.67l1.39-1.16a.89.89 0 0 1 1.13 0l2.19 1.87a.88.88 0 0 0 1.13 0l2.22-1.88a.88.88 0 0 1 1.13 0l2.15 1.83a.87.87 0 0 0 1.13 0l2.15-1.84a.89.89 0 0 1 1.13 0l1.39 1.16a.87.87 0 0 0 1.43-.65v-8.14a10 10 0 0 0-20 0Z" opacity=".3"/>
</svg>
