<svg xmlns="http://www.w3.org/2000/svg" width="24" height="24" fill="none" viewBox="0 0 24 24">
  <path fill="#000" d="M4 7.5h16v11.63A2.869 2.869 0 0 1 17.13 22H6.87A2.87 2.87 0 0 1 4 19.13V7.5Z" opacity=".3"/>
  <path fill="#000" d="M19.84 5H4.16A1.66 1.66 0 0 0 2.5 6.66v1.68c0 .917.743 1.66 1.66 1.66h15.68a1.66 1.66 0 0 0 1.66-1.66V6.66A1.66 1.66 0 0 0 19.84 5Z"/>
  <path fill="#000" d="m17.81 3.71-1.43-1.43a.92.92 0 0 0-1.3 0L12 5.35 8.92 2.28a.92.92 0 0 0-1.3 0L6.19 3.71a.92.92 0 0 0 0 1.3l3.32 3.32a.92.92 0 0 0 1.3 0L12 7.14l1.19 1.19a.92.92 0 0 0 1.3 0L17.81 5a.92.92 0 0 0 0-1.29Z" opacity=".3"/>
  <path fill="#000" d="m13.46 15.93-.76-.51a1.27 1.27 0 0 0-1.4 0l-.76.51A1 1 0 0 1 9 15.1V8h6v7.1a1 1 0 0 1-1.54.83Z" opacity=".3"/>
</svg>
