<svg xmlns="http://www.w3.org/2000/svg" width="24" height="24" fill="none" viewBox="0 0 24 24">
  <path fill="#000" d="M15.62 2.01H8.38a2.418 2.418 0 0 0-2.42 2.415A2.418 2.418 0 0 0 8.38 6.84h7.24a2.418 2.418 0 0 0 2.42-2.415 2.418 2.418 0 0 0-2.42-2.415Z"/>
  <path fill="#000" d="M20 17.59A3.14 3.14 0 0 1 17.13 22H6.9A3.13 3.13 0 0 1 4 17.66l3.06-7.38 2-4.83a3.13 3.13 0 0 1 5.77 0l2.05 4.82L20 17.59Z" opacity=".3"/>
  <path fill="#000" d="M12.61 13c-3.09 1.58-5.38.86-6.71.05L4 17.66A3.13 3.13 0 0 0 6.9 22h10.22A3.14 3.14 0 0 0 20 17.59l-2.15-5a7.8 7.8 0 0 0-5.24.41Z"/>
</svg>
