<svg xmlns="http://www.w3.org/2000/svg" width="24" height="24" fill="none" viewBox="0 0 24 24">
  <path fill="#000" d="M16.07 2H7.96A5.96 5.96 0 0 0 2 7.96v8.08A5.96 5.96 0 0 0 7.96 22h8.11a5.96 5.96 0 0 0 5.96-5.96V7.96A5.96 5.96 0 0 0 16.07 2Z" opacity=".3"/>
  <path fill="#000" d="M12.38 19.34a.75.75 0 0 1-.75-.75v-4.15a.75.75 0 0 1 1.5 0v4.15a.76.76 0 0 1-.75.75Zm-4.82 0a.76.76 0 0 1-.75-.75v-2.87a.75.75 0 0 1 1.5 0v2.87a.75.75 0 0 1-.75.75Zm9.57 0a.76.76 0 0 1-.75-.75v-6.82a.75.75 0 1 1 1.5 0v6.82a.75.75 0 0 1-.75.75Zm0-10.57a.75.75 0 0 1-.75-.77V6.4H14.8a.75.75 0 0 1 0-1.5h2.33a.74.74 0 0 1 .75.75V8a.74.74 0 0 1-.75.77Z"/>
  <path fill="#000" d="M7.81 12.08a.75.75 0 0 1-.75-.73.73.73 0 0 1 .72-.77c.21 0 5.06-.22 8.74-5.37a.75.75 0 0 1 1.22.87c-4.14 5.78-9.68 6-9.92 6h-.01Z"/>
</svg>
