<svg xmlns="http://www.w3.org/2000/svg" width="24" height="24" fill="none" viewBox="0 0 24 24">
  <path fill="#000" d="M9.66 22a1.65 1.65 0 1 0 0-3.3 1.65 1.65 0 0 0 0 3.3Zm7.41 0a1.65 1.65 0 1 0 0-3.3 1.65 1.65 0 0 0 0 3.3Z"/>
  <path fill="#000" d="M19.8 4.05H8.44a2 2 0 0 0-.44.06v-.07L7 2.36A.74.74 0 0 0 6.29 2H2.93a.75.75 0 1 0 0 1.5h2.93l.76 1.3a.57.57 0 0 0 .14.13 2.08 2.08 0 0 0-.38 1l-.15 2.15h15.5l.13-1.81a2.07 2.07 0 0 0-2.06-2.22Z" opacity=".3"/>
  <path fill="#000" d="m6.12 9.58-.35 4.67a2.07 2.07 0 0 0 2.06 2.22h11.36a2.06 2.06 0 0 0 2.06-1.91l.37-5-15.5.02Z"/>
</svg>
