<svg xmlns="http://www.w3.org/2000/svg" width="24" height="24" fill="currentColor" viewBox="0 0 24 24">
  <path d="m16.02 1.973-8.14.044A5.96 5.96 0 0 0 1.954 8.01l.044 8.08a5.96 5.96 0 0 0 5.992 5.928l8.14-.044a5.96 5.96 0 0 0 5.928-5.992l-.044-8.08a5.96 5.96 0 0 0-5.992-5.928Z" opacity=".3"/>
  <path d="M12.99 6.078a.5.5 0 0 1 .5-.5h.232a.5.5 0 0 1 .452.286l.938 1.974.938-1.974a.5.5 0 0 1 .452-.286h.232a.5.5 0 0 1 .5.5v4.423a.5.5 0 1 1-1 0V7.808l-.67 1.41a.5.5 0 0 1-.904 0l-.67-1.41V10.5a.5.5 0 1 1-1 0V6.078Z"/>
  <path fill-rule="evenodd" d="M8.987 12.372a2.211 2.211 0 1 0 0 4.422 2.211 2.211 0 0 0 0-4.422Zm-1.211 2.211a1.211 1.211 0 1 0 2.422 0 1.211 1.211 0 0 0-2.422 0Z" clip-rule="evenodd"/>
  <path d="M8.013 6.078a.5.5 0 0 0-1 0v4.423a.5.5 0 1 0 1 0V8.544H9.96V10.5a.5.5 0 1 0 1 0V6.078a.5.5 0 0 0-1 0v1.466H8.013V6.078Zm6.822 7.246c-.274.037-.386.152-.422.27a.588.588 0 0 0-.027.3.279.279 0 0 0 .074.135.708.708 0 0 0 .325.171l.897.169c.255.042.604.16.873.43.299.3.448.734.338 1.269a1.27 1.27 0 0 1-.82.97c-.376.143-.825.15-1.265.114-.528-.043-.984-.273-1.355-.592a.5.5 0 1 1 .653-.757c.242.209.506.33.784.353.402.033.666.008.825-.052.116-.045.17-.101.198-.237a.518.518 0 0 0 .003-.247.256.256 0 0 0-.069-.114.634.634 0 0 0-.332-.151l-.012-.002-.924-.174-.01-.002a1.706 1.706 0 0 1-.832-.458c-.313-.327-.462-.809-.282-1.411.189-.63.744-.907 1.246-.975.5-.067 1.059.047 1.49.306.246.149.404.318.64.607a.5.5 0 0 1-.774.633c-.221-.27-.29-.327-.382-.383a1.373 1.373 0 0 0-.84-.172Zm-7.322 4.388a.35.35 0 1 0 0 .7h2.948a.35.35 0 1 0 0-.7H7.513Z"/>
</svg>
