<svg xmlns="http://www.w3.org/2000/svg" width="24" height="24" fill="currentColor" viewBox="0 0 24 24">
  <path d="M18.43 3.32a6.51 6.51 0 0 0-5.68.68.83.83 0 0 1-.91 0 6.49 6.49 0 0 0-5.22-.81A6.08 6.08 0 0 0 2.1 9.08C2 16 9.16 19.78 11.53 20.86a1.999 1.999 0 0 0 1.54.05C15.43 20 22.35 16.72 22.48 9a6.13 6.13 0 0 0-4.05-5.68Z" opacity=".3"/>
  <path d="M18.43 3.32a6.51 6.51 0 0 0-5.68.68.83.83 0 0 1-.91 0 6.49 6.49 0 0 0-5.22-.81A6.08 6.08 0 0 0 2.1 9.08a9.81 9.81 0 0 0 .19 2h20c.128-.686.191-1.382.19-2.08a6.13 6.13 0 0 0-4.05-5.68Z"/>
</svg>
