<svg xmlns="http://www.w3.org/2000/svg" width="24" height="24" fill="currentColor" viewBox="0 0 24 24">
  <path d="M12 22c5.523 0 10-4.477 10-10S17.523 2 12 2 2 6.477 2 12s4.477 10 10 10Z" opacity=".3"/>
  <path d="M13.16 15.91a1.81 1.81 0 0 0-1.78-1.47h-.2A25.232 25.232 0 0 1 9.2 9a1.8 1.8 0 0 0-.55-3.19 25.671 25.671 0 0 1-.15-2.63v-.54a9.88 9.88 0 0 0-1.5.7c.007.89.064 1.777.17 2.66a1.8 1.8 0 0 0-.85 1.53 1.82 1.82 0 0 0 1.41 1.8 26.58 26.58 0 0 0 2.15 5.89A25.188 25.188 0 0 1 2 11.42V12c.005.428.035.856.09 1.28a26.826 26.826 0 0 0 7.53 3.39 1.81 1.81 0 0 0 1.76 1.4h.17c.87 1.29 1.85 2.5 2.93 3.62a10.375 10.375 0 0 0 1.57-.54 24.628 24.628 0 0 1-3.15-3.76 26.16 26.16 0 0 0 3.78.28 26.987 26.987 0 0 0 3.73-.27c.341-.528.632-1.087.87-1.67a24.906 24.906 0 0 1-4.6.44 25.579 25.579 0 0 1-3.52-.26Z"/>
  <path d="M18.16 10.47c.127-.251.196-.528.2-.81a1.82 1.82 0 0 0-1.82-1.81A1.92 1.92 0 0 0 16 8a13.999 13.999 0 0 1-2.31-5.8A8.731 8.731 0 0 0 12.1 2a15.56 15.56 0 0 0 2.76 7 1.82 1.82 0 0 0 1.68 2.49c.152-.005.303-.025.45-.06a15.77 15.77 0 0 0 4.7 3c.144-.49.248-.992.31-1.5a14.44 14.44 0 0 1-3.84-2.46Z"/>
</svg>
