<svg xmlns="http://www.w3.org/2000/svg" width="24" height="24" fill="currentColor" viewBox="0 0 24 24">
  <path d="m16.02 1.973-8.14.044A5.96 5.96 0 0 0 1.954 8.01l.044 8.08a5.96 5.96 0 0 0 5.992 5.928l8.14-.044a5.96 5.96 0 0 0 5.928-5.992l-.044-8.08a5.96 5.96 0 0 0-5.992-5.928Z" opacity=".3"/>
  <path d="M11.25 7.92a.72.72 0 0 0-.67-.51.75.75 0 0 0-.72.44l-2.36 5.3-1.23 2.78a.76.76 0 0 0 .38 1 .76.76 0 0 0 1-.39l1-2.33h3.08l.75 2.27a.75.75 0 0 0 .71.51c.08.014.16.014.24 0a.75.75 0 0 0 .47-1l-2.65-8.07Zm-1.9 4.78 1.09-2.47.82 2.47H9.35Zm7.38-2.7a.74.74 0 0 0-.75.75v5.47a.75.75 0 0 0 1.5 0v-5.46a.749.749 0 0 0-.75-.76Zm0-.84a1 1 0 1 0 0-2 1 1 0 0 0 0 2Z"/>
</svg>
