<svg xmlns="http://www.w3.org/2000/svg" width="24" height="24" fill="none" viewBox="0 0 24 24">
  <path fill="#000" d="M21.39 10.53 20 9.12a1 1 0 0 1-.3-.73v-2a2.08 2.08 0 0 0-2.1-2.07h-2a1 1 0 0 1-.73-.3l-1.4-1.41a2.08 2.08 0 0 0-2.94 0L9.12 4a1 1 0 0 1-.73.3h-2a2.08 2.08 0 0 0-2.07 2.1v2a1 1 0 0 1-.3.73l-1.41 1.4a2.08 2.08 0 0 0 0 2.94L4 14.88a1 1 0 0 1 .3.73v2a2.08 2.08 0 0 0 2.1 2.07h2a1.002 1.002 0 0 1 .73.3l1.41 1.41a2.08 2.08 0 0 0 2.94 0l1.4-1.39a1.001 1.001 0 0 1 .73-.3h2a2.08 2.08 0 0 0 2.08-2.08v-2a1.002 1.002 0 0 1 .3-.73l1.41-1.41a2.08 2.08 0 0 0-.01-2.95Z" opacity=".3"/>
  <path fill="#000" d="M12 13.4a1 1 0 0 0 1-1V7.74a1 1 0 0 0-2 0v4.66a1 1 0 0 0 1 1Zm0 3.86a1.25 1.25 0 1 0 0-2.5 1.25 1.25 0 0 0 0 2.5Z"/>
</svg>
