<svg xmlns="http://www.w3.org/2000/svg" width="24" height="24" fill="currentColor" viewBox="0 0 24 24">
  <path d="M18.59 15.85H5.83a2.34 2.34 0 0 0-2.34 2.34v1.41a2.34 2.34 0 0 0 2.34 2.34h12.76a2.34 2.34 0 0 0 2.34-2.34v-1.41a2.34 2.34 0 0 0-2.34-2.34Z"/>
  <path d="M7.8 14.42h-.76a.75.75 0 0 0-.75.75v1.28c0 .414.336.75.75.75h.76a.75.75 0 0 0 .75-.75v-1.28a.75.75 0 0 0-.75-.75Zm5.52-4.58H10.8v7.63h2.52V9.84Z" opacity=".3"/>
  <path d="M12.06 2.06a4.25 4.25 0 1 0 4.25 4.24 4.238 4.238 0 0 0-4.25-4.24Zm-.91 3.87a.91.91 0 1 1 0-1.82.91.91 0 0 1 0 1.82Z"/>
</svg>
