<svg xmlns="http://www.w3.org/2000/svg" width="24" height="24" fill="currentColor" viewBox="0 0 24 24">
  <path fill-rule="evenodd" d="M9.698 2.777a4.25 4.25 0 0 1 2.362-.717 4.24 4.24 0 0 1 4.25 4.24 4.25 4.25 0 1 1-6.612-3.523Zm.809 2.887a.91.91 0 1 0 1.286-1.287.91.91 0 0 0-1.286 1.287Z" clip-rule="evenodd"/>
  <path d="M5.83 15.85h12.76a2.34 2.34 0 0 1 2.34 2.34v1.41a2.34 2.34 0 0 1-2.34 2.34H5.83a2.34 2.34 0 0 1-2.34-2.34v-1.41a2.34 2.34 0 0 1 2.34-2.34Z"/>
  <path d="M10.8 9.84h2.52v7.63H10.8V9.84Zm-3.76 4.58h.76a.75.75 0 0 1 .75.75v1.28a.75.75 0 0 1-.75.75h-.76a.75.75 0 0 1-.75-.75v-1.28a.75.75 0 0 1 .75-.75Z" opacity=".3"/>
</svg>
