<svg xmlns="http://www.w3.org/2000/svg" width="24" height="24" fill="currentColor" viewBox="0 0 24 24">
  <path d="M12 22.68a1.77 1.77 0 0 1-.92-.25L9 21.24a.75.75 0 0 1-.28-1 .76.76 0 0 1 1-.28l2.06 1.19a.34.34 0 0 0 .34 0l7.65-4.41a.36.36 0 0 0 .18-.3V7.58a.36.36 0 0 0-.18-.3l-7.6-4.41a.34.34 0 0 0-.34 0L4.18 7.28a.36.36 0 0 0-.18.3v8.65a.67.67 0 0 0 .34.58l2 1.15a.78.78 0 0 0 1.16-.68V8.81a.74.74 0 0 1 .74-.75.75.75 0 0 1 .75.74v8.48a2.25 2.25 0 0 1-1.13 2 2.22 2.22 0 0 1-2.28 0l-2-1.14a2.19 2.19 0 0 1-1.08-1.91V7.58A1.87 1.87 0 0 1 3.43 6l7.65-4.41a1.83 1.83 0 0 1 1.84 0L20.57 6a1.87 1.87 0 0 1 .93 1.6v8.84a1.87 1.87 0 0 1-.93 1.6l-7.65 4.41a1.77 1.77 0 0 1-.92.23Z"/>
  <path d="M17.5 13.64c.01.48-.122.954-.38 1.36-.278.413-.67.737-1.13.93a4.111 4.111 0 0 1-1.75.34 3.93 3.93 0 0 1-2-.46 2.64 2.64 0 0 1-.91-.88 2 2 0 0 1-.33-1.1.729.729 0 0 1 .21-.52.72.72 0 0 1 .53-.21.64.64 0 0 1 .45.17c.138.142.244.313.31.5.09.228.204.445.34.65.131.186.306.337.51.44a2 2 0 0 0 .87.17c.428.02.85-.103 1.2-.35a1.002 1.002 0 0 0 .47-.86.93.93 0 0 0-.25-.66 1.61 1.61 0 0 0-.65-.39 10.178 10.178 0 0 0-1.05-.29 8.44 8.44 0 0 1-1.52-.48 2.38 2.38 0 0 1-.94-.76 1.93 1.93 0 0 1-.36-1.19 2.11 2.11 0 0 1 .37-1.21A2.38 2.38 0 0 1 12.57 8a4.3 4.3 0 0 1 1.64-.28 3.9 3.9 0 0 1 1.31.19c.337.102.65.273.92.5a2 2 0 0 1 .53.65c.106.207.165.436.17.67a.77.77 0 0 1-.21.53.66.66 0 0 1-.52.24.64.64 0 0 1-.44-.14 2.08 2.08 0 0 1-.32-.47 2.21 2.21 0 0 0-.54-.73 1.59 1.59 0 0 0-1-.26 1.75 1.75 0 0 0-1 .29.81.81 0 0 0-.39.68.68.68 0 0 0 .13.42 1 1 0 0 0 .37.31c.15.087.312.154.48.2l.79.22c.427.092.848.213 1.26.36.354.108.69.266 1 .47a2 2 0 0 1 .62.71c.13.344.175.714.13 1.08Z" opacity=".3"/>
</svg>
