<svg xmlns="http://www.w3.org/2000/svg" width="24" height="24" fill="currentColor" viewBox="0 0 24 24">
  <path d="M10.52 17.3a.827.827 0 0 1-.22 0l-3.11-.93a.76.76 0 0 1-.51-.94.75.75 0 0 1 .93-.51l2.15.64V7.73a.76.76 0 1 1 1.51 0v8.81a.77.77 0 0 1-.3.61.74.74 0 0 1-.45.15Zm3.06-.23 3-.88a.75.75 0 0 0 .54-.72v-3a.77.77 0 0 0-.25-.57.761.761 0 0 0-.6-.18l-2.15.28V8.61l2.6-.41a.76.76 0 0 0 .63-.86.77.77 0 0 0-.87-.63l-3.23.51a.75.75 0 0 0-.64.75v4.92a.73.73 0 0 0 .26.56.709.709 0 0 0 .59.18l2.19-.27v1.54l-2.49.72a.76.76 0 0 0 .43 1.45h-.01Z"/>
  <path d="m17.47 20.53-4.78 1.37c-.45.13-.929.13-1.38 0l-4.76-1.37a2.48 2.48 0 0 1-1.79-2.14L3.34 4.76A2.5 2.5 0 0 1 5.83 2h12.34a2.5 2.5 0 0 1 2.49 2.76l-1.39 13.62a2.51 2.51 0 0 1-1.8 2.15Z" opacity=".3"/>
</svg>
