<svg xmlns="http://www.w3.org/2000/svg" width="24" height="24" fill="currentColor" viewBox="0 0 24 24">
  <path d="M12.75 8.84v-1.1a1.38 1.38 0 0 1 1.38-1.39h.49a2.88 2.88 0 0 0 2.88-2.88v-.65a.75.75 0 1 0-1.5 0v.65a1.38 1.38 0 0 1-1.38 1.38h-.49a2.89 2.89 0 0 0-2.88 2.89v1.1h1.5Z"/>
  <path fill-rule="evenodd" d="M5.408 12.231a.73.73 0 1 0-.811 1.215.73.73 0 0 0 .811-1.215Zm3.744 7.357h6.85a.75.75 0 0 0 0-1.5h-6.85a.75.75 0 0 0 0 1.5Z" clip-rule="evenodd"/>
  <path d="M9.152 19.588h6.85a.75.75 0 0 0 0-1.5h-6.85a.75.75 0 0 0 0 1.5Z"/>
  <path d="M20.8 8.84H3.2A1.2 1.2 0 0 0 2 10v10.73a1.2 1.2 0 0 0 1.2 1.2h17.6a1.2 1.2 0 0 0 1.2-1.2V10a1.2 1.2 0 0 0-1.2-1.16Zm-5.07 7a.73.73 0 1 1-1.46 0 .73.73 0 0 1 1.46 0ZM14 12.11a.73.73 0 1 1 0 1.46.73.73 0 0 1 0-1.46Zm-1.27 3.73a.73.73 0 1 1-1.46 0 .73.73 0 0 1 1.46 0ZM11 12.11a.73.73 0 1 1 0 1.46.73.73 0 0 1 0-1.46Zm-6 0a.73.73 0 1 1 0 1.46.73.73 0 0 1 0-1.46Zm1.12 7.48H4.88a.75.75 0 1 1 0-1.5h1.24a.75.75 0 1 1 0 1.5Zm0-3H4.88a.75.75 0 1 1 0-1.5h1.24a.75.75 0 1 1 0 1.5Zm1.15-3.75a.73.73 0 1 1 1.46 0 .73.73 0 0 1-1.46 0ZM9 15.11a.73.73 0 1 1 0 1.46.73.73 0 0 1 0-1.46Zm7 4.48H9.15a.75.75 0 1 1 0-1.5H16a.75.75 0 1 1 0 1.5Zm3 0a.73.73 0 1 1 .73-.73.73.73 0 0 1-.73.71v.02Zm0-3h-1.23a.75.75 0 1 1 0-1.5H19a.75.75 0 1 1 0 1.5Zm.12-3H17a.75.75 0 1 1 0-1.5h2.12a.75.75 0 1 1 0 1.5Z" opacity=".3"/>
</svg>
