<svg xmlns="http://www.w3.org/2000/svg" width="24" height="24" fill="currentColor" viewBox="0 0 24 24">
  <path d="M21.39 10.53 20 9.12a1 1 0 0 1-.3-.73v-2a2.08 2.08 0 0 0-2.1-2.07h-2a1 1 0 0 1-.73-.3l-1.4-1.41a2.08 2.08 0 0 0-2.94 0L9.12 4a1 1 0 0 1-.73.3h-2a2.08 2.08 0 0 0-2.07 2.1v2a1 1 0 0 1-.3.73l-1.41 1.4a2.08 2.08 0 0 0 0 2.94L4 14.88a1 1 0 0 1 .3.73v2a2.08 2.08 0 0 0 2.1 2.07h2a1.002 1.002 0 0 1 .73.3l1.41 1.41a2.08 2.08 0 0 0 2.94 0l1.4-1.39a1.001 1.001 0 0 1 .73-.3h2a2.08 2.08 0 0 0 2.08-2.08v-2a1.002 1.002 0 0 1 .3-.73l1.41-1.41a2.08 2.08 0 0 0-.01-2.95Z" opacity=".3"/>
  <path d="M16 10.73h-2a.57.57 0 0 1-.56-.67l.25-1.43a1.06 1.06 0 0 0-1.94-.77L9.9 10.71v-.58a.76.76 0 0 0-.76-.76h-1a.76.76 0 0 0-.76.76v5.13a.76.76 0 0 0 .76.76h1a.76.76 0 0 0 .76-.76v.07l1.26 1c.272.193.597.297.93.3h2.42a1.08 1.08 0 0 0 1-.76l1.24-4.05a.86.86 0 0 0-.75-1.09Z"/>
</svg>
