<svg xmlns="http://www.w3.org/2000/svg" width="24" height="24" fill="currentColor" viewBox="0 0 24 24">
  <path d="M12 22c5.523 0 10-4.477 10-10S17.523 2 12 2 2 6.477 2 12s4.477 10 10 10Z" opacity=".3"/>
  <path d="M14.93 13a.75.75 0 0 1-.75-.75V9.38a1.74 1.74 0 0 0-1.73-1.73h-.9a1.74 1.74 0 0 0-1.73 1.73v2.88a.75.75 0 1 1-1.5 0V9.38a3.23 3.23 0 0 1 3.23-3.23h.9a3.23 3.23 0 0 1 3.23 3.23v2.88a.76.76 0 0 1-.75.74Z"/>
  <path d="M15.22 10.45H8.78a2.07 2.07 0 0 0-2.07 2.07V15a2.07 2.07 0 0 0 2.07 2.1h6.44a2.07 2.07 0 0 0 2.07-2.1v-2.48a2.07 2.07 0 0 0-2.07-2.07ZM12 14.84a1.07 1.07 0 1 1 1.06-1.06A1.06 1.06 0 0 1 12 14.84Z"/>
</svg>
