<svg xmlns="http://www.w3.org/2000/svg" width="24" height="24" fill="currentColor" viewBox="0 0 24 24">
  <path d="M19.53 12.54H4.46a1.11 1.11 0 0 0-1.11 1.11v6.84c0 .613.497 1.11 1.11 1.11h15.07a1.11 1.11 0 0 0 1.11-1.11v-6.84a1.11 1.11 0 0 0-1.11-1.11Z" opacity=".3"/>
  <path d="M6.34 20a.75.75 0 0 1-.75-.75v-4.63a.75.75 0 0 1 1.5 0v4.66a.74.74 0 0 1-.75.72Zm3.77 0a.75.75 0 0 1-.75-.75v-4.63a.75.75 0 0 1 1.5 0v4.66a.74.74 0 0 1-.75.72Zm3.78 0a.741.741 0 0 1-.75-.75v-4.63a.75.75 0 0 1 1.5 0v4.66a.75.75 0 0 1-.75.72Zm3.77 0a.741.741 0 0 1-.75-.75v-4.63a.75.75 0 0 1 1.5 0v4.66a.75.75 0 0 1-.75.72ZM7.3 12.54 12 8.06l4.7 4.48h2.17l-6.32-6a.75.75 0 0 0-1 0l-6.32 6H7.3Z"/>
  <path d="M12 8a2.38 2.38 0 0 1-2.37-2.4.75.75 0 1 1 1.5 0 .87.87 0 1 0 .87-.86.76.76 0 0 1-.75-.74V2.4a.75.75 0 1 1 1.5 0v1A2.37 2.37 0 0 1 12 8Z"/>
</svg>
