<svg xmlns="http://www.w3.org/2000/svg" width="24" height="24" fill="none" viewBox="0 0 24 24">
  <path fill="#000" d="M8.64 13.43H3.93A1.93 1.93 0 0 0 2 15.36v4.71A1.93 1.93 0 0 0 3.93 22h4.71a1.93 1.93 0 0 0 1.93-1.93v-4.71a1.93 1.93 0 0 0-1.93-1.93Z" opacity=".3"/>
  <path fill="#000" d="M4.86 13.43h2.85v1.9a1 1 0 0 1-1 1h-1a1 1 0 0 1-1-1v-1.9h.15Z"/>
  <path fill="#000" d="M20.07 13.43h-4.71a1.93 1.93 0 0 0-1.93 1.93v4.71A1.93 1.93 0 0 0 15.36 22h4.71A1.93 1.93 0 0 0 22 20.07v-4.71a1.93 1.93 0 0 0-1.93-1.93Z" opacity=".3"/>
  <path fill="#000" d="M16.29 13.43h2.86v1.9a1 1 0 0 1-1 1h-1a1 1 0 0 1-1-1v-1.9h.14Z"/>
  <path fill="#000" d="M4 2h4.64a1.93 1.93 0 0 1 1.93 1.93v4.71a1.93 1.93 0 0 1-1.93 1.93H3.93A1.93 1.93 0 0 1 2 8.64V4a2 2 0 0 1 2-2Z" opacity=".3"/>
  <path fill="#000" d="M4.86 2h2.85v1.9a1 1 0 0 1-1 1h-1a1 1 0 0 1-1-1V2h.15Z"/>
  <path fill="#000" d="M20.07 2h-4.71a1.93 1.93 0 0 0-1.93 1.93v4.71a1.93 1.93 0 0 0 1.93 1.93h4.71A1.93 1.93 0 0 0 22 8.64V3.93A1.93 1.93 0 0 0 20.07 2Z" opacity=".3"/>
  <path fill="#000" d="M16.29 2h2.86v1.9a1.001 1.001 0 0 1-1 1h-1a1 1 0 0 1-1-1V2h.14Z"/>
</svg>
