<svg xmlns="http://www.w3.org/2000/svg" width="24" height="24" fill="currentColor" viewBox="0 0 24 24">
  <path d="M10.29 13.6a4.2 4.2 0 0 1 3.16-4.07 4.6 4.6 0 0 1 3.45.47 4.54 4.54 0 0 1 3.75-.38c.227.08.447.177.66.29a9.66 9.66 0 0 0 .08-1.1 5.37 5.37 0 0 0-3.57-5 5.82 5.82 0 0 0-5.42.87 5.79 5.79 0 0 0-5-1 5.34 5.34 0 0 0-4 5.16c-.1 6.36 7 9.74 8.65 10.45a.94.94 0 0 0 .68 0c.163-.05.324-.11.48-.18a7.069 7.069 0 0 1-2.92-5.51Z" opacity=".3"/>
  <path d="m16.9 11.85-.46-.35a2.94 2.94 0 0 0-1.81-.62 3.739 3.739 0 0 0-.81.1 2.73 2.73 0 0 0-2 2.65c-.07 3.69 4.29 5.73 5.17 6.1.75-.29 5-1.95 5-6.17a2.78 2.78 0 0 0-1.81-2.51 3 3 0 0 0-2.84.45l-.44.35Z"/>
</svg>
