<svg xmlns="http://www.w3.org/2000/svg" width="24" height="24" fill="currentColor" viewBox="0 0 24 24">
  <path d="M16 14.57h-2.8a.439.439 0 0 1-.42-.55l.41-1.48 2.5-.51a.74.74 0 0 0 .59-.88.76.76 0 0 0-.88-.59l-1.76.36.89-3.22a.87.87 0 0 0-.84-1.09h-1.32a.86.86 0 0 0-.83.63l-1.24 4.35-2.51.5a.75.75 0 0 0 .15 1.49h.15l1.75-.35L9 16.29a.86.86 0 0 0 .83 1.1h5.82a.86.86 0 0 0 .82-.61l.33-1.09a.86.86 0 0 0-.8-1.12Z"/>
  <path d="M12 22c5.523 0 10-4.477 10-10S17.523 2 12 2 2 6.477 2 12s4.477 10 10 10Z" opacity=".3"/>
</svg>
