<svg xmlns="http://www.w3.org/2000/svg" width="24" height="24" fill="currentColor" viewBox="0 0 24 24">
  <path d="M16.05 2h-8.1A5.95 5.95 0 0 0 2 7.95v8.1A5.95 5.95 0 0 0 7.95 22h8.1A5.95 5.95 0 0 0 22 16.05v-8.1A5.95 5.95 0 0 0 16.05 2Z" opacity=".3"/>
  <path d="M21.39 5.34 5.91 21.48l-.08.12c.537.215 1.103.35 1.68.4l6.72-7 5.24 5.33a.76.76 0 0 0 .5.22c.28-.251.537-.526.77-.82a.65.65 0 0 0-.2-.45l-5.27-5.36L21.91 7a5.912 5.912 0 0 0-.52-1.66Zm-12.7-.52a3.64 3.64 0 0 0-3.16 3.11 3.59 3.59 0 0 0 .89 2.88l1.83 2.06a1.15 1.15 0 0 0 1.71 0l1.84-2.06a3.58 3.58 0 0 0 .602-3.877A3.619 3.619 0 0 0 8.69 4.82Zm.42 4.94a1.35 1.35 0 1 1 0-2.7 1.35 1.35 0 0 1 0 2.7Z"/>
</svg>
