<svg xmlns="http://www.w3.org/2000/svg" width="24" height="24" fill="currentColor" viewBox="0 0 24 24">
  <path d="M16.81 2H7.19A5.19 5.19 0 0 0 2 7.19v9.62A5.19 5.19 0 0 0 7.19 22h9.62A5.19 5.19 0 0 0 22 16.81V7.19A5.19 5.19 0 0 0 16.81 2Z" opacity=".3"/>
  <path d="M2.67 10.24a.74.74 0 0 1-.75-.75v-2a5.6 5.6 0 0 1 5.59-5.57h1.92a.75.75 0 0 1 0 1.5H7.51a4.09 4.09 0 0 0-4.09 4.09v2a.75.75 0 0 1-.75.73Zm6.9 11.84H7.51a5.6 5.6 0 0 1-5.59-5.59v-2a.75.75 0 1 1 1.5 0v2a4.09 4.09 0 0 0 4.09 4.09h2.06a.75.75 0 1 1 0 1.5Zm6.92 0h-1.92a.75.75 0 0 1 0-1.5h1.92a4.09 4.09 0 0 0 4.09-4.09v-2.14a.75.75 0 1 1 1.5 0v2.14a5.6 5.6 0 0 1-5.59 5.59Zm4.84-11.99a.75.75 0 0 1-.75-.75V7.51a4.09 4.09 0 0 0-4.09-4.09h-2.06a.75.75 0 0 1 0-1.5h2.06a5.6 5.6 0 0 1 5.59 5.59v1.83a.74.74 0 0 1-.75.75Z"/>
</svg>
