<svg xmlns="http://www.w3.org/2000/svg" width="24" height="24" fill="currentColor" viewBox="0 0 24 24">
  <path d="m13.66 12.25-1.11-.58a.62.62 0 0 0-.59 0l-1.1.58a.639.639 0 0 1-.93-.67l.21-1.23a.67.67 0 0 0-.14-.57l-.89-.87a.64.64 0 0 1 .35-1.09l1.24-.18a.63.63 0 0 0 .48-.35l.55-1.12a.64.64 0 0 1 1.15 0l.55 1.12a.641.641 0 0 0 .48.35l1.24.18a.64.64 0 0 1 .35 1.09l-.89.87a.64.64 0 0 0-.18.57l.21 1.23a.64.64 0 0 1-.98.67Z"/>
  <path d="M12.26 16.12a6.94 6.94 0 1 0 0-13.88 6.94 6.94 0 0 0 0 13.88Z" opacity=".3"/>
  <path d="m21.81 16.86-3.71-3.94a6.94 6.94 0 0 1-5.84 3.2h-.18L17 21.37a.999.999 0 0 0 1.69-.5l.31-1.39a1 1 0 0 1 .85-.8l1.41-.17a1 1 0 0 0 .55-1.65ZM6.24 12.64 2.19 17a1 1 0 0 0 .6 1.65l1.41.17a1 1 0 0 1 .85.8L5.3 21a1 1 0 0 0 1.7.45l5-5.34a7 7 0 0 1-5.76-3.47Z"/>
</svg>
