<svg xmlns="http://www.w3.org/2000/svg" width="24" height="24" fill="currentColor" viewBox="0 0 24 24">
  <path d="M19.36 7.23a2.64 2.64 0 1 0 0-5.28 2.64 2.64 0 0 0 0 5.28Z"/>
  <path d="M19.36 8.66a4.08 4.08 0 0 1-4.07-4.07 4 4 0 0 1 .5-1.92h-9a4.66 4.66 0 0 0-4.68 4.66v7.11a4.66 4.66 0 0 0 4.66 4.66h1.52a1.33 1.33 0 0 1 1.08.56l1.07 1.52a1.532 1.532 0 0 0 2.51 0L14 19.66a1.33 1.33 0 0 1 1.08-.56h1.52a4.66 4.66 0 0 0 4.66-4.66V8.16a4 4 0 0 1-1.9.5Z" opacity=".3"/>
  <path d="M7.86 12.25a.95.95 0 1 0 0-1.9.95.95 0 0 0 0 1.9Zm3.83 0a.95.95 0 1 0 0-1.9.95.95 0 0 0 0 1.9Z"/>
  <path d="M11.69 12.25a.95.95 0 1 0 0-1.9.95.95 0 0 0 0 1.9Zm3.84 0a.95.95 0 1 0 0-1.9.95.95 0 0 0 0 1.9Z"/>
</svg>
