<svg xmlns="http://www.w3.org/2000/svg" width="24" height="24" fill="currentColor" viewBox="0 0 24 24">
  <path d="M17.49 2.27h-11A4.51 4.51 0 0 0 2 6.78v6.82a4.51 4.51 0 0 0 4.51 4.51.49.49 0 0 1 .49.49v2.17a1 1 0 0 0 1.53.78L13 18.29a1 1 0 0 1 .57-.18h3.89A4.51 4.51 0 0 0 22 13.6V6.78a4.51 4.51 0 0 0-4.51-4.51Z" opacity=".3"/>
  <path d="M12 12.29a.75.75 0 0 1-.75-.75v-.28A2.49 2.49 0 0 1 12.4 9.1a.78.78 0 0 0 .4-.68.8.8 0 1 0-1.6 0 .75.75 0 0 1-1.5 0 2.3 2.3 0 1 1 3.46 2 .999.999 0 0 0-.41.86v.28a.75.75 0 0 1-.75.73Zm0 2.2a.75.75 0 1 0 0-1.5.75.75 0 0 0 0 1.5Z"/>
</svg>
