<svg xmlns="http://www.w3.org/2000/svg" width="24" height="24" fill="none" viewBox="0 0 24 24">
  <path fill="#000" d="M17.38 2H6.62A4.62 4.62 0 0 0 2 6.61v7.76A4.62 4.62 0 0 0 6.62 19h1.73a1.23 1.23 0 0 1 .94.45L11 21.56a1.221 1.221 0 0 0 1.9 0l1.6-2.06a1.23 1.23 0 0 1 1-.48h1.88A4.622 4.622 0 0 0 22 14.37V6.61A4.62 4.62 0 0 0 17.38 2Z" opacity=".3"/>
  <path fill="#000" d="M8 13.45a.702.702 0 0 1-.52-.22l-2-2a.77.77 0 0 1-.16-.833.76.76 0 0 1 .17-.247l2-1.92a.75.75 0 1 1 1 1.08l-1.41 1.42 1.46 1.43A.75.75 0 0 1 8 13.45Zm8 0a.75.75 0 0 1-.53-1.29l1.46-1.43-1.46-1.39a.75.75 0 1 1 1-1.08l2 1.92a.759.759 0 0 1 .01 1.08l-2 2a.7.7 0 0 1-.48.19Zm-4.89.24a.72.72 0 0 1-.29-.06.752.752 0 0 1-.4-1l1.87-4.49a.75.75 0 1 1 1.38.58l-1.87 4.51a.76.76 0 0 1-.69.46Z"/>
</svg>
