<svg xmlns="http://www.w3.org/2000/svg" width="24" height="24" fill="currentColor" viewBox="0 0 24 24">
  <path d="M18.05 2H9.81a3.9 3.9 0 0 0-3.9 3.9V6h8.28a3.9 3.9 0 0 1 3.9 3.9v5.84A3.89 3.89 0 0 0 22 11.83V5.88A3.909 3.909 0 0 0 18.05 2Z"/>
  <path d="M14.19 6H6a3.91 3.91 0 0 0-3.9 3.9v5.95A3.91 3.91 0 0 0 6 19.73h1.22a1.07 1.07 0 0 1 .9.47L9 21.47a1.28 1.28 0 0 0 2.1 0l.9-1.27a1.07 1.07 0 0 1 .9-.47h1.27a3.9 3.9 0 0 0 3.9-3.9V9.88A3.9 3.9 0 0 0 14.19 6Z" opacity=".3"/>
  <path d="M6.58 13.92a.94.94 0 1 0 0-1.88.94.94 0 0 0 0 1.88Zm3.5 0a.94.94 0 1 0 0-1.88.94.94 0 0 0 0 1.88Zm3.49 0a.94.94 0 1 0 0-1.88.94.94 0 0 0 0 1.88Z"/>
</svg>
