<svg xmlns="http://www.w3.org/2000/svg" width="24" height="24" fill="none" viewBox="0 0 24 24">
  <path fill="#000" d="M14.93 5.18V3.5H9v1.7A3.94 3.94 0 0 1 7.86 8l-1 1A2.9 2.9 0 0 0 6 11v8.09A2.88 2.88 0 0 0 8.88 22h6.24A2.88 2.88 0 0 0 18 19.12v-8.07A2.851 2.851 0 0 0 17.13 9l-1-1a3.909 3.909 0 0 1-1.2-2.82Z" opacity=".3"/>
  <path fill="#000" d="M14.5 2h-5a1.5 1.5 0 1 0 0 3h5a1.5 1.5 0 0 0 0-3Zm-2.2 13.33C11 13.44 7.45 13.68 6 13.88v5.24A2.88 2.88 0 0 0 8.88 22h6.24A2.88 2.88 0 0 0 18 19.12v-2.64c-2 .25-4.69.25-5.7-1.15Z"/>
</svg>
