<svg xmlns="http://www.w3.org/2000/svg" width="24" height="24" fill="none" viewBox="0 0 24 24">
  <path fill="#000" d="M11.19 4.71a2.59 2.59 0 0 0 2.41 1.64h3a5.26 5.26 0 0 1 4.63 2.74 5.5 5.5 0 0 0-5.48-5.16h-4.88l.32.78Z" opacity=".3"/>
  <path fill="#000" d="M16.72 6.12h-3a2.59 2.59 0 0 1-2.41-1.64L11 3.64A2.61 2.61 0 0 0 8.59 2h-2A4.58 4.58 0 0 0 2 6.59v10.13A5.27 5.27 0 0 0 7.28 22h9.44A5.27 5.27 0 0 0 22 16.72V11.4a5.27 5.27 0 0 0-5.28-5.28Zm-2.44 8-4.56-.05a.71.71 0 0 1 0-1.42l4.56.05a.71.71 0 0 1 0 1.42Z"/>
</svg>
