<svg xmlns="http://www.w3.org/2000/svg" width="24" height="24" fill="none" viewBox="0 0 24 24">
  <path fill="#000" d="m17 8.54-4.73-2.72-4.22-2.44a2.13 2.13 0 0 0-2.14 0L3 5.14a2.09 2.09 0 0 0-1 1.79v9.71a2.09 2.09 0 0 0 1 1.81l2.84 1.65a2.11 2.11 0 0 0 2.13 0l4.3-2.48L17 14.91V8.54Z" opacity=".3"/>
  <path fill="#000" d="m16 3.38-4 2.29 5 2.87v6.37L7 8.54v6.37l4.72 2.73 4.31 2.48a2.09 2.09 0 0 0 2.12 0L21 18.45a2.09 2.09 0 0 0 1-1.81V6.93a2.09 2.09 0 0 0-1-1.79L18.12 3.4A2.13 2.13 0 0 0 16 3.38Z"/>
</svg>
