<svg xmlns="http://www.w3.org/2000/svg" width="24" height="24" fill="currentColor" viewBox="0 0 24 24">
  <path d="M12.001 4.7a.75.75 0 0 1-.75-.7V2.77a.75.75 0 1 1 1.5 0V4a.75.75 0 0 1-.75.7Zm-.441 7.37A5 5 0 0 0 15 16.82a5.679 5.679 0 0 0 .15-9.55 5 5 0 0 0-3.59 4.8Zm-.087 9.707c.14.14.33.22.528.223a.76.76 0 0 0 .75-.77v-1.18a.75.75 0 0 0-1.5 0v1.2a.76.76 0 0 0 .223.527ZM6.311 7.06a.74.74 0 0 1-.53-.22L4.94 6A.76.76 0 1 1 6 4.94l.83.84a.75.75 0 0 1-.52 1.28Zm11.679 12a.79.79 0 0 0 .53.22.79.79 0 0 0 .54-.22.77.77 0 0 0 0-1.07l-.84-.83a.75.75 0 1 0-1.06 1.06l.83.84ZM4 12.75H2.77a.75.75 0 1 1 0-1.5H4a.75.75 0 1 1 0 1.5Zm16.05 0h1.18a.75.75 0 1 0 0-1.5h-1.18a.75.75 0 1 0 0 1.5ZM5.48 19.28a.79.79 0 0 1-.54-.22.77.77 0 0 1 0-1.07l.84-.83a.75.75 0 1 1 1.06 1.06l-.84.84a.79.79 0 0 1-.52.22ZM17.404 7.003a.74.74 0 0 0 .817-.173l.84-.83A.76.76 0 1 0 18 4.94l-.84.84a.75.75 0 0 0 .243 1.223Z"/>
  <path d="M10.19 12.07a6.36 6.36 0 0 1 3.27-5.56 5.42 5.42 0 0 0-1.46-.2 5.69 5.69 0 1 0 0 11.38 5.59 5.59 0 0 0 1.3-.16 6.36 6.36 0 0 1-3.11-5.46Z" opacity=".3"/>
</svg>
