<svg xmlns="http://www.w3.org/2000/svg" width="24" height="24" fill="none" viewBox="0 0 24 24">
  <path fill="#000" d="m8.59 5.72-1.495 6.532a4.82 4.82 0 0 0 3.623 5.774l3.928.899A4.82 4.82 0 0 0 20.42 15.3l1.495-6.53a4.82 4.82 0 0 0-3.623-5.775l-3.929-.899A4.82 4.82 0 0 0 8.59 5.721Z" opacity=".3"/>
  <path fill="#000" d="M14.64 18.92 10.72 18a4.83 4.83 0 0 1-3.63-5.78l1.5-6.53A4.43 4.43 0 0 1 9 4.7l-3.54 1a4.77 4.77 0 0 0-3.26 5.91l1.73 6a4.78 4.78 0 0 0 5.87 3.31l4.13-1.19a4.91 4.91 0 0 0 1.43-.73 4.465 4.465 0 0 1-.72-.08Zm2.76-8.51a.65.65 0 0 1-.19 0l-4.7-1.2a.753.753 0 0 1 .37-1.46l4.71 1.21a.75.75 0 0 1-.19 1.47v-.02Z"/>
  <path fill="#000" d="M14.49 13.82h-.19l-2.78-.72a.753.753 0 1 1 .37-1.46l2.79.73a.75.75 0 0 1 .54.91.77.77 0 0 1-.73.54Z"/>
</svg>
