<svg xmlns="http://www.w3.org/2000/svg" width="24" height="24" fill="none" viewBox="0 0 24 24">
  <path fill="#000" d="M15.86 2.8H7.8a5.94 5.94 0 0 0-5.94 5.94v8.11a5.94 5.94 0 0 0 5.94 5.94h8.06a5.94 5.94 0 0 0 5.94-5.94V8.74a5.94 5.94 0 0 0-5.94-5.94Z" opacity=".3"/>
  <path fill="#000" d="m14.56 3.52 1-1.31A2.43 2.43 0 0 1 19 1.72l2.16 1.68a2.56 2.56 0 0 1 .48 3.53l-1 1.31a5 5 0 0 1-4.07-1 5.22 5.22 0 0 1-2.01-3.72Zm1 5.2a7.18 7.18 0 0 1-2.38-3.28L9.5 10.37a2.29 2.29 0 0 0-.5 1.38V15a1.85 1.85 0 0 0 2.36 1.83l3.08-.94a2.24 2.24 0 0 0 1.16-.83l3.65-4.93a6.88 6.88 0 0 1-3.73-1.41h.04Z"/>
</svg>
