<svg xmlns="http://www.w3.org/2000/svg" width="24" height="24" fill="currentColor" viewBox="0 0 24 24">
  <path d="m8.588 6.183-1.495 6.531a4.82 4.82 0 0 0 3.623 5.774l3.929.9a4.82 4.82 0 0 0 5.774-3.624l1.494-6.531a4.82 4.82 0 0 0-3.623-5.774l-3.928-.899a4.82 4.82 0 0 0-5.774 3.623Z" opacity=".3"/>
  <path d="m14.64 19.38-3.92-.89a4.83 4.83 0 0 1-3.63-5.78l1.5-6.53a4.43 4.43 0 0 1 .37-1l-3.54 1a4.77 4.77 0 0 0-3.26 5.91l1.73 6a4.78 4.78 0 0 0 5.91 3.29l4.13-1.19c.514-.156.998-.4 1.43-.72a3.55 3.55 0 0 1-.72-.09Z"/>
</svg>
