<svg xmlns="http://www.w3.org/2000/svg" width="24" height="24" fill="none" viewBox="0 0 24 24">
  <path fill="#000" d="M17.24 9.35a.76.76 0 0 0-.75-.76h-9a.76.76 0 0 0 0 1.52h9a.76.76 0 0 0 .75-.76Zm-5.49 4.75a.76.76 0 0 0-.75-.76H7.55a.76.76 0 0 0 0 1.52H11a.76.76 0 0 0 .75-.76Zm-3.4-8.67a.75.75 0 0 1-.75-.75V2.85a.75.75 0 0 1 1.5 0v1.83a.75.75 0 0 1-.75.75Zm7.3 0a.74.74 0 0 1-.75-.75V2.85a.75.75 0 1 1 1.5 0v1.83a.75.75 0 0 1-.75.75ZM14.78 22v-3.89a2.732 2.732 0 0 1 2.65-2.91h3.81L14.78 22Z"/>
  <path fill="#000" d="M13.28 22v-3.89a4.24 4.24 0 0 1 4.15-4.41h3.75V9.15a5.45 5.45 0 0 0-5.45-5.46H8.27a5.45 5.45 0 0 0-5.45 5.46v7.39A5.45 5.45 0 0 0 8.27 22h5.01Z" opacity=".3"/>
</svg>
