<svg xmlns="http://www.w3.org/2000/svg" width="24" height="24" fill="currentColor" viewBox="0 0 24 24">
  <path d="M12 11.39a.76.76 0 0 1-.75-.75V7.51a.75.75 0 1 1 1.5 0v3.13a.76.76 0 0 1-.75.75Z"/>
  <path d="M19.06 13.66a8 8 0 0 1-1.34-4.58V8.9A5.61 5.61 0 0 0 9.9 3.76a5.39 5.39 0 0 0-3.33 5.06v.07A8.1 8.1 0 0 1 5 13.74l-.68.92a2.09 2.09 0 0 0-.41 1.26A2.12 2.12 0 0 0 6 18h12a2.12 2.12 0 0 0 2.12-2.12v-.06a2.09 2.09 0 0 0-.35-1.17l-.71-.99Z" opacity=".3"/>
  <path d="M10.07 19a2 2 0 0 0 3.86 0h-3.86Z"/>
</svg>
