<svg xmlns="http://www.w3.org/2000/svg" width="24" height="24" fill="currentColor" viewBox="0 0 24 24">
  <path d="M19 8a3 3 0 1 0 0-6 3 3 0 0 0 0 6Z"/>
  <path d="M19 9.5A4.51 4.51 0 0 1 14.5 5a4.51 4.51 0 0 1 .5-2H7a5 5 0 0 0-5 5v9a5 5 0 0 0 5 5h9a5 5 0 0 0 5-5V9a4.51 4.51 0 0 1-2 .5Z" opacity=".3"/>
  <path d="M10.44 12.75a1.85 1.85 0 0 0-1.81.31A1.831 1.831 0 0 0 7 12.71a1.9 1.9 0 0 0-1.33 1.86 4.05 4.05 0 0 0 2.14 3.36 1.69 1.69 0 0 0 1.8 0 3.94 3.94 0 0 0 2.06-3.4 1.82 1.82 0 0 0-1.23-1.78Z"/>
</svg>
