<svg xmlns="http://www.w3.org/2000/svg" width="24" height="24" fill="currentColor" viewBox="0 0 24 24">
  <path d="M19.08 15a8.13 8.13 0 0 1-1.34-4.59v-.17a5.61 5.61 0 0 0-7.82-5.15 5.39 5.39 0 0 0-3.33 5.06v.07A8.1 8.1 0 0 1 5 15.07l-.66.93a2.13 2.13 0 0 0 .21 2.76c.398.397.938.62 1.5.62H18a2.119 2.119 0 0 0 2.12-2.12v-.06a2.14 2.14 0 0 0-.36-1.2l-.68-1Z" opacity=".3"/>
  <path d="M10.09 20.33a2 2 0 0 0 3.86 0h-3.86Zm2.67-15.64V2.76a.75.75 0 1 0-1.5 0v1.89a.244.244 0 0 0 0 .08 5.6 5.6 0 0 1 1.5-.04ZM3.39 11a.74.74 0 0 1-.74-.64A6.66 6.66 0 0 1 5.14 4 .763.763 0 0 1 6 5.26a5.18 5.18 0 0 0-1.87 4.89.74.74 0 0 1-.64.84l-.1.01Zm17.22 0h-.1a.738.738 0 0 1-.64-.84A5.21 5.21 0 0 0 18 5.26a.764.764 0 0 1-.2-1.06.763.763 0 0 1 1.06-.2 6.66 6.66 0 0 1 2.49 6.32.74.74 0 0 1-.74.68Z"/>
</svg>
