<svg xmlns="http://www.w3.org/2000/svg" width="24" height="24" fill="none" viewBox="0 0 24 24">
  <path fill="#000" d="M12 5.75a1.5 1.5 0 1 0 0-3 1.5 1.5 0 0 0 0 3Zm0 4.51a1.5 1.5 0 1 0 0-3 1.5 1.5 0 0 0 0 3ZM7.75 8a1.5 1.5 0 1 0 0-3 1.5 1.5 0 0 0 0 3Zm8.5.01a1.5 1.5 0 1 0 0-3 1.5 1.5 0 0 0 0 3Zm0 4.25a1.5 1.5 0 1 0 0-3 1.5 1.5 0 0 0 0 3Zm4.25-2.01a1.5 1.5 0 1 0 0-3 1.5 1.5 0 0 0 0 3Zm-8.5 4a1.5 1.5 0 1 0 0-3 1.5 1.5 0 0 0 0 3Zm-4.25-1.99a1.5 1.5 0 1 0 0-3 1.5 1.5 0 0 0 0 3ZM3.5 10.25a1.5 1.5 0 1 0 0-3 1.5 1.5 0 0 0 0 3Z"/>
  <path fill="#000" d="M3.5 13.75a1 1 0 1 0 0-2 1 1 0 0 0 0 2Zm4.25 2.01a1 1 0 1 0 0-2 1 1 0 0 0 0 2Z" opacity=".3"/>
  <path fill="#000" d="M7.75 15.76a1 1 0 1 0 0-2 1 1 0 0 0 0 2ZM12 17.75a1 1 0 1 0 0-2 1 1 0 0 0 0 2Z" opacity=".3"/>
  <path fill="#000" d="M12 17.75a1 1 0 1 0 0-2 1 1 0 0 0 0 2Zm4.25-1.99a1 1 0 1 0 0-2 1 1 0 0 0 0 2Z" opacity=".3"/>
  <path fill="#000" d="M16.25 15.76a1 1 0 1 0 0-2 1 1 0 0 0 0 2Zm4.25-2.01a1 1 0 1 0 0-2 1 1 0 0 0 0 2Z" opacity=".3"/>
  <path fill="#000" d="M20.5 13.75a1 1 0 1 0 0-2 1 1 0 0 0 0 2Zm-17 0a1 1 0 1 0 0-2 1 1 0 0 0 0 2Zm17 2.75a.75.75 0 1 0 0-1.5.75.75 0 0 0 0 1.5Zm-4.25 2.26a.75.75 0 1 0 0-1.5.75.75 0 0 0 0 1.5ZM12 21a.75.75 0 1 0 0-1.5.75.75 0 0 0 0 1.5Zm-4.25-2.25a.75.75 0 1 0 0-1.5.75.75 0 0 0 0 1.5ZM3.5 16.5a.75.75 0 1 0 0-1.5.75.75 0 0 0 0 1.5Z" opacity=".3"/>
</svg>
