<svg xmlns="http://www.w3.org/2000/svg" width="24" height="24" fill="none" viewBox="0 0 24 24">
  <path fill="#000" d="M20 15.66H4a2 2 0 0 1-2-2V9.18a2.52 2.52 0 0 1 2.52-2.52h15A2.52 2.52 0 0 1 22 9.18v4.48a2 2 0 0 1-2 2Z" opacity=".3"/>
  <path fill="#000" d="M20 15.66H4a2 2 0 0 1-1-.27v3.27a2 2 0 0 0 2 2h14a2 2 0 0 0 2-2v-3.27a2 2 0 0 1-1 .27Zm-6.25-1.22h-2.83a.75.75 0 1 1 0-1.5h2.83a.75.75 0 0 1 0 1.5Zm1.55-7.03a.75.75 0 0 1-.75-.75V6a1 1 0 0 0-1-1h-2.4a1 1 0 0 0-1 1v.63a.75.75 0 1 1-1.5 0V6a2.52 2.52 0 0 1 2.52-2.52h2.37A2.52 2.52 0 0 1 16.05 6v.63a.752.752 0 0 1-.75.78Z"/>
</svg>
