<svg xmlns="http://www.w3.org/2000/svg" width="24" height="24" fill="none" viewBox="0 0 24 24">
  <path fill="#000" d="M16.09 7.9H7.8a3.8 3.8 0 0 0-3.75 3.19L3 17.64a3.8 3.8 0 0 0 3.75 4.42h10.53A3.8 3.8 0 0 0 21 17.58L19.84 11a3.82 3.82 0 0 0-3.75-3.1Z" opacity=".3"/>
  <path fill="#000" d="M16.23 9.62a.75.75 0 0 1-.75-.75V5.33a1.82 1.82 0 0 0-1.81-1.82h-3.55a1.82 1.82 0 0 0-1.81 1.82v3.54a.75.75 0 1 1-1.5 0V5.33A3.32 3.32 0 0 1 10.12 2h3.55A3.32 3.32 0 0 1 17 5.33v3.54a.742.742 0 0 1-.77.75Zm4.85 8.81c.01-.285-.01-.57-.06-.85l-.11-.58H11a.72.72 0 0 0 0 1.43h10.08Z"/>
</svg>
