<svg xmlns="http://www.w3.org/2000/svg" width="24" height="24" fill="currentColor" viewBox="0 0 24 24">
  <path d="M12 22c5.523 0 10-4.477 10-10S17.523 2 12 2 2 6.477 2 12s4.477 10 10 10Z" opacity=".3"/>
  <path d="M16.38 7.86a.61.61 0 1 1 0 1.22.61.61 0 0 1 0-1.22Zm-4.62.61a.61.61 0 1 0 0-1.22.61.61 0 0 0 0 1.22ZM7.47 9.51a.61.61 0 0 1 .62.61.62.62 0 0 1-1.23 0 .61.61 0 0 1 .61-.61ZM4.83 14a.61.61 0 1 0 0-1.22.61.61 0 0 0 0 1.22Zm7.06 2.48a.61.61 0 1 1 0-1.22.61.61 0 0 1 0 1.22Zm2.32-3.45a.61.61 0 1 0 0-1.22.61.61 0 0 0 0 1.22Z"/>
  <path d="M16.9 11c-5.95-1.1-6.58 3.77-6.64 5.22a.41.41 0 0 1-.41.39h-3.7a.41.41 0 0 1-.4-.54c.54-1.61 2.38-6.3 6-7a6.6 6.6 0 0 1 5.52 1.22.41.41 0 0 1-.37.71Zm2.27 1.1a.61.61 0 1 0 0-1.22.61.61 0 0 0 0 1.22Z"/>
</svg>
