<svg xmlns="http://www.w3.org/2000/svg" width="24" height="24" fill="currentColor" viewBox="0 0 24 24">
  <path d="m20.33 8.813-5.537-5.537a3.08 3.08 0 0 0-4.355 0L2.9 10.814a3.08 3.08 0 0 0 0 4.356l5.536 5.536a3.08 3.08 0 0 0 4.356 0l7.538-7.537a3.08 3.08 0 0 0 0-4.356Z" opacity=".3"/>
  <path d="m3.82 12 7.83-7.83a1.41 1.41 0 0 1 2 0L19 9.56a1.43 1.43 0 0 1 .39 1.44.75.75 0 0 1-.85.52A36.331 36.331 0 0 0 3.82 12ZM22 19.51a2.24 2.24 0 1 1-4.48 0 5.94 5.94 0 0 1 1.42-3.23 1 1 0 0 1 1.65 0A5.74 5.74 0 0 1 22 19.51Z"/>
</svg>
