<svg xmlns="http://www.w3.org/2000/svg" width="24" height="24" fill="currentColor" viewBox="0 0 24 24">
  <g clip-path="url(#a)">
    <path d="M20.706 9.767 5.976 2.845A2.32 2.32 0 0 0 2.789 5.58l1.357 4.667a3.24 3.24 0 0 0 3.281 2.376l14.665-.523a2.33 2.33 0 0 0-1.385-2.334Z"/>
    <path d="m6.065 21.114 14.63-6.937a2.42 2.42 0 0 0 1.4-2.079l-14.87.545a3.41 3.41 0 0 0-3.083 2.305l-1.167 3.415a2.24 2.24 0 0 0 3.09 2.751Z" opacity=".3"/>
  </g>
  <defs>
    <clipPath id="a">
      <path fill="#fff" d="M0-.001h24v24H0z"/>
    </clipPath>
  </defs>
</svg>
