<svg xmlns="http://www.w3.org/2000/svg" width="24" height="24" fill="none" viewBox="0 0 24 24">
  <path fill="#000" d="M10 21.89a4.842 4.842 0 0 1-2.25-.54 5.001 5.001 0 0 1-2.57-3.25 6 6 0 0 1 .52-4.29l3.62-7a.754.754 0 1 1 1.34.69L7 14.5a4.55 4.55 0 0 0-.4 3.22A3.5 3.5 0 0 0 8.4 20a4 4 0 0 0 5.3-2l3.89-7.47a.74.74 0 0 1 1.364.115.75.75 0 0 1-.044.565L15 18.66a5.84 5.84 0 0 1-5 3.23Z"/>
  <path fill="#000" d="M14.86 13a.76.76 0 0 1-.67-1.09l2.19-4.22a3.12 3.12 0 0 0 .28-2.23 2.42 2.42 0 0 0-1.2-1.57 2.39 2.39 0 0 0-2-.08 3.15 3.15 0 0 0-1.67 1.51L9.65 9.46a.751.751 0 1 1-1.33-.7l2.16-4.16A4.67 4.67 0 0 1 13 2.37a3.85 3.85 0 0 1 5.17 2.68 4.68 4.68 0 0 1-.4 3.31l-2.2 4.21a.74.74 0 0 1-.71.43Z"/>
  <path fill="#000" d="M11.32 17.24a2.58 2.58 0 0 1-1.21-.3A2.92 2.92 0 0 1 9 13l2.81-5.4a.75.75 0 0 1 1.33.69l-2.81 5.41a1.41 1.41 0 0 0 .45 1.93 1.17 1.17 0 0 0 1 0c.373-.15.68-.43.86-.79l1.89-3.63a.75.75 0 0 1 1.33.69L14 15.55a3.13 3.13 0 0 1-1.67 1.5 2.678 2.678 0 0 1-1.01.19Z"/>
</svg>
