<svg xmlns="http://www.w3.org/2000/svg" width="24" height="24" fill="none" viewBox="0 0 24 24">
  <path fill="#000" d="m5.6 9.81 4.74 2.73a2.09 2.09 0 0 1 1 1.81v5.47a2.09 2.09 0 0 1-3.13 1.8l-4.7-2.73a2.1 2.1 0 0 1-1-1.81v-5.47a2.09 2.09 0 0 1 3.09-1.8Zm15.93 1.8v5.47a2.1 2.1 0 0 1-1 1.81l-4.74 2.73a2.09 2.09 0 0 1-3.13-1.8v-5.47a2.09 2.09 0 0 1 1-1.81l4.74-2.73a2.09 2.09 0 0 1 3.13 1.8ZM6.22 8.73 11 11.46a2.09 2.09 0 0 0 2.08 0l4.71-2.76a2.08 2.08 0 0 0 0-3.6L13 2.37a2.06 2.06 0 0 0-2.08 0L6.21 5.13a2.08 2.08 0 0 0 .01 3.6Z" opacity=".3"/>
  <path fill="#000" d="M15.81 13.1a.75.75 0 0 0 .75.74.75.75 0 0 0 .74-.75v-2.64l-1.49.86v1.79Zm1.47-4.11L8.45 3.83l-1.5.87 8.84 5.15v.01L17.28 9v-.01Z"/>
</svg>
