<svg xmlns="http://www.w3.org/2000/svg" width="24" height="24" fill="currentColor" viewBox="0 0 24 24">
  <path d="M10.32 3.77h6.15v4.62a1.84 1.84 0 0 1-1.84 1.84h-2.47a1.84 1.84 0 0 1-1.84-1.84V3.77ZM7.75 11a4.48 4.48 0 0 0-4.48 4.48 4.33 4.33 0 0 0 .51 2l-1.5 1.26a.75.75 0 0 0 .48 1.32.72.72 0 0 0 .48-.06l1.43-1.2A4.47 4.47 0 1 0 7.75 11Zm2.92 4.48a2.93 2.93 0 1 1-.21-1.091c.144.36.215.744.21 1.131v-.04Z"/>
  <path d="M18.21 3.77H8.57a3.78 3.78 0 0 0-3.78 3.78v5.8a3.68 3.68 0 1 1 .44 4.84 3.76 3.76 0 0 0 3.34 2h9.64A3.78 3.78 0 0 0 22 16.45v-8.9a3.78 3.78 0 0 0-3.79-3.78Z" opacity=".3"/>
</svg>
