<svg xmlns="http://www.w3.org/2000/svg" width="24" height="24" fill="none" viewBox="0 0 24 24">
  <path fill="#000" d="M7.15 20H5.06a.9.9 0 0 1-.89-1L6.55 4.49A3 3 0 0 1 9.48 2h4.62A4.89 4.89 0 0 1 19 6.88V7a6.07 6.07 0 0 1-6.09 6h-3a.94.94 0 0 0-.91.8l-.89 5.4a1 1 0 0 1-.96.8Z"/>
  <path fill="#000" d="M11.18 22H8a.82.82 0 0 1-.8-1L9.42 8.9a2.71 2.71 0 0 1 2.73-2.1h4.29A4.34 4.34 0 0 1 21 10.92V11a5.4 5.4 0 0 1-5.64 5.12h-1.2a1.32 1.32 0 0 0-1.31 1.1l-.73 4a1 1 0 0 1-.94.78Z" opacity=".3"/>
</svg>
