<svg xmlns="http://www.w3.org/2000/svg" width="24" height="24" fill="currentColor" viewBox="0 0 24 24">
  <path d="M11.21 15.55a3.35 3.35 0 1 0 0-6.7 3.35 3.35 0 0 0 0 6.7Zm0 6.45c2.298 0 4.16-1.177 4.16-2.63 0-1.452-1.862-2.63-4.16-2.63-2.297 0-4.16 1.178-4.16 2.63 0 1.453 1.863 2.63 4.16 2.63Z"/>
  <path d="M16.51 7.64a2.82 2.82 0 1 0 0-5.64 2.82 2.82 0 0 0 0 5.64Zm-10.63 0a2.82 2.82 0 1 0 0-5.64 2.82 2.82 0 0 0 0 5.64Zm10.47 2.19c-.32 0-.63 0-.94.05a4.68 4.68 0 0 1-.41 5.27c.448.089.903.136 1.36.14 2.54 0 4.59-1.23 4.59-2.73s-2.06-2.73-4.6-2.73Z" opacity=".3"/>
</svg>
