<svg xmlns="http://www.w3.org/2000/svg" width="24" height="24" fill="none" viewBox="0 0 24 24">
  <path fill="#000" d="M9 15.75a.71.71 0 0 1-.53-.22.75.75 0 0 1 0-1.06l6-6a.75.75 0 0 1 1.06 1.06l-6 6a.74.74 0 0 1-.53.22ZM9 8a1 1 0 1 0 0 2 1 1 0 0 0 0-2Zm6 6a1 1 0 1 0 0 2 1 1 0 0 0 0-2Z"/>
  <path fill="#000" d="m16.02 1.973-8.14.044A5.96 5.96 0 0 0 1.954 8.01l.044 8.08a5.96 5.96 0 0 0 5.992 5.928l8.14-.044a5.96 5.96 0 0 0 5.928-5.992l-.044-8.08a5.96 5.96 0 0 0-5.992-5.928Z" opacity=".3"/>
</svg>
