<svg xmlns="http://www.w3.org/2000/svg" width="24" height="24" fill="currentColor" viewBox="0 0 24 24">
  <path d="m16.02 1.973-8.14.044A5.96 5.96 0 0 0 1.954 8.01l.044 8.08a5.96 5.96 0 0 0 5.992 5.928l8.14-.044a5.96 5.96 0 0 0 5.928-5.992l-.044-8.08a5.96 5.96 0 0 0-5.992-5.928Z" opacity=".3"/>
  <path d="M9.46 7.27h-2a.75.75 0 0 0-.73.73v8a.75.75 0 1 0 1.5 0v-3.29h1.23a2.72 2.72 0 0 0 0-5.44Zm0 3.94H8.23V8.77h1.23a1.22 1.22 0 1 1 0 2.44Zm7.84 3.53a2 2 0 0 1-2 2h-1.22a.75.75 0 1 1 0-1.5h1.23a.5.5 0 1 0 0-1 2 2 0 1 1 0-4h1.24a.75.75 0 1 1 0 1.5h-1.24a.5.5 0 0 0 0 1 2 2 0 0 1 1.99 2Z"/>
</svg>
