<svg xmlns="http://www.w3.org/2000/svg" width="24" height="24" fill="currentColor" viewBox="0 0 24 24">
  <path d="M7.95 2h8.1A5.95 5.95 0 0 1 22 7.95v8.1c0 .143-.005.285-.015.425a3.5 3.5 0 0 0-4.493 5.349A5.962 5.962 0 0 1 16.05 22h-8.1A5.95 5.95 0 0 1 2 16.05v-8.1A5.95 5.95 0 0 1 7.95 2Z" opacity=".3"/>
  <path d="M7.79 10.15a2 2 0 1 1 0-4 2 2 0 0 1 0 4ZM22 15.39l-2.29-2.31a3.12 3.12 0 0 0-4.56.11l-2 2.17a2.25 2.25 0 0 1-3.2.16 3.13 3.13 0 0 0-4.07-.12l-3.5 2.82A5.89 5.89 0 0 0 7.89 22h8.21c.47-.008.934-.07 1.383-.185a3.5 3.5 0 0 1 4.499-5.342A6.21 6.21 0 0 0 22 16v-.61Z"/>
  <path d="M21.307 17.338a.545.545 0 0 1 .382.958l-1.014 1.014 1.018 1.017a.548.548 0 0 1 0 .772.55.55 0 0 1-.772 0l-1.017-1.018-1.018 1.018a.548.548 0 0 1-.771 0 .55.55 0 0 1-.001-.772l1.018-1.017-1.026-1.026a.547.547 0 0 1 .772-.771l.008.007 1.018 1.018 1.013-1.014a.55.55 0 0 1 .39-.186Z"/>
</svg>
