<svg xmlns="http://www.w3.org/2000/svg" width="24" height="24" fill="none" viewBox="0 0 24 24">
  <path fill="#000" d="m4.69 21.5-1.19.4a1.1 1.1 0 0 1-1.4-1.4l.4-1.19a4.58 4.58 0 0 1 1.13-1.83l3.56-3.56 2.89 2.89-3.56 3.56a4.58 4.58 0 0 1-1.83 1.13Z" opacity=".3"/>
  <path fill="#000" d="m21.66 8.13-5.79-5.79a1 1 0 0 0-1.45 0l-.72.72a1 1 0 0 0 0 1.45l.72.72-3.16 3.16a6.16 6.16 0 0 0-6.08.45 1.83 1.83 0 0 0-.28 2.8l7.46 7.46a1.83 1.83 0 0 0 2.8-.28 6.16 6.16 0 0 0 .45-6.08l3.16-3.16.72.72a1 1 0 0 0 1.45 0l.72-.72a1 1 0 0 0 0-1.45Z"/>
</svg>
