<svg xmlns="http://www.w3.org/2000/svg" width="24" height="24" fill="currentColor" viewBox="0 0 24 24">
  <path d="M12.71 2h-1.42A1.29 1.29 0 0 0 10 3.29v17.42c0 .712.578 1.29 1.29 1.29h1.42A1.29 1.29 0 0 0 14 20.71V3.29A1.29 1.29 0 0 0 12.71 2Z" opacity=".3"/>
  <path d="M19.34 10h-5.1A1.229 1.229 0 0 1 13 8.76V5.24A1.231 1.231 0 0 1 14.24 4h5.1a1.25 1.25 0 0 1 1 .55l1.17 1.76a1.24 1.24 0 0 1 0 1.38l-1.14 1.76a1.25 1.25 0 0 1-1.03.55ZM4.66 16h5.1A1.23 1.23 0 0 0 11 14.76v-3.52A1.232 1.232 0 0 0 9.76 10h-5.1a1.25 1.25 0 0 0-1 .55l-1.2 1.76a1.24 1.24 0 0 0 0 1.38l1.17 1.76a1.25 1.25 0 0 0 1.03.55Z"/>
</svg>
