<svg xmlns="http://www.w3.org/2000/svg" width="24" height="24" fill="none" viewBox="0 0 24 24">
  <path fill="#000" d="M18.2 7H5.8A2.8 2.8 0 0 0 3 9.8v5.4A2.8 2.8 0 0 0 5.8 18h12.4a2.8 2.8 0 0 0 2.8-2.8V9.8A2.8 2.8 0 0 0 18.2 7Z" opacity=".3"/>
  <path fill="#000" d="M10.25 2h3.51A3.25 3.25 0 0 1 17 5.25V7H7V5.25A3.25 3.25 0 0 1 10.25 2ZM8 15h8v3.92A3.08 3.08 0 0 1 12.92 22h-1.84A3.08 3.08 0 0 1 8 18.92V15Zm2-3.25H7a.75.75 0 1 1 0-1.5h3a.75.75 0 1 1 0 1.5Z"/>
  <path fill="#000" d="M17 15.75H7a.75.75 0 1 1 0-1.5h10a.75.75 0 1 1 0 1.5Z"/>
</svg>
