<svg xmlns="http://www.w3.org/2000/svg" width="24" height="24" fill="currentColor" viewBox="0 0 24 24">
  <path d="M12 4.57a5.87 5.87 0 0 0-8.28 0 5.86 5.86 0 0 0 0 8.29l7.57 7.58a1 1 0 0 0 1.42 0l7.57-7.58a5.86 5.86 0 0 0 0-8.29 5.87 5.87 0 0 0-8.28 0Z" opacity=".3"/>
  <path d="M14.11 16.26H14a.75.75 0 0 1-.65-.56l-1.47-5.55-1.34 4a.75.75 0 0 1-1.33.19L7.63 12l-1.3.7a.74.74 0 0 1-.36.09H3a.75.75 0 1 1 0-1.5h2.78l1.73-.93a.75.75 0 0 1 1 .24l1.16 1.68 1.62-4.98a.71.71 0 0 1 .71-.51.74.74 0 0 1 .7.56l1.59 6 .79-1.66a.74.74 0 0 1 .67-.43H21a.75.75 0 1 1 0 1.5h-4.75l-1.46 3.08a.76.76 0 0 1-.68.42Z"/>
</svg>
