<svg xmlns="http://www.w3.org/2000/svg" width="24" height="24" fill="none" viewBox="0 0 24 24">
  <path fill="#000" d="M16.05 2h-8.1A5.95 5.95 0 0 0 2 7.95v8.11a5.95 5.95 0 0 0 5.95 5.95h8.1A5.95 5.95 0 0 0 22 16.06V7.95A5.95 5.95 0 0 0 16.05 2Z" opacity=".3"/>
  <path fill="#000" d="M7 10.83a.78.78 0 0 1-.5-.19L5.16 9.43a.79.79 0 0 1 .453-1.37.75.75 0 0 1 .557.19l.69.61 1.22-2a.76.76 0 0 1 1.06-.25.81.81 0 0 1 .24 1.08l-1.7 2.74a.731.731 0 0 1-.54.36l-.14.04Zm11.72-1.57a.77.77 0 0 0-.72-.78h-6A.78.78 0 0 0 12 10h6a.77.77 0 0 0 .72-.74Zm-11.61 7a.75.75 0 0 0 .54-.26l1.7-2.75a.8.8 0 0 0-.24-1.08.76.76 0 0 0-1.06.25l-1.22 2-.69-.61a.75.75 0 0 0-1.08.08.8.8 0 0 0 .07 1.1l1.37 1.14a.78.78 0 0 0 .5.19l.11-.06Zm11.64-1.56A.77.77 0 0 0 18 14h-6a.78.78 0 1 0 0 1.56h6a.77.77 0 0 0 .75-.81v-.05Z"/>
</svg>
