<svg xmlns="http://www.w3.org/2000/svg" width="24" height="24" fill="currentColor" viewBox="0 0 24 24">
  <path fill-rule="evenodd" d="M17.785 5.09a5.762 5.762 0 0 0-2.334-2.286 7.85 7.85 0 0 0-6.919 0 5.797 5.797 0 0 0-2.308 2.285 6.873 6.873 0 0 0-.828 3.415v4.661a6.156 6.156 0 0 0 1.336 4.018 6.025 6.025 0 0 0 3.59 2.098c.09.036.135.09.135.161v2.232a.309.309 0 0 0 .191.297.343.343 0 0 0 .134.029h2.463a.374.374 0 0 0 .326-.326v-2.232a.143.143 0 0 1 .107-.16 6.05 6.05 0 0 0 3.256-1.715l.027-.031c.107-.112.21-.228.308-.353a6.223 6.223 0 0 0 1.336-4.018v-4.66a6.873 6.873 0 0 0-.82-3.416Z" clip-rule="evenodd" opacity=".3"/>
  <path fill-rule="evenodd" d="M14.453 5.876a3.228 3.228 0 0 0-1.128-.78 3.154 3.154 0 0 0-1.34-.233 3.125 3.125 0 0 0-1.325.237c-.42.175-.8.44-1.113.776a3.583 3.583 0 0 0-.725 1.206 3.65 3.65 0 0 0-.21 1.402v4.732a3.725 3.725 0 0 0 .935 2.656c.26.278.57.503.91.664a.213.213 0 0 0 .207-.015.222.222 0 0 0 .104-.184v-2.635a.45.45 0 0 1 .127-.313.423.423 0 0 1 .305-.129h1.6l.035.001.038.006a.44.44 0 0 1 .232.122.437.437 0 0 1 .127.313v2.633l.004.023a.236.236 0 0 0 .06.116.22.22 0 0 0 .144.066.213.213 0 0 0 .107-.022c.339-.162.646-.387.905-.664a3.68 3.68 0 0 0 .728-1.232c.16-.456.232-.94.209-1.424V8.484a3.654 3.654 0 0 0-.21-1.402 3.584 3.584 0 0 0-.726-1.206Zm-3.558 4.74c.08.082.19.13.305.13h1.6v-.014a.427.427 0 0 0 .3-.13.45.45 0 0 0 .127-.308V8.342a1.295 1.295 0 0 0-.384-.916 1.207 1.207 0 0 0-.91-.347 1.29 1.29 0 0 0-.833.434 1.348 1.348 0 0 0-.332.895v1.895c0 .117.046.23.127.312Z" clip-rule="evenodd"/>
</svg>
