<svg xmlns="http://www.w3.org/2000/svg" width="24" height="24" fill="currentColor" viewBox="0 0 24 24">
  <path d="m21.9 11.971-3.681-4.57a.95.95 0 0 0-1.524 0l-3.68 4.57c-.255.38 0 .89.378.89h.95a.443.443 0 0 1 .445.448c-.014 2.594-.266 5.8-4.823 8.438-.126.126 0 .253.127.253 8.374-1.298 9.626-6.648 9.762-8.724a.446.446 0 0 1 .444-.416h1.094c.507 0 .763-.507.507-.889Z"/>
  <path d="M10.607 11.14h-.949a.442.442 0 0 1-.446-.45c.014-2.594.267-5.798 4.824-8.437.126-.127 0-.253-.127-.253-8.373 1.295-9.626 6.647-9.763 8.724a.446.446 0 0 1-.443.414H2.608c-.509 0-.762.51-.509.89l3.682 4.57a.952.952 0 0 0 1.524 0l3.68-4.57c.257-.382 0-.888-.38-.888h.002Z" opacity=".3"/>
</svg>
