<svg xmlns="http://www.w3.org/2000/svg" width="24" height="24" fill="none" viewBox="0 0 24 24">
  <path fill="#000" d="M5.78 15.72a.77.77 0 0 1-.53-.21l-3-2.94a.75.75 0 0 1 0-1.08l3-2.94a.75.75 0 0 1 1 1.08L3.85 12l2.45 2.4a.76.76 0 0 1-.52 1.29v.03Zm12.45-.03a.751.751 0 0 1-.54-.22.77.77 0 0 1 0-1.07l2.47-2.4-2.46-2.4a.77.77 0 0 1 0-1.07.75.75 0 0 1 1.06 0l3 2.94a.75.75 0 0 1 0 1.08l-3 2.94a.73.73 0 0 1-.53.2Z"/>
  <path fill="#000" d="M2.77 12.81a.75.75 0 1 1 0-1.5L21 11.25a.75.75 0 1 1 0 1.5l-18.23.06Z" opacity=".3"/>
</svg>
