<svg xmlns="http://www.w3.org/2000/svg" width="24" height="24" fill="none" viewBox="0 0 24 24">
  <path fill="#000" d="M12 22c5.523 0 10-4.477 10-10S17.523 2 12 2 2 6.477 2 12s4.477 10 10 10Z" opacity=".3"/>
  <path fill="#000" fill-rule="evenodd" d="M7.726 6.542a.9.9 0 0 1 1.273 0l2.87 2.87 2.87-2.87a.9.9 0 0 1 1.272 1.273l-1.97 1.97h1.904a.9.9 0 0 1 0 1.8H12.9v1.706h2.607a.9.9 0 0 1 0 1.8H12.9v1.73a.9.9 0 0 1-1.8 0v-1.73H8.494a.9.9 0 1 1 0-1.8H11.1v-1.706H8.055a.9.9 0 1 1 0-1.8h1.64l-1.97-1.97a.9.9 0 0 1 0-1.273Z" clip-rule="evenodd"/>
</svg>
