<svg xmlns="http://www.w3.org/2000/svg" width="24" height="24" fill="currentColor" viewBox="0 0 24 24">
  <path d="M7 18.48a3.63 3.63 0 0 0-3.46 2.44.81.81 0 0 0 .78 1.08h5.39a.81.81 0 0 0 .76-1.08A3.63 3.63 0 0 0 7 18.48Zm.9-2.83c3.41 3.4 8.17 4.23 11 2a.59.59 0 0 0 0-.87L6.71 4.66a.58.58 0 0 0-.86 0C3.65 7.5 4.49 12.25 7.9 15.65Z" opacity=".3"/>
  <path d="M13.24 11.17c.34-.31.68-.61 1-.88a.766.766 0 1 0-1-1.16c-.23.2-.63.54-1.12 1l1.12 1.04ZM7 18.48c.246.001.49.028.73.08a4.09 4.09 0 0 1 .86-2.26c-.24-.2-.48-.42-.71-.65-.23-.23-.26-.27-.38-.41a6.43 6.43 0 0 0-1.28 3.33c.257-.056.518-.086.78-.09Zm10.28-8.27a.75.75 0 0 1-.72-.78C16.62 7.16 14.26 7 14 7a.75.75 0 0 1-.72-.78.72.72 0 0 1 .78-.72 4.84 4.84 0 0 1 3.07 1.34A3.55 3.55 0 0 1 18 9.49a.74.74 0 0 1-.72.72Z"/>
  <path d="M20.79 10.21a.752.752 0 0 1-.79-.73c-.11-5.47-5.83-6-6.08-6a.75.75 0 0 1-.69-.81.77.77 0 0 1 .8-.69c2.54.19 7.36 2 7.47 7.45a.75.75 0 0 1-.73.76l.02.02Z"/>
</svg>
