<svg xmlns="http://www.w3.org/2000/svg" width="24" height="24" fill="none" viewBox="0 0 24 24">
  <path fill="#000" d="M4.62 20.47a2.62 2.62 0 1 1 0-5.24 2.62 2.62 0 0 1 0 5.24Zm0-3.74a1.12 1.12 0 1 0 0 2.241 1.12 1.12 0 0 0 0-2.241Zm14.76 3.74a2.62 2.62 0 1 1 0-5.24 2.62 2.62 0 0 1 0 5.24Zm0-3.74a1.12 1.12 0 1 0 0 2.24 1.12 1.12 0 0 0 0-2.24Z"/>
  <path fill="#000" d="M15.08 18.6h-10a.75.75 0 0 1 0-1.5h9.57l2.73-5.38a.74.74 0 0 1 1.366.104.76.76 0 0 1-.036.566l-2.94 5.79a.74.74 0 0 1-.69.42Z"/>
  <path fill="#000" d="M19.22 18.08a.76.76 0 0 1-.73-.59L15.71 5h-1.9a.75.75 0 1 1 0-1.5h2.51a.75.75 0 0 1 .73.58L20 17.16a.75.75 0 0 1-.56.9l-.22.02Zm-10.45.52h-.06a.75.75 0 0 1-.71-.8 3 3 0 0 0-2.7-3.31.76.76 0 0 1-.67-.83.75.75 0 0 1 .84-.66 4.42 4.42 0 0 1 4.05 4.92.75.75 0 0 1-.75.68Z"/>
</svg>
