<svg xmlns="http://www.w3.org/2000/svg" width="24" height="24" fill="none" viewBox="0 0 24 24">
  <path fill="#000" d="M11.64 13.31H3.22a.75.75 0 0 1 0-1.5h8.42a.75.75 0 0 1 0 1.5ZM12.09 7h2.18v-.71c.024-.3.152-.583.36-.8h-2.59a.75.75 0 0 0 0 1.5l.05.01Zm7.08 12.28a2.3 2.3 0 1 0 0-4.6 2.3 2.3 0 0 0 0 4.6Z"/>
  <path fill="#000" d="M19.17 13.68v-.88a1.25 1.25 0 0 0-.18-.65l-2.65-4.73h.94l.06-2.32a.38.38 0 0 0-.46-.39l-1.58.34a1.25 1.25 0 0 0-1 1.15l-.1 1.95v.41l.84 2.95a1.27 1.27 0 0 1-.07.88l-1 2.07a1.25 1.25 0 0 1-1.19.72l-1.6-.07a.32.32 0 0 1-.18-.41l.36-1.23a.329.329 0 0 0-.31-.41L4.57 13a1.27 1.27 0 0 0-1.1.65l-.78 1.42A1.26 1.26 0 0 0 3.79 17h12.08a3.302 3.302 0 0 1 3.3-3.32Z" opacity=".3"/>
  <path fill="#000" d="M3.63 17a2.31 2.31 0 0 0 4.61 0H3.63Zm5.8-6.24H4.5a.75.75 0 1 1 0-1.5h4.93a.75.75 0 0 1 0 1.5Zm0-2.57H4.5a.75.75 0 0 1 0-1.5h4.93a.75.75 0 0 1 0 1.5Z"/>
</svg>
