<svg xmlns="http://www.w3.org/2000/svg" width="25" height="24" fill="currentColor" viewBox="0 0 25 24">
  <path d="M18.29 2H6.45a4.08 4.08 0 0 0-4.08 4.08v7.51a4.08 4.08 0 0 0 4.08 4.08h11.84a4.08 4.08 0 0 0 4.08-4.08V6.08A4.08 4.08 0 0 0 18.29 2Z" opacity=".3"/>
  <path d="M13.54 17.67h-2.35v3.62h2.35v-3.62Z"/>
  <path d="M16.7 22H8.04a.75.75 0 1 1 0-1.5h8.66a.75.75 0 1 1 0 1.5ZM2.37 13.34v.22a4.09 4.09 0 0 0 4.06 4.11h11.88a4.09 4.09 0 0 0 4.06-4.11v-.22h-20Zm7.163-1.349a1.426 1.426 0 0 0 1.304-.983l1.65-4.587a.242.242 0 0 1 .233-.172.26.26 0 0 1 .25.155l.708 1.621a3.148 3.148 0 0 0 2.85 1.888h2.729a.614.614 0 0 0 .433-1.045.614.614 0 0 0-.433-.18h-2.72a1.953 1.953 0 0 1-1.727-1.163l-.735-1.63a1.458 1.458 0 0 0-2.217-.607 1.458 1.458 0 0 0-.511.702l-1.641 4.587a.242.242 0 0 1-.233.173.234.234 0 0 1-.25-.147l-.26-.534a3.132 3.132 0 0 0-2.815-1.785h-.665a.614.614 0 0 0-.433 1.045c.115.115.27.18.433.18h.665a1.928 1.928 0 0 1 1.727 1.094l.26.535a1.449 1.449 0 0 0 1.32.862l.078-.009Z"/>
</svg>
