<svg xmlns="http://www.w3.org/2000/svg" width="24" height="24" fill="currentColor" viewBox="0 0 24 24">
  <path d="m9.85 21.23-4.59-3.75A3.39 3.39 0 0 1 4 14.85V7.5a3.39 3.39 0 0 1 2-3.09l4.6-2.1a3.39 3.39 0 0 1 2.82 0L18 4.41a3.39 3.39 0 0 1 2 3.09v7.35a3.39 3.39 0 0 1-1.25 2.63l-4.59 3.75a3.38 3.38 0 0 1-4.31 0Z" opacity=".3"/>
  <path d="M14.52 9.18a2.52 2.52 0 1 1-5.04.02 2.52 2.52 0 0 1 5.04-.02ZM12 12.32c-2.07 0-3.74 1.12-3.74 2.5s1.67 2.51 3.74 2.51c2.07 0 3.74-1.12 3.74-2.51 0-1.39-1.67-2.5-3.74-2.5Z"/>
</svg>
