<svg xmlns="http://www.w3.org/2000/svg" width="24" height="24" fill="currentColor" viewBox="0 0 24 24">
  <path d="M16.86 2H7.13A5.13 5.13 0 0 0 2 7.13v9.73a5.13 5.13 0 0 0 5.13 5.13h9.73a5.13 5.13 0 0 0 5.13-5.13V7.13A5.13 5.13 0 0 0 16.86 2Z" opacity=".3"/>
  <path d="M8.42 10.15a.76.76 0 0 0 .75-.75V5.5a.75.75 0 0 0-1.5 0v3.9a.76.76 0 0 0 .75.75Zm0 1a2.72 2.72 0 0 0-.75 5.34v2a.74.74 0 0 0 .75.75.76.76 0 0 0 .75-.75v-2a2.72 2.72 0 0 0-.75-5.34Zm7.16 2.7a.76.76 0 0 0-.75.75v3.9a.75.75 0 1 0 1.5 0v-3.9a.76.76 0 0 0-.75-.75Zm.75-6.34v-2a.76.76 0 0 0-1.038-.696.74.74 0 0 0-.462.696v2a2.73 2.73 0 1 0 1.5 0Z"/>
</svg>
