<svg xmlns="http://www.w3.org/2000/svg" width="24" height="24" fill="none" viewBox="0 0 24 24">
  <path fill="#000" d="M12.05 22a9.12 9.12 0 0 1-3.82-.83.77.77 0 0 1-.37-1 .76.76 0 0 1 1-.37 7.7 7.7 0 0 0 6.22.07.76.76 0 0 1 .61 1.39 9.09 9.09 0 0 1-3.64.74Zm8.33-9.25a.76.76 0 0 1-.75-.68 7.66 7.66 0 0 0-3-5.3.76.76 0 0 1 .91-1.21 9.16 9.16 0 0 1 3.6 6.36.75.75 0 0 1-.67.83h-.09Zm-16.66 0h-.08a.75.75 0 0 1-.64-.84 9.15 9.15 0 0 1 3.7-6.44.76.76 0 1 1 .89 1.22 7.64 7.64 0 0 0-3.12 5.38.76.76 0 0 1-.75.68Z" opacity=".3"/>
  <path fill="#000" d="M11.98 7.82a2.91 2.91 0 1 0 0-5.82 2.91 2.91 0 0 0 0 5.82ZM5 19.77a2.91 2.91 0 1 0 0-5.82 2.91 2.91 0 0 0 0 5.82Zm14 0a2.91 2.91 0 1 0 0-5.82 2.91 2.91 0 0 0 0 5.82Z"/>
</svg>
