<svg xmlns="http://www.w3.org/2000/svg" width="24" height="24" fill="currentColor" viewBox="0 0 24 24">
  <path d="M3.32 21.59a.73.73 0 0 1-.53-.22.75.75 0 0 1 0-1.06L20.24 2.93A.754.754 0 0 1 21.3 4L3.85 21.37a.74.74 0 0 1-.53.22Z"/>
  <path d="m7.74 19.45 2.16 1.76a3.39 3.39 0 0 0 4.29 0l4.59-3.75A3.388 3.388 0 0 0 20 14.83V7.49a2.128 2.128 0 0 0 0-.25L7.74 19.45Zm-1.11-.91L19.52 5.71a3.38 3.38 0 0 0-1.47-1.3l-4.59-2.1a3.41 3.41 0 0 0-2.83 0l-4.58 2.1a3.39 3.39 0 0 0-2 3.08v7.34a3.39 3.39 0 0 0 1.25 2.63l1.33 1.08Z" opacity=".3"/>
</svg>
