<svg xmlns="http://www.w3.org/2000/svg" width="24" height="24" fill="none" viewBox="0 0 24 24">
  <path fill="#000" d="M16.54 22H7.46A4.46 4.46 0 0 1 3 17.54V6.46A4.46 4.46 0 0 1 7.46 2h5.71a4.45 4.45 0 0 1 3.32 1.48l3.37 3.75a4.49 4.49 0 0 1 1.14 3v7.33A4.46 4.46 0 0 1 16.54 22Z" opacity=".3"/>
  <path fill="#000" d="M11.5 13.5v-4H9.91A2.91 2.91 0 0 0 7 12.41v1.09h4.5Zm1 0H17v-1.09a2.91 2.91 0 0 0-2.91-2.91H12.5v4Zm0 1v4h1.59A2.91 2.91 0 0 0 17 15.59V14.5h-4.5Zm-1 0H7v1.09a2.91 2.91 0 0 0 2.91 2.91h1.59v-4Z"/>
</svg>
