<svg xmlns="http://www.w3.org/2000/svg" width="24" height="24" fill="none" viewBox="0 0 24 24">
  <path fill="#000" d="M12.53 22H5.36a3.53 3.53 0 0 1-3.52-3.52V9.74a3.52 3.52 0 0 1 3.52-3.52h4.51a3.51 3.51 0 0 1 2.62 1.16l2.66 3a3.5 3.5 0 0 1 .9 2.35v5.79A3.52 3.52 0 0 1 12.53 22Z" opacity=".3"/>
  <path fill="#000" d="m21.26 6.12-2.66-3A3.54 3.54 0 0 0 16 2h-4.53A3.52 3.52 0 0 0 8 5.51v.71h1.87a3.51 3.51 0 0 1 2.62 1.16l2.66 3a3.5 3.5 0 0 1 .9 2.35v5.08h2.59a3.52 3.52 0 0 0 3.52-3.52V8.47a3.52 3.52 0 0 0-.9-2.35Z"/>
</svg>
