<svg xmlns="http://www.w3.org/2000/svg" width="24" height="24" fill="currentColor" viewBox="0 0 24 24">
  <path d="M16.61 4.4a2.15 2.15 0 0 0-4.3 0v4.48a2.15 2.15 0 0 0 4.3 0V4.4Zm-4.93 10.76a2.15 2.15 0 0 0-4.3 0v4.48a2.15 2.15 0 0 0 4.3 0v-4.48ZM4.16 7.18a2.15 2.15 0 1 0 0 4.3h4.48a2.15 2.15 0 0 0 0-4.3H4.16Zm11.2 5.38a2.15 2.15 0 1 0 0 4.3h4.48a2.15 2.15 0 0 0 0-4.3h-4.48Z"/>
  <path d="M2.23 14.73a1.86 1.86 0 0 0 2 2 1.94 1.94 0 0 0 1.73-2v-1.38a.34.34 0 0 0-.33-.35H4.21a1.94 1.94 0 0 0-1.98 1.73ZM9.07 2a1.87 1.87 0 0 0-2 2A2 2 0 0 0 9 5.74h1.42a.34.34 0 0 0 .34-.34V4a1.94 1.94 0 0 0-1.69-2Zm5.85 20a1.87 1.87 0 0 0 2-2 2 2 0 0 0-2-1.72h-1.38a.34.34 0 0 0-.34.34V20a1.94 1.94 0 0 0 1.72 2Zm6.85-12.68a1.859 1.859 0 0 0-2-2 1.94 1.94 0 0 0-1.72 2v1.38a.34.34 0 0 0 .34.34h1.41a1.94 1.94 0 0 0 1.97-1.72Z" opacity=".3"/>
</svg>
