<svg xmlns="http://www.w3.org/2000/svg" width="24" height="24" fill="currentColor" viewBox="0 0 24 24">
  <path d="M17.28 14.92a4.16 4.16 0 0 1-1.9-1.7c-.43-.91-.39-1-.08-1.22.31-.22 1.15-.62 1.14-1-.01-.38-.32-.49-.75-.34-.43.15-.69.34-.69-.06V9.31a2.75 2.75 0 0 0-2.8-2.75h-.43A2.75 2.75 0 0 0 9 9.31v1.49c0 .09-.06.12-.36 0s-.83-.35-1-.08c-.17.27 0 .56.41.83.41.27.88.52.88.71a2.41 2.41 0 0 1-.53 1.31 4 4 0 0 1-1.43 1.21c-.75.37-.4.47-.11.59.37.1.728.238 1.07.41.14.13 0 .37.16.49s.53.12.72.14a2.94 2.94 0 0 1 1.68.55 2.75 2.75 0 0 0 3 .06 3.37 3.37 0 0 1 2.09-.62c.48 0 .43-.28.48-.42.05-.14.09-.35.71-.44.62-.09 1.03-.32.51-.62Z"/>
  <path d="M12 22c5.523 0 10-4.477 10-10S17.523 2 12 2 2 6.477 2 12s4.477 10 10 10Z" opacity=".3"/>
</svg>
