<svg xmlns="http://www.w3.org/2000/svg" width="24" height="24" fill="currentColor" viewBox="0 0 24 24">
  <path d="M12 22c5.5 0 9.96-4.46 9.96-9.96 0-5.5-4.46-9.96-9.96-9.96-5.5 0-9.96 4.46-9.96 9.96C2.04 17.54 6.5 22 12 22Z" opacity=".3"/>
  <path d="M9 16.75a4.72 4.72 0 1 1 2.54-8.68.5.5 0 0 1-.54.84 3.71 3.71 0 1 0-2 6.84 3.68 3.68 0 0 0 1.72-.43.503.503 0 1 1 .47.89 4.761 4.761 0 0 1-2.19.54Z"/>
  <path d="M9 13.68a1.64 1.64 0 1 0 0-3.28 1.64 1.64 0 0 0 0 3.28Zm4.1 1.19a.5.5 0 0 1-.5-.5V9.92a.5.5 0 0 1 1 0v4.45a.5.5 0 0 1-.5.5Z"/>
  <path d="M13.1 11.64a.51.51 0 0 1-.48-.364.489.489 0 0 1 .18-.526l1.57-1.23a.5.5 0 1 1 .61.79l-1.57 1.22a.45.45 0 0 1-.31.11Zm6.28 3.23H18a2.44 2.44 0 0 1-2.34-2.72A2.56 2.56 0 0 1 18 9.42a2.56 2.56 0 0 1 2.34 2.73.5.5 0 0 1-.5.5h-3.18A1.33 1.33 0 0 0 18 13.87h1.43a.5.5 0 0 1 .336.872.5.5 0 0 1-.386.128Zm-2.71-3.22h2.56A1.43 1.43 0 0 0 18 10.42a1.44 1.44 0 0 0-1.33 1.23Z"/>
</svg>
