<svg xmlns="http://www.w3.org/2000/svg" width="24" height="24" fill="currentColor" viewBox="0 0 24 24">
  <path d="M17.31 11.06a.72.72 0 0 1-.47-.17c-4.37-3.55-10-1.26-10.07-1.23a.753.753 0 0 1-.58-1.39c.26-.11 6.52-2.67 11.6 1.46a.75.75 0 0 1-.48 1.33Zm-.69 2.27a.76.76 0 0 0-.21-1 9 9 0 0 0-8.69-1 .75.75 0 0 0 .089 1.38.742.742 0 0 0 .571-.04 7.521 7.521 0 0 1 7.2.88.78.78 0 0 0 .41.12.74.74 0 0 0 .63-.34Zm-1.19 2.88a.74.74 0 0 0-.19-1 7.732 7.732 0 0 0-6.8-.86.75.75 0 0 0 .56 1.36 6.24 6.24 0 0 1 5.42.69.75.75 0 0 0 .42.14.758.758 0 0 0 .59-.33Z"/>
  <path d="M12 22c5.523 0 10-4.477 10-10S17.523 2 12 2 2 6.477 2 12s4.477 10 10 10Z" opacity=".3"/>
</svg>
