<svg xmlns="http://www.w3.org/2000/svg" width="24" height="24" fill="none" viewBox="0 0 24 24">
  <path fill="#000" d="M7.81 22h8.38A5.81 5.81 0 0 0 22 16.19V7.81A5.81 5.81 0 0 0 16.19 2H7.81A5.81 5.81 0 0 0 2 7.81v8.38A5.81 5.81 0 0 0 7.81 22Z" opacity=".3"/>
  <path fill="#000" d="M8.33 17a.74.74 0 0 1-.62-.34l-2.8-4.14a.76.76 0 0 1 0-.83L7.7 7.36a.75.75 0 0 1 1-.23.76.76 0 0 1 .23 1l-2.5 3.95L9 15.82a.75.75 0 0 1-.2 1 .83.83 0 0 1-.47.18Zm7.34 0a.83.83 0 0 1-.42-.13.75.75 0 0 1-.2-1l2.52-3.74L15 8.17a.76.76 0 0 1 .23-1 .75.75 0 0 1 1 .23l2.8 4.32a.76.76 0 0 1 0 .83l-2.8 4.14a.74.74 0 0 1-.56.31Z"/>
  <path fill="#000" d="M11 17c-.06.01-.12.01-.18 0a.74.74 0 0 1-.55-.9l2-8.47a.75.75 0 1 1 1.46.35l-2.05 8.47A.75.75 0 0 1 11 17Z" opacity=".3"/>
</svg>
