<svg xmlns="http://www.w3.org/2000/svg" width="24" height="24" fill="none" viewBox="0 0 24 24">
  <path fill="#000" d="M16.05 2h-8.1A5.95 5.95 0 0 0 2 7.95v8.1A5.95 5.95 0 0 0 7.95 22h8.1A5.95 5.95 0 0 0 22 16.05v-8.1A5.95 5.95 0 0 0 16.05 2Z" opacity=".3"/>
  <path fill="#000" d="M12.43 14H5.12a.75.75 0 1 1 0-1.5h7.31a.75.75 0 1 1 0 1.5Zm6.45 0h-3.21a.75.75 0 1 1 0-1.5h3.21a.75.75 0 1 1 0 1.5Zm0 3.51h-7.31a.75.75 0 1 1 0-1.5h7.31a.75.75 0 1 1 0 1.5Zm-10.55 0H5.12a.75.75 0 1 1 0-1.5h3.21a.75.75 0 1 1 0 1.5Z"/>
</svg>
