<svg xmlns="http://www.w3.org/2000/svg" width="24" height="24" fill="currentColor" viewBox="0 0 24 24">
  <path d="M11.488 4.498a.75.75 0 0 0 1.026 0A.75.75 0 0 0 12.751 4V2.77a.75.75 0 1 0-1.5 0V4a.75.75 0 0 0 .237.498Zm-.015 17.279c.14.14.33.22.528.223a.76.76 0 0 0 .75-.77v-1.18a.75.75 0 0 0-1.5 0v1.2a.76.76 0 0 0 .223.527ZM6.311 7.06a.74.74 0 0 1-.53-.22L4.94 6A.76.76 0 1 1 6 4.94l.83.84a.75.75 0 0 1-.52 1.28Zm11.679 12a.79.79 0 0 0 .53.22.79.79 0 0 0 .54-.22.77.77 0 0 0 0-1.07l-.84-.83a.75.75 0 1 0-1.06 1.06l.83.84ZM4 12.75H2.77a.75.75 0 1 1 0-1.5H4a.75.75 0 1 1 0 1.5Zm16.05 0h1.18a.75.75 0 1 0 0-1.5h-1.18a.75.75 0 1 0 0 1.5ZM5.48 19.28a.79.79 0 0 1-.54-.22.77.77 0 0 1 0-1.07l.84-.83a.75.75 0 1 1 1.06 1.06l-.84.84a.79.79 0 0 1-.52.22ZM17.404 7.003a.74.74 0 0 0 .817-.173l.84-.83A.76.76 0 1 0 18 4.94l-.84.84a.75.75 0 0 0 .243 1.223Z"/>
  <path d="M12 17.62a5.62 5.62 0 1 0 0-11.24 5.62 5.62 0 0 0 0 11.24Z" opacity=".3"/>
</svg>
