<svg xmlns="http://www.w3.org/2000/svg" width="24" height="24" fill="currentColor" viewBox="0 0 24 24">
  <path d="M18.08 2H5.92A2.92 2.92 0 0 0 3 4.87v11a2.92 2.92 0 0 0 2.92 2.92h1.14a2.191 2.191 0 0 1 1.63.71l1.7 1.84a2.23 2.23 0 0 0 3.23 0l1.81-1.9a2.21 2.21 0 0 1 1.6-.68h1A2.92 2.92 0 0 0 21 15.87v-11A2.92 2.92 0 0 0 18.08 2Z" opacity=".3"/>
  <path d="M7.56 14.32h2.77v.02a.75.75 0 1 0 0-1.5H7.94c.209-.2.49-.416.782-.643l.048-.037.016-.012c1.076-.837 2.294-1.784 2.294-3.138a2.398 2.398 0 0 0-3.32-2.217A2.4 2.4 0 0 0 6.28 9.01a.75.75 0 0 0 1.5 0 .9.9 0 0 1 .9-.9.91.91 0 0 1 .66.25.88.88 0 0 1 .24.64c0 .65-.96 1.4-1.73 2a8.263 8.263 0 0 0-1.29 1.09 1.34 1.34 0 0 0 1 2.23Z"/>
  <path fill-rule="evenodd" d="M15.655 14.263a.74.74 0 0 0 .285.057.75.75 0 0 0 .83-.74v-.67h.41a.75.75 0 1 0 0-1.5h-.4v-3.5a1.16 1.16 0 0 0-.82-1.13 1.18 1.18 0 0 0-1.32.46L12 11.07a1.15 1.15 0 0 0-.08 1.21 1.16 1.16 0 0 0 1 .63h2.28v.66a.74.74 0 0 0 .455.693ZM15.2 11.41h-1.66l1.66-2.45v2.45Z" clip-rule="evenodd"/>
</svg>
