<svg xmlns="http://www.w3.org/2000/svg" width="24" height="24" fill="currentColor" viewBox="0 0 24 24">
  <path d="M18.94 12 12 5.06a1 1 0 1 0-1.41 1.42l.69.69-5.58 5.59a1.44 1.44 0 0 0-.35 1.46l.76 2.26-3.82 3.81a.999.999 0 0 0 0 1.42 1 1 0 0 0 1.42 0l3.81-3.82 2.26.76a1.44 1.44 0 0 0 1.46-.35l5.59-5.59.69.69a1.001 1.001 0 0 0 1.42 0 1 1 0 0 0 0-1.4Z" opacity=".3"/>
  <path d="m19.6 7.17-2.74 2.74-2.77-2.77 2.74-2.74 2.77 2.77Z"/>
  <path d="M20.73 9.07a.75.75 0 0 1-.53-.23l-5-5.06a.75.75 0 0 1 1.06-1.06l5 5.07a.75.75 0 0 1 0 1.06.79.79 0 0 1-.53.22Z"/>
</svg>
