<svg xmlns="http://www.w3.org/2000/svg" width="24" height="24" fill="none" viewBox="0 0 24 24">
  <path fill="#000" d="M16.82 3.77V4a2 2 0 0 1-2 2H9.16a2 2 0 0 1-2-2v-.23a5.44 5.44 0 0 0-4.34 5.34v7.4A5.46 5.46 0 0 0 8.27 22h7.46a5.46 5.46 0 0 0 5.45-5.46V9.12a5.45 5.45 0 0 0-4.36-5.35Z" opacity=".3"/>
  <path fill="#000" d="M15.82 4.01V3a.97.97 0 0 0-.97-.97H9.16a.97.97 0 0 0-.97.97v1.01c0 .536.434.97.97.97h5.69a.97.97 0 0 0 .97-.97Zm-.38 7.45a.75.75 0 0 0-1.5 0v2.45l-4.18-3.24a.749.749 0 0 0-1.226.69.75.75 0 0 0 .316.5L13 15.07l-2.23.55a.75.75 0 0 0 .17 1.48h.18l3.75-.92a.437.437 0 0 1 .15-.05.79.79 0 0 0 .42-.68v-3.99Z"/>
</svg>
