<svg xmlns="http://www.w3.org/2000/svg" width="24" height="24" fill="currentColor" viewBox="0 0 24 24">
  <path d="M12.13 12.78H7.4a.78.78 0 0 1 0-1.56h4.73a.78.78 0 1 1 0 1.56Zm4.93 2.84a.78.78 0 0 0-.78-.78H7.4a.78.78 0 0 0 0 1.56h8.88a.78.78 0 0 0 .78-.78ZM15.08 2H9.39a.97.97 0 0 0-.97.97v1.01c0 .536.434.97.97.97h5.69a.97.97 0 0 0 .97-.97V2.97a.97.97 0 0 0-.97-.97Z"/>
  <path d="M17.09 3.81V4a2 2 0 0 1-2 2h-5.7a2 2 0 0 1-2-2v-.26a5.5 5.5 0 0 0-4.74 5.43v7.32A5.51 5.51 0 0 0 8.16 22h7.68a5.51 5.51 0 0 0 5.51-5.51V9.17a5.51 5.51 0 0 0-4.26-5.36Z" opacity=".3"/>
</svg>
