<svg xmlns="http://www.w3.org/2000/svg" width="24" height="24" fill="currentColor" viewBox="0 0 24 24">
  <path d="M17.09 3.81V4a2 2 0 0 1-2 2h-5.7a2 2 0 0 1-2-2v-.26a5.5 5.5 0 0 0-4.74 5.43v7.32A5.51 5.51 0 0 0 8.16 22h7.68a5.51 5.51 0 0 0 5.51-5.51V9.17a5.51 5.51 0 0 0-4.26-5.36Z" opacity=".3"/>
  <path d="M15.08 2H9.39a.97.97 0 0 0-.97.97v1.01c0 .536.434.97.97.97h5.69a.97.97 0 0 0 .97-.97V2.97a.97.97 0 0 0-.97-.97ZM8.56 15.22a.75.75 0 0 0 1.5 0v-2.45L14.24 16a.75.75 0 1 0 .91-1.18L11 11.6l2.23-.55a.75.75 0 0 0-.17-1.47.55.55 0 0 0-.18 0l-3.75.91-.13.08a.77.77 0 0 0-.42.67l-.02 3.98Z"/>
</svg>
