<svg xmlns="http://www.w3.org/2000/svg" width="24" height="24" fill="none" viewBox="0 0 24 24">
  <path fill="#000" d="M12.13 16.44h-4.7a.77.77 0 1 1 0-1.54h4.7a.77.77 0 1 1 0 1.54ZM17 12.08a.78.78 0 0 0-.78-.77H7.43a.78.78 0 0 0 0 1.55h8.81a.78.78 0 0 0 .76-.78Zm-1-7.95v-1a1 1 0 0 0-1-1H9.41a1 1 0 0 0-1 1v1a1 1 0 0 0 1 1h5.64a1 1 0 0 0 .95-1Z"/>
  <path fill="#000" d="M17 4v.16a2 2 0 0 1-2 2H9.41a2 2 0 0 1-2-2v-.27a5.46 5.46 0 0 0-4.69 5.39v7.25A5.47 5.47 0 0 0 8.19 22h7.62a5.47 5.47 0 0 0 5.47-5.47V9.28A5.46 5.46 0 0 0 17 4Z" opacity=".3"/>
</svg>
