<svg xmlns="http://www.w3.org/2000/svg" width="24" height="24" fill="none" viewBox="0 0 24 24">
  <path fill="#000" d="M11.53 15.86a.74.74 0 0 0 .6-.3l3.4-4.43a.796.796 0 0 0-1.24-1l-2.8 3.66-1.82-2.13a.78.78 0 0 0-1.19 1l2.45 2.93a.79.79 0 0 0 .6.27Z"/>
  <path fill="#000" d="M16.82 3.73V4a2 2 0 0 1-2 2H9.16a2 2 0 0 1-2-2v-.27a5.46 5.46 0 0 0-4.34 5.35v7.4a5.45 5.45 0 0 0 5.45 5.45h7.46a5.44 5.44 0 0 0 5.45-5.45v-7.4a5.46 5.46 0 0 0-4.36-5.35Z" opacity=".3"/>
  <path fill="#000" d="M15.82 3.98V2.97a.97.97 0 0 0-.97-.97H9.16a.97.97 0 0 0-.97.97v1.01c0 .536.434.97.97.97h5.69a.97.97 0 0 0 .97-.97Z"/>
</svg>
