<svg xmlns="http://www.w3.org/2000/svg" width="24" height="24" fill="currentColor" viewBox="0 0 24 24">
  <path d="m12.93 12.84 1.21-1.38a.71.71 0 0 0 0-1 .63.63 0 0 0-.93 0L12 11.88l-1.28-1.3a.63.63 0 0 0-.93 0 .74.74 0 0 0 0 1l1.29 1.31-1.22 1.38a.73.73 0 0 0 0 1 .63.63 0 0 0 .93 0L12 13.86l1.28 1.3a.62.62 0 0 0 .45.2.67.67 0 0 0 .48-.22.74.74 0 0 0 0-1l-1.28-1.3Z"/>
  <path d="M16.82 3.77V4a2 2 0 0 1-2 2H9.16a2 2 0 0 1-2-2v-.23a5.44 5.44 0 0 0-4.34 5.34v7.4A5.46 5.46 0 0 0 8.27 22h7.46a5.46 5.46 0 0 0 5.45-5.46V9.12a5.45 5.45 0 0 0-4.36-5.35Z" opacity=".3"/>
  <path d="M15.82 4.01V3a.97.97 0 0 0-.97-.97H9.16a.97.97 0 0 0-.97.97v1.01c0 .535.434.97.97.97h5.69a.97.97 0 0 0 .97-.97Z"/>
</svg>
