<svg xmlns="http://www.w3.org/2000/svg" width="24" height="24" fill="none" viewBox="0 0 24 24">
  <path fill="#000" d="M17.83 20.25H10a4.18 4.18 0 0 1-3.11-1.35L3.1 14.76A4.17 4.17 0 0 1 3 9.19l3.56-4a4.16 4.16 0 0 1 3.17-1.44h8.1A4.17 4.17 0 0 1 22 7.92v8.16a4.17 4.17 0 0 1-4.17 4.17Z" opacity=".3"/>
  <path fill="#000" d="M15.84 15a.76.76 0 0 1-.54-.23L10.66 10a.75.75 0 1 1 1.07-1l4.65 4.76a.75.75 0 0 1 0 1.06.7.7 0 0 1-.54.18Z"/>
  <path fill="#000" d="M11.2 15a.74.74 0 0 1-.53-.22.75.75 0 0 1 0-1.06L15.3 9a.75.75 0 0 1 1.06 1.06l-4.65 4.76a.74.74 0 0 1-.51.18Z"/>
</svg>
