<svg xmlns="http://www.w3.org/2000/svg" width="24" height="24" fill="currentColor" viewBox="0 0 24 24">
  <path d="M16.51 22H8.59a3.1 3.1 0 0 1-3.1-3.1v-8a7.06 7.06 0 0 1 7.06-7.06 7.06 7.06 0 0 1 7.05 7.06v8a3.09 3.09 0 0 1-3.09 3.1Zm-4-16.64a1.52 1.52 0 1 0 .04 0h-.04Z" opacity=".3"/>
  <path d="M12.55 7.18a.74.74 0 0 1-.75-.75V2a.75.75 0 1 1 1.5 0v4.43a.75.75 0 0 1-.75.75Zm.84 7.19c-.66-.33-1-.51-1-.86A.5.5 0 0 1 13 13a1.198 1.198 0 0 1 .92.45.44.44 0 0 0 .64 0l.44-.49a.45.45 0 0 0 0-.6 2.769 2.769 0 0 0-1.31-.81v-.65a.44.44 0 0 0-.44-.44h-.6a.44.44 0 0 0-.44.44v.67a2.06 2.06 0 0 0-1.47 2c0 1.29 1 1.79 1.75 2.18.75.39 1.07.57 1.07 1.06 0 .28-.08.59-.68.59a1.92 1.92 0 0 1-1.27-.55.44.44 0 0 0-.66.08l-.39.57a.46.46 0 0 0 .07.58 3.46 3.46 0 0 0 1.58.81v.64a.44.44 0 0 0 .44.44h.6a.44.44 0 0 0 .44-.44v-.67a2.1 2.1 0 0 0 1.57-2.11 2.58 2.58 0 0 0-1.87-2.38Z"/>
</svg>
