<svg xmlns="http://www.w3.org/2000/svg" width="24" height="24" fill="currentColor" viewBox="0 0 24 24">
  <path d="M16.15 5H7.84a2.92 2.92 0 0 0-2.92 2.87v8.31a2.92 2.92 0 0 0 2.92 2.92h8.31a2.92 2.92 0 0 0 2.92-2.92V7.87A2.92 2.92 0 0 0 16.15 5Zm-.64 9.16A1.49 1.49 0 0 1 14 15.6H9.79a1.49 1.49 0 0 1-1.49-1.49V9.88a1.49 1.49 0 0 1 1.49-1.49H14a1.49 1.49 0 0 1 1.49 1.49l.02 4.28Z"/>
  <path d="M10.71 2.77V7H9.16V2.78A.77.77 0 0 1 9.93 2a.78.78 0 0 1 .78.77Zm-3.39 7.94H2.77A.78.78 0 0 1 2 9.93a.77.77 0 0 1 .77-.77h4.55v1.55ZM14.83 7V2.77a.77.77 0 1 0-1.54 0V7h1.54Zm6.4 3.71h-4.29V9.16h4.29a.77.77 0 0 1 .77.77.78.78 0 0 1-.77.78Zm0 2.58h-4.29v1.54h4.29a.77.77 0 1 0 0-1.54Zm-18.46 0h4.55v1.54H2.77a.77.77 0 1 1 0-1.54Zm10.52 3.79v4.15a.77.77 0 0 0 1.54 0v-4.15h-1.54Zm-4.13 4.15v-4.15h1.55v4.15a.78.78 0 0 1-.78.77.77.77 0 0 1-.77-.77Z" opacity=".3"/>
</svg>
