<svg xmlns="http://www.w3.org/2000/svg" width="24" height="24" fill="currentColor" viewBox="0 0 24 24">
  <path d="m12.34 14 1.51-.76a.9.9 0 0 0 .5-.82V10.7a.93.93 0 0 0-.93-.92h-3a.93.93 0 0 0-.93.92v1.72a.91.91 0 0 0 .51.82l1.51.76a.93.93 0 0 0 .83 0Zm-3.337.287a7.61 7.61 0 0 1 2.067 2.523l.04 3.44a7.65 7.65 0 0 1-6.59-5.84 1.3 1.3 0 0 1 1.55-1.55 7.61 7.61 0 0 1 2.933 1.427Z"/>
  <path d="M16.19 6.27a4.27 4.27 0 1 1-8.54 0 4.27 4.27 0 0 1 8.54 0Zm-1.33 8.009a7.63 7.63 0 0 1 2.96-1.419 1.3 1.3 0 0 1 1.55 1.55 7.66 7.66 0 0 1-6.6 5.84v.9a.85.85 0 1 1-1.7 0v-8.5a.85.85 0 0 1 1.7 0v4.16a7.631 7.631 0 0 1 2.09-2.531Z" opacity=".3"/>
</svg>
