<svg xmlns="http://www.w3.org/2000/svg" width="24" height="24" fill="currentColor" viewBox="0 0 24 24">
  <path d="M13.23 4.4V2h-1.7a1.34 1.34 0 0 0-1.36 1.31v1.14a8.15 8.15 0 0 0-1.76.69l-.83-.8a1.41 1.41 0 0 0-1.93 0L4.43 5.51a1.29 1.29 0 0 0 0 1.86l.83.8a8.19 8.19 0 0 0-.72 1.69H3.37A1.34 1.34 0 0 0 2 11.17v1.66a1.34 1.34 0 0 0 1.37 1.31h1.17a8.2 8.2 0 0 0 .72 1.69l-.83.8a1.29 1.29 0 0 0 0 1.86l1.22 1.17a1.41 1.41 0 0 0 1.93 0l.83-.8a8.189 8.189 0 0 0 1.76.69v1.14A1.34 1.34 0 0 0 11.53 22h1.7v-2.33" opacity=".3"/>
  <path d="M22 4.32c0 .922-.774 1.67-1.73 1.67-.276 0-.537-.063-.77-.174L16.25 8.45a.73.73 0 0 1-.47.17h-3.23a3.32 3.32 0 0 0-3.39 3.24 3.32 3.32 0 0 0 3.39 3.23h3.54a.74.74 0 0 1 .48.18l2.737 2.322a1.77 1.77 0 0 1 .963-.282c.956 0 1.73.748 1.73 1.67 0 .922-.774 1.67-1.73 1.67-.955 0-1.73-.748-1.73-1.67 0-.025 0-.05.002-.073L15.81 16.59h-3.26a4.82 4.82 0 0 1-4.89-4.73 4.82 4.82 0 0 1 4.89-4.74h3l3.021-2.483a1.617 1.617 0 0 1-.031-.317c0-.922.775-1.67 1.73-1.67.956 0 1.73.748 1.73 1.67Z"/>
  <path d="M20.4 13.22c.884 0 1.6-.69 1.6-1.54 0-.85-.716-1.54-1.6-1.54a1.6 1.6 0 0 0-1.491.98h-4.281a1.61 1.61 0 0 0-1.398-.79c-.884 0-1.6.69-1.6 1.54 0 .85.716 1.54 1.6 1.54.6 0 1.124-.319 1.398-.79h4.312c.06 0 .119-.007.176-.021.291.377.758.62 1.284.62Z"/>
</svg>
