<svg xmlns="http://www.w3.org/2000/svg" width="24" height="24" fill="currentColor" viewBox="0 0 24 24">
  <path d="M16.15 5H7.84a2.92 2.92 0 0 0-2.92 2.87v8.31a2.92 2.92 0 0 0 2.92 2.92h8.31a2.92 2.92 0 0 0 2.92-2.92V7.87A2.92 2.92 0 0 0 16.15 5Zm-.64 9.16A1.49 1.49 0 0 1 14 15.6H9.79a1.49 1.49 0 0 1-1.49-1.49V9.88a1.49 1.49 0 0 1 1.49-1.49H14a1.49 1.49 0 0 1 1.49 1.49l.02 4.28Z"/>
  <path d="M2.77 10.71h4.55V9.16H2.77a.77.77 0 0 0-.77.77.78.78 0 0 0 .77.78ZM10.71 7V2.77a.78.78 0 0 0-1.077-.71.77.77 0 0 0-.473.72V7h1.55Zm4.12 0V2.77a.77.77 0 1 0-1.54 0V7h1.54Zm2.11 3.71h4.29a.78.78 0 0 0 .77-.78.77.77 0 0 0-.77-.77h-4.29v1.55Zm4.29 2.58h-4.29v1.54h4.29a.77.77 0 1 0 0-1.54Zm-13.91 0H2.77a.77.77 0 0 0 0 1.54h4.55v-1.54Zm5.97 3.79v4.15a.77.77 0 0 0 1.54 0v-4.15h-1.54Zm-4.13 0v4.15a.77.77 0 0 0 .77.77.78.78 0 0 0 .78-.77v-4.15H9.16Z" opacity=".3"/>
</svg>
