<svg xmlns="http://www.w3.org/2000/svg" width="24" height="24" fill="currentColor" viewBox="0 0 24 24">
  <path d="M11.07 16.81a7.61 7.61 0 0 0-5-3.95 1.3 1.3 0 0 0-1.55 1.55 7.65 7.65 0 0 0 6.59 5.84l-.04-3.44Z"/>
  <path d="M17.82 12.86a7.63 7.63 0 0 0-5.05 3.95v-4.16a.85.85 0 1 0-1.7 0v8.5a.85.85 0 0 0 1.7 0v-.9a7.66 7.66 0 0 0 6.6-5.84 1.3 1.3 0 0 0-1.55-1.55Zm-5.9-2.32a4.27 4.27 0 1 0 0-8.54 4.27 4.27 0 0 0 0 8.54Z" opacity=".3"/>
  <path d="m13.85 13.24-1.51.76a.93.93 0 0 1-.83 0L10 13.24a.91.91 0 0 1-.51-.82V10.7a.93.93 0 0 1 .93-.92h3a.93.93 0 0 1 .93.92v1.72a.9.9 0 0 1-.5.82Z"/>
</svg>
