<svg xmlns="http://www.w3.org/2000/svg" width="24" height="24" fill="currentColor" viewBox="0 0 24 24">
  <path d="M11 6.5a4.49 4.49 0 1 1-8.98-.02A4.49 4.49 0 0 1 11 6.5ZM17.44 2a4.5 4.5 0 1 0 4.48 4.5A4.48 4.48 0 0 0 17.44 2Zm-11 11A4.5 4.5 0 1 0 11 17.5 4.491 4.491 0 0 0 6.48 13h-.04Zm11 0a4.5 4.5 0 1 0 4.48 4.5 4.48 4.48 0 0 0-4.48-4.5Z" opacity=".3"/>
  <path d="M17.44 16h-.08l-.69-.69a3.89 3.89 0 0 1-1.12-2.19c-.1-.75-.1-1.51 0-2.26a3.89 3.89 0 0 1 1.12-2.19l.69-.67h.08A1.5 1.5 0 1 0 16 6.5v.08l-.68.69a3.88 3.88 0 0 1-2.23 1.13c-.747.1-1.503.1-2.25 0a3.85 3.85 0 0 1-2.18-1.13L8 6.58V6.5A1.5 1.5 0 1 0 6.48 8h.08l.69.69a3.9 3.9 0 0 1 1.13 2.19c.1.75.1 1.51 0 2.26a3.9 3.9 0 0 1-1.13 2.19l-.69.67h-.08A1.5 1.5 0 1 0 8 17.5v-.08l.69-.69a3.85 3.85 0 0 1 2.18-1.13 8.4 8.4 0 0 1 2.24 0 3.87 3.87 0 0 1 2.19 1.13l.68.69v.08a1.5 1.5 0 1 0 1.46-1.5Z"/>
</svg>
