<svg xmlns="http://www.w3.org/2000/svg" width="24" height="24" fill="currentColor" viewBox="0 0 24 24">
  <path d="M19.46 19.45a.76.76 0 0 1-.49-.18l-3.16-2.68h-3.26a4.82 4.82 0 0 1-4.89-4.73 4.82 4.82 0 0 1 4.89-4.74h3l3.65-3a.754.754 0 0 1 .95 1.17l-3.9 3.16a.73.73 0 0 1-.47.17h-3.23a3.32 3.32 0 0 0-3.39 3.24 3.32 3.32 0 0 0 3.39 3.23h3.54a.74.74 0 0 1 .48.18l3.37 2.86a.751.751 0 0 1 .06 1.06.76.76 0 0 1-.54.26Z"/>
  <path d="M13.23 4.4V2h-1.7a1.34 1.34 0 0 0-1.36 1.31v1.14a8.15 8.15 0 0 0-1.76.69l-.83-.8a1.41 1.41 0 0 0-1.93 0L4.43 5.51a1.29 1.29 0 0 0 0 1.86l.83.8a8.19 8.19 0 0 0-.72 1.69H3.37A1.34 1.34 0 0 0 2 11.17v1.66a1.34 1.34 0 0 0 1.37 1.31h1.17c.176.589.417 1.156.72 1.69l-.83.8a1.288 1.288 0 0 0 0 1.86l1.22 1.17a1.41 1.41 0 0 0 1.93 0l.83-.8a8.157 8.157 0 0 0 1.76.69v1.14A1.34 1.34 0 0 0 11.53 22h1.7v-2.33" opacity=".3"/>
  <path d="M20.27 5.99c.956 0 1.73-.747 1.73-1.67 0-.922-.774-1.67-1.73-1.67-.955 0-1.73.748-1.73 1.67 0 .923.775 1.67 1.73 1.67Zm.13 7.23c.884 0 1.6-.69 1.6-1.54 0-.85-.716-1.54-1.6-1.54-.884 0-1.6.69-1.6 1.54 0 .85.716 1.54 1.6 1.54Zm-7.17.19c.883 0 1.6-.69 1.6-1.54 0-.85-.716-1.54-1.6-1.54-.884 0-1.6.69-1.6 1.54 0 .85.716 1.54 1.6 1.54Zm7.04 7.24c.956 0 1.73-.748 1.73-1.67 0-.922-.774-1.67-1.73-1.67-.955 0-1.73.748-1.73 1.67 0 .922.775 1.67 1.73 1.67Z"/>
  <path d="M18.94 12.62h-5.11a.75.75 0 1 1 0-1.5h5.11a.75.75 0 1 1 0 1.5Z"/>
</svg>
