<svg xmlns="http://www.w3.org/2000/svg" width="24" height="24" fill="currentColor" viewBox="0 0 24 24">
  <path d="M16.05 1.7h-8.1A5.95 5.95 0 0 0 2 7.65v8.1a5.95 5.95 0 0 0 5.95 5.95h8.1A5.95 5.95 0 0 0 22 15.75v-8.1a5.95 5.95 0 0 0-5.95-5.95Z" opacity=".3"/>
  <path d="M11.21 17.57h-.12a.76.76 0 0 1-.62-.87l1.58-9.63a.75.75 0 1 1 1.48.25L12 16.94a.76.76 0 0 1-.79.63Z"/>
  <path d="M15.26 7.93h-4.94a.75.75 0 0 1 0-1.5h4.94a.75.75 0 0 1 0 1.5Zm-1.42 9.64H8.9a.75.75 0 1 1 0-1.5h4.94a.75.75 0 1 1 0 1.5Z"/>
</svg>
