<svg xmlns="http://www.w3.org/2000/svg" width="24" height="24" fill="currentColor" viewBox="0 0 24 24">
  <path d="M20.53 6.46H9.16a.75.75 0 0 1 0-1.5h11.37a.75.75 0 0 1 0 1.5Zm-5.17 5h-6.2a.75.75 0 0 1 0-1.5h6.2a.75.75 0 0 1 0 1.5Z"/>
  <path d="M20.53 16.46H9.16a.75.75 0 0 1 0-1.5h11.37a.75.75 0 0 1 0 1.5Zm-5.17 5h-6.2a.75.75 0 0 1 0-1.5h6.2a.75.75 0 0 1 0 1.5Z" opacity=".3"/>
  <path d="M5.16 8.87a.75.75 0 0 1-.75-.75V5.47l-.35.44A.75.75 0 0 1 2.88 5l1.69-2.17a.75.75 0 0 1 .83-.25.76.76 0 0 1 .51.71v4.83a.76.76 0 0 1-.75.75Zm.95 9.96H3.78a.76.76 0 0 1-.76-.755.75.75 0 0 1 .1-.375l2-3.32a.44.44 0 0 0-.43-.3.46.46 0 0 0-.45.46.75.75 0 0 1-1.5 0 2 2 0 1 1 3.91 0 .76.76 0 0 1-.11.38l-1.45 2.41h1a.75.75 0 0 1 0 1.5h.02Z"/>
</svg>
