<svg xmlns="http://www.w3.org/2000/svg" width="24" height="24" fill="currentColor" viewBox="0 0 24 24">
  <path d="M16.05 2h-8.1A5.95 5.95 0 0 0 2 7.95v8.1A5.95 5.95 0 0 0 7.95 22h8.1A5.95 5.95 0 0 0 22 16.05v-8.1A5.95 5.95 0 0 0 16.05 2Z" opacity=".3"/>
  <path d="M12.3 17.26h-3a.75.75 0 0 1 0-1.5h3a1.511 1.511 0 0 0 1.178-2.628 1.508 1.508 0 0 0-1.178-.372h-1.64a3 3 0 0 1 0-6h3a.75.75 0 0 1 0 1.5h-3a1.51 1.51 0 1 0 0 3h1.64a3 3 0 1 1 0 6Z" opacity=".3"/>
  <path d="M17.79 13.5H6.21a.75.75 0 1 1 0-1.5h11.58a.75.75 0 0 1 0 1.5Z"/>
</svg>
