<svg xmlns="http://www.w3.org/2000/svg" width="24" height="24" fill="currentColor" viewBox="0 0 24 24">
  <path d="M21.38 8.28 17 12.66a9.497 9.497 0 0 1-2.09 1.58l-4.07 2.26a9.798 9.798 0 0 0-2.1 1.58L5.43 21.4a2.002 2.002 0 0 1-2.84 0 1.999 1.999 0 0 1 0-2.84l3.32-3.32a9.74 9.74 0 0 0 1.58-2.09l2.26-4.07A9.261 9.261 0 0 1 11.33 7l4.39-4.4a2 2 0 0 1 2.47-.35 10.17 10.17 0 0 1 3.53 3.55 2 2 0 0 1-.34 2.48Zm-6.74 3.9 2.85-2.84a1 1 0 0 0 0-1.42L16.06 6.5a1 1 0 0 0-1.41 0l-2.84 2.84a1 1 0 0 0 0 1.42l1.42 1.42a1 1 0 0 0 1.41 0Z" opacity=".3"/>
  <path d="M7.55 19.27 5.43 21.4a2.008 2.008 0 1 1-2.84-2.84l2.13-2.13 2.83 2.84ZM21.72 5.8a10.17 10.17 0 0 0-3.53-3.55 2 2 0 0 0-2.47.35l-.36.4L21 8.63l.35-.35a2 2 0 0 0 .37-2.48Z"/>
</svg>
