<svg xmlns="http://www.w3.org/2000/svg" width="24" height="24" fill="none" viewBox="0 0 24 24">
  <path fill="#000" d="M15.13 6H8.87A1.87 1.87 0 0 0 7 7.87v8.26A1.87 1.87 0 0 0 8.87 18h6.26A1.871 1.871 0 0 0 17 16.13V7.87A1.87 1.87 0 0 0 15.13 6ZM14 13.88h-1.25v2.06a.75.75 0 1 1-1.5 0v-2.06H10a.75.75 0 1 1 0-1.5h4a.75.75 0 1 1 0 1.5Zm0-3h-4a.75.75 0 1 1 0-1.5h1.26V8.06a.75.75 0 1 1 1.5 0v1.32H14a.75.75 0 1 1 0 1.5Z"/>
  <path fill="#000" d="M16.07 2H7.93A6 6 0 0 0 2 8v8a6 6 0 0 0 6 6h8.14a6 6 0 0 0 6-6V8a5.999 5.999 0 0 0-6.07-6ZM14 13.88h-1.25v2.06a.75.75 0 1 1-1.5 0v-2.06H10a.75.75 0 1 1 0-1.5h4a.75.75 0 1 1 0 1.5Zm0-3h-4a.75.75 0 1 1 0-1.5h1.26V8.06a.75.75 0 1 1 1.5 0v1.32H14a.75.75 0 1 1 0 1.5Z" opacity=".3"/>
</svg>
