<svg xmlns="http://www.w3.org/2000/svg" width="24" height="24" fill="currentColor" viewBox="0 0 24 24">
  <path d="M9.1 8.44H5.6a.76.76 0 0 0-.76.76v2.21c0 .42.34.76.76.76h3.5c.42 0 .76-.34.76-.76V9.2a.76.76 0 0 0-.76-.76Zm4.9 0h-2.01a.76.76 0 0 0-.76.76v5.42c0 .42.34.76.76.76H14c.42 0 .76-.34.76-.76V9.2a.76.76 0 0 0-.76-.76ZM7.74 18.87a1.53 1.53 0 1 0 0-3.06 1.53 1.53 0 0 0 0 3.06Zm10.56-2.28h-8.14c.079.242.123.495.13.75-.006.255-.05.508-.13.75h8.14a.75.75 0 0 0 0-1.5Z"/>
  <path d="m18.21 13.39-1.28-6a2.67 2.67 0 0 0-2.6-2.12l-8.75-.03A2.68 2.68 0 0 0 2.9 7.61l-.72 6a2.68 2.68 0 0 0 2.67 3h.51a2.51 2.51 0 0 1 4.81 0h5.42a2.68 2.68 0 0 0 2.62-3.22Z" opacity=".3"/>
</svg>
