<svg xmlns="http://www.w3.org/2000/svg" width="24" height="24" fill="none" viewBox="0 0 24 24">
  <path fill="#000" d="m16.02 1.973-8.14.044A5.96 5.96 0 0 0 1.954 8.01l.044 8.08a5.96 5.96 0 0 0 5.992 5.928l8.14-.044a5.96 5.96 0 0 0 5.928-5.992l-.044-8.08a5.96 5.96 0 0 0-5.992-5.928Z" opacity=".3"/>
  <path fill="#000" d="m16.793 6.089-1.94.01a1.48 1.48 0 0 0-1.472 1.488l.024 4.39a1.48 1.48 0 0 0 1.488 1.472l1.94-.01a1.48 1.48 0 0 0 1.472-1.488l-.024-4.39a1.48 1.48 0 0 0-1.488-1.472Zm-7.59-.009-2.12.011A1.39 1.39 0 0 0 5.7 7.49l.05 9.03a1.39 1.39 0 0 0 1.396 1.38l2.12-.011a1.39 1.39 0 0 0 1.382-1.398l-.049-9.03A1.39 1.39 0 0 0 9.203 6.08Z"/>
</svg>
