<svg xmlns="http://www.w3.org/2000/svg" width="24" height="24" fill="none" viewBox="0 0 24 24">
  <path fill="#000" d="M7.05 19.25a1.73 1.73 0 1 0 0-3.46 1.73 1.73 0 0 0 0 3.46Zm10.78 0a1.73 1.73 0 1 0 0-3.46 1.73 1.73 0 0 0 0 3.46Z"/>
  <path fill="#000" d="M2 12.46v3.37a1.28 1.28 0 0 0 1.28 1.28h1.08a2.72 2.72 0 0 1 5.38 0h2.55a1.281 1.281 0 0 0 1.29-1.28v-3.37H2Z" opacity=".3"/>
  <path fill="#000" d="M12.29 4.75h-9A1.29 1.29 0 0 0 2 6.05v6.54h11.58V6.05a1.3 1.3 0 0 0-1.29-1.3Z"/>
  <path fill="#000" d="m21.73 11.41-2.36-3.07a1.32 1.32 0 0 0-1.05-.52h-2.6a1.32 1.32 0 0 0-1.32 1.32v6.65a1.32 1.32 0 0 0 .76 1.21 2.72 2.72 0 0 1 5.36.13h.16A1.32 1.32 0 0 0 22 15.79v-3.57a1.38 1.38 0 0 0-.27-.81Zm-1.81 1a.63.63 0 0 1-.62.63h-2.07a.63.63 0 0 1-.63-.63v-1.94a.63.63 0 0 1 .63-.62h1.23a.6.6 0 0 1 .5.26l.84 1.16a.58.58 0 0 1 .12.36v.78Z" opacity=".3"/>
</svg>
