<svg xmlns="http://www.w3.org/2000/svg" width="24" height="24" fill="none" viewBox="0 0 24 24">
  <path fill="#000" d="M16.05 2h-8.1A5.95 5.95 0 0 0 2 7.95v8.1A5.95 5.95 0 0 0 7.95 22h8.1A5.95 5.95 0 0 0 22 16.05v-8.1A5.95 5.95 0 0 0 16.05 2Z" opacity=".3"/>
  <path fill="#000" d="M9.846 7.874 10 7a1.1 1.1 0 0 1 1-1h2a1.1 1.1 0 0 1 1 1l.154.874c.868.056 1.734.144 2.596.266a.76.76 0 0 1 .63.86.74.74 0 0 1-.74.61h-.11a32.82 32.82 0 0 0-9 0 .76.76 0 0 1-.902-.904.74.74 0 0 1 .612-.566 33.996 33.996 0 0 1 2.606-.266ZM14.18 17.6H9.93a1.37 1.37 0 0 1-1.45-1.17l-.41-5.1a.58.58 0 0 1 .62-.57h6.62a.58.58 0 0 1 .62.57l-.33 5a1.37 1.37 0 0 1-1.42 1.27Z"/>
</svg>
