<svg xmlns="http://www.w3.org/2000/svg" width="24" height="24" fill="currentColor" viewBox="0 0 24 24">
  <path d="M19 4.75A4.33 4.33 0 0 0 11.85 6c-.79 1.77.06 3.91-.62 5.72a11 11 0 0 1-6.32 6.61 9.47 9.47 0 0 1-1.83.33.53.53 0 0 0-.15 1 12.34 12.34 0 0 0 4.88 1A12.29 12.29 0 0 0 20.17 8.24v-.56a9 9 0 0 0 1.72-1.89.74.74 0 0 0-.55-1.16 8.23 8.23 0 0 0-2.34.12Z" opacity=".3"/>
  <path d="M11.5 8.71a12.19 12.19 0 0 1-8.19-3.79.68.68 0 0 0-1.12.26A4.41 4.41 0 0 0 3.89 10a3.77 3.77 0 0 1-1.16-.2.49.49 0 0 0-.63.56 4.3 4.3 0 0 0 3.32 3.43 4.81 4.81 0 0 1-1.1.15.52.52 0 0 0-.41.8 4.19 4.19 0 0 0 3.63 2.15 6.57 6.57 0 0 0 3.73-.68 5.25 5.25 0 0 0 2.64-4.37c-.04-1.45-.82-3.05-2.41-3.13Z"/>
</svg>
