<svg xmlns="http://www.w3.org/2000/svg" width="24" height="24" fill="none" viewBox="0 0 24 24">
  <path fill="#000" d="M18.27 10.79H2v1.95h16.27v-1.95Z"/>
  <path fill="#000" d="M15.75 7.92H4.52A2.52 2.52 0 0 0 2 10.44v6.35a2.52 2.52 0 0 0 2.52 2.52h11.23a2.52 2.52 0 0 0 2.52-2.52v-6.35a2.52 2.52 0 0 0-2.52-2.52Z" opacity=".3"/>
  <path fill="#000" d="M19.48 4.69H8.25a2.52 2.52 0 0 0-2.52 2.52v.71h10a2.52 2.52 0 0 1 2.52 2.52v5.64h1.21A2.52 2.52 0 0 0 22 13.56V7.21a2.52 2.52 0 0 0-2.52-2.52ZM15.7 16.31h-1.21a.75.75 0 0 1 0-1.5h1.21a.75.75 0 0 1 0 1.5Zm-8.25 0H4.57a.75.75 0 0 1 0-1.5h2.88a.75.75 0 1 1 0 1.5Z"/>
</svg>
