<svg xmlns="http://www.w3.org/2000/svg" width="24" height="24" fill="none" viewBox="0 0 24 24">
  <path fill="#000" d="M7.81 22h8.38A5.81 5.81 0 0 0 22 16.19V7.81A5.81 5.81 0 0 0 16.19 2H7.81A5.81 5.81 0 0 0 2 7.81v8.38A5.81 5.81 0 0 0 7.81 22Z" opacity=".3"/>
  <path fill="#000" d="M7 15.91a.76.76 0 0 1-.41-.13.75.75 0 0 1-.21-1L8.91 11 6.39 7.09a.75.75 0 0 1 .22-1 .76.76 0 0 1 1 .23l2.79 4.32a.76.76 0 0 1 0 .83l-2.76 4.1a.75.75 0 0 1-.64.34Z"/>
  <path fill="#000" d="M17 18.06h-5.9a.75.75 0 0 1 0-1.5H17a.75.75 0 1 1 0 1.5Z" opacity=".3"/>
</svg>
