<svg xmlns="http://www.w3.org/2000/svg" width="24" height="24" fill="currentColor" viewBox="0 0 24 24">
  <path d="M22 12h-4.7a4.901 4.901 0 0 1-4.8-5.18V2H7.6A5.66 5.66 0 0 0 2 7.71v8.58A5.66 5.66 0 0 0 7.6 22h8.8a5.66 5.66 0 0 0 5.6-5.71V12Z" opacity=".3"/>
  <path d="M21.93 10.43h-4.66A3.391 3.391 0 0 1 14 6.82V2l2.66 2.8 5.27 5.63ZM9.37 13.25a.73.73 0 0 0-.92-.45L8 13a2.34 2.34 0 0 1 3.17-.88.72.72 0 0 0 1-.29.74.74 0 0 0-.29-1 3.742 3.742 0 0 0-2.91-.32 3.782 3.782 0 0 0-2.28 1.87v.13l-.22-.61a.72.72 0 0 0-.93-.43.74.74 0 0 0-.42 1l.8 2.14a.71.71 0 0 0 .67.48c.08.01.16.01.24 0l2.2-.79a.75.75 0 0 0 .34-1.05ZM14 15.06a.72.72 0 0 0-1-.45l-2.1.84a.74.74 0 0 0-.4 1 .711.711 0 0 0 .93.41l.44-.18a2.34 2.34 0 0 1-3.17.88.72.72 0 0 0-1 .3.74.74 0 0 0 .29 1 3.651 3.651 0 0 0 1.82.48 3.8 3.8 0 0 0 3.33-2l.15.47a.71.71 0 0 0 .68.5c.076.01.154.01.23 0a.74.74 0 0 0 .46-.93L14 15.06Z"/>
</svg>
