<svg xmlns="http://www.w3.org/2000/svg" width="24" height="24" fill="currentColor" viewBox="0 0 24 24">
  <path d="M19.7 21.963a1.14 1.14 0 0 1-.48.077H3.82a1.14 1.14 0 0 1-1.2-1.24c.64-3.76 4.38-6.65 8.9-6.65 2.282 0 4.365.737 5.951 1.95h-1.57a.9.9 0 0 0 0 1.8h3.2a.93.93 0 0 0 .105-.006A7.122 7.122 0 0 1 20.42 20.8a1.142 1.142 0 0 1-.72 1.163Z" opacity=".3"/>
  <path d="M11.49 11.96a4.95 4.95 0 1 0 0-9.9 4.95 4.95 0 0 0 0 9.9Z"/>
  <path fill-rule="evenodd" d="M15.203 13.678a4 4 0 1 1 4.455 6.644 4 4 0 0 1-4.456-6.644Zm.699 2.422a.9.9 0 0 0 0 1.8h3.2a.9.9 0 1 0 0-1.8h-3.2Z" clip-rule="evenodd"/>
</svg>
