<svg xmlns="http://www.w3.org/2000/svg" width="24" height="24" fill="currentColor" viewBox="0 0 24 24">
  <path d="M11.81 11.92a4.96 4.96 0 1 0 0-9.92 4.96 4.96 0 0 0 0 9.92Z"/>
  <path d="M19.51 22a1.141 1.141 0 0 0 1.2-1.24c-.64-3.76-4.38-6.65-8.9-6.65-4.52 0-8.26 2.89-8.9 6.65A1.13 1.13 0 0 0 4.11 22h15.4Z" opacity=".3"/>
  <path d="m16.81 19.73-1.44.2a.7.7 0 0 1-.78-.83l.3-1.43a1.08 1.08 0 0 1 .3-.54l3.41-3.19a1.091 1.091 0 0 1 1.54.09l.65.7a1.09 1.09 0 0 1 0 1.54l-3.41 3.19a1.09 1.09 0 0 1-.57.27Z"/>
</svg>
