<svg xmlns="http://www.w3.org/2000/svg" width="24" height="24" fill="currentColor" viewBox="0 0 24 24">
  <path d="M16.44 7.01a4.95 4.95 0 1 1-9.9 0 4.95 4.95 0 0 1 9.9 0Z"/>
  <path fill-rule="evenodd" d="M15.203 13.678a4 4 0 1 1 4.456 6.644 4 4 0 0 1-4.456-6.644ZM17.86 18.6l1.69-2.16h-.04a.742.742 0 0 0-1.17-.91l-1.1 1.4-.63-.8a.74.74 0 0 0-1-.13.74.74 0 0 0-.13 1l1.21 1.59a.74.74 0 0 0 .912.215.76.76 0 0 0 .258-.205Z" clip-rule="evenodd"/>
  <path d="M20.36 20.77a7.19 7.19 0 0 0-1.59-3.38l-.91 1.16a.76.76 0 0 1-.58.28.74.74 0 0 1-.59-.29L15.48 17a.721.721 0 0 1-.09-.73.72.72 0 0 1 .74-1 10 10 0 0 0-4.64-1.12C7 14.14 3.26 17 2.62 20.77A1.13 1.13 0 0 0 3.82 22h15.35a1.13 1.13 0 0 0 1.19-1.23Z" opacity=".3"/>
</svg>
