<svg xmlns="http://www.w3.org/2000/svg" width="24" height="24" fill="currentColor" viewBox="0 0 24 24">
  <path d="M11.49 11.96a4.95 4.95 0 1 0 0-9.9 4.95 4.95 0 0 0 0 9.9ZM17.43 13a4 4 0 1 0 0 8 4 4 0 0 0 0-8Zm2.12 3.44-1.69 2.16a.76.76 0 0 1-.58.28.74.74 0 0 1-.59-.29L15.48 17a.74.74 0 0 1 .13-1 .74.74 0 0 1 1 .13l.63.8 1.1-1.4a.74.74 0 1 1 1.17.91h.04Z"/>
  <path d="M20.36 20.77a7.19 7.19 0 0 0-1.59-3.38l-.91 1.16a.76.76 0 0 1-.58.28.74.74 0 0 1-.59-.29L15.48 17a.721.721 0 0 1-.09-.73.72.72 0 0 1 .74-1 10 10 0 0 0-4.64-1.12C7 14.14 3.26 17 2.62 20.77A1.13 1.13 0 0 0 3.82 22h15.35a1.13 1.13 0 0 0 1.19-1.23Z" opacity=".3"/>
</svg>
