<svg xmlns="http://www.w3.org/2000/svg" width="24" height="24" fill="currentColor" viewBox="0 0 24 24">
  <path d="M16.44 7.01a4.95 4.95 0 1 1-9.9 0 4.95 4.95 0 0 1 9.9 0Z"/>
  <path fill-rule="evenodd" d="M17.43 13a4 4 0 1 0 0 8 4 4 0 0 0 0-8ZM15 17a.9.9 0 0 1 .9-.9h3.2a.9.9 0 1 1 0 1.8h-3.2a.9.9 0 0 1-.9-.9Z" clip-rule="evenodd"/>
  <path d="M19.7 21.963a1.14 1.14 0 0 1-.48.077H3.82a1.14 1.14 0 0 1-1.2-1.24c.64-3.76 4.38-6.65 8.9-6.65 2.282 0 4.365.737 5.951 1.95h-1.57a.9.9 0 0 0 0 1.8h3.2a.93.93 0 0 0 .105-.006A7.122 7.122 0 0 1 20.42 20.8a1.142 1.142 0 0 1-.72 1.163Z" opacity=".3"/>
</svg>
