<svg xmlns="http://www.w3.org/2000/svg" width="24" height="24" fill="currentColor" viewBox="0 0 24 24">
  <path d="M20.89 14.85a1 1 0 0 0-1.32.32l-1-.57h-.12a7.26 7.26 0 0 0 .47-2.6c0-.872-.16-1.736-.47-2.55h.12l1-.57a1 1 0 0 0 1.72-1l-1-1.66a1 1 0 0 0-1.75.94l-1 .58h-.06A6.88 6.88 0 0 0 13.07 5V3.93a1 1 0 0 0 0-2h-1.94a1 1 0 1 0-.06 2V5a6.84 6.84 0 0 0-4.54 2.67l-.08-.07-.87-.5a1 1 0 1 0-1.73-1l-1 1.73a1 1 0 0 0 1.73 1l.87.5.12.05A7.31 7.31 0 0 0 5.08 12a7.4 7.4 0 0 0 .49 2.63h-.12l-.87.5a1 1 0 1 0-1.73 1l1 1.73a1 1 0 1 0 1.73-1l.87-.5.08-.07A6.86 6.86 0 0 0 11.08 19v1.05a1 1 0 0 0 0 2h2a1 1 0 0 0 0-2v-1.07a6.86 6.86 0 0 0 4.45-2.72h.06l1 .57a1.003 1.003 0 1 0 1.74 1l1-1.66a1 1 0 0 0-.44-1.32Z" opacity=".3"/>
  <path d="M15.38 14.12a.74.74 0 1 0 0-1.48.74.74 0 0 0 0 1.48Zm-.74-3.47a1.21 1.21 0 1 0 0-2.42 1.21 1.21 0 0 0 0 2.42Z"/>
</svg>
