<svg xmlns="http://www.w3.org/2000/svg" width="24" height="24" fill="currentColor" viewBox="0 0 24 24">
  <path d="M16.32 6.15H5.71A3.71 3.71 0 0 0 2 9.86v7.58a3.71 3.71 0 0 0 3.71 3.71h10.61a3.71 3.71 0 0 0 3.71-3.71V9.86a3.71 3.71 0 0 0-3.71-3.71Z" opacity=".3"/>
  <path d="M18.94 15.7h2.13a.93.93 0 0 0 .93-.93v-2.24a.93.93 0 0 0-.93-.93h-2.13a2 2 0 0 0-2 2.05 2 2 0 0 0 2 2.05ZM2 9.85a3.71 3.71 0 0 1 3.71-3.7H15a3.37 3.37 0 0 0-3.38-3.3H5.39A3.38 3.38 0 0 0 2 6.23v3.62Zm9.89 1.48H5.73a.75.75 0 1 1 0-1.5h6.16a.75.75 0 1 1 0 1.5Z"/>
</svg>
