<svg xmlns="http://www.w3.org/2000/svg" width="24" height="24" fill="currentColor" viewBox="0 0 24 24">
  <path d="M19.53 4.66v-.33A2.33 2.33 0 0 0 17.2 2H6.79a2.33 2.33 0 0 0-2.33 2.33v.33a5.47 5.47 0 0 0 1.83 4L9 11.13a1.12 1.12 0 0 1 0 1.67l-2.71 2.44a5.47 5.47 0 0 0-1.83 4v.45A2.33 2.33 0 0 0 6.8 22h10.41a2.33 2.33 0 0 0 2.33-2.38v-.35a5.47 5.47 0 0 0-1.83-4L15 12.8a1.12 1.12 0 0 1 0-1.67l2.7-2.44a5.472 5.472 0 0 0 1.83-4.03Z" opacity=".3"/>
  <path d="m8.5 18.35 2.37-2.45a1.629 1.629 0 0 1 2.37 0l2.37 2.45a.47.47 0 0 1-.33.8H8.82a.47.47 0 0 1-.32-.8Z"/>
</svg>
