<svg xmlns="http://www.w3.org/2000/svg" width="24" height="24" fill="currentColor" viewBox="0 0 24 24">
  <path fill-rule="evenodd" d="M22.75 14.353c0-1.514-.675-2.931-1.905-3.99-1.096-.944-2.517-1.496-4.038-1.582-3.552.182-6.39 3.028-6.39 6.46 0 .338.019.666.057.982.052.429.189.846.427 1.207.205.31.446.594.723.85 1.132 1.05 2.803 1.606 4.97 1.652.014 0 .023 0 .033.004l3.602.86a.721.721 0 0 0 .649-.165.76.76 0 0 0 .25-.632l-.163-1.769c1.14-1.031 1.785-2.43 1.785-3.877Zm-9.386-.694c0 .234.091.46.254.625a.86.86 0 0 0 1.229 0 .893.893 0 0 0 0-1.251.861.861 0 0 0-1.229 0 .894.894 0 0 0-.254.626Zm3.634 0c0 .234.091.46.254.626a.86.86 0 0 0 1.229 0 .894.894 0 0 0 0-1.252.86.86 0 0 0-1.229 0 .893.893 0 0 0-.254.626Z" clip-rule="evenodd"/>
  <path fill-rule="evenodd" d="M10.028 16.848a8.425 8.425 0 0 1-.149-1.608c0-3.701 3.023-6.74 6.788-6.99-.419-1.35-1.303-2.564-2.538-3.469-1.405-1.031-3.193-1.596-5.033-1.596-2.074 0-4.027.7-5.503 1.97-1.51 1.302-2.343 3.04-2.343 4.898a6.1 6.1 0 0 0 .659 2.76c.38.76.908 1.448 1.57 2.04l-.538 3.05a.762.762 0 0 0 .25.707.726.726 0 0 0 .723.13l4.922-1.822c.41-.01.809-.032 1.192-.07ZM5.704 9.654a1.078 1.078 0 0 1 0-1.51 1.038 1.038 0 0 1 1.482 0 1.078 1.078 0 0 1 0 1.51 1.038 1.038 0 0 1-1.482 0Zm4.433.001a1.078 1.078 0 0 1 0-1.51 1.04 1.04 0 0 1 1.483 0 1.079 1.079 0 0 1 0 1.51 1.04 1.04 0 0 1-1.483 0Z" clip-rule="evenodd" opacity=".3"/>
</svg>
