<svg xmlns="http://www.w3.org/2000/svg" width="24" height="24" fill="currentColor" viewBox="0 0 24 24">
  <path d="M20.36 7a.76.76 0 0 1-.43-.14 13.37 13.37 0 0 0-15.82 0 .751.751 0 1 1-.93-1.18c.08-.07 8.44-6.46 17.61 0A.75.75 0 0 1 20.36 7Zm-2.76 4.1a.75.75 0 0 0-.18-1 9.34 9.34 0 0 0-10.87 0 .742.742 0 0 0-.13 1.05.76.76 0 0 0 1 .13 7.81 7.81 0 0 1 9.09 0c.126.09.276.138.43.14a.72.72 0 0 0 .66-.32Zm-3.11 4.64a.76.76 0 0 0-.09-1.06 3.56 3.56 0 0 0-4.83 0 .75.75 0 0 0 1 1.09 2.07 2.07 0 0 1 2.83 0 .74.74 0 0 0 .49.18.768.768 0 0 0 .6-.21Z" opacity=".3"/>
  <path d="M20.06 22.07H3.94a.75.75 0 1 1 0-1.5h16.12a.75.75 0 1 1 0 1.5Z"/>
</svg>
