<svg xmlns="http://www.w3.org/2000/svg" width="24" height="24" fill="currentColor" viewBox="0 0 24 24">
  <path d="M16.05 2h-8.1A5.95 5.95 0 0 0 2 7.95v8.1A5.95 5.95 0 0 0 7.95 22h8.1A5.95 5.95 0 0 0 22 16.05v-8.1A5.95 5.95 0 0 0 16.05 2Z" opacity=".3"/>
  <path d="M14.21 16.41a.79.79 0 0 1-.44-.14 2.91 2.91 0 0 0-3.43 0 .75.75 0 0 1-1.055-.125.751.751 0 0 1 .125-1.055 4.4 4.4 0 0 1 5.23 0 .74.74 0 0 1 .18 1 .75.75 0 0 1-.61.32Zm2.26-2.98a.73.73 0 0 1-.44-.15 6.41 6.41 0 0 0-7.89-.16.765.765 0 1 1-1-1.16 8 8 0 0 1 9.73.11.75.75 0 0 1 .15 1 .74.74 0 0 1-.55.36Z"/>
  <path d="M17.93 10.19a.76.76 0 0 1-.43-.14 9 9 0 0 0-11 0 .765.765 0 1 1-1-1.16 10.66 10.66 0 0 1 12.78 0 .74.74 0 0 1 .17 1 .72.72 0 0 1-.52.3Z"/>
</svg>
