<svg xmlns="http://www.w3.org/2000/svg" width="24" height="24" fill="none" viewBox="0 0 24 24">
  <path fill="#000" d="M22 8.66a6.79 6.79 0 0 1-7.76 6.86 3 3 0 0 0-2.54.89l-4.76 4.75a2.91 2.91 0 0 1-4.23-.11 3 3 0 0 1 .22-4.13l4.65-4.64a3 3 0 0 0 .88-2.54A6.79 6.79 0 0 1 15.32 2a1.07 1.07 0 0 1 .73 1.82l-2.87 2.86a1.54 1.54 0 0 0-.32 1.77 5.56 5.56 0 0 0 2.67 2.68 1.56 1.56 0 0 0 1.77-.32l2.88-2.88a1.07 1.07 0 0 1 1.82.73Z" opacity=".3"/>
  <path fill="#000" d="M4.17 19.81a1 1 0 0 1 0-1.37l5.53-5.53a1 1 0 0 1 1.37 0 1 1 0 0 1 0 1.38l-5.52 5.52a1 1 0 0 1-1.38 0Z"/>
</svg>
