<svg xmlns="http://www.w3.org/2000/svg" width="24" height="24" fill="currentColor" viewBox="0 0 24 24">
  <path d="m16.02 1.973-8.14.044A5.96 5.96 0 0 0 1.954 8.01l.044 8.08a5.96 5.96 0 0 0 5.992 5.928l8.14-.044a5.96 5.96 0 0 0 5.927-5.992l-.043-8.08a5.96 5.96 0 0 0-5.992-5.928Z" opacity=".3"/>
  <path d="M12 7.89a.75.75 0 0 0-1.06.11l-2.12 2.75L6.7 8a.75.75 0 0 0-1.18.92l2.35 3L5.52 15a.75.75 0 0 0 .918 1.133.75.75 0 0 0 .262-.213l2.12-2.72 2.12 2.73a.76.76 0 0 0 1.06.13.76.76 0 0 0 .13-1L9.77 12l2.36-3A.759.759 0 0 0 12 7.89Zm5.92-.16a.74.74 0 0 0-.75.75v2.74h-1a2.5 2.5 0 1 0 0 5h1.75a.75.75 0 0 0 .75-.75v-7a.75.75 0 0 0-.75-.74Zm-2.75 6a1 1 0 0 1 1-1h1v2h-1a.998.998 0 0 1-1-1.01v.01Z"/>
</svg>
