<svg xmlns="http://www.w3.org/2000/svg" width="24" height="24" fill="currentColor" viewBox="0 0 24 24">
  <path d="M21 7.75H3A1.75 1.75 0 0 1 1.25 6V4A1.75 1.75 0 0 1 3 2.25h18A1.76 1.76 0 0 1 22.75 4v2A1.75 1.75 0 0 1 21 7.75Zm-18-4a.25.25 0 0 0-.25.25v2a.25.25 0 0 0 .25.25h18a.25.25 0 0 0 .25-.25V4a.25.25 0 0 0-.25-.25H3Zm18 18H3A1.75 1.75 0 0 1 1.25 20v-2A1.75 1.75 0 0 1 3 16.25h18A1.76 1.76 0 0 1 22.75 18v2A1.75 1.75 0 0 1 21 21.75Zm-18-4a.25.25 0 0 0-.25.25v2a.25.25 0 0 0 .25.25h18a.25.25 0 0 0 .25-.25v-2a.25.25 0 0 0-.25-.25H3Zm18-3H3A1.75 1.75 0 0 1 1.25 13v-2A1.75 1.75 0 0 1 3 9.25h18A1.76 1.76 0 0 1 22.75 11v2A1.75 1.75 0 0 1 21 14.75Zm-18-4a.25.25 0 0 0-.25.25v2a.25.25 0 0 0 .25.25h18a.25.25 0 0 0 .25-.25v-2a.25.25 0 0 0-.25-.25H3Z"/>
</svg>
