<svg xmlns="http://www.w3.org/2000/svg" width="24" height="24" fill="currentColor" viewBox="0 0 24 24">
  <path d="M12 22c5.523 0 10-4.477 10-10S17.523 2 12 2 2 6.477 2 12s4.477 10 10 10Z" opacity=".3"/>
  <path d="M8.73 6a14.56 14.56 0 0 0-1.92-.89 22.17 22.17 0 0 1 3.28-2.92A10.06 10.06 0 0 1 12 2c.651.002 1.3.065 1.94.19A20.199 20.199 0 0 0 8.73 6ZM12 8.4a16 16 0 0 1 6.71-3.8 9.92 9.92 0 0 0-2-1.43 17.86 17.86 0 0 0-6.23 3.94c.53.4 1.038.831 1.52 1.29ZM7 20v.63A9.638 9.638 0 0 1 4.86 19a4 4 0 0 0-1.72-2.36 9.84 9.84 0 0 1-.91-2.5A6 6 0 0 1 7 20Zm3.63-10.14A13.88 13.88 0 0 0 3.8 6.29a10.17 10.17 0 0 0-1 1.86 11.89 11.89 0 0 1 6.66 3.35c.352-.573.743-1.12 1.17-1.64Zm-8.44.22A10.08 10.08 0 0 0 2 12v.06a8 8 0 0 1 5.64 3.48c.22-.745.495-1.474.82-2.18a9.93 9.93 0 0 0-6.27-3.28ZM11 20A12 12 0 0 1 21.23 8.15a10.259 10.259 0 0 0-1-1.87A14 14 0 0 0 9 20c0 .53 0 1.05.09 1.57.678.2 1.375.332 2.08.39A12.645 12.645 0 0 1 11 20Zm8.14-1a4 4 0 0 1 1.72-2.36c.415-.788.721-1.63.91-2.5A6 6 0 0 0 17 20v.63A9.637 9.637 0 0 0 19.14 19ZM15 20a8 8 0 0 1 7-7.93V12a10.079 10.079 0 0 0-.19-1.92 10 10 0 0 0-8.62 11.84 9.679 9.679 0 0 0 2-.43A8.1 8.1 0 0 1 15 20Z"/>
</svg>
