<svg xmlns="http://www.w3.org/2000/svg" width="24" height="24" fill="currentColor" viewBox="0 0 24 24">
  <path d="M22.47 18 14.08 3.41l-.31-.55a2 2 0 0 0-3.54 0L2 17.21l-.42.72A2 2 0 0 0 3.3 21h7.06a.75.75 0 1 0 0-1.5H3.3a.54.54 0 0 1-.47-.81l.41-.69c.23-.38.47-.77.73-1.16 1.77-2.75 4.17-5.54 7.52-6H12a3.26 3.26 0 0 1 2.82 1.64 3.13 3.13 0 0 1 .43 1.61 3.2 3.2 0 0 1-.09.75v.12a3.1 3.1 0 0 1-.28.7A3.24 3.24 0 0 1 12 17.3a3.1 3.1 0 0 1-2-.68.76.76 0 0 0-1 .12.77.77 0 0 0 .12 1.06 4.74 4.74 0 0 0 7.07-1.46c.177-.334.317-.686.42-1.05v-.07c.089-.29.162-.583.22-.88v-.27c0-.09.07-.41.09-.62.02-.21 0-.21 0-.31v-.9c.01-.203.01-.407 0-.61a1.159 1.159 0 0 0 0-.19l4.21 7.29a.54.54 0 0 1-.47.81 33.416 33.416 0 0 1-4.18-.22.751.751 0 0 0-.19 1.49 34.92 34.92 0 0 0 4.41.19 1.999 1.999 0 0 0 1.77-3ZM12 9.3a6.571 6.571 0 0 0-.67.07 7.39 7.39 0 0 0-1 .19l-.33.07c-.23.07-.46.14-.69.23l-.26.1a8.265 8.265 0 0 0-1.63.88l-.1.06 4.21-7.29a.53.53 0 0 1 .94 0l.3.52.34.62c.037.064.07.131.1.2.09.16.18.33.26.5.08.17.07.13.11.2l.31.63a.357.357 0 0 0 0 .09c.24.52.48 1.07.69 1.63.319.857.563 1.74.73 2.64A4.78 4.78 0 0 0 12 9.3Z"/>
</svg>
