<svg xmlns="http://www.w3.org/2000/svg" width="24" height="24" fill="currentColor" viewBox="0 0 24 24">
  <path d="m2.08 12.1.79-1.77a1 1 0 0 1 1.28-.49l.89.39a7.26 7.26 0 0 0 6.18 0 11.08 11.08 0 0 1 9.32 0l.88.39a1 1 0 0 1 .5 1.28l-.79 1.77a1 1 0 0 1-1.28.49l-.85-.39a7.26 7.26 0 0 0-6.18 0 11.08 11.08 0 0 1-9.32 0l-.88-.39a1 1 0 0 1-.54-1.28Zm.5 8.17.88.39a11.12 11.12 0 0 0 9.32 0 7.26 7.26 0 0 1 6.18 0l.89.4a1 1 0 0 0 1.28-.49l.79-1.77a1 1 0 0 0-.5-1.28l-.88-.4a11.08 11.08 0 0 0-9.32 0 7.26 7.26 0 0 1-6.18 0l-.89-.39a1 1 0 0 0-1.28.49L2.08 19a1 1 0 0 0 .5 1.27Z" opacity=".3"/>
  <path d="m2.08 5.2.79-1.77a1 1 0 0 1 1.28-.49l.89.4a7.26 7.26 0 0 0 6.18 0 11.12 11.12 0 0 1 9.32 0l.88.39a1 1 0 0 1 .5 1.27l-.79 1.77a1 1 0 0 1-1.28.49L19 6.88a7.26 7.26 0 0 0-6.18 0 11.08 11.08 0 0 1-9.32 0l-.88-.4a1 1 0 0 1-.54-1.28Z"/>
</svg>
