<svg xmlns="http://www.w3.org/2000/svg" width="24" height="24" fill="currentColor" viewBox="0 0 24 24">
  <path d="M6.5 11.75a5.25 5.25 0 1 1 5.25-5.25 5.26 5.26 0 0 1-5.25 5.25Zm0-9a3.75 3.75 0 1 0 0 7.5 3.75 3.75 0 0 0 0-7.5Zm11 20a5.25 5.25 0 1 1 5.25-5.25 5.26 5.26 0 0 1-5.25 5.25Zm0-9a3.75 3.75 0 1 0 0 7.5 3.75 3.75 0 0 0 0-7.5Zm-11 9a5.25 5.25 0 1 1 5.25-5.25 5.26 5.26 0 0 1-5.25 5.25Zm0-9a3.75 3.75 0 1 0 0 7.5 3.75 3.75 0 0 0 0-7.5Zm11-2a5.25 5.25 0 1 1 5.25-5.25 5.26 5.26 0 0 1-5.25 5.25Zm0-9a3.75 3.75 0 1 0 0 7.5 3.75 3.75 0 0 0 0-7.5Z"/>
</svg>
