<svg xmlns="http://www.w3.org/2000/svg" width="24" height="24" fill="currentColor" viewBox="0 0 24 24">
  <path d="M19.5 18.66c.08-.11.16-.21.23-.32l.19-.29.2-.34.16-.3c.06-.12.12-.25.17-.38l.12-.28a7.58 7.58 0 0 0 .43-1.36.25.25 0 0 1 0-.08v-.19a9.93 9.93 0 0 0-1-5.69l-.07-.13c-.09-.18-.17-.35-.27-.52-.1-.17-.13-.23-.19-.34-.06-.11-.2-.35-.31-.52-.11-.17-.14-.22-.22-.33-.08-.11-.22-.34-.35-.51-.13-.17-.17-.23-.25-.34a7.58 7.58 0 0 0-.38-.49 22.52 22.52 0 0 0-3.85-3.66l-.26-.2c-.45-.33-.91-.65-1.4-1a.66.66 0 0 0-.45-.13.73.73 0 0 0-.35.09A24.29 24.29 0 0 0 7.34 4.8l-.13.14a17.24 17.24 0 0 0-3.16 4.44H4v.15c-.12.27-.23.54-.34.8l-.09.24c-.1.29-.19.59-.27.88v.13a9 9 0 0 0-.19 3.81c.66 3.65 3.78 6.26 8.79 7.34h.32c.34-.07.68-.15 1-.24l.27-.08.68-.21.3-.11.6-.22.29-.12.55-.25.27-.13.54-.3.22-.12c.22-.13.42-.27.62-.4l.08-.06.64-.49.17-.15.39-.37.22-.23.29-.33.15-.26Zm-.36-2.39a7.601 7.601 0 0 1-4.23 4l-.2.08 4.6-4.6c0 .1-.05.21-.08.31a1.468 1.468 0 0 0-.09.21ZM6.74 7.8l4.51 4.51v2.88L5.62 9.56A13.62 13.62 0 0 1 6.74 7.8Zm6.06-4.34c.32.23.64.48.95.73l-1 1V3.42l.05.04Zm3.52 3.16-3.57 3.57V7.31l2.14-2.14c.502.458.979.942 1.43 1.45Zm3.23 6.77-6.8 6.8v-2.88L19 11a8.42 8.42 0 0 1 .55 2.39Zm-6.8 1.8v-2.88l4.51-4.51c.413.562.784 1.154 1.11 1.77l-5.62 5.62Zm-2.5-11c.32-.26.65-.51 1-.76v1.76l-1-1Zm1 3.13v2.88L7.69 6.63c.445-.514.92-1.001 1.42-1.46l2.14 2.15Zm-6.8 6.08A8.83 8.83 0 0 1 5 11l6.27 6.27v2.88L4.45 13.4Zm.25 2.37 4.61 4.61a7.49 7.49 0 0 1-4.61-4.62v.01Z"/>
</svg>
