<svg xmlns="http://www.w3.org/2000/svg" width="24" height="24" fill="currentColor" viewBox="0 0 24 24">
  <path d="M22.74 8c.01-.06.01-.12 0-.18a.66.66 0 0 0 0-.15l-1.6-3.07A2.44 2.44 0 0 0 19 3.25h-6.82L8.33 1.33a.58.58 0 0 0-.14 0 .72.72 0 0 0-.19 0 1 1 0 0 0-.17 0 1 1 0 0 0-.17 0L4.6 2.86a2.44 2.44 0 0 0-1.35 2.19v6.77l-1.92 3.85v.15a.43.43 0 0 0 0 .36.45.45 0 0 0 0 .16l1.53 3.06a2.44 2.44 0 0 0 2.19 1.35h6.77l3.84 1.92a.68.68 0 0 0 .6 0l3.07-1.53A2.44 2.44 0 0 0 20.75 19v-6.82l1.92-3.84a.89.89 0 0 0 0-.16.58.58 0 0 0 .07-.18ZM19.8 5.27l1 2h-11l2.5-2.5H19a1 1 0 0 1 .8.5Zm-11 3.48h6.5v6.5H8.75l.05-6.5Zm0-2.56v-3l2 1-2 2Zm-4-1.14a1 1 0 0 1 .52-.85l2-1v10.98l-2.5-2.5-.02-6.63Zm-.6 8.22 2 2h-3l1-2Zm0 5.46-1-2h11l-2.5 2.5H5.05a1 1 0 0 1-.85-.5Zm11.05-.92v3l-2-1 2-2Zm4 1.14a1 1 0 0 1-.52.85l-2 1V9.81l2.5 2.5.02 6.64Zm.54-8.22-2-2h3l-1 2Z"/>
</svg>
