<svg xmlns="http://www.w3.org/2000/svg" width="24" height="24" fill="currentColor" viewBox="0 0 24 24">
  <path d="M19.79 10.12a1.71 1.71 0 0 0-1.51-.87h-5.53V3.61a1.71 1.71 0 0 0-3.19-.85L4.2 12.14a1.75 1.75 0 0 0 1.52 2.61h5.53v5.64A1.69 1.69 0 0 0 12.52 22a1.69 1.69 0 0 0 1.92-.8l5.36-9.38a1.719 1.719 0 0 0-.01-1.7ZM5.72 13.25a.26.26 0 0 1-.22-.12.27.27 0 0 1 0-.25l5.36-9.37A.2.2 0 0 1 11 3.4h.06a.19.19 0 0 1 .16.2v9.64l-5.5.01Zm12.78-2.13-5.36 9.37a.21.21 0 0 1-.39-.1v-9.64h5.53a.26.26 0 0 1 .22.12.27.27 0 0 1 0 .25Z"/>
</svg>
