<svg xmlns="http://www.w3.org/2000/svg" width="24" height="24" fill="currentColor" viewBox="0 0 24 24">
  <path d="M20.12 21h-5a.75.75 0 1 1 0-1.5h5A1 1 0 0 0 21 18L13.5 5a1.07 1.07 0 0 0-1.79 0L9.44 8.91a.75.75 0 1 1-1.29-.75l2.26-3.93a2.52 2.52 0 0 1 4.38 0l7.52 13a2.49 2.49 0 0 1 0 2.53A2.52 2.52 0 0 1 20.12 21Zm-8-1.27a2.49 2.49 0 0 0 0-2.53L9.08 12a2.52 2.52 0 0 0-4.38 0l-3 5.21a2.49 2.49 0 0 0 0 2.53A2.52 2.52 0 0 0 3.88 21h6a2.5 2.5 0 0 0 2.21-1.23l.03-.04ZM6 12.78a1.06 1.06 0 0 1 1.78 0l3 5.21a1 1 0 0 1 0 1 1 1 0 0 1-.89.52h-6A1 1 0 0 1 3 19a1 1 0 0 1 0-1l3-5.21v-.01Z"/>
</svg>
