<svg xmlns="http://www.w3.org/2000/svg" width="24" height="24" fill="currentColor" viewBox="0 0 24 24">
  <path d="M12 22.75a1.74 1.74 0 0 1-1.24-.51l-9-9a1.76 1.76 0 0 1 0-2.48l9-9a1.8 1.8 0 0 1 2.48 0l9 9a1.76 1.76 0 0 1 0 2.48l-9 9a1.739 1.739 0 0 1-1.24.51Zm0-20a.27.27 0 0 0-.18.07l-9 9a.27.27 0 0 0 0 .36l9 9a.22.22 0 0 0 .35 0l9-9a.27.27 0 0 0 0-.36l-9-9a.27.27 0 0 0-.17-.07Zm0 14.76a.79.79 0 0 1-.53-.22l-4.76-4.76a.75.75 0 0 1 0-1.06l4.76-4.76a.77.77 0 0 1 1.06 0l4.76 4.76a.75.75 0 0 1 0 1.06l-4.76 4.76a.79.79 0 0 1-.53.22ZM8.3 12l3.7 3.7 3.7-3.7L12 8.3 8.3 12Z"/>
</svg>
