<svg xmlns="http://www.w3.org/2000/svg" width="24" height="24" fill="currentColor" viewBox="0 0 24 24">
  <path d="M4 6.75a2.75 2.75 0 1 1 0-5.5 2.75 2.75 0 0 1 0 5.5Zm0-4a1.25 1.25 0 1 0 0 2.5 1.25 1.25 0 0 0 0-2.5Zm16 20a2.75 2.75 0 1 1 0-5.5 2.75 2.75 0 0 1 0 5.5Zm0-4a1.25 1.25 0 1 0 0 2.5 1.25 1.25 0 0 0 0-2.5Zm-8 4a2.75 2.75 0 1 1 0-5.5 2.75 2.75 0 0 1 0 5.5Zm0-4a1.25 1.25 0 1 0 0 2.5 1.25 1.25 0 0 0 0-2.5Zm-8 4a2.75 2.75 0 1 1 0-5.5 2.75 2.75 0 0 1 0 5.5Zm0-4a1.25 1.25 0 1 0 0 2.5 1.25 1.25 0 0 0 0-2.5Zm16-4a2.75 2.75 0 1 1 0-5.5 2.75 2.75 0 0 1 0 5.5Zm0-4a1.25 1.25 0 1 0 0 2.5 1.25 1.25 0 0 0 0-2.5Zm-8 4a2.75 2.75 0 1 1 0-5.5 2.75 2.75 0 0 1 0 5.5Zm0-4a1.25 1.25 0 1 0 0 2.5 1.25 1.25 0 0 0 0-2.5Zm-8 4a2.75 2.75 0 1 1 0-5.5 2.75 2.75 0 0 1 0 5.5Zm0-4a1.25 1.25 0 1 0 0 2.5 1.25 1.25 0 0 0 0-2.5Zm16-4a2.75 2.75 0 1 1 0-5.5 2.75 2.75 0 0 1 0 5.5Zm0-4a1.25 1.25 0 1 0 0 2.5 1.25 1.25 0 0 0 0-2.5Zm-8 4a2.75 2.75 0 1 1 0-5.5 2.75 2.75 0 0 1 0 5.5Zm0-4a1.25 1.25 0 1 0 0 2.5 1.25 1.25 0 0 0 0-2.5Z"/>
</svg>
