<svg xmlns="http://www.w3.org/2000/svg" width="24" height="24" fill="currentColor" viewBox="0 0 24 24">
  <path d="M23.19 10a8.56 8.56 0 0 0-8.37-8.72A8.33 8.33 0 0 0 7.64 5.5a8.64 8.64 0 0 0-4.27 2.33 8.733 8.733 0 1 0 13.75 10.52A8.68 8.68 0 0 0 23.19 10Zm-8.37 7.21A7.05 7.05 0 0 1 7.94 10v-.4a.75.75 0 1 0-1.5-.08V10a8.56 8.56 0 0 0 8.38 8.71H15c-.118.153-.245.3-.38.44A7.23 7.23 0 1 1 16.78 14a.75.75 0 1 0 1.5 0 8.72 8.72 0 0 0-8.67-8.72 6.79 6.79 0 0 1 5.21-2.52A7.06 7.06 0 0 1 21.69 10a7.05 7.05 0 0 1-6.87 7.19v.02Z"/>
</svg>
