<svg xmlns="http://www.w3.org/2000/svg" width="24" height="24" fill="currentColor" viewBox="0 0 24 24">
  <path d="m10.35 21.18-6.84-6.84a1.94 1.94 0 0 1-.42-2.13l.41-1A2 2 0 0 1 5.31 10h9.86l-4.35-4.35a1.76 1.76 0 0 1 0-2.48l.36-.35a1.75 1.75 0 0 1 2.47 0l6.84 6.84a1.94 1.94 0 0 1 .42 2.13l-.41 1A2 2 0 0 1 18.69 14H8.83l4.35 4.35a1.76 1.76 0 0 1 0 2.48l-.36.35a1.75 1.75 0 0 1-2.47 0Z" opacity=".3"/>
  <path d="M8.83 14h6.41l-4.7-4H5.31a2 2 0 0 0-1.81 1.21l-.41 1a1.94 1.94 0 0 0 .42 2.13l6.84 6.84a1.75 1.75 0 0 0 2.47 0l.36-.36a1.75 1.75 0 0 0 0-2.47L8.83 14Z"/>
</svg>
