<svg xmlns="http://www.w3.org/2000/svg" width="24" height="24" fill="currentColor" viewBox="0 0 24 24">
  <path d="M22.74 8a.65.65 0 0 0 0-.19.629.629 0 0 0 0-.07.861.861 0 0 0-.15-.22L17 1.92a2.29 2.29 0 0 0-1.62-.67H8a.65.65 0 0 0-.19 0h-.08a.7.7 0 0 0-.21.14L1.92 7a2.29 2.29 0 0 0-.67 1.62v7.43a.65.65 0 0 0 0 .19v.08c.04.076.091.147.15.21L7 22.08a2.33 2.33 0 0 0 1.62.67H16a.779.779 0 0 0 .53-.22L22.08 17a2.33 2.33 0 0 0 .67-1.62V8h-.01Zm-6.82-5 4.27 4.27H8.75V2.75h6.61a.79.79 0 0 1 .56.25Zm-.67 12.27h-6.5V8.75h6.5v6.52ZM2.75 8.64A.79.79 0 0 1 3 8.08l4.25-4.27v11.44h-4.5V8.64ZM8.08 21l-4.27-4.25h11.44v4.5H8.64a.79.79 0 0 1-.56-.25Zm13.17-5.66a.83.83 0 0 1-.23.56l-4.27 4.27V8.75h4.5v6.59Z"/>
</svg>
