<svg xmlns="http://www.w3.org/2000/svg" width="24" height="24" fill="currentColor" viewBox="0 0 24 24">
  <path d="M22 12v.71l-2.5-2.48-2.57 2.57c.049-.264.072-.532.07-.8a5 5 0 0 0-4.2-4.93L10.23 4.5 12.71 2A10 10 0 0 1 22 12Zm-10.8 4.93A5 5 0 0 1 7 12a4.25 4.25 0 0 1 .07-.8L4.5 13.77 2 11.29V12a10 10 0 0 0 9.29 10l2.48-2.47-2.57-2.6Z"/>
  <path d="M22 12.71A10 10 0 0 1 12 22h-.71l2.48-2.47-2.57-2.6c.264.049.532.072.8.07a5 5 0 0 0 4.93-4.2l2.57-2.57 2.5 2.48ZM10.23 4.5 12.71 2H12a10 10 0 0 0-10 9.29l2.5 2.48 2.57-2.57A5 5 0 0 1 12 7a4.25 4.25 0 0 1 .8.07L10.23 4.5Z" opacity=".3"/>
</svg>
