<svg xmlns="http://www.w3.org/2000/svg" width="24" height="24" fill="currentColor" viewBox="0 0 24 24">
  <path d="m21.82 10.76-5.29-5.29-3.29-3.29a1.74 1.74 0 0 0-2.48 0L5.47 7.47l-3.29 3.29a1.76 1.76 0 0 0 0 2.48l5.29 5.29 3.29 3.29a1.75 1.75 0 0 0 1.24.52 1.748 1.748 0 0 0 1.24-.52l5.29-5.29 3.29-3.29a1.738 1.738 0 0 0 0-2.48Zm-10-7.52a.25.25 0 0 1 .36 0L14.94 6l-3.47 3.47L10 10.94 7.06 8l4.76-4.76Zm.18 9.7-.94-.94.94-.94.94.94-.94.94Zm-8.76-1.12L6 9.06l3.47 3.47L10.94 14 8 16.94l-4.76-4.76a.25.25 0 0 1 0-.36Zm8.94 8.94a.209.209 0 0 1-.284.075.21.21 0 0 1-.076-.075L9.06 18l3.47-3.47L14 13.06 16.94 16l-4.76 4.76Zm8.58-8.58L18 14.94l-3.47-3.47L13.06 10 16 7.06l4.76 4.76a.25.25 0 0 1 0 .36Z"/>
</svg>
