<svg xmlns="http://www.w3.org/2000/svg" width="24" height="24" fill="currentColor" viewBox="0 0 24 24">
  <path d="M22.49 15.26a.73.73 0 0 0-.65-.38H9l2.89-5L14.23 14a.74.74 0 0 0 .65.37h5.81a.75.75 0 0 0 .65-1.12L16 4a2.789 2.789 0 0 0-2.41-1.39H8.94a.74.74 0 0 0-.65.39L1.78 14.24a2.78 2.78 0 0 0 0 2.79l2.31 4a.74.74 0 0 0 .65.38h13A2.811 2.811 0 0 0 20.18 20l2.31-4a.7.7 0 0 0 0-.74ZM14.68 4.73l4.71 8.15h-4.08l-4.7-8.15-.37-.64h3.33a1.31 1.31 0 0 1 1.11.64ZM3.08 15 8.94 4.84l2 3.53L4.82 19l-.08.13-1.66-2.85a1.29 1.29 0 0 1 0-1.28Zm15.8 4.27a1.3 1.3 0 0 1-1.12.65H6l2-3.53h12.54l-1.66 2.88Z"/>
</svg>
