<svg xmlns="http://www.w3.org/2000/svg" width="24" height="24" fill="currentColor" viewBox="0 0 24 24">
  <path d="M22 8.08a10.51 10.51 0 0 0-2.4-3.68A10.72 10.72 0 0 0 8.08 2 10.48 10.48 0 0 0 4.4 4.4 10.74 10.74 0 0 0 2 15.92a10.48 10.48 0 0 0 2.4 3.68A10.7 10.7 0 0 0 15.92 22a10.478 10.478 0 0 0 3.67-2.4A10.76 10.76 0 0 0 22 8.08Zm-3.46-2.62a9 9 0 0 1 1.88 2.72l-2.76 2.76-5.13-5.12L9.75 3a9.23 9.23 0 0 1 8.79 2.46ZM7.4 12 12 7.4l4.6 4.6-4.6 4.6L7.4 12ZM5.46 5.46a9 9 0 0 1 2.72-1.88l2.76 2.76-5.13 5.13L3 14.25a9.23 9.23 0 0 1 2.46-8.79Zm0 13.08a9 9 0 0 1-1.88-2.72l2.76-2.76L14.25 21a9.24 9.24 0 0 1-8.79-2.46Zm10.36 1.88-2.76-2.76 5.13-5.13L21 9.75a9.23 9.23 0 0 1-2.43 8.79 8.9 8.9 0 0 1-2.75 1.88Z"/>
</svg>
