<svg xmlns="http://www.w3.org/2000/svg" width="24" height="24" fill="currentColor" viewBox="0 0 24 24">
  <path d="M22.44 6.08a.72.72 0 0 0-.18-.83l-2.67-2.7a2.3 2.3 0 0 0-2.35-.58c-2.82 1-9.9.64-11-.26a.55.55 0 0 0-.15-.08.74.74 0 0 0-.84.18l-2.8 2.66a2.32 2.32 0 0 0-.58 2.35 17.38 17.38 0 0 1 .62 5.09c0 3.83-.71 5.67-.85 5.86a.551.551 0 0 0-.08.15.74.74 0 0 0 .18.84l2.69 2.7a2.3 2.3 0 0 0 2.34.58c2.82-1 9.9-.64 11 .26a.72.72 0 0 0 .48.17.75.75 0 0 0 .55-.24.555.555 0 0 0 .05-.08l2.67-2.64a2.3 2.3 0 0 0 .58-2.35c-1-2.82-.64-9.9.26-11a.555.555 0 0 0 .08-.08ZM17.7 3.32a.79.79 0 0 1 .8.21l2.14 2.17-.11.08-.38.22-.29.15-.24.1a14.85 14.85 0 0 1-3.67 1h-.07a27.65 27.65 0 0 1-3.88.23 26.94 26.94 0 0 1-3.36-.21v-.18c-.08-.46-.17-.9-.29-1.34 0-.18-.08-.35-.13-.52-.05-.17-.15-.36-.22-.53-.07-.17-.15-.45-.24-.7-.09-.25-.1-.25-.16-.38a25.84 25.84 0 0 0 10.1-.3Zm-2.51 11.87a30.726 30.726 0 0 0-6.36 0c.116-1.096.173-2.198.17-3.3a30.683 30.683 0 0 0-.16-3.1A30.37 30.37 0 0 0 12 9c1.066.002 2.13-.055 3.19-.17a30.234 30.234 0 0 0 0 6.36ZM3.5 5.53l2.21-2.18.06.09c.1.15.2.32.29.49.023.052.05.102.08.15.248.515.452 1.05.61 1.6v.22c.07.23.12.46.18.71.06.25 0 .22.07.33l.12.67.11.39c.18 1.279.266 2.569.26 3.86a28.642 28.642 0 0 1-.19 3.54c-.63.11-1.24.24-1.82.4h-.05c-.29.08-.56.17-.83.26h-.13c-.28.1-.55.21-.8.32H3.6a22.52 22.52 0 0 0 .4-4.47 18.72 18.72 0 0 0-.7-5.54.86.86 0 0 1 .2-.84Zm2.8 15.15a.81.81 0 0 1-.8-.21L3.35 18.3l.13-.08.25-.15L4 18l.33-.15.2-.09.41-.15h.14c.23-.08.47-.16.73-.23l.5-.14h.19l.63-.24h.09l.86-.15a27.426 27.426 0 0 1 7.31-.06c.155.903.379 1.792.67 2.66a.56.56 0 0 0 0 .12c.078.235.168.465.27.69l.06.16a25.88 25.88 0 0 0-10.09.26Zm14.16-2.18-2.16 2.15-.09-.14c0-.07-.09-.14-.13-.22l-.15-.3a2.377 2.377 0 0 1-.11-.23c-.06-.13-.12-.27-.17-.41l-.07-.18A16.703 16.703 0 0 1 16.8 16a27.559 27.559 0 0 1-.07-7.33c.92-.152 1.827-.38 2.71-.68h.06c.29-.1.59-.21.86-.33a25.879 25.879 0 0 0 .32 10.14.771.771 0 0 1-.22.7Z"/>
</svg>
