<svg xmlns="http://www.w3.org/2000/svg" width="24" height="24" fill="currentColor" viewBox="0 0 24 24">
  <path d="m12 6.36 4.89 2.82v5.64L12 17.64l-4.89-2.82V9.18L12 6.36ZM12 2a1.67 1.67 0 0 0-.84.22L4 6.39a1.67 1.67 0 0 0-.84 1.45v8.32A1.67 1.67 0 0 0 4 17.61l7.21 4.17a1.71 1.71 0 0 0 1.68 0l7.21-4.17a1.67 1.67 0 0 0 .84-1.45V7.84a1.67 1.67 0 0 0-.84-1.45l-7.26-4.17A1.67 1.67 0 0 0 12 2Z" opacity=".3"/>
  <path d="m20.05 6.39-7.21-4.17A1.75 1.75 0 0 0 12 2v4.37l4.88 2.81v5.64L12 17.63V22a1.65 1.65 0 0 0 .83-.23l7.21-4.16a1.67 1.67 0 0 0 .84-1.45V7.84a1.67 1.67 0 0 0-.83-1.45Z"/>
</svg>
