<svg xmlns="http://www.w3.org/2000/svg" width="24" height="24" fill="currentColor" viewBox="0 0 24 24">
  <path d="M21.31 6.62A10.77 10.77 0 1 0 2.65 17.38 10.77 10.77 0 0 0 21.31 6.62Zm-6.86 9.63H9.54L7.09 12l2.46-4.25h4.91L16.91 12l-2.46 4.25ZM2.75 12c0-1.164.22-2.318.65-3.4l4.41 7.65h-4A9.35 9.35 0 0 1 2.75 12Zm18.5 0a9.18 9.18 0 0 1-.65 3.4l-4.41-7.65h4A9.352 9.352 0 0 1 21.25 12Zm-2-5.75h-8.84l2-3.49a9.28 9.28 0 0 1 6.83 3.49h.01Zm-8.6-3.4L8.46 6.63 6.23 10.5 4.21 7a9.31 9.31 0 0 1 6.43-4.15h.01Zm-5.89 14.9h8.83l-2 3.49a9.25 9.25 0 0 1-6.83-3.49Zm8.6 3.4 2.18-3.77 2.23-3.86 2 3.49a9.31 9.31 0 0 1-6.41 4.14Z"/>
</svg>
