<svg xmlns="http://www.w3.org/2000/svg" width="24" height="24" fill="currentColor" viewBox="0 0 24 24">
  <path d="M17.38 2.69a10.94 10.94 0 0 0-10.76 0 10.76 10.76 0 0 0 0 18.62 10.73 10.73 0 0 0 14.668-3.937A10.76 10.76 0 0 0 17.36 2.69h.02Zm3.84 8.56h-3L15.76 7l1.5-2.61a9.329 9.329 0 0 1 3.96 6.86Zm-6.76 5H9.54L7.09 12l2.45-4.25h4.92L16.9 12l-2.44 4.25ZM16 3.64l-1.5 2.61H9.54L8 3.64a9.37 9.37 0 0 1 8 0Zm-9.22.75L8.24 7 5.8 11.25h-3a9.33 9.33 0 0 1 3.94-6.86h.04Zm-4 8.36h3L8.24 17l-1.5 2.61a9.331 9.331 0 0 1-3.96-6.86ZM8 20.36l1.5-2.61h4.92L16 20.36a9.37 9.37 0 0 1-8 0Zm9.22-.75L15.76 17l2.44-4.25h3a9.33 9.33 0 0 1-3.94 6.86h-.04Z"/>
</svg>
