<svg xmlns="http://www.w3.org/2000/svg" width="24" height="24" fill="currentColor" viewBox="0 0 24 24">
  <path d="M22.2 10a4.09 4.09 0 0 0-3.17-2 4.07 4.07 0 0 0-7-4.06 4.08 4.08 0 0 0-7.45 2.29A4 4 0 0 0 5 7.94a4.07 4.07 0 0 0 0 8.12 4 4 0 0 0-.39 1.71A4.08 4.08 0 0 0 12 20.12a4.05 4.05 0 0 0 4.39 1.6 4.1 4.1 0 0 0 2.89-5 3.732 3.732 0 0 0-.25-.66A4.06 4.06 0 0 0 22.2 10ZM14 4a2.58 2.58 0 0 1 2.58 4.47l-3.83 2.23V6.23A2.59 2.59 0 0 1 14 4Zm-5.33-.36a2.59 2.59 0 0 1 2.58 2.59v4.47L7.38 8.46a2.58 2.58 0 0 1 1.3-4.82h-.01ZM3.1 10.71a2.59 2.59 0 0 1 3.52-1L10.5 12l-3.88 2.24a2.58 2.58 0 0 1-3.52-3.53Zm5.57 9.65a2.58 2.58 0 0 1-1.3-4.82l3.87-2.24v4.47a2.59 2.59 0 0 1-2.57 2.59Zm8.9-1.3A2.55 2.55 0 0 1 16 20.27a2.58 2.58 0 0 1-3.25-2.5V13.3l3.87 2.24a2.56 2.56 0 0 1 .95 3.52ZM20 14.24a2.6 2.6 0 0 1-2.59 0L13.5 12l3.87-2.24A2.598 2.598 0 0 1 20 14.24Z"/>
</svg>
