<svg xmlns="http://www.w3.org/2000/svg" width="24" height="24" fill="currentColor" viewBox="0 0 24 24">
  <path d="M19.38 22.75c-.238 0-.473-.052-.69-.15l-1.77-.79a1.72 1.72 0 0 1-.92-2.26l.4-.89a6.53 6.53 0 0 0 0-5.58 11.82 11.82 0 0 1 0-9.92l.39-.89a1.75 1.75 0 0 1 1-.91 1.7 1.7 0 0 1 1.31 0l1.77.79a1.7 1.7 0 0 1 .91 1 1.73 1.73 0 0 1 0 1.32l-.39.88a6.56 6.56 0 0 0 0 5.58 11.78 11.78 0 0 1 0 9.92l-.39.89a1.75 1.75 0 0 1-1.62 1.01Zm-1-20h-.08a.23.23 0 0 0-.12.12l-.39.88a10.38 10.38 0 0 0 0 8.72 8 8 0 0 1 0 6.79l-.4.88a.23.23 0 0 0 .12.29l1.77.79a.23.23 0 0 0 .16 0 .23.23 0 0 0 .12-.12l.4-.89a10.36 10.36 0 0 0 0-8.71 8 8 0 0 1 0-6.79l.39-.88a.26.26 0 0 0 0-.17.27.27 0 0 0-.12-.12l-1.77-.79h-.08Zm-5.91 20c-.241 0-.48-.052-.7-.15L10 21.81a1.65 1.65 0 0 1-.9-.95 1.68 1.68 0 0 1 0-1.32l.4-.88a6.6 6.6 0 0 0 0-5.58 11.78 11.78 0 0 1 0-9.92l.4-.89a1.7 1.7 0 0 1 1-.91 1.73 1.73 0 0 1 1.32 0l1.78.83a1.71 1.71 0 0 1 .87 2.27l-.39.88a6.56 6.56 0 0 0 0 5.58 11.78 11.78 0 0 1 0 9.92l-.4.89a1.701 1.701 0 0 1-1 .91 1.89 1.89 0 0 1-.59.11h-.02Zm-.09-1.52a.2.2 0 0 0 .17 0 .18.18 0 0 0 .12-.11l.39-.89a10.32 10.32 0 0 0 0-8.71 8 8 0 0 1 0-6.79l.4-.88a.22.22 0 0 0-.11-.29l-1.75-.79a.26.26 0 0 0-.17 0 .23.23 0 0 0-.12.12l-.39.88a10.34 10.34 0 0 0 0 8.72 8 8 0 0 1 0 6.79l-.4.88a.2.2 0 0 0 0 .17.179.179 0 0 0 .11.12l1.75.78ZM5.6 22.75c-.242 0-.48-.05-.7-.15l-1.77-.79a1.71 1.71 0 0 1-.87-2.27l.39-.88a6.56 6.56 0 0 0 0-5.58 11.78 11.78 0 0 1 0-9.92L3 2.27a1.75 1.75 0 0 1 1-.91 1.7 1.7 0 0 1 1.31 0l1.77.79a1.7 1.7 0 0 1 .91 1c.17.416.174.881.01 1.3l-.4.89a6.53 6.53 0 0 0 0 5.58 11.82 11.82 0 0 1 0 9.92l-.39.89a1.75 1.75 0 0 1-1 .91 1.832 1.832 0 0 1-.61.11Zm-.09-1.52a.2.2 0 0 0 .17 0 .181.181 0 0 0 .12-.11l.39-.89a10.36 10.36 0 0 0 0-8.71 8 8 0 0 1 0-6.79l.4-.89a.21.21 0 0 0 0-.16.25.25 0 0 0-.11-.12L4.7 2.77a.23.23 0 0 0-.16 0 .23.23 0 0 0-.12.12L4 3.77a10.36 10.36 0 0 0 0 8.71 8 8 0 0 1 0 6.79l-.39.88a.22.22 0 0 0 .11.29l1.79.79Z"/>
</svg>
