<svg xmlns="http://www.w3.org/2000/svg" width="24" height="24" fill="currentColor" viewBox="0 0 24 24">
  <path d="M22.75 12a5.72 5.72 0 0 0-2.55-4.77 5.73 5.73 0 0 0-4.957-5.267A5.512 5.512 0 0 0 12 2.51a5.76 5.76 0 0 0-5.34.18A5.68 5.68 0 0 0 4 6.18c-.097.363-.16.735-.19 1.11a5.71 5.71 0 0 0 0 9.49 5.69 5.69 0 0 0 5.69 5.3 5.919 5.919 0 0 0 2.5-.59 5.71 5.71 0 0 0 8.19-4.78A5.74 5.74 0 0 0 22.75 12Zm-1.5 0a4.19 4.19 0 0 1-1.18 2.92 5.385 5.385 0 0 0-.22-.68s0-.08-.05-.13a5.399 5.399 0 0 0-.92-1.49l-.07-.09a5.544 5.544 0 0 0-.71-.66l-.12-.1a6.871 6.871 0 0 0-.81-.51l-.17-.07a5.526 5.526 0 0 0-.91-.35 4.25 4.25 0 0 0-1.55-2.23c.11-.082.223-.16.34-.23L15 8.3a4.21 4.21 0 0 1 4.15 0 4.25 4.25 0 0 1 2.1 3.7ZM11 14.56a2.73 2.73 0 0 1-1.7-2.12 2.12 2.12 0 0 1-.05-.44 2.76 2.76 0 0 1 1-2.12A2.66 2.66 0 0 1 13 9.44a2.71 2.71 0 0 1 1.73 2.12c.032.145.049.292.05.44a2.73 2.73 0 0 1-1 2.12 2.66 2.66 0 0 1-2.78.44Zm2.37-11a4.69 4.69 0 0 1 1.11-.14 4.18 4.18 0 0 1 2.14.58 4.13 4.13 0 0 1 1.94 2.48c-.23-.06-.46-.11-.7-.15h-.06a7 7 0 0 0-.8-.06 5.66 5.66 0 0 0-2.76.73 5.68 5.68 0 0 0-1.17.86 4.15 4.15 0 0 0-2.72.23 4.082 4.082 0 0 1 0-.78v-.22c.025-.2.065-.397.12-.59l.06-.23c.083-.258.194-.506.33-.74.12-.2.253-.39.4-.57l.22-.24.16-.15c.227-.214.475-.405.74-.57a4.55 4.55 0 0 1 1.02-.44h-.03Zm-8 3a4.23 4.23 0 0 1 4.1-3.14c.337.006.673.05 1 .13l-.13.14c-.1.11-.2.21-.29.32a5.19 5.19 0 0 0-.98 1.72.49.49 0 0 0 0 .11 4.42 4.42 0 0 0-.22.94v.16a5 5 0 0 0 0 .95 1 1 0 0 0 0 .17c.018.337.068.672.15 1v.05a4.22 4.22 0 0 0-1.16 2.46 4.088 4.088 0 0 1-.68-.38c-.07 0-.12-.09-.18-.13a4.396 4.396 0 0 1-.46-.4l-.16-.17a4.355 4.355 0 0 1-.48-.65 4.42 4.42 0 0 1-.29-.63c0-.1-.07-.2-.1-.31-.03-.11 0-.15 0-.23a4.19 4.19 0 0 1-.11-1 4.06 4.06 0 0 1 .02-1.1l-.03-.01ZM2.75 12a4.17 4.17 0 0 1 1.18-2.92l.07.17c0 .14.08.28.13.42a5.8 5.8 0 0 0 .4.88c.17.291.368.566.59.82l.08.1c.216.238.45.458.7.66l.14.1c.25.191.519.358.8.5l.15.08c.292.143.597.26.91.35a4.25 4.25 0 0 0 1.55 2.23 3.63 3.63 0 0 1-.32.22L9 15.7a4.19 4.19 0 0 1-4.14 0A4.22 4.22 0 0 1 2.75 12Zm7.85 8.44A4.24 4.24 0 0 1 7.37 20a4.12 4.12 0 0 1-1.93-2.48c.23.06.47.11.71.15A5.66 5.66 0 0 0 9.76 17a5.365 5.365 0 0 0 1.16-.86 4.08 4.08 0 0 0 2.72-.24 4.17 4.17 0 0 1 0 .79v.22c-.02.203-.06.404-.12.6l-.06.22c-.085.26-.196.511-.33.75a5.65 5.65 0 0 1-.4.56l-.22.24-.16.15a4.16 4.16 0 0 1-.78.58c-.305.18-.631.325-.97.43Zm6-.43a4.17 4.17 0 0 1-3.12.44c.04-.049.084-.096.13-.14.1-.11.2-.21.29-.32a6.13 6.13 0 0 0 .56-.78c.168-.3.309-.614.42-.94a.482.482 0 0 0 0-.11 4.46 4.46 0 0 0 .22-.94v-.16c.03-.316.03-.634 0-.95a.985.985 0 0 0 0-.17 5.312 5.312 0 0 0-.15-1v-.05a4.19 4.19 0 0 0 1.16-2.46c.238.105.466.232.68.38.07 0 .12.09.18.13.165.123.319.26.46.41l.16.16c.182.203.343.424.48.66.11.207.208.42.29.64.031.089.058.179.08.27 0 .1.05.21.08.31.056.29.086.585.09.88A4.23 4.23 0 0 1 16.62 20l-.02.01Z"/>
</svg>
