<svg xmlns="http://www.w3.org/2000/svg" width="24" height="24" fill="currentColor" viewBox="0 0 24 24">
  <path d="M12 22.75a3.499 3.499 0 0 1-1.31-.25l-8.21-3.29a1.95 1.95 0 0 1 0-3.62.752.752 0 0 1 1 .42A.74.74 0 0 1 3 17a.45.45 0 0 0-.28.42.44.44 0 0 0 .28.42l8.22 3.28a2 2 0 0 0 1.5 0l8.28-3.3a.44.44 0 0 0 0-.82.739.739 0 0 1-.42-1 .75.75 0 0 1 1-.42 1.95 1.95 0 0 1 0 3.62l-8.27 3.3a3.498 3.498 0 0 1-1.31.25Zm0-5.4a3.518 3.518 0 0 1-1.31-.26l-8.21-3.28a1.95 1.95 0 0 1 0-3.62l1-.39a.75.75 0 0 1 1 .41.76.76 0 0 1-.42 1l-1 .39a.44.44 0 0 0-.28.42.45.45 0 0 0 .28.42l8.22 3.28a2 2 0 0 0 1.5 0l8.22-3.3a.45.45 0 0 0 .28-.42.44.44 0 0 0-.28-.42l-1-.39a.75.75 0 1 1 .55-1.4l1 .4a1.95 1.95 0 0 1 0 3.62l-8.21 3.28a3.52 3.52 0 0 1-1.34.26ZM12 12a3.518 3.518 0 0 1-1.31-.26L2.48 8.41a1.95 1.95 0 0 1 0-3.62l8.21-3.29a3.54 3.54 0 0 1 2.62 0l8.21 3.29a1.95 1.95 0 0 1 0 3.62l-8.21 3.28A3.519 3.519 0 0 1 12 12Zm-.75-1.65a2 2 0 0 0 1.5 0L21 7a.45.45 0 0 0 .28-.42.44.44 0 0 0-.28-.4l-8.25-3.29a2 2 0 0 0-1.5 0L3 6.18A.44.44 0 0 0 3 7l8.25 3.35Z"/>
</svg>
