<svg xmlns="http://www.w3.org/2000/svg" width="24" height="24" fill="currentColor" viewBox="0 0 24 24">
  <path d="M22.66 9.43a1.82 1.82 0 0 0-1.75-1.27h-5.47L13.75 3a1.84 1.84 0 0 0-3.5 0L8.56 8.16H3.09A1.84 1.84 0 0 0 2 11.49l4.43 3.21-1.69 5.2A1.84 1.84 0 0 0 7.58 22L12 18.74 16.42 22a1.84 1.84 0 0 0 2.84-2.06l-1.69-5.2L22 11.49a1.82 1.82 0 0 0 .66-2.06Zm-11-6a.33.33 0 0 1 .64 0l1.54 4.74h-3.7l1.52-4.74Zm-2 6.24h4.7l1.45 4.47L12 16.89l-3.8-2.76 1.46-4.46Zm-6.76.61a.34.34 0 0 1 .2-.61h5L6.92 13.2 2.9 10.28Zm3.8 10.46a.32.32 0 0 1-.41 0 .32.32 0 0 1-.12-.38l1.54-4.73 3 2.19-4.01 2.92Zm11.13-.38a.34.34 0 0 1-.53.38l-4-2.92 3-2.19 1.53 4.73Zm3.28-10.09-4 2.93-1.18-3.54h5a.34.34 0 0 1 .2.61h-.02Z"/>
</svg>
