<svg xmlns="http://www.w3.org/2000/svg" width="24" height="24" fill="currentColor" viewBox="0 0 24 24">
  <path d="M13 22.75h-2A1.75 1.75 0 0 1 9.25 21v-3A1.75 1.75 0 0 1 11 16.25h2A1.76 1.76 0 0 1 14.75 18v3A1.75 1.75 0 0 1 13 22.75Zm-2-5a.25.25 0 0 0-.25.25v3a.25.25 0 0 0 .25.25h2a.25.25 0 0 0 .25-.25v-3a.25.25 0 0 0-.25-.25h-2Zm6.7-6.13c-.155 0-.31-.02-.46-.06a1.71 1.71 0 0 1-1.06-.82l-1-1.74a1.76 1.76 0 0 1 .64-2.39l2.6-1.5a1.76 1.76 0 0 1 1.33-.18 1.71 1.71 0 0 1 1.06.82l1 1.73a1.76 1.76 0 0 1-.64 2.39l-2.6 1.5a1.7 1.7 0 0 1-.87.25Zm1.59-5.24a.21.21 0 0 0-.12 0l-2.6 1.5a.25.25 0 0 0-.09.34l1 1.73a.229.229 0 0 0 .15.12.23.23 0 0 0 .19 0l2.6-1.5a.25.25 0 0 0 .09-.34l-1-1.73a.23.23 0 0 0-.15-.12h-.07Zm-13 5.24a1.7 1.7 0 0 1-.87-.24l-2.6-1.5a1.76 1.76 0 0 1-.64-2.39l1-1.73a1.75 1.75 0 0 1 2.39-.64l2.6 1.5A1.76 1.76 0 0 1 8.82 9l-1 1.73a1.71 1.71 0 0 1-1.06.82c-.15.043-.304.066-.46.07h-.01ZM4.71 6.38h-.07a.23.23 0 0 0-.15.12l-1 1.73a.23.23 0 0 0 0 .19.23.23 0 0 0 .12.15l2.6 1.5a.23.23 0 0 0 .19 0 .23.23 0 0 0 .12-.07l1-1.73a.25.25 0 0 0-.09-.34l-2.6-1.5a.21.21 0 0 0-.12-.05Zm14.58 12.74a1.7 1.7 0 0 1-.87-.24l-2.6-1.5a1.73 1.73 0 0 1-.82-1.06 1.77 1.77 0 0 1 .18-1.32l1-1.73a1.709 1.709 0 0 1 1.06-.82 1.76 1.76 0 0 1 1.33.18l2.6 1.5a1.76 1.76 0 0 1 .64 2.39l-1 1.73a1.71 1.71 0 0 1-1.06.82c-.15.036-.305.053-.46.05Zm-1.59-5.24h-.07a.23.23 0 0 0-.15.12l-1 1.73a.28.28 0 0 0 0 .19.27.27 0 0 0 .12.15l2.6 1.5a.23.23 0 0 0 .19 0 .23.23 0 0 0 .15-.12l1-1.73a.25.25 0 0 0-.09-.34l-2.6-1.5a.21.21 0 0 0-.15 0Zm-13 5.24a1.75 1.75 0 0 1-1.52-.88l-1-1.73a1.76 1.76 0 0 1 .64-2.39l2.6-1.5a1.74 1.74 0 0 1 2.39.64l1 1.73c.236.401.304.879.19 1.33a1.73 1.73 0 0 1-.81 1.06l-2.6 1.5a1.7 1.7 0 0 1-.88.24H4.7Zm1.6-5.24a.21.21 0 0 0-.12 0l-2.6 1.5a.25.25 0 0 0-.09.34l1 1.73a.25.25 0 0 0 .34.09l2.6-1.5a.27.27 0 0 0 .12-.15.23.23 0 0 0 0-.19L6.52 14a.23.23 0 0 0-.15-.12H6.3ZM13 7.75h-2A1.75 1.75 0 0 1 9.25 6V3A1.75 1.75 0 0 1 11 1.25h2A1.76 1.76 0 0 1 14.75 3v3A1.75 1.75 0 0 1 13 7.75Zm-2-5a.25.25 0 0 0-.25.25v3a.25.25 0 0 0 .25.25h2a.25.25 0 0 0 .25-.25V3a.25.25 0 0 0-.25-.25h-2Z"/>
</svg>
