<svg xmlns="http://www.w3.org/2000/svg" width="24" height="24" fill="currentColor" viewBox="0 0 24 24">
  <path d="M22.91 9.31h-4.7a3.39 3.39 0 0 1-3.28-3.62V.88l7.98 8.43ZM5.05 15a4.08 4.08 0 1 0 0 8.16 4.08 4.08 0 0 0 0-8.16Zm1.49 4.86H5.8v.73a.75.75 0 0 1-.8.71.77.77 0 0 1-.75-.75v-.73h-.71A.771.771 0 0 1 2.8 19a.79.79 0 0 1 .76-.75h.73v-.73a.77.77 0 0 1 1.53 0v.73h.73a.75.75 0 0 1 .74.77.76.76 0 0 1-.75.82v.02Z"/>
  <path d="M22.92 10.84h-4.71a4.91 4.91 0 0 1-4.77-5.15V.86h-4.9a5.67 5.67 0 0 0-5.6 5.73v9A3.9 3.9 0 0 1 5.05 15a4 4 0 0 1 4 4.08 4.16 4.16 0 0 1-.46 1.86h8.76a5.67 5.67 0 0 0 5.6-5.73l-.03-4.37Z" opacity=".3"/>
</svg>
