<svg xmlns="http://www.w3.org/2000/svg" width="24" height="24" fill="currentColor" viewBox="0 0 24 24">
  <path d="M19.03 8h-5.49a2.97 2.97 0 0 0-2.97 2.97v8.06A2.97 2.97 0 0 0 13.54 22h5.49A2.97 2.97 0 0 0 22 19.03v-8.06A2.97 2.97 0 0 0 19.03 8Z" opacity=".3"/>
  <path d="M9.07 11a4.47 4.47 0 0 1 4.36-4.46V5a3 3 0 0 0-3-3H5a3 3 0 0 0-3 3v8a3 3 0 0 0 3 3h4.1l-.03-5Zm9.06 3.25h-.88v-.88a.75.75 0 1 0-1.5 0v.88h-.88a.75.75 0 1 0 0 1.5h.88v.88a.75.75 0 1 0 1.5 0v-.88h.88a.75.75 0 1 0 0-1.5Z"/>
</svg>
