<svg xmlns="http://www.w3.org/2000/svg" width="24" height="24" fill="currentColor" viewBox="0 0 24 24">
  <path d="M20.5 9.75A1.76 1.76 0 0 0 22.25 8V6a1.76 1.76 0 0 0-1.75-1.75h-1.31a3.63 3.63 0 0 0-3.57-3H5.38a3.64 3.64 0 0 0-3.63 3.63v14.24a3.64 3.64 0 0 0 3.63 3.63h10.24a3.64 3.64 0 0 0 3.63-3.63v-3.37h1.25A1.76 1.76 0 0 0 22.25 14v-2a1.76 1.76 0 0 0-1.75-1.75h-1.25v-.5h1.25ZM20.75 6v2a.25.25 0 0 1-.25.25h-1.25v-2.5h1.25a.25.25 0 0 1 .25.25Zm-.25 5.75a.25.25 0 0 1 .25.25v2a.25.25 0 0 1-.25.25h-1.25v-2.5h1.25Zm-2.75-1.5v8.87a2.13 2.13 0 0 1-2.13 2.13H5.38a2.13 2.13 0 0 1-2.13-2.13V4.88a2.13 2.13 0 0 1 2.13-2.13h10.24a2.14 2.14 0 0 1 2.13 2.13v5.37Zm-7.25 1.26a2.75 2.75 0 1 0 0-5.5 2.75 2.75 0 0 0 0 5.5Zm0-4a1.25 1.25 0 1 1 0 2.5 1.25 1.25 0 0 1 0-2.5Zm0 4.74a5.26 5.26 0 0 0-4.93 3.12 1.56 1.56 0 0 0 .15 1.48 2.39 2.39 0 0 0 2.07.9h6a1.809 1.809 0 0 0 1.47-.75 1.721 1.721 0 0 0 .18-1.58 5.28 5.28 0 0 0-4.94-3.17Zm3.5 3.87a.34.34 0 0 1-.25.13h-6c-.53 0-.77-.15-.83-.32a3.76 3.76 0 0 1 3.54-2.18A3.76 3.76 0 0 1 14 15.93a.19.19 0 0 1 0 .19Z"/>
</svg>
