<svg xmlns="http://www.w3.org/2000/svg" width="24" height="24" fill="currentColor" viewBox="0 0 24 24">
  <path d="M18.5 11h2a1 1 0 0 1 1 1v2a1 1 0 0 1-1 1h-2v-4Zm3-5v2a1 1 0 0 1-1 1h-2V5h2a1 1 0 0 1 1 1Z"/>
  <path d="M15.62 22H5.38a2.88 2.88 0 0 1-2.88-2.88V4.88A2.88 2.88 0 0 1 5.38 2h10.24a2.88 2.88 0 0 1 2.88 2.88v14.24A2.88 2.88 0 0 1 15.62 22ZM10.5 7a2 2 0 1 0 0 4 2 2 0 0 0 0-4Zm3.27 9a1 1 0 0 0 1-1.34A4.51 4.51 0 0 0 10.5 12a4.52 4.52 0 0 0-4.24 2.65C6 15.3 6.53 16 7.79 16h5.98Z" opacity=".3"/>
</svg>
