<svg xmlns="http://www.w3.org/2000/svg" width="24" height="24" fill="currentColor" viewBox="0 0 24 24">
  <path d="m16.02 1.973-8.14.044A5.96 5.96 0 0 0 1.954 8.01l.044 8.08a5.96 5.96 0 0 0 5.992 5.928l8.14-.044a5.96 5.96 0 0 0 5.927-5.992l-.043-8.08a5.96 5.96 0 0 0-5.992-5.928Z" opacity=".3"/>
  <path d="m18.4 11-4.55-2a.46.46 0 0 1-.27-.42V6.15c0-.33-.129-.646-.36-.88l-.46-.47a1 1 0 0 0-1.43 0l-.46.47a1.25 1.25 0 0 0-.36.88v2.43a.45.45 0 0 1-.27.42L5.6 11a.68.68 0 0 0-.41.62v1.58a.68.68 0 0 0 .94.62l3.74-1.63a.461.461 0 0 1 .64.42v2.44a.46.46 0 0 1-.17.36l-1.76 1.45a.66.66 0 0 0-.23.51v1.49a.65.65 0 0 0 1.05.5l2.18-1.78a.62.62 0 0 1 .79 0l2.19 1.78a.65.65 0 0 0 1-.5v-1.49a.67.67 0 0 0-.24-.51l-1.62-1.32a.46.46 0 0 1-.17-.36v-2.51a.461.461 0 0 1 .64-.42l3.65 1.59a.68.68 0 0 0 .94-.62v-1.58a.68.68 0 0 0-.36-.64Z"/>
</svg>
