<svg xmlns="http://www.w3.org/2000/svg" width="24" height="25" fill="currentColor" viewBox="0 0 24 25">
  <path d="M14.8 9.79H9.2a2.77 2.77 0 0 0-2.76 2.76v5.62A2.76 2.76 0 0 0 9 20.91v1.31a1 1 0 1 0 2 0v-1.29h2v1.29a1 1 0 0 0 2 0v-1.31a2.76 2.76 0 0 0 2.53-2.74v-5.62a2.77 2.77 0 0 0-2.73-2.76Zm1.2 8.38a1.22 1.22 0 0 1-1.22 1.22H9.2A1.22 1.22 0 0 1 8 18.17v-5.62a1.22 1.22 0 0 1 1.2-1.22h5.6a1.22 1.22 0 0 1 1.2 1.22v5.62ZM4.81 12.6v4.12a1.03 1.03 0 1 1-2.06 0V12.6a1.03 1.03 0 0 1 2.06 0Zm16.44 0v4.12a1.03 1.03 0 1 1-2.06 0V12.6a1.03 1.03 0 1 1 2.06 0ZM9.61 8.66h4.15a2.49 2.49 0 0 0 2.53-2.43 4.61 4.61 0 0 0-9.21 0 2.48 2.48 0 0 0 2.53 2.43Zm2.07-5.37a3 3 0 0 1 3.07 3 1 1 0 0 1-1 .88H9.61a1 1 0 0 1-1-.89 3 3 0 0 1 3.07-2.99Z"/>
</svg>
