<svg xmlns="http://www.w3.org/2000/svg" width="24" height="25" fill="currentColor" viewBox="0 0 24 25">
  <path d="M11.89 23.25a4.111 4.111 0 0 1-2.09-.57l-4.54-2.65a4.141 4.141 0 0 1-2-3.21l-.78-8.54a4.16 4.16 0 0 1 2.64-4.23l5.29-2a4.19 4.19 0 0 1 3 0l5.29 2a4.16 4.16 0 0 1 2.6 4.23l-.76 8.54a4.149 4.149 0 0 1-2 3.21L14 22.68a4.11 4.11 0 0 1-2.11.57Zm0-20a2.74 2.74 0 0 0-.94.17L5.66 5.5A2.66 2.66 0 0 0 4 8.15l.76 8.54a2.63 2.63 0 0 0 1.29 2l4.54 2.66a2.64 2.64 0 0 0 2.66 0l4.54-2.66a2.649 2.649 0 0 0 1.29-2l.75-8.54a2.63 2.63 0 0 0-1.71-2.65l-5.29-2a2.74 2.74 0 0 0-.94-.25Zm5.35 13.1L12.57 6.5a.75.75 0 0 0-1.36 0l-4.49 9.86a.75.75 0 0 0 .38 1 .672.672 0 0 0 .31.07.75.75 0 0 0 .68-.44l1.23-2.7h5.28L15.89 17a.75.75 0 1 0 1.35-.64v-.01ZM10 12.78l1.9-4.18 2 4.18H10Z"/>
</svg>
