<svg xmlns="http://www.w3.org/2000/svg" width="24" height="25" fill="currentColor" viewBox="0 0 24 25">
  <path d="M12.93 7.85a1.52 1.52 0 0 1-1.403-.923 1.42 1.42 0 0 1-.097-.677 5.35 5.35 0 0 1 1.21-2.75A5.66 5.66 0 0 1 15 1.84a1.47 1.47 0 0 1 1.44.24A1.51 1.51 0 0 1 17 3.5a5.56 5.56 0 0 1-1.12 2.6 5 5 0 0 1-2.58 1.73 1.32 1.32 0 0 1-.37.02Zm2.6-4.6A4.21 4.21 0 0 0 13.8 4.5a3.8 3.8 0 0 0-.87 1.94 4 4 0 0 0 1.78-1.26 4 4 0 0 0 .82-1.93Zm-6.24 20c-1.73 0-3-1.57-3.83-2.92-2.24-3.44-2.7-7.76-1.08-10.27A5.61 5.61 0 0 1 8.9 7.35a6.29 6.29 0 0 1 2.21.47 4 4 0 0 0 1.36.33A4.66 4.66 0 0 0 14 7.79a5.72 5.72 0 0 1 2.3-.44 5.25 5.25 0 0 1 2.84 1.15 1.78 1.78 0 0 1 .69 1.34 1.69 1.69 0 0 1-.54 1.33 3.312 3.312 0 0 0-1 2.73 3.47 3.47 0 0 0 1.51 2.6 1.74 1.74 0 0 1 .64 2.21 12.75 12.75 0 0 1-.86 1.5c-1 1.51-2.21 3.05-3.89 3.07a3.23 3.23 0 0 1-1.69-.45 3.48 3.48 0 0 0-1.51-.33 3.35 3.35 0 0 0-1.56.37 3.609 3.609 0 0 1-1.64.38ZM8.9 8.85a4.1 4.1 0 0 0-3.29 2c-1.1 1.7-1.09 5.31 1.07 8.63.68 1 1.58 2.23 2.59 2.24.363.014.724-.061 1.05-.22a4.68 4.68 0 0 1 2.17-.51 4.54 4.54 0 0 1 2.14.51 2.69 2.69 0 0 0 1 .28c1 0 1.93-1.28 2.65-2.39.29-.427.548-.875.77-1.34a.21.21 0 0 0-.1-.28 5 5 0 0 1-2.22-3.73 4.801 4.801 0 0 1 1.5-4 .17.17 0 0 0 .06-.16.288.288 0 0 0-.1-.22 3.82 3.82 0 0 0-2-.82 4.37 4.37 0 0 0-1.7.36 6 6 0 0 1-2 .44 5.29 5.29 0 0 1-1.87-.42 4.8 4.8 0 0 0-1.72-.37Z"/>
</svg>
