<svg xmlns="http://www.w3.org/2000/svg" width="24" height="24" fill="currentColor" viewBox="0 0 24 24">
  <path d="M17.38 14.77a.77.77 0 1 0-1.09 1.09l1.7 1.7H7.28a2.33 2.33 0 1 1 0-4.65h9.6a3.87 3.87 0 1 0-.13-7.74H6l1.7-1.7a.774.774 0 0 0-1.09-1.1l-3 3a.81.81 0 0 0-.23.55.83.83 0 0 0 .23.55l3 3a.76.76 0 0 0 1.09 0 .76.76 0 0 0 0-1.09L6 6.7h10.75a2.33 2.33 0 1 1 0 4.66h-9.6a3.87 3.87 0 1 0 .13 7.74H18l-1.7 1.7a.771.771 0 0 0 0 1.09.76.76 0 0 0 1.09 0l3-3a.77.77 0 0 0 0-1.09l-3.01-3.03Z"/>
</svg>
