<svg xmlns="http://www.w3.org/2000/svg" width="24" height="24" fill="currentColor" viewBox="0 0 24 24">
  <path d="M7.14 9.58a.77.77 0 0 1-.55-.22l-3-3a.8.8 0 0 1 0-1.1l3-3a.774.774 0 1 1 1.1 1.09L5.22 5.79l2.47 2.47a.78.78 0 0 1 0 1.1.77.77 0 0 1-.55.22Zm10.27 12.19 3-3a.77.77 0 0 0 0-1.1l-3-3a.78.78 0 0 0-1.1 1.1l2.47 2.47-2.47 2.47a.77.77 0 0 0 .252 1.261.77.77 0 0 0 .848-.17v-.03Z"/>
  <path d="M18.89 17.43H7.3a2.33 2.33 0 1 1 0-4.65h9.6A3.89 3.89 0 1 0 16.78 5H5.17a.77.77 0 0 0 0 1.54h11.61a2.33 2.33 0 0 1 0 4.66H7.17A3.9 3.9 0 1 0 7.3 19h11.59a.77.77 0 0 0 .77-.77.78.78 0 0 0-.77-.8Z" opacity=".3"/>
</svg>
