<svg xmlns="http://www.w3.org/2000/svg" width="24" height="25" fill="currentColor" viewBox="0 0 24 25">
  <path d="M22.59 12.3v-.38a7.24 7.24 0 0 0-1.27-3.83.75.75 0 0 0-1-.22.719.719 0 0 0-.23 1 5.85 5.85 0 0 1 1 3v.39c0 1.34 0 2.5-.95 3.27-.188.17-.41.3-.65.38a.844.844 0 0 1-.23 0h-.44A23.73 23.73 0 0 1 16 15.5l-1.11-.22a6.2 6.2 0 0 0-3.85.42l-.21.13a2.34 2.34 0 0 1-.27.15h-.06c-.125.047-.257.07-.39.07a2.28 2.28 0 0 1-1.78-.76A2.17 2.17 0 0 1 8 13.43a.75.75 0 0 0-.84-.93 3.71 3.71 0 0 1-1.92-.19 3.77 3.77 0 0 1-1.67-1c-1.2-1.59-.23-3.52 1.18-4.63A10 10 0 0 1 7.3 5.26a.73.73 0 0 0 .266-1.201.76.76 0 0 0-.836-.169 11.52 11.52 0 0 0-2.92 1.68c-2 1.59-3.16 4.39-1.45 6.66a5 5 0 0 0 2.38 1.48 5.318 5.318 0 0 0 1.69.32 3.35 3.35 0 0 0 .72 2.27A3.78 3.78 0 0 0 10 17.59h.25a3.11 3.11 0 0 0 1 1.18c.22.15.46.29.69.43a5.26 5.26 0 0 1 1.75 1.39c.17.27.31.55.45.83.14.28.21.4.32.59a2.49 2.49 0 0 0 1 1.09c.223.114.47.172.72.17a1.43 1.43 0 0 0 1.24-.66 1.7 1.7 0 0 0 .19-.92v-.26c0-.58-.08-1.25.24-1.54.147-.118.3-.228.46-.33a3 3 0 0 0 1.15-1.1 5.39 5.39 0 0 0 .43-1.06 3.43 3.43 0 0 0 1.15-.63c1.61-1.27 1.57-2.96 1.55-4.47Zm-4.42 5.47a1.87 1.87 0 0 1-.63.54 3.94 3.94 0 0 0-.66.48 3.111 3.111 0 0 0-.73 2.71v.24a1.38 1.38 0 0 1-.37-.47l-.29-.54a9.134 9.134 0 0 0-.53-1 6.61 6.61 0 0 0-2.22-1.85l-.63-.38a1.59 1.59 0 0 1-.43-.46l.09-.06a4.74 4.74 0 0 1 2.82-.24l1.08.21 1.38.26.42.07c.29 0 .57.09.86.12l-.16.37ZM7.57 6.87l1.76-1.82V2.64a.75.75 0 1 1 1.5 0v2.71a.75.75 0 0 1-.21.51L8.75 7.78c.183.302.28.647.28 1a2 2 0 1 1-2-2 2 2 0 0 1 .54.09Zm4.51 2.87c.207.002.413.036.61.1l.64-.71V2.64a.75.75 0 0 1 1.5 0v6.77a.73.73 0 0 1-.19.49l-.8.89c.156.282.239.598.24.92a2 2 0 1 1-2-2v.03Zm4 2.95a2 2 0 0 1 1.25-1.82V2.64a.75.75 0 0 1 1.5 0v8.23a2 2 0 0 1 1.25 1.82 2 2 0 1 1-4 0Z"/>
</svg>
