<svg xmlns="http://www.w3.org/2000/svg" width="24" height="24" fill="currentColor" viewBox="0 0 24 24">
  <path d="M20.1 15.84c1.32-1.06 1.17-2.59 1.15-4.1a7 7 0 0 0-1.87-4.36 10.24 10.24 0 0 0-3.57-2.72A12.3 12.3 0 0 0 11.72 4 10.3 10.3 0 0 0 4.6 6.17C3 7.47 2 9.75 3.36 11.61a4.06 4.06 0 0 0 1.91 1.19 4.351 4.351 0 0 0 2.2.2 2.83 2.83 0 0 0 .4 2.5 2.87 2.87 0 0 0 2.26 1c.233-.003.463-.047.68-.13.186-.1.366-.21.54-.33a5 5 0 0 1 3.16-.31c1.267.288 2.549.505 3.84.65.285.045.575.045.86 0 .33-.118.633-.302.89-.54Z" opacity=".3"/>
  <path d="M18.84 16.38a3.602 3.602 0 0 1-.43 1.33c-.31.57-.92.76-1.38 1.17-.61.57-.48 1.55-.44 2.29a1.06 1.06 0 0 1-.09.5.72.72 0 0 1-.92.2 1.79 1.79 0 0 1-.68-.76c-.26-.47-.47-1-.76-1.41a7.94 7.94 0 0 0-2.5-2 2.52 2.52 0 0 1-.94-1.35h.11c.186-.1.366-.21.54-.33a5 5 0 0 1 3.16-.31c1.267.288 2.55.505 3.84.65.163.017.327.023.49.02ZM7.21 10.59a1.9 1.9 0 1 0 0-3.8 1.9 1.9 0 0 0 0 3.8ZM12 13.43a1.9 1.9 0 1 0 0-3.8 1.9 1.9 0 0 0 0 3.8Zm5.69.95a1.9 1.9 0 1 0 0-3.8 1.9 1.9 0 0 0 0 3.8Z"/>
  <path d="M7.21 9.18a.75.75 0 0 1-.54-1.27L9.35 5.1V2.79a.75.75 0 1 1 1.5 0V5.4a.75.75 0 0 1-.2.52L7.75 9a.76.76 0 0 1-.54.18ZM12 12.22a.75.75 0 0 1-.56-1.22l1.71-2V2.79a.75.75 0 1 1 1.5 0v6.53a.78.78 0 0 1-.19.5L12.56 12a.728.728 0 0 1-.56.22Zm5.69 1.01a.76.76 0 0 1-.75-.75V2.79a.75.75 0 1 1 1.5 0v9.69a.75.75 0 0 1-.75.75Z"/>
</svg>
