<svg xmlns="http://www.w3.org/2000/svg" width="24" height="24" fill="currentColor" viewBox="0 0 24 24">
  <path d="m10.59 21.64-5-2.81a2.94 2.94 0 0 1-1.49-2.54v-5.71A3 3 0 0 1 5.53 8l4.93-2.9a3 3 0 0 1 2.95 0l5 2.81a3 3 0 0 1 1.49 2.55l.05 5.71a3 3 0 0 1-1.45 2.57l-4.93 2.89a2.94 2.94 0 0 1-2.98.01Z" opacity=".3"/>
  <path d="M10.46 5.11a3 3 0 0 1 2.95 0l4.4 2.49V4.91A2.94 2.94 0 0 0 14.87 2H9.13a2.94 2.94 0 0 0-2.94 2.91v2.71l4.27-2.51ZM13.21 16l-1-.35a.69.69 0 0 0-.47 0l-1 .34a.699.699 0 0 1-.93-.68v-1.05a.74.74 0 0 0-.15-.45L9.08 13a.7.7 0 0 1 .36-1.1l1-.3a.69.69 0 0 0 .38-.27l.6-.86a.7.7 0 0 1 1.16 0l.59.87a.66.66 0 0 0 .38.27l1 .31a.7.7 0 0 1 .35 1.1l-.64.83a.67.67 0 0 0-.14.45v1a.701.701 0 0 1-.91.7Z"/>
</svg>
