<svg xmlns="http://www.w3.org/2000/svg" width="24" height="25" fill="currentColor" viewBox="0 0 24 25">
  <path d="M7.77 23.25a2.25 2.25 0 0 1-1.1-.28 12.94 12.94 0 0 1-5.12-5.15 2.27 2.27 0 0 1 .36-2.73L14.59 2.41a2.27 2.27 0 0 1 2.79-.33 14.56 14.56 0 0 1 5.05 5 2.27 2.27 0 0 1-.34 2.76L9.37 22.59a2.26 2.26 0 0 1-1.6.66Zm-.38-1.6a.77.77 0 0 0 .92-.15L21 8.81a.77.77 0 0 0 .11-.94 13 13 0 0 0-4.54-4.5.77.77 0 0 0-1 .1L3 16.15a.8.8 0 0 0-.12.94 11.45 11.45 0 0 0 4.54 4.56h-.03Zm8.54-9.53a1 1 0 1 1-1.399-1.432 1 1 0 0 1 1.399 1.432Zm-2.14-3.57a1 1 0 1 0-1.399 1.43 1 1 0 0 0 1.399-1.43Zm0 4.28a1 1 0 1 0-1.399 1.431 1 1 0 0 0 1.399-1.431Zm-2.14-2.14a1 1 0 1 0-1.399 1.431 1 1 0 0 0 1.399-1.431Zm0 4.28a1 1 0 1 0-1.399 1.431 1 1 0 0 0 1.399-1.431Zm-2.14-2.14a1 1 0 1 0-1.399 1.43 1 1 0 0 0 1.399-1.43Z"/>
</svg>
