<svg xmlns="http://www.w3.org/2000/svg" width="24" height="25" fill="currentColor" viewBox="0 0 24 25">
  <path d="M18.36 20.4h-1.53a1.63 1.63 0 0 1-1.62-1.63v-8.16h-.83v8.16a1.62 1.62 0 0 1-1.62 1.63h-1.52a1.62 1.62 0 0 1-1.62-1.63v-8.16h-.95v8.16A1.63 1.63 0 0 1 7 20.4H5.52a1.62 1.62 0 0 1-1.62-1.63v-8.16h-.49a2.1 2.1 0 0 1-2.09-1.45 1.79 1.79 0 0 1 .86-2l7.73-4.82a4 4 0 0 1 4.18 0l7.73 4.77a1.79 1.79 0 0 1 .86 2.05 2.1 2.1 0 0 1-2.09 1.45H20v8.16a1.629 1.629 0 0 1-1.64 1.63ZM13.63 9.11H16a.74.74 0 0 1 .75.75v8.91a.13.13 0 0 0 .12.13h1.53a.118.118 0 0 0 .089-.039.12.12 0 0 0 .031-.091V9.86a.75.75 0 0 1 .75-.75h1.36c.38 0 .6-.18.65-.36.05-.18 0-.26-.21-.37L13.3 3.62a2.44 2.44 0 0 0-2.6 0L3 8.38c-.18.11-.25.23-.21.37.04.14.27.36.65.36h1.21a.75.75 0 0 1 .75.75v8.91a.12.12 0 0 0 .12.13H7a.13.13 0 0 0 .13-.13V9.86a.74.74 0 0 1 .75-.75h2.45a.75.75 0 0 1 .75.75v8.91a.12.12 0 0 0 .12.13h1.52a.118.118 0 0 0 .089-.039.12.12 0 0 0 .031-.091V9.86a.75.75 0 0 1 .79-.75ZM22 22.52a.75.75 0 0 0-.75-.75H2.39a.75.75 0 1 0 0 1.5h18.85a.76.76 0 0 0 .76-.75Z"/>
</svg>
