<svg xmlns="http://www.w3.org/2000/svg" width="24" height="24" fill="currentColor" viewBox="0 0 24 24">
  <path d="M19.94 5.56H4.06A2.11 2.11 0 0 0 2 7.72a2.11 2.11 0 0 0 2.06 2.16h15.88A2.11 2.11 0 0 0 22 7.72a2.112 2.112 0 0 0-2.06-2.16Z" opacity=".3"/>
  <path d="m4.06 9.88 1.5 9.33A3.33 3.33 0 0 0 8.79 22h6.51a3.32 3.32 0 0 0 3.23-2.82l1.41-9.3H4.06Zm6.36 7.49a.75.75 0 1 1-1.5 0v-3.61a.75.75 0 1 1 1.5 0v3.61Zm4.65 0a.75.75 0 1 1-1.5 0v-3.61a.75.75 0 1 1 1.5 0v3.61ZM17.9 6.81a.74.74 0 0 1-.63-.35l-1.95-3a.74.74 0 0 1 .23-1 .76.76 0 0 1 1 .22l1.95 3.05a.75.75 0 0 1-.23 1 .78.78 0 0 1-.37.08ZM6 6.82a.71.71 0 0 1-.4-.11.75.75 0 0 1-.23-1l2-3a.74.74 0 0 1 1-.23.76.76 0 0 1 .23 1l-1.95 3a.74.74 0 0 1-.65.34Z"/>
</svg>
