<svg xmlns="http://www.w3.org/2000/svg" width="24" height="25" fill="currentColor" viewBox="0 0 24 25">
  <path d="M22 14.13c0-.3-.1-.6-.1-.8a4 4 0 0 0-.7-1.9 4 4 0 0 0-1.6-1.3 4.48 4.48 0 0 0-2-.4 4.48 4.48 0 0 0-4.6 4.9 4.31 4.31 0 0 0 1.4 3.6 5.17 5.17 0 0 0 3.2 1.1 4.87 4.87 0 0 0 3.9-2 .63.63 0 0 0-.5-1h-.6a1.59 1.59 0 0 0-1.2.4 2.4 2.4 0 0 1-1.5.6 2.77 2.77 0 0 1-1.3-.3 2.151 2.151 0 0 1-1-1.9H21a.941.941 0 0 0 1-1Zm-6.6-.63a2 2 0 0 1 .6-1.4 2.46 2.46 0 0 1 1.5-.5 2.39 2.39 0 0 1 1.4.5 2 2 0 0 1 .6 1.4h-4.1Zm-5.1-1.1a2.18 2.18 0 0 0 .9-.7 2.79 2.79 0 0 0 .6-1.8 2.88 2.88 0 0 0-.6-1.9A3.94 3.94 0 0 0 8 6.83H3a.94.94 0 0 0-1 1v10.2a.94.94 0 0 0 1 1h4.6a8.807 8.807 0 0 0 1.7-.2 3.51 3.51 0 0 0 1.4-.6c.376-.256.684-.6.9-1a3.08 3.08 0 0 0 .6-1.9 3.45 3.45 0 0 0-.5-1.8 2.59 2.59 0 0 0-1.4-1.1v-.03ZM4.5 8.93h2.6a6.05 6.05 0 0 1 1.5.2 1 1 0 0 1 .7 1.1 1.29 1.29 0 0 1-.5 1.1 2.5 2.5 0 0 1-1.3.3h-3v-2.7Zm4.3 7.8a4.48 4.48 0 0 1-1.3.2h-3v-3.3l3.1.1c.408 0 .814.068 1.2.2a1.34 1.34 0 0 1 .8 1.3 1.65 1.65 0 0 1-.8 1.5Zm5.95-9.1a.79.79 0 0 1 .8-.8h3.8a.8.8 0 1 1 0 1.6h-3.8c-.4 0-.7-.3-.8-.8Z"/>
</svg>
