<svg xmlns="http://www.w3.org/2000/svg" width="24" height="25" fill="currentColor" viewBox="0 0 24 25">
  <path d="M18.74 19.84H5.26a3.77 3.77 0 0 1-3.76-3.76V8.92a3.77 3.77 0 0 1 3.76-3.76h13.48a3.77 3.77 0 0 1 3.76 3.76v7.16a3.77 3.77 0 0 1-3.76 3.76ZM5.26 6.66A2.26 2.26 0 0 0 3 8.92v7.16a2.26 2.26 0 0 0 2.26 2.26h13.48A2.26 2.26 0 0 0 21 16.08V8.92a2.26 2.26 0 0 0-2.26-2.26H5.26Z"/>
  <path d="M5.68 11.69a.81.81 0 1 0 0 1.618.81.81 0 0 0 0-1.618Zm12.47 0a.81.81 0 1 0 .81.81.82.82 0 0 0-.81-.81ZM12 16.41a3.83 3.83 0 0 1-3.61-4 3.83 3.83 0 0 1 3.61-4 3.83 3.83 0 0 1 3.62 4 3.84 3.84 0 0 1-3.62 4Zm0-6.53a2.34 2.34 0 0 0-2.11 2.51A2.34 2.34 0 0 0 12 14.91a2.35 2.35 0 0 0 2.12-2.52A2.34 2.34 0 0 0 12 9.88Z"/>
</svg>
