<svg xmlns="http://www.w3.org/2000/svg" width="24" height="24" fill="currentColor" viewBox="0 0 24 24">
  <path d="M12 15a1.47 1.47 0 0 1-1-.42L9.42 13a1.45 1.45 0 0 1 0-2L11 9.41a1.48 1.48 0 0 1 2 0L14.55 11a1.45 1.45 0 0 1 0 2L13 14.59a1.46 1.46 0 0 1-1 .41Zm-.05-4.54L10.49 12 12 13.53 13.46 12l-1.51-1.54ZM4.24 15a1.44 1.44 0 0 1-1-.43L1.67 13a1.46 1.46 0 0 1 0-2l1.54-1.59a1.44 1.44 0 0 1 1-.43 1.41 1.41 0 0 1 1 .43L6.8 11a1.46 1.46 0 0 1 0 2l-1.54 1.58a1.41 1.41 0 0 1-1 .43L4.24 15Zm0-4.55L2.74 12l1.54 1.5L5.71 12l-1.47-1.55ZM19.74 15a1.48 1.48 0 0 1-1-.43L17.17 13a1.45 1.45 0 0 1 0-2l1.55-1.6a1.46 1.46 0 0 1 2 0L22.3 11a1.46 1.46 0 0 1 0 2l-1.54 1.56a1.46 1.46 0 0 1-1.02.44Zm0-4.55L18.23 12l1.55 1.49L21.2 12l-1.46-1.55Zm-11.86-.06a1.44 1.44 0 0 1-1-.43l-1.1-1.1a1.46 1.46 0 0 1 0-2l5-5.06a1.73 1.73 0 0 1 2.42 0l5 5.06a1.45 1.45 0 0 1 0 2L17.11 10a1.47 1.47 0 0 1-2 0L12 6.82 8.9 10a1.44 1.44 0 0 1-1.02.39ZM12 2.75a.21.21 0 0 0-.15.06l-5 5.06 1.08 1 3-3.16a1.46 1.46 0 0 1 2 0l3.2 3.19 1-1.1-5-5a.2.2 0 0 0-.13-.05Zm0 20a1.668 1.668 0 0 1-1.21-.51l-5-5.07a1.47 1.47 0 0 1 0-2L6.85 14a1.47 1.47 0 0 1 2 0L12 17.21 15.08 14a1.41 1.41 0 0 1 1-.43 1.44 1.44 0 0 1 1 .43l1.08 1.1a1.47 1.47 0 0 1 0 2l-5 5.07a1.7 1.7 0 0 1-1.16.58Zm-4.18-7.67-1 1.1 5 5a.18.18 0 0 0 .226.054.18.18 0 0 0 .064-.054l5-5.08-1-1L13 18.26a1.46 1.46 0 0 1-2 0l-3.18-3.18Z"/>
</svg>
