<svg xmlns="http://www.w3.org/2000/svg" width="24" height="24" fill="currentColor" viewBox="0 0 24 24">
  <path d="M12.15 19.32a.76.76 0 0 1-.33-.08.73.73 0 0 1-.42-.67v-4.49l-2.91 2.69a.75.75 0 0 1-1.06-1.06L11.4 12v-.1L7.48 8.44a.75.75 0 0 1 1-1.12l2.92 2.61V5.27a.75.75 0 0 1 1.21-.59l4.17 3.24a.76.76 0 0 1 .29.56.75.75 0 0 1-.24.58L13.68 12l3.14 2.81a.78.78 0 0 1 .25.58.8.8 0 0 1-.29.57l-4.17 3.23a.74.74 0 0 1-.46.13Zm.75-6V17l2.25-1.75-2.25-1.93Zm0-6.48v3.85l2.26-2.09-2.26-1.76Z"/>
  <path d="M16.75 2H7.24A5.24 5.24 0 0 0 2 7.24v9.51a5.24 5.24 0 0 0 5.24 5.24h9.51a5.24 5.24 0 0 0 5.24-5.24V7.24A5.24 5.24 0 0 0 16.75 2Z" opacity=".3"/>
</svg>
