<svg xmlns="http://www.w3.org/2000/svg" width="24" height="24" fill="currentColor" viewBox="0 0 24 24">
  <path d="M21.87 2.47a2.62 2.62 0 0 0-1.53-.61 2 2 0 0 0-.35 0h-.21a22.34 22.34 0 0 0-7.33 2.66.92.92 0 0 1-.4.11.76.76 0 0 1-.44-.13A21.2 21.2 0 0 0 4.2 2a2.53 2.53 0 0 0-2.05.58 2.56 2.56 0 0 0-.9 2v12.3a2.5 2.5 0 0 0 2.13 2.5 26.613 26.613 0 0 1 7.52 2.54 2.45 2.45 0 0 0 1.71.14c.193-.04.38-.1.56-.18a25.53 25.53 0 0 1 7.5-2.47 2.52 2.52 0 0 0 2.08-2.5V4.39a2.52 2.52 0 0 0-.88-1.92ZM3.61 17.9a1 1 0 0 1-.86-1V4.47a1.06 1.06 0 0 1 .38-.81 1 1 0 0 1 .66-.25H4a19.72 19.72 0 0 1 6.86 2.41c.138.079.286.14.44.18v14.43a27.79 27.79 0 0 0-7.69-2.53Zm17.64-1a1 1 0 0 1-.83 1c-.71.12-1.41.27-2.1.44l-.6.17c-.47.12-.94.25-1.4.4-.25.08-.49.18-.73.27-.4.14-.79.28-1.18.44-.39.16-.49.22-.74.34-.25.12-.62.26-.92.41V6c.15-.052.294-.119.43-.2a23 23 0 0 1 5.18-2.1c.56-.14 1.1-.25 1.65-.34a1.08 1.08 0 0 1 .88.25.999.999 0 0 1 .36.78V16.9ZM4.72 8.26a.77.77 0 0 1 .75-.75h2.27a.75.75 0 1 1 0 1.5H5.47a.76.76 0 0 1-.75-.75Zm4.53 3a.76.76 0 0 1-.75.74h-3a.75.75 0 1 1 0-1.5h3a.76.76 0 0 1 .75.77v-.01Z"/>
</svg>
