<svg xmlns="http://www.w3.org/2000/svg" width="24" height="24" fill="currentColor" viewBox="0 0 24 24">
  <path d="M23.32 10.66a3 3 0 0 1-3-3v-1.1A3.56 3.56 0 0 0 16.76 3H7.92a3.56 3.56 0 0 0-3.56 3.56v1.11a3 3 0 0 1-3 3v2.63a3 3 0 0 1 3 3v1.16A3.56 3.56 0 0 0 7.92 21h8.84a3.56 3.56 0 0 0 3.56-3.56v-1.16a3 3 0 0 1 3-3v-2.62Z" opacity=".3"/>
  <path d="M13 12.81h-2.9a.75.75 0 0 1-.75-.75V7.93a.74.74 0 0 1 .75-.75H13a2.82 2.82 0 0 1 0 5.63Zm-2.15-1.5H13a1.32 1.32 0 0 0 0-2.63h-2.15v2.63Z"/>
  <path d="M13 16.93h-2.9a.74.74 0 0 1-.75-.75v-4.12a.74.74 0 0 1 .75-.75H13a2.81 2.81 0 0 1 0 5.62Zm-2.15-1.5H13a1.31 1.31 0 0 0 0-2.62h-2.15v2.62Z"/>
</svg>
