<svg xmlns="http://www.w3.org/2000/svg" width="24" height="25" fill="currentColor" viewBox="0 0 24 25">
  <path d="M23 10.41a2.25 2.25 0 0 1-2.24-2.24V7.06a4.31 4.31 0 0 0-4.31-4.31H7.58a4.31 4.31 0 0 0-4.31 4.31v1.11A2.24 2.24 0 0 1 1 10.41a.741.741 0 0 0-.75.75v2.63a.75.75 0 0 0 .75.71 2.24 2.24 0 0 1 2.24 2.24v1.16a4.31 4.31 0 0 0 4.31 4.31h8.84a4.31 4.31 0 0 0 4.31-4.31v-1.12A2.25 2.25 0 0 1 23 14.5a.74.74 0 0 0 .75-.75v-2.59a.74.74 0 0 0-.75-.75Zm-.75 2.71a3.75 3.75 0 0 0-3 3.66v1.16a2.81 2.81 0 0 1-2.81 2.81H7.58a2.81 2.81 0 0 1-2.81-2.81v-1.16a3.75 3.75 0 0 0-3-3.66v-1.29a3.75 3.75 0 0 0 3-3.66V7.06a2.81 2.81 0 0 1 2.81-2.81h8.84a2.81 2.81 0 0 1 2.81 2.81v1.11a3.75 3.75 0 0 0 3 3.66l.02 1.29Zm-6.78-2.62a2.81 2.81 0 0 0-2.82-2.81h-2.9a.75.75 0 0 0-.75.74v8.25a.75.75 0 0 0 .75.75h2.9a2.81 2.81 0 0 0 2.82-2.81 2.78 2.78 0 0 0-.92-2.06 2.819 2.819 0 0 0 .92-2.06ZM14 14.62a1.32 1.32 0 0 1-1.32 1.31H10.5v-2.62h2.15A1.31 1.31 0 0 1 14 14.62Zm-3.5-2.81V9.18h2.15a1.32 1.32 0 1 1 0 2.63H10.5Z"/>
</svg>
