<svg xmlns="http://www.w3.org/2000/svg" width="24" height="24" fill="currentColor" viewBox="0 0 24 24">
  <path d="M10 15.45a.75.75 0 0 1 .22-1l1.08-.69v-1.15a.75.75 0 0 1 1.5 0v1.52a.769.769 0 0 1-.34.63l-1.46.91a.65.65 0 0 1-.4.12.74.74 0 0 1-.6-.34Z"/>
  <path d="M21.57 6A4.899 4.899 0 0 0 18 4.43h-1.61v-.3a2.71 2.71 0 0 0-2.71-2.71h-3.39a2.71 2.71 0 0 0-2.71 2.71v.3H6.05a4.91 4.91 0 0 0-4.88 5.43l.19 1.75.7 6.59a4.91 4.91 0 0 0 4.88 4.39h10.23a4.9 4.9 0 0 0 4.89-4.46l.63-6.76.14-1.57A4.889 4.889 0 0 0 21.57 6ZM9.08 4.13a1.21 1.21 0 0 1 1.21-1.21h3.39a1.21 1.21 0 0 1 1.21 1.21v.3H9.08v-.3ZM20.56 18a3.39 3.39 0 0 1-3.39 3.1H6.94A3.39 3.39 0 0 1 3.56 18L3 12.76a15.518 15.518 0 0 0 4.35 1.68 4.66 4.66 0 0 0 9.29 0 15.608 15.608 0 0 0 4.44-1.82L20.56 18ZM8.8 14a3.19 3.19 0 1 1 6.38-.02A3.19 3.19 0 0 1 8.8 14Zm12.45-3.37a12.82 12.82 0 0 1-4.72 2.27 4.67 4.67 0 0 0-9.1 0 12.998 12.998 0 0 1-4.64-2.11L2.67 9.7a2.81 2.81 0 0 1 0-.71 3.4 3.4 0 0 1 3.38-3.06H18a3.43 3.43 0 0 1 3.39 3.73l-.14.97Z"/>
</svg>
