<svg xmlns="http://www.w3.org/2000/svg" width="24" height="24" fill="currentColor" viewBox="0 0 24 24">
  <path d="M22.06 2a2.34 2.34 0 0 0-2.89-.35 42.358 42.358 0 0 0-9.06 7.25A34.237 34.237 0 0 0 6 14.1c-3.41.53-4.39 4.74-4.72 6.16a2 2 0 0 0 .54 1.88 1.999 1.999 0 0 0 1.42.59c.155.004.31-.013.46-.05 1.42-.32 5.59-1.29 6.16-4.65a34.702 34.702 0 0 0 5.24-4.12 42.357 42.357 0 0 0 7.29-9.06A2.35 2.35 0 0 0 22.06 2ZM3.39 21.22a.519.519 0 0 1-.62-.363.53.53 0 0 1-.01-.257c.92-4 2.33-4.84 3.42-5l2.23 2.2c-.18 1.1-1.05 2.51-5.02 3.42Zm5.94-4.62-1.92-1.92a33.678 33.678 0 0 1 3.26-4.19l1.43 1.43 1.42 1.42a32.077 32.077 0 0 1-4.19 3.26Zm11.8-12.54a41.7 41.7 0 0 1-6.51 8.26l-1.46-1.46L11.7 9.4A40.782 40.782 0 0 1 20 2.89.84.84 0 0 1 21 3a.85.85 0 0 1 .13 1.06Z"/>
</svg>
