<svg xmlns="http://www.w3.org/2000/svg" width="24" height="24" fill="currentColor" viewBox="0 0 24 24">
  <path d="M16.7 2.01H7.31a5.3 5.3 0 0 0-5.3 5.3v9.39a5.3 5.3 0 0 0 5.3 5.3h9.39a5.3 5.3 0 0 0 5.3-5.3V7.31a5.3 5.3 0 0 0-5.3-5.3Z" opacity=".3"/>
  <path d="m15.45 11.26-3.69-3.69L10 5.84a.75.75 0 0 0-1-.01.75.75 0 0 0 0 1.06l.61.62-3.19 3.15a2.13 2.13 0 0 0 0 3l2.26 2.26a2.14 2.14 0 0 0 3 0l3.75-3.75a.66.66 0 0 0 .02-.91Zm2.75 5.06a1.55 1.55 0 0 1-3.09 0 4.12 4.12 0 0 1 1-2.23.721.721 0 0 1 1.14 0 4 4 0 0 1 .95 2.23Z"/>
</svg>
