<svg xmlns="http://www.w3.org/2000/svg" width="24" height="24" fill="currentColor" viewBox="0 0 24 24">
  <path d="M6.56 18a3.91 3.91 0 0 0 5.52 0l5.55-5.55a1.71 1.71 0 0 0 0-2.42l-6.44-6.46-.19-.14-1.55-1.57a.73.73 0 1 0-1 1l.55.56-.18.15-5.6 5.55a3.89 3.89 0 0 0 0 5.52L6.56 18ZM11 16.93a2.42 2.42 0 0 1-3.4 0l-3.32-3.35a2.33 2.33 0 0 1-.62-1.1l12.39-.58L11 16.93ZM9.83 4.64a.2.2 0 0 1 .3 0l5.77 5.77L3.75 11a2.3 2.3 0 0 1 .53-.78l5.55-5.58Zm6.89 17a.73.73 0 0 1-.73.73H3.65a.73.73 0 1 1 0-1.46H16a.73.73 0 0 1 .72.72v.01Zm3.61-7.37a1.81 1.81 0 0 0-2.87 0A6.82 6.82 0 0 0 15.85 18a3.04 3.04 0 1 0 6.08 0 6.55 6.55 0 0 0-1.6-3.74v.01Zm-1.44 5.18A1.48 1.48 0 0 1 17.35 18a5.19 5.19 0 0 1 1.3-2.84.3.3 0 0 1 .25-.13.322.322 0 0 1 .25.12A5.1 5.1 0 0 1 20.43 18a1.479 1.479 0 0 1-1.54 1.44v.01Z"/>
</svg>
