<svg xmlns="http://www.w3.org/2000/svg" width="24" height="24" fill="currentColor" viewBox="0 0 24 24">
  <path d="m17.1 10.19-6.44-6.44h-.05L9.12 2.22a.73.73 0 0 0-1 0 .72.72 0 0 0 0 1l.85.86L3.75 9.3a3.16 3.16 0 0 0 0 4.46l3.34 3.34a3.16 3.16 0 0 0 4.46 0l5.55-5.55a1 1 0 0 0 0-1.36Z" opacity=".3"/>
  <path d="M16 22H3.65a.73.73 0 1 1 0-1.46H16A.73.73 0 1 1 16 22Zm5.18-4.33a2.29 2.29 0 1 1-4.58 0 6.06 6.06 0 0 1 1.46-3.3 1.06 1.06 0 0 1 1.68 0 5.89 5.89 0 0 1 1.44 3.3Zm-4.08-6.12a1 1 0 0 0 .26-.82l-14.52.68a3.11 3.11 0 0 0 .91 2.35l3.34 3.34a3.16 3.16 0 0 0 4.46 0l5.55-5.55Z"/>
</svg>
