<svg xmlns="http://www.w3.org/2000/svg" width="24" height="24" fill="currentColor" viewBox="0 0 24 24">
  <path d="M5.03 6.84a1.88 1.88 0 0 0 1.89-1.87A1.88 1.88 0 0 0 5.03 3.1a1.88 1.88 0 0 0-1.89 1.87 1.88 1.88 0 0 0 1.89 1.87Z" opacity=".3"/>
  <path d="M12.07 6.84a1.88 1.88 0 0 0 1.89-1.87 1.88 1.88 0 0 0-1.89-1.87 1.88 1.88 0 0 0-1.89 1.87 1.88 1.88 0 0 0 1.89 1.87Z"/>
  <path d="M19.17 6.84a1.88 1.88 0 0 0 1.89-1.87 1.88 1.88 0 0 0-1.89-1.87 1.88 1.88 0 0 0-1.89 1.87 1.88 1.88 0 0 0 1.89 1.87ZM5 13.88a1.88 1.88 0 0 0 1.89-1.87A1.88 1.88 0 0 0 5 10.14a1.88 1.88 0 0 0-1.89 1.87A1.88 1.88 0 0 0 5 13.88Z" opacity=".3"/>
  <path d="M12.05 13.88a1.88 1.88 0 0 0 1.89-1.87 1.88 1.88 0 0 0-1.89-1.87 1.88 1.88 0 0 0-1.89 1.87 1.88 1.88 0 0 0 1.89 1.87Z"/>
  <path d="M19.14 13.88a1.88 1.88 0 0 0 1.89-1.87 1.88 1.88 0 0 0-1.89-1.87 1.88 1.88 0 0 0-1.89 1.87 1.88 1.88 0 0 0 1.89 1.87ZM4.98 20.9a1.88 1.88 0 0 0 1.89-1.87 1.88 1.88 0 0 0-1.89-1.87 1.88 1.88 0 0 0-1.89 1.87 1.88 1.88 0 0 0 1.89 1.87Z" opacity=".3"/>
  <path d="M12.02 20.9a1.88 1.88 0 0 0 1.89-1.87 1.88 1.88 0 0 0-1.89-1.87 1.88 1.88 0 0 0-1.89 1.87 1.88 1.88 0 0 0 1.89 1.87Z"/>
  <path d="M19.12 20.9a1.88 1.88 0 0 0 1.89-1.87 1.88 1.88 0 0 0-1.89-1.87 1.88 1.88 0 0 0-1.89 1.87 1.88 1.88 0 0 0 1.89 1.87Z" opacity=".3"/>
</svg>
