<svg xmlns="http://www.w3.org/2000/svg" width="24" height="25" fill="currentColor" viewBox="0 0 24 25">
  <path d="M5 8.09A2.62 2.62 0 1 1 7.67 5.5 2.63 2.63 0 0 1 5 8.09Zm0-3.73A1.12 1.12 0 1 0 6.17 5.5 1.13 1.13 0 0 0 5 4.36Zm7 3.73a2.62 2.62 0 1 1 .07 0H12Zm0-3.73a1.12 1.12 0 1 0 .882.328 1.12 1.12 0 0 0-.812-.328H12Zm7.1 3.73a2.62 2.62 0 1 1 2.71-2.59 2.63 2.63 0 0 1-2.64 2.59h-.07Zm0-3.73a1.12 1.12 0 1 0 1.21 1.14 1.131 1.131 0 0 0-1.14-1.14h-.07ZM5 15.13a2.62 2.62 0 1 1 2.64-2.63A2.64 2.64 0 0 1 5 15.13Zm0-3.74a1.12 1.12 0 1 0 0 2.24 1.12 1.12 0 0 0 0-2.24Zm7.05 3.74a2.62 2.62 0 1 1 2.64-2.63 2.63 2.63 0 0 1-2.64 2.63Zm0-3.74a1.12 1.12 0 1 0 1.14 1.11 1.14 1.14 0 0 0-1.14-1.11Zm7.09 3.74a2.62 2.62 0 1 1 2.64-2.63 2.63 2.63 0 0 1-2.64 2.63Zm0-3.74a1.12 1.12 0 1 0 1.14 1.11 1.13 1.13 0 0 0-1.14-1.11ZM5 22.14a2.62 2.62 0 1 1 0-5.24 2.62 2.62 0 0 1 0 5.24Zm0-3.73a1.12 1.12 0 1 0 1.12 1.09A1.13 1.13 0 0 0 5 18.41Zm7 3.73a2.62 2.62 0 1 1 2.66-2.64A2.63 2.63 0 0 1 12 22.14Zm0-3.73a1.12 1.12 0 1 0 1.16 1.09A1.13 1.13 0 0 0 12 18.41Zm7.1 3.73a2.62 2.62 0 1 1 .02 0h-.02Zm0-3.73a1.12 1.12 0 1 0 1.16 1.09 1.13 1.13 0 0 0-1.14-1.09h-.02Z"/>
</svg>
