<svg xmlns="http://www.w3.org/2000/svg" width="24" height="25" fill="currentColor" viewBox="0 0 24 25">
  <path d="M16.05 23.25H8a6.71 6.71 0 0 1-6.7-6.7V8.5A6.71 6.71 0 0 1 8 1.75h8.1a6.71 6.71 0 0 1 6.65 6.75v8.1a6.71 6.71 0 0 1-6.7 6.65ZM8 3.25A5.21 5.21 0 0 0 2.75 8.5v8.1A5.21 5.21 0 0 0 8 21.75h8.1a5.21 5.21 0 0 0 5.2-5.2V8.5a5.21 5.21 0 0 0-5.2-5.2L8 3.25Zm-.27 3.8a1.15 1.15 0 1 0 .39.084 1.15 1.15 0 0 0-.44-.084h.05Zm4.32 0a1.15 1.15 0 1 0 .406.069A1.15 1.15 0 0 0 12 7.05h.05Zm4.35 0a1.15 1.15 0 1 0 .406.069 1.15 1.15 0 0 0-.456-.069h.05Zm-8.74 4.31a1.15 1.15 0 1 0 .02 2.3 1.15 1.15 0 0 0-.02-2.3Zm4.32 0a1.15 1.15 0 1 0 1.16 1.14A1.14 1.14 0 0 0 12 11.36h-.02Zm4.36 0a1.15 1.15 0 1 0 .02 2.3 1.15 1.15 0 0 0-.02-2.3Zm-8.69 4.3a1.15 1.15 0 1 0 1.16 1.15 1.16 1.16 0 0 0-1.16-1.15Zm4.32 0a1.15 1.15 0 1 0 1.16 1.15A1.16 1.16 0 0 0 12 15.66h-.03Zm4.35 0a1.15 1.15 0 1 0 1.16 1.15 1.16 1.16 0 0 0-1.16-1.15Z"/>
</svg>
