<svg xmlns="http://www.w3.org/2000/svg" width="24" height="25" fill="currentColor" viewBox="0 0 24 25">
  <path d="M16.05 23.25H8a6.71 6.71 0 0 1-6.7-6.7V8.5A6.71 6.71 0 0 1 8 1.75h8.1a6.71 6.71 0 0 1 6.65 6.75v8.1a6.71 6.71 0 0 1-6.7 6.65ZM8 3.25A5.21 5.21 0 0 0 2.75 8.5v8.1A5.21 5.21 0 0 0 8 21.75h8.1a5.21 5.21 0 0 0 5.2-5.2V8.5a5.21 5.21 0 0 0-5.2-5.2L8 3.25Zm9.5 4.78a.74.74 0 0 0-.75-.75h-3.41a.75.75 0 1 0 0 1.5h3.36a.75.75 0 0 0 .75-.75h.05Zm0 4.47a.75.75 0 0 0-.75-.75H8.24a.75.75 0 1 0 0 1.5h8.46a.75.75 0 0 0 .75-.75h.05Zm-.27 4.47a.76.76 0 0 0-.75-.75H10.7a.75.75 0 1 0 0 1.5h5.73a.75.75 0 0 0 .75-.75h.05Z"/>
</svg>
