<svg xmlns="http://www.w3.org/2000/svg" width="24" height="24" fill="currentColor" viewBox="0 0 24 24">
  <path d="M16.15 2.18h-8.3A5.85 5.85 0 0 0 2 8.03v8.3a5.85 5.85 0 0 0 5.85 5.85h8.3A5.85 5.85 0 0 0 22 16.33v-8.3a5.85 5.85 0 0 0-5.85-5.85Z" opacity=".3"/>
  <path d="M16.31 5.56H7.63a2.02 2.02 0 0 0-2.02 2.02v.62a2.02 2.02 0 0 0 2.02 2.02h8.68a2.02 2.02 0 0 0 2.02-2.02v-.62a2.02 2.02 0 0 0-2.02-2.02Zm-8.79 9.21c.547 0 .99-.43.99-.96s-.443-.96-.99-.96c-.547 0-.99.43-.99.96s.443.96.99.96Zm5.23 0c.547 0 .99-.43.99-.96s-.443-.96-.99-.96c-.547 0-.99.43-.99.96s.443.96.99.96Zm-5.23 3.67c.547 0 .99-.43.99-.96s-.443-.96-.99-.96c-.547 0-.99.43-.99.96s.443.96.99.96Zm5.23 0c.547 0 .99-.43.99-.96s-.443-.96-.99-.96c-.547 0-.99.43-.99.96s.443.96.99.96Zm4.43.16a.75.75 0 0 1-.75-.75v-4.37a.75.75 0 1 1 1.5 0v4.37a.76.76 0 0 1-.75.75Z"/>
</svg>
