<svg xmlns="http://www.w3.org/2000/svg" width="24" height="24" fill="currentColor" viewBox="0 0 24 24">
  <path d="M16.93 22.75H7.07a4.82 4.82 0 0 1-4.82-4.82V6.07a4.82 4.82 0 0 1 4.82-4.82h9.86a4.82 4.82 0 0 1 4.82 4.82v11.86a4.82 4.82 0 0 1-4.82 4.82Zm-9.86-20a3.32 3.32 0 0 0-3.32 3.32v11.86a3.32 3.32 0 0 0 3.32 3.32h9.86a3.32 3.32 0 0 0 3.32-3.32V6.07a3.32 3.32 0 0 0-3.32-3.32H7.07Zm9.19 9H7.74a2.5 2.5 0 0 1-2.49-2.49V6.74a2.5 2.5 0 0 1 2.49-2.49h8.52a2.5 2.5 0 0 1 2.49 2.49v2.52a2.5 2.5 0 0 1-2.49 2.49Zm-8.52-6a1 1 0 0 0-1 1v2.51a1 1 0 0 0 1 1h8.52a1 1 0 0 0 1-1V6.74a1 1 0 0 0-1-1l-8.52.01Zm8.76 8.58a1 1 0 1 0 0 2 1 1 0 0 0 0-2Zm-2 2.15a1 1 0 1 0 .376.073 1.002 1.002 0 0 0-.386-.073h.01Zm-4.21-.07.56-.54a.75.75 0 0 0 0-1.06.73.73 0 0 0-1 0l-.62.58-.62-.58a.75.75 0 0 0-1.06 1.06l.56.54-.56.53a.75.75 0 0 0 .52 1.3.73.73 0 0 0 .5-.24l.62-.59.62.59a.73.73 0 0 0 .806.149.71.71 0 0 0 .244-.179.75.75 0 0 0 0-1.06l-.57-.5Z"/>
</svg>
