<svg xmlns="http://www.w3.org/2000/svg" width="24" height="25" fill="currentColor" viewBox="0 0 24 25">
  <path d="M12 20.29a4.42 4.42 0 0 0 2.53-.8l.54.56a.731.731 0 0 0 .54.22.77.77 0 0 0 .52-.21.75.75 0 0 0 0-1.06l-.55-.57A4.4 4.4 0 1 0 12 20.29Zm0-7.31a2.91 2.91 0 1 1 .02 5.82 2.91 2.91 0 0 1-.02-5.82Zm5.54-9V2.44a.7.7 0 0 0-1.39 0v1.27h-3.26V2.44a.7.7 0 0 0-1.4 0v1.25H7.85V2.44a.7.7 0 0 0-1.39 0v1.49A6.17 6.17 0 0 0 2 9.85v7.24a6.18 6.18 0 0 0 6.19 6.16h7.66A6.18 6.18 0 0 0 22 17.09V9.85a6.17 6.17 0 0 0-4.46-5.92v.05ZM6.46 5.4v.81a.7.7 0 0 0 1.39 0v-1.1h3.64v1.1a.7.7 0 0 0 1.4 0V5.08h3.26v1.1a.7.7 0 0 0 1.39 0V5.4a4.79 4.79 0 0 1 3 3.75H3.44A4.79 4.79 0 0 1 6.46 5.4Zm14.17 11.69a4.79 4.79 0 0 1-4.8 4.77H8.17a4.79 4.79 0 0 1-4.8-4.77V10.5h17.26v6.59Z"/>
</svg>
