<svg xmlns="http://www.w3.org/2000/svg" width="24" height="25" fill="currentColor" viewBox="0 0 24 25">
  <g clip-path="url(#a)">
    <path d="M20 19.93a.78.78 0 0 1 0 1.08.76.76 0 0 1-1.07 0l-.58-.51-.58.54a.75.75 0 0 1-1.06-.06.77.77 0 0 1 .05-1.07l.53-.49-.5-.51a.78.78 0 0 1 0-1.08.742.742 0 0 1 1.06 0l.55.56.58-.53a.74.74 0 0 1 1.06.05.77.77 0 0 1-.04 1.03l-.53.48.53.51ZM9.24 14.19a.88.88 0 1 1-.87-.85.86.86 0 0 1 .87.85Zm3.25 0a.87.87 0 1 1-.87-.85.86.86 0 0 1 .87.85Zm-3.26 3.23a.88.88 0 0 1-1.75 0 .88.88 0 0 1 1.75 0Zm9.15 6.73a4.75 4.75 0 1 1 4.75-4.75 4.76 4.76 0 0 1-4.75 4.75Zm0-8a3.25 3.25 0 1 0 0 6.5 3.25 3.25 0 0 0 0-6.5ZM17.19 3.79V2.3a.7.7 0 1 0-1.4 0v1.26h-3.31V2.3a.7.7 0 1 0-1.39 0v1.2H7.5V2.3a.7.7 0 0 0-1.4 0v1.49A6.17 6.17 0 0 0 1.62 9.7v7.25a6.18 6.18 0 0 0 6.2 6.15h4.82a.69.69 0 1 0 0-1.38H7.82A4.787 4.787 0 0 1 3 16.95v-6.56h17.27v3.11a.7.7 0 0 0 .7.69.69.69 0 0 0 .7-.69V9.7a6.17 6.17 0 0 0-4.48-5.91ZM3.09 9.01a4.76 4.76 0 0 1 3-3.75v.8a.7.7 0 1 0 1.4 0v-1.1h3.64v1.1a.7.7 0 1 0 1.39 0V4.93h3.31v1.1a.7.7 0 0 0 1.4 0v-.8a4.76 4.76 0 0 1 3 3.75l-17.14.03Z"/>
  </g>
  <defs>
    <clipPath id="a">
      <path d="M0 .5h24v24H0z"/>
    </clipPath>
  </defs>
</svg>
