<svg xmlns="http://www.w3.org/2000/svg" width="24" height="24" fill="currentColor" viewBox="0 0 24 24">
  <path d="M16.77 3.47H7.23a4.72 4.72 0 0 0-4.72 4.72v9.06a4.72 4.72 0 0 0 4.72 4.72h9.54a4.72 4.72 0 0 0 4.72-4.72V8.19a4.72 4.72 0 0 0-4.72-4.72Z" opacity=".3"/>
  <path d="M8 5.59a.76.76 0 0 1-.75-.75V2a.75.75 0 0 1 1.5 0v2.84a.76.76 0 0 1-.75.75Zm8 0a.76.76 0 0 1-.75-.75V2a.75.75 0 1 1 1.5 0v2.84a.76.76 0 0 1-.75.75Zm-4 6.89a2.18 2.18 0 0 1-2.22-2.12 2.22 2.22 0 1 1 4.44 0A2.18 2.18 0 0 1 12 12.48Zm0-2.73a.68.68 0 0 0-.72.61.73.73 0 0 0 1.44 0 .68.68 0 0 0-.72-.61Z"/>
  <path d="M12 15.71a2.44 2.44 0 0 1-2.52-2.35A2.45 2.45 0 0 1 12 11a2.45 2.45 0 0 1 2.52 2.36A2.44 2.44 0 0 1 12 15.71Zm0-3.21a1 1 0 0 0-1 .86 1 1 0 0 0 1 .85 1 1 0 0 0 1-.85 1 1 0 0 0-1-.86Zm-9.46 5.07A4.71 4.71 0 0 0 7.23 22h9.54a4.71 4.71 0 0 0 4.69-4.4l-18.92-.03Z"/>
</svg>
