<svg xmlns="http://www.w3.org/2000/svg" width="24" height="25" fill="currentColor" viewBox="0 0 24 25">
  <path d="M16.77 3.22V2.5a.75.75 0 1 0-1.5 0v.69H8.76V2.5a.75.75 0 0 0-1.5 0v.69a5.49 5.49 0 0 0-5.5 5.51v9.05a5.48 5.48 0 0 0 5.47 5.47h9.54a5.48 5.48 0 0 0 5.47-5.47v-9a5.49 5.49 0 0 0-5.47-5.53Zm-9.54 1.5v.62a.75.75 0 1 0 1.5 0v-.62h6.5v.62a.75.75 0 0 0 1.5 0v-.62a4 4 0 0 1 4 4v8.62H3.26V8.7a4 4 0 0 1 3.97-3.98Zm9.54 17H7.23a4 4 0 0 1-3.8-2.9h17.14a4 4 0 0 1-3.8 2.9Zm-7.28-7.86A2.44 2.44 0 0 0 12 16.21a2.44 2.44 0 0 0 2.52-2.35 2.269 2.269 0 0 0-.78-1.7 2 2 0 0 0 .48-1.3 2.22 2.22 0 1 0-4.44 0 2 2 0 0 0 .48 1.3 2.27 2.27 0 0 0-.77 1.7Zm2.52.85a1 1 0 0 1-1-.85 1 1 0 0 1 1-.86 1 1 0 0 1 1 .86 1 1 0 0 1-1.01.85h.01Zm0-4.46a.68.68 0 0 1 .72.61.729.729 0 0 1-1.44 0 .68.68 0 0 1 .71-.61h.01Z"/>
</svg>
