<svg xmlns="http://www.w3.org/2000/svg" width="24" height="24" fill="currentColor" viewBox="0 0 24 24">
  <path d="M2.8 10.86v5.68A5.42 5.42 0 0 0 8.22 22h7.56a5.422 5.422 0 0 0 5.42-5.42v-5.72a.82.82 0 0 0-.82-.82H3.62a.82.82 0 0 0-.82.82Z" opacity=".3"/>
  <path d="M20.85 7.55a.82.82 0 0 1-.77 1.11h-16a1 1 0 0 1-.91-1.36A5.43 5.43 0 0 1 6.5 4.22V2.65A.68.68 0 0 1 7.18 2a.69.69 0 0 1 .69.69V4h3.59V2.65a.69.69 0 0 1 1.38 0v1.28h3.22V2.65a.68.68 0 0 1 .68-.65.69.69 0 0 1 .69.69v1.53a5.42 5.42 0 0 1 3.42 3.33ZM8.73 14.66c.475 0 .86-.38.86-.85s-.385-.85-.86-.85-.86.38-.86.85.385.85.86.85Zm3.21 0c.475 0 .86-.38.86-.85s-.385-.85-.86-.85-.86.38-.86.85.385.85.86.85Zm-3.22 3.2c.475 0 .86-.38.86-.85s-.385-.85-.86-.85-.86.38-.86.85.385.85.86.85Z"/>
</svg>
