<svg xmlns="http://www.w3.org/2000/svg" width="24" height="25" fill="currentColor" viewBox="0 0 24 25">
  <path d="M9.19 20.83a1.629 1.629 0 0 1-1.6-1.91l.24-1.37a1.56 1.56 0 0 1 .41-.82l4.21-4.57a1.799 1.799 0 0 1 1.26-.58 1.82 1.82 0 0 1 1.3.47l.84.78a1.78 1.78 0 0 1 .58 1.26 1.8 1.8 0 0 1-.48 1.3l-4.21 4.57c-.215.227-.488.39-.79.47l-1.35.35a1.913 1.913 0 0 1-.41.05Zm4.59-7.76a.38.38 0 0 0-.22.1l-4.22 4.57-.27 1.44a.12.12 0 0 0 0 .11h.12l1.34-.34a.09.09 0 0 0 .06 0l4.22-4.57a.298.298 0 0 0 .08-.22.32.32 0 0 0-.1-.22l-.79-.78a.311.311 0 0 0-.22-.09Zm3.76-9.14V2.44a.7.7 0 0 0-1.39 0v1.27h-3.26V2.44a.7.7 0 0 0-1.4 0v1.25H7.85V2.44a.7.7 0 0 0-1.39 0v1.49A6.17 6.17 0 0 0 2 9.85v7.24a6.18 6.18 0 0 0 6.19 6.16h7.66A6.18 6.18 0 0 0 22 17.09V9.85a6.17 6.17 0 0 0-4.46-5.92ZM6.46 5.4v.81a.7.7 0 0 0 1.39 0v-1.1h3.64v1.1a.7.7 0 0 0 1.4 0V5.08h3.26v1.1a.7.7 0 0 0 1.39 0V5.4a4.79 4.79 0 0 1 3 3.75H3.44A4.79 4.79 0 0 1 6.46 5.4Zm14.17 11.69a4.79 4.79 0 0 1-4.8 4.77H8.17a4.79 4.79 0 0 1-4.8-4.77V10.5h17.26v6.59Z"/>
</svg>
