<svg xmlns="http://www.w3.org/2000/svg" width="24" height="25" fill="currentColor" viewBox="0 0 24 25">
  <path d="M17.54 3.93V2.44a.7.7 0 0 0-1.39 0v1.27h-3.26V2.44a.7.7 0 0 0-1.4 0v1.25H7.85V2.44a.7.7 0 0 0-1.39 0v1.49A6.17 6.17 0 0 0 2 9.85v7.24a6.18 6.18 0 0 0 6.19 6.16h7.66A6.18 6.18 0 0 0 22 17.09V9.85a6.17 6.17 0 0 0-4.46-5.92ZM6.46 5.4v.81a.7.7 0 0 0 1.39 0v-1.1h3.64v1.1a.7.7 0 0 0 1.4 0V5.08h3.26v1.1a.7.7 0 0 0 1.39 0V5.4a4.79 4.79 0 0 1 3 3.75H3.44A4.79 4.79 0 0 1 6.46 5.4Zm9.37 16.46H8.17a4.79 4.79 0 0 1-4.8-4.77V10.5h17.26v6.55a4.79 4.79 0 0 1-4.8 4.81Zm-6.24-7.52a.87.87 0 1 1-1.74.06.87.87 0 0 1 1.74-.06Zm3.26 0a.88.88 0 1 1-.85-.84.87.87 0 0 1 .85.84Zm3.28 0a.88.88 0 1 1-.87-.86.87.87 0 0 1 .87.86Zm-6.55 3.23a.86.86 0 1 1-1.72-.02.86.86 0 0 1 1.72.02Zm3.26 0a.88.88 0 1 1-.88-.86.86.86 0 0 1 .88.86Zm3.28 0a.88.88 0 1 1-.88-.86.86.86 0 0 1 .88.86Z"/>
</svg>
