<svg xmlns="http://www.w3.org/2000/svg" width="24" height="24" fill="currentColor" viewBox="0 0 24 24">
  <path d="M12.39 2h-7.9a2.25 2.25 0 0 0-2.25 2.25v15.5A2.25 2.25 0 0 0 4.49 22h7.9a2.25 2.25 0 0 0 2.25-2.25V4.25A2.25 2.25 0 0 0 12.39 2Z" opacity=".3"/>
  <path d="M9.48 2v1a1 1 0 0 1-2 0V2h2ZM6.89 16.47a1.55 1.55 0 0 0 3.1 0h-3.1Zm1.56-7.9a3.77 3.77 0 0 1 3.77 3.77v2.83a.66.66 0 0 1-.66.66H5.34a.66.66 0 0 1-.66-.66v-2.82a3.77 3.77 0 0 1 3.77-3.78Z"/>
  <path d="M8.44 9.6a.76.76 0 0 1-.75-.75V7.58a.75.75 0 0 1 1.5 0v1.27a.75.75 0 0 1-.75.75ZM21 13h-2.8a.75.75 0 1 1 0-1.5H21a.75.75 0 0 1 0 1.5Zm-2.75-5a.75.75 0 0 1-.36-1.41l2.72-1.45a.75.75 0 1 1 .71 1.32L18.6 7.89a.73.73 0 0 1-.35.11ZM21 19.38a.8.8 0 0 1-.36-.09l-2.72-1.45a.754.754 0 1 1 .71-1.33L21.32 18a.75.75 0 0 1-.32 1.38Z"/>
</svg>
