<svg xmlns="http://www.w3.org/2000/svg" width="24" height="24" fill="currentColor" viewBox="0 0 24 24">
  <path d="m3.56 10.09.85-2.15H3.07a1.08 1.08 0 0 0 0 2.15h.49Zm17.37-2.15h-1.08l.92 2.15h.16a1.08 1.08 0 0 0 0-2.15ZM2.87 17.87v1.07a1.68 1.68 0 1 0 3.36 0v-1.07H2.87Zm15.3 1.07a1.68 1.68 0 1 0 3.36 0v-1.07h-3.36v1.07Z"/>
  <path d="m21.22 11.13-2.44-5.66a3.45 3.45 0 0 0-3.17-2.09h-7a3.44 3.44 0 0 0-3.25 2.18l-2.23 5.61a3.5 3.5 0 0 0-.24 1.28v5.42h18.62V12.5a3.4 3.4 0 0 0-.29-1.37ZM5.8 8.92l.94-2.86a.63.63 0 0 1 .6-.44h9.5a.65.65 0 0 1 .61.44l.94 2.86a.64.64 0 0 1-.61.84H6.4a.64.64 0 0 1-.6-.84Zm-.2 5.55a1.05 1.05 0 1 1 1.05-1.05 1 1 0 0 1-1.05 1.05Zm13 0a1.05 1.05 0 1 1 1.05-1.05.999.999 0 0 1-1.03 1.05h-.02Z" opacity=".3"/>
  <path d="M15.84 16.23h-7a.75.75 0 1 1 0-1.5h7a.75.75 0 0 1 0 1.5Z"/>
</svg>
