<svg xmlns="http://www.w3.org/2000/svg" width="24" height="25" fill="currentColor" viewBox="0 0 24 25">
  <path d="M7.73 11.79h-2.9a3.59 3.59 0 0 1-3.58-3.58V5.3a3.58 3.58 0 0 1 3.58-3.57h2.9a3.58 3.58 0 0 1 3.58 3.57v2.91a3.59 3.59 0 0 1-3.58 3.58Zm-2.9-8.56A2.08 2.08 0 0 0 2.75 5.3v2.91a2.08 2.08 0 0 0 2.08 2.08h2.9a2.08 2.08 0 0 0 2.08-2.08V5.3a2.08 2.08 0 0 0-2.08-2.07h-2.9Zm14.34 8.59h-2.9a3.58 3.58 0 0 1-3.58-3.58v-2.9a3.59 3.59 0 0 1 3.58-3.58h2.9a3.59 3.59 0 0 1 3.58 3.58v2.9a3.58 3.58 0 0 1-3.58 3.58Zm-2.9-8.56a2.08 2.08 0 0 0-2.08 2.08v2.9a2.08 2.08 0 0 0 2.08 2.08h2.9a2.08 2.08 0 0 0 2.08-2.08v-2.9a2.08 2.08 0 0 0-2.08-2.08h-2.9Zm-8.54 20h-2.9a3.59 3.59 0 0 1-3.58-3.58v-2.9a3.58 3.58 0 0 1 3.58-3.58h2.9a3.58 3.58 0 0 1 3.58 3.58v2.9a3.59 3.59 0 0 1-3.58 3.56v.02Zm-2.9-8.56a2.08 2.08 0 0 0-2.08 2.08v2.9a2.08 2.08 0 0 0 2.08 2.08h2.9a2.08 2.08 0 0 0 2.08-2.08v-2.9a2.08 2.08 0 0 0-2.08-2.08h-2.9Zm14.34 8.59h-2.9a3.58 3.58 0 0 1-3.58-3.57v-2.93a3.59 3.59 0 0 1 3.58-3.58h2.9a3.59 3.59 0 0 1 3.58 3.58v2.91a3.58 3.58 0 0 1-3.58 3.57v.02Zm-2.9-8.56a2.08 2.08 0 0 0-2.08 2.08v2.89a2.08 2.08 0 0 0 2.08 2.07h2.9a2.08 2.08 0 0 0 2.08-2.07v-2.91a2.08 2.08 0 0 0-2.08-2.08l-2.9.02Z"/>
</svg>
