<svg xmlns="http://www.w3.org/2000/svg" width="24" height="24" fill="currentColor" viewBox="0 0 24 24">
  <path d="M7.73 1.98h-2.9A2.83 2.83 0 0 0 2 4.81v2.9a2.83 2.83 0 0 0 2.83 2.83h2.9a2.83 2.83 0 0 0 2.83-2.83v-2.9a2.83 2.83 0 0 0-2.83-2.83Z"/>
  <path d="M19.17 2.01h-2.9a2.83 2.83 0 0 0-2.83 2.83v2.9a2.83 2.83 0 0 0 2.83 2.83h2.9A2.83 2.83 0 0 0 22 7.74v-2.9a2.83 2.83 0 0 0-2.83-2.83ZM7.73 13.43h-2.9A2.83 2.83 0 0 0 2 16.26v2.9a2.83 2.83 0 0 0 2.83 2.83h2.9a2.83 2.83 0 0 0 2.83-2.83v-2.9a2.83 2.83 0 0 0-2.83-2.83Z" opacity=".3"/>
  <path d="M19.17 13.46h-2.9a2.83 2.83 0 0 0-2.83 2.83v2.9a2.83 2.83 0 0 0 2.83 2.83h2.9A2.83 2.83 0 0 0 22 19.19v-2.9a2.83 2.83 0 0 0-2.83-2.83Z"/>
</svg>
