<svg xmlns="http://www.w3.org/2000/svg" width="24" height="24" fill="currentColor" viewBox="0 0 24 24">
  <path d="M15.84 2.67a5.56 5.56 0 0 1 5.51 5.61v7.44a5.56 5.56 0 0 1-5.51 5.61H8.16a5.559 5.559 0 0 1-5.51-5.61V8.28a5.56 5.56 0 0 1 5.51-5.61h7.68Zm-5.42 10.38a1.52 1.52 0 0 0 .94-.33l1.44-1.17a.07.07 0 0 1 .06 0 .11.11 0 0 1 .08 0l2.28 2.49h-1.11a.72.72 0 0 0 0 1.43h2.71a.71.71 0 0 0 .7-.72V12a.7.7 0 1 0-1.4 0v1L14 10.59a1.5 1.5 0 0 0-1.1-.49 1.43 1.43 0 0 0-.93.34l-1.45 1.17h-.06a.11.11 0 0 1-.07 0L8.11 9.27a.68.68 0 0 0-.5-.22.7.7 0 0 0-.692.71.72.72 0 0 0 .202.5l2.24 2.33a1.45 1.45 0 0 0 1.07.46m5.42-11.8H8.16a7 7 0 0 0-6.91 7v7.44a7 7 0 0 0 6.91 7h7.68a7 7 0 0 0 6.91-7V8.28a7 7 0 0 0-6.91-7l.01-.03Z"/>
</svg>
