<svg xmlns="http://www.w3.org/2000/svg" width="24" height="24" fill="currentColor" viewBox="0 0 24 24">
  <path d="M10.53 22.75a8.64 8.64 0 0 1-6.07-2.61 11.14 11.14 0 0 1-3.21-7.61C1.14 7.43 4.25 3 8.65 2a2 2 0 0 1 1.73.43 2.46 2.46 0 0 1 .85 1.89v6.66a5.29 5.29 0 0 0 1.5 3.61l2.78 3.15a2.501 2.501 0 0 1 .59 2 2.34 2.34 0 0 1-1 1.68 8.56 8.56 0 0 1-4.29 1.37l-.28-.04ZM9.09 3.4 9 3.42c-3.74.86-6.38 4.68-6.28 9.07a9.59 9.59 0 0 0 2.76 6.57 7.19 7.19 0 0 0 5.31 2.19 7 7 0 0 0 3.59-1.14.839.839 0 0 0 .35-.61.999.999 0 0 0-.23-.79l-2.77-3.15a6.77 6.77 0 0 1-1.93-4.62V4.28a.91.91 0 0 0-.31-.72.62.62 0 0 0-.4-.16Zm10.52 16.23a1.818 1.818 0 0 1-1.31-.56l-3.59-3.72a1.68 1.68 0 0 1-.35-1.79 1.56 1.56 0 0 1 1.44-1h5.07a1.87 1.87 0 0 1 1.44.7 2 2 0 0 1 .42 1.53 9.81 9.81 0 0 1-1.56 4 2 2 0 0 1-1.39.84h-.17ZM15.8 14a.12.12 0 0 0-.12.09.13.13 0 0 0 0 .16L19.3 18a.42.42 0 0 0 .35.13.49.49 0 0 0 .36-.22 8.319 8.319 0 0 0 1.31-3.38.399.399 0 0 0-.1-.32.44.44 0 0 0-.35-.18L15.8 14Zm5.26-2.6H16a3.06 3.06 0 0 1-3-3.11V3a1.78 1.78 0 0 1 .58-1.32 1.59 1.59 0 0 1 1.31-.42A9 9 0 0 1 20.15 4a9.78 9.78 0 0 1 2.59 5.5 1.8 1.8 0 0 1-.41 1.37 1.66 1.66 0 0 1-1.27.57v-.04Zm-6.39-8.7a.21.21 0 0 0-.15.07.25.25 0 0 0-.09.2v5.36A1.59 1.59 0 0 0 16 10h5.08a.25.25 0 0 0 .2-.1.22.22 0 0 0 .06-.19A8.21 8.21 0 0 0 19.14 5a7.53 7.53 0 0 0-4.44-2.25l-.03-.05Z"/>
</svg>
