<svg xmlns="http://www.w3.org/2000/svg" width="24" height="24" fill="currentColor" viewBox="0 0 24 24">
  <path d="M20.78 22.75H3.22a.76.76 0 1 1 0-1.52h17.56a.76.76 0 0 1 0 1.52ZM12 19.7h-1a1.93 1.93 0 0 1-1.91-1.94V7.48A1.93 1.93 0 0 1 11 5.54h1a1.93 1.93 0 0 1 1.91 1.94v10.28A1.93 1.93 0 0 1 12 19.7ZM11 7.07a.42.42 0 0 0-.41.41v10.28a.42.42 0 0 0 .41.42h1a.41.41 0 0 0 .41-.42V7.48a.41.41 0 0 0-.41-.41h-1Zm7 12.63h-.77a2 2 0 0 1-2-2.06V3.38a1.999 1.999 0 0 1 2-2.06H18a2 2 0 0 1 2 2.06v14.26a2 2 0 0 1-2 2.06Zm-.75-16.86a.53.53 0 0 0-.52.54v14.26a.527.527 0 0 0 .52.54H18a.53.53 0 0 0 .52-.54V3.38a.53.53 0 0 0-.52-.54h-.75ZM6 19.7H5a1.92 1.92 0 0 1-1.91-1.94v-5.42A1.92 1.92 0 0 1 5 10.4h1a1.92 1.92 0 0 1 1.91 1.94v5.42A1.92 1.92 0 0 1 6 19.7Zm-1-7.77a.41.41 0 0 0-.41.41v5.42a.41.41 0 0 0 .41.42h1a.41.41 0 0 0 .41-.42v-5.42a.41.41 0 0 0-.41-.41H5Z"/>
</svg>
