<svg xmlns="http://www.w3.org/2000/svg" width="24" height="24" fill="currentColor" viewBox="0 0 24 24">
  <path d="M15.31 22.38a2 2 0 0 1-2-2v-4.44a2.921 2.921 0 0 1 2.9-2.94h4.41a2 2 0 0 1 1.57.74 2 2 0 0 1 .42 1.68 8.76 8.76 0 0 1-2.4 4.5 8.62 8.62 0 0 1-4.5 2.4c-.13.035-.265.056-.4.06Zm.9-7.93a1.49 1.49 0 0 0-1.49 1.49v4.42a.611.611 0 0 0 .22.46.63.63 0 0 0 .49.12 7.33 7.33 0 0 0 5.78-5.78.61.61 0 0 0-.59-.71h-4.41ZM9.8 22.33c-.137.01-.274.01-.41 0a9.91 9.91 0 0 1 0-19.46 2.21 2.21 0 0 1 2.39 1.205c.14.289.215.604.22.925v15.17a2.17 2.17 0 0 1-.78 1.66 2.23 2.23 0 0 1-1.42.5Zm0-18.1h-.15a8.47 8.47 0 0 0 0 16.64.75.75 0 0 0 .62-.15.742.742 0 0 0 .27-.56V5a.702.702 0 0 0-.27-.55.68.68 0 0 0-.47-.22Zm10.82 7.65h-4.41A2.92 2.92 0 0 1 13.29 9V4.55a2 2 0 0 1 2.42-2 8.76 8.76 0 0 1 6.9 6.9 2 2 0 0 1-.42 1.68 2 2 0 0 1-1.57.75ZM15.31 4a.58.58 0 0 0-.37.14.57.57 0 0 0-.22.46V9a1.49 1.49 0 0 0 1.49 1.49h4.41a.57.57 0 0 0 .46-.22.56.56 0 0 0 .13-.49A7.36 7.36 0 0 0 19.2 6a7.43 7.43 0 0 0-3.77-2h-.12Z"/>
</svg>
