<svg xmlns="http://www.w3.org/2000/svg" width="24" height="24" fill="currentColor" viewBox="0 0 24 24">
  <path d="M20.78 22.75H3.22a.76.76 0 0 1 0-1.52h17.56a.76.76 0 0 1 0 1.52Zm-2.49-3h-1a1.93 1.93 0 0 1-1.91-1.94V7.51a1.93 1.93 0 0 1 1.91-1.94h1a1.93 1.93 0 0 1 1.91 1.94v10.26a1.93 1.93 0 0 1-1.91 1.94v.04Zm-1-12.62a.42.42 0 0 0-.41.42v10.22a.41.41 0 0 0 .41.41h1a.41.41 0 0 0 .41-.41V7.51a.41.41 0 0 0-.41-.42l-1 .04Zm-5.37 12.58h-.77a2.05 2.05 0 0 1-2-2.06V3.41a2 2 0 0 1 2-2.06h.77a2 2 0 0 1 2 2.06v14.24a2 2 0 0 1-2 2.06Zm-.77-16.83a.53.53 0 0 0-.53.53v14.24a.53.53 0 0 0 .53.53h.77a.521.521 0 0 0 .52-.53V3.41a.521.521 0 0 0-.52-.53h-.77ZM6 19.71H5a1.92 1.92 0 0 1-1.9-1.94v-5.41A1.92 1.92 0 0 1 5 10.42h1a1.92 1.92 0 0 1 1.91 1.94v5.41A1.92 1.92 0 0 1 6 19.71ZM5 12a.399.399 0 0 0-.4.41v5.41a.4.4 0 0 0 .4.41h1a.41.41 0 0 0 .41-.41v-5.46A.41.41 0 0 0 6 12H5Z"/>
</svg>
