<svg xmlns="http://www.w3.org/2000/svg" width="24" height="24" fill="currentColor" viewBox="0 0 24 24">
  <path d="M15.84 2.67a5.56 5.56 0 0 1 5.51 5.61v7.44a5.56 5.56 0 0 1-5.51 5.61H8.16a5.559 5.559 0 0 1-5.51-5.61V8.28a5.56 5.56 0 0 1 5.51-5.61h7.68ZM14.11 10h1.11l-2.28 2.49a.11.11 0 0 1-.08 0 .07.07 0 0 1-.06 0l-1.44-1.17a1.52 1.52 0 0 0-.94-.33 1.45 1.45 0 0 0-1.07.46l-2.24 2.29a.72.72 0 0 0 0 1 .68.68 0 0 0 1 0l2.24-2.33a.11.11 0 0 1 .07 0h.06l1.45 1.17c.26.22.59.341.93.34a1.498 1.498 0 0 0 1.1-.49L16.12 11v1a.7.7 0 1 0 1.4 0V9.24a.71.71 0 0 0-.7-.72h-2.71a.72.72 0 0 0 0 1.43m1.73-8.7H8.16a7 7 0 0 0-6.91 7v7.44a7 7 0 0 0 6.91 7h7.68a7 7 0 0 0 6.91-7V8.28a7 7 0 0 0-6.91-7v-.03Z"/>
</svg>
