<svg xmlns="http://www.w3.org/2000/svg" width="24" height="24" fill="currentColor" viewBox="0 0 24 24">
  <path d="M20.78 22.12H3.22a.75.75 0 1 1 0-1.5h17.56a.75.75 0 0 1 0 1.5ZM12.02 6.21h-.96a1.18 1.18 0 0 0-1.18 1.18v10.57c0 .652.528 1.18 1.18 1.18h.96a1.18 1.18 0 0 0 1.18-1.18V7.39a1.18 1.18 0 0 0-1.18-1.18Z" opacity=".3"/>
  <path d="M5.52 19.15h.72a1.3 1.3 0 0 0 1.3-1.3V3.19a1.3 1.3 0 0 0-1.3-1.3h-.72a1.3 1.3 0 0 0-1.3 1.3v14.66a1.3 1.3 0 0 0 1.3 1.3Z"/>
  <path d="M17.67 11.18h-.96a1.18 1.18 0 0 0-1.18 1.18v5.6c0 .652.528 1.18 1.18 1.18h.96a1.18 1.18 0 0 0 1.18-1.18v-5.6a1.18 1.18 0 0 0-1.18-1.18Z" opacity=".3"/>
</svg>
