<svg xmlns="http://www.w3.org/2000/svg" width="24" height="24" fill="currentColor" viewBox="0 0 24 24">
  <path d="M15.32 2.75a.57.57 0 0 1 .18 0 7.74 7.74 0 0 1 5.82 7.33 7.76 7.76 0 0 1-5.82 7.34h-.18a.57.57 0 0 1-.6-.5V3.25a.57.57 0 0 1 .6-.5ZM8.69 6.53a.56.56 0 0 1 .59.5v13.72a.6.6 0 0 1-.78.47 7.74 7.74 0 0 1-5.82-7.33A7.76 7.76 0 0 1 8.5 6.55h.19m6.63-5.28a2.06 2.06 0 0 0-2.1 2V17a2.06 2.06 0 0 0 2.1 2 2 2 0 0 0 .58-.08 9.22 9.22 0 0 0 6.92-8.78 9.22 9.22 0 0 0-6.92-8.81 2.38 2.38 0 0 0-.58-.08v.02ZM8.68 5a2 2 0 0 0-.58.08 9.22 9.22 0 0 0-6.92 8.78 9.22 9.22 0 0 0 6.92 8.81c.19.05.384.077.58.08a2.06 2.06 0 0 0 2.1-2V7a2.06 2.06 0 0 0-2.1-2Z"/>
</svg>
