<svg xmlns="http://www.w3.org/2000/svg" width="24" height="24" fill="currentColor" viewBox="0 0 24 24">
  <path d="M21.27 22H7.93A6 6 0 0 1 2 16.09V2.71a.75.75 0 0 1 1.5 0v13.38a4.46 4.46 0 0 0 4.45 4.45h13.32a.75.75 0 1 1 0 1.5V22Z"/>
  <path d="M5.32 16.4a.75.75 0 0 1-.57-1.24l3.65-4.29a2.73 2.73 0 0 1 3.84-.31l1 .87a1.23 1.23 0 0 0 1.76-.11l4.19-4.6a.75.75 0 0 1 1.06 0 .76.76 0 0 1 .05 1.06l-4.19 4.6a2.72 2.72 0 0 1-3.78.25l-1-.87a1.22 1.22 0 0 0-1.73.14l-3.71 4.23a.74.74 0 0 1-.57.27Z" opacity=".3"/>
</svg>
