<svg xmlns="http://www.w3.org/2000/svg" width="24" height="25" fill="currentColor" viewBox="0 0 24 25">
  <path d="M7.15 7.79a.76.76 0 0 1 .75.71v8a.75.75 0 0 1-1.5 0v-8a.76.76 0 0 1 .75-.71Zm5.07-3.5a.761.761 0 0 0-.75-.79H6a4.8 4.8 0 0 0-4.75 4.83v8.34A4.8 4.8 0 0 0 6 21.5h5.24a.75.75 0 0 0 0-1.5H6a3.3 3.3 0 0 1-3.29-3.29V8.33A3.3 3.3 0 0 1 6 5.04h5.43a.75.75 0 0 0 .79-.75Zm10.53 4v8.34A4.8 4.8 0 0 1 18 21.5h-2.43v.23a.75.75 0 0 1-1.5 0V3.31a.75.75 0 1 1 1.5 0v.19H18a4.8 4.8 0 0 1 4.75 4.83v-.04Zm-1.5 0A3.3 3.3 0 0 0 18 5.04h-2.43v14.92H18a3.3 3.3 0 0 0 3.29-3.29l-.04-8.38Z"/>
</svg>
