<svg xmlns="http://www.w3.org/2000/svg" width="24" height="24" fill="currentColor" viewBox="0 0 24 24">
  <path d="M8.58 8.69a.75.75 0 0 1-.75.75H5.6a.75.75 0 1 1 0-1.5h2.23a.76.76 0 0 1 .75.75Zm3.35 5.81H9.7a.75.75 0 1 0 0 1.5h2.23a.75.75 0 0 0 0-1.5Zm-4.1-3.28H5.6a.75.75 0 1 0 0 1.5h2.23a.75.75 0 0 0 0-1.5Zm4.1-3.28h-1.36a.75.75 0 1 0 0 1.5h1.36a.75.75 0 1 0 0-1.5Zm10 8.7v2.3a3.8 3.8 0 0 1-3.8 3.81H5.86a3.82 3.82 0 0 1-3.81-3.82V3.46A1.63 1.63 0 0 1 2.93 2a1.65 1.65 0 0 1 1.7.11L5.88 3A.12.12 0 0 0 6 3l2-1.47a1.64 1.64 0 0 1 1.89-.07l2 1.34a.15.15 0 0 0 .16 0l1.22-.8a1.65 1.65 0 0 1 2.54 1.38v9.78h3.33A2.8 2.8 0 0 1 22 16l-.07.64Zm-6.83 4.62a3.83 3.83 0 0 1-.78-2.32V3.39a.14.14 0 0 0-.145-.149.16.16 0 0 0-.075.019l-1.2.79a1.67 1.67 0 0 1-1.8 0l-2-1.35a.17.17 0 0 0-.17 0L7 4.19a1.64 1.64 0 0 1-2 .03l-1.23-.88a.13.13 0 0 0-.08 0h-.07a.14.14 0 0 0-.07.13v15.47a2.32 2.32 0 0 0 2.31 2.32h9.24ZM20.45 16a1.31 1.31 0 0 0-1.3-1.31h-3.33v4.16a2.48 2.48 0 0 0 1.1 2.07l.17.1.16.08c.174.067.355.114.54.14a2.28 2.28 0 0 0 2.44-1.291c.145-.31.22-.647.22-.99V16Zm-8.52-4.76h-1.36a.75.75 0 1 0 0 1.5h1.36a.75.75 0 0 0 0-1.5Z"/>
</svg>
