<svg xmlns="http://www.w3.org/2000/svg" width="24" height="24" fill="currentColor" viewBox="0 0 24 24">
  <path d="M12.54 1.15a10.86 10.86 0 1 0 0 21.72 10.86 10.86 0 0 0 0-21.72Zm0 1.5a9.34 9.34 0 0 1 7.76 4.12 28.83 28.83 0 0 0-8.39.4 5 5 0 0 0-4.23 4.13 23.47 23.47 0 0 1-2.53-5 9.33 9.33 0 0 1 7.39-3.65ZM16 12.11a3.49 3.49 0 1 1-6.98 0 3.49 3.49 0 0 1 6.98 0ZM3.19 12a9.25 9.25 0 0 1 .93-4 30.908 30.908 0 0 0 4.76 7.51h.06a5.002 5.002 0 0 0 3.6 1.57 4.85 4.85 0 0 0 1.67-.31 32.225 32.225 0 0 1-3 4.48A9.38 9.38 0 0 1 3.19 12Zm9.93 9.33a30.545 30.545 0 0 0 4-7.28 4.999 4.999 0 0 0 .4-1.94 5 5 0 0 0-1.9-3.89 40.53 40.53 0 0 1 5.53.14c.495 1.15.75 2.388.75 3.64a9.36 9.36 0 0 1-8.78 9.33Z"/>
</svg>
