<svg xmlns="http://www.w3.org/2000/svg" width="24" height="24" fill="currentColor" viewBox="0 0 24 24">
  <path d="M9.65 9.27a2.38 2.38 0 1 1 4.76 0 2.38 2.38 0 0 1-4.76 0Zm3.75 5.09c.34-.09.674-.2 1-.33a.75.75 0 0 0 .38-1 .74.74 0 0 0-1-.38 3.86 3.86 0 0 1-3.42 0 .76.76 0 0 0-1 .27.75.75 0 0 0 .26 1c.313.179.65.313 1 .4l-1.26 1.57a.75.75 0 0 0 1.17.94L12 15l1.47 1.83a.77.77 0 0 0 .58.28.68.68 0 0 0 .47-.17.74.74 0 0 0 .12-1.05l-1.24-1.53Z"/>
  <path d="M12 22c5.523 0 10-4.477 10-10S17.523 2 12 2 2 6.477 2 12s4.477 10 10 10Z" opacity=".3"/>
</svg>
