<svg xmlns="http://www.w3.org/2000/svg" width="24" height="25" fill="currentColor" viewBox="0 0 24 25">
  <path d="M12 8.89a.88.88 0 1 1-.88.88.87.87 0 0 1 .88-.88Zm0-1.5a2.38 2.38 0 1 0 0 4.76 2.38 2.38 0 0 0 0-4.76Zm1.37 7.47c.34-.089.674-.2 1-.33a.749.749 0 0 0 .38-1 .74.74 0 0 0-1-.38 3.86 3.86 0 0 1-3.42 0 .76.76 0 0 0-1 .27.75.75 0 0 0 .26 1 3.9 3.9 0 0 0 1 .4l-1.23 1.57a.75.75 0 0 0 1.17.94L12 15.5l1.47 1.83a.77.77 0 0 0 .58.28.68.68 0 0 0 .47-.17.741.741 0 0 0 .12-1.05l-1.27-1.53ZM12 23.25A10.75 10.75 0 1 1 22.75 12.5 10.76 10.76 0 0 1 12 23.25Zm0-20a9.25 9.25 0 1 0 9.25 9.25A9.26 9.26 0 0 0 12 3.25Z"/>
</svg>
