<svg xmlns="http://www.w3.org/2000/svg" width="24" height="24" fill="currentColor" viewBox="0 0 24 24">
  <path d="M14.84 21.75a2.23 2.23 0 0 1-2.07-1.38l-1.17-2.76c-.527.32-1.034.67-1.52 1.05a1.79 1.79 0 0 1-1.85.2 1.77 1.77 0 0 1-1-1.58V5a1.75 1.75 0 0 1 3-1.24l8.68 8.69a1.74 1.74 0 0 1-.144 2.602 1.78 1.78 0 0 1-.896.378 14.52 14.52 0 0 0-2.15.4l1.18 2.8a2.23 2.23 0 0 1-1.2 2.94 2.14 2.14 0 0 1-.86.18Zm-2.88-6a.79.79 0 0 1 .69.46l1.5 3.55a.77.77 0 0 0 1.248.234.749.749 0 0 0 .152-.834L14 15.64a.72.72 0 0 1 0-.64.74.74 0 0 1 .45-.4 17.157 17.157 0 0 1 3.22-.7.24.24 0 0 0 .21-.16.25.25 0 0 0-.06-.26L9.18 4.82a.26.26 0 0 0-.28-.05.25.25 0 0 0-.15.23v12.28a.24.24 0 0 0 .14.23.22.22 0 0 0 .26 0c.77-.602 1.59-1.137 2.45-1.6a.68.68 0 0 1 .4-.13l-.04-.03ZM14.8 5l.95-1.75a.75.75 0 0 0-.3-1 .73.73 0 0 0-1 .3l-1 1.76a.74.74 0 0 0 .3 1 .69.69 0 0 0 .36.09.75.75 0 0 0 .69-.4Zm3 3.54 1.79-.9a.751.751 0 1 0-.68-1.34l-1.79.9a.75.75 0 0 0 .34 1.42.68.68 0 0 0 .33-.13l.01.05ZM5.53 10a.74.74 0 0 0-.74-.76h-2A.76.76 0 0 0 2 10a.75.75 0 0 0 .74.76h2a.75.75 0 0 0 .79-.76ZM3.6 16.09l1.79-.89a.74.74 0 0 0 .34-1 .75.75 0 0 0-1-.34l-1.79.89a.75.75 0 0 0 .33 1.42.78.78 0 0 0 .33-.08Z"/>
</svg>
