<svg xmlns="http://www.w3.org/2000/svg" width="24" height="24" fill="currentColor" viewBox="0 0 24 24">
  <path d="M19.79 6.61a5.23 5.23 0 0 0-4.38-4.35l-6.76-1a5.26 5.26 0 0 0-6 4.4l-1 6.76a5.21 5.21 0 0 0 1.92 4.84 5.12 5.12 0 0 0 3.21 3.1l6.48 2.16a4.9 4.9 0 0 0 1.74.28 5.25 5.25 0 0 0 5-3.58l2.16-6.49a5.23 5.23 0 0 0-2.37-6.12Zm-16.62 6 1-6.76A3.73 3.73 0 0 1 7.88 2.7a5 5 0 0 1 .55 0l6.76 1a3.76 3.76 0 0 1 3.17 3.4c.03.286.03.574 0 .86l-1 6.76a3.74 3.74 0 0 1-2.77 3.08h-.09a3.452 3.452 0 0 1-.63.1 3.22 3.22 0 0 1-.76 0l-6.76-1a4.134 4.134 0 0 1-.85-.24 3.43 3.43 0 0 1-.79-.45l-.08-.06a3.72 3.72 0 0 1-1.46-3.5v-.04Zm17.51-.39-2.16 6.48a3.76 3.76 0 0 1-4.74 2.37L7.3 19a3.721 3.721 0 0 1-1-.54l6.61 1c.255.04.512.06.77.06h.53c.215-.019.43-.052.64-.1l.32-.09c.2-.06.41-.14.61-.22l.3-.15c.186-.095.367-.202.54-.32l.29-.21c.16-.128.314-.265.46-.41l.25-.25c.08-.09.25-.33.37-.5.12-.17.14-.19.2-.29.06-.1.21-.41.3-.62l.12-.28a5.66 5.66 0 0 0 .26-1l1-6.5a3.76 3.76 0 0 1 .81 3.68v-.04ZM8.74 10a2.77 2.77 0 1 0 .06-5.54A2.77 2.77 0 0 0 8.74 10Zm0-4.07A1.32 1.32 0 0 1 10 7.27a1.27 1.27 0 0 1-1.755 1.173A1.26 1.26 0 0 1 7.47 7.27V7.2a1.27 1.27 0 0 1 1.27-1.27Z" style="mix-blend-mode:multiply"/>
</svg>
