<svg xmlns="http://www.w3.org/2000/svg" width="24" height="24" fill="currentColor" viewBox="0 0 24 24">
  <path d="M19 15.93H5a3.75 3.75 0 0 1-.74-7.42v-.33a5.73 5.73 0 0 1 10.3-3.46A3.7 3.7 0 0 1 16 4.43a3.76 3.76 0 0 1 3.75 3.75c.01.11.01.22 0 .33a3.75 3.75 0 0 1-.75 7.42Zm-14.06-6a2.25 2.25 0 1 0 .06 4.5h14a2.25 2.25 0 0 0 0-4.5h-.14a.74.74 0 0 1-.75-1c.088-.247.135-.507.14-.77a2.25 2.25 0 0 0-3.51-1.86.73.73 0 0 1-.59.11.72.72 0 0 1-.48-.35A4.21 4.21 0 0 0 10 3.93a4.26 4.26 0 0 0-4.25 4.25c.002.276.033.55.09.82a.78.78 0 0 1-.17.64.73.73 0 0 1-.6.26l-.13.03Zm8.27 11.23L15.37 19a.75.75 0 0 0-1.06-1.06l-2.17 2.16a.19.19 0 0 1-.28 0l-2.17-2.17A.753.753 0 1 0 8.63 19l2.16 2.17a1.74 1.74 0 0 0 2.42 0v-.01Z"/>
</svg>
