<svg xmlns="http://www.w3.org/2000/svg" width="24" height="24" fill="currentColor" viewBox="0 0 24 24">
  <path d="M19 16H5a3.75 3.75 0 0 1-.74-7.43v-.32a5.73 5.73 0 0 1 10.3-3.49 3.75 3.75 0 0 1 5.19 3.46c.01.106.01.213 0 .32A3.75 3.75 0 0 1 19 16ZM4.94 10A2.25 2.25 0 0 0 5 14.47h14A2.25 2.25 0 0 0 19 10h-.14a.75.75 0 0 1-.75-1c.089-.244.136-.5.14-.76A2.25 2.25 0 0 0 16 6a2.18 2.18 0 0 0-1.26.39.73.73 0 0 1-.59.11.76.76 0 0 1-.48-.36 4.24 4.24 0 0 0-7.92 2.08c0 .289.03.577.09.86a.78.78 0 0 1-.17.64.76.76 0 0 1-.6.26l-.13.02Zm6.59 11.34a.75.75 0 0 0 0-1.06l-2.16-2.19a1.73 1.73 0 0 0-2.41 0l-2.17 2.16a.75.75 0 1 0 1.06 1.06L8 19.15a.18.18 0 0 1 .226-.054.179.179 0 0 1 .064.054l2.16 2.16a.75.75 0 0 0 1.06 0l.02.03ZM17 21l2.17-2.16a.75.75 0 0 0 0-1.06.738.738 0 0 0-1.06 0L16 20a.18.18 0 0 1-.29 0l-2.16-2.16a.738.738 0 0 0-1.06 0 .75.75 0 0 0 0 1.06l2.14 2.1c.322.32.757.5 1.21.5A1.7 1.7 0 0 0 17 21Z"/>
</svg>
