<svg xmlns="http://www.w3.org/2000/svg" width="24" height="24" fill="currentColor" viewBox="0 0 24 24">
  <path d="M16.72 1.25H7.28a6 6 0 0 0-6 6v9.44a6 6 0 0 0 6 6h9.44a6 6 0 0 0 6-6V7.28a6 6 0 0 0-6-6.03Zm0 1.5c.305 0 .61.03.91.09l.33.1c.176.048.35.104.52.17.128.057.252.124.37.2.13.07.27.13.4.21l.35.29c.1.09.22.17.32.27s.19.23.29.35c.092.099.179.202.26.31.08.13.14.26.21.39.07.13.15.25.21.38s.08.27.12.4c.057.147.104.297.14.45 0 .13 0 .27.05.41.027.162.044.326.05.49H2.75a4.066 4.066 0 0 1 0-.49v-.41c0-.13.09-.29.14-.43.034-.143.077-.283.13-.42a3.47 3.47 0 0 1 .18-.33c.08-.15.15-.3.24-.44l.2-.24c.108-.15.225-.293.35-.43l.31-.17c.143-.135.293-.262.45-.38L5 3.38a5 5 0 0 1 .51-.27c.13-.06.26-.08.39-.13s.3-.11.46-.14c.3-.06.604-.09.91-.09h9.45Zm0 18.5H7.28a4.53 4.53 0 0 1-4.53-4.53v-8h18.5v8a4.531 4.531 0 0 1-4.53 4.53Zm-7.79-3.49a.79.79 0 0 1-.53-.22l-2-2a.74.74 0 0 1-.23-.54.83.83 0 0 1 .23-.54l2-1.92a.75.75 0 1 1 1 1.08L8 15l1.46 1.43a.75.75 0 0 1 0 1.06.78.78 0 0 1-.53.27Zm6.14 0a.78.78 0 0 1-.54-.23.75.75 0 0 1 0-1.06L16 15l-1.45-1.39a.75.75 0 0 1 1-1.08l2 1.92a.83.83 0 0 1 .23.54.74.74 0 0 1-.23.54l-2 2a.79.79 0 0 1-.48.23Z"/>
</svg>
