<svg xmlns="http://www.w3.org/2000/svg" width="24" height="24" fill="currentColor" viewBox="0 0 24 24">
  <path d="M17 1.29H7.05a5.76 5.76 0 0 0-5.76 5.76V17a5.76 5.76 0 0 0 5.76 5.76H17A5.76 5.76 0 0 0 22.71 17V7.05A5.76 5.76 0 0 0 17 1.29ZM21.21 17A4.26 4.26 0 0 1 17 21.21H7.05A4.26 4.26 0 0 1 2.79 17V7.05a4.26 4.26 0 0 1 4.26-4.26H17a4.26 4.26 0 0 1 4.26 4.26L21.21 17Zm-4.91-6.48a4.35 4.35 0 1 0-8.52 0 4.34 4.34 0 0 0 1.86 8.27 4.269 4.269 0 0 0 2.42-.74c.701.48 1.53.737 2.38.74a4.34 4.34 0 0 0 1.86-8.27ZM12 6.8a2.85 2.85 0 1 1 .08 5.7A2.85 2.85 0 0 1 12 6.8Zm-5.21 7.64a2.84 2.84 0 0 1 1.55-2.53A4.36 4.36 0 0 0 12 14a2.87 2.87 0 0 0 .41-.05 2.71 2.71 0 0 1 0 .49c0 .198-.02.396-.06.59v.08a3.004 3.004 0 0 1-.15.48 2.86 2.86 0 0 1-.69.94 2.82 2.82 0 0 1-1.9.74 2.86 2.86 0 0 1-2.82-2.83Zm7.65 2.85a2.879 2.879 0 0 1-1.28-.29c.09-.13.16-.26.24-.4l.15-.27.15-.37c0-.13.09-.27.13-.4.04-.13.05-.21.07-.31.12-.543.12-1.107 0-1.65a4.37 4.37 0 0 0 1.85-1.66 2.85 2.85 0 0 1-1.3 5.38l-.01-.03Z"/>
</svg>
