<svg xmlns="http://www.w3.org/2000/svg" width="24" height="25" fill="currentColor" viewBox="0 0 24 25">
  <path d="M15.85 6.3 8.59 9.09 5.8 16.35a1.81 1.81 0 0 0 1.69 2.47c.225 0 .449-.04.66-.12l7.26-2.79 2.79-7.26a1.82 1.82 0 0 0-2.35-2.35Zm-8.23 11a.32.32 0 0 1-.35-.07.34.34 0 0 1-.07-.35l2.26-5.86 4 4-5.84 2.28Zm9.18-9.19-2.26 5.87-4-4 5.85-2.28a.31.31 0 0 1 .423.23.33.33 0 0 1-.013.18ZM12 1.75A10.75 10.75 0 1 0 22.75 12.5 10.76 10.76 0 0 0 12 1.75Zm0 20a9.25 9.25 0 1 1 9.25-9.25A9.26 9.26 0 0 1 12 21.75Z"/>
</svg>
