<svg xmlns="http://www.w3.org/2000/svg" width="24" height="24" fill="currentColor" viewBox="0 0 24 24">
  <path d="M14.75 2.6a1.92 1.92 0 0 1 1.81 1.34h-3.63a1.92 1.92 0 0 1 1.82-1.34ZM2.42 18.82l5.39-5.4 1.06-1.05.13-.12 2.89-5.12a1.39 1.39 0 0 1 .86-.66c.133-.02.267-.02.4 0a1.82 1.82 0 0 1-.3-1v-.12h3.83v.06A1.91 1.91 0 0 1 15 7.3l.42.25c.179.101.333.241.45.41.108.14.186.3.23.47l.64 2.36h2.46a1.27 1.27 0 1 1 0 2.54h-3.7l-.15-.05a.35.35 0 0 1-.14-.06h-.07a1.001 1.001 0 0 1-.33-.29 1.362 1.362 0 0 1-.24-.55v-.18l-1.18 2 1.26 1.26a1.238 1.238 0 0 1 .37.89 1.26 1.26 0 0 1-.37.9L10.68 21a1.238 1.238 0 0 1-.89.37 1.26 1.26 0 0 1-.9-.37 1.29 1.29 0 0 1 0-1.8l2.85-2.84L9.86 15l-5.65 5.61a1.239 1.239 0 0 1-.89.37 1.26 1.26 0 0 1-1.27-1.27 1.22 1.22 0 0 1 .37-.89Z"/>
  <path d="M19.2 10.79h-.9V8.52a.94.94 0 0 1 .94-.93H21a.93.93 0 0 1 .93.93v2.55A.93.93 0 0 1 21 12h-.57a1.26 1.26 0 0 0-1.23-1.21Z" opacity=".3"/>
  <path d="M16.56 3.94H18a.71.71 0 1 1 0 1.41h-1.34v-.83a1.807 1.807 0 0 0-.1-.58Z"/>
  <path d="M12.93 3.94h3.63c.065.187.099.383.1.58v.83h-3.83v-.83c.001-.197.035-.393.1-.58Z"/>
  <path d="M2.73 9.69a.75.75 0 0 1 0-1.5h5.75a.75.75 0 0 1 .75.75.74.74 0 0 1-.74.75H2.73Zm2.9-2.83a.75.75 0 0 1 0-1.5h2.85a.75.75 0 0 1 .75.74.74.74 0 0 1-.74.76H5.63Z" opacity=".3"/>
</svg>
