<svg xmlns="http://www.w3.org/2000/svg" width="24" height="24" fill="currentColor" viewBox="0 0 24 24">
  <path d="M21.56 6.58h-1.9a1.73 1.73 0 0 0-1.73 1.73V10h-.33l-.52-2a2 2 0 0 0-.36-.73c0-.06-.1-.11-.14-.16a2.77 2.77 0 0 0 1.47-2.44v-.05h.68a.75.75 0 1 0 0-1.5H18a2.77 2.77 0 0 0-5.48.61v1c.002.243.036.485.1.72a2.27 2.27 0 0 0-1.37 1.06l-3 5.34L7 13l-5.68 5.69a2.1 2.1 0 0 0 0 3 2.14 2.14 0 0 0 3 0l5.48-5.55.78.59-2.4 2.4a2.09 2.09 0 0 0 0 3 2.08 2.08 0 0 0 3 0L15.23 18a2.09 2.09 0 0 0 .62-1.48 2.06 2.06 0 0 0-.62-1.52l-.87-.87.28-.5.24.18.1.07h.1c.076.042.157.075.24.1l.25.08h.1c.152.022.307.022.46 0h3.51a2.09 2.09 0 0 0 2-1.41A1.74 1.74 0 0 0 23.29 11V8.31a1.73 1.73 0 0 0-1.73-1.73Zm-5-1.89a1.279 1.279 0 1 1-2.55 0v-.07h2.55v.07Zm-1.29-2.23a1.26 1.26 0 0 1 1.1.66h-2.2a1.27 1.27 0 0 1 1.1-.66Zm4.35 10.2H16l-.25-.07a.762.762 0 0 1-.17-.15.69.69 0 0 1-.12-.32l-.05-.18a.74.74 0 0 0-.64-.55.74.74 0 0 0-.74.37l-1.07 1.9a1.287 1.287 0 0 0-.16.17.74.74 0 0 0 .1.95l1.31 1.32a.6.6 0 0 1 .113.639.58.58 0 0 1-.133.191L10.08 21a.6.6 0 0 1-1.02-.42.58.58 0 0 1 .18-.42l3-3a.752.752 0 0 0-.08-1.13l-2-1.5a.69.69 0 0 0-.45-.16.77.77 0 0 0-.53.22l-6 6a.6.6 0 0 1-.84 0 .6.6 0 0 1 0-.84L8.09 14h.05l1.19-1.2a.998.998 0 0 0 .13-.16l3-5.43a.73.73 0 0 1 .54-.35.72.72 0 0 1 .57.08l1.72 1a.9.9 0 0 1 .26.26.51.51 0 0 1 .11.22l.67 2.5a.76.76 0 0 0 .73.56h2.59a.601.601 0 1 1 0 1.19l-.03-.01ZM21.79 11a.23.23 0 0 1-.23.24A2.09 2.09 0 0 0 19.62 10h-.19V8.31a.23.23 0 0 1 .23-.23h1.9a.23.23 0 0 1 .23.23V11ZM2.15 8.29a.75.75 0 0 1 .74-.75L9 7.5A.75.75 0 1 1 9 9H2.9a.75.75 0 0 1-.75-.71Zm3.08-3A.74.74 0 0 1 6 4.54h3A.75.75 0 0 1 9 6H6a.75.75 0 0 1-.77-.7v-.01Z"/>
</svg>
