<svg xmlns="http://www.w3.org/2000/svg" width="24" height="25" fill="currentColor" viewBox="0 0 24 25">
  <path d="M18.73 5H5.27a4 4 0 0 0-4 4v8.26a4 4 0 0 0 4 4h13.46a4 4 0 0 0 4-4V9a4 4 0 0 0-4-4Zm-16 5.23h18.5v2.17H2.75l-.02-2.17Zm2.54-3.77h13.46a2.52 2.52 0 0 1 2.49 2.23H2.78a2.52 2.52 0 0 1 2.49-2.23Zm13.46 13.3H5.27a2.52 2.52 0 0 1-2.52-2.52v-3.38h18.5v3.38a2.521 2.521 0 0 1-2.52 2.52Zm-4.64-2.17a.76.76 0 0 1-.75.75h-1.49a.75.75 0 1 1 0-1.5h1.49a.76.76 0 0 1 .75.75Zm6 0a.76.76 0 0 1-.75.75H15.8a.75.75 0 1 1 0-1.5h3.55a.76.76 0 0 1 .75.75h-.01Z"/>
</svg>
