<svg xmlns="http://www.w3.org/2000/svg" width="24" height="25" fill="currentColor" viewBox="0 0 24 25">
  <path d="M12 23.25a3.062 3.062 0 0 1-.9-.13l-4.75-1.36A3.26 3.26 0 0 1 4 18.97L2.59 5.34a3.29 3.29 0 0 1 .82-2.51 3.25 3.25 0 0 1 2.42-1.08h12.34a3.25 3.25 0 0 1 3.24 3.58L20 18.96a3.23 3.23 0 0 1-2.34 2.8l-4.78 1.36c-.285.087-.582.13-.88.13Zm-6.17-20a1.77 1.77 0 0 0-1.75 1.93L5.5 18.81a1.75 1.75 0 0 0 1.26 1.5l4.75 1.37a1.78 1.78 0 0 0 1 0l4.78-1.37a1.74 1.74 0 0 0 1.26-1.5l1.4-13.63a1.768 1.768 0 0 0-1.75-1.93H5.83Zm11.24 3.78a.77.77 0 0 0-.57-.25h-9a.76.76 0 1 0 0 1.51h8.16l-.28 2.61H8a.759.759 0 0 0-.593 1.322.76.76 0 0 0 .593.188h7.19l-.38 3.52-2.77.82-2.88-.88-.36-1.37a.753.753 0 1 0-1.45.41l.5 1.77a.77.77 0 0 0 .5.52l3.49 1.08a.81.81 0 0 0 .22 0 .78.78 0 0 0 .22 0l3.48-1a.75.75 0 0 0 .53-.64l1-9a.74.74 0 0 0-.22-.65v.04Z"/>
</svg>
