<svg xmlns="http://www.w3.org/2000/svg" width="24" height="24" fill="currentColor" viewBox="0 0 24 24">
  <path d="M21.91 8.4a4.566 4.566 0 0 0-.29-1.1h.06l-.37-.65a.877.877 0 0 1-.07-.1L20.92 6a4.52 4.52 0 0 0-.73-.72l-.08-.07c-.17-.13-.347-.25-.53-.36l-5.12-3a4.86 4.86 0 0 0-4.84 0l-5.12 3-.53.35-.12.11a5 5 0 0 0-1.16 1.31l-.37.65h.06A4.83 4.83 0 0 0 2.05 9v6a4.83 4.83 0 0 0 2.41 4.18l5.12 3a4.998 4.998 0 0 0 1.81.61v.05h1.47l.45-.1.2-.07c.12 0 .24-.07.36-.12a5.6 5.6 0 0 0 .55-.27l5.12-3A4.831 4.831 0 0 0 22 15V9a4.418 4.418 0 0 0-.09-.6ZM10.33 3.19a3.37 3.37 0 0 1 3.34 0l5.12 3 .39.26.12.11.22.2L15 9.41l-3 1.72-7.55-4.37a2.39 2.39 0 0 1 .23-.22l.11-.1.39-.26 5.15-2.99Zm0 17.6-5.12-3A3.31 3.31 0 0 1 3.55 15V9a3.17 3.17 0 0 1 .15-1l7.56 4.37.11 8.72a3.297 3.297 0 0 1-1.04-.3ZM20.45 15a3.31 3.31 0 0 1-1.66 2.88l-5.12 3c-.249.149-.518.26-.8.33l-.11-8.7 7.54-4.45c.04.12.07.245.09.37a.305.305 0 0 0 0 .1c.01.156.01.313 0 .47l.06 6Z"/>
</svg>
