<svg xmlns="http://www.w3.org/2000/svg" width="24" height="24" fill="currentColor" viewBox="0 0 24 24">
  <path d="M16.05 22.75H8a6.71 6.71 0 0 1-6.7-6.7V8A6.71 6.71 0 0 1 8 1.25h8.1A6.71 6.71 0 0 1 22.75 8v8.1a6.71 6.71 0 0 1-6.7 6.65ZM8 2.75A5.2 5.2 0 0 0 2.75 8v8.1A5.2 5.2 0 0 0 8 21.25h8.1a5.2 5.2 0 0 0 5.2-5.2V8a5.2 5.2 0 0 0-5.2-5.2L8 2.75Zm6 15.79a1.6 1.6 0 0 1-.76-.2A1.53 1.53 0 0 1 12.4 17v-3.23a1.53 1.53 0 0 1 .76-1.31L16 10.83a1.51 1.51 0 0 1 2.27 1.32v3.25a1.52 1.52 0 0 1-.75 1.31l-2.82 1.63a1.6 1.6 0 0 1-.78.2H14Zm2.43-7.06.38.65-2.82 1.63V17l2.85-1.61v-3.24l-.41-.67Zm-6.27 7a1.5 1.5 0 0 1-.76-.21l-2.9-1.62a1.54 1.54 0 0 1-.75-1.32v-3.25A1.51 1.51 0 0 1 8 10.77l2.82 1.62a1.53 1.53 0 0 1 .76 1.32V17a1.54 1.54 0 0 1-1.52 1.52l.1-.04Zm-2.9-6.42v3.27L10.07 17v-3.26l-2.8-1.67-.01-.01Zm4.91-.32a1.49 1.49 0 0 1-.76-.2L8.59 9.93a1.53 1.53 0 0 1-.56-2.08c.134-.23.327-.42.56-.55l2.81-1.64a1.51 1.51 0 0 1 1.51 0l2.83 1.62a1.519 1.519 0 0 1 0 2.63l-2.81 1.63a1.47 1.47 0 0 1-.76.2Zm0-4.78L9.34 8.6l2.83 1.64L15 8.61l-2.83-1.65Z"/>
</svg>
