<svg xmlns="http://www.w3.org/2000/svg" width="24" height="24" fill="currentColor" viewBox="0 0 24 24">
  <path d="M15.25 5.75a2 2 0 0 0 2 2h3.42a2 2 0 0 0 2-2V4.29a2 2 0 0 0-2-2h-3.38a2 2 0 0 0-2 2H9.75v-.21a2.83 2.83 0 0 0-2.83-2.83H4.08a2.83 2.83 0 0 0-2.83 2.83v1.84a2.83 2.83 0 0 0 2.83 2.83h2.84a2.83 2.83 0 0 0 2.83-2.83v-.17h2v12.07a2.93 2.93 0 0 0 2.93 2.93h.57a2 2 0 0 0 2 2h3.42a2 2 0 0 0 2-2v-1.46a2 2 0 0 0-2-2h-3.38a2 2 0 0 0-2 2h-.57a1.43 1.43 0 0 1-1.43-1.43v-4.61h2a2 2 0 0 0 2 2h3.42a2 2 0 0 0 2-2v-1.46a2 2 0 0 0-2-2h-3.42a2 2 0 0 0-2 2h-2v-6l1.96-.04Zm1.5-1.46a.54.54 0 0 1 .54-.54h3.42a.54.54 0 0 1 .54.54v1.42a.54.54 0 0 1-.54.54h-3.42a.54.54 0 0 1-.54-.54V4.29Zm-8.5 1.63a1.34 1.34 0 0 1-1.33 1.33H4.08a1.34 1.34 0 0 1-1.33-1.33V4.08a1.34 1.34 0 0 1 1.33-1.33h2.84a1.34 1.34 0 0 1 1.33 1.33v1.84Zm8.5 13.37a.54.54 0 0 1 .54-.54h3.42a.54.54 0 0 1 .54.54v1.42a.54.54 0 0 1-.54.54h-3.42a.54.54 0 0 1-.54-.54v-1.42Zm0-7.5a.54.54 0 0 1 .54-.54h3.42a.54.54 0 0 1 .54.54v1.42a.54.54 0 0 1-.54.54h-3.42a.54.54 0 0 1-.54-.54v-1.42Z"/>
</svg>
