<svg xmlns="http://www.w3.org/2000/svg" width="24" height="24" fill="currentColor" viewBox="0 0 24 24">
  <path d="M6.92 2H4.08A2.08 2.08 0 0 0 2 4.08v1.84A2.08 2.08 0 0 0 4.08 8h2.84A2.08 2.08 0 0 0 9 5.92V4.08A2.08 2.08 0 0 0 6.92 2Zm13.79 1h-3.42A1.29 1.29 0 0 0 16 4.29v1.42c0 .712.578 1.29 1.29 1.29h3.42A1.29 1.29 0 0 0 22 5.71V4.29A1.29 1.29 0 0 0 20.71 3Zm0 7.5h-3.42A1.29 1.29 0 0 0 16 11.79v1.42c0 .712.578 1.29 1.29 1.29h3.42A1.29 1.29 0 0 0 22 13.21v-1.42a1.29 1.29 0 0 0-1.29-1.29Zm0 7.5h-3.42A1.29 1.29 0 0 0 16 19.29v1.42c0 .712.578 1.29 1.29 1.29h3.42A1.29 1.29 0 0 0 22 20.71v-1.42A1.29 1.29 0 0 0 20.71 18Z"/>
  <path d="M16 13.25a.75.75 0 1 0 0-1.5h-2.75v-6H16a.75.75 0 1 0 0-1.5H9a.75.75 0 0 0 0 1.5h2.75v12.07a2.93 2.93 0 0 0 2.93 2.93H16a.75.75 0 1 0 0-1.5h-1.32a1.43 1.43 0 0 1-1.43-1.43v-4.57H16Z" opacity=".3"/>
</svg>
