<svg xmlns="http://www.w3.org/2000/svg" width="24" height="24" fill="currentColor" viewBox="0 0 24 24">
  <path d="M19.38 10.42h-1.27a.88.88 0 0 0-.88.88V14a.87.87 0 0 0 .88.88H21v-.75a2.42 2.42 0 0 0-.28-1.13l-1.34-2.58ZM8.33 21.99a1.78 1.78 0 1 0 0-3.56 1.78 1.78 0 0 0 0 3.56Zm7.12 0a1.78 1.78 0 1 0 0-3.56 1.78 1.78 0 0 0 0 3.56Z"/>
  <path d="m20.72 13-2.53-4.82A2.48 2.48 0 0 0 16 6.86h-.28c.005.07.005.14 0 .21a5.06 5.06 0 0 1-1.28 3.38l-2.58 2.88a1.62 1.62 0 0 1-2.4 0L6.9 10.45a5 5 0 0 1-1.28-3.59h-.16A2.48 2.48 0 0 0 3 9.34v8.4a2.48 2.48 0 0 0 2.47 2.47h13.07A2.48 2.48 0 0 0 21 17.74v-3.62a2.42 2.42 0 0 0-.28-1.12Z" opacity=".3"/>
  <path d="M10.08 2a5.06 5.06 0 0 0-3.18 8.45l2.57 2.88a1.62 1.62 0 0 0 2.4 0l2.58-2.88A5.07 5.07 0 0 0 10.08 2Zm.59 7a1.9 1.9 0 1 1 0-3.8 1.9 1.9 0 0 1 0 3.8Z"/>
</svg>
