<svg xmlns="http://www.w3.org/2000/svg" width="24" height="24" fill="currentColor" viewBox="0 0 24 24">
  <path d="m22.305 11.525-1.7-3.27-1.1-2.11a3.49 3.49 0 0 0-3.09-1.89h-.85v-.57a2.42 2.42 0 0 0-2.42-2.43h-7.28a4.61 4.61 0 0 0-4.6 4.61v11.37a3.51 3.51 0 0 0 3.51 3.52h.56a2.7 2.7 0 0 0 5.21 0h2.67a2.7 2.7 0 0 0 5.21 0h.82a3.51 3.51 0 0 0 3.49-3.52v-4.06a3.48 3.48 0 0 0-.43-1.65Zm-1.33.69a2 2 0 0 1 .24 1v.08h-2.44a.22.22 0 0 1-.22-.23v-3.11a.23.23 0 0 1 .22-.2h1l1.2 2.46Zm-18.2-6.35a3.11 3.11 0 0 1 3.09-3.11h7.28a.93.93 0 0 1 .92.93v8.66a.92.92 0 0 1-.92.91H2.775v-7.39Zm5.15 15.39a1.25 1.25 0 1 1 1.22-1.25 1.24 1.24 0 0 1-1.22 1.25Zm7.88 0a1.25 1.25 0 1 1 0-2.5 1.25 1.25 0 0 1 0 2.5Zm5.41-4a2 2 0 0 1-2 2h-.82a2.7 2.7 0 0 0-5.21 0h-2.66a2.7 2.7 0 0 0-5.21 0h-.54a2 2 0 0 1-2-2v-2.5h10.37a2.411 2.411 0 0 0 2.42-2.41v-6.59h.85a2 2 0 0 1 1.76 1.08l.74 1.42h-.14a1.73 1.73 0 0 0-1.75 1.7v3a1.72 1.72 0 0 0 1.75 1.8h2.47l-.03 2.5Z"/>
</svg>
