<svg xmlns="http://www.w3.org/2000/svg" width="24" height="24" fill="currentColor" viewBox="0 0 24 24">
  <path d="M17.179 7.102 12.687 8.38a1.1 1.1 0 0 0-.756 1.36l1.22 4.29a1.1 1.1 0 0 0 1.36.756l4.491-1.279a1.1 1.1 0 0 0 .757-1.359l-1.22-4.29a1.1 1.1 0 0 0-1.36-.756Z" opacity=".3"/>
  <path d="m13.71 8.083 2.444-.695.479 1.683a.71.71 0 0 1-.489.877l-1.077.307a.71.71 0 0 1-.877-.489l-.48-1.683Z"/>
  <path d="m14.688 2.027-3.694 1.051a.91.91 0 0 0-.626 1.125L11.39 7.79a.91.91 0 0 0 1.124.626l3.693-1.05a.91.91 0 0 0 .626-1.125l-1.02-3.588a.91.91 0 0 0-1.125-.626Z" opacity=".3"/>
  <path d="m11.838 2.846 2.01-.572.406 1.424a.59.59 0 0 1-.406.729l-.875.249a.59.59 0 0 1-.73-.406l-.405-1.424ZM10.44 14.88a.75.75 0 0 1-.72-.55L6.83 3.92l-2.95.81A.73.73 0 0 1 3 4.21a.74.74 0 0 1 .52-.92l3.66-1a.75.75 0 0 1 .92.52l3.08 11.13a.74.74 0 0 1-.51.91l-.23.03Zm4.63 2.81a.75.75 0 0 1-.74-.838.74.74 0 0 1 .54-.622l6.2-1.72a.74.74 0 0 1 .847 1.08.741.741 0 0 1-.447.35l-6.2 1.72-.2.03Z"/>
  <path d="M11.18 15.92a2.3 2.3 0 1 0 2.23 2.3 2.27 2.27 0 0 0-2.23-2.3Zm0 3.12a.82.82 0 1 1 .75-.82.79.79 0 0 1-.75.78v.04Z" opacity=".3"/>
  <path d="M19.81 22H7.49a.74.74 0 0 1-.74-.74.75.75 0 0 1 .74-.75h12.32a.75.75 0 0 1 .523 1.273.74.74 0 0 1-.523.217ZM5.16 2.555l-2.5.634a.89.89 0 0 0-.645 1.081l.061.242a.89.89 0 0 0 1.082.645l2.5-.634a.89.89 0 0 0 .645-1.08L6.242 3.2a.89.89 0 0 0-1.082-.645Z"/>
</svg>
