<svg xmlns="http://www.w3.org/2000/svg" width="24" height="24" fill="currentColor" viewBox="0 0 24 24">
  <path d="M15.04 2H8.46a1.95 1.95 0 0 0-1.95 1.95V17a1.95 1.95 0 0 0 1.95 1.95h6.58A1.95 1.95 0 0 0 16.99 17V3.95A1.95 1.95 0 0 0 15.04 2Z" opacity=".3"/>
  <path d="M15 11.74a.75.75 0 0 1-.75-.75V9.18a.75.75 0 1 1 1.5 0V11a.75.75 0 0 1-.75.74Zm4.93 3.52h-4.64c-.58 0-1.05.47-1.05 1.05v4.64c0 .58.47 1.05 1.05 1.05h4.64c.58 0 1.05-.47 1.05-1.05v-4.64c0-.58-.47-1.05-1.05-1.05Zm-8.03 6.68H3.76a.75.75 0 1 1 0-1.5h8.14a.75.75 0 0 1 0 1.5Z"/>
</svg>
