<svg xmlns="http://www.w3.org/2000/svg" width="24" height="24" fill="currentColor" viewBox="0 0 24 24">
  <path d="M10 11.81h5.76a2.33 2.33 0 0 0 2.33-2.34v-5a2.33 2.33 0 0 0-2.33-2.34H10a2.33 2.33 0 0 0-2.34 2.35v5A2.33 2.33 0 0 0 10 11.81Zm3.73-8.17v1.23a.46.46 0 0 1-.46.46h-.78a.46.46 0 0 1-.49-.46V3.64h1.73Zm-4.56.84a.84.84 0 0 1 .83-.84h.53v1.23a2 2 0 0 0 2 2h.78a2 2 0 0 0 2-2V3.64h.53a.84.84 0 0 1 .83.84v5a.84.84 0 0 1-.83.84H10a.84.84 0 0 1-.83-.84v-5Zm13.22 6.89a1.93 1.93 0 0 0-2.5-.37l-4.13 2.95a.54.54 0 0 0-.15.15 2.3 2.3 0 0 0-.88-.45L8.26 12a2.001 2.001 0 0 0-.51-.06 3.63 3.63 0 0 0-3.11 1.39c-.94 1.05-2.09 2.26-2.86 3.07a2 2 0 0 0 .06 2.87l1.73 1.67a2 2 0 0 0 2.84 0c.24-.23.38-.35.46-.42.71.06 3.37.66 5.58 1.21.324.097.662.144 1 .14.23.004.46-.027.68-.09a4.28 4.28 0 0 0 1.54-1l6.57-6.71a2.2 2.2 0 0 0 .14-2.7h.01Zm-1.32 1.74-6.49 6.63a3.06 3.06 0 0 1-.89.59 2.001 2.001 0 0 1-.83 0c-2-.627-4.05-1.072-6.13-1.33a.82.82 0 0 0-.43.08 3.852 3.852 0 0 0-.94.76.53.53 0 0 1-.75 0L2.88 18.2a.56.56 0 0 1 0-.77c.79-.82 1.94-2 2.89-3.1a2.14 2.14 0 0 1 1.87-.89h.11a.389.389 0 0 1 .16 0l6.47 1.63a.729.729 0 0 1 .47.35.76.76 0 0 1 .07.61.61.61 0 0 1-.73.44l-2.84-.73a.755.755 0 1 0-.35 1.47l2.83.73a2.14 2.14 0 0 0 2.56-1.5c.1-.384.1-.787 0-1.17a.8.8 0 0 0 .27-.12l4-2.9a.43.43 0 0 1 .55.08c.19.2-.08.67-.15.78h.01Z"/>
</svg>
