<svg xmlns="http://www.w3.org/2000/svg" width="24" height="24" fill="currentColor" viewBox="0 0 24 24">
  <path d="M12.47 22.29A7.82 7.82 0 0 1 8.68 21a17.49 17.49 0 0 1-6.38-6.63c-1.4-2.74-1.3-4.8.33-6.3a2.72 2.72 0 0 1 1.71-.81 2 2 0 0 1 1.83.79l1.91 2.88c.068.184.112.375.13.57a1.55 1.55 0 0 1-.27 1l-.78.91a12.94 12.94 0 0 0 3.06 3c.28-.274.578-.532.89-.77a1.72 1.72 0 0 1 1.65-.14l.12.07 2.79 1.93c.185.173.353.364.5.57.216.463.256.99.11 1.48a3.28 3.28 0 0 1-1.63 2.08 4.26 4.26 0 0 1-2.18.66ZM4.68 8.72a1.41 1.41 0 0 0-1 .45c-.73.68-1.4 1.81 0 4.52a15.88 15.88 0 0 0 5.79 6c2.1 1.2 3.26 1.38 4.46.69a1.67 1.67 0 0 0 1-1.53l-.17-.18-2.65-1.77H12c-.27.2-.74.66-.9.81a1.11 1.11 0 0 1-1.33.23 13.7 13.7 0 0 1-4-4 1.08 1.08 0 0 1 .18-1.33c.2-.22.86-1 .86-1a.13.13 0 0 1 0-.07L4.93 8.9a.54.54 0 0 0-.25-.18ZM10 16.64s0 .02 0 0Zm2.42-4.36h-1.65c1-1 1.81-1.86 1.81-2.94a1.72 1.72 0 0 0-1.86-1.78 2.58 2.58 0 0 0-1.65.59.28.28 0 0 0-.07.32l.23.53a.23.23 0 0 0 .18.15.28.28 0 0 0 .23 0c.26-.23.592-.365.94-.38a.67.67 0 0 1 .76.75c0 .66-.55 1.29-1.86 2.54l-.55.54a.249.249 0 0 0-.09.19v.43a.28.28 0 0 0 .27.27h3.33a.27.27 0 0 0 .27-.27v-.58a.27.27 0 0 0-.27-.36h-.02Zm5.27-1.39h-.46v-3a.27.27 0 0 0-.23-.24h-.77a.28.28 0 0 0-.22.11l-2.32 3.33a.3.3 0 0 0-.05.16v.46a.27.27 0 0 0 .27.27H16v1.15a.27.27 0 0 0 .27.27H17a.27.27 0 0 0 .27-.27V12h.46a.27.27 0 0 0 .27-.27v-.55a.27.27 0 0 0-.29-.29h-.02Zm-1.67 0h-.92L16 9.6l.02 1.29Z"/>
  <path d="M19.16 18.62a.73.73 0 0 1-.54-.23.75.75 0 0 1 0-1.06 8.119 8.119 0 0 0 2.53-5.92A8.21 8.21 0 0 0 13 3.21a8.1 8.1 0 0 0-6 2.56.75.75 0 0 1-1.09-1 9.7 9.7 0 0 1 16.73 6.68 9.59 9.59 0 0 1-3 7 .73.73 0 0 1-.48.17Z"/>
</svg>
