<svg xmlns="http://www.w3.org/2000/svg" width="24" height="24" fill="currentColor" viewBox="0 0 24 24">
  <path d="m21.39 12.62-2.54-4.79a3.22 3.22 0 0 0-2.45-1.69 5.8 5.8 0 0 0-11.46 0 3.21 3.21 0 0 0-2.7 3.16v8.41A3.22 3.22 0 0 0 5.46 21h.46a2.51 2.51 0 0 0 4.81 0H13a2.51 2.51 0 0 0 4.81 0h.69a3.22 3.22 0 0 0 3.22-3.22v-3.66a3.259 3.259 0 0 0-.33-1.5Zm-1.33.7c.132.246.2.52.2.8h-2.15A.13.13 0 0 1 18 14v-2.7a.13.13 0 0 1 .13-.13h.82l1.11 2.15Zm-9.9-10.53A4.32 4.32 0 0 1 13.89 10l-2.58 2.88a.72.72 0 0 1-.51.12h-.15a.697.697 0 0 1-.14 0c-.07.01-.14.01-.21 0a.72.72 0 0 1-.29-.2L7.45 10a5.11 5.11 0 0 1-.51-.71 2.59 2.59 0 0 1-.17-.38c-.06-.13-.13-.26-.18-.4A3.839 3.839 0 0 1 6.48 8c0-.13-.06-.26-.08-.38-.02-.12 0-.32 0-.48V6.5a4.34 4.34 0 0 1 3.76-3.71ZM8.33 21.24a1 1 0 1 1 0-2.001 1 1 0 0 1 0 2Zm7.12 0a1 1 0 1 1 0-2.002 1 1 0 0 1 0 2.002Zm4.81-3.5a1.72 1.72 0 0 1-1.72 1.72h-.69a2.51 2.51 0 0 0-4.81 0h-2.31a2.51 2.51 0 0 0-4.81 0h-.46a1.72 1.72 0 0 1-1.72-1.72V9.33A1.71 1.71 0 0 1 4.9 7.71v.07a5.4 5.4 0 0 0 .13.7v.18c.066.257.153.508.26.75l.06.12c.1.2.2.4.32.59l.12.19c.149.224.313.438.49.64l2.57 2.88a2.361 2.361 0 0 0 3.48 0L15 11c.223-.249.424-.517.6-.8l.15-.29c.1-.207.183-.42.25-.64.05-.12.09-.24.13-.36.064-.194.117-.39.16-.59.033-.128.056-.259.07-.39a2.59 2.59 0 0 0 .05-.26 1.72 1.72 0 0 1 1.08.86l.6 1.14a1.63 1.63 0 0 0-1.63 1.63V14a1.63 1.63 0 0 0 1.63 1.63h2.15l.02 2.11Zm-9.59-8A2.65 2.65 0 1 0 8 7.07a2.65 2.65 0 0 0 2.67 2.65v.02Zm0-3.8a1.15 1.15 0 1 1-1.15 1.13 1.16 1.16 0 0 1 1.15-1.15v.02Z"/>
</svg>
