<svg xmlns="http://www.w3.org/2000/svg" width="24" height="24" fill="currentColor" viewBox="0 0 24 24">
  <path d="M21 1.25h-2A1.76 1.76 0 0 0 17.25 3v.25H8.67a5.42 5.42 0 0 0-5.42 5.42v8.58H3A1.76 1.76 0 0 0 1.25 19v2A1.76 1.76 0 0 0 3 22.75h10A1.76 1.76 0 0 0 14.75 21v-2.25H17A1.76 1.76 0 0 0 18.75 17v-2.25H21A1.76 1.76 0 0 0 22.75 13V3A1.76 1.76 0 0 0 21 1.25ZM18.75 3a.25.25 0 0 1 .25-.25h2a.25.25 0 0 1 .25.25v6a.25.25 0 0 1-.25.25h-2.25V3Zm-1.5 10a.25.25 0 0 1-.25.25h-2.25V11a.25.25 0 0 1 .25-.25h2.25V13ZM4.75 8.67a3.93 3.93 0 0 1 3.92-3.92h8.58v4.5H15A1.76 1.76 0 0 0 13.25 11v2.25H11A1.76 1.76 0 0 0 9.25 15v2.25h-4.5V8.67Zm8.5 8.33a.25.25 0 0 1-.25.25h-2.25V15a.25.25 0 0 1 .25-.25h2.25V17Zm-6.14 4.25H3a.25.25 0 0 1-.25-.25v-2a.25.25 0 0 1 .25-.25h6.25V21a.25.25 0 0 1-.25.25H7.11Zm5.89 0h-2.28a.996.996 0 0 0 0-.25v-2.25H13c.083.01.167.01.25 0V21a.25.25 0 0 1-.25.25Zm4-4h-2.28a.996.996 0 0 0 0-.25v-2.25H17c.083.01.167.01.25 0V17a.25.25 0 0 1-.25.25Zm4-4h-2.28a.996.996 0 0 0 0-.25v-2.25H21c.083.01.167.01.25 0V13a.25.25 0 0 1-.25.25Z"/>
</svg>
