<svg xmlns="http://www.w3.org/2000/svg" width="24" height="24" fill="currentColor" viewBox="0 0 24 24">
  <path d="M17.75 21.5H6.25a5 5 0 0 1-5-5v-9a5 5 0 0 1 5-5h11.5a5 5 0 0 1 5 5v9a5 5 0 0 1-5 5ZM6.25 4a3.5 3.5 0 0 0-3.5 3.5v9a3.5 3.5 0 0 0 3.5 3.5h11.5a3.5 3.5 0 0 0 3.5-3.5v-9a3.5 3.5 0 0 0-3.5-3.5H6.25Zm1 5a1 1 0 1 0 .362.067A1 1 0 0 0 7.22 9h.03Zm2.93 0a1 1 0 1 0 .362.067A1 1 0 0 0 10.15 9h.03Zm7.46 1a.76.76 0 0 0-.75-.75h-3.31a.75.75 0 1 0 0 1.5h3.28a.76.76 0 0 0 .75-.75h.03Zm0 5.5a.76.76 0 0 0-.75-.75H7.22a.75.75 0 1 0 0 1.5h9.64a.76.76 0 0 0 .75-.75h.03Z"/>
</svg>
