<svg xmlns="http://www.w3.org/2000/svg" width="24" height="24" fill="currentColor" viewBox="0 0 24 24">
  <path d="M16.5 2.75h.28c.316.049.615.176.87.37.12.087.232.188.33.3.064.07.122.148.17.23.055.079.102.162.14.25L21 10a2.48 2.48 0 0 1-.41 2.69l-7.09 7.89a2.079 2.079 0 0 1-3.06 0l-7.06-7.91A2.48 2.48 0 0 1 3 10l2.71-6.07c0-.09.25-.41.31-.49a1.64 1.64 0 0 1 .42-.37 1.91 1.91 0 0 1 1.06-.32h9Zm0-1.5h-9a3.4 3.4 0 0 0-1.88.56 3.29 3.29 0 0 0-.74.65c-.174.239-.331.49-.47.75l-2.73 6a4 4 0 0 0 .66 4.32l7.09 7.89a3.569 3.569 0 0 0 5.28 0l7.09-7.88a4 4 0 0 0 .67-4.31l-2.82-5.92a2.729 2.729 0 0 0-.24-.45l-.21-.37a2.47 2.47 0 0 0-2.14-1.24h-.56Z"/>
</svg>
