<svg xmlns="http://www.w3.org/2000/svg" width="24" height="24" fill="currentColor" viewBox="0 0 24 24">
  <path d="M17 22H7a4 4 0 0 1-4-4v-3.38a3.32 3.32 0 0 1 3.25-3.32h.81a3.382 3.382 0 0 1 2.58 1.2l.29.35a2.689 2.689 0 0 0 4.12 0l.29-.35a3.382 3.382 0 0 1 2.58-1.2h.83a3.32 3.32 0 0 1 3.32 3.32V18A4 4 0 0 1 17 22Z"/>
  <path d="M16.06 2h-8.1a3.17 3.17 0 0 0-3.17 3.17v6.8a3.17 3.17 0 0 0 3.17 3.17h8.1a3.17 3.17 0 0 0 3.17-3.17v-6.8A3.17 3.17 0 0 0 16.06 2Z" opacity=".3"/>
  <path d="M14.25 7.17h-4.5a.75.75 0 0 1 0-1.5h4.5a.75.75 0 1 1 0 1.5ZM13.23 10h-2.58a.75.75 0 1 1 0-1.5h2.58a.75.75 0 0 1 0 1.5Z"/>
</svg>
