<svg xmlns="http://www.w3.org/2000/svg" width="24" height="24" fill="currentColor" viewBox="0 0 24 24">
  <path d="M20 11.22V5.17a3.93 3.93 0 0 0-3.92-3.92H8a3.93 3.93 0 0 0-4 3.92v6a4.06 4.06 0 0 0-1.86 3.41V18A4.8 4.8 0 0 0 7 22.75h10A4.8 4.8 0 0 0 21.82 18v-3.38a4.06 4.06 0 0 0-1.82-3.4ZM5.54 5.17A2.43 2.43 0 0 1 8 2.75h8.1a2.43 2.43 0 0 1 2.42 2.42v5.45a4.402 4.402 0 0 0-.73-.07h-.83A4.112 4.112 0 0 0 13.77 12l-.29.35a1.93 1.93 0 0 1-1.49.69 1.93 1.93 0 0 1-1.48-.69l-.3-.36a4.11 4.11 0 0 0-3.15-1.46h-.81a4.177 4.177 0 0 0-.71.07V5.17ZM20.32 18A3.29 3.29 0 0 1 17 21.25H7A3.29 3.29 0 0 1 3.68 18v-3.38a2.57 2.57 0 0 1 2.57-2.57h.81a2.62 2.62 0 0 1 2 .93l.3.36a3.46 3.46 0 0 0 5.28-.01l.29-.35a2.62 2.62 0 0 1 2-.93h.83a2.57 2.57 0 0 1 2.57 2.57L20.32 18ZM9 6.42a.76.76 0 0 1 .75-.75h4.5a.75.75 0 1 1 0 1.5h-4.5A.76.76 0 0 1 9 6.42Zm5 2.79a.75.75 0 0 1-.75.75h-2.6a.75.75 0 1 1 0-1.5h2.58a.75.75 0 0 1 .77.75Z"/>
</svg>
