<svg xmlns="http://www.w3.org/2000/svg" width="24" height="24" fill="currentColor" viewBox="0 0 24 24">
  <path d="m11.2 8.54-.71-.72a1 1 0 0 1 0-1.41l2.93-2.94a5 5 0 0 1 7.44.37 5.17 5.17 0 0 1-.48 6.89l-2.79 2.78a1 1 0 0 1-1.41 0l-.72-.71a.998.998 0 0 1 0-1.42l2.94-2.93a1.999 1.999 0 0 0-.26-3.07 2.11 2.11 0 0 0-2.67.3l-2.85 2.86a.999.999 0 0 1-1.42 0Zm0 7.06-2.67 2.72a2.11 2.11 0 0 1-2.67.3 2 2 0 0 1-.26-3.07l2.8-2.79a.999.999 0 0 0 0-1.42l-.72-.72a1 1 0 0 0-1.41 0l-2.65 2.65a5.17 5.17 0 0 0-.48 6.89 4.999 4.999 0 0 0 7.44.37l2.8-2.8a1 1 0 0 0 0-1.41l-.72-.72a1 1 0 0 0-1.42 0h-.04Z"/>
  <path d="M5.35 8.28h-.23L3 7.59a.76.76 0 0 1-.351-1.199.74.74 0 0 1 .801-.231l2.1.66a.75.75 0 0 1-.23 1.46h.03Zm3.1-2.97a.76.76 0 0 1-.74-.64l-.2-1.44A.754.754 0 1 1 9 3l.2 1.43a.74.74 0 0 1-.64.84l-.11.04Zm7.8 15.43a.74.74 0 0 1-.73-.59L15.08 18a.752.752 0 0 1 .58-.89.77.77 0 0 1 .89.58l.45 2.15a.76.76 0 0 1-.58.89l-.17.01Zm3.94-4.24a.55.55 0 0 1-.18 0l-1.4-.35a.74.74 0 0 1-.426-1.166.75.75 0 0 1 .786-.284l1.4.34a.75.75 0 0 1-.18 1.48v-.02Z" opacity=".3"/>
</svg>
