<svg xmlns="http://www.w3.org/2000/svg" width="24" height="25" fill="currentColor" viewBox="0 0 24 25">
  <path d="M11.47 2.79a.75.75 0 0 1 1.06 0l3.89 3.889a.75.75 0 0 1-1.061 1.06l-2.645-2.644v9.225a.75.75 0 0 1-1.5 0V5.166L8.641 7.739a.75.75 0 0 1-1.06-1.06l3.889-3.89Zm6.92 16.03a.89.89 0 1 1-1.78 0 .89.89 0 0 1 1.78 0Z"/>
  <path fill-rule="evenodd" d="M4.252 14.324a2.25 2.25 0 0 0-2.25 2.25v3.496a2.25 2.25 0 0 0 2.25 2.25h15.496a2.25 2.25 0 0 0 2.25-2.25v-3.496a2.25 2.25 0 0 0-2.25-2.25h-5.03a.75.75 0 0 0-.743.65 1.993 1.993 0 0 1-3.95 0 .75.75 0 0 0-.743-.65h-5.03Zm-.75 2.25a.75.75 0 0 1 .75-.75H8.69a3.493 3.493 0 0 0 6.62 0h4.438a.75.75 0 0 1 .75.75v3.496a.75.75 0 0 1-.75.75H4.252a.75.75 0 0 1-.75-.75v-3.496Z" clip-rule="evenodd"/>
</svg>
