<svg xmlns="http://www.w3.org/2000/svg" width="24" height="25" fill="currentColor" viewBox="0 0 24 25">
  <path d="M12 1.75A10.75 10.75 0 1 0 22.75 12.5 10.76 10.76 0 0 0 12 1.75Zm9.24 10.56a16.892 16.892 0 0 0-6.57 0c-.29-.68-.61-1.32-.93-1.95a17.22 17.22 0 0 0 5.46-3.65 9.18 9.18 0 0 1 2.04 5.6Zm-3.08-6.69A15.56 15.56 0 0 1 13 8.97a37.292 37.292 0 0 0-3.63-5.33 9.15 9.15 0 0 1 8.79 2v-.02ZM7.89 4.22a36.93 36.93 0 0 1 3.67 5.28 22.85 22.85 0 0 1-8.56.88 9.25 9.25 0 0 1 4.89-6.16ZM2.75 12.5v-.64c.764.084 1.532.124 2.3.12a23.56 23.56 0 0 0 7.22-1.12c.3.57.6 1.16.88 1.79a15.49 15.49 0 0 0-8 6 9.19 9.19 0 0 1-2.4-6.15Zm3.51 7.24a13.49 13.49 0 0 1 7.49-5.73 27.812 27.812 0 0 1 1.83 7 9.22 9.22 0 0 1-9.32-1.29v.02Zm10.74.54a29.492 29.492 0 0 0-1.73-6.61 15.77 15.77 0 0 1 5.89.15A9.25 9.25 0 0 1 17 20.28Z"/>
</svg>
