<svg xmlns="http://www.w3.org/2000/svg" width="24" height="25" fill="currentColor" viewBox="0 0 24 25">
  <path d="M21.69 11.5 19.1 9.64l2.58-1.82a1.67 1.67 0 0 0 0-2.73l-4.09-3a1.68 1.68 0 0 0-2 0L12 4.63 8.35 2.06a1.68 1.68 0 0 0-2 0l-4.09 3A1.69 1.69 0 0 0 1.6 6.5a1.66 1.66 0 0 0 .72 1.35L4.9 9.64 2.32 11.5a1.66 1.66 0 0 0-.72 1.35 1.71 1.71 0 0 0 .68 1.38l1.59 1.18v2.09a2.6 2.6 0 0 0 1.3 2.23l5.55 3.2a2.57 2.57 0 0 0 2.59 0l5.54-3.2a2.57 2.57 0 0 0 1.3-2.23v-2.14l1.58-1.17a1.69 1.69 0 0 0 0-2.73l-.04.04ZM12 12.8 7.5 9.64 12 6.5l4.5 3.17L12 12.8Zm4.51-9.52a.2.2 0 0 1 .22 0l4.09 3a.16.16 0 0 1 .08.22.199.199 0 0 1-.08.15l-3 2.12-4.52-3.22 3.21-2.27ZM3.1 6.5a.16.16 0 0 1 .08-.15l4.09-3a.15.15 0 0 1 .11 0 .2.2 0 0 1 .11 0l3.21 2.2-4.5 3.17-3-2.12a.2.2 0 0 1-.1-.1Zm0 6.38a.17.17 0 0 1 .08-.14l3-2.14 4.5 3.16-3.35 2.32-4.15-3.1a.16.16 0 0 1-.08-.15v.05Zm15.55 3.62v1a1 1 0 0 1-.54.94l-5.54 3.2a1.07 1.07 0 0 1-1.09 0L5.93 18.4a1.09 1.09 0 0 1-.55-.9v-1l1.49 1.11a.697.697 0 0 0 .21.11h.23a.764.764 0 0 0 .16 0h.06a.62.62 0 0 0 .22-.1l1.44-1 2.81-2 2.81 2 1.44 1a.62.62 0 0 0 .22.1h.06a.764.764 0 0 0 .16 0h.23a.696.696 0 0 0 .21-.11l1.52-1.11Zm2.17-3.5-1.88 1.41-2.27 1.69-3.37-2.39 4.5-3.16 3 2.14a.17.17 0 0 1 .08.14.16.16 0 0 1-.06.15V13Z"/>
</svg>
