<svg xmlns="http://www.w3.org/2000/svg" width="24" height="25" fill="currentColor" viewBox="0 0 24 25">
  <path d="M16.78 20.64a9.318 9.318 0 0 1-2.87 1.12.999.999 0 0 1-.84-.21 1 1 0 0 1-.38-.79v-3.64a3.8 3.8 0 0 0 3.14-3.72v-1.71a2.17 2.17 0 0 0 1.63-2.19 2.14 2.14 0 0 0-2.14-2.13h-.06V5.19a.69.69 0 0 0-1.38 0v2.22h-3.67V5.18a.69.69 0 1 0-1.38 0v2.23h-.15a2.17 2.17 0 0 0-.5 4.28v1.71a3.79 3.79 0 0 0 3.14 3.72v3.64a2.391 2.391 0 0 0 2.39 2.41c.165 0 .33-.02.49-.06a10.728 10.728 0 0 0 3.3-1.28.69.69 0 0 0-.19-1.269.7.7 0 0 0-.53.079ZM7.93 9.5a.75.75 0 0 1 .75-.75h6.64a.78.78 0 0 1 .75.83.76.76 0 0 1-.75.75H8.68a.77.77 0 0 1-.75-.83Zm1.63 3.9v-1.64h4.88v1.64a2.44 2.44 0 1 1-4.88 0Zm13.19-.81a10.64 10.64 0 0 1-1.1 4.74.69.69 0 0 1-.62.39.67.67 0 0 1-.31-.07.71.71 0 0 1-.32-.93 9.21 9.21 0 0 0 1-4.13 9.358 9.358 0 0 0-10.47-9.31 9.21 9.21 0 0 0-2.8.78.69.69 0 0 1-.938-.87.7.7 0 0 1 .358-.39 10.76 10.76 0 0 1 15.23 9.79h-.03ZM5.11 17.34a2.541 2.541 0 0 0-1 .23 9.41 9.41 0 0 1-1.39-6 9 9 0 0 1 1.22-3.7.7.7 0 0 0-.25-.95.68.68 0 0 0-1 .25 10.32 10.32 0 0 0-1.4 4.25A10.74 10.74 0 0 0 3 18.5a2.49 2.49 0 1 0 2.09-1.14l.02-.02Zm0 3.6a1.11 1.11 0 1 1 0-2.22 1.11 1.11 0 0 1 0 2.22Zm15-1.64a.659.659 0 0 1-.66.67.67.67 0 1 1 0-1.33.662.662 0 0 1 .7.66h-.04ZM4.73 5.19a.67.67 0 1 1 1.34 0 .67.67 0 0 1-1.34 0Z"/>
</svg>
