<svg xmlns="http://www.w3.org/2000/svg" width="24" height="24" fill="currentColor" viewBox="0 0 24 24">
  <path d="M13.69 22.66a2.46 2.46 0 0 1-2.44-2.45v-4.48a.75.75 0 1 1 1.5 0v4.48a1 1 0 0 0 .35.74.92.92 0 0 0 .78.19A8.78 8.78 0 0 0 16.72 20a.75.75 0 1 1 .77 1.29 10.732 10.732 0 0 1-3.3 1.28c-.162.05-.33.08-.5.09ZM21 17.25a.67.67 0 0 1-.33-.08.75.75 0 0 1-.34-1 9.15 9.15 0 0 0 .95-4.08 9.24 9.24 0 0 0-13.1-8.43.75.75 0 0 1-.63-1.36 10.75 10.75 0 0 1 15.2 9.79 10.64 10.64 0 0 1-1.1 4.74.75.75 0 0 1-.65.42ZM3.82 18.59a.75.75 0 0 1-.61-.31 10.74 10.74 0 0 1-.5-11.6.75.75 0 0 1 1.29.76 9 9 0 0 0-1.2 3.66 9.33 9.33 0 0 0 1.63 6.31.74.74 0 0 1-.61 1.18Z"/>
  <path d="M5.15 21.83a2.54 2.54 0 1 1 0-5.08 2.54 2.54 0 0 1 0 5.08Zm0-3.58a1 1 0 1 0 0 2 1 1 0 0 0 0-2Z"/>
  <path d="M15.3 7.62H8.7a1.44 1.44 0 0 0-1.44 1.44v.07c0 .795.645 1.44 1.44 1.44h6.6a1.44 1.44 0 0 0 1.44-1.44v-.07a1.44 1.44 0 0 0-1.44-1.44Z" opacity=".3"/>
  <path d="M10.22 7.62v-2.9a.69.69 0 0 0-1.38 0v2.87l1.38.03Zm5.02 0V4.73a.68.68 0 0 0-.68-.73.69.69 0 0 0-.69.69v2.93h1.37Zm-.13 5.27a3.11 3.11 0 0 1-6.22 0v-2.32h6.22v2.32Zm4.33 6.53a.66.66 0 1 0 0-1.32.66.66 0 0 0 0 1.32Zm-14-14.03a.66.66 0 1 0 0-1.32.66.66 0 0 0 0 1.32Z"/>
</svg>
