<svg xmlns="http://www.w3.org/2000/svg" width="24" height="24" fill="currentColor" viewBox="0 0 24 24">
  <path d="M6.25 3h-2.5A1.75 1.75 0 0 0 2 4.75v14.5c0 .966.784 1.75 1.75 1.75h2.5A1.75 1.75 0 0 0 8 19.25V4.75A1.75 1.75 0 0 0 6.25 3Z"/>
  <path d="M20.25 11h-8.5A1.75 1.75 0 0 1 10 9.25v-4.5A1.75 1.75 0 0 1 11.75 3h8.5A1.75 1.75 0 0 1 22 4.75v4.5A1.75 1.75 0 0 1 20.25 11ZM22 19.25v-4.5A1.75 1.75 0 0 0 20.25 13h-8.5A1.75 1.75 0 0 0 10 14.75v4.5A1.75 1.75 0 0 0 11.75 21h8.5A1.75 1.75 0 0 0 22 19.25Z" opacity=".3"/>
</svg>
