<svg xmlns="http://www.w3.org/2000/svg" width="24" height="24" fill="currentColor" viewBox="0 0 24 24">
  <path d="M20.29 21.75h-8.08a2.459 2.459 0 0 1-2.46-2.46V4.71a2.46 2.46 0 0 1 2.46-2.46h8.08a2.46 2.46 0 0 1 2.46 2.46v14.58a2.459 2.459 0 0 1-2.46 2.46Zm-8.08-18a1 1 0 0 0-1 1v14.54a1 1 0 0 0 1 1h8.08a1 1 0 0 0 1-1V4.71a1 1 0 0 0-1-1l-8.08.04Zm-6.35 18H3.68a2.43 2.43 0 0 1-2.43-2.43V4.68a2.43 2.43 0 0 1 2.43-2.43h2.18a2.43 2.43 0 0 1 2.43 2.43v14.64a2.43 2.43 0 0 1-2.43 2.43Zm-2.18-18a.93.93 0 0 0-.93.93v14.64a.93.93 0 0 0 .93.93h2.18a.93.93 0 0 0 .93-.93V4.68a.93.93 0 0 0-.93-.93H3.68Z"/>
</svg>
