<svg xmlns="http://www.w3.org/2000/svg" width="24" height="24" fill="currentColor" viewBox="0 0 24 24">
  <path d="M20 22.25h-1.2a2.3 2.3 0 0 1-2.3-2.3V12a2.31 2.31 0 0 1 2.3-2.31H20A2.31 2.31 0 0 1 22.25 12v8A2.3 2.3 0 0 1 20 22.25Zm-1.2-11a.8.8 0 0 0-.8.75v8a.8.8 0 0 0 .8.8H20a.8.8 0 0 0 .8-.8v-8a.8.8 0 0 0-.8-.81l-1.2.06Zm-6.07 11h-1.2A2.29 2.29 0 0 1 9.25 20v-8a2.29 2.29 0 0 1 2.28-2.29h1.15A2.3 2.3 0 0 1 15 12v8a2.3 2.3 0 0 1-2.32 2.25h.05Zm-1.15-11a.79.79 0 0 0-.78.79V20a.78.78 0 0 0 .78.79h1.15a.79.79 0 0 0 .79-.79v-8a.79.79 0 0 0-.79-.79l-1.15.04Zm-6.15 11H4.08a2.34 2.34 0 0 1-2.33-2.33v-7.86a2.34 2.34 0 0 1 2.33-2.33h1.3a2.34 2.34 0 0 1 2.33 2.33v7.86a2.34 2.34 0 0 1-2.33 2.33h.05Zm-1.3-11a.83.83 0 0 0-.83.83v7.86a.83.83 0 0 0 .83.83h1.3a.83.83 0 0 0 .83-.83v-7.88a.83.83 0 0 0-.83-.83l-1.3.02Zm15.67-3H4.25a2.5 2.5 0 0 1-2.5-2.5v-1.5a2.5 2.5 0 0 1 2.5-2.5h15.5a2.5 2.5 0 0 1 2.5 2.5v1.5a2.5 2.5 0 0 1-2.5 2.5h.05Zm-15.5-5a1 1 0 0 0-1 1v1.5a1 1 0 0 0 1 1h15.5a1 1 0 0 0 1-1v-1.5a1 1 0 0 0-1-1H4.3Z"/>
</svg>
