<svg xmlns="http://www.w3.org/2000/svg" width="24" height="24" fill="currentColor" viewBox="0 0 24 24">
  <path d="M9 8.72H4.07A2.32 2.32 0 0 1 1.75 6.4V3.57a2.32 2.32 0 0 1 2.32-2.32H9a2.32 2.32 0 0 1 2.32 2.32V6.4A2.32 2.32 0 0 1 9 8.72Zm-4.94-6a.82.82 0 0 0-.82.82V6.4a.82.82 0 0 0 .82.82H9a.82.82 0 0 0 .82-.82V3.57A.82.82 0 0 0 9 2.75l-4.94-.03Zm4.81 20H4.2a2.45 2.45 0 0 1-2.45-2.42v-7.6a2.45 2.45 0 0 1 2.45-2.45h4.68a2.45 2.45 0 0 1 2.45 2.45v7.6a2.45 2.45 0 0 1-2.45 2.45l-.01-.03Zm-4.68-11a1 1 0 0 0-1 .95v7.6a1 1 0 0 0 1 .95h4.69a1 1 0 0 0 .95-.95V12.7a1 1 0 0 0-.95-.95l-4.69-.03Zm15.61 2h-4.54a2.44 2.44 0 0 1-2.44-2.44V3.69a2.44 2.44 0 0 1 2.44-2.44h4.55a2.44 2.44 0 0 1 2.44 2.44v7.62a2.44 2.44 0 0 1-2.44 2.44l-.01-.03Zm-4.55-11a.94.94 0 0 0-.94.94v7.62a.94.94 0 0 0 .94.94h4.55a.939.939 0 0 0 .94-.94V3.69a.939.939 0 0 0-.94-.94l-4.55-.03Zm4.68 20h-4.8a2.32 2.32 0 0 1-2.32-2.31v-2.88a2.32 2.32 0 0 1 2.32-2.31h4.8a2.32 2.32 0 0 1 2.31 2.31v2.91a2.32 2.32 0 0 1-2.3 2.31l-.01-.03Zm-4.8-6a.82.82 0 0 0-.82.81v2.91a.82.82 0 0 0 .82.81h4.8a.81.81 0 0 0 .81-.81v-2.91a.81.81 0 0 0-.81-.81h-4.8Z"/>
</svg>
