<svg xmlns="http://www.w3.org/2000/svg" width="24" height="24" fill="currentColor" viewBox="0 0 24 24">
  <path d="M9.22 1.25h-5a2.52 2.52 0 0 0-2.47 2.52v5a2.52 2.52 0 0 0 2.52 2.52h5a2.52 2.52 0 0 0 2.52-2.52v-5a2.519 2.519 0 0 0-2.57-2.52Zm1 7.48a1 1 0 0 1-1 1h-5a1 1 0 0 1-1-1v-5a1 1 0 0 1 1-1h5a1 1 0 0 1 1 1v5Zm10.51-7.48h-5a2.52 2.52 0 0 0-2.51 2.52v5a2.52 2.52 0 0 0 2.51 2.52h5a2.52 2.52 0 0 0 2.52-2.52v-5a2.52 2.52 0 0 0-2.52-2.52Zm1 7.48a1 1 0 0 1-1 1h-5a1 1 0 0 1-1-1v-5a1 1 0 0 1 1-1h5a1 1 0 0 1 1 1v5Zm-12.53 4h-5a2.52 2.52 0 0 0-2.52 2.52v5a2.52 2.52 0 0 0 2.52 2.52h5a2.52 2.52 0 0 0 2.52-2.52v-5a2.52 2.52 0 0 0-2.5-2.5l-.02-.02Zm1 7.48a1 1 0 0 1-1 1h-5a1 1 0 0 1-1-1v-5a1 1 0 0 1 1-1h5a1 1 0 0 1 1 1v5Zm11.87-2.48a.75.75 0 0 1-.75.75H19v2.36a.75.75 0 1 1-1.5 0V18.5h-2.36a.75.75 0 0 1 0-1.5h2.36v-2.36a.75.75 0 1 1 1.5 0V17h2.36a.75.75 0 0 1 .75.75l-.04-.02Z"/>
</svg>
