<svg xmlns="http://www.w3.org/2000/svg" width="24" height="24" fill="currentColor" viewBox="0 0 24 24">
  <path d="M5.89 21.75H3.68a2.43 2.43 0 0 1-2.43-2.43V4.68a2.43 2.43 0 0 1 2.43-2.43h2.21a2.43 2.43 0 0 1 2.43 2.43v14.64a2.43 2.43 0 0 1-2.43 2.43Zm-2.21-18a.93.93 0 0 0-.93.93v14.64a.93.93 0 0 0 .93.93h2.21a.93.93 0 0 0 .93-.93V4.68a.93.93 0 0 0-.93-.93H3.68Zm16.66 18h-8.16a2.41 2.41 0 0 1-2.4-2.41v-4.21a2.41 2.41 0 0 1 2.4-2.41h8.16a2.41 2.41 0 0 1 2.41 2.41v4.21a2.41 2.41 0 0 1-2.41 2.41Zm-8.16-7.53a.9.9 0 0 0-.9.91v4.21a.901.901 0 0 0 .9.91h8.16a.91.91 0 0 0 .91-.91v-4.21a.91.91 0 0 0-.91-.91h-8.16Zm8.16-3h-8.16a2.41 2.41 0 0 1-2.4-2.4V4.66a2.41 2.41 0 0 1 2.4-2.41h8.16a2.41 2.41 0 0 1 2.41 2.41v4.21a2.41 2.41 0 0 1-2.41 2.4v-.05Zm-8.16-7.47a.9.9 0 0 0-.9.91v4.21a.9.9 0 0 0 .9.9h8.16a.9.9 0 0 0 .91-.9V4.66a.91.91 0 0 0-.91-.91h-8.16Z"/>
</svg>
