<svg xmlns="http://www.w3.org/2000/svg" width="24" height="24" fill="currentColor" viewBox="0 0 24 24">
  <path d="M9.22 2H4.27A1.77 1.77 0 0 0 2.5 3.77v4.95c0 .978.792 1.77 1.77 1.77h4.95a1.77 1.77 0 0 0 1.77-1.77V3.77A1.77 1.77 0 0 0 9.22 2Z"/>
  <path d="M20.72 2h-4.95A1.77 1.77 0 0 0 14 3.77v4.95c0 .978.793 1.77 1.77 1.77h4.95a1.77 1.77 0 0 0 1.77-1.77V3.77A1.77 1.77 0 0 0 20.72 2ZM9.22 13.5H4.27a1.77 1.77 0 0 0-1.77 1.77v4.95c0 .978.792 1.77 1.77 1.77h4.95a1.77 1.77 0 0 0 1.77-1.77v-4.95a1.77 1.77 0 0 0-1.77-1.77Z" opacity=".3"/>
  <path d="M21.36 18.5h-6.22a.75.75 0 1 1 0-1.5h6.22a.75.75 0 1 1 0 1.5Z"/>
  <path d="M18.25 21.61a.75.75 0 0 1-.75-.75v-6.22a.75.75 0 1 1 1.5 0v6.22a.75.75 0 0 1-.75.75Z"/>
</svg>
