<svg xmlns="http://www.w3.org/2000/svg" width="24" height="24" fill="currentColor" viewBox="0 0 24 24">
  <path d="M8.72 11.25h-5a2.52 2.52 0 0 1-2.47-2.52v-5a2.52 2.52 0 0 1 2.52-2.48h5a2.52 2.52 0 0 1 2.52 2.52v5a2.52 2.52 0 0 1-2.57 2.48Zm-5-8.5a1 1 0 0 0-1 1v5a1 1 0 0 0 1 1h5a1 1 0 0 0 1-1v-5a1 1 0 0 0-1-1h-5Zm16.46 8.5h-5a2.52 2.52 0 0 1-2.52-2.52v-5a2.52 2.52 0 0 1 2.52-2.52h5a2.52 2.52 0 0 1 2.52 2.52v5a2.52 2.52 0 0 1-2.47 2.52h-.05Zm-5-8.5a1 1 0 0 0-1 1v5a1 1 0 0 0 1 1h5a1 1 0 0 0 1-1v-5a1 1 0 0 0-1-1h-5Zm4.94 20h-4.85a2.52 2.52 0 0 1-2.52-2.52v-5a2.52 2.52 0 0 1 2.52-2.52h4.95a2.52 2.52 0 0 1 2.52 2.52v5a2.52 2.52 0 0 1-2.52 2.52h-.1Zm-4.95-8.5a1 1 0 0 0-1 1v5a1 1 0 0 0 1 1h4.95a1 1 0 0 0 1-1v-5a1 1 0 0 0-1-1h-4.95Zm-6.55 8.5h-5a2.52 2.52 0 0 1-2.52-2.52v-5a2.52 2.52 0 0 1 2.52-2.52h5a2.52 2.52 0 0 1 2.52 2.52v5a2.52 2.52 0 0 1-2.42 2.52h-.1Zm-5-8.5a1 1 0 0 0-1 1v5a1 1 0 0 0 1 1h5a1 1 0 0 0 1-1v-5a1 1 0 0 0-1-1h-5Z"/>
</svg>
