<svg xmlns="http://www.w3.org/2000/svg" width="24" height="24" fill="currentColor" viewBox="0 0 24 24">
  <path d="M5.41 2.75v2.66H2.75V2.75h2.66Zm.37-1.5h-3.4a1.14 1.14 0 0 0-1.13 1.13v3.4a1.14 1.14 0 0 0 1.13 1.13h3.4a1.14 1.14 0 0 0 1.13-1.13v-3.4a1.14 1.14 0 0 0-1.13-1.13Zm15.47 1.5v2.66h-2.66V2.75h2.66Zm-7.92 0v2.66h-2.66V2.75h2.66Zm7.92 7.92v2.66h-2.66v-2.66h2.66Zm-7.92 0v2.66h-2.66v-2.66h2.66Zm-7.92 0v2.66H2.75v-2.66h2.66Zm15.84 7.92v2.66h-2.66v-2.66h2.66Zm-7.92 0v2.66h-2.66v-2.66h2.66Zm-7.92 0v2.66H2.75v-2.66h2.66ZM21.62 1.25h-3.4a1.14 1.14 0 0 0-1.13 1.13v3.4a1.14 1.14 0 0 0 1.13 1.13h3.4a1.14 1.14 0 0 0 1.13-1.13v-3.4a1.14 1.14 0 0 0-1.13-1.13Zm-7.92 0h-3.4a1.14 1.14 0 0 0-1.13 1.13v3.4a1.14 1.14 0 0 0 1.13 1.13h3.4a1.14 1.14 0 0 0 1.13-1.13v-3.4a1.14 1.14 0 0 0-1.13-1.13Zm7.92 7.92h-3.4a1.14 1.14 0 0 0-1.13 1.13v3.4a1.14 1.14 0 0 0 1.13 1.13h3.4a1.14 1.14 0 0 0 1.13-1.13v-3.4a1.14 1.14 0 0 0-1.13-1.13Zm-7.92 0h-3.4a1.14 1.14 0 0 0-1.13 1.13v3.4a1.14 1.14 0 0 0 1.13 1.13h3.4a1.14 1.14 0 0 0 1.13-1.13v-3.4a1.14 1.14 0 0 0-1.13-1.13Zm-7.92 0h-3.4a1.14 1.14 0 0 0-1.13 1.13v3.4a1.14 1.14 0 0 0 1.13 1.13h3.4a1.14 1.14 0 0 0 1.13-1.13v-3.4a1.14 1.14 0 0 0-1.13-1.13Zm15.84 7.92h-3.4a1.14 1.14 0 0 0-1.13 1.13v3.4a1.14 1.14 0 0 0 1.13 1.13h3.4a1.14 1.14 0 0 0 1.13-1.13v-3.4a1.14 1.14 0 0 0-1.13-1.13Zm-7.92 0h-3.4a1.14 1.14 0 0 0-1.13 1.13v3.4a1.14 1.14 0 0 0 1.13 1.13h3.4a1.14 1.14 0 0 0 1.13-1.13v-3.4a1.14 1.14 0 0 0-1.13-1.13Zm-7.92 0h-3.4a1.14 1.14 0 0 0-1.13 1.13v3.4a1.14 1.14 0 0 0 1.13 1.13h3.4a1.14 1.14 0 0 0 1.13-1.13v-3.4a1.14 1.14 0 0 0-1.13-1.13Z"/>
</svg>
