<svg xmlns="http://www.w3.org/2000/svg" width="24" height="24" fill="currentColor" viewBox="0 0 24 24">
  <path d="M19.86 7.68H4.14a2.39 2.39 0 0 1-2.39-2.39V4.14a2.39 2.39 0 0 1 2.39-2.39h15.72a2.39 2.39 0 0 1 2.39 2.39v1.15a2.39 2.39 0 0 1-2.39 2.39ZM4.14 3.25a.89.89 0 0 0-.89.89v1.15a.89.89 0 0 0 .89.89h15.72a.89.89 0 0 0 .89-.89V4.14a.89.89 0 0 0-.89-.89H4.14Zm2.2 19h-2.2a2.39 2.39 0 0 1-2.39-2.39V11.6a2.39 2.39 0 0 1 2.39-2.39h2.2a2.39 2.39 0 0 1 2.38 2.39v8.26a2.39 2.39 0 0 1-2.38 2.39Zm-2.2-11.54a.89.89 0 0 0-.89.89v8.26a.89.89 0 0 0 .89.89h2.2a.89.89 0 0 0 .88-.89V11.6a.89.89 0 0 0-.88-.89h-2.2Zm15.69 11.54h-7.17a2.43 2.43 0 0 1-2.42-2.42v-8.19a2.43 2.43 0 0 1 2.42-2.43h7.17a2.43 2.43 0 0 1 2.42 2.43v8.19a2.43 2.43 0 0 1-2.42 2.42Zm-7.17-11.54a.93.93 0 0 0-.92.93v8.19a.92.92 0 0 0 .92.92h7.17a.92.92 0 0 0 .92-.92v-8.19a.93.93 0 0 0-.92-.93h-7.17Z"/>
</svg>
