<svg xmlns="http://www.w3.org/2000/svg" width="24" height="24" fill="currentColor" viewBox="0 0 24 24">
  <path d="M19.82 22.25H4.18a2.43 2.43 0 0 1-2.43-2.43V12.1a2.43 2.43 0 0 1 2.43-2.42h15.64a2.43 2.43 0 0 1 2.43 2.42v7.72a2.43 2.43 0 0 1-2.43 2.43ZM4.18 11.18a.93.93 0 0 0-.93.92v7.72a.93.93 0 0 0 .93.93h15.64a.93.93 0 0 0 .93-.93V12.1a.93.93 0 0 0-.93-.92H4.18Zm15.57-2.93H4.25a2.5 2.5 0 0 1-2.5-2.5v-1.5a2.5 2.5 0 0 1 2.5-2.5h15.5a2.5 2.5 0 0 1 2.5 2.5v1.5a2.5 2.5 0 0 1-2.5 2.5Zm-15.5-5a1 1 0 0 0-1 1v1.5a1 1 0 0 0 1 1h15.5a1 1 0 0 0 1-1v-1.5a1 1 0 0 0-1-1H4.25Z"/>
</svg>
