<svg xmlns="http://www.w3.org/2000/svg" width="24" height="24" fill="currentColor" viewBox="0 0 24 24">
  <path fill-rule="evenodd" d="M12 3.205a8.795 8.795 0 1 0 0 17.59 8.758 8.758 0 0 0 3.76-.842.977.977 0 1 1 .837 1.767A10.712 10.712 0 0 1 12 22.75C6.063 22.75 1.25 17.937 1.25 12S6.063 1.25 12 1.25 22.75 6.063 22.75 12c0 3.366-1.876 5.864-4.642 5.864a3.42 3.42 0 0 1-3.42-3.42V12a.977.977 0 1 1 1.954 0v2.443c0 .81.656 1.466 1.466 1.466 1.282 0 2.688-1.167 2.688-3.909A8.795 8.795 0 0 0 12 3.205Z" clip-rule="evenodd" opacity=".3"/>
  <path fill-rule="evenodd" d="M12 9.076a2.688 2.688 0 1 0 0 5.375 2.688 2.688 0 0 0 0-5.375Zm-4.642 2.688a4.642 4.642 0 1 1 9.284 0 4.642 4.642 0 0 1-9.284 0Z" clip-rule="evenodd"/>
</svg>
