<svg xmlns="http://www.w3.org/2000/svg" width="25" height="25" fill="currentColor" viewBox="0 0 25 25">
  <path fill-rule="evenodd" d="M12.645 3.25a9.25 9.25 0 0 0 0 18.5 9.211 9.211 0 0 0 3.955-.886.75.75 0 0 1 .642 1.356 10.711 10.711 0 0 1-4.597 1.03c-5.937 0-10.75-4.813-10.75-10.75S6.708 1.75 12.645 1.75s10.75 4.813 10.75 10.75c0 3.364-1.86 5.75-4.5 5.75a3.251 3.251 0 0 1-3.158-2.48 4.5 4.5 0 1 1 1.408-3.27V15c0 .966.784 1.75 1.75 1.75 1.502 0 3-1.364 3-4.25a9.25 9.25 0 0 0-9.25-9.25Zm3 9.25a3 3 0 1 0-6 0 3 3 0 0 0 6 0Z" clip-rule="evenodd"/>
</svg>
