<svg xmlns="http://www.w3.org/2000/svg" width="24" height="24" fill="currentColor" viewBox="0 0 24 24">
  <path d="M11.7 22.75H7.26a4.8 4.8 0 0 1-4.94-4.64V5.89a4.8 4.8 0 0 1 4.94-4.64h4.44a4.81 4.81 0 0 1 4.95 4.64.77.77 0 0 1-.76.77.78.78 0 0 1-.77-.77 3.28 3.28 0 0 0-3.42-3.12H7.26a3.29 3.29 0 0 0-3.42 3.12v12.22a3.29 3.29 0 0 0 3.42 3.12h4.44a3.28 3.28 0 0 0 3.42-3.12.78.78 0 0 1 .77-.77.77.77 0 0 1 .76.77 4.81 4.81 0 0 1-4.95 4.64Zm9.22-11.51H10.86l1.67-1.67a.78.78 0 0 0 0-1.08.76.76 0 0 0-1.08 0l-3 3a.759.759 0 0 0 0 1.08l3 3a.75.75 0 0 0 .54.22.759.759 0 0 0 .54-.22.78.78 0 0 0 0-1.08l-1.67-1.67h10.06a.76.76 0 0 0 0-1.52v-.06Z"/>
</svg>
