<svg xmlns="http://www.w3.org/2000/svg" width="24" height="24" fill="currentColor" viewBox="0 0 24 24">
  <path d="M16.79 22.75H6a4.69 4.69 0 0 1-4.69-4.68V7.28A4.69 4.69 0 0 1 6 2.59h7.86a.79.79 0 0 1 0 1.57H6a3.12 3.12 0 0 0-3.12 3.12v10.79A3.12 3.12 0 0 0 6 21.18h10.79a3.12 3.12 0 0 0 3.12-3.11v-8a.79.79 0 1 1 1.57 0v8a4.69 4.69 0 0 1-4.69 4.68Zm-2.95-11.49 7.34-7.33v2.43a.79.79 0 1 0 1.57 0V2a.79.79 0 0 0-.75-.75h-4.37a.79.79 0 0 0 0 1.57h2.44l-7.34 7.33a.8.8 0 0 0 0 1.11.778.778 0 0 0 1.11 0Z"/>
</svg>
