<svg xmlns="http://www.w3.org/2000/svg" width="24" height="24" fill="currentColor" viewBox="0 0 24 24">
  <path d="M7.67 6.86H6.45a.75.75 0 0 1 0-1.5h1.22a.75.75 0 0 1 0 1.5Zm.75 1.52a.76.76 0 0 0-.75-.75H6.45a.75.75 0 0 0 0 1.5h1.22a.75.75 0 0 0 .75-.75Zm0 2.28a.76.76 0 0 0-.75-.75H6.45a.75.75 0 1 0 0 1.5h1.22a.76.76 0 0 0 .75-.75ZM21.25 12V5.76a4.53 4.53 0 0 0-4.52-4.51H7.27a4.52 4.52 0 0 0-4.52 4.51V12a1.81 1.81 0 0 0 1.8 1.8h14.9a1.81 1.81 0 0 0 1.8-1.8Zm-4.52-9.25a3 3 0 0 1 3 3V12a.31.31 0 0 1-.3.3H4.55a.31.31 0 0 1-.3-.3V5.76a3 3 0 0 1 3-3l9.48-.01Zm4.52 15.55V17a1.83 1.83 0 0 0-1.85-1.82H4.6A1.83 1.83 0 0 0 2.75 17v1.3a4.52 4.52 0 0 0 4.57 4.45h9.36a4.52 4.52 0 0 0 4.57-4.45Zm-1.85-1.61a.34.34 0 0 1 .35.32v1.29a3 3 0 0 1-3.07 2.95H7.32a3 3 0 0 1-3.07-2.95V17a.34.34 0 0 1 .35-.32l14.8.01Zm-1.91 2.07a1 1 0 1 0-2 0 1 1 0 0 0 2 0Z"/>
</svg>
