<svg xmlns="http://www.w3.org/2000/svg" width="24" height="25" fill="currentColor" viewBox="0 0 24 25">
  <path d="M14.1 13.11c.01-.11.01-.22 0-.33a.76.76 0 0 1 1.187-.731.731.731 0 0 1 .293.49c.015.19.015.381 0 .57a3.6 3.6 0 0 1-3.6 3.6h-.4a.75.75 0 0 1-.66-.83.74.74 0 0 1 .82-.66 2.12 2.12 0 0 0 2.36-2.11Zm6.59-4.83a.762.762 0 0 0-1.15 1 6.4 6.4 0 0 1 1.71 3.87c0 3.41-4.49 7.81-9.25 7.81a8.541 8.541 0 0 1-3.7-1 .749.749 0 0 0-.916 1.165.75.75 0 0 0 .246.175A10 10 0 0 0 12 22.42c5.22 0 10.75-4.78 10.75-9.31a7.84 7.84 0 0 0-2.06-4.83Zm1-4.33L3.4 22.12a.74.74 0 0 1-.52.22.79.79 0 0 1-.54-.22.76.76 0 0 1 0-1.07l2-2c-2-1.84-3.13-4-3.13-5.92C1.25 8.67 6.88 3.8 12 3.8a10.78 10.78 0 0 1 5.76 1.9l2.84-2.82a.75.75 0 1 1 1 1.07h.09Zm-16.21 14 3.33-3.31a3.57 3.57 0 0 1 4.79-4.78l3.12-3.1A9.19 9.19 0 0 0 12 5.3c-4.23 0-9.25 4.2-9.25 7.81 0 1.49 1.02 3.31 2.69 4.86l.04-.02Zm4.46-4.45 2.45-2.45c-.13-.01-.26-.01-.39 0a2.1 2.1 0 0 0-2.1 2.1c.001.118.015.235.04.35Z"/>
</svg>
