<svg xmlns="http://www.w3.org/2000/svg" width="24" height="25" fill="currentColor" viewBox="0 0 24 25">
  <path d="M12 16.1a3.6 3.6 0 1 1 3.6-3.6 3.61 3.61 0 0 1-3.6 3.6Zm0-5.7a2.1 2.1 0 1 0 0 4.2 2.1 2.1 0 0 0 0-4.2Zm0 11.41a11.42 11.42 0 0 1-7.27-3.06c-2.18-1.91-3.48-4.25-3.48-6.25 0-4.44 5.63-9.31 10.75-9.31s10.75 5 10.75 9.31c0 4.52-5.53 9.31-10.75 9.31Zm0-17.12c-4.23 0-9.25 4.23-9.25 7.81 0 1.56 1.14 3.52 3 5.12A10.05 10.05 0 0 0 12 20.31c4.76 0 9.25-4.4 9.25-7.81 0-3.23-4.78-7.81-9.25-7.81Z"/>
</svg>
