<svg xmlns="http://www.w3.org/2000/svg" width="24" height="25" fill="currentColor" viewBox="0 0 24 25">
  <path d="M22.76 8.4a6.71 6.71 0 0 0-6.71-6.67H7.92A6.72 6.72 0 0 0 1.2 8.5v8.08A6.71 6.71 0 0 0 8 23.27h8.12a6.71 6.71 0 0 0 6.68-6.77l-.04-8.1Zm-7.08 4.87-.58 1.44h-2.59v7h-2v-7H8.14v-1.44h2.35V9.56a2.77 2.77 0 0 1 2.77-2.77h2.6v1.44h-1.42a1.94 1.94 0 0 0-1.93 1.93v3.11h3.17Zm4.11 6.91a5.18 5.18 0 0 1-3.67 1.55H14v-5.52h1.26a1.25 1.25 0 0 0 1.16-.79l.79-1.92a1.281 1.281 0 0 0-.13-1.17 1.25 1.25 0 0 0-1-.55H14v-1.62a.43.43 0 0 1 .43-.43h1.67a1.25 1.25 0 0 0 1.26-1.23v-2a1.25 1.25 0 0 0-1.25-1.25h-2.85A4.28 4.28 0 0 0 9 9.56v2.21H7.89a1.25 1.25 0 0 0-1.25 1.25v1.94a1.25 1.25 0 0 0 1.25 1.25H9v5.56H8a5.22 5.22 0 0 1-5.21-5.18L2.7 8.5a5.22 5.22 0 0 1 5.18-5.23h8.14a5.22 5.22 0 0 1 5.21 5.18v8.08a5.16 5.16 0 0 1-1.44 3.65Z"/>
</svg>
