<svg xmlns="http://www.w3.org/2000/svg" width="24" height="25" fill="currentColor" viewBox="0 0 24 25">
  <path d="M18.72 15.5a3.4 3.4 0 0 0 1.53-2.62A3.3 3.3 0 0 0 19 9.76a6.101 6.101 0 0 0-.35-2.46 5.851 5.851 0 0 0-3.76-3.68 6.77 6.77 0 0 0-5.64.88 4.31 4.31 0 0 0-3.51 2 5.2 5.2 0 0 0-.53 3.1 2.68 2.68 0 0 0-1.13 1.13 3.85 3.85 0 0 0-.39 2.12 3.39 3.39 0 0 0 1.57 2.65A5 5 0 0 0 7 18.69l2.43 2a4.11 4.11 0 0 0 5.12.13l2.27-1.69a5.001 5.001 0 0 0 1.9-3.63ZM7.07 7.27A3 3 0 0 1 9.6 6a.8.8 0 0 0 .4-.16 5.16 5.16 0 0 1 4.44-.74 4.31 4.31 0 0 1 2.73 2.72 4.64 4.64 0 0 1 .12 2.85 3.003 3.003 0 0 0-.47-.55 4 4 0 0 0-2.81-1h-.47a4.58 4.58 0 0 1-3.87-1.9.77.77 0 0 0-1-.25 5.65 5.65 0 0 0-1.95 2.11 3.37 3.37 0 0 1 .35-1.81Zm10.35 7a.856.856 0 0 1-.23-.06v.89a3.461 3.461 0 0 1-1.31 2.78l-2.27 1.69a2.56 2.56 0 0 1-3.23-.07L8 17.5a3.49 3.49 0 0 1-1.21-2.7v-.58a.898.898 0 0 1-.22.06h-.12c-.6 0-1.14-.68-1.23-1.58a2.06 2.06 0 0 1 .32-1.38c.16.59.371 1.166.63 1.72a.76.76 0 0 0 1.332.078.78.78 0 0 0 .118-.518 4.24 4.24 0 0 1 1.3-3.86 5.88 5.88 0 0 0 4.74 1.95 2.74 2.74 0 0 1 2.11.55c.389.394.62.917.65 1.47a.77.77 0 0 0 .58.79h.23a.77.77 0 0 0 .64-.34c.312-.46.567-.958.76-1.48.116.32.16.661.13 1-.09.9-.63 1.58-1.22 1.58l-.12.01Zm5.33 3.56v3.33a2 2 0 0 1-2 2h-3a.77.77 0 1 1 0-1.54h3a.43.43 0 0 0 .43-.43v-3.35a.77.77 0 1 1 1.54 0l.03-.01ZM7 22.37a.77.77 0 0 1-.77.77H3.32a2 2 0 0 1-2-2v-3.3a.77.77 0 1 1 1.54 0v3.33a.43.43 0 0 0 .43.43h2.98a.77.77 0 0 1 .73.77ZM22.75 3.72v3.33a.77.77 0 0 1-1.54 0V3.72a.43.43 0 0 0-.43-.43h-3a.77.77 0 0 1 0-1.54h3a2 2 0 0 1 1.97 1.97ZM1.35 7.05V3.72a2 2 0 0 1 2-2h2.92a.77.77 0 0 1 0 1.54H3.32a.43.43 0 0 0-.43.43v3.36a.77.77 0 0 1-1.54 0Z"/>
</svg>
