<svg xmlns="http://www.w3.org/2000/svg" width="24" height="24" fill="currentColor" viewBox="0 0 24 24">
  <path d="M21.06 2.94a5.78 5.78 0 0 0-8.17 0L9.34 6.5a5.53 5.53 0 0 0-1.16 1.7 5.54 5.54 0 0 0-1.69 1.14l-3.55 3.55a5.78 5.78 0 0 0 8.17 8.17l3.55-3.55a5.78 5.78 0 0 0 1.16-1.7 6.002 6.002 0 0 0 1.69-1.15l3.55-3.55a5.78 5.78 0 0 0 0-8.17Zm-6.4 6.4a6.241 6.241 0 0 0-1-.79l2.41-2.42a1.27 1.27 0 0 1 1.79 0 1.29 1.29 0 0 1 0 1.79l-2.42 2.41a5.29 5.29 0 0 0-.78-.99Zm-4.32 6.11-2.42 2.42a1.31 1.31 0 0 1-1.79 0 1.29 1.29 0 0 1 0-1.79l2.42-2.41a5.292 5.292 0 0 0 1.79 1.78ZM10.05 20A4.28 4.28 0 0 1 4 14l3.56-3.6.1-.1a.75.75 0 0 0 0 .15v.41c.005.208.025.415.06.62.02.152.05.302.09.45.015.094.035.188.06.28L5.07 15a2.79 2.79 0 0 0 0 3.91 2.84 2.84 0 0 0 3.91 0l3.55-3.56a2.75 2.75 0 0 0 0-3.9 1.26 1.26 0 0 1 0-1.78 4.27 4.27 0 0 1 1 6.8L10.05 20Zm10-9.95-3.61 3.55s-.08.06-.12.1a5.77 5.77 0 0 0-.23-1.89L18.93 9a2.79 2.79 0 0 0 0-3.91 2.78 2.78 0 0 0-3.91 0l-3.14 3.13-.41.41a2.75 2.75 0 0 0 0 3.9 1.238 1.238 0 0 1 .37.89 1.22 1.22 0 0 1-.37.89 4.233 4.233 0 0 1-1-.75 4 4 0 0 1-1-1.56 4.22 4.22 0 0 1 0-2.91 4.3 4.3 0 0 1 1-1.57L14 4a4.28 4.28 0 0 1 6 6.05h.05Z"/>
</svg>
