<svg xmlns="http://www.w3.org/2000/svg" width="24" height="24" fill="currentColor" viewBox="0 0 24 24">
  <path d="M20.25 22.75H3.75a2.5 2.5 0 0 1-2.5-2.5v-5a2.5 2.5 0 0 1 2.5-2.5h16.5a2.5 2.5 0 0 1 2.5 2.5v5a2.5 2.5 0 0 1-2.5 2.5Zm-16.5-8.5a1 1 0 0 0-1 1v5a1 1 0 0 0 1 1h16.5a1 1 0 0 0 1-1v-5a1 1 0 0 0-1-1H3.75Zm9.5-3h-9.5a2.5 2.5 0 0 1-2.5-2.5v-5a2.5 2.5 0 0 1 2.5-2.5h9.5a2.5 2.5 0 0 1 2.5 2.5v5a2.5 2.5 0 0 1-2.5 2.5Zm-9.5-8.5a1 1 0 0 0-1 1v5a1 1 0 0 0 1 1h9.5a1 1 0 0 0 1-1v-5a1 1 0 0 0-1-1h-9.5Z"/>
</svg>
