<svg xmlns="http://www.w3.org/2000/svg" width="24" height="24" fill="currentColor" viewBox="0 0 24 24">
  <path d="M16.36 17.36a6.9 6.9 0 0 0 1.81-3.22 6.42 6.42 0 0 1 1.66-3l-6.94-6.97a6.42 6.42 0 0 1-3 1.66 6.84 6.84 0 0 0-5.22 6.8 5.92 5.92 0 0 1-1.73 4.3l-.43.43a1 1 0 0 0 0 1.38l2.78 2.78a1 1 0 0 0 1.38 0l.43-.43a5.92 5.92 0 0 1 4.3-1.73 6.85 6.85 0 0 0 4.96-2Z" opacity=".3"/>
  <path d="m19.83 11.11-6.94-6.94 1.42-1.41a1.911 1.911 0 0 1 2.71 0L21.24 7a1.91 1.91 0 0 1 0 2.71l-1.41 1.4Zm-6.6-.34a2.45 2.45 0 0 0-4 2.62l-6 6.05 1.38 1.38 6.05-6a2.45 2.45 0 0 0 2.62-4l-.05-.05Z"/>
</svg>
