<svg xmlns="http://www.w3.org/2000/svg" width="24" height="24" fill="currentColor" viewBox="0 0 24 24">
  <path d="M12.24 14.36a.751.751 0 0 1-1.06.08l-1.6-1.39v5.1a.75.75 0 1 1-1.5 0V13l-1.85 1.46a.72.72 0 0 1-.46.16.751.751 0 0 1-.59-.29.77.77 0 0 1 .12-1.07l3.06-2.46a.389.389 0 0 1 .11-.06l.09-.05a.87.87 0 0 1 .22 0h.05a.6.6 0 0 1 .27.06l.09.05c.043.017.084.04.12.07l2.85 2.47a.78.78 0 0 1 .08 1.02Zm10.54 1.92a6.43 6.43 0 0 1-6.37 6.47H7.59a6.43 6.43 0 0 1-6.37-6.47V7.72a6.43 6.43 0 0 1 6.37-6.47H14a.78.78 0 0 1 .21 0h.06a.641.641 0 0 1 .22.14l8 8.13a.76.76 0 0 1 .19.72.66.66 0 0 1 0 .15l.1 5.89Zm-8-9.47a2.56 2.56 0 0 0 2.53 2.57h2.91l-5.47-5.53.03 2.96Zm6.53 9.47V10.9h-4a4.07 4.07 0 0 1-4-4.09v-4H7.59a4.91 4.91 0 0 0-4.87 4.91v8.56a4.91 4.91 0 0 0 4.87 4.95h8.82a4.91 4.91 0 0 0 4.87-4.95h.03Z"/>
</svg>
