<svg xmlns="http://www.w3.org/2000/svg" width="24" height="24" fill="currentColor" viewBox="0 0 24 24">
  <path d="M20.77 4.19v2.4a3 3 0 0 1-1 2.22l-1.15 1a.75.75 0 1 1-1-1.12l1.14-1a1.48 1.48 0 0 0 .49-1.1v-2.4a1.46 1.46 0 0 0-1.46-1.46H5.06A1.46 1.46 0 0 0 3.6 4.19v2.49c.008.375.158.732.42 1l3.76 3.81a4.57 4.57 0 0 1 1.33 3.23V20a1.29 1.29 0 0 0 2 1.05l1.36-1a.754.754 0 0 1 .87 1.23l-1.37 1A2.79 2.79 0 0 1 7.61 20v-5.25c0-.817-.323-1.601-.9-2.18L3 8.76a3 3 0 0 1-.9-2.08V4.19a3 3 0 0 1 3-3h12.71a3 3 0 0 1 2.96 3Zm-1.14 10.4-.77.78L16.27 18a1.48 1.48 0 0 1-.72.4l-1.06.22c-.1.01-.2.01-.3 0a1.46 1.46 0 0 1-1.41-1.73l.2-1.06a1.36 1.36 0 0 1 .38-.73l3.35-3.43a1.55 1.55 0 0 1 1.11-.46c.416.004.813.17 1.11.46l.65.64a1.59 1.59 0 0 1 .05 2.28Zm-1.87-1.83-.58.6a1.06 1.06 0 0 0 .85.71l.52-.53v-.12l-.65-.64a.193.193 0 0 0-.08 0l-.06-.02Zm-.87 2.48a2.459 2.459 0 0 1-.8-.77l-1.68 1.72-.18 1 1-.26 1.66-1.69Z"/>
</svg>
