<svg xmlns="http://www.w3.org/2000/svg" width="24" height="24" fill="currentColor" viewBox="0 0 24 24">
  <path d="m18.71 9.79 1.11-1a3 3 0 0 0 1-2.21V4.19a3 3 0 0 0-3-3H5.1a3 3 0 0 0-3 3v2.49A3 3 0 0 0 3 8.76l3.76 3.81a3.09 3.09 0 0 1 .9 2.19V20a2.77 2.77 0 0 0 2.79 2.79 2.77 2.77 0 0 0 1.61-.51l1.36-1a2.68 2.68 0 0 0 1-1.41 5.49 5.49 0 0 0 4.3-10.1l-.01.02Zm-6.16 10.28-1.36 1a1.28 1.28 0 0 1-2-1.05v-5.26a4.58 4.58 0 0 0-1.33-3.24l-3.8-3.81a1.47 1.47 0 0 1-.42-1V4.19A1.46 1.46 0 0 1 5.1 2.73h12.74a1.46 1.46 0 0 1 1.47 1.46V6.6a1.48 1.48 0 0 1-.49 1.09L17 9.3a4.63 4.63 0 0 0-.65 0A5.49 5.49 0 0 0 13 19.13a1.15 1.15 0 0 1-.45.94Zm3.81-1.31a4 4 0 1 1 0-8 4 4 0 0 1 0 8Zm-.44-2.09a.73.73 0 0 1-.5-.19l-1.26-1.13a.75.75 0 0 1-.06-1.06.76.76 0 0 1 1.06-.06l.76.68L18 13a.75.75 0 1 1 1 1.11l-2.58 2.34a.73.73 0 0 1-.5.22Z"/>
</svg>
