<svg xmlns="http://www.w3.org/2000/svg" width="24" height="24" fill="currentColor" viewBox="0 0 24 24">
  <path d="M16.49 22.75H8.71a6.37 6.37 0 0 1-6.31-6.42V13.9a.74.74 0 0 1 .73-.74.73.73 0 0 1 .72.74v2.43a4.91 4.91 0 0 0 4.86 5h7.78a4.899 4.899 0 0 0 4.85-5V8.8a4.9 4.9 0 0 0-4.85-4.94H14.8a.74.74 0 0 1 0-1.47h1.69a6.36 6.36 0 0 1 6.3 6.41v7.53a6.37 6.37 0 0 1-6.3 6.42ZM6.16 12.31l1-.34a1.47 1.47 0 0 0 1-1.41V8.34a.26.26 0 0 1 .08-.2l2.29-2.05a2.43 2.43 0 0 0 .8-1.83v-.71a2.21 2.21 0 0 0-2.11-2.3h-5.9a2.21 2.21 0 0 0-2.11 2.3v.71A2.46 2.46 0 0 0 2 6.09l2.3 2.05a.26.26 0 0 1 .08.2v2.56A1.5 1.5 0 0 0 5 12.11c.227.166.5.257.78.26.129-.002.257-.023.38-.06Zm3.07-9.59a.77.77 0 0 1 .66.83v.71a1 1 0 0 1-.3.72L7.29 7a1.75 1.75 0 0 0-.57 1.31v2.22l-.92.31v-2.5A1.73 1.73 0 0 0 5.25 7L3 5a1 1 0 0 1-.3-.72v-.73a.76.76 0 0 1 .66-.83h5.87Zm8.5 9.52a.74.74 0 0 0-.73-.74h-4.4a.74.74 0 0 0 0 1.48H17a.74.74 0 0 0 .73-.74Zm.3 4.17a.73.73 0 0 0-.72-.73H9.05a.74.74 0 0 0 0 1.47h8.26a.73.73 0 0 0 .69-.74h.03Z"/>
</svg>
