<svg xmlns="http://www.w3.org/2000/svg" width="24" height="24" fill="currentColor" viewBox="0 0 24 24">
  <path d="M16.33 3.13h-5a2.06 2.06 0 0 1 0 .43v.71a2.679 2.679 0 0 1-.89 2L8.12 8.35v2.21A1.7 1.7 0 0 1 7 12.2l-1 .34c-.158.05-.324.078-.49.08a1.69 1.69 0 0 1-1.73-1.72V8.33l-.88-.78a5.77 5.77 0 0 0-.14 1.25v7.53A5.67 5.67 0 0 0 8.43 22h7.9A5.67 5.67 0 0 0 22 16.33V8.8a5.669 5.669 0 0 0-5.67-5.67Z" opacity=".3"/>
  <path d="m9.8 5.55-2.33 2a1 1 0 0 0-.33.76v2.21a.73.73 0 0 1-.48.71l-1 .34a.691.691 0 0 1-.85-.71V8.35a1 1 0 0 0-.33-.76l-2.33-2a1.71 1.71 0 0 1-.56-1.28v-.75A1.49 1.49 0 0 1 3 2h6a1.49 1.49 0 0 1 1.4 1.56v.71a1.68 1.68 0 0 1-.6 1.28ZM12.38 13h4.47a.74.74 0 1 0 0-1.47h-4.47a.74.74 0 1 0 0 1.47Zm4.78 2.69H8.78a.74.74 0 1 0 0 1.47h8.38a.74.74 0 1 0 0-1.47Z"/>
</svg>
