<svg xmlns="http://www.w3.org/2000/svg" width="24" height="24" fill="currentColor" viewBox="0 0 24 24">
  <path d="M12.25 20.74a.921.921 0 0 1-.51-.17.87.87 0 0 1-.17-1.21 9.272 9.272 0 0 0 1.6-3.46.86.86 0 0 1 1.67.41 11.132 11.132 0 0 1-1.9 4.08.842.842 0 0 1-.69.35Zm-2.47-1.9a7.82 7.82 0 0 0 1.94-5.16V9.36a.86.86 0 1 1 1.71 0v3.73a.86.86 0 1 0 1.71 0V9.36a2.57 2.57 0 1 0-5.13 0v4.32a6.07 6.07 0 0 1-1.51 4 .88.88 0 0 0 .07 1.22.85.85 0 0 0 1.21-.07v.01Zm-2.33-2.53a.9.9 0 0 0 .85-.9V9.36a4.29 4.29 0 0 1 .27-1.51.87.87 0 0 0-.5-1.11.85.85 0 0 0-1.1.5 5.89 5.89 0 0 0-.38 2.12v6.13a.83.83 0 0 0 .85.82h.01ZM10 5.9a4.1 4.1 0 0 1 1.42-.7.89.89 0 0 0 .58-1.07.86.86 0 0 0-1-.6 6.16 6.16 0 0 0-2 1 .88.88 0 0 0-.17 1.21.86.86 0 0 0 .69.35.89.89 0 0 0 .48-.19Zm7.85 12.29c.463-1.458.7-2.98.7-4.51V9.36a6 6 0 0 0-4-5.72.87.87 0 0 0-1.09.54.88.88 0 0 0 .54 1.1 4.31 4.31 0 0 1 2.89 4.08v4.32a13.003 13.003 0 0 1-.62 4 .859.859 0 0 0 .55 1.09.822.822 0 0 0 .26 0 .861.861 0 0 0 .79-.58h-.02Z"/>
  <path d="M20.8 22.75h-2.95a.75.75 0 1 1 0-1.5h2.95a.46.46 0 0 0 .45-.46v-3.35a.75.75 0 0 1 1.5 0v3.35a2 2 0 0 1-1.95 1.96Zm-14.52 0H3.33a2 2 0 0 1-1.95-2v-3.31a.75.75 0 0 1 1.5 0v3.35a.46.46 0 0 0 .45.46h3a.75.75 0 0 1 0 1.5h-.05ZM22 7.33a.76.76 0 0 1-.75-.75V3.22a.45.45 0 0 0-.45-.45h-2.95a.75.75 0 1 1 0-1.5h2.95a2 2 0 0 1 1.95 2v3.31a.76.76 0 0 1-.75.75Zm-19.87 0a.76.76 0 0 1-.75-.75V3.22a2 2 0 0 1 2-1.95h3a.75.75 0 0 1 0 1.5H3.33a.45.45 0 0 0-.45.45v3.36a.75.75 0 0 1-.75.75Z" opacity=".3"/>
</svg>
