<svg xmlns="http://www.w3.org/2000/svg" width="24" height="24" fill="currentColor" viewBox="0 0 24 24">
  <path d="M22.44 8.92a6.68 6.68 0 0 0-6.66-6.27h-5a2.78 2.78 0 0 0-2.42-1.4H6.18a4.93 4.93 0 0 0-4.93 4.93v10.89a5.68 5.68 0 0 0 5.68 5.68h10.14a5.68 5.68 0 0 0 5.68-5.68v-5.72a22.54 22.54 0 0 0-.31-2.43Zm-6.66-4.74a5.12 5.12 0 0 1 4.3 2.36 5.64 5.64 0 0 0-3-.87h-3.19a2.78 2.78 0 0 1-2.46-1.49h4.35Zm5.44 12.89a4.15 4.15 0 0 1-4.15 4.15H6.93a4.15 4.15 0 0 1-4.15-4.15V6.18a3.4 3.4 0 0 1 3.4-3.4h2.16a1.24 1.24 0 0 1 1.17.8l.36.9a4.31 4.31 0 0 0 4 2.72h3.18a4.15 4.15 0 0 1 4.15 4.15l.02 5.72Z"/>
  <path d="m15.44 15-2.84 2.5-.12.07-.1.05a.64.64 0 0 1-.54 0l-.09-.05-.11-.06L8.58 15a.77.77 0 0 1-.12-1 .74.74 0 0 1 1-.12l1.85 1.49v-5.21a.75.75 0 1 1 1.5 0v5.1l1.61-1.39a.74.74 0 0 1 1 .08.78.78 0 0 1 .02 1.05Z"/>
</svg>
