<svg xmlns="http://www.w3.org/2000/svg" width="24" height="25" fill="currentColor" viewBox="0 0 24 25">
  <path fill-rule="evenodd" d="M21.486 9.878 14.638 4.34a1.204 1.204 0 0 0-1.345-.13 1.325 1.325 0 0 0-.518.51c-.125.218-.192.47-.192.728v2.469c0 .166-.137.3-.303.304-6.851.168-9.866 6.05-10.24 10.564a11.96 11.96 0 0 0-.035 1.28c.017.522.767.566.997.098a10.874 10.874 0 0 1 .51-.917c1.27-2.038 3.802-4.579 8.724-5.434a.297.297 0 0 1 .347.293v2.42c0 .257.067.509.192.728.125.218.305.395.518.51a1.204 1.204 0 0 0 1.345-.13l6.848-5.54c.16-.128.29-.296.378-.488a1.473 1.473 0 0 0 0-1.238 1.365 1.365 0 0 0-.378-.489Zm-7.403 6.274 6.388-5.166-6.388-5.166v2.097c0 1.024-.832 1.78-1.766 1.803-3.225.08-5.41 1.606-6.819 3.63a11.043 11.043 0 0 0-1.382 2.776c1.684-1.638 4.185-3.153 7.864-3.792a1.797 1.797 0 0 1 2.103 1.771v2.047Zm6.46-5.225Z" clip-rule="evenodd"/>
</svg>
