<svg xmlns="http://www.w3.org/2000/svg" width="24" height="24" fill="currentColor" viewBox="0 0 24 24">
  <path d="M20.78 17.75h-7.56a.75.75 0 1 1 0-1.5h7.56a.75.75 0 1 1 0 1.5ZM18.57 21a.76.76 0 0 0-.75-.75h-4.6a.75.75 0 1 0 0 1.5h4.6a.76.76 0 0 0 .75-.75Zm3-7.82v.05c.01.05.01.1 0 .15a.642.642 0 0 1 0 .13.757.757 0 0 1-.08.11l-.1.12-.11.05h-.08a.66.66 0 0 1-.27.06h-7.71a.66.66 0 0 1-.27-.06h-.08l-.11-.05-.1-.12a.757.757 0 0 1-.08-.11.657.657 0 0 1 0-.13.402.402 0 0 1 0-.15V3.2a.417.417 0 0 0 0-.05.351.351 0 0 1 0-.14.744.744 0 0 1 0-.14.758.758 0 0 1 .08-.11l.1-.12h.08L13 2.5h8.04l.14.07h.08l.1.12c.03.034.057.071.08.11a.744.744 0 0 1 0 .14.33.33 0 0 1 0 .14v.05l.13 10.05ZM14 5.43V11l2.09-2.76L14 5.43ZM17 7l2.27-3h-4.54L17 7Zm-2.27 5.48h4.54L17 9.43l-2.27 3.05ZM20 11V5.43l-2.06 2.76L20 11ZM9.85 3.18V21a1 1 0 0 1 0 .17v.12s-.06.08-.08.12c-.02.04-.05.08-.09.11a.408.408 0 0 1-.11.07.599.599 0 0 1-.13.09.771.771 0 0 1-.25 0H2.8a.729.729 0 0 1-.25 0 .672.672 0 0 1-.14-.09.409.409 0 0 1-.11-.07.499.499 0 0 1-.08-.12.76.76 0 0 1-.08-.11.5.5 0 0 1 0-.13.75.75 0 0 1 0-.16V3.18a.94.94 0 0 1 0-.16.53.53 0 0 1 0-.12.5.5 0 0 1 .08-.12l.08-.12.11-.06a.42.42 0 0 1 .14-.09.51.51 0 0 1 .13 0h6.43a.53.53 0 0 1 .12 0 .69.69 0 0 1 .13 0 .57.57 0 0 1 .13.08.973.973 0 0 1 .11.07.94.94 0 0 1 .09.12c.029.038.056.078.08.12v.12a.9.9 0 0 1 .08.16Zm-6.3 4.39v9.07l1.61-4.54-1.61-4.53ZM6 9.86 8 4H3.86L6 9.86ZM3.86 20.25H8l-2-5.9-2.14 5.9Zm4.5-3.61V7.57L6.75 12.1l1.61 4.54Z"/>
</svg>
