<svg xmlns="http://www.w3.org/2000/svg" width="24" height="25" fill="currentColor" viewBox="0 0 24 25">
  <path d="M12 22.88a2.239 2.239 0 0 1-1.66-.74L5.48 16.7a8.75 8.75 0 1 1 13 0l-4.86 5.44a2.242 2.242 0 0 1-1.62.74Zm0-19.26a6.29 6.29 0 0 0-.86 0 7.25 7.25 0 0 0-4.56 12l4.87 5.44a.7.7 0 0 0 .54.24.7.7 0 0 0 .54-.24l4.87-5.44a7.26 7.26 0 0 0-.57-10.12A7.18 7.18 0 0 0 12 3.62Zm3 11h-2.75v-3.75c0-.28-.5-.28-.5 0v3.75H9a1.76 1.76 0 0 1-1.75-1.75v-2.75a3.27 3.27 0 0 1 1.3-2.62l2.38-1.79a1.8 1.8 0 0 1 2.14 0l2.38 1.79a3.27 3.27 0 0 1 1.3 2.6v2.75A1.76 1.76 0 0 1 15 14.62Zm-1.25-1.5H15a.25.25 0 0 0 .25-.25v-2.75a1.75 1.75 0 0 0-.7-1.4l-2.38-1.79a.3.3 0 0 0-.34 0L9.45 8.72a1.75 1.75 0 0 0-.7 1.4v2.75a.25.25 0 0 0 .25.25h1.25v-2.25a1.75 1.75 0 0 1 3.5 0v2.25Z"/>
</svg>
