<svg xmlns="http://www.w3.org/2000/svg" width="24" height="25" fill="currentColor" viewBox="0 0 24 25">
  <path d="M18.19 4.11a9.22 9.22 0 0 0-7.27-2.3 9.3 9.3 0 0 0-5.85 15.43l4.35 4.85a3.45 3.45 0 0 0 5.16 0l4.35-4.85a9.31 9.31 0 0 0-.74-13.13ZM12 21.75a1.998 1.998 0 0 1-1.47-.66l-4.34-4.85a7.79 7.79 0 0 1 4.9-12.94h.93a7.72 7.72 0 0 1 5.17 2 7.8 7.8 0 0 1 .62 11l-4.34 4.85a2 2 0 0 1-1.47.6Zm0-14.66a4 4 0 1 0 0 8 4 4 0 0 0 0-8Zm0 6.41a2.46 2.46 0 1 1-.02-4.92A2.46 2.46 0 0 1 12 13.5Z"/>
</svg>
