<svg xmlns="http://www.w3.org/2000/svg" width="24" height="25" fill="currentColor" viewBox="0 0 24 25">
  <path d="M12 2.06a10.44 10.44 0 0 0-2.65 20.53 10.25 10.25 0 0 0 6.11-.25A10.43 10.43 0 0 0 12 2.06Zm2.79 19.44a9.32 9.32 0 0 1-4.81.2v-1.91a.49.49 0 0 0-.45-.49l-1.6-.17a1.21 1.21 0 0 1-.38-.12A1.16 1.16 0 0 1 7 18.5c-.07-.17-.14-.31-.22-.47.11.13.22.28.34.45a1 1 0 0 0 .91.34l1.64-.17a.49.49 0 0 0 .42-.33 2.49 2.49 0 0 1 .7-1 .67.67 0 0 0-.004-1.004.69.69 0 0 0-.346-.166 6.276 6.276 0 0 1-1.65-.48 3.47 3.47 0 0 1-2.13-3.43A3.26 3.26 0 0 1 7.58 10a.48.48 0 0 0 .11-.5 5.13 5.13 0 0 1-.15-2.25 3.69 3.69 0 0 1 1.93 1 .49.49 0 0 0 .53.25 7.72 7.72 0 0 1 4.66 0 .49.49 0 0 0 .53-.15 4.38 4.38 0 0 1 1.84-1A4.519 4.519 0 0 1 17 9.43a.52.52 0 0 0 .13.47 3.27 3.27 0 0 1 1 2.27c0 2.07-1.35 3.46-3.8 3.9a.68.68 0 0 0-.54.5.65.65 0 0 0 .21.68 2.4 2.4 0 0 1 .83 1.82l-.04 2.43Zm1-.38v-2.05a3.39 3.39 0 0 0-.79-2.14c2.59-.65 4.06-2.36 4.06-4.76A4.18 4.18 0 0 0 18 9.41a5.49 5.49 0 0 0 0-2.42.94.94 0 0 0-1.13-.68 4.82 4.82 0 0 0-2.2 1.09 8.78 8.78 0 0 0-4.66 0 4.74 4.74 0 0 0-2.25-1.09.93.93 0 0 0-1.12.66 5.4 5.4 0 0 0 .02 2.53 4.14 4.14 0 0 0-1 2.63A4.47 4.47 0 0 0 8.4 16.5c.428.19.873.337 1.33.44a3.63 3.63 0 0 0-.43.71l-1.2.12h-.19a5.631 5.631 0 0 0-.53-.64 5.862 5.862 0 0 0-1.36-1 .83.83 0 0 0-.91 1.37c.29.25.542.54.75.86.103.158.19.326.26.5a2.2 2.2 0 0 0 1 1c.225.115.469.19.72.22l1.16.16v1.19a9.44 9.44 0 1 1 6.81-.3l-.02-.01Z"/>
</svg>
