<svg xmlns="http://www.w3.org/2000/svg" width="24" height="24" fill="currentColor" viewBox="0 0 24 24">
  <path d="M12 21.94c5.523 0 10-4.477 10-10s-4.477-10-10-10-10 4.477-10 10 4.477 10 10 10Z" opacity=".3"/>
  <path d="M17.52 6.65a.46.46 0 0 0-.52-.31 4.11 4.11 0 0 0-2.16 1.17 8.21 8.21 0 0 0-5 0 4 4 0 0 0-2.18-1.17.45.45 0 0 0-.54.31 5.24 5.24 0 0 0 .09 2.55 3.78 3.78 0 0 0-1 2.51c0 2.21 1.19 4 4.62 4.47a3 3 0 0 0-1.16 1.48l-.67.07-.71.08h-.47a.51.51 0 0 1-.29-.17A3.928 3.928 0 0 0 7 17a5.16 5.16 0 0 0-1.24-.93.35.35 0 0 0-.41.08.33.33 0 0 0 0 .46c.329.295.618.63.86 1 .107.18.2.367.28.56a1.6 1.6 0 0 0 .75.77c.165.095.35.153.54.17l.41.05.71.07.5.05v2.32a9.61 9.61 0 0 0 5.81-.19v-2.8A2.88 2.88 0 0 0 14 16.17c3.25-.43 4.64-2.27 4.64-4.46a3.78 3.78 0 0 0-1.13-2.62 5 5 0 0 0 .01-2.44Z"/>
</svg>
