<svg xmlns="http://www.w3.org/2000/svg" width="24" height="25" fill="currentColor" viewBox="0 0 24 25">
  <path d="m21.75 10.9-4.52-2.27L4.39 2.18l-.48-.24a1.81 1.81 0 0 0-2.62 1.62v17.88a1.81 1.81 0 0 0 2.62 1.62l17.84-8.92a1.81 1.81 0 0 0 0-3.24Zm-11 7-2.91 1.51 5.84-5.84 1.94 1.93-4.87 2.4Zm2.92-6.4L7.83 5.59l7.79 3.91-1.95 2ZM2.93 21.7a.3.3 0 0 1-.14-.26V3.56a.3.3 0 0 1 .14-.26.38.38 0 0 1 .17 0h.14l.37.2 9 9-9 9-.37.19a.32.32 0 0 1-.31.01Zm18.15-8.91-4 2-2.34-2.29L17 10.21l4 2a.29.29 0 0 1 .17.28.28.28 0 0 1-.09.3Z"/>
</svg>
