<svg xmlns="http://www.w3.org/2000/svg" width="24" height="24" fill="currentColor" viewBox="0 0 24 24">
  <path d="M13.55 21.88A10.002 10.002 0 0 1 2.26 9.852 10 10 0 0 1 17.55 3.66a1.34 1.34 0 0 1 .21 2l-.91 1a1.35 1.35 0 0 1-1.72.21 6 6 0 0 0-5-.56 6 6 0 1 0 7.5 7.69h-4.07a1.36 1.36 0 0 1-1.36-1.36v-1.3A1.36 1.36 0 0 1 13.56 10h7.08A1.36 1.36 0 0 1 22 11.35v.4c0 4.72-3.78 9.43-8.45 10.13Z" opacity=".3"/>
  <path d="M6.11 11A5.95 5.95 0 0 1 12 6V2a10 10 0 1 0 0 20v-4a6 6 0 0 1-5.89-7Z"/>
</svg>
