<svg xmlns="http://www.w3.org/2000/svg" width="24" height="24" fill="currentColor" viewBox="0 0 24 24">
  <path d="M15.84 2.67a5.56 5.56 0 0 1 5.51 5.61v7.44a5.67 5.67 0 0 1-.66 2.67 5.52 5.52 0 0 1-4.85 2.94H8.16a5.52 5.52 0 0 1-4.85-2.94 5.67 5.67 0 0 1-.66-2.67V8.28a5.56 5.56 0 0 1 5.51-5.61h7.68Zm0-1.42H8.16a7 7 0 0 0-6.91 7v7.44a7.19 7.19 0 0 0 .83 3.35 6.9 6.9 0 0 0 6.08 3.68h7.68a6.9 6.9 0 0 0 6.08-3.68 7.19 7.19 0 0 0 .83-3.35V8.28a7 7 0 0 0-6.91-7v-.03ZM8.74 17a1.65 1.65 0 0 0 1.51-1.14l1.91-5.32a.28.28 0 0 1 .27-.2.3.3 0 0 1 .29.18l.82 1.88a3.65 3.65 0 0 0 3.3 2.19H20a.71.71 0 1 0 0-1.42h-3.15a2.26 2.26 0 0 1-2-1.35L14 9.93a1.69 1.69 0 0 0-3.16.11l-1.9 5.32a.28.28 0 0 1-.27.2.27.27 0 0 1-.29-.17l-.3-.62a3.63 3.63 0 0 0-3.26-2.07h-.77a.71.71 0 1 0 0 1.42h.77a2.23 2.23 0 0 1 2 1.27l.3.62a1.68 1.68 0 0 0 1.53 1l.09-.01Z"/>
</svg>
