<svg xmlns="http://www.w3.org/2000/svg" width="24" height="24" fill="currentColor" viewBox="0 0 24 24">
  <path d="M12 16.88a.7.7 0 0 0 .7-.71V7.83a.7.7 0 1 0-1.4 0v8.34a.7.7 0 0 0 .7.71Zm5.18-2.47a.71.71 0 0 0 .7-.72V10.3a.702.702 0 0 0-1.195-.495.7.7 0 0 0-.205.495v3.39a.708.708 0 0 0 .7.72Zm-10.42 0a.71.71 0 0 0 .7-.72V10.3a.7.7 0 0 0-1.4 0v3.39a.71.71 0 0 0 .7.72Z"/>
  <path d="M16.18 2.75a5.07 5.07 0 0 1 5.07 5.07v8.36a5.07 5.07 0 0 1-5.07 5.07H7.82a5.07 5.07 0 0 1-5.07-5.07V7.82a5.07 5.07 0 0 1 5.07-5.07h8.36Zm0-1.5H7.82a6.57 6.57 0 0 0-6.57 6.57v8.36a6.57 6.57 0 0 0 6.57 6.57h8.36a6.57 6.57 0 0 0 6.57-6.57V7.82a6.57 6.57 0 0 0-6.57-6.57Z"/>
</svg>
