<svg xmlns="http://www.w3.org/2000/svg" width="24" height="24" fill="currentColor" viewBox="0 0 24 24">
  <path d="M16.13 2H7.99a5.96 5.96 0 0 0-5.96 5.96v8.08A5.96 5.96 0 0 0 7.99 22h8.14a5.96 5.96 0 0 0 5.96-5.96V7.96A5.96 5.96 0 0 0 16.13 2Z" opacity=".3"/>
  <path d="M12.06 17.22a.76.76 0 0 1-.75-.75V7.53a.752.752 0 0 1 1.037-.693.75.75 0 0 1 .463.693v8.94a.76.76 0 0 1-.75.75Zm-5.62-2.65a.75.75 0 0 1-.75-.75v-3.64a.75.75 0 0 1 1.5 0v3.64a.76.76 0 0 1-.75.75Zm11.18 0a.75.75 0 0 1-.75-.75v-3.64a.75.75 0 1 1 1.5 0v3.64a.76.76 0 0 1-.75.75Z"/>
</svg>
