<svg xmlns="http://www.w3.org/2000/svg" width="24" height="25" fill="currentColor" viewBox="0 0 24 25">
  <path d="M12.927 6.503c0-.3.243-.542.542-.542h.232c.21 0 .4.12.49.31l.9 1.893.9-1.894c.09-.189.28-.31.49-.31h.231c.3 0 .543.243.543.543v4.422a.542.542 0 0 1-1.085 0V8.42l-.59 1.24a.542.542 0 0 1-.979 0l-.59-1.24v2.505a.542.542 0 0 1-1.084 0V6.503Z"/>
  <path fill-rule="evenodd" d="M8.966 12.797a2.211 2.211 0 1 0 0 4.422 2.211 2.211 0 0 0 0-4.422Zm-1.127 2.21a1.127 1.127 0 1 0 2.254 0 1.127 1.127 0 0 0-2.254 0Z" clip-rule="evenodd"/>
  <path d="M7.492 5.96c.3 0 .542.243.542.543v1.423h1.864V6.503a.542.542 0 1 1 1.084 0v4.422a.542.542 0 0 1-1.084 0V9.011H8.034v1.914a.542.542 0 0 1-1.085 0V6.503c0-.3.243-.542.543-.542Zm7.328 7.83c-.265.036-.358.144-.388.242a.548.548 0 0 0-.026.277c.01.045.031.08.064.115.077.08.207.136.302.16l.897.168c.26.043.617.164.895.442.31.31.462.759.35 1.307a1.31 1.31 0 0 1-.848 1c-.384.148-.841.154-1.282.118a2.408 2.408 0 0 1-1.38-.603.542.542 0 1 1 .709-.821c.237.204.492.321.76.343.4.033.655.008.806-.05a.278.278 0 0 0 .115-.072.281.281 0 0 0 .057-.133.477.477 0 0 0 .003-.226.217.217 0 0 0-.058-.096.593.593 0 0 0-.309-.14l-.013-.002-.925-.174-.01-.002a1.748 1.748 0 0 1-.854-.47c-.323-.34-.476-.837-.291-1.453.195-.65.768-.935 1.28-1.004a2.413 2.413 0 0 1 1.517.312c.253.152.415.326.652.616a.542.542 0 1 1-.84.687c-.22-.27-.286-.322-.37-.374a1.33 1.33 0 0 0-.814-.166Zm-7.87 4.696c0-.3.242-.542.542-.542h2.948a.542.542 0 0 1 0 1.084H7.492a.542.542 0 0 1-.542-.542Z"/>
  <path fill-rule="evenodd" d="m16.02 2.473-8.14.044a5.96 5.96 0 0 0-5.927 5.992l.044 8.08a5.96 5.96 0 0 0 5.992 5.928l8.14-.044a5.96 5.96 0 0 0 5.927-5.993l-.043-8.08a5.96 5.96 0 0 0-5.992-5.927ZM7.89 4.017l8.14-.044a4.46 4.46 0 0 1 4.484 4.436l.043 8.08a4.46 4.46 0 0 1-4.435 4.483l-8.14.044a4.46 4.46 0 0 1-4.484-4.435L3.453 8.5a4.46 4.46 0 0 1 4.436-4.484Z" clip-rule="evenodd"/>
</svg>
