<svg xmlns="http://www.w3.org/2000/svg" width="24" height="24" fill="currentColor" viewBox="0 0 24 24">
  <path d="m16.02 1.973-8.14.044A5.96 5.96 0 0 0 1.954 8.01l.044 8.08a5.96 5.96 0 0 0 5.992 5.928l8.14-.044a5.96 5.96 0 0 0 5.927-5.992l-.043-8.08a5.96 5.96 0 0 0-5.992-5.928Z" opacity=".3"/>
  <path d="M12.99 6.078a.5.5 0 0 1 .5-.5h.232a.5.5 0 0 1 .452.285l.938 1.975.938-1.975a.5.5 0 0 1 .452-.285h.232a.5.5 0 0 1 .5.5v4.423a.5.5 0 0 1-1 0V7.807l-.67 1.41a.5.5 0 0 1-.904 0l-.67-1.41v2.694a.5.5 0 1 1-1 0V6.078Z"/>
  <path fill-rule="evenodd" d="M8.987 12.372a2.211 2.211 0 1 0 0 4.422 2.211 2.211 0 0 0 0-4.422Zm-1.211 2.211a1.211 1.211 0 1 0 2.422 0 1.211 1.211 0 0 0-2.422 0Z" clip-rule="evenodd"/>
  <path d="M8.013 6.078a.5.5 0 1 0-1 0v4.423a.5.5 0 0 0 1 0V8.543H9.96V10.5a.5.5 0 0 0 1 0V6.078a.5.5 0 0 0-1 0v1.466H8.013V6.078Zm6.822 7.246c-.274.037-.386.151-.422.27a.588.588 0 0 0-.027.3.279.279 0 0 0 .074.134.71.71 0 0 0 .325.172l.897.168c.255.043.604.161.873.432.299.299.448.733.338 1.267-.1.488-.402.81-.82.97-.376.144-.825.151-1.265.115a2.366 2.366 0 0 1-1.355-.592.5.5 0 1 1 .653-.758c.242.21.506.33.784.354.402.033.666.008.825-.053.116-.044.17-.1.198-.236a.518.518 0 0 0 .003-.247.258.258 0 0 0-.069-.114.634.634 0 0 0-.332-.152l-.012-.002-.924-.173-.01-.002a1.704 1.704 0 0 1-.832-.458c-.313-.328-.462-.809-.282-1.411.189-.63.744-.907 1.246-.975a2.37 2.37 0 0 1 1.49.306c.246.148.404.318.64.607a.5.5 0 1 1-.774.633c-.221-.27-.29-.328-.382-.383a1.373 1.373 0 0 0-.84-.172Zm-7.322 4.387a.35.35 0 1 0 0 .7h2.948a.35.35 0 1 0 0-.7H7.513Z"/>
</svg>
