<svg xmlns="http://www.w3.org/2000/svg" width="24" height="25" fill="currentColor" viewBox="0 0 24 25">
  <path d="M12 23.25A10.75 10.75 0 1 1 22.75 12.5 10.76 10.76 0 0 1 12 23.25Zm0-20a9.25 9.25 0 1 0 9.25 9.25A9.26 9.26 0 0 0 12 3.25Zm.06 14.69A2.4 2.4 0 0 1 11 17.7c-1.58-.76-5.24-2.94-5.18-6.77a4 4 0 0 1 3-3.82 4.25 4.25 0 0 1 3.04.39.29.29 0 0 0 .27 0 4.28 4.28 0 0 1 3.37-.27 4 4 0 0 1 2.67 3.72c-.07 4.27-3.66 6.21-5.19 6.85a2.47 2.47 0 0 1-.92.14ZM9.9 8.5a3.33 3.33 0 0 0-.73.09 2.47 2.47 0 0 0-1.84 2.39c0 3 3 4.77 4.33 5.4a.91.91 0 0 0 .74 0c1.27-.53 4.21-2.12 4.27-5.49A2.52 2.52 0 0 0 15 8.62a2.71 2.71 0 0 0-2.19.16 1.78 1.78 0 0 1-1.68 0A2.61 2.61 0 0 0 9.9 8.5Z"/>
</svg>
