<svg xmlns="http://www.w3.org/2000/svg" width="24" height="24" fill="currentColor" viewBox="0 0 24 24">
  <path d="M6.36 22.57a4.23 4.23 0 0 1-4.2-3.74l-.88-7.51a4.27 4.27 0 0 1 1.61-3.84l6.7-5.17a4.25 4.25 0 0 1 5.3.11l6.35 5.35a4.22 4.22 0 0 1 1.45 3.94L21.44 19a4.22 4.22 0 0 1-4.16 3.52H6.37l-.01.05Zm5.81-19.63a2.71 2.71 0 0 0-1.67.56L3.81 8.67a2.74 2.74 0 0 0-1 2.47l.88 7.52a2.73 2.73 0 0 0 2.71 2.41h10.91A2.72 2.72 0 0 0 20 18.78l1.25-7.32a2.74 2.74 0 0 0-.93-2.55l-6.39-5.34a2.75 2.75 0 0 0-1.76-.63ZM12 16.41a3.32 3.32 0 1 1 0-6.64 3.32 3.32 0 0 1 0 6.64Zm0-5.13a1.82 1.82 0 1 0 0 3.64 1.82 1.82 0 0 0 0-3.64Z"/>
</svg>
