<svg xmlns="http://www.w3.org/2000/svg" width="24" height="24" fill="currentColor" viewBox="0 0 24 24">
  <path d="m17.47 20.53-4.78 1.37c-.45.13-.93.13-1.38 0l-4.76-1.37a2.48 2.48 0 0 1-1.79-2.14L3.34 4.76A2.5 2.5 0 0 1 5.83 2h12.34a2.5 2.5 0 0 1 2.49 2.76l-1.39 13.62a2.51 2.51 0 0 1-1.8 2.15Z" opacity=".3"/>
  <path d="M11.81 18c-.07.01-.14.01-.21 0l-3.23-1a.75.75 0 0 1-.53-.59l-.31-1.87A.75.75 0 1 1 9 14.28l.23 1.4 2.56.75 2.77-.89.27-3.41L8.25 12a.75.75 0 0 1-.73-.68l-.46-4.46a.77.77 0 0 1 .19-.58A.73.73 0 0 1 7.8 6h8.4a.75.75 0 1 1 0 1.5H8.64l.3 3 6.73.14a.69.69 0 0 1 .54.25.73.73 0 0 1 .19.56l-.4 4.71a.75.75 0 0 1-.52.65L12 17.93a.62.62 0 0 1-.19.07Z"/>
</svg>
