<svg xmlns="http://www.w3.org/2000/svg" width="24" height="25" fill="currentColor" viewBox="0 0 24 25">
  <path d="M12 23.25a3.061 3.061 0 0 1-.9-.13l-4.75-1.36A3.26 3.26 0 0 1 4 18.97L2.59 5.34a3.29 3.29 0 0 1 .82-2.51 3.25 3.25 0 0 1 2.42-1.08h12.34a3.25 3.25 0 0 1 3.24 3.58L20 18.96a3.23 3.23 0 0 1-2.34 2.8l-4.78 1.36c-.285.087-.582.13-.88.13Zm-6.17-20a1.77 1.77 0 0 0-1.75 1.93L5.5 18.81a1.75 1.75 0 0 0 1.26 1.5l4.75 1.37a1.78 1.78 0 0 0 1 0l4.78-1.37a1.74 1.74 0 0 0 1.26-1.5l1.4-13.63a1.771 1.771 0 0 0-1.75-1.93H5.83ZM12 18.43l3.46-1.12a.75.75 0 0 0 .52-.65l.38-4.7a.731.731 0 0 0-.19-.56.71.71 0 0 0-.54-.25l-6.73-.14-.3-3h7.6a.75.75 0 1 0 0-1.5H7.8a.76.76 0 0 0-.74.83l.46 4.46a.75.75 0 0 0 .73.68l6.59.13-.27 3.41-2.77.89-2.56-.75L9 14.78a.75.75 0 1 0-1.48.25l.31 1.86a.74.74 0 0 0 .53.6l3.23 1c.07.01.14.01.21 0a.618.618 0 0 0 .2-.06Z"/>
</svg>
