<svg xmlns="http://www.w3.org/2000/svg" width="24" height="24" fill="currentColor" viewBox="0 0 24 24">
  <path d="M12 1.25A10.75 10.75 0 1 0 22.75 12 10.76 10.76 0 0 0 12 1.25ZM21.25 12v.57a14.319 14.319 0 0 1-3.06-2.1 1.86 1.86 0 0 0 .2-.81 1.82 1.82 0 0 0-1.82-1.81A1.92 1.92 0 0 0 16 8a14.06 14.06 0 0 1-2.14-5 9.27 9.27 0 0 1 7.39 9Zm-9-9.24A15.6 15.6 0 0 0 14.86 9a1.82 1.82 0 0 0 1.68 2.49c.152-.005.302-.025.45-.06a16 16 0 0 0 4 2.7 9.187 9.187 0 0 1-.61 1.74 23.8 23.8 0 0 1-3.71.3 25.574 25.574 0 0 1-3.52-.25 1.81 1.81 0 0 0-1.78-1.47h-.2A25.232 25.232 0 0 1 9.2 9a1.8 1.8 0 0 0-.55-3.19 26.9 26.9 0 0 1-.14-2.37A9.24 9.24 0 0 1 12 2.75l.25.01ZM7 4.21c0 .61.06 1.22.13 1.82a1.8 1.8 0 0 0-.85 1.53 1.82 1.82 0 0 0 1.45 1.77 26.58 26.58 0 0 0 2.15 5.89 25.068 25.068 0 0 1-7.12-3.32A9.21 9.21 0 0 1 7 4.21Zm-4.07 9.57a26.602 26.602 0 0 0 6.69 2.89 1.81 1.81 0 0 0 1.76 1.4h.17a28.275 28.275 0 0 0 2.37 3 9.251 9.251 0 0 1-11-7.27l.01-.02Zm12.58 6.77a23.995 23.995 0 0 1-2.61-3.17 26.16 26.16 0 0 0 3.78.28 27.57 27.57 0 0 0 2.74-.16 9.25 9.25 0 0 1-3.91 3.05Z"/>
</svg>
