<svg xmlns="http://www.w3.org/2000/svg" width="24" height="25" fill="currentColor" viewBox="0 0 24 25">
  <path d="M11.25 8.42a.72.72 0 0 0-.67-.51.74.74 0 0 0-.72.44l-2.36 5.3-1.23 2.78a.75.75 0 1 0 1.37.6l1-2.33h3.08l.75 2.27a.75.75 0 0 0 .71.51c.08.014.16.014.24 0a.751.751 0 0 0 .47-1l-2.64-8.06Zm-1.9 4.78 1.09-2.47.82 2.47H9.35Zm8.37-4.54a1 1 0 1 1-2 0 1 1 0 0 1 2 0Zm-.24 2.6v5.47a.75.75 0 1 1-1.5 0v-5.47a.75.75 0 1 1 1.5 0Zm5.28-2.86a6.71 6.71 0 0 0-6.71-6.67H7.91A6.71 6.71 0 0 0 1.2 8.5v8.08A6.71 6.71 0 0 0 8 23.27h8.14a6.71 6.71 0 0 0 6.66-6.77l-.04-8.1Zm-3 11.78a5.18 5.18 0 0 1-3.67 1.55L8 21.77a5.002 5.002 0 0 1-3.69-1.5 5.2 5.2 0 0 1-1.55-3.68L2.7 8.5a5.22 5.22 0 0 1 5.18-5.23h8.14a5 5 0 0 1 3.69 1.5 5.2 5.2 0 0 1 1.55 3.68v8.08a5.16 5.16 0 0 1-1.47 3.65h-.03Z"/>
</svg>
