<svg xmlns="http://www.w3.org/2000/svg" width="24" height="25" fill="currentColor" viewBox="0 0 24 25">
  <path d="M12 23.26a4.36 4.36 0 0 1-2.21-.59l-5.5-3.17a4.43 4.43 0 0 1-2.2-3.82V9.32a4.43 4.43 0 0 1 2.2-3.82l5.5-3.17a4.42 4.42 0 0 1 4.42 0l5.5 3.17a4.43 4.43 0 0 1 2.2 3.82v6.36a4.43 4.43 0 0 1-2.2 3.82l-5.5 3.17a4.361 4.361 0 0 1-2.21.59Zm0-20a3 3 0 0 0-1.46.38L5 6.8a2.92 2.92 0 0 0-1.41 2.52v6.36A2.92 2.92 0 0 0 5 18.2l5.5 3.18a3 3 0 0 0 2.92 0L19 18.2a2.92 2.92 0 0 0 1.45-2.52V9.32A2.92 2.92 0 0 0 19 6.8l-5.5-3.18a3 3 0 0 0-1.5-.38v.02Z"/>
  <path d="M12 11.1a1 1 0 0 1 1 1v4.66a1 1 0 0 1-2 0V12.1a1 1 0 0 1 1-1Zm0-1.36a1.25 1.25 0 1 0 0-2.5 1.25 1.25 0 0 0 0 2.5Z"/>
</svg>
