<svg xmlns="http://www.w3.org/2000/svg" width="24" height="25" fill="currentColor" viewBox="0 0 24 25">
  <path d="M15.71 23.21H8.22a7 7 0 0 1-7-7V8.75a7 7 0 0 1 7-7h7.49a7 7 0 0 1 7 7v7.46a7 7 0 0 1-7 7ZM8.22 3.29a5.48 5.48 0 0 0-5.47 5.46v7.46a5.5 5.5 0 0 0 5.47 5.5h7.49a5.52 5.52 0 0 0 5.54-5.5V8.75a5.5 5.5 0 0 0-5.54-5.46H8.22Zm9.63 2.33a1 1 0 1 0 0 2 1 1 0 0 0 0-2ZM12 16.82a4.35 4.35 0 1 1 4.33-4.32A4.36 4.36 0 0 1 12 16.82Zm0-7.19a2.85 2.85 0 1 0 2.83 2.87A2.87 2.87 0 0 0 12 9.63Z"/>
</svg>
