<svg xmlns="http://www.w3.org/2000/svg" width="24" height="25" fill="currentColor" viewBox="0 0 24 25">
  <path d="M18.38 15.6h-3.77v-4.63a5 5 0 1 0-5.52 0v4.62h-.77a.75.75 0 0 0-.74-.68h-.76a.73.73 0 0 0-.73.68h-.47a3.1 3.1 0 0 0-3.09 3.1v1.4a3.09 3.09 0 0 0 3.09 3.09h12.76a3.09 3.09 0 0 0 3.09-3.09V18.7a3.1 3.1 0 0 0-3.09-3.1ZM9.09 8.93a3.44 3.44 0 0 1-.74-2.13 3.5 3.5 0 0 1 7 0 3.44 3.44 0 0 1-.74 2.13 3.47 3.47 0 0 1-5.52 0Zm4 2.69v4h-2.5v-4a4.5 4.5 0 0 0 2.52 0h-.02ZM20 20.1a1.59 1.59 0 0 1-1.59 1.59H5.62A1.59 1.59 0 0 1 4 20.1v-1.4a1.6 1.6 0 0 1 1.59-1.6h12.79A1.602 1.602 0 0 1 20 18.7v1.4ZM11 6.43a.91.91 0 1 1 .293-.071.91.91 0 0 1-.353.071H11Z"/>
</svg>
