<svg xmlns="http://www.w3.org/2000/svg" width="24" height="25" fill="currentColor" viewBox="0 0 24 25">
  <path d="M12 23.18a1.77 1.77 0 0 1-.92-.25L9 21.74a.75.75 0 0 1-.28-1 .76.76 0 0 1 1-.28l2.06 1.19a.34.34 0 0 0 .34 0l7.65-4.41a.36.36 0 0 0 .18-.3V8.08a.36.36 0 0 0-.18-.3l-7.6-4.41a.34.34 0 0 0-.34 0L4.18 7.78a.36.36 0 0 0-.18.3v8.65a.67.67 0 0 0 .34.58l2 1.15a.78.78 0 0 0 1.16-.68l-.07-8.47a.76.76 0 0 1 1.036-.697.74.74 0 0 1 .464.687L9 17.78a2.25 2.25 0 0 1-1.13 2 2.22 2.22 0 0 1-2.28 0l-2-1.14a2.19 2.19 0 0 1-1.09-1.91V8.08a1.86 1.86 0 0 1 .93-1.58l7.65-4.41a1.83 1.83 0 0 1 1.84 0l7.65 4.41a1.86 1.86 0 0 1 .93 1.6v8.84a1.86 1.86 0 0 1-.93 1.6l-7.65 4.41a1.77 1.77 0 0 1-.92.23Zm5.28-10.09a2 2 0 0 0-.62-.71 3.897 3.897 0 0 0-1-.47 10.147 10.147 0 0 0-1.26-.36l-.79-.22a2.003 2.003 0 0 1-.48-.2 1 1 0 0 1-.37-.31.68.68 0 0 1-.13-.42.81.81 0 0 1 .39-.68 1.75 1.75 0 0 1 1-.29 1.59 1.59 0 0 1 1 .26c.229.203.412.452.54.73.085.17.192.329.32.47.124.1.281.15.44.14a.66.66 0 0 0 .52-.24.77.77 0 0 0 .21-.53 1.55 1.55 0 0 0-.05-.67 2 2 0 0 0-.53-.65 2.61 2.61 0 0 0-.92-.5 3.9 3.9 0 0 0-1.31-.19 4.3 4.3 0 0 0-1.67.25 2.38 2.38 0 0 0-1.08.81 2.11 2.11 0 0 0-.37 1.21 1.93 1.93 0 0 0 .36 1.19c.243.33.566.592.94.76.48.206.98.366 1.49.48.355.078.705.175 1.05.29.245.076.467.21.65.39a.93.93 0 0 1 .25.66 1 1 0 0 1-.47.86 1.92 1.92 0 0 1-1.2.35 2 2 0 0 1-.87-.17 1.38 1.38 0 0 1-.51-.44 3.543 3.543 0 0 1-.34-.65 1.38 1.38 0 0 0-.31-.5.64.64 0 0 0-.45-.17.72.72 0 0 0-.74.73 2 2 0 0 0 .35 1.08c.227.363.54.665.91.88a3.93 3.93 0 0 0 2 .46 4.11 4.11 0 0 0 1.77-.31 2.55 2.55 0 0 0 1.12-.91c.254-.4.386-.866.38-1.34a2.26 2.26 0 0 0-.22-1.07Z"/>
</svg>
