<svg xmlns="http://www.w3.org/2000/svg" width="24" height="24" fill="currentColor" viewBox="0 0 24 24">
  <path d="M16.83 2H7.16A5.16 5.16 0 0 0 2 7.16v9.67a5.16 5.16 0 0 0 5.16 5.16h9.67a5.16 5.16 0 0 0 5.16-5.16V7.16A5.16 5.16 0 0 0 16.83 2Z" opacity=".3"/>
  <path d="M13.46 6.15a4.41 4.41 0 0 0-4.41 4.4c.003.451.074.9.21 1.33l-2.9 2.9a.79.79 0 0 0-.21.69l.29 1.47a.77.77 0 0 0 .6.61l1.49.29a.749.749 0 0 0 .68-.21l.88-.88-1.26-1.2a.45.45 0 0 1 0-.63.44.44 0 0 1 .62 0l1.27 1.22 1.4-1.39a4.27 4.27 0 0 0 1.35.21 4.4 4.4 0 0 0 0-8.8l-.01-.01Zm.11 5.85A1.38 1.38 0 1 1 15 10.63 1.369 1.369 0 0 1 13.57 12Z"/>
</svg>
