<svg xmlns="http://www.w3.org/2000/svg" width="24" height="25" fill="currentColor" viewBox="0 0 24 25">
  <path d="M16.84 23.25H7.16a5.92 5.92 0 0 1-5.91-5.91V7.66a5.92 5.92 0 0 1 5.91-5.91h9.68a5.92 5.92 0 0 1 5.91 5.91v9.68a5.92 5.92 0 0 1-5.91 5.91Zm-9.68-20a4.42 4.42 0 0 0-4.41 4.41v9.68a4.42 4.42 0 0 0 4.41 4.41h9.68a4.42 4.42 0 0 0 4.41-4.41V7.66a4.42 4.42 0 0 0-4.41-4.41H7.16ZM8.68 19.1h-.3l-1.48-.3a1.49 1.49 0 0 1-1.2-1.19l-.28-1.48a1.52 1.52 0 0 1 .41-1.36l2.59-2.59a5.16 5.16 0 1 1 5 4c-.38 0-.759-.04-1.13-.12l-2.55 2.6a1.47 1.47 0 0 1-1.06.44Zm4.78-11.7a3.66 3.66 0 0 0-3.66 3.65c.006.378.074.753.2 1.11a.75.75 0 0 1-.19.75l-2.9 2.9.29 1.49 1.49.3 2.91-2.89a.73.73 0 0 1 .76-.18c.363.112.74.169 1.12.17a3.65 3.65 0 0 0 0-7.3h-.02Zm0 5.84a2.19 2.19 0 1 1 2.19-2.19 2.2 2.2 0 0 1-2.19 2.19Zm0-2.88a.69.69 0 1 0 0 1.38.69.69 0 0 0 0-1.38Zm-2.52 7.14a.75.75 0 0 0 0-1.06l-1.09-1a.75.75 0 0 0-1.06 1.06l1.08 1a.75.75 0 0 0 .52.21.74.74 0 0 0 .55-.21Z"/>
</svg>
