<svg xmlns="http://www.w3.org/2000/svg" width="24" height="25" fill="currentColor" viewBox="0 0 24 25">
  <path d="M14.48 1.84a8.25 8.25 0 0 0-8.24 8.24 8.35 8.35 0 0 0 .26 2.05l-4.62 4.62a2 2 0 0 0-.56 1.83l.49 2.52a2.05 2.05 0 0 0 1.61 1.62l2.58.49c.133.015.267.015.4 0a1.999 1.999 0 0 0 1.44-.6l4.61-4.6a8.13 8.13 0 0 0 2.08.27 8.24 8.24 0 0 0 0-16.48l-.05.04Zm0 15a6.639 6.639 0 0 1-2.07-.34.74.74 0 0 0-.76.18l-2.38 2.37-1.62-1.55a.75.75 0 0 0-1 1.09l1.59 1.53-1.51 1.47a.55.55 0 0 1-.49.15l-2.53-.5a.53.53 0 0 1-.43-.43l-.49-2.51a.58.58 0 0 1 .15-.49l4.93-4.93a.76.76 0 0 0 .19-.76 6.74 6.74 0 1 1 6.42 4.7v.02Zm0-9.95a3.21 3.21 0 1 0 3.2 3.21 3.21 3.21 0 0 0-3.2-3.23v.02Zm0 4.91a1.71 1.71 0 1 1 1.7-1.7 1.71 1.71 0 0 1-1.7 1.68v.02Z"/>
</svg>
