<svg xmlns="http://www.w3.org/2000/svg" width="24" height="24" fill="currentColor" viewBox="0 0 24 24">
  <path d="M20.8 8.09h-8v-.35a1.38 1.38 0 0 1 1.38-1.39h.49a2.88 2.88 0 0 0 2.83-2.88v-.65a.75.75 0 1 0-1.5 0v.65a1.38 1.38 0 0 1-1.38 1.38h-.49a2.89 2.89 0 0 0-2.88 2.89v.35h-8a2 2 0 0 0-2 1.91v10.73a2 2 0 0 0 2 1.95H20.8a2 2 0 0 0 1.95-1.95V10a2 2 0 0 0-1.95-1.91Zm.45 12.64a.45.45 0 0 1-.45.45H3.2a.45.45 0 0 1-.45-.45V10a.45.45 0 0 1 .45-.45h17.6a.45.45 0 0 1 .45.45v10.73Zm-5.52-4.89a.73.73 0 1 1-1.46 0 .73.73 0 0 1 1.46 0ZM14 12.11a.73.73 0 1 1 0 1.459.73.73 0 0 1 0-1.46Zm-1.27 3.73a.73.73 0 1 1-1.46 0 .73.73 0 0 1 1.46 0ZM11 12.11a.73.73 0 1 1 0 1.459.73.73 0 0 1 0-1.46Zm-6 0a.73.73 0 1 1 0 1.459.73.73 0 0 1 0-1.46Zm1.12 7.48H4.88a.75.75 0 1 1 0-1.5h1.24a.75.75 0 1 1 0 1.5Zm0-3H4.88a.75.75 0 1 1 0-1.5h1.24a.75.75 0 1 1 0 1.5Zm1.15-3.75a.73.73 0 1 1 1.46 0 .73.73 0 0 1-1.46 0ZM9 15.11a.73.73 0 1 1 0 1.459.73.73 0 0 1 0-1.46Zm7 4.48H9.15a.75.75 0 1 1 0-1.5H16a.75.75 0 1 1 0 1.5Zm3 0a.73.73 0 1 1 .73-.73.73.73 0 0 1-.73.71v.02Zm0-3h-1.23a.75.75 0 1 1 0-1.5H19a.75.75 0 1 1 0 1.5Zm.12-3H17a.75.75 0 1 1 0-1.5h2.12a.75.75 0 1 1 0 1.5Z"/>
</svg>
