<svg xmlns="http://www.w3.org/2000/svg" width="24" height="24" fill="currentColor" viewBox="0 0 24 24">
  <path d="M2.23 4.77V17a1 1 0 0 0 .51.86l6.81 3.88a1 1 0 0 0 1 0l6.86-4a1 1 0 0 0 .49-.87v-3.8l3.39-2a1 1 0 0 0 .49-.86V6.94a1 1 0 0 0-.5-.86l-2.89-1.69a1 1 0 0 0-1 0l-2.91 1.67a1 1 0 0 0-.5.87v3.87L10.13 13V4.78a1 1 0 0 0-.53-.88l-3-1.63a1 1 0 0 0-1 0L2.74 3.9a1 1 0 0 0-.51.87Z" opacity=".3"/>
  <path d="M2.37 4.27 6 6.41l4-2.15a1 1 0 0 0-.4-.36l-3-1.63a1 1 0 0 0-1 0L2.74 3.9a1 1 0 0 0-.37.37Z" opacity=".3"/>
  <path d="M10.13 4.78a1 1 0 0 0-.13-.52L6 6.41l.09 8.79 4-2.23.04-8.19Z"/>
  <path d="m17.89 13.07-7.84 4.49-3.92-2.36 7.85-4.4 3.91 2.27Z" opacity=".3"/>
  <path d="M17.89 8.67v4.4l3.39-2a1 1 0 0 0 .49-.86V6.94a1.06 1.06 0 0 0-.13-.5l-3.75 2.23Zm-7.84 13.18a1 1 0 0 0 .49-.13l6.86-4a1 1 0 0 0 .49-.87v-3.78l-7.84 4.49v4.29Z"/>
  <path d="m14.11 6.43 3.78 2.24 3.75-2.23a1 1 0 0 0-.37-.36l-2.88-1.69a1 1 0 0 0-1 0l-2.91 1.67a1 1 0 0 0-.37.37Z" opacity=".3"/>
</svg>
