<svg xmlns="http://www.w3.org/2000/svg" width="24" height="25" fill="currentColor" viewBox="0 0 24 25">
  <path d="M22.46 6.99a1.882 1.882 0 0 0-.16-.39 2.005 2.005 0 0 0-.3-.36 1.65 1.65 0 0 0-.36-.28l-2.87-1.71a1.74 1.74 0 0 0-1.75 0L14.1 5.91a1.84 1.84 0 0 0-.64.64 1.739 1.739 0 0 0-.23.87v3.43l-2.35 1.32V5.28a1.77 1.77 0 0 0-.31-.99 2.009 2.009 0 0 0-.22-.27 1.78 1.78 0 0 0-.35-.28L7 2.11a1.75 1.75 0 0 0-1.69 0L2.38 3.75s-.06 0-.09.06a2 2 0 0 0-.29.21c-.059.062-.112.13-.16.2 0 0-.09.1-.13.16a1.79 1.79 0 0 0-.24.88V17.5a1.77 1.77 0 0 0 .88 1.52l6.81 3.87c.264.154.565.233.87.23.067.006.133.006.2 0 .083.006.167.006.25 0 .148-.04.29-.1.42-.18l6.85-4a1.75 1.75 0 0 0 .87-1.52V14l3-1.76a1.771 1.771 0 0 0 .87-1.51V7.44a1.7 1.7 0 0 0-.03-.45Zm-10.3 9-2.1 1.21-2.44-1.48 2.87-1.59 3.48-2 2.42 1.41-4.23 2.45Zm5-3.71-2.41-1.4V8.17l2.41 1.42v2.69Zm1.5 0V9.59L21 8.18v2.55a.24.24 0 0 1-.12.21l-2.22 1.34ZM18 5.5l2.27 1.33-2.38 1.47-2.42-1.44 2.29-1.36a.3.3 0 0 1 .24 0ZM6.86 14.42l-.07-7.06 2.59-1.41v7.07l-2.52 1.4Zm-.73-11a.24.24 0 0 1 .12 0l2.31 1.27-1 .52-1.54.84L3.74 4.7 6 3.43a.27.27 0 0 1 .13-.03v.02Zm-3 14.29A.23.23 0 0 1 3 17.5V5.99l2.29 1.36.09 8.35a.73.73 0 0 0 0 .2.84.84 0 0 0 .05.17.75.75 0 0 0 .15.16l.11.11L9.3 18.5v2.74l-6.17-3.53ZM17 17.58l-6.2 3.62v-2.7l6.34-3.62v2.5a.24.24 0 0 1-.14.2Z"/>
</svg>
