<svg xmlns="http://www.w3.org/2000/svg" width="24" height="25" fill="currentColor" viewBox="0 0 24 25">
  <path d="M12 23.25c-.75 0-1.47-.3-2-.83l-1.41-1.41a.28.28 0 0 0-.2-.08h-2a2.83 2.83 0 0 1-2.82-2.83v-2a.28.28 0 0 0-.08-.2l-1.41-1.4a2.84 2.84 0 0 1 0-4l1.41-1.41a.28.28 0 0 0 .08-.2v-2A2.83 2.83 0 0 1 6.4 4.07h2a.28.28 0 0 0 .2-.08L10 2.58a2.84 2.84 0 0 1 4 0l1.41 1.41a.28.28 0 0 0 .2.08h2a2.83 2.83 0 0 1 2.82 2.83v2a.281.281 0 0 0 .08.2l1.41 1.4a2.84 2.84 0 0 1 0 4l-1.41 1.41a.28.28 0 0 0-.08.2v2a2.83 2.83 0 0 1-2.83 2.83h-2a.28.28 0 0 0-.2.08l-1.4 1.4c-.53.53-1.25.83-2 .83ZM6.4 5.57A1.34 1.34 0 0 0 5.07 6.9v2a1.74 1.74 0 0 1-.52 1.26l-1.41 1.4a1.33 1.33 0 0 0 0 1.88l1.41 1.41a1.74 1.74 0 0 1 .52 1.26v2a1.34 1.34 0 0 0 1.33 1.32h2a1.739 1.739 0 0 1 1.26.52l1.41 1.41a1.33 1.33 0 0 0 1.88 0l1.41-1.41a1.741 1.741 0 0 1 1.26-.52h2a1.34 1.34 0 0 0 1.33-1.33v-2a1.75 1.75 0 0 1 .52-1.26l1.41-1.41a1.33 1.33 0 0 0 0-1.88l-1.43-1.4a1.75 1.75 0 0 1-.52-1.26v-2a1.34 1.34 0 0 0-1.33-1.32h-2a1.8 1.8 0 0 1-1.26-.52l-1.4-1.41a1.33 1.33 0 0 0-1.88 0L9.65 5.05a1.75 1.75 0 0 1-1.26.52H6.4Zm10.87 5.57A1.63 1.63 0 0 0 16 10.5h-1.74l.21-1.22a1.82 1.82 0 0 0-3.31-1.32L10.13 9.5a1.47 1.47 0 0 0-1-.38h-1a1.51 1.51 0 0 0-1.51 1.51v5.13a1.51 1.51 0 0 0 1.51 1.51h1c.343 0 .676-.121.94-.34l.65.52c.4.286.879.44 1.37.44h2.42a1.82 1.82 0 0 0 1.75-1.29l1.23-4.05a1.57 1.57 0 0 0-.22-1.41Zm-8.13 4.63h-1v-5.15h1v.44a.58.58 0 0 0 0 .19v4.52Zm5.69.39a.32.32 0 0 1-.31.23H12.1a.81.81 0 0 1-.46-.14l-1-.78v-4l1.76-2.68a.3.3 0 0 1 .39-.12.3.3 0 0 1 .2.35l-.26 1.43A1.33 1.33 0 0 0 14 11.97h1.6a.29.29 0 0 1 .28.37l-1.05 3.82Z"/>
</svg>
