<svg xmlns="http://www.w3.org/2000/svg" width="24" height="24" fill="currentColor" viewBox="0 0 24 24">
  <path d="M18.08 2H5.92A2.92 2.92 0 0 0 3 4.87v11a2.92 2.92 0 0 0 2.92 2.92h1.14a2.191 2.191 0 0 1 1.63.71l1.7 1.84a2.23 2.23 0 0 0 3.23 0l1.81-1.9a2.21 2.21 0 0 1 1.6-.68h1A2.92 2.92 0 0 0 21 15.87v-11A2.92 2.92 0 0 0 18.08 2Z" opacity=".3"/>
  <path d="M15.88 9.1h-1.94a.58.58 0 0 1-.56-.67L13.63 7a1.07 1.07 0 0 0-1.94-.78L9.8 9.08v-.59a.76.76 0 0 0-.8-.76H8a.76.76 0 0 0-.76.76v5.13a.76.76 0 0 0 .76.76h1a.76.76 0 0 0 .76-.76v.08l1.26 1c.286.203.63.308.98.3h2.42a1.07 1.07 0 0 0 1-.76l1.24-4a.86.86 0 0 0-.78-1.14Z"/>
</svg>
