<svg xmlns="http://www.w3.org/2000/svg" width="24" height="25" fill="currentColor" viewBox="0 0 24 25">
  <path d="M12 23.3a3 3 0 0 1-2.15-.95L8.14 20.5a1.47 1.47 0 0 0-1.07-.47H5.92a3.68 3.68 0 0 1-3.67-3.67v-11A3.68 3.68 0 0 1 5.92 1.7h12.16a3.68 3.68 0 0 1 3.67 3.67v11a3.68 3.68 0 0 1-3.67 3.67H17a1.47 1.47 0 0 0-1 .46l-1.81 1.89a3 3 0 0 1-2.19.91ZM5.92 3.2a2.17 2.17 0 0 0-2.17 2.17v11a2.17 2.17 0 0 0 2.17 2.13h1.15a3 3 0 0 1 2.17 1l1.7 1.84a1.45 1.45 0 0 0 1.06.46 1.69 1.69 0 0 0 1.08-.45l1.81-1.85a2.999 2.999 0 0 1 2.11-1h1a2.17 2.17 0 0 0 2.17-2.17v-11a2.17 2.17 0 0 0-2.09-2.13H5.92ZM12 16.14a2.37 2.37 0 0 1-1-.25c-1.25-.59-4.15-2.33-4.1-5.49a3.56 3.56 0 0 1 2.64-3.43 3.76 3.76 0 0 1 2.46.19 3.8 3.8 0 0 1 2.72-.11 3.56 3.56 0 0 1 2.41 3.36c-.06 3.48-2.92 5-4.15 5.54a2.32 2.32 0 0 1-.98.19Zm-1.48-7.79a2.18 2.18 0 0 0-.61.08 2.06 2.06 0 0 0-1.54 2c0 2.28 2.26 3.64 3.25 4.11a1 1 0 0 0 .78 0c1-.4 3.18-1.6 3.23-4.18a2.09 2.09 0 0 0-1.38-1.86 2.29 2.29 0 0 0-1.8.14 1 1 0 0 1-.9 0 2.1 2.1 0 0 0-1.03-.29Z"/>
</svg>
