<svg xmlns="http://www.w3.org/2000/svg" width="24" height="25" fill="currentColor" viewBox="0 0 24 25">
  <path d="M12 23.3a3 3 0 0 1-2.15-.95L8.14 20.5a1.47 1.47 0 0 0-1.07-.47H5.92a3.68 3.68 0 0 1-3.67-3.67v-11A3.68 3.68 0 0 1 5.92 1.7h12.16a3.68 3.68 0 0 1 3.67 3.67v11a3.68 3.68 0 0 1-3.67 3.67H17a1.47 1.47 0 0 0-1 .46l-1.81 1.89a3 3 0 0 1-2.19.91ZM5.92 3.2a2.17 2.17 0 0 0-2.17 2.17v11a2.17 2.17 0 0 0 2.17 2.13h1.15a3 3 0 0 1 2.17 1l1.7 1.84a1.45 1.45 0 0 0 1.06.46 1.71 1.71 0 0 0 1.08-.45l1.81-1.85a2.999 2.999 0 0 1 2.11-1h1a2.17 2.17 0 0 0 2.17-2.17v-11a2.17 2.17 0 0 0-2.09-2.13H5.92Zm11.2 6.35a1.58 1.58 0 0 0-1.28-.65h-1.73l.22-1.23A1.82 1.82 0 0 0 11 6.35l-1 1.56a1.5 1.5 0 0 0-1-.41H8a1.52 1.52 0 0 0-1.52 1.54v5.13A1.52 1.52 0 0 0 8 15.68h1c.343 0 .676-.12.94-.34l.66.53c.41.287.9.437 1.4.43h2.41a1.82 1.82 0 0 0 1.75-1.29l1.24-4a1.58 1.58 0 0 0-.28-1.46ZM9 14.18H8V9.03h1v5.15Zm5.7.39a.33.33 0 0 1-.32.23H12a.84.84 0 0 1-.47-.13l-1-.79v-4L12.3 7.2a.28.28 0 0 1 .38-.12.3.3 0 0 1 .2.35l-.28 1.4a1.32 1.32 0 0 0 .29 1.08 1.28 1.28 0 0 0 1 .47h1.94l.09.12-1.22 4.07Z"/>
</svg>
