<svg xmlns="http://www.w3.org/2000/svg" width="24" height="24" fill="currentColor" viewBox="0 0 24 24">
  <path d="M12 7a1 1 0 0 1-1-1V3a1 1 0 1 1 2 0v3a1 1 0 0 1-1 1Zm-2.59.56a1 1 0 0 0 .36-1.37L8.39 3.84a1 1 0 0 0-1.73 1L8 7.21a1 1 0 0 0 .86.49.94.94 0 0 0 .55-.14Zm-2 1.78A1 1 0 0 0 7.09 8L5 6.73a1 1 0 0 0-1 1.73L6.08 9.7a1 1 0 0 0 .5.13 1 1 0 0 0 .87-.49h-.04ZM6.59 12a1 1 0 0 0-1-1H3.41a1 1 0 0 0 0 2h2.18a1 1 0 0 0 1-1Z"/>
  <path d="M17.04 6a1 1 0 1 1-2.001 0 1 1 0 0 1 2 0ZM5.5 17.62l1.64-1a1 1 0 1 0-1-1.73l-1.65 1a1 1 0 0 0-.35 1.37 1 1 0 0 0 .86.5 1.06 1.06 0 0 0 .5-.14Zm2.59 3.05a.9.9 0 0 1-.5-.18 1 1 0 0 1-.36-1.36l.83-1.42a1 1 0 0 1 1.72 1l-.83 1.41a1 1 0 0 1-.86.55Zm4.2 1a1 1 0 0 1-1-1v-1.36a1 1 0 0 1 2 0v1.36a1 1 0 0 1-1 1Zm4.06-1.18a1 1 0 0 1-.86-.5l-.55-.94a1 1 0 1 1 1.72-1l.55.94a1 1 0 0 1-.35 1.37 1.06 1.06 0 0 1-.51.13Zm2.77-3a1 1 0 0 1-.51-.13l-.7-.42a1 1 0 1 1 1-1.72l.7.41a1 1 0 0 1-.001 1.726 1 1 0 0 1-.49.134Zm.94-4h-.54a1 1 0 0 1 0-2h.54a1 1 0 0 1 0 2Zm-1.42-3.73a1 1 0 0 1-.51-1.86l.24-.14a1 1 0 0 1 1 1.72l-.23.14a1.06 1.06 0 0 1-.5.14Z" opacity=".3"/>
</svg>
