<svg xmlns="http://www.w3.org/2000/svg" width="24" height="24" fill="currentColor" viewBox="0 0 24 24">
  <path d="M17.53 13.61a.76.76 0 0 1-.75-.75V7.42a3.93 3.93 0 0 0-3.93-3.93h-1.7a3.93 3.93 0 0 0-3.93 3.93v5.44a.75.75 0 1 1-1.5 0V7.42A5.44 5.44 0 0 1 11.15 2h1.7a5.44 5.44 0 0 1 5.43 5.43v5.44a.75.75 0 0 1-.75.74Z" opacity=".3"/>
  <path d="M12 17.36a1.63 1.63 0 1 0 0-3.26 1.63 1.63 0 0 0 0 3.26Z"/>
  <path d="M18.09 9.45H5.91A3.91 3.91 0 0 0 2 13.36v4.74A3.91 3.91 0 0 0 5.91 22h12.18A3.91 3.91 0 0 0 22 18.1v-4.74a3.91 3.91 0 0 0-3.91-3.91ZM12 18.86a3.13 3.13 0 1 1 0-6.26 3.13 3.13 0 0 1 0 6.26Z"/>
</svg>
