<svg xmlns="http://www.w3.org/2000/svg" width="24" height="25" fill="currentColor" viewBox="0 0 24 25">
  <path d="M9 15.86a1 1 0 1 1-2 0 1 1 0 0 1 2 0Zm3-1a1 1 0 1 0 1 1 1 1 0 0 0-1-.99v-.01Zm4 0a1 1 0 1 0 0 2 1 1 0 0 0 0-2Zm6.75-1v4.74a4.66 4.66 0 0 1-4.66 4.66H5.91a4.66 4.66 0 0 1-4.66-4.66v-4.74a4.66 4.66 0 0 1 4.47-4.64v-1.3a5.44 5.44 0 0 1 5.43-5.42h1.7a5.44 5.44 0 0 1 5.43 5.43v1.3a4.66 4.66 0 0 1 4.47 4.63ZM7.22 7.92V9.2h9.56V7.92a3.93 3.93 0 0 0-3.93-3.93h-1.7a3.93 3.93 0 0 0-3.93 3.93Zm14 5.94a3.17 3.17 0 0 0-3.16-3.16H5.91a3.17 3.17 0 0 0-3.16 3.16v4.74a3.17 3.17 0 0 0 3.16 3.16h12.18a3.17 3.17 0 0 0 3.16-3.16l-.03-4.74Z"/>
</svg>
