<svg xmlns="http://www.w3.org/2000/svg" width="24" height="25" fill="currentColor" viewBox="0 0 24 25">
  <path d="M13.63 15.85a1.63 1.63 0 1 1-3.26 0 1.63 1.63 0 0 1 3.26 0Zm9.12-2.35v4.74a4.66 4.66 0 0 1-4.66 4.66H5.91a4.66 4.66 0 0 1-4.66-4.66V13.5a4.66 4.66 0 0 1 4.47-4.66V7.5a5.45 5.45 0 0 1 5.43-5.42h1.7a5.44 5.44 0 0 1 5.43 5.43v1.3a4.65 4.65 0 0 1 4.47 4.69Zm-15.53-6v1.32h9.56V7.5a3.93 3.93 0 0 0-3.93-3.93h-1.7A3.93 3.93 0 0 0 7.22 7.5Zm14 5.94a3.18 3.18 0 0 0-3.16-3.16H5.91a3.18 3.18 0 0 0-3.16 3.22v4.74a3.18 3.18 0 0 0 3.16 3.16h12.18a3.18 3.18 0 0 0 3.16-3.16l-.03-4.8Zm-5.34 2.37A3.9 3.9 0 1 1 12 11.97a3.88 3.88 0 0 1 3.88 3.88v-.04Zm-1.53 0A2.38 2.38 0 1 0 12 18.23a2.37 2.37 0 0 0 2.35-2.38v-.04Z"/>
</svg>
