<svg xmlns="http://www.w3.org/2000/svg" width="24" height="25" fill="currentColor" viewBox="0 0 24 25">
  <path d="M12 1.75A10.75 10.75 0 1 0 22.75 12.5 10.76 10.76 0 0 0 12 1.75Zm0 20a9.25 9.25 0 1 1 9.25-9.25A9.26 9.26 0 0 1 12 21.75Zm3.68-11.5v-.37a3.23 3.23 0 0 0-3.23-3.23h-.9a3.23 3.23 0 0 0-3.23 3.23v.37A2.81 2.81 0 0 0 6 13.02v2.48a2.82 2.82 0 0 0 2.82 2.82h6.44A2.82 2.82 0 0 0 18 15.5v-2.48a2.81 2.81 0 0 0-2.32-2.77Zm-4.13-2.1h.9a1.74 1.74 0 0 1 1.73 1.73v.32H9.82v-.32a1.74 1.74 0 0 1 1.73-1.73Zm5 7.38a1.32 1.32 0 0 1-1.32 1.32H8.78a1.32 1.32 0 0 1-1.32-1.35v-2.48a1.32 1.32 0 0 1 1.32-1.32h6.44a1.32 1.32 0 0 1 1.32 1.32l.01 2.51ZM12 12.5a1.82 1.82 0 1 0-.02 3.639A1.82 1.82 0 0 0 12 12.5Zm0 2.13a.32.32 0 1 1 .31-.31.31.31 0 0 1-.31.27v.04Z"/>
</svg>
