<svg xmlns="http://www.w3.org/2000/svg" width="24" height="24" fill="currentColor" viewBox="0 0 24 24">
  <path d="M8 16.35a.99.99 0 1 0 0-1.98.99.99 0 0 0 0 1.98Zm4 0a.99.99 0 1 0 0-1.98.99.99 0 0 0 0 1.98Zm4-.01a.99.99 0 1 0 0-1.98.99.99 0 0 0 0 1.98Z"/>
  <path d="M18.09 9.45H5.91A3.91 3.91 0 0 0 2 13.36v4.74a3.91 3.91 0 0 0 3.91 3.91h12.18A3.91 3.91 0 0 0 22 18.1v-4.74a3.91 3.91 0 0 0-3.91-3.91Z" opacity=".3"/>
  <path d="M5.91 9.45h1.31v-2a3.93 3.93 0 0 1 3.93-3.93h1.7a3.93 3.93 0 0 1 3.93 3.93v2h1.5V7.42A5.44 5.44 0 0 0 12.85 2h-1.7a5.44 5.44 0 0 0-5.43 5.42v2.05l.19-.02Z"/>
</svg>
