<svg xmlns="http://www.w3.org/2000/svg" width="24" height="24" fill="currentColor" viewBox="0 0 24 24">
  <path d="M19.54 11.79h-1.45L13.5 7.42a2.35 2.35 0 0 0-.75-4.06v-1a.75.75 0 1 0-1.5 0V4a.75.75 0 0 0 .75.75.87.87 0 0 1 .37 1.65.73.73 0 0 0-.73 0 .86.86 0 0 1-.51-.78.75.75 0 1 0-1.5 0 2.36 2.36 0 0 0 .87 1.82l-4.59 4.35H4.46a1.86 1.86 0 0 0-1.86 1.85v6.85a1.87 1.87 0 0 0 1.86 1.86h15.08a1.87 1.87 0 0 0 1.86-1.86v-6.85a1.86 1.86 0 0 0-1.86-1.85ZM12 8.06l3.92 3.73H8.08L12 8.06Zm7.9 12.43a.36.36 0 0 1-.36.36H4.46a.36.36 0 0 1-.36-.36v-6.85a.36.36 0 0 1 .36-.35h15.08a.36.36 0 0 1 .36.35v6.85ZM7.09 14.62v4.66a.75.75 0 0 1-1.5 0v-4.66a.75.75 0 0 1 1.5 0Zm3.77 0v4.66a.75.75 0 0 1-1.5 0v-4.66a.75.75 0 0 1 1.5 0Zm3.78 0v4.66a.75.75 0 0 1-1.5 0v-4.66a.75.75 0 0 1 1.5 0Zm3.77 0v4.66a.75.75 0 0 1-1.5 0v-4.66a.75.75 0 0 1 1.5 0Z"/>
</svg>
