<svg xmlns="http://www.w3.org/2000/svg" width="24" height="24" fill="currentColor" viewBox="0 0 24 24">
  <path d="M8.39 13.54H3.32a2.07 2.07 0 0 0-2.07 2.07v5.07a2.07 2.07 0 0 0 2.07 2.07h5.07a2.07 2.07 0 0 0 2.07-2.07v-5.07a2.06 2.06 0 0 0-2.07-2.07ZM9 20.68a.57.57 0 0 1-.57.57H3.32a.58.58 0 0 1-.57-.57v-5.07a.57.57 0 0 1 .57-.61h1v.54a1 1 0 0 0 1 1h1a1 1 0 0 0 1-1V15h1a.56.56 0 0 1 .57.57L9 20.68Zm11.72-7.14h-5.11a2.06 2.06 0 0 0-2.07 2.07v5.07a2.07 2.07 0 0 0 2.07 2.07h5.07a2.07 2.07 0 0 0 2.07-2.07v-5.07a2.07 2.07 0 0 0-2.07-2.07h.04Zm.57 7.14a.58.58 0 0 1-.57.57h-5.11a.57.57 0 0 1-.57-.57v-5.07a.56.56 0 0 1 .57-.57h1v.54a1 1 0 0 0 1 1h1a1 1 0 0 0 1-1V15h1a.57.57 0 0 1 .57.57l.11 5.11ZM8.39 1.25h-5a2.13 2.13 0 0 0-2.14 2.13v5a2.07 2.07 0 0 0 2.07 2.07h5.07a2.061 2.061 0 0 0 2.07-2.07V3.32a2.069 2.069 0 0 0-2.07-2.07ZM9 8.39a.56.56 0 0 1-.61.61H3.32a.57.57 0 0 1-.57-.57v-5a.63.63 0 0 1 .63-.63h.94v.5a1 1 0 0 0 1 1h1a1 1 0 0 0 1-1v-.55h1a.57.57 0 0 1 .68.57v5.07Zm11.68-7.14h-5.07a2.07 2.07 0 0 0-2.07 2.07v5.07a2.06 2.06 0 0 0 2.07 2.07h5.07a2.071 2.071 0 0 0 2.07-2.07V3.32a2.07 2.07 0 0 0-2.07-2.07Zm.57 7.14a.57.57 0 0 1-.57.57h-5.07a.56.56 0 0 1-.61-.57V3.32a.57.57 0 0 1 .57-.57h1v.55a1 1 0 0 0 1 1h1a1 1 0 0 0 1-1v-.55h1a.58.58 0 0 1 .57.57l.11 5.07Z"/>
</svg>
