<svg xmlns="http://www.w3.org/2000/svg" width="24" height="24" fill="currentColor" viewBox="0 0 24 24">
  <path d="M20.46 22.75a2.27 2.27 0 0 1-1.52-.61l-2.88-2.73a9.8 9.8 0 0 1-13.399-3.395A9.74 9.74 0 0 1 3.22 5.18 9.78 9.78 0 0 1 19.3 16.3l2.75 2.57a2.25 2.25 0 0 1 0 3.17 2.18 2.18 0 0 1-1.59.71Zm-4.23-5.24L20 21a.75.75 0 0 0 .51.21A.72.72 0 0 0 21 21a.75.75 0 0 0 0-1l-3.69-3.46.4-.54A8.292 8.292 0 1 0 3.03 8.99a8.24 8.24 0 0 0 3.08 8.65 8.29 8.29 0 0 0 9.62.2l.5-.33Zm-5.23.57a7.15 7.15 0 1 1 0-14.301 7.15 7.15 0 0 1 0 14.3Zm0-12.8a5.65 5.65 0 1 0 0 11.3 5.65 5.65 0 0 0 0-11.3Z"/>
</svg>
