<svg xmlns="http://www.w3.org/2000/svg" width="24" height="25" fill="currentColor" viewBox="0 0 24 25">
  <path d="M16.05 1.75H8A6.71 6.71 0 0 0 1.25 8.5v8.1A6.71 6.71 0 0 0 8 23.25h8.1a6.71 6.71 0 0 0 6.7-6.7V8.5a6.709 6.709 0 0 0-6.75-6.75Zm-13.3 14.8V8.5A5.2 5.2 0 0 1 8 3.25h8.1a5.21 5.21 0 0 1 4.78 3.17L6.39 21.5a5.19 5.19 0 0 1-3.64-4.95Zm5.46 5.2 6-6.28 5 5.13a5.14 5.14 0 0 1-3.22 1.15H8.21Zm13-5.2a5.13 5.13 0 0 1-.94 3l-5-5.12 5.95-6.21c.005.09.005.18 0 .27l-.01 8.06ZM7.69 13.87a1.918 1.918 0 0 0 2.192.466 1.89 1.89 0 0 0 .638-.466l1.84-2.06a4.37 4.37 0 1 0-6.5 0l1.83 2.06ZM6.27 8.5a2.88 2.88 0 0 1 2.5-2.46h.34a2.81 2.81 0 0 1 1.9.73 2.84 2.84 0 0 1 .23 4l-1.84 2.1a.4.4 0 0 1-.59 0L7 10.81a2.79 2.79 0 0 1-.73-2.31Zm1.48.38a1.36 1.36 0 1 1 1.36 1.38 1.35 1.35 0 0 1-1.36-1.35v-.03Z"/>
</svg>
