<svg xmlns="http://www.w3.org/2000/svg" width="24" height="24" fill="currentColor" viewBox="0 0 24 24">
  <path d="M13.87 3.17a1.18 1.18 0 0 1 1.45.17l5.34 5.34a1.18 1.18 0 0 1 .16 1.45 33.92 33.92 0 0 1-10.69 10.7 1.17 1.17 0 0 1-1.44-.17l-5.34-5.35a1.17 1.17 0 0 1-.18-1.44C3.74 13 4.35 12.09 5 11.25A2.4 2.4 0 0 0 5.36 9 2.82 2.82 0 0 1 9 5.36 2.4 2.4 0 0 0 11.26 5c.84-.65 1.74-1.26 2.61-1.83ZM8.06 16l8-8a1 1 0 0 0-1.41-1.41l-8 8a1 1 0 0 0 0 1.41 1 1 0 0 0 1.41 0Zm2.46 2.68a37.081 37.081 0 0 0 8.2-8.2 1 1 0 0 0-1.62-1.14 35.689 35.689 0 0 1-7.76 7.76 1 1 0 0 0-.21 1.4 1 1 0 0 0 .8.41 1 1 0 0 0 .59-.2v-.03Zm-1.9-8.38c.06-1.14.56-1.64 1.73-1.71a1.002 1.002 0 0 0-.13-2 3.54 3.54 0 0 0-3.59 3.61 1 1 0 0 0 .94 1h.06a1 1 0 0 0 .99-.87v-.03Z" opacity=".3"/>
  <path d="m15.32 3.34.54.54a3.28 3.28 0 0 1 1.4-.34 3.16 3.16 0 0 1 2.26.94 3.2 3.2 0 0 1 .6 3.66l.54.54a1.188 1.188 0 0 1 .32.89A4.68 4.68 0 0 0 14.43 3a1.22 1.22 0 0 1 .89.34ZM8.69 20.66l-.54-.55a3.17 3.17 0 0 1-4.26-4.26l-.54-.54a1.14 1.14 0 0 1-.35-.88A4.67 4.67 0 0 0 9.57 21a1.21 1.21 0 0 1-.88-.34Z"/>
</svg>
