<svg xmlns="http://www.w3.org/2000/svg" width="24" height="25" fill="currentColor" viewBox="0 0 24 25">
  <path d="M20.58 3.92a4.66 4.66 0 0 0-5.21-.94 1.9 1.9 0 0 0-1.9.06c-.91.57-1.81 1.2-2.66 1.86a1.69 1.69 0 0 1-1.57.25 3.57 3.57 0 0 0-4.58 4.58 1.69 1.69 0 0 1-.26 1.57c-.66.86-1.29 1.76-1.86 2.67a1.92 1.92 0 0 0-.06 1.9 4.67 4.67 0 0 0 4.26 6.63 4.55 4.55 0 0 0 1.9-.44c.273.15.579.229.89.23a1.82 1.82 0 0 0 1-.29 34.641 34.641 0 0 0 10.92-10.97 1.9 1.9 0 0 0 .07-1.9 4.66 4.66 0 0 0-.94-5.21Zm-1.06 1.06a3.17 3.17 0 0 1 .86 2.87l-3.73-3.73c.2-.046.405-.073.61-.08a3.16 3.16 0 0 1 2.26.94Zm-15 15a3.17 3.17 0 0 1-.86-2.87l3.73 3.73a3.17 3.17 0 0 1-2.91-.82l.04-.04Zm15.67-9.75A33.16 33.16 0 0 1 9.73 20.69a.43.43 0 0 1-.51-.06l-5.34-5.35a.41.41 0 0 1-.07-.51c.55-.87 1.14-1.73 1.78-2.56a3.19 3.19 0 0 0 .48-3A2.06 2.06 0 0 1 8.7 6.56a3.19 3.19 0 0 0 3-.48c.82-.62 1.68-1.22 2.55-1.77a.42.42 0 0 1 .52.06l5.33 5.34a.43.43 0 0 1 .09.52Zm-4.39-1.8-8 7.88a.74.74 0 0 1-.915.058.76.76 0 0 1-.115-1.158l8-7.88a.753.753 0 1 1 1.03 1.1Zm2.54 1.43a.75.75 0 0 1 .18 1.05 36.001 36.001 0 0 1-8.14 8.05.73.73 0 0 1-.781.067.77.77 0 0 1-.269-.227.75.75 0 0 1 .16-1 34.232 34.232 0 0 0 7.8-7.72.75.75 0 0 1 1.05-.22Zm-11.46.73a3.69 3.69 0 0 1 3.2-3.2.75.75 0 0 1 .29 1.47 2.22 2.22 0 0 0-2 2 .75.75 0 0 1-.74.63H7.5a.73.73 0 0 1-.62-.9Z"/>
</svg>
