<svg xmlns="http://www.w3.org/2000/svg" width="24" height="25" fill="currentColor" viewBox="0 0 24 25">
  <path d="M10.56 13.58a1.39 1.39 0 0 1-1.37-1.63l.2-1.17-.86-.83a1.39 1.39 0 0 1 .78-2.37l1.17-.17.52-1.07a1.37 1.37 0 0 1 1.25-.78 1.37 1.37 0 0 1 1.24.78L14 7.4l1.18.18a1.37 1.37 0 0 1 1.15.92A1.4 1.4 0 0 1 16 9.95l-.85.83.2 1.17a1.38 1.38 0 0 1-.56 1.36 1.4 1.4 0 0 1-1.46.11l-1.05-.56-1.06.56a1.44 1.44 0 0 1-.66.16Zm-.82-4.55.74.72a1.4 1.4 0 0 1 .4 1.22l-.18 1 .91-.48a1.399 1.399 0 0 1 1.29 0l.91.47-.17-1A1.389 1.389 0 0 1 14 9.75l.74-.72-1-.15a1.37 1.37 0 0 1-1-.76l-.46-.92-.45.92a1.37 1.37 0 0 1-1 .76l-1.09.15Zm12.61 7.82L19 13.31a7.552 7.552 0 0 0 1-3.63A7.702 7.702 0 0 0 9.294 2.316 7.7 7.7 0 0 0 4.61 9.68a7.61 7.61 0 0 0 .77 3.33l-3.73 3.93a1.73 1.73 0 0 0 1.05 2.91l1.41.16a.25.25 0 0 1 .2.19l.26 1.39a1.69 1.69 0 0 0 1.21 1.35c.159.051.324.078.49.08a1.739 1.739 0 0 0 1.26-.52L12 17.67l4.43 4.71a1.7 1.7 0 0 0 1.26.55c.166-.004.33-.027.49-.07a1.72 1.72 0 0 0 1.25-1.36l.26-1.4a.22.22 0 0 1 .2-.18l1.41-.17a1.73 1.73 0 0 0 1.05-2.91v.01ZM12.26 3.5a6.19 6.19 0 0 1 5.19 9.56 6.792 6.792 0 0 1-.44.61 7.3 7.3 0 0 1-.47.49 1.082 1.082 0 0 1-.16.14 4.01 4.01 0 0 1-.39.33l-.17.12a5.91 5.91 0 0 1-1.26.69h-.07c-.21.09-.427.16-.65.21h-.08c-.5.13-1.014.194-1.53.19H12a6.18 6.18 0 0 1-2.27-.52h-.06l-.56-.29-.11-.11c-.15-.09-.29-.19-.44-.3l-.18-.12a5.92 5.92 0 0 1-.52-.48h-.05c-.16-.16-.3-.33-.44-.5l-.08-.12a6.18 6.18 0 0 1 4.97-9.9Zm-5.82 18a.24.24 0 0 1-.24 0 .23.23 0 0 1-.2-.18l-.26-1.39a1.72 1.72 0 0 0-1.45-1.43l-1.41-.16a.25.25 0 0 1-.19-.16.21.21 0 0 1 .05-.24l3.4-3.62.06.06c.232.302.486.586.76.85l.18.16c.273.252.568.48.88.68l.15.1c.322.204.656.388 1 .55.394.16.798.294 1.21.4L6.44 21.5Zm14.87-3.32a.241.241 0 0 1-.19.15l-1.4.17a1.7 1.7 0 0 0-1.5 1.4L18 21.24a.231.231 0 0 1-.16.18.24.24 0 0 1-.24-.07l-3.87-4.11h.05a8.151 8.151 0 0 0 1.1-.31l.23-.09a7.467 7.467 0 0 0 1-.47l.23-.14c.314-.193.615-.407.9-.64l.13-.12c.303-.27.587-.56.85-.87l3.09 3.29a.21.21 0 0 1 0 .23v.06Z"/>
</svg>
