<svg xmlns="http://www.w3.org/2000/svg" width="24" height="24" fill="currentColor" viewBox="0 0 24 24">
  <path d="M12 23a2.37 2.37 0 0 1-1.92-1L9 20.41a.63.63 0 0 0-.51-.27H6.86a5.61 5.61 0 0 1-5.61-5.61V7.12a5.61 5.61 0 0 1 5.61-5.61h10.28a5.61 5.61 0 0 1 5.61 5.61v7.41a5.61 5.61 0 0 1-5.61 5.61h-1.59a.63.63 0 0 0-.51.27L13.92 22A2.37 2.37 0 0 1 12 23ZM6.86 3a4.11 4.11 0 0 0-4.11 4.12v7.41a4.11 4.11 0 0 0 4.11 4.11h1.59a2.129 2.129 0 0 1 1.74.91l1.11 1.58a.88.88 0 0 0 1.4 0l1.11-1.58a2.129 2.129 0 0 1 1.74-.91h1.59a4.11 4.11 0 0 0 4.11-4.11V7.12A4.11 4.11 0 0 0 17.14 3H6.86Zm10.65 5.88a.76.76 0 0 0-.75-.75H7.24a.75.75 0 1 0 0 1.5h9.52a.76.76 0 0 0 .75-.75Zm-1.59 5a.75.75 0 0 0-.75-.75H8.83a.75.75 0 1 0 0 1.5h6.34a.75.75 0 0 0 .75-.75Z"/>
</svg>
