<svg xmlns="http://www.w3.org/2000/svg" width="24" height="24" fill="currentColor" viewBox="0 0 24 24">
  <path d="M17.34 16.48v-6.6a3.16 3.16 0 0 0-3.15-3.15h-9v-.85a4.65 4.65 0 0 1 4.62-4.65h8.24a4.65 4.65 0 0 1 4.65 4.65v6a4.65 4.65 0 0 1-4.6 4.64l-.76-.04ZM14.19 5.23a4.65 4.65 0 0 1 4.65 4.65v5a3.15 3.15 0 0 0 2.36-3v-6a3.16 3.16 0 0 0-3.15-3.15H9.81a3.14 3.14 0 0 0-3.08 2.51l7.46-.01Zm-4.12 17.54a2 2 0 0 1-1.66-.87l-.9-1.27a.33.33 0 0 0-.29-.15H6a4.65 4.65 0 0 1-4.7-4.65V9.88A4.65 4.65 0 0 1 6 5.23h8.24a4.65 4.65 0 0 1 4.65 4.65v5.95a4.65 4.65 0 0 1-4.65 4.65h-1.32a.339.339 0 0 0-.29.15l-.9 1.27a2 2 0 0 1-1.66.87ZM6 6.73a3.16 3.16 0 0 0-3.2 3.15v5.95A3.15 3.15 0 0 0 6 19h1.22a1.84 1.84 0 0 1 1.52.79L9.63 21a.54.54 0 0 0 .688.169.539.539 0 0 0 .192-.169l.89-1.27a1.841 1.841 0 0 1 1.52-.73h1.27a3.15 3.15 0 0 0 3.15-3.15V9.88a3.16 3.16 0 0 0-3.15-3.15H6ZM6.58 12a.94.94 0 1 0 .94.94.95.95 0 0 0-.94-.94Zm3.5 0a.94.94 0 1 0 .865.628.95.95 0 0 0-.865-.628Zm3.49 0a.94.94 0 1 0 .94.94.95.95 0 0 0-.94-.94Z"/>
</svg>
