<svg xmlns="http://www.w3.org/2000/svg" width="24" height="24" fill="currentColor" viewBox="0 0 24 24">
  <path d="M19.36 8a3.39 3.39 0 1 1 0-6.78 3.39 3.39 0 0 1 0 6.78Zm0-5.27a1.89 1.89 0 1 0 1.89 1.89 1.89 1.89 0 0 0-1.89-1.92v.03Zm-5.8 18.91 1.07-1.52a.58.58 0 0 1 .47-.24h1.52A5.42 5.42 0 0 0 22 14.44V9.28a.75.75 0 1 0-1.5 0v5.16a3.92 3.92 0 0 1-3.91 3.91H15.1a2.001 2.001 0 0 0-1.69.88l-1.07 1.52a.82.82 0 0 1-1.29 0L10 19.23a2.06 2.06 0 0 0-1.69-.88H6.77a3.92 3.92 0 0 1-3.91-3.91V7.33a3.91 3.91 0 0 1 3.91-3.91h7.92a.75.75 0 1 0 0-1.5H6.77a5.42 5.42 0 0 0-5.41 5.41v7.11a5.42 5.42 0 0 0 5.41 5.41h1.52a.58.58 0 0 1 .47.24l1.07 1.52a2.28 2.28 0 0 0 3.73 0v.03Zm-5.7-11.3a1 1 0 1 0 0 2.001 1 1 0 0 0 0-2Zm3.83 0a1 1 0 1 0 0 2.002 1 1 0 0 0 0-2.002Zm0 0a1 1 0 1 0 0 2.002 1 1 0 0 0 0-2.002Zm3.84 0a1 1 0 1 0 0 2.002 1 1 0 0 0 0-2.002Z"/>
</svg>
