<svg xmlns="http://www.w3.org/2000/svg" width="24" height="24" fill="currentColor" viewBox="0 0 24 24">
  <path d="m13.37 3.68 7.22-.9A1.25 1.25 0 0 1 22 4v5.75A1.25 1.25 0 0 1 20.75 11h-7.23a1.25 1.25 0 0 1-1.25-1.25V4.92a1.25 1.25 0 0 1 1.1-1.24Z" opacity=".3"/>
  <path d="M10.27 9.75V5.49a1.25 1.25 0 0 0-1.41-1.24L3.1 5A1.25 1.25 0 0 0 2 6.21v3.54A1.25 1.25 0 0 0 3.25 11H9a1.25 1.25 0 0 0 1.27-1.25Zm2 4.5v4.82a1.25 1.25 0 0 0 1.1 1.25l7.22.9A1.248 1.248 0 0 0 22 20v-5.75A1.25 1.25 0 0 0 20.75 13h-7.23a1.25 1.25 0 0 0-1.25 1.25Z"/>
  <path d="M9 13H3.25A1.25 1.25 0 0 0 2 14.25v3.54A1.25 1.25 0 0 0 3.1 19l5.76.72a1.251 1.251 0 0 0 1.41-1.24v-4.23A1.251 1.251 0 0 0 9 13Z" opacity=".3"/>
</svg>
