<svg xmlns="http://www.w3.org/2000/svg" width="24" height="24" fill="currentColor" viewBox="0 0 24 24">
  <path d="M16.85 2H5.78A3.81 3.81 0 0 0 2 5.83v7a3.81 3.81 0 0 0 3.78 3.83h4.44v2.63H7.28a.75.75 0 1 0 0 1.5h8.07a.75.75 0 1 0 0-1.5h-2.94v-2.66h4.44a3.81 3.81 0 0 0 3.77-3.83v-7A3.81 3.81 0 0 0 16.85 2Z" opacity=".3"/>
  <path d="M20.07 9.5h-6a2 2 0 0 0-1.94 2V20a2 2 0 0 0 1.94 2h6A2 2 0 0 0 22 20v-8.53a2 2 0 0 0-1.93-1.97Zm-3 10.83a1.11 1.11 0 1 1 1.09-1.1 1.09 1.09 0 0 1-1.09 1.1Z"/>
</svg>
