<svg xmlns="http://www.w3.org/2000/svg" width="24" height="25" fill="currentColor" viewBox="0 0 24 25">
  <path d="M12.76 22.25a9.996 9.996 0 0 1-2-.2 9.88 9.88 0 0 1-6.63-4.75 10 10 0 0 1 5-14.41 2.1 2.1 0 0 1 2.23.49 2 2 0 0 1 .46 2.12 6.799 6.799 0 0 0 .85 6.68A6.89 6.89 0 0 0 19 14.91a1.94 1.94 0 0 1 1.95 1 2.08 2.08 0 0 1-.11 2.28 9.628 9.628 0 0 1-2.08 2.1 10 10 0 0 1-6 1.96Zm-2.85-18a.52.52 0 0 0-.21 0A8.5 8.5 0 0 0 5.42 16.5a8.519 8.519 0 0 0 14.21.74.57.57 0 0 0 0-.64.46.46 0 0 0-.47-.25 8.34 8.34 0 0 1-8.73-11.39.49.49 0 0 0-.11-.53.58.58 0 0 0-.41-.18Z"/>
</svg>
