<svg xmlns="http://www.w3.org/2000/svg" width="24" height="25" fill="currentColor" viewBox="0 0 24 25">
  <path d="M17 23.25H7a5.74 5.74 0 0 1-5.75-5.75v-10A5.74 5.74 0 0 1 7 1.75h10a5.74 5.74 0 0 1 5.75 5.75v10A5.74 5.74 0 0 1 17 23.25Zm-10-20A4.24 4.24 0 0 0 2.75 7.5v10A4.24 4.24 0 0 0 7 21.75h10a4.241 4.241 0 0 0 4.25-4.25v-10A4.24 4.24 0 0 0 17 3.25H7Zm5 4.94a1.31 1.31 0 1 0 0 2.62 1.31 1.31 0 0 0 0-2.62Zm-3.69 6a1.31 1.31 0 1 0 0 2.62 1.31 1.31 0 0 0 0-2.62Zm7.38 0a1.31 1.31 0 1 0 0 2.619 1.31 1.31 0 0 0 0-2.619Z"/>
</svg>
