<svg xmlns="http://www.w3.org/2000/svg" width="24" height="25" fill="currentColor" viewBox="0 0 24 25">
  <path d="M18.23 12.5a6.23 6.23 0 1 0-12.46 0 6.23 6.23 0 0 0 12.46 0Zm-1.5 0a4.72 4.72 0 0 1-3.06 4.41 5.451 5.451 0 0 1 .14-8.78 4.74 4.74 0 0 1 2.92 4.37Zm-9.46 0a4.72 4.72 0 0 1 4.67-4.72 7 7 0 0 0-.16 9.43 4.73 4.73 0 0 1-4.51-4.71Zm4-8V3.27a.75.75 0 1 1 1.5 0V4.5a.75.75 0 1 1-1.5 0Zm1.5 16.1v1.18a.75.75 0 1 1-1.5 0v-1.23a.75.75 0 1 1 1.5 0v.05ZM4.94 6.5A.76.76 0 1 1 6 5.44l.83.84a.75.75 0 0 1-1.06 1.06l-.83-.84Zm14.12 12a.75.75 0 0 1-.54 1.28.74.74 0 0 1-.53-.22l-.83-.83a.75.75 0 1 1 1.06-1.06l.84.83Zm-14.36-6a.75.75 0 0 1-.75.75H2.77a.75.75 0 1 1 0-1.5H4a.75.75 0 0 1 .7.75Zm17.3 0a.76.76 0 0 1-.75.75h-1.2a.75.75 0 1 1 0-1.5h1.18a.76.76 0 0 1 .77.75ZM6.84 17.66a.75.75 0 0 1 0 1.06l-.84.83a.75.75 0 1 1-1.06-1.05l.84-.83a.75.75 0 0 1 1.06-.01ZM19.05 5.44a.76.76 0 0 1 0 1.07l-.84.83a.75.75 0 0 1-1.06-1.06l.85-.84a.75.75 0 0 1 1.05 0Z"/>
</svg>
