<svg xmlns="http://www.w3.org/2000/svg" width="24" height="24" fill="currentColor" viewBox="0 0 24 24">
  <path d="M18.21 10.27a.77.77 0 0 1-.73.56h-.19l-4.7-1.2A.77.77 0 0 1 13 8.15l4.7 1.21a.75.75 0 0 1 .51.91Zm-2.91 3.41a.78.78 0 0 1-.73.56h-.19l-2.78-.73a.74.74 0 0 1-.196-1.358.75.75 0 0 1 .566-.082l2.79.73a.75.75 0 0 1 .54.88Z"/>
  <path d="M22.19 5.47a5.68 5.68 0 0 0-3.42-2.73l-3.45-1a5.64 5.64 0 0 0-6.23 2.18 4.4 4.4 0 0 0-.47.1l-3.44 1a5.73 5.73 0 0 0-3.84 7.12L3.2 18.4a5.72 5.72 0 0 0 7.12 3.85l3.44-1a5.711 5.711 0 0 0 2-1 5.73 5.73 0 0 0 5.16-4.12l1.8-6.25a5.637 5.637 0 0 0-.53-4.41ZM9.89 20.81A4.22 4.22 0 0 1 4.64 18l-1.86-6.26a4.21 4.21 0 0 1 2.83-5.25l2.61-.78-1.79 6.19a5.71 5.71 0 0 0 3.9 7.1l2.89.84-3.33.97Zm11.34-11.4-1.81 6.25a4.149 4.149 0 0 1-2 2.52 4.23 4.23 0 0 1-3.21.36l-3.45-1a4.22 4.22 0 0 1-2.88-5.23l1.8-6.25a4.23 4.23 0 0 1 4-3c.4 0 .797.058 1.18.17l3.45 1a4.22 4.22 0 0 1 2.88 5.23l.04-.05Z"/>
</svg>
