<svg xmlns="http://www.w3.org/2000/svg" width="24" height="24" fill="currentColor" viewBox="0 0 24 24">
  <path d="M16.11 22.75H7.89a6.6 6.6 0 0 1-6.65-6.53V8.56A6.6 6.6 0 0 1 7.89 2h3.54a.75.75 0 1 1 0 1.5H7.89a5.09 5.09 0 0 0-5.12 5v7.66a5.09 5.09 0 0 0 5.12 5h8.22a5.09 5.09 0 0 0 5.12-5v-5.02a.77.77 0 0 1 1.53 0v5.08a6.6 6.6 0 0 1-6.65 6.53Zm1.57-20a.91.91 0 0 0-.75.37l-.59.76a3.47 3.47 0 0 0 1.36 2 3.65 3.65 0 0 0 2.18.74H20l.59-.76a.912.912 0 0 0 .064-1.018.86.86 0 0 0-.244-.262l-2.17-1.64a.91.91 0 0 0-.56-.19Zm0-1.5a2.48 2.48 0 0 1 1.48.49l2.19 1.62a2.391 2.391 0 0 1 .48 3.39l-.66.86a1.21 1.21 0 0 1-.81.47h-.48a5.26 5.26 0 0 1-3.11-1 5.05 5.05 0 0 1-2-3.1 1.169 1.169 0 0 1 .24-.9l.66-.86a2.5 2.5 0 0 1 2-1l.01.03Zm-4.56 6.8L10.88 11a.73.73 0 0 0-.16.43v3.16a.24.24 0 0 0 .08.21.34.34 0 0 0 .23.1h.09l3.06-.9a.79.79 0 0 0 .38-.27l2.24-2.9a8.995 8.995 0 0 1-2-1.12 8.687 8.687 0 0 1-1.65-1.61m.05-2.16a.6.6 0 0 1 .55.33 7.2 7.2 0 0 0 2 2.24 7 7 0 0 0 2.74 1.24.61.61 0 0 1 .37 1l-3 3.92a2.22 2.22 0 0 1-1.17.79l-3.09.9a1.878 1.878 0 0 1-1.227-.05 1.81 1.81 0 0 1-1.133-1.7v-3.16a2.19 2.19 0 0 1 .47-1.32l3-3.92a.65.65 0 0 1 .5-.24l-.01-.03Z"/>
</svg>
