<svg xmlns="http://www.w3.org/2000/svg" width="24" height="24" fill="currentColor" viewBox="0 0 24 24">
  <path d="M17.36 10.54a.77.77 0 0 0-.77-.78H7.45a.78.78 0 0 0 0 1.56h9.14a.77.77 0 0 0 .77-.78Zm-3.22 4.88a.77.77 0 0 0-.76-.78H7.5a.78.78 0 0 0 0 1.56h5.88a.77.77 0 0 0 .76-.78Z"/>
  <path d="M15.73 3.69H8.28a5.46 5.46 0 0 0-5.46 5.46v7.39A5.46 5.46 0 0 0 8.28 22h7.45a5.46 5.46 0 0 0 5.46-5.46V9.15a5.46 5.46 0 0 0-5.46-5.46Z" opacity=".3"/>
  <path d="M8.35 5.43a.75.75 0 0 1-.75-.75V2.85a.75.75 0 1 1 1.5 0v1.83a.75.75 0 0 1-.75.75Zm7.3 0a.74.74 0 0 1-.75-.75V2.85a.75.75 0 1 1 1.5 0v1.83a.75.75 0 0 1-.75.75Z"/>
</svg>
