<svg xmlns="http://www.w3.org/2000/svg" width="24" height="25" fill="currentColor" viewBox="0 0 24 25">
  <path d="M19.71 14.7a7.33 7.33 0 0 1-1.22-4.2v-.15a6.34 6.34 0 0 0-5.72-6.3V2.88a.75.75 0 1 0-1.5 0v1.21a6.37 6.37 0 0 0-1.62.41 6.17 6.17 0 0 0-3.81 5.84 7.24 7.24 0 0 1-1.43 4.4l-.67.92a2.91 2.91 0 0 0-.56 1.7 2.87 2.87 0 0 0 2.87 2.87h3.29v.33a2.7 2.7 0 0 0 5.35 0v-.33H18a2.92 2.92 0 0 0 2.4-4.51l-.69-1.02Zm-6.51 5.69a1.18 1.18 0 0 1-1.18 1 1.2 1.2 0 0 1-1.18-1v-.16h2.36v.16Zm4.8-1.66H6.05a1.37 1.37 0 0 1-1.37-1.37 1.32 1.32 0 0 1 .32-.81l.67-.92a8.8 8.8 0 0 0 1.67-5.36 4.65 4.65 0 0 1 2.86-4.36 5.3 5.3 0 0 1 2-.38 4.81 4.81 0 0 1 4.8 4.81v.16a8.78 8.78 0 0 0 1.47 5l.67 1c.158.24.238.523.23.81A1.37 1.37 0 0 1 18 18.73ZM3.49 11.12a.75.75 0 0 0 .64-.85A5.16 5.16 0 0 1 6 5.39a.75.75 0 0 0 .18-1 .74.74 0 0 0-1-.18 6.67 6.67 0 0 0-2.53 6.29.74.74 0 0 0 .74.64l.1-.02Zm15.37-6.96A.75.75 0 1 0 18 5.38a5.21 5.21 0 0 1 1.87 4.89.751.751 0 0 0 .64.85h.1a.74.74 0 0 0 .74-.64 6.67 6.67 0 0 0-2.49-6.32Z"/>
</svg>
