<svg xmlns="http://www.w3.org/2000/svg" width="24" height="25" fill="currentColor" viewBox="0 0 24 25">
  <path d="M20.66 14.7a7.25 7.25 0 0 1-1.21-4.2v-.15a6.34 6.34 0 0 0-5.72-6.3V2.88a.75.75 0 1 0-1.5 0v1.21a6.44 6.44 0 0 0-1.63.41 6.18 6.18 0 0 0-3.8 5.84 7.31 7.31 0 0 1-1.43 4.4l-.67.92A2.86 2.86 0 0 0 7 20.23h3.28v.33a2.7 2.7 0 0 0 5.35 0v-.33H19a2.91 2.91 0 0 0 2.39-4.51l-.73-1.02Zm-6.5 5.69a1.21 1.21 0 0 1-2.37 0v-.16h2.37v.16ZM19 18.73H7a1.37 1.37 0 0 1-1.1-2.18l.68-.92a8.87 8.87 0 0 0 1.72-5.36 4.66 4.66 0 0 1 2.85-4.36 5.35 5.35 0 0 1 2-.38A4.81 4.81 0 0 1 18 10.34v.16a8.84 8.84 0 0 0 1.46 5l.68 1c.157.24.238.523.23.81A1.37 1.37 0 0 1 19 18.73Z"/>
</svg>
