<svg xmlns="http://www.w3.org/2000/svg" width="24" height="25" fill="currentColor" viewBox="0 0 24 25">
  <path d="M19 4a1.5 1.5 0 1 1 0 3 1.5 1.5 0 0 1 0-3Zm0-1.5a3 3 0 1 0 0 6 3 3 0 0 0 0-6Z"/>
  <path d="M16 23.25H7a5.8 5.8 0 0 1-5.75-5.75v-9A5.8 5.8 0 0 1 7 2.75h6.39a.75.75 0 1 1 0 1.5H7A4.3 4.3 0 0 0 2.75 8.5v9A4.3 4.3 0 0 0 7 21.75h9a4.3 4.3 0 0 0 4.25-4.25v-6a.75.75 0 1 1 1.5 0v6A5.8 5.8 0 0 1 16 23.25Z"/>
  <path d="M11.5 14.5H6.81a.75.75 0 1 1 0-1.5h4.69a.75.75 0 0 1 0 1.5Zm4 4H6.81a.75.75 0 1 1 0-1.5h8.69a.75.75 0 0 1 0 1.5Z"/>
</svg>
