<svg xmlns="http://www.w3.org/2000/svg" width="24" height="25" fill="currentColor" viewBox="0 0 24 25">
  <path d="M19 4a1.5 1.5 0 1 1 0 3 1.5 1.5 0 0 1 0-3Zm0-1.5a3 3 0 1 0 0 6 3 3 0 0 0 0-6Z"/>
  <path d="M16 23.25H7a5.8 5.8 0 0 1-5.75-5.75v-9A5.8 5.8 0 0 1 7 2.75h6a.75.75 0 1 1 0 1.5H7A4.3 4.3 0 0 0 2.75 8.5v9A4.3 4.3 0 0 0 7 21.75h9a4.3 4.3 0 0 0 4.25-4.25v-5.66a.75.75 0 1 1 1.5 0v5.66A5.8 5.8 0 0 1 16 23.25Z"/>
  <path d="M8.68 19.44a2.381 2.381 0 0 1-1.31-.38 4.69 4.69 0 0 1-2.49-4 2.62 2.62 0 0 1 1.88-2.56 2.57 2.57 0 0 1 1.87.18 2.57 2.57 0 0 1 3.75 2.38 4.66 4.66 0 0 1-2.42 4 2.48 2.48 0 0 1-1.28.38Zm-1.21-5.55a1.08 1.08 0 0 0-1.09 1.19 3.31 3.31 0 0 0 1.79 2.71 1 1 0 0 0 1 0 3.23 3.23 0 0 0 1.69-2.77 1.07 1.07 0 0 0-.69-1.07 1.06 1.06 0 0 0-1.08.18l-.48.4-.48-.4a1.08 1.08 0 0 0-.66-.24Z"/>
</svg>
