<svg xmlns="http://www.w3.org/2000/svg" width="24" height="24" fill="currentColor" viewBox="0 0 24 24">
  <path d="M19.08 15a8.13 8.13 0 0 1-1.34-4.59v-.18a5.61 5.61 0 0 0-7.82-5.14 5.38 5.38 0 0 0-3.33 5.06v.06A8.08 8.08 0 0 1 5 15.06l-.66.94a2.11 2.11 0 0 0-.41 1.26 2.12 2.12 0 0 0 2.12 2.12H18a2.118 2.118 0 0 0 2.12-2.12v-.06a2.11 2.11 0 0 0-.36-1.2l-.68-1Z" opacity=".3"/>
  <path d="M10.09 20.32a1.95 1.95 0 0 0 3.86 0h-3.86Zm2.67-15.64V2.75a.75.75 0 0 0-1.5 0v1.9a.138.138 0 0 0 0 .07 6.07 6.07 0 0 1 1.5-.04Z"/>
</svg>
