<svg xmlns="http://www.w3.org/2000/svg" width="24" height="24" fill="currentColor" viewBox="0 0 24 24">
  <path d="M20.34 8.81 14.8 3.27a3.08 3.08 0 0 0-4.35 0L2.9 10.82a3.08 3.08 0 0 0 0 4.35l5.54 5.54a3.08 3.08 0 0 0 4.35 0l7.55-7.55a3.08 3.08 0 0 0 0-4.35Zm-8.83-4.48a1.53 1.53 0 0 1 1.11-.46 1.57 1.57 0 0 1 1.12.46l5.53 5.54c.193.194.33.435.4.7a41.752 41.752 0 0 0-15.22.82l7.06-7.06Zm.22 15.31a1.56 1.56 0 0 1-2.23 0L4 14.11a1.59 1.59 0 0 1-.43-.83c3.33-1.4 10.68-1.96 15.76-1.28a.2.2 0 0 1-.06.07l-7.54 7.57Zm8.86-3.37a.999.999 0 0 0-.82-.4 1.05 1.05 0 0 0-.83.41 5.94 5.94 0 0 0-1.42 3.23 2.24 2.24 0 1 0 4.48 0 5.74 5.74 0 0 0-1.41-3.24Zm-.83 3.86a.69.69 0 0 1-.74-.62c.085-.662.344-1.29.75-1.82a3.61 3.61 0 0 1 .73 1.82.69.69 0 0 1-.74.62Z"/>
</svg>
