<svg xmlns="http://www.w3.org/2000/svg" width="24" height="25" fill="currentColor" viewBox="0 0 24 25">
  <g clip-path="url(#a)">
    <path d="M2.402 21.788a2.39 2.39 0 0 1-.587-2.454l1.414-4.468a.72.72 0 0 1 1.372.424l-1.428 4.455a1 1 0 0 0 1.364 1.195l16.01-7.524a1 1 0 0 0 .586-.898 1.001 1.001 0 0 0-.537-.877L4.622 4.068a1 1 0 0 0-1.393 1.21l1.966 6.307a.39.39 0 0 0 .389.29l9.015.204a.71.71 0 0 1 .708.708.74.74 0 0 1-.707.707l-8.988-.205a1.82 1.82 0 0 1-1.74-1.287L1.85 5.722a2.43 2.43 0 0 1 .743-2.58 2.4 2.4 0 0 1 2.659-.382l15.966 7.566a2.38 2.38 0 0 1 1.33 2.192 2.44 2.44 0 0 1-1.422 2.213L5.117 22.255a2.4 2.4 0 0 1-2.637-.36l-.078-.107Z"/>
  </g>
  <defs>
    <clipPath id="a">
      <path d="M0 .5h24v24H0z"/>
    </clipPath>
  </defs>
</svg>
