<svg xmlns="http://www.w3.org/2000/svg" width="24" height="24" fill="currentColor" viewBox="0 0 24 24">
  <path d="M18.6 10.17a.74.74 0 0 0-1 .32L13.7 18a4.53 4.53 0 0 1-2.4 2.19A3.56 3.56 0 0 1 8.4 20a3.5 3.5 0 0 1-1.77-2.3A4.55 4.55 0 0 1 7 14.5l2.62-5 2.17-4.17a3.09 3.09 0 0 1 1.66-1.51 2.39 2.39 0 0 1 2 .08 2.42 2.42 0 0 1 1.2 1.57 3.12 3.12 0 0 1-.28 2.23l-2.19 4.22-1.55 3c-.18.36-.487.64-.86.79a1.17 1.17 0 0 1-1 0 1.41 1.41 0 0 1-.45-1.93l2.81-5.41a.75.75 0 0 0-1.33-.69L9 13a2.91 2.91 0 0 0 1.09 4c.369.198.781.302 1.2.3.343.001.682-.064 1-.19A3.13 3.13 0 0 0 14 15.55l1.88-3.63 1.85-3.57a4.65 4.65 0 0 0 .41-3.3A3.85 3.85 0 0 0 13 2.37a4.67 4.67 0 0 0-2.52 2.23L9.32 6.83l-3.62 7a6 6 0 0 0-.52 4.29 5 5 0 0 0 2.53 3.25c.71.359 1.495.54 2.29.53a5.382 5.382 0 0 0 1.87-.35A6.07 6.07 0 0 0 15 18.66l3.88-7.48a.75.75 0 0 0-.28-1.01Z"/>
</svg>
