<svg xmlns="http://www.w3.org/2000/svg" width="24" height="24" fill="currentColor" viewBox="0 0 24 24">
  <path d="M17.93 9a2.75 2.75 0 0 0 0-4.76l-4.57-2.62a2.76 2.76 0 0 0-2.75 0L6.07 4.27A2.75 2.75 0 0 0 6.08 9l4.56 2.62A2.75 2.75 0 0 0 12 12a2.72 2.72 0 0 0 1.38-.37L17.93 9Zm-6.56-6.08a1.25 1.25 0 0 1 .63-.16c.22-.002.437.053.63.16l4.55 2.62a1.25 1.25 0 0 1 0 2.16l-.85.49-7-4.08 2.04-1.19Zm0 7.43L6.83 7.73a1.23 1.23 0 0 1-.63-1.08 1.25 1.25 0 0 1 .62-1.09l1.08-.62 7 4.06-2.26 1.31a1.26 1.26 0 0 1-1.26.04h-.01Zm-1.23 2L5.6 9.72a2.76 2.76 0 0 0-4.13 2.38v5.26a2.76 2.76 0 0 0 1.38 2.38l4.55 2.63A2.759 2.759 0 0 0 11.53 20v-5.27a2.76 2.76 0 0 0-1.38-2.38h-.01ZM10 20a1.24 1.24 0 0 1-.63 1.08 1.22 1.22 0 0 1-1.25 0L3.6 18.44a1.24 1.24 0 0 1-.6-1.08V12.1a1.26 1.26 0 0 1 1.25-1.25c.221.002.438.06.63.17l4.52 2.63a1.25 1.25 0 0 1 .6 1.08V20ZM21.15 9.72a2.76 2.76 0 0 0-2.75 0l-4.55 2.63a2.76 2.76 0 0 0-1.38 2.38V20a2.75 2.75 0 0 0 4.13 2.38l4.55-2.63a2.76 2.76 0 0 0 1.38-2.38V12.1a2.731 2.731 0 0 0-1.38-2.38ZM21 17.36a1.24 1.24 0 0 1-.63 1.08l-4.55 2.63a1.22 1.22 0 0 1-1.25 0A1.239 1.239 0 0 1 14 20v-5.27a1.25 1.25 0 0 1 .63-1.08l1.68-1v.85a.72.72 0 0 0 .72.72.73.73 0 0 0 .72-.73v-1.67l1.4-.82a1.29 1.29 0 0 1 .63-.17A1.26 1.26 0 0 1 21 12.1v5.26Z"/>
</svg>
