<svg xmlns="http://www.w3.org/2000/svg" width="24" height="24" fill="currentColor" viewBox="0 0 24 24">
  <path d="m21.93 4.94-2.87-2.87a2.84 2.84 0 0 0-3.94 0L13 4.22l-9.4 9.36a.74.74 0 0 0-.16.27l-2.06 6.2a1.85 1.85 0 0 0-.11.56v.06a1.9 1.9 0 0 0 .25 1s.06.07.08.11c.072.124.16.238.26.34a2 2 0 0 0 2.08.49l6.2-2.06a.77.77 0 0 0 .27-.17L19.78 11l2.15-2.16a2.74 2.74 0 0 0 .82-2 2.77 2.77 0 0 0-.82-1.9ZM9.89 18.8l-2.35-2.34-2.35-2.35 8.3-8.29 4.7 4.69-8.3 8.29Zm-6.44 2.42h-.19a.53.53 0 0 1-.26-.09.54.54 0 0 1-.16-.35.68.68 0 0 1 0-.19l.16-.78L4.19 21l-.74.22Zm2.33-.77-2.23-2.23.91-2.72 2 2 2 2-2.68.95ZM20.87 7.82l-1.62 1.63-4.7-4.7 1.63-1.62a1.29 1.29 0 0 1 1.82 0L20.87 6a1.29 1.29 0 0 1 0 1.82Z"/>
</svg>
