<svg xmlns="http://www.w3.org/2000/svg" width="24" height="25" fill="currentColor" viewBox="0 0 24 25">
  <path d="M12.18 15.99a3.75 3.75 0 1 1 0-7.5 3.75 3.75 0 0 1 0 7.5Zm0-6.13a2.38 2.38 0 1 0 0 4.76 2.38 2.38 0 0 0 0-4.76Zm0 13.43c-2.61 0-4.66-1.41-4.66-3.21s2.05-3.21 4.66-3.21c2.61 0 4.66 1.41 4.66 3.21s-2.05 3.21-4.66 3.21Zm0-5c-1.91 0-3.24.94-3.24 1.79 0 .85 1.33 1.79 3.24 1.79 1.91 0 3.24-.95 3.24-1.79 0-.84-1.33-1.79-3.24-1.79Zm5-9.8A3.39 3.39 0 1 1 20.6 5.1a3.39 3.39 0 0 1-3.39 3.4l-.03-.01Zm0-5.36a2 2 0 1 0 .03 0h-.03ZM7.12 8.5a3.39 3.39 0 1 1 0-6.78 3.39 3.39 0 0 1 0 6.78Zm0-5.36a2 2 0 1 0 2 2 2 2 0 0 0-2-2.01v.01Zm15 9.3c0-1.85-2.23-3.3-5.07-3.3a.72.72 0 1 0 0 1.43c2.14 0 3.64 1 3.64 1.87 0 .87-1.5 1.88-3.64 1.88a.71.71 0 1 0 0 1.42c2.85-.01 5.08-1.45 5.08-3.31l-.01.01ZM7.66 14.87a.71.71 0 0 0-.72-.71c-2.14 0-3.64-1-3.64-1.88 0-.88 1.5-1.87 3.64-1.87a.72.72 0 1 0 0-1.43c-2.84 0-5.07 1.45-5.07 3.3 0 1.85 2.23 3.3 5.07 3.3a.708.708 0 0 0 .72-.71Z"/>
</svg>
