<svg xmlns="http://www.w3.org/2000/svg" width="24" height="25" fill="currentColor" viewBox="0 0 24 25">
  <path d="M22.76 8.4a6.71 6.71 0 0 0-6.71-6.67H7.91A6.71 6.71 0 0 0 1.2 8.5v8.08A6.71 6.71 0 0 0 8 23.27h8.14a6.712 6.712 0 0 0 6.66-6.77l-.04-8.1Zm-3 11.78a5.179 5.179 0 0 1-3.67 1.55L8 21.77a5.21 5.21 0 0 1-5.21-5.18L2.7 8.5a5.22 5.22 0 0 1 5.18-5.23h8.14a5.07 5.07 0 0 1 3.69 1.5 5.2 5.2 0 0 1 1.55 3.68v8.08a5.16 5.16 0 0 1-1.47 3.65h-.03Zm-5-7.42a.48.48 0 0 0 .48.49 2 2 0 0 1 0 4h-1.16a.75.75 0 1 1 0-1.5h1.23a.5.5 0 0 0 0-1 2 2 0 0 1 0-4h1.24a.75.75 0 1 1 0 1.5h-1.24a.48.48 0 0 0-.48.51h-.07Zm-5.37-5h-2a.75.75 0 0 0-.66.74v8a.75.75 0 1 0 1.5 0v-3.29h1.23a2.72 2.72 0 0 0 0-5.44l-.07-.01Zm0 3.94H8.23V9.27h1.23a1.22 1.22 0 0 1 0 2.44l-.07-.01Z"/>
</svg>
