<svg xmlns="http://www.w3.org/2000/svg" width="24" height="25" fill="currentColor" viewBox="0 0 24 25">
  <path fill-rule="evenodd" d="M6.221 6.267a2.8 2.8 0 0 1 1.57-.447 2.77 2.77 0 0 1 2.75 2.8 2.8 2.8 0 1 1-4.32-2.353Zm.84 3.452c.22.132.473.195.73.181A1.27 1.27 0 0 0 9 8.62a1.28 1.28 0 1 0-1.94 1.1Z" clip-rule="evenodd"/>
  <path fill-rule="evenodd" d="M7.89 1.75h8.22a6.72 6.72 0 0 1 6.64 6.75v8.256a.752.752 0 1 1-1.504 0v-.54L19.22 14.16a2.391 2.391 0 0 0-3.48.08l-2 2.18a3 3 0 0 1-4.26.21 2.37 2.37 0 0 0-3.11-.09l-3 2.43.036.073c.048.098.098.199.154.287l.1.17c.202.262.427.506.67.73.207.209.431.4.67.57l.1.12a5.1 5.1 0 0 0 1.69.73H7c.294.053.591.084.89.09h7.114a.73.73 0 1 1 0 1.46H7.88a6.662 6.662 0 0 1-.89-.07h-.24a6.107 6.107 0 0 1-.74-.17l-.21-.07c-.22-.07-.43-.16-.64-.25l-.32-.16a5.5 5.5 0 0 1-.46-.27c-.15-.1-.3-.2-.44-.31l-.38-.3-.29-.27c-.16-.16-.32-.33-.47-.51l-.17-.22c-.14-.19-.27-.38-.4-.59l-.1-.18a6.74 6.74 0 0 1-.88-3.33v-8a6.72 6.72 0 0 1 6.64-6.75Zm12.36 11.32 1 1V8.5a5.19 5.19 0 0 0-5.14-5.22H7.89A5.19 5.19 0 0 0 2.75 8.5v8c0 .309.03.617.09.92l2.62-2.09a3.86 3.86 0 0 1 5 .15 1.51 1.51 0 0 0 2.15-.11l2-2.17a3.83 3.83 0 0 1 2.79-1.29 3.891 3.891 0 0 1 2.85 1.16Z" clip-rule="evenodd"/>
  <path d="M21.157 18.491a.646.646 0 0 1 .454 1.13l-.94.942.946.946a.649.649 0 0 1 0 .913v.001a.647.647 0 0 1-.913 0l-.947-.947-.947.947a.649.649 0 0 1-.913 0v-.001a.647.647 0 0 1 0-.912l.947-.947-.954-.954-.006-.007a.647.647 0 0 1 .912-.913l.007.007.954.953.94-.94a.646.646 0 0 1 .46-.218Z"/>
</svg>
