<svg xmlns="http://www.w3.org/2000/svg" width="24" height="24" fill="currentColor" viewBox="0 0 24 24">
  <path d="M15.92 2.65a5.43 5.43 0 0 1 5.43 5.43v7.84a5.432 5.432 0 0 1-5.43 5.43H8.08a5.43 5.43 0 0 1-5.43-5.43V8.08a5.43 5.43 0 0 1 5.43-5.43h7.84ZM7.33 12.93h3.74v3.74a.93.93 0 1 0 1.86 0v-3.74h3.74a.93.93 0 1 0 0-1.86h-3.74V7.33a.93.93 0 0 0-1.86 0v3.74H7.33a.93.93 0 0 0 0 1.86Zm8.59-11.68H8.08a6.83 6.83 0 0 0-6.83 6.83v7.84a6.83 6.83 0 0 0 6.83 6.83h7.84a6.83 6.83 0 0 0 6.83-6.83V8.08a6.83 6.83 0 0 0-6.83-6.83Z"/>
</svg>
