<svg xmlns="http://www.w3.org/2000/svg" width="24" height="25" fill="currentColor" viewBox="0 0 24 25">
  <path d="M22.17 6.4 21 4.63a2 2 0 0 0-1.65-.88h-4.6a2 2 0 0 0-2-2h-1.46a2 2 0 0 0-2 2v6H4.66a2 2 0 0 0-1.66.88L1.83 12.4a2 2 0 0 0 0 2.2L3 16.37a2 2 0 0 0 1.65.88h4.6v4a2 2 0 0 0 2 2h1.42a2 2 0 0 0 2-2v-10h4.59a2 2 0 0 0 1.74-.88l1.17-1.77a2 2 0 0 0 0-2.2ZM4.66 15.75a.47.47 0 0 1-.4-.22l-1.18-1.76a.48.48 0 0 1 0-.54l1.18-1.73a.47.47 0 0 1 .4-.22h4.59v4.5l-4.59-.03Zm8.59 5.46a.54.54 0 0 1-.54.54h-1.42a.54.54 0 0 1-.54-.54V3.79a.54.54 0 0 1 .54-.54h1.42a.54.54 0 0 1 .54.54v17.42Zm7.67-13.44L19.74 9.5a.47.47 0 0 1-.4.22h-4.59V5.25h4.59a.47.47 0 0 1 .4.22l1.18 1.76a.48.48 0 0 1 0 .54Z"/>
</svg>
