<svg xmlns="http://www.w3.org/2000/svg" width="24" height="24" fill="currentColor" viewBox="0 0 24 24">
  <path d="M9.03 11.4c2.618 0 4.74-2.104 4.74-4.7S11.648 2 9.03 2C6.412 2 4.29 4.104 4.29 6.7s2.122 4.7 4.74 4.7ZM16.39 4a3.71 3.71 0 0 0-1.59.36 6.09 6.09 0 0 1-.92 6.18A3.76 3.76 0 1 0 16.39 4Z" opacity=".3"/>
  <path d="M14.72 12.67a8.218 8.218 0 0 1 1.67-.17c3.1 0 5.61 1.76 5.61 3.76 0 2-2.34 3.63-5.28 3.74a4.88 4.88 0 0 0 .83-2.7 5.59 5.59 0 0 0-2.83-4.63Z"/>
  <path d="M16.06 17.3c0 2.596-3.147 4.7-7.03 4.7C5.147 22 2 19.896 2 17.3s3.147-4.7 7.03-4.7c3.883 0 7.03 2.104 7.03 4.7Z"/>
</svg>
