<svg xmlns="http://www.w3.org/2000/svg" width="24" height="25" fill="currentColor" viewBox="0 0 24 25">
  <path d="M9.18 1.67a5 5 0 1 0 0 10 5 5 0 0 0 0-10Zm0 8.56a3.6 3.6 0 1 1 3.62-3.6 3.62 3.62 0 0 1-3.62 3.6Zm0 2.2c-4.36 0-7.78 2.39-7.78 5.45s3.42 5.45 7.78 5.45S17 20.94 17 17.88s-3.46-5.45-7.82-5.45Zm0 9.4c-3.41 0-6.28-1.81-6.28-3.95s2.87-3.95 6.28-3.95 6.27 1.81 6.27 3.95-2.87 3.95-6.27 3.95Zm7.45-9.95a4.08 4.08 0 1 0-.18-8.16.75.75 0 1 0 0 1.5 2.58 2.58 0 0 1 .12 5.16c-.14.01-.28.01-.42 0a.77.77 0 0 0-.85.64.75.75 0 0 0 .64.85c.19.015.38.015.57 0l.12.01Z"/>
  <path d="M18 21.23c2.7-.43 4.58-2.1 4.58-4.08 0-2.34-2.58-4.17-5.87-4.17a.75.75 0 1 0 0 1.5c2.37 0 4.37 1.22 4.37 2.67 0 1.2-1.39 2.29-3.32 2.59a.76.76 0 0 0-.62.86.75.75 0 0 0 .74.63H18Z"/>
</svg>
