<svg xmlns="http://www.w3.org/2000/svg" width="24" height="24" fill="currentColor" viewBox="0 0 24 24">
  <path d="M19.85 7.56h-3.41V4.15A2.15 2.15 0 0 0 14.29 2H9.71a2.15 2.15 0 0 0-2.15 2.15v3.41H4.15A2.15 2.15 0 0 0 2 9.71v4.58a2.15 2.15 0 0 0 2.15 2.15h3.41v3.41A2.15 2.15 0 0 0 9.71 22h4.58a2.15 2.15 0 0 0 2.15-2.15v-3.41h3.41A2.15 2.15 0 0 0 22 14.29V9.71a2.15 2.15 0 0 0-2.15-2.15ZM10 5.43a.75.75 0 0 1-.74-.75.74.74 0 0 1 .74-.74.75.75 0 0 1 .75.74.76.76 0 0 1-.75.75Zm4 14.64a.8.8 0 0 1-.739-1.105.79.79 0 0 1 .739-.485.79.79 0 0 1 .79.79.79.79 0 0 1-.79.8Z" opacity=".3"/>
  <path d="M14.29 2H9.71a2.15 2.15 0 0 0-2.15 2.15v3.41H4.15A2.15 2.15 0 0 0 2 9.71v4.58a2.15 2.15 0 0 0 2.15 2.15h3.41v-2A2.48 2.48 0 0 1 10 12h4.11a2.3 2.3 0 0 0 2.3-2.3V4.15A2.15 2.15 0 0 0 14.29 2ZM10 5.43a.75.75 0 0 1-.74-.75.74.74 0 0 1 .74-.74.75.75 0 0 1 .75.74.76.76 0 0 1-.75.75Z"/>
</svg>
