<svg xmlns="http://www.w3.org/2000/svg" width="24" height="24" fill="currentColor" viewBox="0 0 24 24">
  <path d="M21.39 10.53 20 9.12a.999.999 0 0 1-.3-.73v-2a2.08 2.08 0 0 0-2.1-2.07h-2a1 1 0 0 1-.73-.3l-1.4-1.41a2.08 2.08 0 0 0-2.94 0L9.12 4a1 1 0 0 1-.73.3h-2a2.08 2.08 0 0 0-2.07 2.1v2a1 1 0 0 1-.3.73l-1.41 1.4a2.08 2.08 0 0 0 0 2.94L4 14.88a1 1 0 0 1 .3.73v2a2.08 2.08 0 0 0 2.1 2.07h2a1.002 1.002 0 0 1 .73.3l1.41 1.41a2.08 2.08 0 0 0 2.94 0l1.4-1.39a1.001 1.001 0 0 1 .73-.3h2a2.08 2.08 0 0 0 2.08-2.08v-2a1 1 0 0 1 .3-.73l1.41-1.41a2.08 2.08 0 0 0-.01-2.95Z" opacity=".3"/>
  <path d="M12 14.93a.76.76 0 0 1-.75-.75v-.82A2.67 2.67 0 0 1 12.71 11a1.63 1.63 0 1 0-2.34-1.47.75.75 0 1 1-1.5 0A3.1 3.1 0 0 1 10 7.09a3.13 3.13 0 1 1 3.37 5.21 1.17 1.17 0 0 0-.61 1.06v.82a.76.76 0 0 1-.76.75Zm0 2.6a.75.75 0 1 0 0-1.5.75.75 0 0 0 0 1.5Z"/>
</svg>
