<svg xmlns="http://www.w3.org/2000/svg" width="24" height="24" fill="currentColor" viewBox="0 0 24 24">
  <path d="M16.1 22.75H7.9A6.72 6.72 0 0 1 1.25 16V8A6.72 6.72 0 0 1 7.9 1.25h8.2A6.72 6.72 0 0 1 22.75 8v8a6.72 6.72 0 0 1-6.65 6.75ZM7.9 2.81A5.18 5.18 0 0 0 2.78 8v8a5.18 5.18 0 0 0 5.12 5.19h8.2A5.18 5.18 0 0 0 21.22 16V8a5.18 5.18 0 0 0-5.12-5.19H7.9Zm-.75 8a.77.77 0 0 0 .54-.35l1.69-2.73a.79.79 0 0 0-.24-1.08.75.75 0 0 0-1.05.25l-1.22 2-.69-.61a.75.75 0 0 0-1.08.07.8.8 0 0 0 .07 1.1l1.37 1.21a.78.78 0 0 0 .5.19l.11-.05Zm11.57-1.55a.78.78 0 0 0-.72-.78h-6A.78.78 0 0 0 12 10h6a.78.78 0 0 0 .72-.74Zm-11.6 7a.77.77 0 0 0 .54-.35l1.69-2.71a.78.78 0 0 0-.24-1.07.75.75 0 0 0-1 .24l-1.22 2-.69-.61a.75.75 0 0 0-1.08.08.8.8 0 0 0 .07 1.1l1.37 1.2a.73.73 0 0 0 .5.19l.06-.07Zm11.62-1.55A.77.77 0 0 0 18 14h-6a.78.78 0 0 0 0 1.56h6a.771.771 0 0 0 .74-.82v-.03Z"/>
</svg>
