<svg xmlns="http://www.w3.org/2000/svg" width="24" height="25" fill="currentColor" viewBox="0 0 24 25">
  <path d="M12 23.25A10.75 10.75 0 1 1 22.75 12.5 10.76 10.76 0 0 1 12 23.25Zm0-20a9.25 9.25 0 1 0 9.25 9.25A9.26 9.26 0 0 0 12 3.25Z"/>
  <path d="M12 15.5a.75.75 0 0 1-.75-.75v-.82a2.67 2.67 0 0 1 1.46-2.43 1.63 1.63 0 1 0-2.34-1.47.75.75 0 1 1-1.5 0 3.14 3.14 0 0 1 3.69-3.08 3.15 3.15 0 0 1 2.52 2.55 3.11 3.11 0 0 1-1.72 3.38 1.17 1.17 0 0 0-.61 1.06v.82a.75.75 0 0 1-.75.74Zm0 2.59a.75.75 0 1 0 0-1.5.75.75 0 0 0 0 1.5Z"/>
</svg>
