<svg xmlns="http://www.w3.org/2000/svg" width="24" height="25" fill="currentColor" viewBox="0 0 24 25">
  <path d="M12 23.25c-.75 0-1.47-.299-2-.83l-1.41-1.41a.28.28 0 0 0-.2-.08h-2a2.83 2.83 0 0 1-2.82-2.83v-2a.28.28 0 0 0-.08-.2l-1.41-1.4a2.84 2.84 0 0 1 0-4l1.41-1.41a.28.28 0 0 0 .08-.2v-2A2.83 2.83 0 0 1 6.4 4.07h2a.28.28 0 0 0 .2-.08L10 2.58a2.83 2.83 0 0 1 4 0l1.41 1.41a.28.28 0 0 0 .2.08h2a2.83 2.83 0 0 1 2.82 2.83v2a.281.281 0 0 0 .08.2l1.41 1.4a2.84 2.84 0 0 1 0 4l-1.41 1.41a.28.28 0 0 0-.08.2v2a2.83 2.83 0 0 1-2.83 2.83h-2a.28.28 0 0 0-.2.08l-1.4 1.4c-.53.531-1.25.83-2 .83ZM6.4 5.57A1.34 1.34 0 0 0 5.07 6.9v2a1.74 1.74 0 0 1-.52 1.26l-1.41 1.4a1.33 1.33 0 0 0 0 1.88l1.41 1.41a1.74 1.74 0 0 1 .52 1.26v2a1.34 1.34 0 0 0 1.33 1.32h2a1.739 1.739 0 0 1 1.26.52l1.41 1.41a1.33 1.33 0 0 0 1.88 0l1.41-1.41a1.741 1.741 0 0 1 1.26-.52h2a1.34 1.34 0 0 0 1.33-1.33v-2a1.75 1.75 0 0 1 .52-1.26l1.41-1.41a1.33 1.33 0 0 0 0-1.88l-1.43-1.4a1.75 1.75 0 0 1-.52-1.26v-2a1.34 1.34 0 0 0-1.33-1.32h-2a1.8 1.8 0 0 1-1.26-.52l-1.4-1.41a1.33 1.33 0 0 0-1.88 0L9.65 5.05a1.75 1.75 0 0 1-1.26.52H6.4Zm6.66 9.59v-.83a1.15 1.15 0 0 1 .61-1.05 3.13 3.13 0 1 0-4.49-2.78.75.75 0 1 0 1.5 0 1.62 1.62 0 0 1 .58-1.25A1.63 1.63 0 1 1 13 11.93a2.65 2.65 0 0 0-1.46 2.4v.83a.75.75 0 1 0 1.5 0h.02Zm-.75 1.85a.75.75 0 1 0 .74.74.74.74 0 0 0-.74-.74Z"/>
</svg>
