<svg xmlns="http://www.w3.org/2000/svg" width="24" height="24" fill="currentColor" viewBox="0 0 24 24">
  <path d="M11.123 10.392a.339.339 0 0 0 .242.103h1.273v-.01a.342.342 0 0 0 .24-.103.356.356 0 0 0 .1-.246V8.584a1.03 1.03 0 0 0-.306-.728.977.977 0 0 0-.724-.276 1.02 1.02 0 0 0-.662.345c-.17.195-.265.449-.264.711v1.507c0 .093.036.183.1.25Z"/>
  <path fill-rule="evenodd" d="M10.34 16.83a.798.798 0 0 0 .307.072l.02-.01a.738.738 0 0 0 .584-.369.758.758 0 0 0 .083-.349v-2.697c0-.114.092-.205.205-.205h.881c.114 0 .205.091.205.205v2.697c.002.114.03.227.082.328a.79.79 0 0 0 .257.267c.1.067.217.106.338.112.123-.004.244-.028.359-.071.39-.184.739-.446 1.025-.77a3.99 3.99 0 0 0 .789-1.352c.17-.494.247-1.016.225-1.538V8.63a4.099 4.099 0 0 0-.235-1.548 4.008 4.008 0 0 0-.78-1.342 3.731 3.731 0 0 0-1.24-.872 4.1 4.1 0 0 0-2.9 0c-.47.2-.89.502-1.23.882-.347.387-.612.84-.78 1.332A4.1 4.1 0 0 0 8.3 8.6v4.541a4.285 4.285 0 0 0 .225 1.568c.176.5.444.963.79 1.364.29.316.637.574 1.025.758Zm.615-11.019a2.43 2.43 0 0 1 .953-.184s.13-.004.213 0c.375.016.613.083.935.225.333.143.633.352.882.615.52.6.788 1.38.748 2.173v4.572a3.26 3.26 0 0 1-.748 2.204 3.007 3.007 0 0 1-.257.235v-2.42a1.025 1.025 0 0 0-.256-.656.954.954 0 0 0-.666-.277h-1.497a.9.9 0 0 0-.666.277c-.16.181-.251.414-.256.656v2.44a1.343 1.343 0 0 1-.246-.235 3.04 3.04 0 0 1-.584-1.025 3.362 3.362 0 0 1-.175-1.21V8.62a3.147 3.147 0 0 1 .175-1.158c.123-.376.318-.724.574-1.025a2.48 2.48 0 0 1 .87-.626Z" clip-rule="evenodd"/>
  <path fill-rule="evenodd" d="M8.504 2.59a7.687 7.687 0 0 1 3.489-.84c1.21 0 2.402.287 3.488.84l.01.005.009.005a6.095 6.095 0 0 1 2.426 2.461l.004.009a7.48 7.48 0 0 1 .838 3.6v4.434a6.804 6.804 0 0 1-1.382 4.279 5.09 5.09 0 0 1-.312.373l-.028.033-.017.017a6.203 6.203 0 0 1-2.903 1.733v1.74l-.005.041c-.028.234-.13.452-.291.62a1.015 1.015 0 0 1-.601.305l-.043.005H10.87a.97.97 0 0 1-.719-.325l-.008-.01a1.018 1.018 0 0 1-.25-.688v-1.682a6.213 6.213 0 0 1-3.274-2.15l-.007-.01a6.735 6.735 0 0 1-1.379-4.283V8.669a7.482 7.482 0 0 1 .848-3.6l.003-.006a6.135 6.135 0 0 1 2.396-2.46l.013-.007.012-.006Zm.617 1.255a4.748 4.748 0 0 0-1.84 1.894 6.041 6.041 0 0 0-.683 2.91v4.484a5.3 5.3 0 0 0 1.08 3.374 4.835 4.835 0 0 0 2.896 1.752l.07.012.064.027a.858.858 0 0 1 .55.806v1.74h1.502v-1.709a.862.862 0 0 1 .133-.513l.002-.003a.816.816 0 0 1 .48-.35l.024-.006.023-.005a4.83 4.83 0 0 0 2.615-1.418l.022-.027.014-.015c.084-.09.164-.185.238-.283l.002-.002a5.37 5.37 0 0 0 1.09-3.384V8.647a6.037 6.037 0 0 0-.674-2.908 4.71 4.71 0 0 0-1.862-1.893 6.354 6.354 0 0 0-2.875-.69c-.995 0-1.977.236-2.87.689Z" clip-rule="evenodd"/>
</svg>
