<svg xmlns="http://www.w3.org/2000/svg" width="24" height="24" fill="currentColor" viewBox="0 0 24 24">
  <path d="M4.23 14.23h4.53V22H2.29v-5.83a1.94 1.94 0 0 1 1.94-1.94Z" opacity=".3"/>
  <path d="M10.71 10.35h2.59a1.94 1.94 0 0 1 1.94 1.94V22H8.77v-9.71a1.94 1.94 0 0 1 1.94-1.94Z"/>
  <path d="M15.23 17.14h4.54a1.94 1.94 0 0 1 1.94 1.94V22h-6.48v-4.86Z" opacity=".3"/>
  <path d="m13.2 8.33-.93-.44a.79.79 0 0 0-.64 0l-.94.4a.77.77 0 0 1-1.07-.8l.12-1a.73.73 0 0 0-.19-.6l-.68-.79a.78.78 0 0 1 .43-1.27l1-.2a.79.79 0 0 0 .52-.37l.52-.88a.77.77 0 0 1 1.34 0l.5.89a.76.76 0 0 0 .51.38l1 .23a.78.78 0 0 1 .4 1.28l-.7.75a.77.77 0 0 0-.2.6l.09 1a.77.77 0 0 1-1.08.82Z"/>
</svg>
