<svg xmlns="http://www.w3.org/2000/svg" width="24" height="24" fill="currentColor" viewBox="0 0 24 24">
  <path d="M19.77 16.39H16v-4.1a2.678 2.678 0 0 0-2.71-2.69h-2.58A2.68 2.68 0 0 0 8 12.29v1.19H4.23a2.69 2.69 0 0 0-2.69 2.69v6.58h20.92v-3.67a2.69 2.69 0 0 0-2.69-2.69ZM8 21.25H3v-5.08A1.19 1.19 0 0 1 4.23 15H8v6.25Zm6.47 0h-5v-9a1.19 1.19 0 0 1 1.19-1.19h2.58a1.19 1.19 0 0 1 1.19 1.19v9h.04Zm6.48 0H16v-3.36h3.79A1.191 1.191 0 0 1 21 19.08l-.05 2.17Zm-7.42-12.1a1.65 1.65 0 0 1-.65-.15L12 8.57 11 9a1.51 1.51 0 0 1-2.008-.795 1.54 1.54 0 0 1-.112-.785l.13-1-.69-.79A1.48 1.48 0 0 1 8 4.1a1.52 1.52 0 0 1 1.15-1l1-.2.56-.9A1.49 1.49 0 0 1 12 1.25a1.52 1.52 0 0 1 1.35.75l.5.9 1 .24A1.51 1.51 0 0 1 16 4.2a1.529 1.529 0 0 1-.34 1.49l-.7.75.09 1a1.52 1.52 0 0 1-.64 1.39c-.25.2-.56.313-.88.32Zm-1.59-2.08c.22.001.439.049.64.14l.93.44-.09-1a1.55 1.55 0 0 1 .4-1.18l.7-.75-1-.27a1.49 1.49 0 0 1-1-.74l-.5-.9-.57.89a1.55 1.55 0 0 1-1 .72l-1 .19.66.81a1.488 1.488 0 0 1 .37 1.19l-.12 1 1-.38a1.41 1.41 0 0 1 .58-.16Z"/>
</svg>
