<svg xmlns="http://www.w3.org/2000/svg" width="24" height="25" fill="currentColor" viewBox="0 0 24 25">
  <path fill-rule="evenodd" d="M20.299 13.36h1.093c.508 0 .763-.507.508-.889l-3.681-4.57a.953.953 0 0 0-1.524 0l-3.68 4.57c-.255.38 0 .89.378.89h.95a.444.444 0 0 1 .445.448c-.011 2.069-.173 4.525-2.548 6.773-.35.332-.748.659-1.201.979a13.835 13.835 0 0 1-1.074.686c-.125.126 0 .253.127.253l.018-.003.091-.014c.385-.062.755-.132 1.11-.21.589-.13 1.138-.282 1.65-.452 5.806-1.93 6.775-6.234 6.893-8.045a.446.446 0 0 1 .445-.416Zm-5.318 5.983a7.863 7.863 0 0 0 1.979-1.776 7.15 7.15 0 0 0 1.497-3.882v-.003a1.846 1.846 0 0 1 1.3-1.64l-2.3-2.855-2.362 2.933a1.842 1.842 0 0 1 1.093 1.7v-.003m-1.207 5.526a8.67 8.67 0 0 0 .383-.772c.754-1.732.817-3.426.824-4.75M5.781 17.098 2.1 12.527c-.253-.378 0-.889.51-.889h1.094a.446.446 0 0 0 .443-.414c.12-1.813 1.089-6.118 6.897-8.047.51-.17 1.06-.32 1.648-.45a19.51 19.51 0 0 1 1.2-.224l.018-.003c.127 0 .253.126.127.253a15.706 15.706 0 0 0-.127.074 13.6 13.6 0 0 0-.946.612c-.452.32-.85.647-1.2.978-2.376 2.248-2.54 4.705-2.551 6.772a.443.443 0 0 0 .446.45h.949c.38.002.635.507.379.888l-.412.512-3.269 4.06a.952.952 0 0 1-1.524 0Zm3.124-4.219a1.842 1.842 0 0 1-1.093-1.703c.007-1.325.07-3.017.825-4.748.114-.26.241-.518.384-.773a7.863 7.863 0 0 0-1.98 1.775 7.161 7.161 0 0 0-1.498 3.885v.006a1.846 1.846 0 0 1-1.3 1.635l2.3 2.856 2.362-2.933Z" clip-rule="evenodd"/>
</svg>
