<svg xmlns="http://www.w3.org/2000/svg" width="24" height="24" fill="currentColor" viewBox="0 0 24 24">
  <path d="M7.41 4.8a1.21 1.21 0 0 1 .39-1.91 10 10 0 0 1 9.33.48 1.16 1.16 0 0 1 .16 1.84L15.4 7a1.18 1.18 0 0 1-1.3.2 5 5 0 0 0-2.1-.47 4.56 4.56 0 0 0-1.56.27 1.19 1.19 0 0 1-1.25-.3L7.41 4.8Zm7.67 11.88a1.16 1.16 0 0 0-1.28-.28c-.567.225-1.17.34-1.78.34a5.003 5.003 0 0 1-1.82-.35 1.16 1.16 0 0 0-1.2.23l-2.29 2.12a1.16 1.16 0 0 0 .16 1.84 10 10 0 0 0 10 .17 1.19 1.19 0 0 0 .31-1.85l-2.1-2.22Z" opacity=".3"/>
  <path d="M16.77 10.25A1.17 1.17 0 0 1 17.08 9l2-1.88a1.16 1.16 0 0 1 1.82.28 9.94 9.94 0 0 1-.14 9.39 1.181 1.181 0 0 1-1.9.25l-2-2.17a1.16 1.16 0 0 1-.23-1.24 4.75 4.75 0 0 0 .4-1.92c-.012-.497-.1-.99-.26-1.46Zm-9.72 4.53a1.17 1.17 0 0 0 .28-1.28A4.73 4.73 0 0 1 7 11.73a5 5 0 0 1 .46-2.09 1.19 1.19 0 0 0-.19-1.31L5.43 6.39a1.17 1.17 0 0 0-1.85.19A9.87 9.87 0 0 0 2 12a10 10 0 0 0 1.09 4.53 1.17 1.17 0 0 0 1.83.29l2.13-2.04Z"/>
</svg>
