<svg xmlns="http://www.w3.org/2000/svg" width="24" height="25" fill="currentColor" viewBox="0 0 24 25">
  <path d="M9.014 7.293A1 1 0 0 0 7.6 8.707l1.8 1.8H8a1 1 0 0 0 0 2h2.945v1.506H8.438a1 1 0 1 0 0 2h2.507v1.63a1 1 0 1 0 2 0v-1.63h2.506a1 1 0 0 0 0-2h-2.506v-1.507h2.945a1 1 0 0 0 0-2h-1.662l1.799-1.799a1 1 0 0 0-1.414-1.414l-2.8 2.8-2.799-2.8Z"/>
  <path fill-rule="evenodd" d="M6.028 3.562A10.75 10.75 0 0 1 12 1.75 10.76 10.76 0 0 1 22.75 12.5 10.75 10.75 0 1 1 6.028 3.562Zm.833 16.63A9.25 9.25 0 0 0 12 21.75a9.26 9.26 0 0 0 9.25-9.25 9.25 9.25 0 1 0-14.389 7.691Z" clip-rule="evenodd"/>
</svg>
