<svg xmlns="http://www.w3.org/2000/svg" width="24" height="24" fill="currentColor" viewBox="0 0 24 24">
  <path d="m20 2-3.54.64a10.32 10.32 0 0 0-4.72 2.76c-2.07 2.16-4.38 6.79-5.3 8.72a1.35 1.35 0 0 0 .29 1.54l2.06 2a1.32 1.32 0 0 0 1.54.22 43.485 43.485 0 0 0 8.35-5.51 9.66 9.66 0 0 0 2.62-5L21.94 4A1.7 1.7 0 0 0 20 2Zm-2.36 7.19a2 2 0 1 1-2.906-2.75 2 2 0 0 1 2.906 2.75Z" opacity=".3"/>
  <path d="m9.36 8.66-2.78 5.21L2 13.76s3.83-5.85 7.36-5.1Zm6.72 5.74-5 3.06.31 4.54s5.61-4.12 4.69-7.6Zm.1-8.57a2 2 0 1 0 0 4 2 2 0 0 0 0-4Z"/>
</svg>
