<svg xmlns="http://www.w3.org/2000/svg" width="24" height="24" fill="currentColor" viewBox="0 0 24 24">
  <path d="M5.22 2.1a4 4 0 0 0-3 3 4 4 0 0 0 .92 3.56l2.24 2.5a1.001 1.001 0 0 0 1.49 0l2.24-2.5A4 4 0 0 0 5.22 2.1Zm.94 5.39a1.5 1.5 0 1 1 0-3 1.5 1.5 0 0 1 0 3Z"/>
  <path d="m20.9 15.76.77-1a.94.94 0 0 0-.73-1.53h-5.29v5h5.29a.94.94 0 0 0 .73-1.53l-.77-.94Z" opacity=".3"/>
  <path d="M14.9 22a.74.74 0 0 1-.75-.75v-8.73a.75.75 0 1 1 1.5 0v8.74a.75.75 0 0 1-.75.74Z"/>
  <path d="M14.23 21.26v-.75H8a3.17 3.17 0 0 1-3.25-3.07A3.16 3.16 0 0 1 8 14.37h1.5a2.19 2.19 0 1 0 0-4.37H7.82l-1 1.16a1.44 1.44 0 0 1-.8.34h3.5a.71.71 0 0 1 .75.68.72.72 0 0 1-.75.69H8a4.67 4.67 0 0 0-4.75 4.57A4.67 4.67 0 0 0 8 22h7a.748.748 0 0 1-.77-.74Z" opacity=".3"/>
</svg>
