<svg xmlns="http://www.w3.org/2000/svg" width="24" height="24" fill="currentColor" viewBox="0 0 24 24">
  <path d="M8.75 22.75h-5a2.5 2.5 0 0 1-2.5-2.5V3.75a2.5 2.5 0 0 1 2.5-2.5h5a2.5 2.5 0 0 1 2.5 2.5v16.5a2.5 2.5 0 0 1-2.5 2.5Zm-5-20a1 1 0 0 0-1 1v16.5a1 1 0 0 0 1 1h5a1 1 0 0 0 1-1V3.75a1 1 0 0 0-1-1h-5Zm16.5 20h-5a2.5 2.5 0 0 1-2.5-2.5V3.75a2.5 2.5 0 0 1 2.5-2.5h5a2.5 2.5 0 0 1 2.5 2.5v16.5a2.5 2.5 0 0 1-2.5 2.5Zm-5-20a1 1 0 0 0-1 1v16.5a1 1 0 0 0 1 1h5a1 1 0 0 0 1-1V3.75a1 1 0 0 0-1-1h-5Z"/>
</svg>
