<svg xmlns="http://www.w3.org/2000/svg" width="24" height="24" fill="currentColor" viewBox="0 0 24 24">
  <path d="M15.71 19.86H5.92a3.13 3.13 0 0 1-3.11-2.76L2 10.38a3.14 3.14 0 0 1 1.21-2.84l6-4.63a3.12 3.12 0 0 1 3.93.09l5.7 4.79a3.1 3.1 0 0 1 1.06 2.91l-1.12 6.56a3.11 3.11 0 0 1-3.07 2.6Z" opacity=".3"/>
  <path d="m15.71 21-1-.82a2.35 2.35 0 0 1-.9-1.9v-3.27a1.56 1.56 0 0 1 .92-1.42l2.56-1.19a1.59 1.59 0 0 1 1.3 0l2.47 1.08a1.61 1.61 0 0 1 .94 1.46v3.28a2.42 2.42 0 0 1-.89 1.84l-1.19.94a3.36 3.36 0 0 1-4.21 0Z"/>
</svg>
