<svg xmlns="http://www.w3.org/2000/svg" width="24" height="25" fill="currentColor" viewBox="0 0 24 25">
  <path d="M9.29 12H6.71A2.21 2.21 0 0 1 4.5 9.79V7.21A2.21 2.21 0 0 1 6.71 5h2.58a2.21 2.21 0 0 1 2.21 2.21v2.58A2.21 2.21 0 0 1 9.29 12ZM6.71 6.5a.71.71 0 0 0-.71.71v2.58a.71.71 0 0 0 .71.71h2.58a.71.71 0 0 0 .71-.71V7.21a.71.71 0 0 0-.71-.71H6.71ZM17.29 12h-2.58a2.21 2.21 0 0 1-2.21-2.21V7.21A2.21 2.21 0 0 1 14.71 5h2.58a2.21 2.21 0 0 1 2.21 2.21v2.58A2.21 2.21 0 0 1 17.29 12Zm-2.58-5.5a.71.71 0 0 0-.71.71v2.58a.71.71 0 0 0 .71.71h2.58a.71.71 0 0 0 .71-.71V7.21a.71.71 0 0 0-.71-.71h-2.58ZM9.29 20H6.71a2.21 2.21 0 0 1-2.21-2.21v-2.58A2.21 2.21 0 0 1 6.71 13h2.58a2.21 2.21 0 0 1 2.21 2.21v2.58A2.21 2.21 0 0 1 9.29 20Zm-2.58-5.5a.71.71 0 0 0-.71.71v2.58a.71.71 0 0 0 .71.71h2.58a.71.71 0 0 0 .71-.71v-2.58a.71.71 0 0 0-.71-.71H6.71ZM17.29 20h-2.58a2.21 2.21 0 0 1-2.21-2.21v-2.58A2.21 2.21 0 0 1 14.71 13h2.58a2.21 2.21 0 0 1 2.21 2.21v2.58A2.21 2.21 0 0 1 17.29 20Zm-2.58-5.5a.71.71 0 0 0-.71.71v2.58a.71.71 0 0 0 .71.71h2.58a.71.71 0 0 0 .71-.71v-2.58a.71.71 0 0 0-.71-.71h-2.58Zm-12-5V6.75a3.57 3.57 0 0 1 3.54-3.57h2.31a.75.75 0 1 0 0-1.5H6.25a5.07 5.07 0 0 0-5.07 5.07V9.5a.75.75 0 0 0 1.5 0h.03Zm20.11 0V6.75a5.07 5.07 0 0 0-5.06-5.07h-3.19a.75.75 0 1 0 0 1.5h3.19a3.57 3.57 0 0 1 3.56 3.57V9.5a.75.75 0 1 0 1.5 0ZM9.31 22.57a.76.76 0 0 0-.75-.75H6.25a3.57 3.57 0 0 1-3.57-3.57V15.5a.75.75 0 0 0-1.5 0v2.75a5.07 5.07 0 0 0 5.07 5.07h2.31a.76.76 0 0 0 .75-.75Zm13.51-4.32V15.5a.75.75 0 0 0-1.5 0v2.75a3.57 3.57 0 0 1-3.56 3.57h-3.19a.75.75 0 1 0 0 1.5h3.19a5.07 5.07 0 0 0 5.06-5.07Z"/>
</svg>
