<svg xmlns="http://www.w3.org/2000/svg" width="24" height="24" fill="currentColor" viewBox="0 0 24 24">
  <path d="M9.29 5.25H6.71a1.46 1.46 0 0 0-1.46 1.46v2.58c0 .806.654 1.46 1.46 1.46h2.58a1.46 1.46 0 0 0 1.46-1.46V6.71a1.46 1.46 0 0 0-1.46-1.46Z"/>
  <path d="M17.29 5.25h-2.58a1.46 1.46 0 0 0-1.46 1.46v2.58c0 .806.654 1.46 1.46 1.46h2.58a1.46 1.46 0 0 0 1.46-1.46V6.71a1.46 1.46 0 0 0-1.46-1.46Zm-8 8H6.71a1.46 1.46 0 0 0-1.46 1.46v2.58c0 .806.654 1.46 1.46 1.46h2.58a1.46 1.46 0 0 0 1.46-1.46v-2.58a1.46 1.46 0 0 0-1.46-1.46Z" opacity=".3"/>
  <path d="M17.29 13.25h-2.58a1.46 1.46 0 0 0-1.46 1.46v2.58c0 .806.654 1.46 1.46 1.46h2.58a1.46 1.46 0 0 0 1.46-1.46v-2.58a1.46 1.46 0 0 0-1.46-1.46Z"/>
  <path d="M1.93 9.75A.76.76 0 0 1 1.18 9V6.25a5.07 5.07 0 0 1 5.07-5.07h2.31a.75.75 0 1 1 0 1.5H6.25a3.57 3.57 0 0 0-3.57 3.57V9a.76.76 0 0 1-.75.75Z" opacity=".3"/>
  <path d="M22.07 9.75a.76.76 0 0 1-.75-.75V6.25a3.57 3.57 0 0 0-3.56-3.57h-3.19a.75.75 0 0 1 0-1.5h3.19a5.07 5.07 0 0 1 5.06 5.07V9a.76.76 0 0 1-.75.75ZM8.56 22.82H6.25a5.07 5.07 0 0 1-5.07-5.06V15a.75.75 0 1 1 1.5 0v2.76a3.57 3.57 0 0 0 3.57 3.56h2.31a.75.75 0 1 1 0 1.5Z"/>
  <path d="M17.76 22.82h-3.19a.75.75 0 1 1 0-1.5h3.19a3.57 3.57 0 0 0 3.56-3.56V15a.75.75 0 1 1 1.5 0v2.76a5.07 5.07 0 0 1-5.06 5.06Z" opacity=".3"/>
</svg>
