<svg xmlns="http://www.w3.org/2000/svg" width="24" height="24" fill="currentColor" viewBox="0 0 24 24">
  <path d="M4.62 20.48a2.63 2.63 0 1 1-.02-5.26 2.63 2.63 0 0 1 .02 5.26Zm0-3.75a1.13 1.13 0 1 0 1.12 1.12 1.12 1.12 0 0 0-1.12-1.12Zm14.76 3.75A2.63 2.63 0 1 1 22 17.85a2.62 2.62 0 0 1-2.62 2.63Zm0-3.75a1.13 1.13 0 1 0 1.12 1.12 1.12 1.12 0 0 0-1.12-1.12Z"/>
  <path d="M15.08 18.6h-10a.75.75 0 1 1 0-1.5h9.57l2.73-5.38a.74.74 0 0 1 1-.33.76.76 0 0 1 .33 1l-2.94 5.79a.76.76 0 0 1-.69.42Z"/>
  <path d="M19.22 18.08a.76.76 0 0 1-.73-.59L15.71 5h-1.9a.75.75 0 1 1 0-1.5h2.51a.75.75 0 0 1 .73.58L20 17.16a.75.75 0 0 1-.56.9l-.22.02Zm-10.45.52h-.06a.749.749 0 0 1-.71-.8 3 3 0 0 0-2.7-3.31.76.76 0 0 1-.67-.83.75.75 0 0 1 .84-.66 4.421 4.421 0 0 1 4.05 4.92.75.75 0 0 1-.75.68Z"/>
</svg>
