<svg xmlns="http://www.w3.org/2000/svg" width="24" height="24" fill="currentColor" viewBox="0 0 24 24">
  <path d="M9.97 10.705a1.426 1.426 0 0 1-.807.286L9.085 11a1.452 1.452 0 0 1-1.32-.862l-.26-.535a1.924 1.924 0 0 0-1.727-1.095h-.665a.614.614 0 0 1-.433-1.045.614.614 0 0 1 .433-.18h.665A3.138 3.138 0 0 1 8.593 9.07l.26.534a.233.233 0 0 0 .25.147.242.242 0 0 0 .233-.173l1.64-4.587A1.457 1.457 0 0 1 12.309 4a1.461 1.461 0 0 1 1.398.895l.734 1.63a1.949 1.949 0 0 0 1.727 1.164h2.72a.614.614 0 0 1 .433 1.045.614.614 0 0 1-.433.18h-2.729a3.155 3.155 0 0 1-2.85-1.89l-.708-1.62a.259.259 0 0 0-.25-.155.242.242 0 0 0-.233.172l-1.65 4.587c-.09.278-.263.521-.497.697Z"/>
  <path fill-rule="evenodd" d="M6.08 1.25h11.84a4.84 4.84 0 0 1 4.83 4.83v7.51a4.84 4.84 0 0 1-4.83 4.83h-5.17v2.12h3.58a.75.75 0 1 1 0 1.5H7.67a.75.75 0 1 1 0-1.5h3.58v-2.12H6.08a4.84 4.84 0 0 1-4.83-4.83V6.08a4.84 4.84 0 0 1 4.83-4.83Zm0 15.67h11.84a3.33 3.33 0 0 0 3.28-2.83H2.8a3.33 3.33 0 0 0 3.28 2.83Zm-3.33-4.33h18.5V6.08a3.33 3.33 0 0 0-3.33-3.33H6.08a3.33 3.33 0 0 0-3.33 3.33v6.51Z" clip-rule="evenodd"/>
</svg>
