<svg xmlns="http://www.w3.org/2000/svg" width="24" height="24" fill="currentColor" viewBox="0 0 24 24">
  <path d="M21.39 17.39 16 6a1.808 1.808 0 0 1-.08-.21h4.25a1.49 1.49 0 0 0 1.21-.62 1.52 1.52 0 0 0 .2-1.35A3.76 3.76 0 0 0 18 1.25H6a3.76 3.76 0 0 0-3.39 5.36L8 18c.031.068.058.138.08.21H4.23a1.74 1.74 0 0 0-1.49.85 1.66 1.66 0 0 0 0 1.67 3.74 3.74 0 0 0 3.3 2H18a3.76 3.76 0 0 0 3.39-5.36v.02ZM18 2.75a2.28 2.28 0 0 1 2.14 1.5H10A.42.42 0 0 1 9.61 4 3.55 3.55 0 0 0 9 2.75h9ZM4 20.06a.17.17 0 0 1 0-.19.24.24 0 0 1 .2-.12h3.91v.07L8 20a1.71 1.71 0 0 1-.13.23.747.747 0 0 1-.07.12l-.2.25v.05a2.477 2.477 0 0 1-.3.25h-.09l-.28.1-.12.05c-.09.04-.183.07-.28.09h-.12c-.136.01-.273.01-.41 0a2.23 2.23 0 0 1-2-1.08Zm14 1.19H9l.06-.09.12-.16c.08-.128.15-.262.21-.4.04-.07.073-.144.1-.22 0-.14.1-.29.14-.44.04-.15 0-.14 0-.21a4.05 4.05 0 0 0 .07-.7 3.75 3.75 0 0 0-.36-1.61L4 6a2.11 2.11 0 0 1-.22-1 2.25 2.25 0 0 1 4.42-.6A1.9 1.9 0 0 0 10 5.75h4.31c.06.297.154.585.28.86L20 18c.154.31.23.654.22 1A2.25 2.25 0 0 1 18 21.25Z"/>
</svg>
