<svg xmlns="http://www.w3.org/2000/svg" width="24" height="24" fill="currentColor" viewBox="0 0 24 24">
  <path d="M17.62 22H6.38A2.348 2.348 0 0 1 4 19.65V4.35A2.35 2.35 0 0 1 6.38 2h6.89a1.27 1.27 0 0 1 .92.39l5.4 5.47a1.3 1.3 0 0 1 .38.91v10.88A2.35 2.35 0 0 1 17.62 22Z" opacity=".3"/>
  <path d="m19.59 7.86-5.4-5.47a1.27 1.27 0 0 0-.68-.39v3.4a3.1 3.1 0 0 0 3.11 3.1h3.32a1.27 1.27 0 0 0-.35-.64Zm-3.34 9.38-2.08-2A3.87 3.87 0 0 0 14.9 13a4 4 0 1 0-1.82 3.31l2.14 2a.75.75 0 0 0 .816.149.75.75 0 0 0 .214-1.219ZM8.52 13A2.44 2.44 0 1 1 11 15.44 2.451 2.451 0 0 1 8.52 13Z"/>
</svg>
