<svg xmlns="http://www.w3.org/2000/svg" width="24" height="25" fill="currentColor" viewBox="0 0 24 25">
  <path d="M12 23.25a4.14 4.14 0 0 1-2.63-.94l-4.59-3.75a4.12 4.12 0 0 1-1.52-3.21V8a4.15 4.15 0 0 1 2.42-3.77l4.59-2.1a4.1 4.1 0 0 1 3.46 0l4.59 2.1A4.15 4.15 0 0 1 20.74 8v7.35a4.12 4.12 0 0 1-1.52 3.21l-4.59 3.75a4.14 4.14 0 0 1-2.63.94Zm0-20a2.63 2.63 0 0 0-1.1.25L6.31 5.59A2.66 2.66 0 0 0 4.76 8v7.35a2.62 2.62 0 0 0 1 2l4.59 3.75a2.65 2.65 0 0 0 3.36 0l4.59-3.75a2.62 2.62 0 0 0 1-2V8a2.66 2.66 0 0 0-1.55-2.41L13.1 3.5a2.63 2.63 0 0 0-1.1-.25Zm0 15.33c-2.52 0-4.49-1.43-4.49-3.26a3.35 3.35 0 0 1 2.62-3 3.23 3.23 0 0 1-1.4-2.67 3.27 3.27 0 1 1 6.17 1.508 3.23 3.23 0 0 1-1.03 1.162 3.35 3.35 0 0 1 2.62 3c0 1.83-1.97 3.26-4.49 3.26Zm0-5c-1.59 0-3 .82-3 1.75s1.4 1.76 3 1.76 3-.82 3-1.76c0-.94-1.41-1.76-3-1.76v.01Zm0-5.65a1.76 1.76 0 1 0 1.77 1.76A1.758 1.758 0 0 0 12 7.92v.01Z"/>
</svg>
