<svg xmlns="http://www.w3.org/2000/svg" width="24" height="24" fill="currentColor" viewBox="0 0 24 24">
  <path d="M10.13 3a3.93 3.93 0 0 0-3.85 3.17h-3.5a.75.75 0 0 0-.78.74.76.76 0 0 0 .75.76h3.5A3.92 3.92 0 1 0 10.13 3Zm5.51 4.68a.75.75 0 0 1-.75-.75.73.73 0 0 1 .74-.75h5.59a.75.75 0 0 1 .75.74.76.76 0 0 1-.75.76h-5.58Zm5.58 8.63h-3.5a3.92 3.92 0 1 0 0 1.5h3.5a.75.75 0 0 0 .75-.75.76.76 0 0 0-.75-.75ZM8.36 17.83H2.78a.749.749 0 0 1-.78-.77.76.76 0 0 1 .75-.75h5.58a.73.73 0 0 1 .74.75.75.75 0 0 1-.71.77Z"/>
</svg>
