<svg xmlns="http://www.w3.org/2000/svg" width="24" height="25" fill="currentColor" viewBox="0 0 24 25">
  <path d="M8.75 22.65a2.67 2.67 0 0 1-1.3-.35l-1.63-.95a2.571 2.571 0 0 1-1.21-1.58 2.61 2.61 0 0 1 .26-2l.44-.75a8.495 8.495 0 0 1-.58-1h-.9a2.6 2.6 0 0 1-2.59-2.61V11.5A2.54 2.54 0 0 1 2 9.71a2.56 2.56 0 0 1 1.83-.75h.88a7.83 7.83 0 0 1 .59-1l-.44-.79a2.58 2.58 0 0 1 1-3.54l1.64-.94a2.6 2.6 0 0 1 3.54 1l.43.75a9.37 9.37 0 0 1 1.06 0l.47-.79a2.6 2.6 0 0 1 1.58-1.21 2.56 2.56 0 0 1 2 .26l1.63.94a2.6 2.6 0 0 1 .95 3.55l-.43.76c.225.317.426.652.6 1h.9a2.61 2.61 0 0 1 2.58 2.62v1.93a2.61 2.61 0 0 1-2.6 2.58h-.89a8.875 8.875 0 0 1-.55.94l.45.79a2.6 2.6 0 0 1-1 3.54l-1.64.94a2.591 2.591 0 0 1-3.54-1l-.44-.75a6.98 6.98 0 0 1-1.12 0l-.46.78a2.6 2.6 0 0 1-2.27 1.33ZM3.85 10.5c-.29 0-.57.11-.78.31a1.1 1.1 0 0 0-.32.78v1.88a1.1 1.1 0 0 0 1.08 1.03h1.38a.73.73 0 0 1 .69.46c.233.55.536 1.067.9 1.54a.78.78 0 0 1 .06.84l-.69 1.17a1.17 1.17 0 0 0-.11.84c.076.279.26.516.51.66l1.63.95a1.072 1.072 0 0 0 .84.11c.28-.078.52-.26.67-.51l.69-1.2a.77.77 0 0 1 .75-.37c.578.07 1.162.07 1.74 0a.73.73 0 0 1 .75.36l.68 1.18a1.1 1.1 0 0 0 1.5.41l1.63-.94a1.072 1.072 0 0 0 .52-.66 1.17 1.17 0 0 0-.11-.84l-.69-1.2a.76.76 0 0 1 0-.83 6.75 6.75 0 0 0 .87-1.48.7.7 0 0 1 .69-.47h1.36a1.12 1.12 0 0 0 1.16-1.02v-1.9a1.1 1.1 0 0 0-.32-.78 1.068 1.068 0 0 0-.77-.33h-1.37a.76.76 0 0 1-.69-.47 6.568 6.568 0 0 0-.91-1.52.76.76 0 0 1-.05-.84l.68-1.18a1.1 1.1 0 0 0-.41-1.5L15.78 4a1.05 1.05 0 0 0-.78-.11 1.12 1.12 0 0 0-.67.51l-.69 1.2a.75.75 0 0 1-.75.37 6.83 6.83 0 0 0-1.69 0 .74.74 0 0 1-.74-.37l-.72-1.19A1.11 1.11 0 0 0 8.24 4l-1.64.92a1.11 1.11 0 0 0-.42 1.5l.68 1.21a.74.74 0 0 1-.06.87 7 7 0 0 0-.9 1.5.74.74 0 0 1-.69.46H3.85v.04Zm8.15 6a4 4 0 1 1 0-8 4 4 0 0 1 0 8Zm0-6.5a2.5 2.5 0 1 0 0 5 2.5 2.5 0 0 0 0-5Z"/>
</svg>
