<svg xmlns="http://www.w3.org/2000/svg" width="24" height="24" fill="currentColor" viewBox="0 0 24 24">
  <path d="M20.18 9.24h-1.39a6.911 6.911 0 0 0-1-1.73l.68-1.18a1.86 1.86 0 0 0-.68-2.53l-1.63-.94a1.85 1.85 0 0 0-2.53.68l-.69 1.2a7.3 7.3 0 0 0-.94-.08 7.3 7.3 0 0 0-.94.07l-.67-1.19a1.85 1.85 0 0 0-2.52-.7l-1.64.93a1.85 1.85 0 0 0-.7 2.52l.68 1.21a7.3 7.3 0 0 0-1 1.71H3.86A1.83 1.83 0 0 0 2 11.05v1.88a1.85 1.85 0 0 0 1.84 1.86h1.37c.25.615.587 1.19 1 1.71l-.69 1.18a1.84 1.84 0 0 0 .68 2.52l1.63.95a1.85 1.85 0 0 0 2.53-.68l.69-1.2c.314.049.632.072.95.07a8.079 8.079 0 0 0 1-.07l.68 1.18a1.84 1.84 0 0 0 2.52.68l1.63-.94a1.84 1.84 0 0 0 .69-2.52l-.69-1.2a7.806 7.806 0 0 0 1-1.66h1.35A1.87 1.87 0 0 0 22 13v-1.89a1.85 1.85 0 0 0-1.82-1.87Z" opacity=".3"/>
  <path d="M11.99 15.25a3.25 3.25 0 1 0 0-6.5 3.25 3.25 0 0 0 0 6.5Z"/>
</svg>
