<svg xmlns="http://www.w3.org/2000/svg" width="24" height="25" fill="currentColor" viewBox="0 0 24 25">
  <path d="M16.87 23.25H7.13a5.89 5.89 0 0 1-5.88-5.88V7.63a5.88 5.88 0 0 1 5.88-5.87h9.74a5.87 5.87 0 0 1 5.87 5.87v9.74a5.88 5.88 0 0 1-5.87 5.88Zm-9.74-20a4.38 4.38 0 0 0-4.38 4.38v9.74a4.39 4.39 0 0 0 4.38 4.38h9.74a4.38 4.38 0 0 0 4.37-4.38V7.63a4.37 4.37 0 0 0-4.37-4.37l-9.74-.01Zm1.29 6.4a.76.76 0 0 0 .75-.75V6a.75.75 0 1 0-1.5 0v2.9a.76.76 0 0 0 .75.75Zm0 1.25a3.48 3.48 0 0 0-.75 6.87v1.24a.74.74 0 0 0 .75.74.76.76 0 0 0 .75-.75v-1.23a3.48 3.48 0 0 0-.75-6.87Zm0 5.46a2 2 0 1 1 0-4 2 2 0 0 1 0 4Zm7.16-1a.76.76 0 0 0-.75.75v2.9a.75.75 0 0 0 1.5 0V16.1a.76.76 0 0 0-.75-.75v.01Zm.75-8.12V6a.76.76 0 0 0-1.036-.697.74.74 0 0 0-.464.687v1.24a3.48 3.48 0 1 0 1.5 0v.01Zm-.75 5.37a2 2 0 1 1 2-2 2 2 0 0 1-2 1.99v.01Z"/>
</svg>
