<svg xmlns="http://www.w3.org/2000/svg" width="24" height="24" fill="currentColor" viewBox="0 0 24 24">
  <path d="M12.05 22a9.12 9.12 0 0 1-3.82-.83.77.77 0 0 1-.37-1 .76.76 0 0 1 1-.37 7.7 7.7 0 0 0 6.22.07.76.76 0 0 1 .61 1.39 9.09 9.09 0 0 1-3.64.74Zm8.41-9.25a.75.75 0 0 0 .67-.83 9.16 9.16 0 0 0-3.6-6.36.76.76 0 0 0-.91 1.21 7.66 7.66 0 0 1 3 5.3.76.76 0 0 0 .75.68h.09Zm-16-.68a7.64 7.64 0 0 1 3.13-5.38.76.76 0 1 0-.89-1.22A9.15 9.15 0 0 0 3 11.91a.75.75 0 0 0 .67.83h.08a.76.76 0 0 0 .72-.67h-.01Zm11.18-7.16a3.66 3.66 0 1 0-7.319-.02 3.66 3.66 0 0 0 7.319.02Zm-1.5 0a2.16 2.16 0 1 1-4.319 0 2.16 2.16 0 0 1 4.319 0Zm-5.49 12a3.66 3.66 0 1 0-1.068 2.535A3.66 3.66 0 0 0 8.65 16.86v.05Zm-1.5 0a2.16 2.16 0 1 1 0-.05v.05Zm15.51 0a3.66 3.66 0 1 0-1.072 2.538 3.66 3.66 0 0 0 1.072-2.588v.05Zm-1.5 0a2.161 2.161 0 1 1 0-.05v.05Z"/>
</svg>
