<svg xmlns="http://www.w3.org/2000/svg" width="24" height="25" fill="currentColor" viewBox="0 0 24 25">
  <path d="M12 23.25a4.14 4.14 0 0 1-2.63-.94l-4.59-3.75a4.12 4.12 0 0 1-1.52-3.21V8a4.15 4.15 0 0 1 2.42-3.77l4.59-2.1a4.1 4.1 0 0 1 3.46 0l4.59 2.1A4.15 4.15 0 0 1 20.74 8v7.35a4.12 4.12 0 0 1-1.52 3.21l-4.59 3.75a4.14 4.14 0 0 1-2.63.94Zm0-20a2.63 2.63 0 0 0-1.1.25L6.31 5.59A2.66 2.66 0 0 0 4.76 8v7.35a2.62 2.62 0 0 0 1 2l4.59 3.75a2.66 2.66 0 0 0 3.36 0l4.59-3.75a2.62 2.62 0 0 0 1-2V8a2.66 2.66 0 0 0-1.55-2.41L13.1 3.5a2.63 2.63 0 0 0-1.1-.25Zm-.8 11.82L15.38 11a.75.75 0 0 0-1.06-1.06l-3.63 3.56-1-1a.75.75 0 1 0-1.08 1l1.53 1.57a.759.759 0 0 0 .54.23.74.74 0 0 0 .52-.23Z"/>
</svg>
