<svg xmlns="http://www.w3.org/2000/svg" width="24" height="24" fill="currentColor" viewBox="0 0 24 24">
  <path d="m9.85 21.23-4.59-3.75A3.39 3.39 0 0 1 4 14.85V7.5a3.39 3.39 0 0 1 2-3.09l4.6-2.1a3.39 3.39 0 0 1 2.82 0L18 4.41a3.39 3.39 0 0 1 2 3.09v7.35a3.39 3.39 0 0 1-1.25 2.63l-4.59 3.75a3.38 3.38 0 0 1-4.31 0Z" opacity=".3"/>
  <path d="M14 14.7a.73.73 0 0 1-.52-.21l-4-3.91a.75.75 0 0 1 0-1.06.77.77 0 0 1 1.07 0l4 3.91a.75.75 0 0 1 0 1.06.757.757 0 0 1-.55.21Z"/>
  <path d="M10 14.7a.759.759 0 0 1-.54-.22.75.75 0 0 1 0-1.06l4-3.91a.75.75 0 1 1 1 1.07l-4 3.91a.77.77 0 0 1-.46.21Z"/>
</svg>
