<svg xmlns="http://www.w3.org/2000/svg" width="24" height="25" fill="currentColor" viewBox="0 0 24 25">
  <path d="M11.69 23.25a4.12 4.12 0 0 1-2.63-.94l-4.59-3.75A4.12 4.12 0 0 1 3 15.35V8a4.15 4.15 0 0 1 2.37-3.77L10 2.13a4.08 4.08 0 0 1 3.45 0L18 4.23A4.15 4.15 0 0 1 20.43 8v7.35a4.15 4.15 0 0 1-1.52 3.21l-4.6 3.75a4.09 4.09 0 0 1-2.62.94Zm0-20a2.71 2.71 0 0 0-1.11.25L6 5.59A2.65 2.65 0 0 0 4.45 8v7.35a2.62 2.62 0 0 0 1 2l4.55 3.8a2.65 2.65 0 0 0 3.35 0L18 17.4a2.62 2.62 0 0 0 1-2V8a2.66 2.66 0 0 0-1.55-2.41L12.79 3.5a2.66 2.66 0 0 0-1.1-.25Z"/>
</svg>
