<svg xmlns="http://www.w3.org/2000/svg" width="24" height="24" fill="currentColor" viewBox="0 0 24 24">
  <path d="M16.21 5H7.79A2.79 2.79 0 0 0 5 7.79v5.95a2.79 2.79 0 0 0 2.79 2.79h8.42A2.79 2.79 0 0 0 19 13.74V7.79A2.79 2.79 0 0 0 16.21 5Z" opacity=".3"/>
  <path d="M10.65 2h2.7a1.15 1.15 0 0 1 1.15 1.15V5h-5V3.15A1.15 1.15 0 0 1 10.65 2ZM14 22h-4a7.63 7.63 0 0 1-7.63-7.63 2.3 2.3 0 0 1 1.45-2.15l7.05-2.84a3.15 3.15 0 0 1 2.34 0l7 2.84a2.3 2.3 0 0 1 1.45 2.15A7.63 7.63 0 0 1 14 22Z"/>
</svg>
