<svg xmlns="http://www.w3.org/2000/svg" width="24" height="24" fill="currentColor" viewBox="0 0 24 24">
  <path d="M22.27 10.33c0-.1.06-.19.08-.29.047-.163.08-.33.1-.5v-.23a3.86 3.86 0 0 0 0-.76l-.38-3a4.74 4.74 0 0 0-1-2.41 4.87 4.87 0 0 0-3.81-1.85H7a4.9 4.9 0 0 0-4.85 4.33L1.8 8.78a3.56 3.56 0 0 0 0 .73v.22c.018.156.051.31.1.46.02.098.047.195.08.29 0 .11.09.21.14.32.05.11.08.21.14.31v6.14a5.51 5.51 0 0 0 5.5 5.5h8.69a5.5 5.5 0 0 0 5.5-5.5V11c.053-.095.097-.196.13-.3.072-.118.136-.242.19-.37Zm-5-7.61A3.4 3.4 0 0 1 19.92 4a3.34 3.34 0 0 1 .71 1.68l.38 3c.015.163.015.327 0 .49v.18c.005.09.005.18 0 .27 0 .08-.05.17-.09.26a.687.687 0 0 1-.05.13 2.005 2.005 0 0 1-.17.32c-.08.11-.15.22-.23.32a2.55 2.55 0 0 1-1.9.86A2.51 2.51 0 0 1 16 9.26l-.31-3.57-.25-3 1.83.03Zm-3.27 0V3l.51 6a2.35 2.35 0 0 1-.61 1.8 2.42 2.42 0 0 1-3.47 0 2.36 2.36 0 0 1-.64-1.77L10 4.87l.14-2.15H14ZM3.61 5.78A3.42 3.42 0 0 1 7 2.72h1.7l-.42 6.63a2.37 2.37 0 0 1-2.36 2.22h-.31a2.37 2.37 0 0 1-1.76-.79 1.788 1.788 0 0 1-.2-.28 2 2 0 0 1-.17-.32.36.36 0 0 1 0-.09 1.428 1.428 0 0 1-.09-.27 1.42 1.42 0 0 1 0-.22 1.25 1.25 0 0 1 0-.19 2.26 2.26 0 0 1 0-.45l.22-3.18Zm6.6 15.5v-2a2 2 0 0 1 4 0v2h-4Zm6.27 0h-.8v-2a3.47 3.47 0 0 0-6.94 0v2h-1a4 4 0 0 1-4-4v-4.75c.564.321 1.2.493 1.85.5h.31a3.84 3.84 0 0 0 3.1-1.6c.088.139.188.27.3.39a3.84 3.84 0 0 0 5.62 0c.112-.13.216-.267.31-.41a3.94 3.94 0 0 0 5.25 1.08v4.79a4 4 0 0 1-4 4Z"/>
</svg>
