<svg xmlns="http://www.w3.org/2000/svg" width="24" height="24" fill="currentColor" viewBox="0 0 24 24">
  <path d="M16.54 22.75H7.46a5.22 5.22 0 0 1-5.21-5.21V6.46a5.22 5.22 0 0 1 5.21-5.21h5.71A5.22 5.22 0 0 1 17.05 3l3.37 3.75a5.2 5.2 0 0 1 1.33 3.48v7.33a5.22 5.22 0 0 1-5.21 5.19Zm-9.08-20a3.71 3.71 0 0 0-3.71 3.71v11.08a3.71 3.71 0 0 0 3.71 3.71h9.08a3.71 3.71 0 0 0 3.71-3.71v-7.33a3.71 3.71 0 0 0-.95-2.48L15.93 4a3.72 3.72 0 0 0-2.76-1.23l-5.71-.02Zm6.46 6h-3.84a3.84 3.84 0 0 0-3.83 3.83v2.84a3.84 3.84 0 0 0 3.83 3.83h3.84a3.84 3.84 0 0 0 3.83-3.83v-2.84a3.84 3.84 0 0 0-3.83-3.83Zm2.33 3.83v.59h-3.5v-2.92h1.17a2.33 2.33 0 0 1 2.33 2.33Zm-6.17-2.33h1.17v2.92h-3.5v-.59a2.33 2.33 0 0 1 2.33-2.33Zm-2.33 5.17v-.75h3.5v3.08h-1.17a2.33 2.33 0 0 1-2.33-2.33Zm6.17 2.33h-1.17v-3.08h3.5v.75a2.33 2.33 0 0 1-2.33 2.33Z"/>
</svg>
