<svg xmlns="http://www.w3.org/2000/svg" width="24" height="24" fill="currentColor" viewBox="0 0 24 24">
  <path d="M14.81 2H9.19a4.35 4.35 0 0 0-4.35 4.35v11.3A4.35 4.35 0 0 0 9.19 22h5.62a4.35 4.35 0 0 0 4.35-4.35V6.35A4.35 4.35 0 0 0 14.81 2Z" opacity=".3"/>
  <path d="M2.75 20a.75.75 0 0 1-.75-.72V4.72a.75.75 0 0 1 1.5 0v14.56a.75.75 0 0 1-.75.72Zm18.5 0a.75.75 0 0 1-.75-.75V4.72a.75.75 0 1 1 1.5 0v14.56a.75.75 0 0 1-.75.72ZM4.84 15.69v2A4.35 4.35 0 0 0 9.21 22h5.58a4.35 4.35 0 0 0 4.37-4.33v-2l-14.32.02Z"/>
</svg>
