<svg xmlns="http://www.w3.org/2000/svg" width="24" height="24" fill="currentColor" viewBox="0 0 24 24">
  <path d="M17.74 21.25H6.26a5 5 0 0 1-5-5V7.76a5 5 0 0 1 5-5h11.48a5 5 0 0 1 5 5v8.48a5 5 0 0 1-5 5.01Zm-11.48-17a3.51 3.51 0 0 0-3.51 3.51v8.48a3.51 3.51 0 0 0 3.51 3.51h11.48a3.51 3.51 0 0 0 3.51-3.51V7.76a3.51 3.51 0 0 0-3.51-3.51H6.26Zm7.93 7.94 3.29-2.79a.77.77 0 0 0 .09-1.06.76.76 0 0 0-1.06-.08l-3.29 2.79a1.91 1.91 0 0 1-2.46 0l-3.38-2.8a.762.762 0 1 0-1 1.15l3.42 2.81a3.38 3.38 0 0 0 4.39 0v-.02Z"/>
</svg>
