<svg xmlns="http://www.w3.org/2000/svg" width="24" height="25" fill="currentColor" viewBox="0 0 24 25">
  <path d="M12 18.69a3.46 3.46 0 0 1-2-.61 2.22 2.22 0 0 0-1.23-.41h-.12a1.73 1.73 0 0 1-1.09-.32.91.91 0 0 1-.29-.53l-.27-.1-.41-.14c-.26-.11-.79-.31-.82-.89-.03-.58.58-.93.87-1.07a2.84 2.84 0 0 0 1-.85l.16-.19a1.47 1.47 0 0 0 .3-.58l-.22-.13-.27-.18a1.679 1.679 0 0 1-.83-1.07 1.06 1.06 0 0 1 .22-.86 1.14 1.14 0 0 1 1.27-.36v-.59a3.5 3.5 0 0 1 3.5-3.5h.44a3.5 3.5 0 0 1 3.49 3.5v.58a1.27 1.27 0 0 1 1 .17 1.12 1.12 0 0 1 .48.94c0 .73-.72 1.17-1.26 1.49l.18.39a3.34 3.34 0 0 0 1.5 1.31h.09a1 1 0 0 1 .59 1.08c-.06.36-.37.81-1.41 1h-.12a1.11 1.11 0 0 1-1.19.84 2.63 2.63 0 0 0-1.68.51 3.48 3.48 0 0 1-1.88.57Zm-3.32-2.53h.16a3.77 3.77 0 0 1 2.06.69 2 2 0 0 0 2.17 0 4 4 0 0 1 2.27-.73 1.21 1.21 0 0 1 .66-.62 3.999 3.999 0 0 1-1.26-1.46c-.33-.71-.67-1.44 0-2h-.09a1 1 0 0 1-.41-.86V9.81a2 2 0 0 0-2-2h-.44a2 2 0 0 0-2 2v1.9l-.37.29-.09.05a1 1 0 0 1 .34.74 3.08 3.08 0 0 1-.72 1.78l-.16.18a4.429 4.429 0 0 1-.8.75c.136.056.264.13.38.22.135.12.238.27.3.44ZM12 23.25A10.75 10.75 0 1 1 22.75 12.5 10.76 10.76 0 0 1 12 23.25Zm0-20a9.25 9.25 0 1 0 9.25 9.25A9.26 9.26 0 0 0 12 3.25Z"/>
</svg>
