<svg xmlns="http://www.w3.org/2000/svg" width="24" height="24" fill="currentColor" viewBox="0 0 24 24">
  <path d="M17.15 11.06A1.14 1.14 0 0 1 16 9.92V8a2 2 0 0 0-2-2H8a2 2 0 0 0-2 2v8a2 2 0 0 0 2 2h8a2 2 0 0 0 2-2v-4.1a.85.85 0 0 0-.85-.84ZM9.9 9.25H12a.75.75 0 1 1 0 1.5H9.9a.75.75 0 1 1 0-1.5Zm4 5.5H10a.75.75 0 1 1 0-1.5h3.94a.75.75 0 1 1 0 1.5h-.04Z"/>
  <path d="m16.02 1.973-8.14.044A5.96 5.96 0 0 0 1.954 8.01l.044 8.08a5.96 5.96 0 0 0 5.992 5.928l8.14-.044a5.96 5.96 0 0 0 5.927-5.992l-.043-8.08a5.96 5.96 0 0 0-5.992-5.928Z" opacity=".3"/>
</svg>
