<svg xmlns="http://www.w3.org/2000/svg" width="24" height="25" fill="currentColor" viewBox="0 0 24 25">
  <path d="M16 19.24H8a2.74 2.74 0 0 1-2.71-2.74v-8A2.74 2.74 0 0 1 8 5.76h6a2.74 2.74 0 0 1 2.75 2.74v1.92a.4.4 0 0 0 .39.39 1.6 1.6 0 0 1 1.6 1.6v4.09A2.74 2.74 0 0 1 16 19.24Zm-8-12A1.25 1.25 0 0 0 6.78 8.5v8A1.25 1.25 0 0 0 8 17.74h8a1.25 1.25 0 0 0 1.25-1.24v-4.09a.11.11 0 0 0-.11-.11 1.88 1.88 0 0 1-1.88-1.88V8.5A1.25 1.25 0 0 0 14 7.25l-6-.01Zm1.9 2.5H12a.75.75 0 1 1 0 1.5H9.92a.75.75 0 1 1 0-1.5H9.9Zm4 5.49H10a.75.75 0 1 1 0-1.49h3.92a.75.75 0 1 1 0 1.49h-.02ZM8 23.26a6.71 6.71 0 0 1-6.69-6.67L1.25 8.5A6.7 6.7 0 0 1 7.9 1.78h8.11a6.71 6.71 0 0 1 6.69 6.67v8.06a6.71 6.71 0 0 1-6.65 6.74L8 23.26Zm8.07-20H7.96A5.2 5.2 0 0 0 2.75 8.5v8.07A5.21 5.21 0 0 0 8 21.76l8.11-.05a5.19 5.19 0 0 0 5.17-5.21V8.43a5.19 5.19 0 0 0-5.19-5.17h-.02Z"/>
</svg>
