<svg xmlns="http://www.w3.org/2000/svg" width="24" height="25" fill="currentColor" viewBox="0 0 24 25">
  <path d="M9 17.25a4.719 4.719 0 1 1 2.54-8.68.5.5 0 0 1-.54.84 3.71 3.71 0 1 0-2 6.84 3.68 3.68 0 0 0 1.72-.43.504.504 0 0 1 .47.89 4.759 4.759 0 0 1-2.19.54Zm0-6.35a1.64 1.64 0 1 0 1.64 1.6A1.63 1.63 0 0 0 9 10.9Zm6.07-.79a.5.5 0 0 0-.7-.09l-.77.6v-.2a.5.5 0 1 0-1 0v4.46a.51.51 0 0 0 .5.5.5.5 0 0 0 .5-.5v-3l1.4-1.07a.5.5 0 0 0 .07-.7Zm4.72 3h-3.13A1.34 1.34 0 0 0 18 14.38h1.43a.5.5 0 0 1 0 1H18a2.45 2.45 0 0 1-2.34-2.73A2.56 2.56 0 0 1 18 9.92a2.56 2.56 0 0 1 2.34 2.73.5.5 0 0 1-.55.5v-.04Zm-.56-1A1.43 1.43 0 0 0 18 10.92a1.44 1.44 0 0 0-1.28 1.23l2.51-.04Zm3.48.35A10.71 10.71 0 1 0 12 23.21 10.72 10.72 0 0 0 22.71 12.5v-.04Zm-1.5 0A9.21 9.21 0 1 1 12 3.29a9.22 9.22 0 0 1 9.21 9.21v-.04Z"/>
</svg>
