<svg xmlns="http://www.w3.org/2000/svg" width="24" height="25" fill="currentColor" viewBox="0 0 24 25">
  <g clip-path="url(#a)">
    <path d="M7.8 24.4a2.782 2.782 0 0 1-2-.82l-.7-.7a2.801 2.801 0 0 1 0-4l5.5-5.5a1.302 1.302 0 0 0 0-1.84l-5.5-5.5a2.8 2.8 0 0 1 0-4l.7-.7a2.81 2.81 0 0 1 4 0l7 7 2.08 2.16a2.799 2.799 0 0 1 0 4l-9.1 9.1a2.781 2.781 0 0 1-1.98.8Zm0-22.3a1.29 1.29 0 0 0-.92.4l-.7.7a1.3 1.3 0 0 0 0 1.84l5.5 5.5a2.799 2.799 0 0 1 0 4l-5.5 5.5a1.3 1.3 0 0 0 0 1.84l.7.7a1.34 1.34 0 0 0 1.84 0l9.1-9.1a1.302 1.302 0 0 0 0-1.84L8.72 2.5a1.29 1.29 0 0 0-.92-.4Z"/>
  </g>
  <defs>
    <clipPath id="a">
      <path d="M0 .5h24v24H0z"/>
    </clipPath>
  </defs>
</svg>
