<svg xmlns="http://www.w3.org/2000/svg" width="24" height="25" fill="currentColor" viewBox="0 0 24 25">
  <path d="M18.41 1.75H5.59a4.35 4.35 0 0 0-4.34 4.34v12.82a4.35 4.35 0 0 0 4.34 4.34h12.82a4.35 4.35 0 0 0 4.34-4.34V6.09a4.35 4.35 0 0 0-4.34-4.34Zm-5.66 20V10.14a.45.45 0 0 1 .44-.45h1.31a.45.45 0 0 1 .44.45v11.61h-2.19Zm8.5-2.84a2.84 2.84 0 0 1-2.84 2.84h-2V10.14a1.94 1.94 0 0 0-1.91-1.95h-1.31a1.94 1.94 0 0 0-1.94 2v11.56H5.59a2.84 2.84 0 0 1-2.84-2.84V6.09a2.84 2.84 0 0 1 2.84-2.84h12.82a2.84 2.84 0 0 1 2.84 2.84v12.82Z"/>
</svg>
