<svg xmlns="http://www.w3.org/2000/svg" width="24" height="24" fill="currentColor" viewBox="0 0 24 24">
  <path d="M18.4 13.76h-3.86a4 4 0 0 1-3.92-4.22V5.6h-4A4.65 4.65 0 0 0 2 10.28v7A4.65 4.65 0 0 0 6.6 22h7.22a4.65 4.65 0 0 0 4.6-4.69v-3.55h-.02Z" opacity=".3"/>
  <path d="M18.4 12.5h-3.86a2.77 2.77 0 0 1-2.69-3V5.6l6.55 6.9ZM17.16 2h-6.58a4.8 4.8 0 0 0-4.14 2.41c.245-.04.492-.06.74-.06h7a5.23 5.23 0 0 1 5.22 5.28v7.18a5.327 5.327 0 0 1-.16 1.27A4.91 4.91 0 0 0 22 13.64V6.93A4.89 4.89 0 0 0 17.16 2Z"/>
</svg>
