<svg xmlns="http://www.w3.org/2000/svg" width="24" height="24" fill="currentColor" viewBox="0 0 24 24">
  <path d="M20.37 18.18a.69.69 0 0 1-.54-.25.71.71 0 0 1 .07-1 4.27 4.27 0 0 0 1.43-3.19V7a4.24 4.24 0 0 0-4.21-4.26h-6.69a4.12 4.12 0 0 0-2.86 1.11.7.7 0 0 1-1 0 .73.73 0 0 1 0-1 5.54 5.54 0 0 1 3.84-1.55h6.69A5.68 5.68 0 0 1 22.75 7v6.78A5.72 5.72 0 0 1 20.84 18a.73.73 0 0 1-.47.18Zm-1.37-.8a5.32 5.32 0 0 1-5.28 5.35H6.53a5.32 5.32 0 0 1-5.28-5.35v-6.94a5.32 5.32 0 0 1 5.28-5.35h5.26a.58.58 0 0 1 .18 0h.07a.9.9 0 0 1 .2.14l6.51 6.59a.73.73 0 0 1 .18.66c.005.04.005.08 0 .12l.07 4.78ZM12.45 9.7a2 2 0 0 0 2 2h2.12l-4.12-4.15V9.7Zm5.11 7.68v-4.26h-3.15A3.401 3.401 0 0 1 11 9.7V6.53H6.53a3.89 3.89 0 0 0-3.86 3.91v6.94a3.89 3.89 0 0 0 3.86 3.91h7.17a3.89 3.89 0 0 0 3.86-3.91Z"/>
</svg>
