<svg xmlns="http://www.w3.org/2000/svg" width="24" height="25" fill="currentColor" viewBox="0 0 24 25">
  <path d="M12.87 20.19c-.7 0-1.43 0-2.21-.11a.75.75 0 0 1-.68-.81.77.77 0 0 1 .82-.68c4.59.42 7.71-.48 9.25-2.66 2.19-3.09.88-8.06 0-10.45C18.43 7.83 16.26 8.83 10 9.71a4.67 4.67 0 0 0-3.58 2c-1 1.71-.54 4-.29 5a10.88 10.88 0 0 0 11.97-6.39.752.752 0 0 1 1.4.55 12.57 12.57 0 0 1-14 7.26.75.75 0 0 1-.58-.49c-.06-.15-1.39-3.89.28-6.68a6.08 6.08 0 0 1 4.62-2.73c7.08-1 8.24-2.05 9.77-4.78a.74.74 0 0 1 .69-.39.75.75 0 0 1 .65.44c.15.34 3.79 8.45.35 13.3-1.6 2.25-4.42 3.39-8.41 3.39Zm4.27 1.75a.748.748 0 0 0 .151-1.28.75.75 0 0 0-.871-.03 9.25 9.25 0 1 1 .16-16.13.75.75 0 0 0 .75-1.3 10.75 10.75 0 1 0-.19 18.78v-.04Z"/>
</svg>
