<svg xmlns="http://www.w3.org/2000/svg" width="24" height="24" fill="currentColor" viewBox="0 0 24 24">
  <path d="M14.83 22.75a2.14 2.14 0 0 1-1.36-.49 2.2 2.2 0 0 1-.81-1.72V15.6a3.17 3.17 0 0 1 3.13-3.21h4.79a2.15 2.15 0 0 1 1.66.79 2.251 2.251 0 0 1 .47 1.82 9.85 9.85 0 0 1-2.59 5 9.42 9.42 0 0 1-4.87 2.68 2 2 0 0 1-.42.07Zm1-8.86a1.67 1.67 0 0 0-1.63 1.71v4.94a.7.7 0 0 0 .51.689.65.65 0 0 0 .28.011A7.86 7.86 0 0 0 19 19a8.28 8.28 0 0 0 2.2-4.23.74.74 0 0 0-.16-.61.64.64 0 0 0-.5-.25l-4.71-.02ZM9.2 22.75a1.994 1.994 0 0 1-.43 0A9.41 9.41 0 0 1 3.89 20a9.79 9.79 0 0 1-2.6-5 2.21 2.21 0 0 1 1.217-2.432 2.17 2.17 0 0 1 .923-.208h4.8a3.18 3.18 0 0 1 3.14 3.21v4.94a2.21 2.21 0 0 1-.82 1.72 2.12 2.12 0 0 1-1.35.52Zm-5.77-8.86a.65.65 0 0 0-.51.25.74.74 0 0 0-.16.61A8.28 8.28 0 0 0 5 19a8 8 0 0 0 4.11 2.26.65.65 0 0 0 .53-.14.719.719 0 0 0 .27-.56V15.6a1.68 1.68 0 0 0-1.64-1.71H3.43Zm16.83-2.83H3.74a2.438 2.438 0 0 1-1.89-.87 1.91 1.91 0 0 1-.38-1.62c1-4.24 5.4-7.32 10.53-7.32 5.13 0 9.56 3.08 10.53 7.32a1.91 1.91 0 0 1-.38 1.62 2.43 2.43 0 0 1-1.89.87ZM12 2.75c-4.44 0-8.25 2.59-9.07 6.16a.41.41 0 0 0 .1.34.9.9 0 0 0 .71.31h16.52a.93.93 0 0 0 .74-.31.43.43 0 0 0 .09-.34c-.84-3.57-4.65-6.16-9.09-6.16Z"/>
</svg>
