<svg xmlns="http://www.w3.org/2000/svg" width="24" height="25" fill="currentColor" viewBox="0 0 24 25">
  <path d="M12 2.5a.76.76 0 0 0-.75.75V4.5a.75.75 0 1 0 1.5 0V3.27A.76.76 0 0 0 12 2.5Zm6.52 2.72a.79.79 0 0 0-.53.22l-.83.84a.75.75 0 0 0 1.06 1.06l.84-.84a.76.76 0 0 0 0-1.07.75.75 0 0 0-.53-.22l-.01.01Zm-13.05 0a.79.79 0 0 0-.53.22.77.77 0 0 0 0 1.06l.84.83a.75.75 0 0 0 1.06-1.06L6 5.44a.79.79 0 0 0-.54-.22h.01Zm15.76 6.53h-1.18a.75.75 0 0 0 0 1.5h1.18a.75.75 0 1 0 0-1.5ZM4 11.75H2.77a.75.75 0 1 0 0 1.5H4a.75.75 0 1 0 0-1.5Zm13.69 5.69a.741.741 0 0 0-.53.22.75.75 0 0 0 0 1.06l.83.83a.76.76 0 0 0 1.07 0 .75.75 0 0 0 0-1.06l-.84-.83a.74.74 0 0 0-.53-.22Zm-11.38 0a.74.74 0 0 0-.53.22l-.84.84a.75.75 0 0 0 .535 1.28.76.76 0 0 0 .535-.22l.83-.83a.75.75 0 0 0-.53-1.28v-.01ZM12 19.8a.75.75 0 0 0-.75.75v1.18a.75.75 0 1 0 1.5 0v-1.18a.75.75 0 0 0-.75-.75Zm0-11.63a4.32 4.32 0 1 1-4.32 4.33A4.33 4.33 0 0 1 12 8.17Zm0-1.5a5.82 5.82 0 1 0 5.82 5.83A5.83 5.83 0 0 0 12 6.67Z"/>
</svg>
