<svg xmlns="http://www.w3.org/2000/svg" width="24" height="24" fill="currentColor" viewBox="0 0 24 24">
  <path d="M12 4.7a.75.75 0 0 1-.75-.7V2.77a.75.75 0 1 1 1.5 0V4a.75.75 0 0 1-.75.7ZM12 22a.76.76 0 0 1-.75-.75v-1.2a.75.75 0 1 1 1.5 0v1.18A.76.76 0 0 1 12 22ZM6.31 7.06a.74.74 0 0 1-.53-.22L4.94 6A.76.76 0 1 1 6 4.94l.83.84a.75.75 0 0 1-.52 1.28Zm12.21 12.22a.79.79 0 0 1-.53-.22l-.83-.84a.75.75 0 1 1 1.06-1.06l.84.83a.77.77 0 0 1 0 1.07.79.79 0 0 1-.54.22ZM4 12.75H2.77a.75.75 0 1 1 0-1.5H4a.75.75 0 1 1 0 1.5Zm17.23 0h-1.18a.75.75 0 0 1 0-1.5h1.18a.75.75 0 1 1 0 1.5ZM5.48 19.28a.79.79 0 0 1-.54-.22.77.77 0 0 1 0-1.07l.84-.83a.75.75 0 1 1 1.06 1.06l-.84.84a.79.79 0 0 1-.52.22ZM17.69 7.06a.74.74 0 0 1-.53-.22.75.75 0 0 1 0-1.06l.84-.84A.76.76 0 1 1 19.06 6l-.84.83a.74.74 0 0 1-.53.23Z"/>
  <path d="M12 17.62a5.62 5.62 0 1 0 0-11.24 5.62 5.62 0 0 0 0 11.24Z" opacity=".3"/>
</svg>
