<svg xmlns="http://www.w3.org/2000/svg" width="24" height="24" fill="currentColor" viewBox="0 0 24 24">
  <path d="M18.08 2H5.92A2.92 2.92 0 0 0 3 4.87v11a2.92 2.92 0 0 0 2.92 2.92h1.14a2.191 2.191 0 0 1 1.63.71l1.7 1.84a2.23 2.23 0 0 0 3.23 0l1.81-1.9a2.21 2.21 0 0 1 1.6-.68h1A2.92 2.92 0 0 0 21 15.87v-11A2.92 2.92 0 0 0 18.08 2Z" opacity=".3"/>
  <path d="M10.33 14.32H7.56a1.341 1.341 0 0 1-1-2.23A8.257 8.257 0 0 1 7.85 11c.77-.6 1.73-1.35 1.73-2a.88.88 0 0 0-.24-.64.91.91 0 0 0-.66-.25.9.9 0 0 0-.9.9.75.75 0 1 1-1.5 0 2.4 2.4 0 1 1 4.8 0c0 1.36-1.23 2.31-2.31 3.15-.31.24-.61.47-.83.68h2.39a.75.75 0 0 1 0 1.5v-.02Zm5.61 0a.738.738 0 0 1-.74-.75v-.66h-2.28a1.16 1.16 0 0 1-1-.63 1.15 1.15 0 0 1 .08-1.21l2.64-3.83a1.18 1.18 0 0 1 1.32-.46 1.16 1.16 0 0 1 .82 1.13v3.5h.4a.75.75 0 0 1 0 1.5h-.41v.67a.749.749 0 0 1-.83.74Zm-2.4-2.91h1.66V8.96l-1.66 2.45Z"/>
</svg>
