<svg xmlns="http://www.w3.org/2000/svg" width="24" height="25" fill="currentColor" viewBox="0 0 24 25">
  <path d="M12 23.3a3 3 0 0 1-2.15-.95L8.14 20.5a1.47 1.47 0 0 0-1.07-.47H5.92a3.68 3.68 0 0 1-3.67-3.67v-11A3.68 3.68 0 0 1 5.92 1.7h12.16a3.68 3.68 0 0 1 3.67 3.67v11a3.68 3.68 0 0 1-3.67 3.67H17a1.47 1.47 0 0 0-1 .46l-1.81 1.89a3 3 0 0 1-2.19.91ZM5.92 3.2a2.17 2.17 0 0 0-2.17 2.17v11a2.17 2.17 0 0 0 2.17 2.13h1.15a3 3 0 0 1 2.17 1l1.7 1.84a1.45 1.45 0 0 0 1.06.46 1.69 1.69 0 0 0 1.08-.45l1.81-1.85a2.999 2.999 0 0 1 2.11-1h1a2.17 2.17 0 0 0 2.17-2.17v-11a2.17 2.17 0 0 0-2.09-2.13H5.92Zm4.41 11.62H7.56a1.34 1.34 0 0 1-1-2.23 8.257 8.257 0 0 1 1.29-1.09c.77-.6 1.73-1.35 1.73-2a.86.86 0 0 0-.24-.64.91.91 0 0 0-.66-.25.9.9 0 0 0-.9.9.75.75 0 1 1-1.5 0 2.43 2.43 0 0 1 4.13-1.71 2.43 2.43 0 0 1 .67 1.7c0 1.36-1.23 2.31-2.31 3.15-.31.24-.61.47-.83.68h2.39a.75.75 0 1 1 0 1.5v-.01Zm6.77-2.91h-.4v-3.5a1.16 1.16 0 0 0-.82-1.13 1.18 1.18 0 0 0-1.32.46L12 11.57a1.149 1.149 0 0 0-.07 1.21 1.16 1.16 0 0 0 1 .63h2.27v.66a.74.74 0 0 0 1.267.534.75.75 0 0 0 .223-.524v-.67h.41a.75.75 0 1 0 0-1.5Zm-1.9 0h-1.66l1.68-2.41-.02 2.41Z"/>
</svg>
