<svg xmlns="http://www.w3.org/2000/svg" width="24" height="24" fill="currentColor" viewBox="0 0 24 24">
  <path d="M6.06 11h11.76a4.82 4.82 0 0 0 0-9.63H6.06a4.82 4.82 0 0 0 0 9.63Zm0-8.15h11.76a3.34 3.34 0 1 1 0 6.67H6.06a3.34 3.34 0 0 1 0-6.67Zm9.58 3.34a1.85 1.85 0 0 1 2.562-1.718A1.86 1.86 0 0 1 19.35 6.19a1.86 1.86 0 0 1-3.71 0ZM8.28 17.56c.01.127.01.254 0 .38a1.86 1.86 0 0 1-3.71 0 1.58 1.58 0 0 1 0-.38 1.85 1.85 0 0 1 3.63 0h.08Zm9.54-4.44H6.06a4.82 4.82 0 0 0 0 9.63h11.76a4.82 4.82 0 0 0 0-9.63Zm0 8.15H6.06a3.34 3.34 0 0 1 0-6.67h11.76a3.34 3.34 0 1 1 0 6.67Z"/>
</svg>
