<svg xmlns="http://www.w3.org/2000/svg" width="24" height="25" fill="currentColor" viewBox="0 0 24 25">
  <path d="m21.26 8.29-1.11-1.13-1.49-1.49-2.43-2.45a.75.75 0 0 0-1.06 1.06l.61.61-1.69 1.69-1.55-1.55a1.75 1.75 0 1 0-2.47 2.47l.16.16-5.06 5.07a2.16 2.16 0 0 0-.53 2.22l.61 1.83-3.49 3.48a1.76 1.76 0 0 0 0 2.48 1.76 1.76 0 0 0 2.48 0l3.48-3.49 1.83.61a2.16 2.16 0 0 0 2.22-.53l5.06-5.06.16.16a1.8 1.8 0 0 0 2.48 0 1.75 1.75 0 0 0 0-2.47l-1.55-1.55 1.67-1.67.61.6a.75.75 0 0 0 .53.23.79.79 0 0 0 .53-.22.75.75 0 0 0 0-1.06Zm-2.85 5.08a.208.208 0 0 1-.18.102.21.21 0 0 1-.18-.102l-.69-.69a.75.75 0 0 0-1.06 0l-5.6 5.59a.66.66 0 0 1-.68.16l-2.26-.75a.75.75 0 0 0-.77.18l-3.81 3.82a.22.22 0 0 1-.36 0 .27.27 0 0 1 0-.36l3.82-3.82a.75.75 0 0 0 .18-.77l-.75-2.23a.66.66 0 0 1 .16-.69l5.59-5.61a.74.74 0 0 0 0-1.06l-.69-.64a.27.27 0 0 1 0-.36.24.24 0 0 1 .18-.07.22.22 0 0 1 .17.07l6.93 6.93a.26.26 0 0 1 0 .3Zm-1.55-4-1.71-1.73 1.68-1.68.76.76.95 1-1.68 1.65Z"/>
</svg>
