<svg xmlns="http://www.w3.org/2000/svg" width="24" height="24" fill="currentColor" viewBox="0 0 24 24">
  <path d="M16.06 2.06H7.94A5.94 5.94 0 0 0 2 8v8.03a5.94 5.94 0 0 0 5.94 5.94h8.12A5.94 5.94 0 0 0 22 16.03V8a5.94 5.94 0 0 0-5.94-5.94Z" opacity=".3"/>
  <path d="M17.18 8.48 16.59 8a1 1 0 0 0-1.21 0l-.58.48a1 1 0 0 1-1.58-.77V2.07a1 1 0 0 1 1-1h3.59a1 1 0 0 1 1 1v5.64a1 1 0 0 1-1.63.77ZM13.86 12a.759.759 0 0 0-.76-.77H8a.76.76 0 0 0-.76.77.77.77 0 0 0 .76.78h5.1a.77.77 0 0 0 .76-.78Zm2.32 3.93a.78.78 0 0 0-.77-.78H7.33a.78.78 0 0 0 0 1.56h8.08a.78.78 0 0 0 .77-.77v-.01Z"/>
</svg>
