<svg xmlns="http://www.w3.org/2000/svg" width="24" height="24" fill="currentColor" viewBox="0 0 24 24">
  <path d="M15.73 22.72H8.27a6.21 6.21 0 0 1-6.2-6.21v-7.4A6.17 6.17 0 0 1 6 3.33a.76.76 0 0 1 1 .43.75.75 0 0 1-.42 1 4.67 4.67 0 0 0-3 4.38v7.4a4.72 4.72 0 0 0 4.7 4.71h7.46a4.71 4.71 0 0 0 4.7-4.71V9.12a4.68 4.68 0 0 0-3-4.39.75.75 0 1 1 .56-1.39 6.16 6.16 0 0 1 3.94 5.78v7.39a6.201 6.201 0 0 1-6.2 6.21h-.01ZM16.57 4V3a1.74 1.74 0 0 0-1.73-1.73H9.16A1.74 1.74 0 0 0 7.43 3v1a1.74 1.74 0 0 0 1.73 1.74h5.68A1.74 1.74 0 0 0 16.57 4Zm-1.73-1.22a.23.23 0 0 1 .23.23V4a.23.23 0 0 1-.23.23H9.16A.23.23 0 0 1 8.93 4V3a.23.23 0 0 1 .23-.23l5.68.01Zm-.15 14.32a.761.761 0 0 0 .6-.29.75.75 0 0 0-.14-1L11 12.54l2.23-.54a.75.75 0 0 0-.16-1.48.55.55 0 0 0-.18 0l-3.75.92h-.15a.77.77 0 0 0-.42.68v4a.71.71 0 0 0 .75.73.72.72 0 0 0 .75-.73v-2.41l4.18 3.23a.69.69 0 0 0 .45.16h-.01Z"/>
</svg>
