<svg xmlns="http://www.w3.org/2000/svg" width="24" height="24" fill="currentColor" viewBox="0 0 24 24">
  <path d="M16.92 22.75H7.08a3.84 3.84 0 0 1-3.83-3.83V5.08a3.84 3.84 0 0 1 3.83-3.83h9.84a3.84 3.84 0 0 1 3.83 3.83v13.84a3.84 3.84 0 0 1-3.83 3.83Zm-9.84-20a2.34 2.34 0 0 0-2.33 2.33v13.84a2.34 2.34 0 0 0 2.33 2.33h9.84a2.34 2.34 0 0 0 2.33-2.33V5.08a2.34 2.34 0 0 0-2.33-2.33H7.08Zm7.61 2.75a.76.76 0 0 0-.75-.75h-3.88a.75.75 0 0 0 0 1.5h3.88a.76.76 0 0 0 .75-.75ZM12 20.05a2.5 2.5 0 1 1 0-5 2.5 2.5 0 0 1 0 5Zm0-3.5a1 1 0 1 0 0 2 1 1 0 0 0 0-2Z"/>
</svg>
