<svg xmlns="http://www.w3.org/2000/svg" width="24" height="25" fill="currentColor" viewBox="0 0 24 25">
  <path d="M14.18 7.8H9.63a2.43 2.43 0 0 0-2.43 2.42v4.56a2.43 2.43 0 0 0 2.43 2.42h4.55a2.43 2.43 0 0 0 2.43-2.42v-4.56a2.43 2.43 0 0 0-2.43-2.42Zm.77 7a.77.77 0 0 1-.77.76H9.63a.77.77 0 0 1-.77-.76v-4.58a.77.77 0 0 1 .77-.72h4.55a.77.77 0 0 1 .77.76v4.54Zm7-.89h-1.52v-2.8h1.49a.83.83 0 1 0 0-1.66h-1.49V8.06a4 4 0 0 0-4-4h-1.38V2.58a.83.83 0 1 0-1.66 0V4.1h-2.78V2.58a.83.83 0 0 0-1.61 0V4.1H7.53a4 4 0 0 0-4 4v1.4H2.08a.83.83 0 0 0 0 1.66h1.49v2.78H2.08a.83.83 0 1 0 0 1.66h1.49V17a4 4 0 0 0 4 4H9v1.46a.83.83 0 0 0 1.66 0v-1.5h2.78v1.46a.83.83 0 1 0 1.66 0v-1.46h1.42a4 4 0 0 0 4-4v-1.41h1.49a.83.83 0 1 0 0-1.66l-.06.02ZM18.77 17a2.31 2.31 0 0 1-2.3 2.3H7.53a2.31 2.31 0 0 1-2.3-2.3V8.06a2.3 2.3 0 0 1 2.3-2.3h8.94a2.3 2.3 0 0 1 2.3 2.3V17Z"/>
</svg>
