<svg xmlns="http://www.w3.org/2000/svg" width="24" height="25" fill="currentColor" viewBox="0 0 24 25">
  <path d="M13.89 20.19v2.31a.73.73 0 0 1-.73.72h-1.65a2 2 0 0 1-2.06-2v-.62a7.936 7.936 0 0 1-.85-.34l-.44.43a2.12 2.12 0 0 1-2.91 0L4.06 19.5a2 2 0 0 1 0-2.87l.44-.43c-.13-.28-.25-.56-.35-.84h-.62a2.06 2.06 0 0 1-2.06-2v-1.69a2.06 2.06 0 0 1 2.06-2h.62c.1-.28.22-.56.35-.84l-.44-.43a2 2 0 0 1 0-2.9l1.19-1.19a2.12 2.12 0 0 1 2.91 0l.44.43c.277-.13.56-.243.85-.34v-.62a2 2 0 0 1 2.06-2h1.65a.73.73 0 0 1 .73.72v2.38a.722.722 0 0 1-.73.71.71.71 0 0 1-.72-.71v-1.7h-.93a.6.6 0 0 0-.61.6v1.14a.73.73 0 0 1-.53.69 7.3 7.3 0 0 0-1.55.63.73.73 0 0 1-.82-.12l-.81-.8a.64.64 0 0 0-.86 0L5.09 6.5a.59.59 0 0 0 0 .85l.81.8a.71.71 0 0 1 .1.86 6.58 6.58 0 0 0-.64 1.54.74.74 0 0 1-.7.52H3.53a.6.6 0 0 0-.61.6v1.66a.6.6 0 0 0 .61.6h1.15a.74.74 0 0 1 .7.52c.14.538.35 1.055.62 1.54a.71.71 0 0 1-.12.86l-.81.8a.589.589 0 0 0 0 .85l1.19 1.18a.64.64 0 0 0 .86 0l.81-.8a.73.73 0 0 1 .87-.12 7.3 7.3 0 0 0 1.55.63.73.73 0 0 1 .53.69v1.14a.6.6 0 0 0 .61.6h.93v-1.63a.71.71 0 0 1 .72-.71.721.721 0 0 1 .75.71Zm8.5-8a2.29 2.29 0 0 1-4.39.86.54.54 0 0 1-.22.05h-2.46a2.26 2.26 0 1 1 0-1.43h2.57a2.28 2.28 0 0 1 4.5.5v.02Zm-8.39.18a.83.83 0 0 0-.84-.82.83.83 0 1 0 0 1.65.84.84 0 0 0 .84-.83Zm6.94-.19a.83.83 0 1 0-1.66-.02.83.83 0 0 0 1.66.02Zm1.59 7.32a2.42 2.42 0 0 1-4.84 0c.003-.206.033-.411.09-.61l-2.1-1.83H12.5a4.72 4.72 0 1 1 0-9.43h2.89l2.44-2a2.367 2.367 0 0 1-.14-.75 2.42 2.42 0 1 1 4.84 0 2.42 2.42 0 0 1-2.42 2.39 2.37 2.37 0 0 1-1.43-.48l-2.56 2.12a.71.71 0 0 1-.46.17H12.5a3.28 3.28 0 1 0 0 6.55H16a.79.79 0 0 1 .48.18l2.13 1.87a2.38 2.38 0 0 1 1.54-.56 2.41 2.41 0 0 1 2.38 2.38ZM19.14 4.85a1 1 0 1 0 2 0 1 1 0 0 0-2 0Zm1.94 14.65a1 1 0 1 0-1.998-.1 1 1 0 0 0 1.998.1Z"/>
</svg>
