<svg xmlns="http://www.w3.org/2000/svg" width="24" height="25" fill="currentColor" viewBox="0 0 24 25">
  <path d="M19 13.56h-.3a8.06 8.06 0 0 0-5.3 4.16l-.76 1.94v-4h.05l1.59-.8a1.65 1.65 0 0 0 .92-1.49V11.6a1.499 1.499 0 0 0-.1-.56 5.19 5.19 0 1 0-6.33 0c-.06.18-.091.37-.09.56v1.8a1.65 1.65 0 0 0 .92 1.49l1.59.8v3.17l-.44-1.12a8.058 8.058 0 0 0-5.3-4.16 1.622 1.622 0 0 0-.31 0 1.381 1.381 0 0 0-1.32 1.67 8.06 8.06 0 0 0 6.93 6.14h.44v1.15a.7.7 0 0 0 1.4 0v-1.12l.76-.05a8.06 8.06 0 0 0 6.93-6.14A1.378 1.378 0 0 0 19 13.56ZM5.19 14.97a6.64 6.64 0 0 1 4.3 3.35l.59 1.51a6.65 6.65 0 0 1-4.89-4.86Zm2.92-8a3.79 3.79 0 1 1 .28 1.43 3.79 3.79 0 0 1-.28-1.46v.03Zm2.07 6.7a.28.28 0 0 1-.18-.27v-1.62a5.17 5.17 0 0 0 3.74 0v1.62a.28.28 0 0 1-.15.24l-1.6.8a.25.25 0 0 1-.24 0l-1.57-.77ZM14 19.83l.59-1.51a6.65 6.65 0 0 1 4.29-3.35A6.67 6.67 0 0 1 14 19.83Z"/>
</svg>
