<svg xmlns="http://www.w3.org/2000/svg" width="24" height="25" fill="currentColor" viewBox="0 0 24 25">
  <path d="M17.5 23.25a5.24 5.24 0 0 1-5.16-4.3 5.006 5.006 0 0 1-.09-.95.75.75 0 1 1 1.5 0c0 .228.02.456.06.68a3.75 3.75 0 1 0 4.52-4.34 3.864 3.864 0 0 0-.83-.09.75.75 0 1 1 0-1.5 5.25 5.25 0 0 1 0 10.5Zm-11 0a5.25 5.25 0 0 1-1.09-10.39 5.675 5.675 0 0 1 1.09-.11.75.75 0 1 1 0 1.5 4.128 4.128 0 0 0-.78.08A3.75 3.75 0 1 0 10.25 18a.75.75 0 1 1 1.5 0c0 .319-.03.637-.09.95a5.24 5.24 0 0 1-5.16 4.3Zm11-11a.75.75 0 1 1 0-1.5 3.75 3.75 0 1 0-3.75-3.76.75.75 0 1 1-1.5 0c0-.383.04-.765.12-1.14a5.25 5.25 0 1 1 6.19 6.28 5.367 5.367 0 0 1-1.06.12Zm-11 0a5.25 5.25 0 1 1 0-10.5 5.29 5.29 0 0 1 5.13 4.11c.08.375.12.757.12 1.14a.75.75 0 1 1-1.5 0 3.75 3.75 0 1 0-4.53 3.68c.257.051.518.078.78.08a.75.75 0 1 1 0 1.5v-.01Zm11 8a2.25 2.25 0 0 1-2.24-2l-.47-.48a3.12 3.12 0 0 0-1.79-.93 7.892 7.892 0 0 0-2.06 0 3.12 3.12 0 0 0-1.76.92l-.47.48a2.25 2.25 0 1 1-2.48-2.48l.48-.47a3.12 3.12 0 0 0 .95-1.79 7.89 7.89 0 0 0 0-2.06 3.12 3.12 0 0 0-.92-1.76l-.48-.47a2.25 2.25 0 1 1 2.48-2.45l.47.48a3.12 3.12 0 0 0 1.79.92 7.89 7.89 0 0 0 2.06 0 3.12 3.12 0 0 0 1.76-.92l.47-.48a2.25 2.25 0 1 1 2.48 2.48l-.48.47a3.15 3.15 0 0 0-.95 1.79 7.892 7.892 0 0 0 0 2.06c.107.671.43 1.29.92 1.76l.48.47a2.25 2.25 0 0 1-.24 4.49v-.03Zm-5.5-5c.411.002.822.028 1.23.08a4.68 4.68 0 0 1 2.62 1.35l.69.69a.78.78 0 0 1 .22.56v.11a.75.75 0 1 0 .75-.81h-.11a.75.75 0 0 1-.53-.22l-.69-.69a4.68 4.68 0 0 1-1.35-2.62c-.1-.813-.1-1.636 0-2.45a4.71 4.71 0 0 1 1.37-2.6l.69-.69a.74.74 0 0 1 .56-.22h.12a.75.75 0 0 0 .68-.75.75.75 0 1 0-1.5 0 .841.841 0 0 1-.21.61l-.69.69a4.65 4.65 0 0 1-2.62 1.35c-.817.1-1.643.1-2.46 0A4.68 4.68 0 0 1 8.15 8.3l-.69-.69a.78.78 0 0 1-.22-.56v-.11a.75.75 0 0 0-1.5.06.77.77 0 0 0 .78.75.86.86 0 0 1 .58.21l.69.69a4.68 4.68 0 0 1 1.35 2.62 10 10 0 0 1 0 2.45 4.71 4.71 0 0 1-1.34 2.63l-.69.69a.79.79 0 0 1-.56.22h-.12a.75.75 0 0 0-.46 1.28.75.75 0 0 0 1.28-.53.84.84 0 0 1 .21-.61l.69-.69a4.65 4.65 0 0 1 2.62-1.35c.408-.055.819-.085 1.23-.09v-.02Z"/>
</svg>
