<svg xmlns="http://www.w3.org/2000/svg" width="24" height="24" fill="currentColor" viewBox="0 0 24 24">
  <path d="M16.05 2h-8.1A5.95 5.95 0 0 0 2 7.95v8.1A5.95 5.95 0 0 0 7.95 22h8.1A5.95 5.95 0 0 0 22 16.05v-8.1A5.95 5.95 0 0 0 16.05 2Z" opacity=".3"/>
  <path d="M12.79 12.45H8a.75.75 0 0 1-.75-.75V7.18A.75.75 0 0 1 8 6.43h4.77a3 3 0 0 1 0 6l.02.02Zm-4-1.5h4a1.51 1.51 0 0 0 0-3h-4v3Z"/>
  <path d="M13.42 17.57H8a.75.75 0 0 1-.75-.75V11.7A.74.74 0 0 1 8 11h5.4a3.31 3.31 0 1 1 0 6.62l.02-.05Zm-4.65-1.5h4.65a1.81 1.81 0 0 0 0-3.62H8.77v3.62Z"/>
</svg>
