<svg xmlns="http://www.w3.org/2000/svg" width="24" height="25" fill="currentColor" viewBox="0 0 24 25">
  <path d="M20.53 6.96H9.16a.75.75 0 0 1 0-1.5h11.37a.75.75 0 0 1 0 1.5Zm-4.42 4.25a.741.741 0 0 0-.75-.75h-6.2a.75.75 0 0 0 0 1.5h6.2a.75.75 0 0 0 .75-.75Zm5.17 5a.75.75 0 0 0-.75-.75H9.16a.75.75 0 0 0 0 1.5h11.37a.76.76 0 0 0 .75-.75Zm-5.17 5a.741.741 0 0 0-.75-.75h-6.2a.75.75 0 0 0 0 1.5h6.2a.75.75 0 0 0 .75-.75ZM5.91 8.62V3.79a.76.76 0 0 0-.51-.71.75.75 0 0 0-.83.25L2.88 5.5a.74.74 0 0 0 .12 1 .75.75 0 0 0 1-.12l.35-.44v2.68a.75.75 0 0 0 1.5 0h.06Zm1 10a.75.75 0 0 0-.75-.75h-1l1.43-2.41a.76.76 0 0 0 .11-.38 2 2 0 1 0-3.91 0 .75.75 0 1 0 1.5 0 .45.45 0 0 1 .88-.16l-2 3.32a.75.75 0 0 0 .279 1.029.76.76 0 0 0 .381.1h2.28a.74.74 0 0 0 .75-.79l.05.04Z"/>
</svg>
