<svg xmlns="http://www.w3.org/2000/svg" width="24" height="25" fill="currentColor" viewBox="0 0 24 25">
  <path d="M16.05 23.25H8a6.71 6.71 0 0 1-6.7-6.7V8.5A6.71 6.71 0 0 1 8 1.75h8.1a6.71 6.71 0 0 1 6.65 6.75v8.1a6.71 6.71 0 0 1-6.7 6.65ZM8 3.25A5.21 5.21 0 0 0 2.75 8.5v8.1A5.21 5.21 0 0 0 8 21.75h8.1a5.21 5.21 0 0 0 5.2-5.2V8.5a5.21 5.21 0 0 0-5.2-5.2L8 3.25Zm8.34 15.07a.74.74 0 0 0-.75-.75H8.46a.75.75 0 1 0 0 1.5h7.08a.75.75 0 0 0 .75-.75h.05Zm0-6.71V6.68a.75.75 0 1 0-1.5 0v4.93A3 3 0 0 1 12 14.69a3 3 0 0 1-2.79-3.08V6.68a.75.75 0 0 0-1.5 0v4.93A4.44 4.44 0 0 0 12 16.19a4.44 4.44 0 0 0 4.29-4.58h.05Z"/>
</svg>
