<svg xmlns="http://www.w3.org/2000/svg" width="24" height="25" fill="currentColor" viewBox="0 0 24 25">
  <path d="M18 7.89 16.59 6.5a1.75 1.75 0 0 0-2.47 0l-2.84 2.81a1.738 1.738 0 0 0 0 2.48l1.42 1.42a1.75 1.75 0 0 0 2.47 0L18 10.37a1.76 1.76 0 0 0 0-2.48Zm-1 1.42-2.85 2.84c-.12.13-.22.13-.35 0l-1.42-1.42a.25.25 0 0 1-.08-.18.24.24 0 0 1 .08-.18l2.8-2.87a.24.24 0 0 1 .18 0 .23.23 0 0 1 .17.07L17 8.95a.27.27 0 0 1 0 .36Zm5.41-3.4a11.06 11.06 0 0 0-3.8-3.8 2.75 2.75 0 0 0-3.38.46l-.36.35-4 4a10.19 10.19 0 0 0-1.78 2.29l-2.26 4.07a8.564 8.564 0 0 1-1.45 1.93L4.19 16.4l-2.13 2.1a2.784 2.784 0 0 0 .908 4.537A2.782 2.782 0 0 0 6 22.43l2.08-2.13 1.19-1.19a9.427 9.427 0 0 1 1.93-1.46l4.07-2.26a10.11 10.11 0 0 0 2.26-1.7l4-4 .35-.35a2.82 2.82 0 0 0 .72-1.2 2.75 2.75 0 0 0-.23-2.23h.04Zm-1.29.77c.066.115.113.24.14.37.005.04.005.08 0 .12.01.09.01.18 0 .27a.78.78 0 0 1 0 .14 2.228 2.228 0 0 1-.08.24.824.824 0 0 1-.07.13.467.467 0 0 1-.06.09l-4.6-4.54.18-.12h.09c.14-.06.289-.09.44-.09a.74.74 0 0 1 .21 0h.12a1.2 1.2 0 0 1 .31.13 9.37 9.37 0 0 1 3.28 3.26h.04ZM4.9 21.37a1.3 1.3 0 0 1-1.78 0 1.26 1.26 0 0 1 0-1.78l1.6-1.6 1.77 1.78-1.59 1.6Zm11.57-8.74a8.564 8.564 0 0 1-1.93 1.45l-4.06 2.26c-.83.464-1.594 1.04-2.27 1.71l-.66.66-1.77-1.78.66-.66a10.11 10.11 0 0 0 1.7-2.26l2.26-4.07a8.915 8.915 0 0 1 1.46-1.93l3.5-3.51L20 9.13l-3.53 3.5Z"/>
</svg>
