<svg xmlns="http://www.w3.org/2000/svg" width="24" height="25" fill="currentColor" viewBox="0 0 24 25">
  <path d="M9.62 23.25a7 7 0 0 1-3.91-1.18A7.09 7.09 0 0 1 8.78 9.13h.61a1.88 1.88 0 0 1 1.82 1.46c.037.117.057.238.06.36v1.33a1.81 1.81 0 0 1-1.73 1.81 2.16 2.16 0 0 0-2 2.1 2.1 2.1 0 0 0 1.11 1.86l.14.08c.273.11.565.168.86.17a2.11 2.11 0 0 0 2.11-2.1V3.57a1.82 1.82 0 0 1 1.82-1.82h1.35a2 2 0 0 1 1.84 1.39c.025.065.045.132.06.2a4 4 0 0 0 1.78 2.58c.398.265.837.461 1.3.58a1.9 1.9 0 0 1 1.47 1.34c.06.167.09.343.09.52v1.31a1.77 1.77 0 0 1-2 1.75 8.997 8.997 0 0 1-2.76-.85v5.37a7.24 7.24 0 0 1-6.48 7.28l-.61.03Zm-.19-12.6a3.484 3.484 0 0 0-.49 0 5.53 5.53 0 0 0-2.4 10.08 5.58 5.58 0 0 0 3.56.91 5.68 5.68 0 0 0 5.05-5.73V7.68l1.23.88a7.41 7.41 0 0 0 3.3 1.31.17.17 0 0 0 .16 0 .18.18 0 0 0 .07-.15V8.23a.36.36 0 0 0-.28-.25 5.33 5.33 0 0 1-1.79-.71 5.62 5.62 0 0 1-2.54-3.55v-.1a.38.38 0 0 0-.35-.31h-1.41a.25.25 0 0 0-.26.26v12.59a3.68 3.68 0 0 1-3.67 3.66A3.62 3.62 0 0 1 8 19.5h-.07a3.67 3.67 0 0 1-2-3.28 3.73 3.73 0 0 1 3.53-3.72.26.26 0 0 0 .25-.26v-1.33c-.05-.15-.14-.26-.28-.26Z"/>
</svg>
