<svg xmlns="http://www.w3.org/2000/svg" width="24" height="24" fill="currentColor" viewBox="0 0 24 24">
  <path d="M6.11 20.19A6.08 6.08 0 0 1 8.73 9.1a3.94 3.94 0 0 1 .52 0 1 1 0 0 1 1 .8 3.999 3.999 0 0 0-.53 0 6 6 0 0 0-4.44 2.86 6.12 6.12 0 0 0-.91 3.17 6 6 0 0 0 1.74 4.26Zm12.52-13.5c.444.276.93.475 1.44.59a1.11 1.11 0 0 0-.85-.77 4.48 4.48 0 0 1-1.48-.58c.263.29.562.546.89.76ZM9.16 18.4a2.79 2.79 0 0 0 4-2.47V3.8a1 1 0 0 1 1-1h1.4a1.13 1.13 0 0 0-1.03-.8h-1.3a1 1 0 0 0-1 1v12.13a2.78 2.78 0 0 1-2.78 2.76 2.7 2.7 0 0 1-1.24-.29c.253.334.578.607.95.8Zm8.51-12.51h.07a4.65 4.65 0 0 1-1.15-2.19 1.11 1.11 0 0 0-1-.92v.12a4.58 4.58 0 0 0 2.08 2.99Zm-7.38 5.47a1 1 0 0 1-.95 1 2.83 2.83 0 0 0-2.67 2.77A2.78 2.78 0 0 0 8.2 17.6a2.76 2.76 0 0 1-.58-1.68 2.83 2.83 0 0 1 2.67-2.77 1 1 0 0 0 1-1v-1.28a1 1 0 0 0-1-1 .67.67 0 0 1 0 .2v1.29Zm9.89-4h-.11c.028.094.045.192.05.29v1.3a1 1 0 0 1-1.07.94 7.69 7.69 0 0 1-3.51-1.39v6.49A6.23 6.23 0 0 1 10 21.18a6 6 0 0 1-3.87-1c.258.305.55.58.87.82a6 6 0 0 0 3.9 1 6.22 6.22 0 0 0 5.56-6.27V9.22A7.73 7.73 0 0 0 20 10.61a.94.94 0 0 0 1.07-.94v-1.3a1.08 1.08 0 0 0-.89-1.06v.05Z" opacity=".3"/>
  <path d="M15.54 14.91V8.42a7.69 7.69 0 0 0 3.51 1.39 1 1 0 0 0 1.07-.94v-1.3a1.252 1.252 0 0 0-.05-.29 4.66 4.66 0 0 1-1.44-.59 4.589 4.589 0 0 1-.89-.76h-.07a4.58 4.58 0 0 1-2-2.95v-.12h-1.4a1 1 0 0 0-1 1v12.07a2.792 2.792 0 0 1-4 2.47 2.821 2.821 0 0 1-.95-.8 2.78 2.78 0 0 1-1.53-2.48 2.83 2.83 0 0 1 2.67-2.77 1 1 0 0 0 .95-1v-1.28a.713.713 0 0 0 0-.2 4.002 4.002 0 0 0-.53 0 6 6 0 0 0-4.44 2.86 6.12 6.12 0 0 0-.91 3.17 6 6 0 0 0 1.77 4.26 6 6 0 0 0 3.87 1 6.23 6.23 0 0 0 5.37-6.25Z"/>
</svg>
