<svg xmlns="http://www.w3.org/2000/svg" width="24" height="25" fill="currentColor" viewBox="0 0 24 25">
  <path d="M17.83 21.44H6.17a4.92 4.92 0 0 1-4.92-4.94v-8a4.92 4.92 0 0 1 4.92-4.94h11.66a4.92 4.92 0 0 1 4.92 4.94v8a4.922 4.922 0 0 1-4.92 4.94ZM6.17 5.06A3.42 3.42 0 0 0 2.75 8.5v8a3.42 3.42 0 0 0 3.42 3.42h11.66a3.42 3.42 0 0 0 3.42-3.42v-8a3.42 3.42 0 0 0-3.42-3.42L6.17 5.06Zm5.42 12.32H7.76a3.26 3.26 0 0 1-3.25-3.25V10.5a3.26 3.26 0 0 1 3.25-3.22h3.83a3.26 3.26 0 0 1 3.25 3.22v3.6a3.26 3.26 0 0 1-3.25 3.28Zm-3.83-8.6A1.75 1.75 0 0 0 6 10.5v3.6a1.75 1.75 0 0 0 1.75 1.75h3.83a1.76 1.76 0 0 0 1.75-1.75v-3.6a1.75 1.75 0 0 0-1.75-1.75l-3.82.03Z"/>
</svg>
