<svg xmlns="http://www.w3.org/2000/svg" width="24" height="24" fill="currentColor" viewBox="0 0 24 24">
  <path d="M14.82 14.37a2.189 2.189 0 0 1-1.57-.65 2.231 2.231 0 0 1-.67-1.57V7.76a2.23 2.23 0 0 1 2.22-2.24h2A2.24 2.24 0 0 1 19 7.73v4.38a2.24 2.24 0 0 1-2.22 2.25h-1.96v.01ZM16.73 7h-1.94a.74.74 0 0 0-.73.74v4.38a.74.74 0 0 0 .22.52.84.84 0 0 0 .52.21h1.93a.74.74 0 0 0 .73-.74V7.73a.73.73 0 0 0-.22-.52.71.71 0 0 0-.51-.21ZM8.56 18.66H7.33A2.622 2.622 0 0 1 4.71 16V8.17a2.62 2.62 0 0 1 2.62-2.62h1.23a2.62 2.62 0 0 1 2.62 2.62V16a2.622 2.622 0 0 1-2.62 2.66ZM7.33 7.05a1.12 1.12 0 0 0-1.12 1.12V16a1.12 1.12 0 0 0 1.12 1.12h1.23A1.12 1.12 0 0 0 9.68 16V8.17a1.12 1.12 0 0 0-1.12-1.12H7.33Zm8.31 15.55h-7.3a7 7 0 0 1-7-7V8.26a7 7 0 0 1 7-7h7.3a7 7 0 0 1 7 7v7.3a7.05 7.05 0 0 1-7 7.04ZM8.34 2.73a5.54 5.54 0 0 0-5.53 5.53v7.3a5.54 5.54 0 0 0 5.53 5.54h7.3a5.54 5.54 0 0 0 5.54-5.54v-7.3a5.54 5.54 0 0 0-5.54-5.53h-7.3Z"/>
</svg>
