<svg xmlns="http://www.w3.org/2000/svg" width="24" height="24" fill="currentColor" viewBox="0 0 24 24">
  <path d="M12 2.91a3.19 3.19 0 0 0-2.78 1.61L2.43 16.27A3.2 3.2 0 0 0 2.84 20L12 13.61V2.91Z"/>
  <path d="M21.14 20.05a3.19 3.19 0 0 0 .43-3.78L14.78 4.52A3.19 3.19 0 0 0 12 2.91v10.7l9.14 6.44ZM2.84 20a3.142 3.142 0 0 0 2.37 1.06h13.57a3.142 3.142 0 0 0 2.36-1L12 13.61 2.84 20Z" opacity=".3"/>
  <path d="M2.84 20a3.142 3.142 0 0 0 2.37 1.06h13.57a3.142 3.142 0 0 0 2.36-1L12 13.61 2.84 20Z" opacity=".3"/>
</svg>
