<svg xmlns="http://www.w3.org/2000/svg" width="24" height="24" fill="currentColor" viewBox="0 0 24 24">
  <path d="M15.87 21.91 8.32 22a2.56 2.56 0 0 1-2.59-2.38L5 9.18A1.1 1.1 0 0 1 6.12 8h11.76A1.1 1.1 0 0 1 19 9.17l-.59 10.32a2.56 2.56 0 0 1-2.54 2.42Z" opacity=".3"/>
  <path d="M14.23 13.6H9.77a.75.75 0 1 1 0-1.5h4.46a.75.75 0 1 1 0 1.5Zm-.78 3.7h-2.9a.75.75 0 1 1 0-1.5h2.9a.75.75 0 1 1 0 1.5Zm6.8-10.14h-.11a59.72 59.72 0 0 0-16.27 0 .75.75 0 0 1-.24-1.48 60 60 0 0 1 16.73 0 .75.75 0 0 1-.11 1.49v-.01Z"/>
  <path d="M16 5.84H8l.45-2.32A1.87 1.87 0 0 1 10.25 2h3.53a1.88 1.88 0 0 1 1.84 1.53L16 5.84Z"/>
</svg>
