<svg xmlns="http://www.w3.org/2000/svg" width="24" height="24" fill="currentColor" viewBox="0 0 24 24">
  <path d="m17.55 1.965-11.2.06A4.43 4.43 0 0 0 1.946 6.48l.06 11.14a4.43 4.43 0 0 0 4.454 4.406l11.2-.06a4.43 4.43 0 0 0 4.406-4.454l-.06-11.14a4.43 4.43 0 0 0-4.454-4.406Z" opacity=".3"/>
  <path d="M14.2 11.61H9.34a.5.5 0 0 0-.5.5v.72a.5.5 0 0 0 .5.5h1.5v5.34a.5.5 0 0 0 .5.5h.85a.5.5 0 0 0 .5-.5v-5.34h1.51a.5.5 0 0 0 .5-.5v-.72a.51.51 0 0 0-.5-.5Zm3.8 2.88c-.92-.36-1-.55-1-.8s.2-.48.74-.48a2.06 2.06 0 0 1 1 .25.48.48 0 0 0 .42 0 .51.51 0 0 0 .29-.3l.23-.69a.51.51 0 0 0-.22-.6 3.52 3.52 0 0 0-1.7-.39 2.39 2.39 0 0 0-2.62 2.29c0 1.59 1.55 2.15 2.05 2.32.92.35.92.61.92.84 0 .54-.55.62-.88.62a2.42 2.42 0 0 1-1.23-.34.53.53 0 0 0-.44 0 .49.49 0 0 0-.3.33l-.22.71a.51.51 0 0 0 .2.56c.61.344 1.3.517 2 .5 1.94 0 2.8-1.2 2.8-2.39A2.55 2.55 0 0 0 18 14.49Z"/>
</svg>
