<svg xmlns="http://www.w3.org/2000/svg" width="24" height="24" fill="currentColor" viewBox="0 0 24 24">
  <path d="M21.5 13.46V3.08A1.09 1.09 0 0 0 20.41 2H5.11a1.09 1.09 0 0 0-.91.49L2.69 4.76a1.09 1.09 0 0 0-.19.6v12.47a1.09 1.09 0 0 0 1.09 1.09h1.74A1.09 1.09 0 0 1 6.42 20v.91A1.09 1.09 0 0 0 7.51 22h1.33a1.09 1.09 0 0 0 .91-.48l1.43-2.13a1.1 1.1 0 0 1 .91-.48H16a1.1 1.1 0 0 0 .77-.32l4.38-4.37c.209-.2.334-.472.35-.76Z" opacity=".3"/>
  <path d="M10.04 6.5h-.8a.74.74 0 0 0-.74.74v5.43c0 .409.331.74.74.74h.8a.74.74 0 0 0 .74-.74V7.24a.74.74 0 0 0-.74-.74Zm5.71.03h-.8a.74.74 0 0 0-.74.74v5.43c0 .409.331.74.74.74h.8a.74.74 0 0 0 .74-.74V7.27a.74.74 0 0 0-.74-.74Z"/>
</svg>
