<svg xmlns="http://www.w3.org/2000/svg" width="24" height="25" fill="currentColor" viewBox="0 0 24 25">
  <path d="M22.6 5.22a1.48 1.48 0 0 0-1.22-.84 9.42 9.42 0 0 0-2.15.06 5.15 5.15 0 0 0-3.42-1.32 5.1 5.1 0 0 0-4.65 3 5.48 5.48 0 0 0-.42 2.23 11.42 11.42 0 0 1-6.9-3.49 1.4 1.4 0 0 0-1.36-.36 1.39 1.39 0 0 0-1 .94 4.78 4.78 0 0 0 .61 4.16 1.24 1.24 0 0 0-.34.22 1.2 1.2 0 0 0-.38 1.16 4.91 4.91 0 0 0 2 3.15l-.12.19a1.3 1.3 0 0 0 0 1.28 5 5 0 0 0 2.28 2.08 8.538 8.538 0 0 1-.87.39 8.808 8.808 0 0 1-1.66.29 1.28 1.28 0 0 0-.38 2.45 12.88 12.88 0 0 0 5.18 1.07A13 13 0 0 0 20.92 8.74a1.765 1.765 0 0 0 0-.23 9.76 9.76 0 0 0 1.58-1.8 1.5 1.5 0 0 0 .1-1.49ZM4.75 15.14c.294-.025.586-.079.87-.16l2.59-.7-2.58-.78A3.56 3.56 0 0 1 3 11.11c.309.07.624.107.94.11H6L4.37 9.89a3.72 3.72 0 0 1-1.51-3.85 13 13 0 0 0 8.6 3.92c1.2.06 1.68 1.45 1.7 2.37a4.45 4.45 0 0 1-2.28 3.71 6 6 0 0 1-3.31.57 3.439 3.439 0 0 1-2.82-1.47Zm14.93-7.55-.3.24v.91A11.521 11.521 0 0 1 7.81 20.38 11.61 11.61 0 0 1 4 19.75a7.2 7.2 0 0 0 1.16-.25 9.388 9.388 0 0 0 2.57-1.37h.5a6.41 6.41 0 0 0 3.43-.8 6 6 0 0 0 3-5 3.82 3.82 0 0 0-2.42-3.71c-.03-.62.07-1.24.29-1.82a3.58 3.58 0 0 1 5.9-1l.29.31.42-.09a7.48 7.48 0 0 1 2.11-.11 8.08 8.08 0 0 1-1.57 1.68Z"/>
</svg>
