<svg xmlns="http://www.w3.org/2000/svg" width="24" height="25" fill="currentColor" viewBox="0 0 24 25">
  <path d="M19.41 4.44H8.32A3.34 3.34 0 0 0 5 7.67h-.4A3.35 3.35 0 0 0 1.25 11v6.21a3.35 3.35 0 0 0 3.34 3.34h11.09A3.34 3.34 0 0 0 19 17.33h.4A3.35 3.35 0 0 0 22.75 14V7.78a3.35 3.35 0 0 0-3.34-3.34ZM4.59 9.17h11.09A1.85 1.85 0 0 1 17.52 11v1.48H2.75V11a1.84 1.84 0 0 1 1.84-1.83Zm12.93 8a1.84 1.84 0 0 1-1.84 1.84H4.59a1.84 1.84 0 0 1-1.84-1.84V14h14.77v3.23-.06ZM21.25 14a1.84 1.84 0 0 1-1.84 1.84H19V11a3.35 3.35 0 0 0-3.34-3.34H6.48a1.85 1.85 0 0 1 1.84-1.72h11.09a1.84 1.84 0 0 1 1.84 1.84V14Zm-4.8 2.07a.75.75 0 0 1-.75.75h-1.21a.75.75 0 1 1 0-1.5h1.21a.75.75 0 0 1 .75.74v.01Zm-8.25 0a.75.75 0 0 1-.75.75H4.57a.75.75 0 1 1 0-1.5h2.88a.75.75 0 0 1 .75.74v.01Z"/>
</svg>
