<svg xmlns="http://www.w3.org/2000/svg" width="24" height="24" fill="currentColor" viewBox="0 0 24 24">
  <path d="M12 21.68a.75.75 0 0 1-.75-.75l-.03-17.86a.749.749 0 0 1 .78-.75.73.73 0 0 1 .75.75l.06 17.86a.75.75 0 0 1-.75.75H12Z" opacity=".3"/>
  <path d="M12 22a.732.732 0 0 1-.54-.23l-2.94-3a.75.75 0 0 1 1.06-1.06L12 20.16l2.4-2.46a.75.75 0 0 1 1.06 1.06l-2.94 3A.72.72 0 0 1 12 22Zm2.87-15.48a.75.75 0 0 1-.54-.22l-2.4-2.46L9.52 6.3a.75.75 0 0 1-1.06-1.06l2.94-3a.77.77 0 0 1 1.07 0l2.94 3a.74.74 0 0 1-.53 1.27l-.01.01Z"/>
</svg>
