<svg xmlns="http://www.w3.org/2000/svg" width="24" height="24" fill="currentColor" viewBox="0 0 24 24">
  <path d="M22.11 8.74a.862.862 0 0 0 0-.17 6.69 6.69 0 0 0-6.66-6.26h-5a2.78 2.78 0 0 0-2.11-1.06H6.18a4.93 4.93 0 0 0-4.93 4.93v10.89a5.68 5.68 0 0 0 5.68 5.68h10.14a5.68 5.68 0 0 0 5.68-5.68v-5.72a5.6 5.6 0 0 0-.64-2.61Zm-2.19-2.3a5.73 5.73 0 0 0-2.85-.77h-3.18a2.78 2.78 0 0 1-2.59-1.76v-.07h4.21a5.13 5.13 0 0 1 4.41 2.6Zm1.3 10.63a4.15 4.15 0 0 1-4.15 4.15H6.93a4.15 4.15 0 0 1-4.15-4.15V6.18a3.4 3.4 0 0 1 3.4-3.4h2.16a1.24 1.24 0 0 1 1.17.8l.36.9a4.31 4.31 0 0 0 4 2.72h3.18a4.15 4.15 0 0 1 4.15 4.15l.02 5.72Zm-10.37-3.49-2.34.82a.729.729 0 0 1-.25 0 .78.78 0 0 1-.72-.4l-.85-2.23a.77.77 0 0 1 1.43-.55l.24.64a.78.78 0 0 1 .05-.14 4.06 4.06 0 0 1 5.5-1.61.763.763 0 1 1-.73 1.34 2.53 2.53 0 0 0-3.37.92l.53-.19a.77.77 0 1 1 .51 1.45v-.05ZM17 16.85l-.77-2.36a.79.79 0 0 0-.4-.46.8.8 0 0 0-.61 0l-2.22.86a.77.77 0 0 0 .56 1.43l.47-.19a2.53 2.53 0 0 1-3.37.92.76.76 0 0 0-1 .3.77.77 0 0 0 .3 1 4 4 0 0 0 1.95.5 4.09 4.09 0 0 0 3.53-2.05l.15.48a.78.78 0 0 0 .73.53c.08.014.16.014.24 0a.76.76 0 0 0 .44-.96Z"/>
</svg>
