<svg xmlns="http://www.w3.org/2000/svg" width="24" height="24" fill="currentColor" viewBox="0 0 24 24">
  <path d="m8.18 14.68-2.29.81a.691.691 0 0 1-.24 0A.74.74 0 0 1 5 15l-.84-2.21a.78.78 0 0 1 .44-1 .741.741 0 0 1 1 .44l.24.63v-.13a4 4 0 0 1 2.37-1.94 3.91 3.91 0 0 1 3 .34.77.77 0 0 1 .3 1 .74.74 0 0 1-1 .3 2.46 2.46 0 0 0-3.3.91l.52-.18a.74.74 0 0 1 1 .47.77.77 0 0 1-.55 1.05Zm6 3.25-.75-2.35a.77.77 0 0 0-.4-.45.71.71 0 0 0-.59 0l-2.16.87a.78.78 0 0 0-.42 1 .73.73 0 0 0 1 .43l.46-.18a2.44 2.44 0 0 1-3.3.91.76.76 0 0 0-1 .3.78.78 0 0 0 .3 1 3.95 3.95 0 0 0 5.36-1.55l.16.48a.73.73 0 0 0 .71.53.618.618 0 0 0 .23 0 .76.76 0 0 0 .43-.99h-.03Zm8.57-7.46a.66.66 0 0 0 0-.15.76.76 0 0 0-.19-.72l-8-8.13a.64.64 0 0 0-.22-.14h-.07a.65.65 0 0 0-.19 0H7.62a6.43 6.43 0 0 0-6.37 6.39v8.56a6.43 6.43 0 0 0 6.37 6.47h8.82a6.43 6.43 0 0 0 6.37-6.47l-.06-5.81Zm-8-6.62 5.44 5.53h-2.88a2.55 2.55 0 0 1-2.53-2.57l-.03-2.96Zm1.66 17.38H7.62a4.91 4.91 0 0 1-4.87-4.95V7.72a4.91 4.91 0 0 1 4.87-4.95h5.66v4a4.07 4.07 0 0 0 4 4.09h4v5.38a4.92 4.92 0 0 1-4.84 4.99h-.03Z"/>
</svg>
