<svg xmlns="http://www.w3.org/2000/svg" width="24" height="24" fill="currentColor" viewBox="0 0 24 24">
  <path d="M11.32 4.53a2.6 2.6 0 0 0 2.42 1.63h3a5.28 5.28 0 0 1 4.58 2.74 5.5 5.5 0 0 0-5.48-5.16H11l.32.79Z" opacity=".3"/>
  <path d="M16.72 6.11h-3a2.58 2.58 0 0 1-2.41-1.63L11 3.64A2.61 2.61 0 0 0 8.59 2h-2A4.58 4.58 0 0 0 2 6.58v10.14A5.27 5.27 0 0 0 7.28 22h9.44A5.27 5.27 0 0 0 22 16.72v-5.33a5.28 5.28 0 0 0-5.28-5.28Zm-8.2 8.16a.72.72 0 0 1-.67-.46l-.79-2.07a.72.72 0 0 1 .41-.92.709.709 0 0 1 .92.41l.23.59a.28.28 0 0 1 0-.12 3.75 3.75 0 0 1 5.12-1.5.71.71 0 1 1-.68 1.24 2.33 2.33 0 0 0-1.79-.19A2.36 2.36 0 0 0 10 12.3l.5-.18a.715.715 0 0 1 .47 1.35l-2.18.76a.589.589 0 0 1-.27.04Zm7.67 3.14a.78.78 0 0 1-.22 0 .71.71 0 0 1-.67-.41l-.15-.45a3.77 3.77 0 0 1-3.28 1.91 3.68 3.68 0 0 1-1.81-.47.71.71 0 1 1 .68-1.24 2.36 2.36 0 0 0 3.14-.86l-.44.17a.699.699 0 0 1-.92-.4.72.72 0 0 1 .4-.92l2.08-.87a.731.731 0 0 1 .56 0 .7.7 0 0 1 .37.42l.72 2.2a.72.72 0 0 1-.46.92Z"/>
</svg>
