<svg xmlns="http://www.w3.org/2000/svg" width="24" height="24" fill="currentColor" viewBox="0 0 24 24">
  <path d="M6.492 18.485C3.458 18.48 1 15.883 1 12.679c0-3.293 2.198-5.225 4.436-5.694a7.015 7.015 0 0 1 6.552-4.5c3.7 0 6.73 2.86 6.993 6.486 2.292.438 4.019 2.38 4.019 4.71 0 2.653-2.239 4.804-5 4.804H6.492Z" opacity=".3"/>
  <path fill-rule="evenodd" d="M11.293 9.778a1 1 0 0 1 1.414 0l4.243 4.242a1 1 0 0 1-1.414 1.415L13 12.899v6.867a1 1 0 0 1-2 0v-6.867l-2.536 2.536A1 1 0 0 1 7.05 14.02l4.243-4.242Z" clip-rule="evenodd"/>
</svg>
