<svg xmlns="http://www.w3.org/2000/svg" width="24" height="25" fill="currentColor" viewBox="0 0 24 25">
  <path d="M6.54 8.104a5.834 5.834 0 0 1 5.449-3.742 5.827 5.827 0 0 1 5.816 5.393.7.7 0 0 0 .567.636c1.83.35 3.174 1.892 3.174 3.7 0 2.058-1.745 3.774-3.957 3.774h-2.796a.7.7 0 1 0 0 1.4h2.796c2.932 0 5.357-2.29 5.357-5.174 0-2.351-1.616-4.311-3.8-4.951a7.23 7.23 0 0 0-7.157-6.178 7.233 7.233 0 0 0-6.614 4.296c-2.234.623-4.32 2.64-4.32 5.899 0 3.334 2.567 6.103 5.814 6.108h2.339a.7.7 0 1 0 0-1.4H6.87c-2.405-.004-4.416-2.074-4.416-4.708 0-2.696 1.774-4.24 3.575-4.618a.7.7 0 0 0 .51-.435Z"/>
  <path d="M12.495 9.619a.7.7 0 0 0-.99 0L7.263 13.86a.7.7 0 0 0 .99.99l3.047-3.047v9.836a.7.7 0 1 0 1.4 0v-9.836l3.048 3.047a.7.7 0 0 0 .99-.99l-4.243-4.24Z"/>
</svg>
