<svg xmlns="http://www.w3.org/2000/svg" width="24" height="25" fill="currentColor" viewBox="0 0 24 25">
  <path d="M11.8 13.79a5.71 5.71 0 1 1 0-11.42 5.71 5.71 0 0 1 0 11.42Zm0-9.92A4.21 4.21 0 1 0 16 8.08a4.22 4.22 0 0 0-4.2-4.21ZM3.64 22.01c.58-3.44 4.09-6 8.16-6 .723 0 1.445.08 2.15.24a.749.749 0 0 0 .834-1.14.753.753 0 0 0-.504-.32 10.782 10.782 0 0 0-2.48-.29c-4.8 0-8.93 3.11-9.64 7.26a.76.76 0 0 0 .62.86h.13a.75.75 0 0 0 .73-.61Zm11.63-.21a1.468 1.468 0 0 1-1.06-.45 1.49 1.49 0 0 1-.36-1.29l.3-1.42a1.83 1.83 0 0 1 .52-.94l3.42-3.2a1.81 1.81 0 0 1 1.32-.47 1.9 1.9 0 0 1 1.27.6l.65.7a1.85 1.85 0 0 1 0 2.6l-3.42 3.19a1.73 1.73 0 0 1-1 .46l-1.44.2-.2.02Zm4-6.26a.27.27 0 0 0-.19.07L15.7 18.8a.29.29 0 0 0-.08.14l-.3 1.43 1.38-.27a.26.26 0 0 0 .15-.07l3.41-3.19a.36.36 0 0 0 0-.48l-.66-.7a.372.372 0 0 0-.26-.12h-.07Z"/>
</svg>
