<svg xmlns="http://www.w3.org/2000/svg" width="24" height="25" fill="currentColor" viewBox="0 0 24 25">
  <path fill-rule="evenodd" d="M14.658 12.778a5.7 5.7 0 0 1-3.168.962 5.688 5.688 0 0 1-5.7-5.69 5.7 5.7 0 1 1 8.868 4.728Zm-.835-8.22a4.2 4.2 0 1 0-4.666 6.984 4.2 4.2 0 0 0 4.666-6.984Z" clip-rule="evenodd"/>
  <path d="M15.813 17.227a.75.75 0 0 0 0 1.5h2.949a.75.75 0 1 0 0-1.5h-2.949Z"/>
  <path fill-rule="evenodd" d="M15.557 13.62a4.65 4.65 0 0 1 1.873-.39l-.01-.01a4.71 4.71 0 1 1-4.71 4.71c0-.64.133-1.274.39-1.86a9.867 9.867 0 0 0-1.62-.15c-4.06 0-7.56 2.58-8.13 6a.76.76 0 0 1-.74.62h-.13a.74.74 0 0 1-.61-.86c.7-4.14 4.83-7.25 9.61-7.25.849.004 1.694.105 2.52.3a4.65 4.65 0 0 1 1.557-1.11Zm.087 6.994a3.21 3.21 0 1 0 3.552-5.348 3.21 3.21 0 0 0-3.552 5.348Z" clip-rule="evenodd"/>
</svg>
