<svg xmlns="http://www.w3.org/2000/svg" width="24" height="25" fill="currentColor" viewBox="0 0 24 25">
  <path d="M12 13.17a5.71 5.71 0 1 1 0-11.418 5.71 5.71 0 0 1 0 11.418Zm0-9.92a4.21 4.21 0 1 0 4.21 4.25A4.222 4.222 0 0 0 12 3.25Zm7.7 20H4.3a2 2 0 0 1-1.54-.7 1.74 1.74 0 0 1-.4-1.41c.7-4.15 4.85-7.28 9.64-7.28 4.79 0 8.94 3.13 9.64 7.28a1.74 1.74 0 0 1-.4 1.41 2 2 0 0 1-1.54.7ZM12 15.36c-4.07 0-7.58 2.59-8.16 6a.24.24 0 0 0 .06.19.508.508 0 0 0 .4.17h15.4a.51.51 0 0 0 .4-.17.24.24 0 0 0 .06-.19c-.58-3.41-4.09-6-8.16-6Z"/>
</svg>
