<svg xmlns="http://www.w3.org/2000/svg" width="24" height="25" fill="currentColor" viewBox="0 0 24 25">
  <path d="M11.49 13.74a5.7 5.7 0 1 0-5.7-5.69 5.69 5.69 0 0 0 5.7 5.69Zm0-9.89a4.2 4.2 0 1 1 0 8.4 4.2 4.2 0 0 1 0-8.4Zm5.94 9.38a4.65 4.65 0 0 0-3.43 1.5 11.203 11.203 0 0 0-2.52-.3c-4.78 0-8.91 3.11-9.61 7.25a.74.74 0 0 0 .61.86h.13a.76.76 0 0 0 .74-.62c.57-3.42 4.07-6 8.13-6a9.867 9.867 0 0 1 1.62.15 4.62 4.62 0 0 0-.39 1.86 4.71 4.71 0 1 0 4.71-4.71l.01.01Zm0 7.92a3.21 3.21 0 1 1-.02-6.42 3.21 3.21 0 0 1 .02 6.42Zm2-4.76a.73.73 0 0 1 .12 1l-1.68 2.15a.771.771 0 0 1-.59.29.729.729 0 0 1-.58-.29l-1.22-1.55a.74.74 0 0 1 .13-1 .73.73 0 0 1 1 .12l.63.81 1.14-1.42a.74.74 0 0 1 1.04-.11h.01Z"/>
</svg>
