<svg xmlns="http://www.w3.org/2000/svg" width="24" height="24" fill="currentColor" viewBox="0 0 24 24">
  <path d="M12.05 22a.74.74 0 0 1-.62-.33L2.54 8.32a.75.75 0 0 1 .21-1 .74.74 0 0 1 1 .21l8.26 12.41 8.2-12.29a.75.75 0 0 1 1.25.83l-8.79 13.19a.73.73 0 0 1-.62.33Z"/>
  <path d="m17.6 4.24-5.07 7.6a.65.65 0 0 1-1.1 0l-5.07-7.6A.66.66 0 0 0 5.81 4H4.49a.66.66 0 0 0-.56 1l7.51 11.72a.66.66 0 0 0 1.12 0L20.17 5a.66.66 0 0 0-.56-1h-1.46a.66.66 0 0 0-.55.24Z" opacity=".4"/>
  <path d="m15.84 3-3.26 4.9a.72.72 0 0 1-1.2 0L8.12 3l2.71 1V2.67a.668.668 0 0 1 .68-.67h1a.68.68 0 0 1 .68.67V4l2.65-1Z"/>
</svg>
