<svg xmlns="http://www.w3.org/2000/svg" width="24" height="25" fill="currentColor" viewBox="0 0 24 25">
  <path d="M5.471 9.4a1 1 0 0 0 .286.7.964.964 0 0 0 1.376 0 1.001 1.001 0 0 0 0-1.401.964.964 0 0 0-1.376 0 1.001 1.001 0 0 0-.286.7Zm4.387 0c0 .263.102.515.285.7a.964.964 0 0 0 1.377 0 1.001 1.001 0 0 0 0-1.401.965.965 0 0 0-1.377 0 1.001 1.001 0 0 0-.285.7Zm3.563 4.76c0 .218.086.429.238.584a.804.804 0 0 0 1.147 0 .834.834 0 0 0 0-1.169.803.803 0 0 0-1.147 0 .834.834 0 0 0-.238.584Zm3.634 0c0 .218.086.429.238.584a.804.804 0 0 0 1.147 0 .834.834 0 0 0 0-1.169.804.804 0 0 0-1.147 0 .834.834 0 0 0-.238.584Z"/>
  <path fill-rule="evenodd" d="M22.75 14.853c0-1.513-.675-2.931-1.905-3.989-1.096-.945-2.518-1.497-4.04-1.583-.334-1.56-1.281-2.978-2.676-4-1.405-1.03-3.193-1.596-5.033-1.596-2.074 0-4.027.7-5.503 1.97-1.51 1.302-2.343 3.04-2.343 4.898a6.1 6.1 0 0 0 .659 2.76c.38.76.908 1.448 1.57 2.04l-.538 3.05a.762.762 0 0 0 .25.707.726.726 0 0 0 .723.13l4.922-1.822a14.557 14.557 0 0 0 1.707-.132 4.71 4.71 0 0 0 1.08 1.494c1.133 1.051 2.804 1.606 4.972 1.653.013 0 .022 0 .032.003l3.602.86a.721.721 0 0 0 .649-.165.76.76 0 0 0 .25-.632l-.163-1.769c1.14-1.03 1.785-2.429 1.785-3.877ZM8.7 15.97l-.12.004-4.017 1.487.37-2.085a1.04 1.04 0 0 0-.35-.975c-1.224-1.025-1.899-2.39-1.899-3.841 0-2.985 2.878-5.417 6.418-5.417 3.021 0 5.594 1.751 6.256 4.207-1.278.185-2.46.707-3.403 1.52-1.227 1.058-1.905 2.476-1.905 3.99 0 .354.026.697.078 1.025a16.08 16.08 0 0 1-1.428.085Zm11.117 1.851a.814.814 0 0 0-.299.714l.104 1.128-2.66-.632a1.105 1.105 0 0 0-.328-.046c-3.372-.07-5.156-1.5-5.156-4.132 0-2.277 2.21-4.131 4.925-4.131 2.716 0 4.92 1.854 4.92 4.131 0 1.127-.536 2.182-1.506 2.968Z" clip-rule="evenodd"/>
</svg>
