<svg xmlns="http://www.w3.org/2000/svg" width="24" height="25" fill="currentColor" viewBox="0 0 24 25">
  <path d="M12 23.25a10.67 10.67 0 0 1-5.15-1.32l-3 .82a1.73 1.73 0 0 1-1.35-.17 1.76 1.76 0 0 1-.8-2l.81-3a10.78 10.78 0 1 1 17.24 2.23A10.77 10.77 0 0 1 12 23.25Zm-4.95-2.93.27.16a9.32 9.32 0 0 0 13.92-8.53 9.29 9.29 0 0 0-3.47-6.68A9.26 9.26 0 0 0 4 17.13l.16.26-1 3.61a.24.24 0 0 0 0 .2.2.2 0 0 0 .08.08.21.21 0 0 0 .19 0l3.62-.96Zm7.64-2a6.05 6.05 0 0 1-2.91-1 13.38 13.38 0 0 1-4.81-5c-1.08-2.13-1-3.73.29-4.92a2.21 2.21 0 0 1 1.36-.64 1.57 1.57 0 0 1 1.55.66l1.45 2.18c.045.15.078.305.1.46a1.33 1.33 0 0 1-.23.87c0 .05-.29.35-.49.59a9.702 9.702 0 0 0 2 2c.17-.16.39-.35.56-.48a1.46 1.46 0 0 1 1.44-.13l.11.07 2.1 1.45c.15.138.285.292.4.46.19.389.23.834.11 1.25a2.629 2.629 0 0 1-1.32 1.66 3.32 3.32 0 0 1-1.71.48v.04ZM8.86 8.21a.84.84 0 0 0-.58.29c-.5.45-.94 1.22 0 3.13A11.69 11.69 0 0 0 12.5 16c1.68 1 2.42.92 3.12.51a1.07 1.07 0 0 0 .62-.89l-.06-.06-1.8-1.26c-.206.163-.4.34-.58.53a1 1 0 0 1-1.21.2 10.25 10.25 0 0 1-3.08-3 1 1 0 0 1 .16-1.22l.53-.62-1.26-1.93-.08-.05Z"/>
</svg>
