<svg xmlns="http://www.w3.org/2000/svg" width="24" height="24" fill="currentColor" viewBox="0 0 24 24">
  <path d="M22 11.41a10 10 0 0 0-19.86-1A10.14 10.14 0 0 0 3.33 17l-.89 3.31a1 1 0 0 0 .12.78.92.92 0 0 0 .34.34 1 1 0 0 0 .77.1l3.27-.9A10 10 0 0 0 12 22a10.15 10.15 0 0 0 10-10.59Z" opacity=".4"/>
  <path d="M7.77 7.45c-.94.86-1.11 2.09-.13 4a12.55 12.55 0 0 0 4.51 4.68c1.63.93 2.74 1.17 3.88.51A1.68 1.68 0 0 0 17 14.8a2.304 2.304 0 0 0-.28-.32l-2-1.38a.7.7 0 0 0-.67 0c-.26.205-.507.425-.74.66a.31.31 0 0 1-.34.07 9.76 9.76 0 0 1-2.78-2.77.26.26 0 0 1 .06-.32c.16-.17.66-.76.66-.76a.67.67 0 0 0 .09-.32 1.583 1.583 0 0 0-.07-.31l-1.35-2A.86.86 0 0 0 8.81 7a1.52 1.52 0 0 0-1.04.45Z"/>
</svg>
