<svg xmlns="http://www.w3.org/2000/svg" width="24" height="25" fill="currentColor" viewBox="0 0 24 25">
  <path d="M21 7.32a.75.75 0 0 1-.62.32.78.78 0 0 1-.38-.14 13.38 13.38 0 0 0-15.86 0 .76.76 0 0 1-1-.13.75.75 0 0 1 .13-1c.08-.07 8.44-6.46 17.61 0a.76.76 0 0 1 .12.95Zm-4 4.72a.74.74 0 0 0 .61-.32.749.749 0 0 0-.18-1.05 9.36 9.36 0 0 0-10.88 0 .75.75 0 0 0-.12 1.05.76.76 0 0 0 1 .13 7.69 7.69 0 0 1 9.09 0 .76.76 0 0 0 .48.19Zm-7.39 3.29a.75.75 0 0 0 1.06 1.06 2.07 2.07 0 0 1 2.83 0 .72.72 0 0 0 .48.17.75.75 0 0 0 .49-1.32 3.56 3.56 0 0 0-4.86.09Zm10.49 5.86H4a.75.75 0 1 0 0 1.5h16.1a.75.75 0 0 0 0-1.5Z"/>
</svg>
