<svg xmlns="http://www.w3.org/2000/svg" width="24" height="24" fill="currentColor" viewBox="0 0 24 24">
  <path d="M12 22a2 2 0 1 0 0-4 2 2 0 0 0 0 4Z"/>
  <g opacity=".3">
    <path d="m8.58 14.77.87 1.33a4.61 4.61 0 0 1 5.1 0l.87-1.33a.998.998 0 0 0-.4-1.45 7.34 7.34 0 0 0-6 0 1 1 0 0 0-.44 1.45ZM2.73 5.8l.89 1.37a15.29 15.29 0 0 1 16.76 0l.89-1.37a1 1 0 0 0-.36-1.43 17.93 17.93 0 0 0-17.82 0 1 1 0 0 0-.36 1.43Z"/>
    <path d="m5.65 10.28.89 1.35a10 10 0 0 1 10.92 0l.89-1.35A.999.999 0 0 0 18 8.84a12.6 12.6 0 0 0-12 0 1 1 0 0 0-.35 1.44Z"/>
  </g>
</svg>
