<svg xmlns="http://www.w3.org/2000/svg" width="24" height="24" fill="currentColor" viewBox="0 0 24 24">
  <path d="M17.28 21.81H6.36a3.48 3.48 0 0 1-3.47-3.08L2 11.23a3.47 3.47 0 0 1 1.34-3.16L10 2.89a3.48 3.48 0 0 1 4.37.1l6.36 5.34A3.49 3.49 0 0 1 22 11.59l-1.25 7.33a3.47 3.47 0 0 1-3.47 2.89Z" opacity=".3"/>
  <path d="M11.99 17.46a.99.99 0 1 0 0-1.98.99.99 0 0 0 0 1.98ZM14 15.19a.79.79 0 0 1-.53-.22 2.111 2.111 0 0 0-3.11 0 .75.75 0 0 1-1.06-1.06 3.58 3.58 0 0 1 5.22 0 .75.75 0 0 1 0 1.06.79.79 0 0 1-.52.22Z"/>
  <path d="M16.08 12.78a.76.76 0 0 1-.49-.18 5.45 5.45 0 0 0-7.37 0 .751.751 0 1 1-1-1.1s4.6-4.15 9.37 0a.75.75 0 0 1 .08 1.06.76.76 0 0 1-.59.22Z"/>
</svg>
