<svg xmlns="http://www.w3.org/2000/svg" width="24" height="24" fill="currentColor" viewBox="0 0 24 24">
  <path d="M16.47 15.6a.76.76 0 0 1-.75-.75v-5.7a.75.75 0 1 1 1.5 0v5.7a.75.75 0 0 1-.75.75Zm-2.11-.75v-3A3.41 3.41 0 0 0 11 8.4H7.53a.75.75 0 0 0-.75.75v5.7a.75.75 0 1 0 1.5 0V9.9H11a1.92 1.92 0 0 1 1.91 1.91v3a.75.75 0 1 0 1.5 0l-.05.04Zm-.75 0H7.53h3.79V12a.75.75 0 1 0-1.5 0v2.85a.75.75 0 1 0 1.5 0h2.29Z"/>
  <path d="M12 22c5.523 0 10-4.477 10-10S17.523 2 12 2 2 6.477 2 12s4.477 10 10 10Z" opacity=".3"/>
</svg>
