<svg xmlns="http://www.w3.org/2000/svg" width="24" height="25" fill="currentColor" viewBox="0 0 24 25">
  <path d="M12 23.25A10.75 10.75 0 1 1 22.75 12.5 10.76 10.76 0 0 1 12 23.25Zm0-20a9.25 9.25 0 1 0 9.25 9.25A9.26 9.26 0 0 0 12 3.25Zm4.47 12.85a.76.76 0 0 1-.75-.75v-5.7a.75.75 0 1 1 1.5 0v5.7a.75.75 0 0 1-.75.75Zm-2.11-.75v-3A3.41 3.41 0 0 0 11 8.9H7.53a.75.75 0 0 0-.75.75v5.7a.75.75 0 1 0 1.5 0V10.4H11a1.92 1.92 0 0 1 1.91 1.91v3a.75.75 0 1 0 1.5 0l-.05.04Zm-.75 0H7.53h3.79V12.5a.75.75 0 1 0-1.5 0v2.85a.75.75 0 1 0 1.5 0h2.29Z"/>
</svg>
