<svg xmlns="http://www.w3.org/2000/svg" width="24" height="25" fill="currentColor" viewBox="0 0 24 25">
  <path d="M22.76 8.4a6.71 6.71 0 0 0-6.71-6.67H7.91A6.71 6.71 0 0 0 1.2 8.5v8.08A6.71 6.71 0 0 0 8 23.27h8.13a6.71 6.71 0 0 0 6.67-6.77l-.04-8.1Zm-3 11.78a5.18 5.18 0 0 1-3.67 1.55L8 21.77a5.21 5.21 0 0 1-5.21-5.18L2.7 8.5a5.22 5.22 0 0 1 5.18-5.23h8.14a5.21 5.21 0 0 1 5.21 5.18v8.08a5.16 5.16 0 0 1-1.44 3.65h-.03ZM12.13 9.44 9.77 12.5l2.36 3a.76.76 0 0 1-.13 1 .74.74 0 0 1-.46.16.761.761 0 0 1-.6-.29L8.82 13.7 6.7 16.43a.751.751 0 1 1-1.18-.93l2.35-3-2.35-3a.773.773 0 1 1 1.18-1l2.12 2.73 2.12-2.73a.752.752 0 0 1 1.19.92v.02Zm5.79-1.21a.74.74 0 0 0-.75.75v2.74h-1a2.5 2.5 0 1 0 0 5h1.75a.75.75 0 0 0 .75-.75v-7a.75.75 0 0 0-.75-.74Zm-.75 7h-1a1 1 0 0 1 0-2h1v2Z"/>
</svg>
