<svg xmlns="http://www.w3.org/2000/svg" width="24" height="24" fill="currentColor" viewBox="0 0 24 24">
  <path d="M2.92 3.85a8.52 8.52 0 0 1 8 .91 14.32 14.32 0 0 1 5.6 10.33s-1.25-2.37-5.55-3.41-8.43-2.41-8.05-7.83Z" opacity=".3"/>
  <path d="M9.69 22a6.86 6.86 0 0 1 1.42-6.19c2.48-3.12 3.14-4.72 3.35-7.15a15.372 15.372 0 0 1 2 6.4C16.75 18.7 13 22.09 9.69 22Z" opacity=".3"/>
  <path d="M19.15 2A4.77 4.77 0 0 0 15 5.51c-.73 3 1.24 2.92 1.72 8a.71.71 0 0 0 1.28.39c2.22-2.48 6.47-8.28 1.15-11.9Z"/>
</svg>
