<svg xmlns="http://www.w3.org/2000/svg" width="24" height="25" fill="currentColor" viewBox="0 0 24 25">
  <path d="M15.92 15.5a16 16 0 0 0-2.15-6.75A13.42 13.42 0 0 0 10 4.65a9.19 9.19 0 0 0-8.71-1 .74.74 0 0 0-.44.63c-.46 6.4 5 7.73 8.59 8.61 3.35.81 4.66 2.43 5 2.9a5.54 5.54 0 0 1-1.65 3.88A6.55 6.55 0 0 1 9 21.75a6.31 6.31 0 0 1 1.42-4.94l.59-.77a.75.75 0 0 0-1.19-.91c-.18.24-.37.48-.58.74a7.64 7.64 0 0 0-1.54 6.91.75.75 0 0 0 .7.5h.09a7.84 7.84 0 0 0 5.42-2.57 6.86 6.86 0 0 0 2.01-5.21Zm-6.12-4c-4.27-1-7.55-2.2-7.47-6.57a7.63 7.63 0 0 1 6.8 1A13 13 0 0 1 14 13.32a11.812 11.812 0 0 0-4.2-1.82Zm8.2 3.89a1.598 1.598 0 0 1-.47-.08 1.44 1.44 0 0 1-1-1.24 11.912 11.912 0 0 0-1.2-4.45 4.899 4.899 0 0 1-.49-3.79 5.47 5.47 0 0 1 4.79-4.08.74.74 0 0 1 .48.13A6 6 0 0 1 23 6.2c.4 3.38-2.26 6.9-3.89 8.7a1.42 1.42 0 0 1-1.11.49Zm1.5-12.11a3.93 3.93 0 0 0-3.21 2.91 3.47 3.47 0 0 0 .4 2.8A13.512 13.512 0 0 1 18 13.92c1.39-1.63 3.78-4.75 3.45-7.54a4.48 4.48 0 0 0-1.95-3.1Z"/>
</svg>
